G04 #@! TF.GenerationSoftware,KiCad,Pcbnew,5.0.2-bee76a0~70~ubuntu18.04.1*
G04 #@! TF.CreationDate,2019-01-02T21:11:22-05:00*
G04 #@! TF.ProjectId,stm32 prototype,73746d33-3220-4707-926f-746f74797065,rev?*
G04 #@! TF.SameCoordinates,Original*
G04 #@! TF.FileFunction,Copper,L1,Top*
G04 #@! TF.FilePolarity,Positive*
%FSLAX46Y46*%
G04 Gerber Fmt 4.6, Leading zero omitted, Abs format (unit mm)*
G04 Created by KiCad (PCBNEW 5.0.2-bee76a0~70~ubuntu18.04.1) date Wed 02 Jan 2019 09:11:22 PM EST*
%MOMM*%
%LPD*%
G01*
G04 APERTURE LIST*
G04 #@! TA.AperFunction,ComponentPad*
%ADD10O,1.700000X1.700000*%
G04 #@! TD*
G04 #@! TA.AperFunction,ComponentPad*
%ADD11R,1.700000X1.700000*%
G04 #@! TD*
G04 #@! TA.AperFunction,SMDPad,CuDef*
%ADD12C,0.250000*%
G04 #@! TD*
G04 #@! TA.AperFunction,Conductor*
%ADD13C,0.100000*%
G04 #@! TD*
G04 #@! TA.AperFunction,SMDPad,CuDef*
%ADD14R,1.500000X1.500000*%
G04 #@! TD*
G04 #@! TA.AperFunction,SMDPad,CuDef*
%ADD15R,0.600000X1.050000*%
G04 #@! TD*
G04 #@! TA.AperFunction,SMDPad,CuDef*
%ADD16R,1.400000X1.150000*%
G04 #@! TD*
G04 #@! TA.AperFunction,SMDPad,CuDef*
%ADD17R,0.750000X1.200000*%
G04 #@! TD*
G04 #@! TA.AperFunction,SMDPad,CuDef*
%ADD18R,1.200000X0.750000*%
G04 #@! TD*
G04 #@! TA.AperFunction,SMDPad,CuDef*
%ADD19R,2.000000X2.500000*%
G04 #@! TD*
G04 #@! TA.AperFunction,SMDPad,CuDef*
%ADD20R,0.450000X1.500000*%
G04 #@! TD*
G04 #@! TA.AperFunction,SMDPad,CuDef*
%ADD21R,0.900000X1.200000*%
G04 #@! TD*
G04 #@! TA.AperFunction,SMDPad,CuDef*
%ADD22R,1.200000X0.900000*%
G04 #@! TD*
G04 #@! TA.AperFunction,ComponentPad*
%ADD23O,1.000000X1.000000*%
G04 #@! TD*
G04 #@! TA.AperFunction,ComponentPad*
%ADD24R,1.000000X1.000000*%
G04 #@! TD*
G04 #@! TA.AperFunction,SMDPad,CuDef*
%ADD25R,2.200000X2.800000*%
G04 #@! TD*
G04 #@! TA.AperFunction,ViaPad*
%ADD26C,0.800000*%
G04 #@! TD*
G04 #@! TA.AperFunction,Conductor*
%ADD27C,0.250000*%
G04 #@! TD*
G04 #@! TA.AperFunction,Conductor*
%ADD28C,0.400000*%
G04 #@! TD*
G04 #@! TA.AperFunction,Conductor*
%ADD29C,0.750000*%
G04 #@! TD*
G04 #@! TA.AperFunction,Conductor*
%ADD30C,0.254000*%
G04 #@! TD*
G04 APERTURE END LIST*
D10*
G04 #@! TO.P,J1,25*
G04 #@! TO.N,GND*
X182880000Y-106680000D03*
G04 #@! TO.P,J1,24*
G04 #@! TO.N,PB14*
X182880000Y-104140000D03*
G04 #@! TO.P,J1,23*
G04 #@! TO.N,PB15*
X182880000Y-101600000D03*
G04 #@! TO.P,J1,22*
G04 #@! TO.N,PC6*
X182880000Y-99060000D03*
G04 #@! TO.P,J1,21*
G04 #@! TO.N,PC7*
X182880000Y-96520000D03*
G04 #@! TO.P,J1,20*
G04 #@! TO.N,PC8*
X182880000Y-93980000D03*
G04 #@! TO.P,J1,19*
G04 #@! TO.N,PC9*
X182880000Y-91440000D03*
G04 #@! TO.P,J1,18*
G04 #@! TO.N,PA8_MCO*
X182880000Y-88900000D03*
G04 #@! TO.P,J1,17*
G04 #@! TO.N,PA9_ST_RXD*
X182880000Y-86360000D03*
G04 #@! TO.P,J1,16*
G04 #@! TO.N,PA10_ST_TXD*
X182880000Y-83820000D03*
G04 #@! TO.P,J1,15*
G04 #@! TO.N,PA11_ST_RTS*
X182880000Y-81280000D03*
G04 #@! TO.P,J1,14*
G04 #@! TO.N,PA12_CTS*
X182880000Y-78740000D03*
G04 #@! TO.P,J1,13*
G04 #@! TO.N,PA15*
X182880000Y-76200000D03*
G04 #@! TO.P,J1,12*
G04 #@! TO.N,PC10*
X182880000Y-73660000D03*
G04 #@! TO.P,J1,11*
G04 #@! TO.N,PC11*
X182880000Y-71120000D03*
G04 #@! TO.P,J1,10*
G04 #@! TO.N,PC12*
X182880000Y-68580000D03*
G04 #@! TO.P,J1,9*
G04 #@! TO.N,PD2*
X182880000Y-66040000D03*
G04 #@! TO.P,J1,8*
G04 #@! TO.N,PB4*
X182880000Y-63500000D03*
G04 #@! TO.P,J1,7*
G04 #@! TO.N,PB5_I2C1_SMBA*
X182880000Y-60960000D03*
G04 #@! TO.P,J1,6*
G04 #@! TO.N,PB6_I2C1_SCL*
X182880000Y-58420000D03*
G04 #@! TO.P,J1,5*
G04 #@! TO.N,PB7_I2C1_SDA*
X182880000Y-55880000D03*
G04 #@! TO.P,J1,4*
G04 #@! TO.N,PB8*
X182880000Y-53340000D03*
G04 #@! TO.P,J1,3*
G04 #@! TO.N,PB9*
X182880000Y-50800000D03*
G04 #@! TO.P,J1,2*
G04 #@! TO.N,PC13*
X182880000Y-48260000D03*
D11*
G04 #@! TO.P,J1,1*
G04 #@! TO.N,+5V*
X182880000Y-45720000D03*
G04 #@! TD*
G04 #@! TO.P,J1,1*
G04 #@! TO.N,+5V*
X182880000Y-45720000D03*
D10*
G04 #@! TO.P,J1,2*
G04 #@! TO.N,PC13*
X182880000Y-48260000D03*
G04 #@! TO.P,J1,3*
G04 #@! TO.N,PB9*
X182880000Y-50800000D03*
G04 #@! TO.P,J1,4*
G04 #@! TO.N,PB8*
X182880000Y-53340000D03*
G04 #@! TO.P,J1,5*
G04 #@! TO.N,PB7_I2C1_SDA*
X182880000Y-55880000D03*
G04 #@! TO.P,J1,6*
G04 #@! TO.N,PB6_I2C1_SCL*
X182880000Y-58420000D03*
G04 #@! TO.P,J1,7*
G04 #@! TO.N,PB5_I2C1_SMBA*
X182880000Y-60960000D03*
G04 #@! TO.P,J1,8*
G04 #@! TO.N,PB4*
X182880000Y-63500000D03*
G04 #@! TO.P,J1,9*
G04 #@! TO.N,PD2*
X182880000Y-66040000D03*
G04 #@! TO.P,J1,10*
G04 #@! TO.N,PC12*
X182880000Y-68580000D03*
G04 #@! TO.P,J1,11*
G04 #@! TO.N,PC11*
X182880000Y-71120000D03*
G04 #@! TO.P,J1,12*
G04 #@! TO.N,PC10*
X182880000Y-73660000D03*
G04 #@! TO.P,J1,13*
G04 #@! TO.N,PA15*
X182880000Y-76200000D03*
G04 #@! TO.P,J1,14*
G04 #@! TO.N,PA12_CTS*
X182880000Y-78740000D03*
G04 #@! TO.P,J1,15*
G04 #@! TO.N,PA11_ST_RTS*
X182880000Y-81280000D03*
G04 #@! TO.P,J1,16*
G04 #@! TO.N,PA10_ST_TXD*
X182880000Y-83820000D03*
G04 #@! TO.P,J1,17*
G04 #@! TO.N,PA9_ST_RXD*
X182880000Y-86360000D03*
G04 #@! TO.P,J1,18*
G04 #@! TO.N,PA8_MCO*
X182880000Y-88900000D03*
G04 #@! TO.P,J1,19*
G04 #@! TO.N,PC9*
X182880000Y-91440000D03*
G04 #@! TO.P,J1,20*
G04 #@! TO.N,PC8*
X182880000Y-93980000D03*
G04 #@! TO.P,J1,21*
G04 #@! TO.N,PC7*
X182880000Y-96520000D03*
G04 #@! TO.P,J1,22*
G04 #@! TO.N,PC6*
X182880000Y-99060000D03*
G04 #@! TO.P,J1,23*
G04 #@! TO.N,PB15*
X182880000Y-101600000D03*
G04 #@! TO.P,J1,24*
G04 #@! TO.N,PB14*
X182880000Y-104140000D03*
G04 #@! TO.P,J1,25*
G04 #@! TO.N,GND*
X182880000Y-106680000D03*
G04 #@! TD*
D12*
G04 #@! TO.P,U1,64*
G04 #@! TO.N,+3V3*
X174098858Y-74767841D03*
D13*
G04 #@! TD*
G04 #@! TO.N,+3V3*
G04 #@! TO.C,U1*
G36*
X173833693Y-75209783D02*
X173656916Y-75033006D01*
X174364023Y-74325899D01*
X174540800Y-74502676D01*
X173833693Y-75209783D01*
X173833693Y-75209783D01*
G37*
D12*
G04 #@! TO.P,U1,63*
G04 #@! TO.N,GND*
X174452412Y-75121394D03*
D13*
G04 #@! TD*
G04 #@! TO.N,GND*
G04 #@! TO.C,U1*
G36*
X174187247Y-75563336D02*
X174010470Y-75386559D01*
X174717577Y-74679452D01*
X174894354Y-74856229D01*
X174187247Y-75563336D01*
X174187247Y-75563336D01*
G37*
D12*
G04 #@! TO.P,U1,62*
G04 #@! TO.N,PB9*
X174805965Y-75474948D03*
D13*
G04 #@! TD*
G04 #@! TO.N,PB9*
G04 #@! TO.C,U1*
G36*
X174540800Y-75916890D02*
X174364023Y-75740113D01*
X175071130Y-75033006D01*
X175247907Y-75209783D01*
X174540800Y-75916890D01*
X174540800Y-75916890D01*
G37*
D12*
G04 #@! TO.P,U1,61*
G04 #@! TO.N,PB8*
X175159518Y-75828501D03*
D13*
G04 #@! TD*
G04 #@! TO.N,PB8*
G04 #@! TO.C,U1*
G36*
X174894353Y-76270443D02*
X174717576Y-76093666D01*
X175424683Y-75386559D01*
X175601460Y-75563336D01*
X174894353Y-76270443D01*
X174894353Y-76270443D01*
G37*
D12*
G04 #@! TO.P,U1,60*
G04 #@! TO.N,Net-(R6-Pad1)*
X175513072Y-76182054D03*
D13*
G04 #@! TD*
G04 #@! TO.N,Net-(R6-Pad1)*
G04 #@! TO.C,U1*
G36*
X175247907Y-76623996D02*
X175071130Y-76447219D01*
X175778237Y-75740112D01*
X175955014Y-75916889D01*
X175247907Y-76623996D01*
X175247907Y-76623996D01*
G37*
D12*
G04 #@! TO.P,U1,59*
G04 #@! TO.N,PB7_I2C1_SDA*
X175866625Y-76535608D03*
D13*
G04 #@! TD*
G04 #@! TO.N,PB7_I2C1_SDA*
G04 #@! TO.C,U1*
G36*
X175601460Y-76977550D02*
X175424683Y-76800773D01*
X176131790Y-76093666D01*
X176308567Y-76270443D01*
X175601460Y-76977550D01*
X175601460Y-76977550D01*
G37*
D12*
G04 #@! TO.P,U1,58*
G04 #@! TO.N,PB6_I2C1_SCL*
X176220179Y-76889161D03*
D13*
G04 #@! TD*
G04 #@! TO.N,PB6_I2C1_SCL*
G04 #@! TO.C,U1*
G36*
X175955014Y-77331103D02*
X175778237Y-77154326D01*
X176485344Y-76447219D01*
X176662121Y-76623996D01*
X175955014Y-77331103D01*
X175955014Y-77331103D01*
G37*
D12*
G04 #@! TO.P,U1,57*
G04 #@! TO.N,PB5_I2C1_SMBA*
X176573732Y-77242715D03*
D13*
G04 #@! TD*
G04 #@! TO.N,PB5_I2C1_SMBA*
G04 #@! TO.C,U1*
G36*
X176308567Y-77684657D02*
X176131790Y-77507880D01*
X176838897Y-76800773D01*
X177015674Y-76977550D01*
X176308567Y-77684657D01*
X176308567Y-77684657D01*
G37*
D12*
G04 #@! TO.P,U1,56*
G04 #@! TO.N,PB4*
X176927285Y-77596268D03*
D13*
G04 #@! TD*
G04 #@! TO.N,PB4*
G04 #@! TO.C,U1*
G36*
X176662120Y-78038210D02*
X176485343Y-77861433D01*
X177192450Y-77154326D01*
X177369227Y-77331103D01*
X176662120Y-78038210D01*
X176662120Y-78038210D01*
G37*
D12*
G04 #@! TO.P,U1,55*
G04 #@! TO.N,SWO*
X177280839Y-77949821D03*
D13*
G04 #@! TD*
G04 #@! TO.N,SWO*
G04 #@! TO.C,U1*
G36*
X177015674Y-78391763D02*
X176838897Y-78214986D01*
X177546004Y-77507879D01*
X177722781Y-77684656D01*
X177015674Y-78391763D01*
X177015674Y-78391763D01*
G37*
D12*
G04 #@! TO.P,U1,54*
G04 #@! TO.N,PD2*
X177634392Y-78303375D03*
D13*
G04 #@! TD*
G04 #@! TO.N,PD2*
G04 #@! TO.C,U1*
G36*
X177369227Y-78745317D02*
X177192450Y-78568540D01*
X177899557Y-77861433D01*
X178076334Y-78038210D01*
X177369227Y-78745317D01*
X177369227Y-78745317D01*
G37*
D12*
G04 #@! TO.P,U1,53*
G04 #@! TO.N,PC12*
X177987946Y-78656928D03*
D13*
G04 #@! TD*
G04 #@! TO.N,PC12*
G04 #@! TO.C,U1*
G36*
X177722781Y-79098870D02*
X177546004Y-78922093D01*
X178253111Y-78214986D01*
X178429888Y-78391763D01*
X177722781Y-79098870D01*
X177722781Y-79098870D01*
G37*
D12*
G04 #@! TO.P,U1,52*
G04 #@! TO.N,PC11*
X178341499Y-79010482D03*
D13*
G04 #@! TD*
G04 #@! TO.N,PC11*
G04 #@! TO.C,U1*
G36*
X178076334Y-79452424D02*
X177899557Y-79275647D01*
X178606664Y-78568540D01*
X178783441Y-78745317D01*
X178076334Y-79452424D01*
X178076334Y-79452424D01*
G37*
D12*
G04 #@! TO.P,U1,51*
G04 #@! TO.N,PC10*
X178695052Y-79364035D03*
D13*
G04 #@! TD*
G04 #@! TO.N,PC10*
G04 #@! TO.C,U1*
G36*
X178429887Y-79805977D02*
X178253110Y-79629200D01*
X178960217Y-78922093D01*
X179136994Y-79098870D01*
X178429887Y-79805977D01*
X178429887Y-79805977D01*
G37*
D12*
G04 #@! TO.P,U1,50*
G04 #@! TO.N,PA15*
X179048606Y-79717588D03*
D13*
G04 #@! TD*
G04 #@! TO.N,PA15*
G04 #@! TO.C,U1*
G36*
X178783441Y-80159530D02*
X178606664Y-79982753D01*
X179313771Y-79275646D01*
X179490548Y-79452423D01*
X178783441Y-80159530D01*
X178783441Y-80159530D01*
G37*
D12*
G04 #@! TO.P,U1,49*
G04 #@! TO.N,TCK_SWCLK*
X179402159Y-80071142D03*
D13*
G04 #@! TD*
G04 #@! TO.N,TCK_SWCLK*
G04 #@! TO.C,U1*
G36*
X179136994Y-80513084D02*
X178960217Y-80336307D01*
X179667324Y-79629200D01*
X179844101Y-79805977D01*
X179136994Y-80513084D01*
X179136994Y-80513084D01*
G37*
D12*
G04 #@! TO.P,U1,48*
G04 #@! TO.N,+3V3*
X179402159Y-82828858D03*
D13*
G04 #@! TD*
G04 #@! TO.N,+3V3*
G04 #@! TO.C,U1*
G36*
X178960217Y-82563693D02*
X179136994Y-82386916D01*
X179844101Y-83094023D01*
X179667324Y-83270800D01*
X178960217Y-82563693D01*
X178960217Y-82563693D01*
G37*
D12*
G04 #@! TO.P,U1,47*
G04 #@! TO.N,Net-(C14-Pad2)*
X179048606Y-83182412D03*
D13*
G04 #@! TD*
G04 #@! TO.N,Net-(C14-Pad2)*
G04 #@! TO.C,U1*
G36*
X178606664Y-82917247D02*
X178783441Y-82740470D01*
X179490548Y-83447577D01*
X179313771Y-83624354D01*
X178606664Y-82917247D01*
X178606664Y-82917247D01*
G37*
D12*
G04 #@! TO.P,U1,46*
G04 #@! TO.N,TMS_SWDIO*
X178695052Y-83535965D03*
D13*
G04 #@! TD*
G04 #@! TO.N,TMS_SWDIO*
G04 #@! TO.C,U1*
G36*
X178253110Y-83270800D02*
X178429887Y-83094023D01*
X179136994Y-83801130D01*
X178960217Y-83977907D01*
X178253110Y-83270800D01*
X178253110Y-83270800D01*
G37*
D12*
G04 #@! TO.P,U1,45*
G04 #@! TO.N,PA12_CTS*
X178341499Y-83889518D03*
D13*
G04 #@! TD*
G04 #@! TO.N,PA12_CTS*
G04 #@! TO.C,U1*
G36*
X177899557Y-83624353D02*
X178076334Y-83447576D01*
X178783441Y-84154683D01*
X178606664Y-84331460D01*
X177899557Y-83624353D01*
X177899557Y-83624353D01*
G37*
D12*
G04 #@! TO.P,U1,44*
G04 #@! TO.N,PA11_ST_RTS*
X177987946Y-84243072D03*
D13*
G04 #@! TD*
G04 #@! TO.N,PA11_ST_RTS*
G04 #@! TO.C,U1*
G36*
X177546004Y-83977907D02*
X177722781Y-83801130D01*
X178429888Y-84508237D01*
X178253111Y-84685014D01*
X177546004Y-83977907D01*
X177546004Y-83977907D01*
G37*
D12*
G04 #@! TO.P,U1,43*
G04 #@! TO.N,PA10_ST_TXD*
X177634392Y-84596625D03*
D13*
G04 #@! TD*
G04 #@! TO.N,PA10_ST_TXD*
G04 #@! TO.C,U1*
G36*
X177192450Y-84331460D02*
X177369227Y-84154683D01*
X178076334Y-84861790D01*
X177899557Y-85038567D01*
X177192450Y-84331460D01*
X177192450Y-84331460D01*
G37*
D12*
G04 #@! TO.P,U1,42*
G04 #@! TO.N,PA9_ST_RXD*
X177280839Y-84950179D03*
D13*
G04 #@! TD*
G04 #@! TO.N,PA9_ST_RXD*
G04 #@! TO.C,U1*
G36*
X176838897Y-84685014D02*
X177015674Y-84508237D01*
X177722781Y-85215344D01*
X177546004Y-85392121D01*
X176838897Y-84685014D01*
X176838897Y-84685014D01*
G37*
D12*
G04 #@! TO.P,U1,41*
G04 #@! TO.N,PA8_MCO*
X176927285Y-85303732D03*
D13*
G04 #@! TD*
G04 #@! TO.N,PA8_MCO*
G04 #@! TO.C,U1*
G36*
X176485343Y-85038567D02*
X176662120Y-84861790D01*
X177369227Y-85568897D01*
X177192450Y-85745674D01*
X176485343Y-85038567D01*
X176485343Y-85038567D01*
G37*
D12*
G04 #@! TO.P,U1,40*
G04 #@! TO.N,PC9*
X176573732Y-85657285D03*
D13*
G04 #@! TD*
G04 #@! TO.N,PC9*
G04 #@! TO.C,U1*
G36*
X176131790Y-85392120D02*
X176308567Y-85215343D01*
X177015674Y-85922450D01*
X176838897Y-86099227D01*
X176131790Y-85392120D01*
X176131790Y-85392120D01*
G37*
D12*
G04 #@! TO.P,U1,39*
G04 #@! TO.N,PC8*
X176220179Y-86010839D03*
D13*
G04 #@! TD*
G04 #@! TO.N,PC8*
G04 #@! TO.C,U1*
G36*
X175778237Y-85745674D02*
X175955014Y-85568897D01*
X176662121Y-86276004D01*
X176485344Y-86452781D01*
X175778237Y-85745674D01*
X175778237Y-85745674D01*
G37*
D12*
G04 #@! TO.P,U1,38*
G04 #@! TO.N,PC7*
X175866625Y-86364392D03*
D13*
G04 #@! TD*
G04 #@! TO.N,PC7*
G04 #@! TO.C,U1*
G36*
X175424683Y-86099227D02*
X175601460Y-85922450D01*
X176308567Y-86629557D01*
X176131790Y-86806334D01*
X175424683Y-86099227D01*
X175424683Y-86099227D01*
G37*
D12*
G04 #@! TO.P,U1,37*
G04 #@! TO.N,PC6*
X175513072Y-86717946D03*
D13*
G04 #@! TD*
G04 #@! TO.N,PC6*
G04 #@! TO.C,U1*
G36*
X175071130Y-86452781D02*
X175247907Y-86276004D01*
X175955014Y-86983111D01*
X175778237Y-87159888D01*
X175071130Y-86452781D01*
X175071130Y-86452781D01*
G37*
D12*
G04 #@! TO.P,U1,36*
G04 #@! TO.N,PB15*
X175159518Y-87071499D03*
D13*
G04 #@! TD*
G04 #@! TO.N,PB15*
G04 #@! TO.C,U1*
G36*
X174717576Y-86806334D02*
X174894353Y-86629557D01*
X175601460Y-87336664D01*
X175424683Y-87513441D01*
X174717576Y-86806334D01*
X174717576Y-86806334D01*
G37*
D12*
G04 #@! TO.P,U1,35*
G04 #@! TO.N,PB14*
X174805965Y-87425052D03*
D13*
G04 #@! TD*
G04 #@! TO.N,PB14*
G04 #@! TO.C,U1*
G36*
X174364023Y-87159887D02*
X174540800Y-86983110D01*
X175247907Y-87690217D01*
X175071130Y-87866994D01*
X174364023Y-87159887D01*
X174364023Y-87159887D01*
G37*
D12*
G04 #@! TO.P,U1,34*
G04 #@! TO.N,PB13*
X174452412Y-87778606D03*
D13*
G04 #@! TD*
G04 #@! TO.N,PB13*
G04 #@! TO.C,U1*
G36*
X174010470Y-87513441D02*
X174187247Y-87336664D01*
X174894354Y-88043771D01*
X174717577Y-88220548D01*
X174010470Y-87513441D01*
X174010470Y-87513441D01*
G37*
D12*
G04 #@! TO.P,U1,33*
G04 #@! TO.N,PB12*
X174098858Y-88132159D03*
D13*
G04 #@! TD*
G04 #@! TO.N,PB12*
G04 #@! TO.C,U1*
G36*
X173656916Y-87866994D02*
X173833693Y-87690217D01*
X174540800Y-88397324D01*
X174364023Y-88574101D01*
X173656916Y-87866994D01*
X173656916Y-87866994D01*
G37*
D12*
G04 #@! TO.P,U1,32*
G04 #@! TO.N,+3V3*
X171341142Y-88132159D03*
D13*
G04 #@! TD*
G04 #@! TO.N,+3V3*
G04 #@! TO.C,U1*
G36*
X171075977Y-88574101D02*
X170899200Y-88397324D01*
X171606307Y-87690217D01*
X171783084Y-87866994D01*
X171075977Y-88574101D01*
X171075977Y-88574101D01*
G37*
D12*
G04 #@! TO.P,U1,31*
G04 #@! TO.N,Net-(C13-Pad2)*
X170987588Y-87778606D03*
D13*
G04 #@! TD*
G04 #@! TO.N,Net-(C13-Pad2)*
G04 #@! TO.C,U1*
G36*
X170722423Y-88220548D02*
X170545646Y-88043771D01*
X171252753Y-87336664D01*
X171429530Y-87513441D01*
X170722423Y-88220548D01*
X170722423Y-88220548D01*
G37*
D12*
G04 #@! TO.P,U1,30*
G04 #@! TO.N,PB11*
X170634035Y-87425052D03*
D13*
G04 #@! TD*
G04 #@! TO.N,PB11*
G04 #@! TO.C,U1*
G36*
X170368870Y-87866994D02*
X170192093Y-87690217D01*
X170899200Y-86983110D01*
X171075977Y-87159887D01*
X170368870Y-87866994D01*
X170368870Y-87866994D01*
G37*
D12*
G04 #@! TO.P,U1,29*
G04 #@! TO.N,PB10*
X170280482Y-87071499D03*
D13*
G04 #@! TD*
G04 #@! TO.N,PB10*
G04 #@! TO.C,U1*
G36*
X170015317Y-87513441D02*
X169838540Y-87336664D01*
X170545647Y-86629557D01*
X170722424Y-86806334D01*
X170015317Y-87513441D01*
X170015317Y-87513441D01*
G37*
D12*
G04 #@! TO.P,U1,28*
G04 #@! TO.N,Net-(R8-Pad1)*
X169926928Y-86717946D03*
D13*
G04 #@! TD*
G04 #@! TO.N,Net-(R8-Pad1)*
G04 #@! TO.C,U1*
G36*
X169661763Y-87159888D02*
X169484986Y-86983111D01*
X170192093Y-86276004D01*
X170368870Y-86452781D01*
X169661763Y-87159888D01*
X169661763Y-87159888D01*
G37*
D12*
G04 #@! TO.P,U1,27*
G04 #@! TO.N,PB1*
X169573375Y-86364392D03*
D13*
G04 #@! TD*
G04 #@! TO.N,PB1*
G04 #@! TO.C,U1*
G36*
X169308210Y-86806334D02*
X169131433Y-86629557D01*
X169838540Y-85922450D01*
X170015317Y-86099227D01*
X169308210Y-86806334D01*
X169308210Y-86806334D01*
G37*
D12*
G04 #@! TO.P,U1,26*
G04 #@! TO.N,PB0*
X169219821Y-86010839D03*
D13*
G04 #@! TD*
G04 #@! TO.N,PB0*
G04 #@! TO.C,U1*
G36*
X168954656Y-86452781D02*
X168777879Y-86276004D01*
X169484986Y-85568897D01*
X169661763Y-85745674D01*
X168954656Y-86452781D01*
X168954656Y-86452781D01*
G37*
D12*
G04 #@! TO.P,U1,25*
G04 #@! TO.N,PC5*
X168866268Y-85657285D03*
D13*
G04 #@! TD*
G04 #@! TO.N,PC5*
G04 #@! TO.C,U1*
G36*
X168601103Y-86099227D02*
X168424326Y-85922450D01*
X169131433Y-85215343D01*
X169308210Y-85392120D01*
X168601103Y-86099227D01*
X168601103Y-86099227D01*
G37*
D12*
G04 #@! TO.P,U1,24*
G04 #@! TO.N,PC4*
X168512715Y-85303732D03*
D13*
G04 #@! TD*
G04 #@! TO.N,PC4*
G04 #@! TO.C,U1*
G36*
X168247550Y-85745674D02*
X168070773Y-85568897D01*
X168777880Y-84861790D01*
X168954657Y-85038567D01*
X168247550Y-85745674D01*
X168247550Y-85745674D01*
G37*
D12*
G04 #@! TO.P,U1,23*
G04 #@! TO.N,PA7_SPI1_MOSI*
X168159161Y-84950179D03*
D13*
G04 #@! TD*
G04 #@! TO.N,PA7_SPI1_MOSI*
G04 #@! TO.C,U1*
G36*
X167893996Y-85392121D02*
X167717219Y-85215344D01*
X168424326Y-84508237D01*
X168601103Y-84685014D01*
X167893996Y-85392121D01*
X167893996Y-85392121D01*
G37*
D12*
G04 #@! TO.P,U1,22*
G04 #@! TO.N,PA6_SPI1_MISO*
X167805608Y-84596625D03*
D13*
G04 #@! TD*
G04 #@! TO.N,PA6_SPI1_MISO*
G04 #@! TO.C,U1*
G36*
X167540443Y-85038567D02*
X167363666Y-84861790D01*
X168070773Y-84154683D01*
X168247550Y-84331460D01*
X167540443Y-85038567D01*
X167540443Y-85038567D01*
G37*
D12*
G04 #@! TO.P,U1,21*
G04 #@! TO.N,PA5_SPI1_SCK*
X167452054Y-84243072D03*
D13*
G04 #@! TD*
G04 #@! TO.N,PA5_SPI1_SCK*
G04 #@! TO.C,U1*
G36*
X167186889Y-84685014D02*
X167010112Y-84508237D01*
X167717219Y-83801130D01*
X167893996Y-83977907D01*
X167186889Y-84685014D01*
X167186889Y-84685014D01*
G37*
D12*
G04 #@! TO.P,U1,20*
G04 #@! TO.N,PA4_SPI1_NSS*
X167098501Y-83889518D03*
D13*
G04 #@! TD*
G04 #@! TO.N,PA4_SPI1_NSS*
G04 #@! TO.C,U1*
G36*
X166833336Y-84331460D02*
X166656559Y-84154683D01*
X167363666Y-83447576D01*
X167540443Y-83624353D01*
X166833336Y-84331460D01*
X166833336Y-84331460D01*
G37*
D12*
G04 #@! TO.P,U1,19*
G04 #@! TO.N,+3V3*
X166744948Y-83535965D03*
D13*
G04 #@! TD*
G04 #@! TO.N,+3V3*
G04 #@! TO.C,U1*
G36*
X166479783Y-83977907D02*
X166303006Y-83801130D01*
X167010113Y-83094023D01*
X167186890Y-83270800D01*
X166479783Y-83977907D01*
X166479783Y-83977907D01*
G37*
D12*
G04 #@! TO.P,U1,18*
G04 #@! TO.N,GND*
X166391394Y-83182412D03*
D13*
G04 #@! TD*
G04 #@! TO.N,GND*
G04 #@! TO.C,U1*
G36*
X166126229Y-83624354D02*
X165949452Y-83447577D01*
X166656559Y-82740470D01*
X166833336Y-82917247D01*
X166126229Y-83624354D01*
X166126229Y-83624354D01*
G37*
D12*
G04 #@! TO.P,U1,17*
G04 #@! TO.N,PA3*
X166037841Y-82828858D03*
D13*
G04 #@! TD*
G04 #@! TO.N,PA3*
G04 #@! TO.C,U1*
G36*
X165772676Y-83270800D02*
X165595899Y-83094023D01*
X166303006Y-82386916D01*
X166479783Y-82563693D01*
X165772676Y-83270800D01*
X165772676Y-83270800D01*
G37*
D12*
G04 #@! TO.P,U1,16*
G04 #@! TO.N,PA2*
X166037841Y-80071142D03*
D13*
G04 #@! TD*
G04 #@! TO.N,PA2*
G04 #@! TO.C,U1*
G36*
X165595899Y-79805977D02*
X165772676Y-79629200D01*
X166479783Y-80336307D01*
X166303006Y-80513084D01*
X165595899Y-79805977D01*
X165595899Y-79805977D01*
G37*
D12*
G04 #@! TO.P,U1,15*
G04 #@! TO.N,PA1*
X166391394Y-79717588D03*
D13*
G04 #@! TD*
G04 #@! TO.N,PA1*
G04 #@! TO.C,U1*
G36*
X165949452Y-79452423D02*
X166126229Y-79275646D01*
X166833336Y-79982753D01*
X166656559Y-80159530D01*
X165949452Y-79452423D01*
X165949452Y-79452423D01*
G37*
D12*
G04 #@! TO.P,U1,14*
G04 #@! TO.N,PA0*
X166744948Y-79364035D03*
D13*
G04 #@! TD*
G04 #@! TO.N,PA0*
G04 #@! TO.C,U1*
G36*
X166303006Y-79098870D02*
X166479783Y-78922093D01*
X167186890Y-79629200D01*
X167010113Y-79805977D01*
X166303006Y-79098870D01*
X166303006Y-79098870D01*
G37*
D12*
G04 #@! TO.P,U1,13*
G04 #@! TO.N,+3V3*
X167098501Y-79010482D03*
D13*
G04 #@! TD*
G04 #@! TO.N,+3V3*
G04 #@! TO.C,U1*
G36*
X166656559Y-78745317D02*
X166833336Y-78568540D01*
X167540443Y-79275647D01*
X167363666Y-79452424D01*
X166656559Y-78745317D01*
X166656559Y-78745317D01*
G37*
D12*
G04 #@! TO.P,U1,12*
G04 #@! TO.N,GND*
X167452054Y-78656928D03*
D13*
G04 #@! TD*
G04 #@! TO.N,GND*
G04 #@! TO.C,U1*
G36*
X167010112Y-78391763D02*
X167186889Y-78214986D01*
X167893996Y-78922093D01*
X167717219Y-79098870D01*
X167010112Y-78391763D01*
X167010112Y-78391763D01*
G37*
D12*
G04 #@! TO.P,U1,11*
G04 #@! TO.N,PC3*
X167805608Y-78303375D03*
D13*
G04 #@! TD*
G04 #@! TO.N,PC3*
G04 #@! TO.C,U1*
G36*
X167363666Y-78038210D02*
X167540443Y-77861433D01*
X168247550Y-78568540D01*
X168070773Y-78745317D01*
X167363666Y-78038210D01*
X167363666Y-78038210D01*
G37*
D12*
G04 #@! TO.P,U1,10*
G04 #@! TO.N,PC2*
X168159161Y-77949821D03*
D13*
G04 #@! TD*
G04 #@! TO.N,PC2*
G04 #@! TO.C,U1*
G36*
X167717219Y-77684656D02*
X167893996Y-77507879D01*
X168601103Y-78214986D01*
X168424326Y-78391763D01*
X167717219Y-77684656D01*
X167717219Y-77684656D01*
G37*
D12*
G04 #@! TO.P,U1,9*
G04 #@! TO.N,PC1*
X168512715Y-77596268D03*
D13*
G04 #@! TD*
G04 #@! TO.N,PC1*
G04 #@! TO.C,U1*
G36*
X168070773Y-77331103D02*
X168247550Y-77154326D01*
X168954657Y-77861433D01*
X168777880Y-78038210D01*
X168070773Y-77331103D01*
X168070773Y-77331103D01*
G37*
D12*
G04 #@! TO.P,U1,8*
G04 #@! TO.N,PC0*
X168866268Y-77242715D03*
D13*
G04 #@! TD*
G04 #@! TO.N,PC0*
G04 #@! TO.C,U1*
G36*
X168424326Y-76977550D02*
X168601103Y-76800773D01*
X169308210Y-77507880D01*
X169131433Y-77684657D01*
X168424326Y-76977550D01*
X168424326Y-76977550D01*
G37*
D12*
G04 #@! TO.P,U1,7*
G04 #@! TO.N,NRST*
X169219821Y-76889161D03*
D13*
G04 #@! TD*
G04 #@! TO.N,NRST*
G04 #@! TO.C,U1*
G36*
X168777879Y-76623996D02*
X168954656Y-76447219D01*
X169661763Y-77154326D01*
X169484986Y-77331103D01*
X168777879Y-76623996D01*
X168777879Y-76623996D01*
G37*
D12*
G04 #@! TO.P,U1,6*
G04 #@! TO.N,Net-(C17-Pad1)*
X169573375Y-76535608D03*
D13*
G04 #@! TD*
G04 #@! TO.N,Net-(C17-Pad1)*
G04 #@! TO.C,U1*
G36*
X169131433Y-76270443D02*
X169308210Y-76093666D01*
X170015317Y-76800773D01*
X169838540Y-76977550D01*
X169131433Y-76270443D01*
X169131433Y-76270443D01*
G37*
D12*
G04 #@! TO.P,U1,5*
G04 #@! TO.N,Net-(C15-Pad1)*
X169926928Y-76182054D03*
D13*
G04 #@! TD*
G04 #@! TO.N,Net-(C15-Pad1)*
G04 #@! TO.C,U1*
G36*
X169484986Y-75916889D02*
X169661763Y-75740112D01*
X170368870Y-76447219D01*
X170192093Y-76623996D01*
X169484986Y-75916889D01*
X169484986Y-75916889D01*
G37*
D12*
G04 #@! TO.P,U1,4*
G04 #@! TO.N,PC15*
X170280482Y-75828501D03*
D13*
G04 #@! TD*
G04 #@! TO.N,PC15*
G04 #@! TO.C,U1*
G36*
X169838540Y-75563336D02*
X170015317Y-75386559D01*
X170722424Y-76093666D01*
X170545647Y-76270443D01*
X169838540Y-75563336D01*
X169838540Y-75563336D01*
G37*
D12*
G04 #@! TO.P,U1,3*
G04 #@! TO.N,PC14*
X170634035Y-75474948D03*
D13*
G04 #@! TD*
G04 #@! TO.N,PC14*
G04 #@! TO.C,U1*
G36*
X170192093Y-75209783D02*
X170368870Y-75033006D01*
X171075977Y-75740113D01*
X170899200Y-75916890D01*
X170192093Y-75209783D01*
X170192093Y-75209783D01*
G37*
D12*
G04 #@! TO.P,U1,2*
G04 #@! TO.N,PC13*
X170987588Y-75121394D03*
D13*
G04 #@! TD*
G04 #@! TO.N,PC13*
G04 #@! TO.C,U1*
G36*
X170545646Y-74856229D02*
X170722423Y-74679452D01*
X171429530Y-75386559D01*
X171252753Y-75563336D01*
X170545646Y-74856229D01*
X170545646Y-74856229D01*
G37*
D12*
G04 #@! TO.P,U1,1*
G04 #@! TO.N,+3V3*
X171341142Y-74767841D03*
D13*
G04 #@! TD*
G04 #@! TO.N,+3V3*
G04 #@! TO.C,U1*
G36*
X170899200Y-74502676D02*
X171075977Y-74325899D01*
X171783084Y-75033006D01*
X171606307Y-75209783D01*
X170899200Y-74502676D01*
X170899200Y-74502676D01*
G37*
D14*
G04 #@! TO.P,D4,1*
G04 #@! TO.N,Net-(D4-Pad1)*
X169000000Y-103600000D03*
G04 #@! TO.P,D4,2*
G04 #@! TO.N,+3V3*
X169000000Y-106900000D03*
G04 #@! TD*
G04 #@! TO.P,3v3,1*
G04 #@! TO.N,GND*
X166000000Y-45000000D03*
G04 #@! TO.P,3v3,2*
G04 #@! TO.N,Net-(D12-Pad2)*
X166000000Y-48300000D03*
G04 #@! TD*
G04 #@! TO.P,5v,2*
G04 #@! TO.N,Net-(D13-Pad2)*
X179500000Y-48400000D03*
G04 #@! TO.P,5v,1*
G04 #@! TO.N,GND*
X179500000Y-45100000D03*
G04 #@! TD*
D15*
G04 #@! TO.P,U7,5*
G04 #@! TO.N,Net-(L3-Pad2)*
X173802813Y-49769416D03*
G04 #@! TO.P,U7,4*
G04 #@! TO.N,+3V3*
X171902813Y-49769416D03*
G04 #@! TO.P,U7,3*
G04 #@! TO.N,+5V*
X171902813Y-47069416D03*
G04 #@! TO.P,U7,2*
G04 #@! TO.N,GND*
X172852813Y-47069416D03*
G04 #@! TO.P,U7,1*
G04 #@! TO.N,+5V*
X173802813Y-47069416D03*
G04 #@! TD*
D10*
G04 #@! TO.P,J10,3*
G04 #@! TO.N,+3V3*
X167250000Y-100330000D03*
G04 #@! TO.P,J10,2*
G04 #@! TO.N,Net-(J10-Pad2)*
X167250000Y-97790000D03*
D11*
G04 #@! TO.P,J10,1*
G04 #@! TO.N,GND*
X167250000Y-95250000D03*
G04 #@! TD*
D16*
G04 #@! TO.P,Y2,4*
G04 #@! TO.N,Net-(C17-Pad1)*
X167050000Y-68400000D03*
G04 #@! TO.P,Y2,3*
G04 #@! TO.N,GND*
X169250000Y-68400000D03*
G04 #@! TO.P,Y2,2*
G04 #@! TO.N,Net-(C15-Pad1)*
X169250000Y-70000000D03*
G04 #@! TO.P,Y2,1*
G04 #@! TO.N,GND*
X167050000Y-70000000D03*
G04 #@! TD*
D10*
G04 #@! TO.P,J1,25*
G04 #@! TO.N,GND*
X182880000Y-106680000D03*
G04 #@! TO.P,J1,24*
G04 #@! TO.N,PB14*
X182880000Y-104140000D03*
G04 #@! TO.P,J1,23*
G04 #@! TO.N,PB15*
X182880000Y-101600000D03*
G04 #@! TO.P,J1,22*
G04 #@! TO.N,PC6*
X182880000Y-99060000D03*
G04 #@! TO.P,J1,21*
G04 #@! TO.N,PC7*
X182880000Y-96520000D03*
G04 #@! TO.P,J1,20*
G04 #@! TO.N,PC8*
X182880000Y-93980000D03*
G04 #@! TO.P,J1,19*
G04 #@! TO.N,PC9*
X182880000Y-91440000D03*
G04 #@! TO.P,J1,18*
G04 #@! TO.N,PA8_MCO*
X182880000Y-88900000D03*
G04 #@! TO.P,J1,17*
G04 #@! TO.N,PA9_ST_RXD*
X182880000Y-86360000D03*
G04 #@! TO.P,J1,16*
G04 #@! TO.N,PA10_ST_TXD*
X182880000Y-83820000D03*
G04 #@! TO.P,J1,15*
G04 #@! TO.N,PA11_ST_RTS*
X182880000Y-81280000D03*
G04 #@! TO.P,J1,14*
G04 #@! TO.N,PA12_CTS*
X182880000Y-78740000D03*
G04 #@! TO.P,J1,13*
G04 #@! TO.N,PA15*
X182880000Y-76200000D03*
G04 #@! TO.P,J1,12*
G04 #@! TO.N,PC10*
X182880000Y-73660000D03*
G04 #@! TO.P,J1,11*
G04 #@! TO.N,PC11*
X182880000Y-71120000D03*
G04 #@! TO.P,J1,10*
G04 #@! TO.N,PC12*
X182880000Y-68580000D03*
G04 #@! TO.P,J1,9*
G04 #@! TO.N,PD2*
X182880000Y-66040000D03*
G04 #@! TO.P,J1,8*
G04 #@! TO.N,PB4*
X182880000Y-63500000D03*
G04 #@! TO.P,J1,7*
G04 #@! TO.N,PB5_I2C1_SMBA*
X182880000Y-60960000D03*
G04 #@! TO.P,J1,6*
G04 #@! TO.N,PB6_I2C1_SCL*
X182880000Y-58420000D03*
G04 #@! TO.P,J1,5*
G04 #@! TO.N,PB7_I2C1_SDA*
X182880000Y-55880000D03*
G04 #@! TO.P,J1,4*
G04 #@! TO.N,PB8*
X182880000Y-53340000D03*
G04 #@! TO.P,J1,3*
G04 #@! TO.N,PB9*
X182880000Y-50800000D03*
G04 #@! TO.P,J1,2*
G04 #@! TO.N,PC13*
X182880000Y-48260000D03*
D11*
G04 #@! TO.P,J1,1*
G04 #@! TO.N,+5V*
X182880000Y-45720000D03*
G04 #@! TD*
G04 #@! TO.P,J8,1*
G04 #@! TO.N,+3V3*
X162560000Y-45720000D03*
D10*
G04 #@! TO.P,J8,2*
G04 #@! TO.N,GND*
X162560000Y-48260000D03*
G04 #@! TO.P,J8,3*
G04 #@! TO.N,PC1*
X162560000Y-50800000D03*
G04 #@! TO.P,J8,4*
G04 #@! TO.N,PC2*
X162560000Y-53340000D03*
G04 #@! TO.P,J8,5*
G04 #@! TO.N,PC0*
X162560000Y-55880000D03*
G04 #@! TO.P,J8,6*
G04 #@! TO.N,PC14*
X162560000Y-58420000D03*
G04 #@! TO.P,J8,7*
G04 #@! TO.N,PC15*
X162560000Y-60960000D03*
G04 #@! TO.P,J8,8*
G04 #@! TO.N,PC3*
X162560000Y-63500000D03*
G04 #@! TO.P,J8,9*
G04 #@! TO.N,PA0*
X162560000Y-66040000D03*
G04 #@! TO.P,J8,10*
G04 #@! TO.N,PA1*
X162560000Y-68580000D03*
G04 #@! TO.P,J8,11*
G04 #@! TO.N,PA2*
X162560000Y-71120000D03*
G04 #@! TO.P,J8,12*
G04 #@! TO.N,PA3*
X162560000Y-73660000D03*
G04 #@! TO.P,J8,13*
G04 #@! TO.N,PB0*
X162560000Y-76200000D03*
G04 #@! TO.P,J8,14*
G04 #@! TO.N,PC5*
X162560000Y-78740000D03*
G04 #@! TO.P,J8,15*
G04 #@! TO.N,PC4*
X162560000Y-81280000D03*
G04 #@! TO.P,J8,16*
G04 #@! TO.N,PA4_SPI1_NSS*
X162560000Y-83820000D03*
G04 #@! TO.P,J8,17*
G04 #@! TO.N,PA5_SPI1_SCK*
X162560000Y-86360000D03*
G04 #@! TO.P,J8,18*
G04 #@! TO.N,PA6_SPI1_MISO*
X162560000Y-88900000D03*
G04 #@! TO.P,J8,19*
G04 #@! TO.N,PA7_SPI1_MOSI*
X162560000Y-91440000D03*
G04 #@! TO.P,J8,20*
G04 #@! TO.N,PB1*
X162560000Y-93980000D03*
G04 #@! TO.P,J8,21*
G04 #@! TO.N,PB10*
X162560000Y-96520000D03*
G04 #@! TO.P,J8,22*
G04 #@! TO.N,PB11*
X162560000Y-99060000D03*
G04 #@! TO.P,J8,23*
G04 #@! TO.N,PB13*
X162560000Y-101600000D03*
G04 #@! TO.P,J8,24*
G04 #@! TO.N,PB12*
X162560000Y-104140000D03*
G04 #@! TO.P,J8,25*
G04 #@! TO.N,GND*
X162560000Y-106680000D03*
G04 #@! TD*
G04 #@! TO.P,J9,3*
G04 #@! TO.N,+3V3*
X178250000Y-100330000D03*
G04 #@! TO.P,J9,2*
G04 #@! TO.N,Net-(J9-Pad2)*
X178250000Y-97790000D03*
D11*
G04 #@! TO.P,J9,1*
G04 #@! TO.N,GND*
X178250000Y-95250000D03*
G04 #@! TD*
D17*
G04 #@! TO.P,C1,2*
G04 #@! TO.N,+3V3*
X179000000Y-89800000D03*
G04 #@! TO.P,C1,1*
G04 #@! TO.N,GND*
X179000000Y-91700000D03*
G04 #@! TD*
D18*
G04 #@! TO.P,C13,2*
G04 #@! TO.N,Net-(C13-Pad2)*
X167500000Y-91750000D03*
G04 #@! TO.P,C13,1*
G04 #@! TO.N,GND*
X165600000Y-91750000D03*
G04 #@! TD*
D17*
G04 #@! TO.P,C14,1*
G04 #@! TO.N,GND*
X177500000Y-91700000D03*
G04 #@! TO.P,C14,2*
G04 #@! TO.N,Net-(C14-Pad2)*
X177500000Y-89800000D03*
G04 #@! TD*
G04 #@! TO.P,C15,2*
G04 #@! TO.N,GND*
X171000000Y-68050000D03*
G04 #@! TO.P,C15,1*
G04 #@! TO.N,Net-(C15-Pad1)*
X171000000Y-69950000D03*
G04 #@! TD*
D18*
G04 #@! TO.P,C17,1*
G04 #@! TO.N,Net-(C17-Pad1)*
X165670000Y-71675000D03*
G04 #@! TO.P,C17,2*
G04 #@! TO.N,GND*
X167570000Y-71675000D03*
G04 #@! TD*
G04 #@! TO.P,C18,2*
G04 #@! TO.N,+3V3*
X173800000Y-69500000D03*
G04 #@! TO.P,C18,1*
G04 #@! TO.N,GND*
X175700000Y-69500000D03*
G04 #@! TD*
G04 #@! TO.P,C21,2*
G04 #@! TO.N,+3V3*
X171450000Y-91750000D03*
G04 #@! TO.P,C21,1*
G04 #@! TO.N,GND*
X169550000Y-91750000D03*
G04 #@! TD*
D17*
G04 #@! TO.P,C22,1*
G04 #@! TO.N,GND*
X180500000Y-91700000D03*
G04 #@! TO.P,C22,2*
G04 #@! TO.N,+3V3*
X180500000Y-89800000D03*
G04 #@! TD*
D18*
G04 #@! TO.P,C23,2*
G04 #@! TO.N,+3V3*
X175700000Y-70750000D03*
G04 #@! TO.P,C23,1*
G04 #@! TO.N,GND*
X173800000Y-70750000D03*
G04 #@! TD*
D17*
G04 #@! TO.P,C42,1*
G04 #@! TO.N,+5V*
X177115000Y-49585000D03*
G04 #@! TO.P,C42,2*
G04 #@! TO.N,GND*
X177115000Y-51485000D03*
G04 #@! TD*
G04 #@! TO.P,C43,2*
G04 #@! TO.N,GND*
X168363000Y-46293000D03*
G04 #@! TO.P,C43,1*
G04 #@! TO.N,+3V3*
X168363000Y-48193000D03*
G04 #@! TD*
D19*
G04 #@! TO.P,L3,2*
G04 #@! TO.N,Net-(L3-Pad2)*
X174852813Y-52669416D03*
G04 #@! TO.P,L3,1*
G04 #@! TO.N,+3V3*
X170852813Y-52669416D03*
G04 #@! TD*
D20*
G04 #@! TO.P,Q1,3*
G04 #@! TO.N,Net-(Q1-Pad3)*
X174500000Y-106580000D03*
G04 #@! TO.P,Q1,2*
G04 #@! TO.N,GND*
X173850000Y-103920000D03*
G04 #@! TO.P,Q1,1*
G04 #@! TO.N,PB12*
X175150000Y-103920000D03*
G04 #@! TD*
D21*
G04 #@! TO.P,R1,2*
G04 #@! TO.N,GND*
X177250000Y-106200000D03*
G04 #@! TO.P,R1,1*
G04 #@! TO.N,PB12*
X177250000Y-104000000D03*
G04 #@! TD*
G04 #@! TO.P,R2,1*
G04 #@! TO.N,Net-(D4-Pad1)*
X171500000Y-104150000D03*
G04 #@! TO.P,R2,2*
G04 #@! TO.N,Net-(Q1-Pad3)*
X171500000Y-106350000D03*
G04 #@! TD*
D22*
G04 #@! TO.P,R5,1*
G04 #@! TO.N,+3V3*
X177000000Y-67750000D03*
G04 #@! TO.P,R5,2*
G04 #@! TO.N,NRST*
X174800000Y-67750000D03*
G04 #@! TD*
D21*
G04 #@! TO.P,R6,2*
G04 #@! TO.N,Net-(J9-Pad2)*
X175250000Y-96450000D03*
G04 #@! TO.P,R6,1*
G04 #@! TO.N,Net-(R6-Pad1)*
X175250000Y-94250000D03*
G04 #@! TD*
D22*
G04 #@! TO.P,R7,2*
G04 #@! TO.N,Net-(C17-Pad1)*
X165800000Y-73250000D03*
G04 #@! TO.P,R7,1*
G04 #@! TO.N,Net-(C15-Pad1)*
X168000000Y-73250000D03*
G04 #@! TD*
D21*
G04 #@! TO.P,R8,1*
G04 #@! TO.N,Net-(R8-Pad1)*
X170250000Y-94300000D03*
G04 #@! TO.P,R8,2*
G04 #@! TO.N,Net-(J10-Pad2)*
X170250000Y-96500000D03*
G04 #@! TD*
G04 #@! TO.P,R50,1*
G04 #@! TO.N,+3V3*
X165750000Y-52850000D03*
G04 #@! TO.P,R50,2*
G04 #@! TO.N,Net-(D12-Pad2)*
X165750000Y-50650000D03*
G04 #@! TD*
G04 #@! TO.P,R51,2*
G04 #@! TO.N,Net-(D13-Pad2)*
X179750000Y-50650000D03*
G04 #@! TO.P,R51,1*
G04 #@! TO.N,+5V*
X179750000Y-52850000D03*
G04 #@! TD*
D23*
G04 #@! TO.P,SWD,10*
G04 #@! TO.N,NRST*
X177500000Y-62750000D03*
G04 #@! TO.P,SWD,9*
G04 #@! TO.N,GND*
X176230000Y-62750000D03*
G04 #@! TO.P,SWD,8*
G04 #@! TO.N,N/C*
X177500000Y-61480000D03*
G04 #@! TO.P,SWD,7*
X176230000Y-61480000D03*
G04 #@! TO.P,SWD,6*
G04 #@! TO.N,SWO*
X177500000Y-60210000D03*
G04 #@! TO.P,SWD,5*
G04 #@! TO.N,GND*
X176230000Y-60210000D03*
G04 #@! TO.P,SWD,4*
G04 #@! TO.N,TCK_SWCLK*
X177500000Y-58940000D03*
G04 #@! TO.P,SWD,3*
G04 #@! TO.N,GND*
X176230000Y-58940000D03*
G04 #@! TO.P,SWD,2*
G04 #@! TO.N,TMS_SWDIO*
X177500000Y-57670000D03*
D24*
G04 #@! TO.P,SWD,1*
G04 #@! TO.N,+3V3*
X176230000Y-57670000D03*
G04 #@! TD*
D25*
G04 #@! TO.P,RESET,1*
G04 #@! TO.N,NRST*
X171500000Y-62150000D03*
G04 #@! TO.P,RESET,2*
G04 #@! TO.N,GND*
X171500000Y-57350000D03*
G04 #@! TD*
G04 #@! TO.P,PC13,1*
G04 #@! TO.N,PC13*
X167000000Y-62050000D03*
G04 #@! TO.P,PC13,2*
G04 #@! TO.N,GND*
X167000000Y-57250000D03*
G04 #@! TD*
D26*
G04 #@! TO.N,GND*
X177115000Y-52785000D03*
X170000000Y-46750000D03*
X170052813Y-45669416D03*
X171052813Y-45669416D03*
X172052813Y-45669416D03*
X169052813Y-44669416D03*
X170052813Y-44669416D03*
X171052813Y-44669416D03*
X172052813Y-44669416D03*
X169500000Y-90750000D03*
X181000000Y-93250000D03*
X177250000Y-69500000D03*
X169250000Y-64750000D03*
X176024990Y-72701699D03*
X177600000Y-93000000D03*
X178500000Y-107500000D03*
X164661065Y-92837714D03*
X169000000Y-71500000D03*
X167583298Y-82397556D03*
X173750000Y-85250000D03*
X166000000Y-76750000D03*
X173225689Y-71748991D03*
X176500000Y-81250000D03*
X176000000Y-82500000D03*
X172216758Y-67507922D03*
X169000000Y-74000000D03*
X168000000Y-76000000D03*
G04 #@! TO.N,+3V3*
X169500000Y-54500000D03*
X168500000Y-54500000D03*
X169602813Y-50500000D03*
X169602813Y-49500000D03*
X168500000Y-52500000D03*
X168500000Y-50500000D03*
X168500000Y-53469416D03*
X178500000Y-54000000D03*
X178500000Y-55000000D03*
X176813821Y-70765907D03*
X181362340Y-90387660D03*
X178474990Y-67736500D03*
X171500000Y-93000000D03*
X167250000Y-107250000D03*
X169250000Y-56500000D03*
X168725926Y-83524066D03*
X168250000Y-80000000D03*
X172459035Y-72750000D03*
X168500000Y-49500000D03*
X168500000Y-51500000D03*
G04 #@! TO.N,+5V*
X177052813Y-45869416D03*
X176052813Y-45869416D03*
X175052813Y-45869416D03*
X174052813Y-45869416D03*
X174052813Y-44869416D03*
X175052813Y-44869416D03*
X176052813Y-44869416D03*
X177052813Y-44869416D03*
G04 #@! TO.N,NRST*
X173648436Y-78013294D03*
G04 #@! TO.N,PB14*
X173800000Y-86400000D03*
G04 #@! TO.N,PB11*
X166750000Y-90500000D03*
G04 #@! TO.N,PB10*
X165750000Y-90250000D03*
G04 #@! TO.N,PC2*
X169500000Y-80000000D03*
G04 #@! TO.N,PB9*
X176750000Y-72000000D03*
G04 #@! TO.N,PB8*
X178012660Y-71762660D03*
G04 #@! TO.N,PB7_I2C1_SDA*
X178400000Y-65000000D03*
G04 #@! TO.N,PB6_I2C1_SCL*
X179125010Y-63286846D03*
G04 #@! TO.N,PB5_I2C1_SMBA*
X178575927Y-75288139D03*
G04 #@! TO.N,PB4*
X179627006Y-74589417D03*
G04 #@! TO.N,PA15*
X178000000Y-80750000D03*
G04 #@! TO.N,PA12_CTS*
X179265500Y-84495306D03*
G04 #@! TO.N,PA11_ST_RTS*
X179399869Y-85487783D03*
G04 #@! TO.N,PA10_ST_TXD*
X179659171Y-86648408D03*
G04 #@! TO.N,PA9_ST_RXD*
X178804707Y-87167940D03*
G04 #@! TO.N,PA8_MCO*
X178250000Y-88000000D03*
G04 #@! TO.N,PA3*
X164250000Y-83000000D03*
G04 #@! TO.N,PA0*
X165875645Y-78105839D03*
G04 #@! TO.N,PC13*
X167000000Y-60000000D03*
G04 #@! TO.N,PD2*
X179648376Y-76950425D03*
G04 #@! TO.N,PC3*
X165250000Y-75750000D03*
G04 #@! TO.N,PC9*
X175600000Y-84600000D03*
G04 #@! TO.N,PC10*
X180042585Y-78398964D03*
G04 #@! TO.N,PC11*
X177250000Y-80000000D03*
G04 #@! TO.N,PC12*
X180529978Y-76166807D03*
G04 #@! TO.N,PC14*
X171500000Y-76250000D03*
G04 #@! TO.N,PC1*
X170510243Y-80325011D03*
G04 #@! TO.N,PC0*
X170237017Y-78487663D03*
G04 #@! TO.N,PC13*
X170750000Y-73250000D03*
X171750000Y-64500000D03*
G04 #@! TO.N,Net-(R6-Pad1)*
X174750000Y-77750000D03*
X175250000Y-92500000D03*
G04 #@! TO.N,PC15*
X169737965Y-74674857D03*
G04 #@! TD*
D27*
G04 #@! TO.N,GND*
X177115000Y-51535000D02*
X177115000Y-52785000D01*
X169852813Y-45869416D02*
X170052813Y-45669416D01*
X172852813Y-46294416D02*
X172865000Y-46282229D01*
X172852813Y-47069416D02*
X172852813Y-46294416D01*
X172865000Y-45481603D02*
X172052813Y-44669416D01*
X172865000Y-46282229D02*
X172865000Y-45481603D01*
X169550000Y-91750000D02*
X169550000Y-90800000D01*
X169550000Y-90800000D02*
X169500000Y-90750000D01*
X180500000Y-91700000D02*
X177500000Y-91700000D01*
X180500000Y-91700000D02*
X180500000Y-92750000D01*
X180500000Y-92750000D02*
X181000000Y-93250000D01*
X175700000Y-69500000D02*
X177250000Y-69500000D01*
X177500000Y-91700000D02*
X177500000Y-92900000D01*
X177500000Y-92900000D02*
X177600000Y-93000000D01*
X173850000Y-104920000D02*
X173850000Y-103920000D01*
X176550000Y-106200000D02*
X175600000Y-105250000D01*
X174180000Y-105250000D02*
X173850000Y-104920000D01*
X175600000Y-105250000D02*
X174180000Y-105250000D01*
X177250000Y-106200000D02*
X176550000Y-106200000D01*
X177250000Y-106200000D02*
X177250000Y-106250000D01*
X177250000Y-106250000D02*
X178500000Y-107500000D01*
X165375000Y-91750000D02*
X164661065Y-92463935D01*
X164661065Y-92463935D02*
X164661065Y-92837714D01*
X165600000Y-91750000D02*
X165375000Y-91750000D01*
X167570000Y-71675000D02*
X168825000Y-71675000D01*
X168825000Y-71675000D02*
X169000000Y-71500000D01*
X168989998Y-68400000D02*
X169250000Y-68400000D01*
X167389998Y-70000000D02*
X168989998Y-68400000D01*
X167050000Y-70000000D02*
X167389998Y-70000000D01*
X170650000Y-68400000D02*
X171000000Y-68050000D01*
X169250000Y-68400000D02*
X170650000Y-68400000D01*
X167050000Y-71155000D02*
X167570000Y-71675000D01*
X167050000Y-70000000D02*
X167050000Y-71155000D01*
X175637406Y-73936400D02*
X174452412Y-75121394D01*
X176024990Y-73267384D02*
X176000000Y-73292374D01*
X176024990Y-72701699D02*
X176024990Y-73267384D01*
X176000000Y-73573806D02*
X175637406Y-73936400D01*
X176000000Y-73292374D02*
X176000000Y-73573806D01*
X167176250Y-82397556D02*
X167583298Y-82397556D01*
X166391394Y-83182412D02*
X167176250Y-82397556D01*
X167452054Y-78656928D02*
X167027791Y-78232665D01*
X166000000Y-76750000D02*
X166000000Y-77204874D01*
X166000000Y-77204874D02*
X167452054Y-78656928D01*
X173800000Y-70750000D02*
X173800000Y-71375000D01*
X173800000Y-71375000D02*
X173426009Y-71748991D01*
X173426009Y-71748991D02*
X173225689Y-71748991D01*
X171674680Y-68050000D02*
X171816759Y-67907921D01*
X171000000Y-68050000D02*
X171674680Y-68050000D01*
X171816759Y-67907921D02*
X172216758Y-67507922D01*
X168722229Y-45000000D02*
X169052813Y-44669416D01*
X166000000Y-45000000D02*
X168722229Y-45000000D01*
X179500000Y-44100000D02*
X179150000Y-43750000D01*
X179500000Y-45100000D02*
X179500000Y-44100000D01*
X172972229Y-43750000D02*
X172052813Y-44669416D01*
X179150000Y-43750000D02*
X172972229Y-43750000D01*
X172216758Y-67507922D02*
X172216758Y-70533242D01*
X172216758Y-70533242D02*
X169000000Y-73750000D01*
X169000000Y-73750000D02*
X169000000Y-74000000D01*
X172216758Y-67507922D02*
X171750000Y-67041164D01*
X171750000Y-67041164D02*
X166208836Y-67041164D01*
X166208836Y-67041164D02*
X165000000Y-68250000D01*
X165000000Y-68250000D02*
X165000000Y-70750000D01*
X165000000Y-70750000D02*
X164744999Y-71005001D01*
X164744999Y-71005001D02*
X164744999Y-72255001D01*
X164744999Y-72255001D02*
X164744999Y-73994999D01*
X164744999Y-73994999D02*
X165500000Y-74750000D01*
X165500000Y-74750000D02*
X166750000Y-74750000D01*
X166750000Y-74750000D02*
X168000000Y-76000000D01*
X169052813Y-45603187D02*
X168363000Y-46293000D01*
X169052813Y-44669416D02*
X169052813Y-45603187D01*
G04 #@! TO.N,+3V3*
X171450000Y-91125000D02*
X170500000Y-90175000D01*
X171450000Y-91750000D02*
X171450000Y-91125000D01*
X170500000Y-88973301D02*
X171341142Y-88132159D01*
X170500000Y-90175000D02*
X170500000Y-88973301D01*
X179000000Y-89800000D02*
X180500000Y-89800000D01*
X179826422Y-83253121D02*
X179402159Y-82828858D01*
X181125000Y-88950000D02*
X181125000Y-84551699D01*
X181125000Y-84551699D02*
X179826422Y-83253121D01*
X180500000Y-89575000D02*
X181125000Y-88950000D01*
X180500000Y-89800000D02*
X180500000Y-89575000D01*
X175700000Y-70750000D02*
X175700000Y-71953685D01*
X175700000Y-70750000D02*
X176797914Y-70750000D01*
X176797914Y-70750000D02*
X176813821Y-70765907D01*
X181125000Y-89800000D02*
X181362340Y-90037340D01*
X181362340Y-90037340D02*
X181362340Y-90387660D01*
X180500000Y-89800000D02*
X181125000Y-89800000D01*
X178461490Y-67750000D02*
X178474990Y-67736500D01*
X177000000Y-67750000D02*
X178461490Y-67750000D01*
X171450000Y-91750000D02*
X171450000Y-92950000D01*
X171450000Y-92950000D02*
X171500000Y-93000000D01*
X169000000Y-106900000D02*
X167600000Y-106900000D01*
X167600000Y-106900000D02*
X167250000Y-107250000D01*
X167158347Y-83122566D02*
X166744948Y-83535965D01*
X167504251Y-83128526D02*
X167498291Y-83122566D01*
X167498291Y-83122566D02*
X167158347Y-83122566D01*
X175700000Y-71953685D02*
X175153685Y-72500000D01*
X175153685Y-72500000D02*
X175153685Y-73153685D01*
X175153685Y-73153685D02*
X175250000Y-73250000D01*
X175250000Y-73616699D02*
X174098858Y-74767841D01*
X175250000Y-73250000D02*
X175250000Y-73616699D01*
X168325927Y-83124067D02*
X168725926Y-83524066D01*
X168324426Y-83122566D02*
X168325927Y-83124067D01*
X167498291Y-83122566D02*
X168324426Y-83122566D01*
X167098501Y-79010482D02*
X168088019Y-80000000D01*
X168088019Y-80000000D02*
X168250000Y-80000000D01*
X171341142Y-74767841D02*
X172459035Y-73649948D01*
X172459035Y-73649948D02*
X172459035Y-72750000D01*
X168363000Y-49363000D02*
X168500000Y-49500000D01*
X168363000Y-48193000D02*
X168363000Y-49363000D01*
X168150000Y-52850000D02*
X168500000Y-52500000D01*
X165750000Y-52850000D02*
X168150000Y-52850000D01*
X172459035Y-70927376D02*
X172666769Y-70719642D01*
X172666769Y-70719642D02*
X172666769Y-70408231D01*
X172459035Y-72750000D02*
X172459035Y-70927376D01*
X173575000Y-69500000D02*
X173800000Y-69500000D01*
X172666769Y-70408231D02*
X173575000Y-69500000D01*
G04 #@! TO.N,+5V*
X171902813Y-47844416D02*
X172327813Y-48269416D01*
X171902813Y-47069416D02*
X171902813Y-47844416D01*
X172327813Y-48269416D02*
X173652813Y-48269416D01*
X173802813Y-48119416D02*
X173802813Y-47069416D01*
X173652813Y-48269416D02*
X173802813Y-48119416D01*
X176106813Y-45923416D02*
X176052813Y-45869416D01*
X177115000Y-49535000D02*
X177115000Y-45899000D01*
D28*
X181780000Y-45720000D02*
X180750000Y-46750000D01*
X182880000Y-45720000D02*
X181780000Y-45720000D01*
X177933397Y-46750000D02*
X177052813Y-45869416D01*
X180750000Y-46750000D02*
X177933397Y-46750000D01*
D27*
X178850000Y-52850000D02*
X179750000Y-52850000D01*
X178500000Y-52500000D02*
X178850000Y-52850000D01*
X178500000Y-50345000D02*
X178500000Y-52500000D01*
X177115000Y-49585000D02*
X177740000Y-49585000D01*
X177740000Y-49585000D02*
X178500000Y-50345000D01*
G04 #@! TO.N,Net-(D4-Pad1)*
X169550000Y-104150000D02*
X169000000Y-103600000D01*
X171500000Y-104150000D02*
X169550000Y-104150000D01*
G04 #@! TO.N,Net-(Q1-Pad3)*
X171730000Y-106580000D02*
X171500000Y-106350000D01*
X174500000Y-106580000D02*
X171730000Y-106580000D01*
G04 #@! TO.N,NRST*
X171500000Y-62650000D02*
X171500000Y-62950000D01*
X172973004Y-62150000D02*
X174799999Y-63976995D01*
X171500000Y-62150000D02*
X172973004Y-62150000D01*
X176273005Y-63976995D02*
X177500000Y-62750000D01*
X174799999Y-63976995D02*
X176273005Y-63976995D01*
X170093322Y-77762662D02*
X172832119Y-77762662D01*
X172832119Y-77762662D02*
X173082751Y-78013294D01*
X173082751Y-78013294D02*
X173648436Y-78013294D01*
X174774999Y-65475001D02*
X174774999Y-71975001D01*
X173248437Y-73501563D02*
X173248437Y-77613295D01*
X169219821Y-76889161D02*
X170093322Y-77762662D01*
X177500000Y-62750000D02*
X174774999Y-65475001D01*
X174774999Y-71975001D02*
X173248437Y-73501563D01*
X173248437Y-77613295D02*
X173648436Y-78013294D01*
G04 #@! TO.N,TCK_SWCLK*
X181000000Y-62440000D02*
X177999999Y-59439999D01*
X179402159Y-80071142D02*
X181254980Y-78218321D01*
X181000000Y-75563825D02*
X181000000Y-62440000D01*
X181254980Y-78218321D02*
X181254980Y-75818805D01*
X177999999Y-59439999D02*
X177500000Y-58940000D01*
X181254980Y-75818805D02*
X181000000Y-75563825D01*
G04 #@! TO.N,TMS_SWDIO*
X178270789Y-83111702D02*
X178270789Y-81979211D01*
X181500000Y-75427414D02*
X181500000Y-60250000D01*
X178695052Y-83535965D02*
X178270789Y-83111702D01*
X179000000Y-81250000D02*
X179500000Y-81250000D01*
X181500000Y-60250000D02*
X178920000Y-57670000D01*
X179500000Y-81250000D02*
X181704991Y-79045009D01*
X181704991Y-75632405D02*
X181500000Y-75427414D01*
X181704991Y-79045009D02*
X181704991Y-75632405D01*
X178920000Y-57670000D02*
X178207106Y-57670000D01*
X178207106Y-57670000D02*
X177500000Y-57670000D01*
X178270789Y-81979211D02*
X179000000Y-81250000D01*
G04 #@! TO.N,SWO*
X180500000Y-63210000D02*
X177999999Y-60709999D01*
X177999999Y-60709999D02*
X177500000Y-60210000D01*
X177280839Y-77949821D02*
X178767508Y-76463152D01*
X180500000Y-75073481D02*
X180500000Y-63210000D01*
X179110329Y-76463152D02*
X180500000Y-75073481D01*
X178767508Y-76463152D02*
X179110329Y-76463152D01*
G04 #@! TO.N,Net-(D12-Pad2)*
X165750000Y-48550000D02*
X166000000Y-48300000D01*
X165750000Y-50650000D02*
X165750000Y-48550000D01*
G04 #@! TO.N,Net-(D13-Pad2)*
X179500000Y-50400000D02*
X179750000Y-50650000D01*
X179500000Y-48400000D02*
X179500000Y-50400000D01*
D29*
G04 #@! TO.N,Net-(L3-Pad2)*
X173802813Y-49769416D02*
X173802813Y-49994416D01*
X173802813Y-49769416D02*
X173802813Y-49819416D01*
X174302813Y-50319416D02*
X174302813Y-52669416D01*
X173802813Y-49819416D02*
X174302813Y-50319416D01*
D27*
G04 #@! TO.N,PB15*
X175159518Y-87071499D02*
X175583781Y-87495762D01*
X177200000Y-101600000D02*
X181677919Y-101600000D01*
X181677919Y-101600000D02*
X182880000Y-101600000D01*
X174000000Y-98400000D02*
X177200000Y-101600000D01*
X174000000Y-92036411D02*
X174000000Y-98400000D01*
X175050011Y-88723678D02*
X175050011Y-90986400D01*
X175050011Y-90986400D02*
X174000000Y-92036411D01*
X175583781Y-88189908D02*
X175050011Y-88723678D01*
X175583781Y-87495762D02*
X175583781Y-88189908D01*
G04 #@! TO.N,PB14*
X174805965Y-87425052D02*
X174805965Y-87405965D01*
X174805965Y-87405965D02*
X173800000Y-86400000D01*
G04 #@! TO.N,PB13*
X173000000Y-101000000D02*
X172400000Y-101600000D01*
X172400000Y-101600000D02*
X163762081Y-101600000D01*
X163762081Y-101600000D02*
X162560000Y-101600000D01*
X172800000Y-90903587D02*
X173000000Y-91103587D01*
X172800000Y-87600000D02*
X172800000Y-90903587D01*
X173000000Y-91103587D02*
X173000000Y-101000000D01*
X174028149Y-87354343D02*
X173045657Y-87354343D01*
X173045657Y-87354343D02*
X172800000Y-87600000D01*
X174452412Y-87778606D02*
X174028149Y-87354343D01*
G04 #@! TO.N,PB12*
X177250000Y-103850000D02*
X177250000Y-104000000D01*
X175230000Y-104000000D02*
X175150000Y-103920000D01*
X177250000Y-104000000D02*
X175230000Y-104000000D01*
X177950000Y-104000000D02*
X179500000Y-105550000D01*
X177250000Y-104000000D02*
X177950000Y-104000000D01*
X179500000Y-105550000D02*
X179500000Y-108000000D01*
X179500000Y-108000000D02*
X179000000Y-108500000D01*
X179000000Y-108500000D02*
X166500000Y-108500000D01*
X166500000Y-108500000D02*
X164500000Y-106500000D01*
X164500000Y-106080000D02*
X162560000Y-104140000D01*
X164500000Y-106500000D02*
X164500000Y-106080000D01*
X174600000Y-90650000D02*
X174600000Y-88633301D01*
X174600000Y-88633301D02*
X174098858Y-88132159D01*
X177250000Y-102750000D02*
X177000000Y-102500000D01*
X177250000Y-104000000D02*
X177250000Y-102750000D01*
X174250000Y-102500000D02*
X173500000Y-101750000D01*
X173500000Y-101750000D02*
X173500000Y-91750000D01*
X177000000Y-102500000D02*
X174250000Y-102500000D01*
X173500000Y-91750000D02*
X174600000Y-90650000D01*
G04 #@! TO.N,PB11*
X170634035Y-87425052D02*
X167809087Y-90250000D01*
X167809087Y-90250000D02*
X166750000Y-90250000D01*
X166750000Y-90250000D02*
X166750000Y-90500000D01*
G04 #@! TO.N,PB10*
X170280482Y-87071499D02*
X167601981Y-89750000D01*
X167601981Y-89750000D02*
X166750000Y-89750000D01*
X166750000Y-89750000D02*
X166250000Y-89750000D01*
X166250000Y-89750000D02*
X165750000Y-90250000D01*
G04 #@! TO.N,PB1*
X165000000Y-89250000D02*
X164500000Y-89750000D01*
X164500000Y-89750000D02*
X164500000Y-90500000D01*
X164500000Y-90500000D02*
X164000000Y-91000000D01*
X164000000Y-91000000D02*
X164000000Y-92540000D01*
X164000000Y-92540000D02*
X162560000Y-93980000D01*
X166750000Y-89187767D02*
X169573375Y-86364392D01*
X166687767Y-89250000D02*
X166750000Y-89187767D01*
X165000000Y-89250000D02*
X166687767Y-89250000D01*
G04 #@! TO.N,PB0*
X170500000Y-84730660D02*
X170480660Y-84750000D01*
X168272532Y-80772532D02*
X170500000Y-83000000D01*
X166557755Y-80772532D02*
X168272532Y-80772532D01*
X166330287Y-81000000D02*
X166557755Y-80772532D01*
X170500000Y-83000000D02*
X170500000Y-84730660D01*
X169219821Y-86010839D02*
X170480660Y-84750000D01*
X164250000Y-77890000D02*
X164250000Y-80250000D01*
X162560000Y-76200000D02*
X164250000Y-77890000D01*
X164250000Y-80250000D02*
X165000000Y-81000000D01*
X165000000Y-81000000D02*
X166330287Y-81000000D01*
G04 #@! TO.N,PC5*
X164749999Y-81499999D02*
X166613591Y-81499999D01*
X166613591Y-81499999D02*
X166891047Y-81222543D01*
X166891047Y-81222543D02*
X168086133Y-81222543D01*
X169290531Y-85233022D02*
X168866268Y-85657285D01*
X163409999Y-80159999D02*
X164749999Y-81499999D01*
X170049989Y-83186399D02*
X170049989Y-84473564D01*
X163409999Y-79589999D02*
X163409999Y-80159999D01*
X162560000Y-78740000D02*
X163409999Y-79589999D01*
X168086133Y-81222543D02*
X170049989Y-83186399D01*
X170049989Y-84473564D02*
X169290531Y-85233022D01*
G04 #@! TO.N,PC4*
X167899734Y-81672554D02*
X167077446Y-81672554D01*
X163762081Y-81280000D02*
X162560000Y-81280000D01*
X164432091Y-81950010D02*
X163762081Y-81280000D01*
X168512715Y-85303732D02*
X169475002Y-84341445D01*
X169475002Y-84341445D02*
X169475002Y-83247822D01*
X166799991Y-81950010D02*
X164432091Y-81950010D01*
X167077446Y-81672554D02*
X166799991Y-81950010D01*
X169475002Y-83247822D02*
X167899734Y-81672554D01*
G04 #@! TO.N,PA2*
X162560000Y-71120000D02*
X163409999Y-71969999D01*
X163409999Y-72682820D02*
X163735001Y-73007822D01*
X163735001Y-73007822D02*
X163735001Y-76605806D01*
X164700633Y-77571438D02*
X164700633Y-78733934D01*
X163409999Y-71969999D02*
X163409999Y-72682820D01*
X165613578Y-79646879D02*
X166037841Y-80071142D01*
X164700633Y-78733934D02*
X165613578Y-79646879D01*
X163735001Y-76605806D02*
X164700633Y-77571438D01*
G04 #@! TO.N,PA1*
X163409999Y-69429999D02*
X162560000Y-68580000D01*
X164049991Y-72686401D02*
X164049991Y-70069991D01*
X164185012Y-72821422D02*
X164049991Y-72686401D01*
X164185012Y-75758016D02*
X164185012Y-72821422D01*
X166391394Y-79717588D02*
X165150644Y-78476838D01*
X164049991Y-70069991D02*
X163409999Y-69429999D01*
X165150644Y-78476838D02*
X165150644Y-76723648D01*
X165150644Y-76723648D02*
X164185012Y-75758016D01*
G04 #@! TO.N,PC2*
X168583424Y-79083424D02*
X169100001Y-79600001D01*
X168583424Y-78374084D02*
X168583424Y-79083424D01*
X168159161Y-77949821D02*
X168583424Y-78374084D01*
X169100001Y-79600001D02*
X169500000Y-80000000D01*
G04 #@! TO.N,Net-(C15-Pad1)*
X168025000Y-73175000D02*
X167700000Y-73500000D01*
X170950000Y-70000000D02*
X171000000Y-69950000D01*
X169250000Y-70000000D02*
X170950000Y-70000000D01*
X171000000Y-70850000D02*
X168600000Y-73250000D01*
X171000000Y-69950000D02*
X171000000Y-70850000D01*
G04 #@! TO.N,Net-(C17-Pad1)*
X165550000Y-73250000D02*
X165700000Y-73250000D01*
X165550000Y-71795000D02*
X165670000Y-71675000D01*
X165550000Y-73250000D02*
X165550000Y-71795000D01*
X165670000Y-71050000D02*
X165750000Y-70970000D01*
X165670000Y-71675000D02*
X165670000Y-71050000D01*
X166100000Y-68400000D02*
X167050000Y-68400000D01*
X165750000Y-68750000D02*
X166100000Y-68400000D01*
X165750000Y-70970000D02*
X165750000Y-68750000D01*
X168725001Y-75687234D02*
X169573375Y-76535608D01*
X165550000Y-73950000D02*
X165850000Y-74250000D01*
X165550000Y-73250000D02*
X165550000Y-73950000D01*
X167287767Y-74250000D02*
X168725001Y-75687234D01*
X165850000Y-74250000D02*
X167287767Y-74250000D01*
G04 #@! TO.N,Net-(J9-Pad2)*
X176440000Y-97790000D02*
X178250000Y-97790000D01*
X175250000Y-96450000D02*
X175250000Y-96600000D01*
X175250000Y-96600000D02*
X176440000Y-97790000D01*
G04 #@! TO.N,Net-(J10-Pad2)*
X169110000Y-97790000D02*
X168452081Y-97790000D01*
X170250000Y-96650000D02*
X169110000Y-97790000D01*
X168452081Y-97790000D02*
X167250000Y-97790000D01*
X170250000Y-96500000D02*
X170250000Y-96650000D01*
G04 #@! TO.N,Net-(C13-Pad2)*
X167500000Y-91266194D02*
X167500000Y-91750000D01*
X170987588Y-87778606D02*
X167500000Y-91266194D01*
G04 #@! TO.N,Net-(C14-Pad2)*
X180384173Y-84517979D02*
X179472869Y-83606675D01*
X177500000Y-89800000D02*
X177500000Y-89575000D01*
X180384173Y-86996410D02*
X180384173Y-84517979D01*
X178350000Y-88950000D02*
X179926590Y-87373410D01*
X179472869Y-83606675D02*
X179048606Y-83182412D01*
X177500000Y-89575000D02*
X178125000Y-88950000D01*
X178125000Y-88950000D02*
X178350000Y-88950000D01*
X180007173Y-87373410D02*
X180384173Y-86996410D01*
X179926590Y-87373410D02*
X180007173Y-87373410D01*
G04 #@! TO.N,PB9*
X174805965Y-75474948D02*
X176250000Y-74030913D01*
X176250000Y-74030913D02*
X176250000Y-74000000D01*
X176750000Y-73500000D02*
X176750000Y-72000000D01*
X176250000Y-74000000D02*
X176750000Y-73500000D01*
G04 #@! TO.N,PB8*
X176750000Y-74238019D02*
X176750000Y-74136410D01*
X175159518Y-75828501D02*
X176750000Y-74238019D01*
X177450009Y-72325311D02*
X177612661Y-72162659D01*
X177450009Y-73436401D02*
X177450009Y-72325311D01*
X176750000Y-74136410D02*
X177450009Y-73436401D01*
X177612661Y-72162659D02*
X178012660Y-71762660D01*
G04 #@! TO.N,PB7_I2C1_SDA*
X179200000Y-72000000D02*
X179200000Y-65800000D01*
X178149989Y-73050011D02*
X179200000Y-72000000D01*
X178149989Y-73372832D02*
X178149989Y-73050011D01*
X177359482Y-74163339D02*
X178149989Y-73372832D01*
X175866625Y-76535608D02*
X177359482Y-75042751D01*
X177359482Y-75042751D02*
X177359482Y-74163339D01*
X179200000Y-65800000D02*
X178400000Y-65000000D01*
G04 #@! TO.N,PB6_I2C1_SCL*
X176220179Y-76889161D02*
X177809493Y-75299847D01*
X177809493Y-74390507D02*
X180000000Y-72200000D01*
X180000000Y-64161836D02*
X179525009Y-63686845D01*
X177809493Y-75299847D02*
X177809493Y-74390507D01*
X180000000Y-72200000D02*
X180000000Y-64161836D01*
X179525009Y-63686845D02*
X179125010Y-63286846D01*
G04 #@! TO.N,PB5_I2C1_SMBA*
X178528308Y-75288139D02*
X178575927Y-75288139D01*
X176573732Y-77242715D02*
X178528308Y-75288139D01*
X178481521Y-75404890D02*
X178481521Y-75382545D01*
X178481521Y-75382545D02*
X178575927Y-75288139D01*
G04 #@! TO.N,PB4*
X178923929Y-76013141D02*
X179627006Y-75310064D01*
X178510412Y-76013141D02*
X178923929Y-76013141D01*
X179627006Y-75155102D02*
X179627006Y-74589417D01*
X179627006Y-75310064D02*
X179627006Y-75155102D01*
X176927285Y-77596268D02*
X178510412Y-76013141D01*
G04 #@! TO.N,PA15*
X178016194Y-80750000D02*
X179048606Y-79717588D01*
X178000000Y-80750000D02*
X178016194Y-80750000D01*
G04 #@! TO.N,PA12_CTS*
X178947287Y-84495306D02*
X179265500Y-84495306D01*
X178341499Y-83889518D02*
X178947287Y-84495306D01*
G04 #@! TO.N,PA11_ST_RTS*
X179161960Y-85487783D02*
X179399869Y-85487783D01*
X179232657Y-85487783D02*
X177987946Y-84243072D01*
X179399869Y-85487783D02*
X179232657Y-85487783D01*
G04 #@! TO.N,PA10_ST_TXD*
X179135176Y-86248409D02*
X178650022Y-85763255D01*
X178650022Y-85612255D02*
X177634392Y-84596625D01*
X178650022Y-85763255D02*
X178650022Y-85612255D01*
X179659171Y-86648408D02*
X179259172Y-86248409D01*
X179259172Y-86248409D02*
X179135176Y-86248409D01*
G04 #@! TO.N,PA9_ST_RXD*
X178200011Y-85869351D02*
X178200011Y-86563244D01*
X178404708Y-86767941D02*
X178804707Y-87167940D01*
X177280839Y-84950179D02*
X178200011Y-85869351D01*
X178200011Y-86563244D02*
X178404708Y-86767941D01*
G04 #@! TO.N,PA8_MCO*
X177750002Y-86913592D02*
X177850001Y-87013591D01*
X177850001Y-87013591D02*
X177850001Y-87600001D01*
X177750001Y-86126448D02*
X177750002Y-86913592D01*
X177850001Y-87600001D02*
X178250000Y-88000000D01*
X176927285Y-85303732D02*
X177750001Y-86126448D01*
G04 #@! TO.N,PA7_SPI1_MOSI*
X167109340Y-86000000D02*
X168159161Y-84950179D01*
X164000000Y-90170000D02*
X164000000Y-88500000D01*
X162560000Y-91610000D02*
X164000000Y-90170000D01*
X164500000Y-88000000D02*
X164500000Y-86750000D01*
X164500000Y-86750000D02*
X165250000Y-86000000D01*
X164000000Y-88500000D02*
X164500000Y-88000000D01*
X165250000Y-86000000D02*
X167109340Y-86000000D01*
G04 #@! TO.N,PA6_SPI1_MISO*
X166902233Y-85500000D02*
X167805608Y-84596625D01*
X165000000Y-85500000D02*
X166902233Y-85500000D01*
X164000000Y-86500000D02*
X165000000Y-85500000D01*
X162560000Y-89070000D02*
X164000000Y-87630000D01*
X164000000Y-87630000D02*
X164000000Y-86500000D01*
G04 #@! TO.N,PA5_SPI1_SCK*
X166695126Y-85000000D02*
X164090000Y-85000000D01*
X167452054Y-84243072D02*
X166695126Y-85000000D01*
X163409999Y-85680001D02*
X162560000Y-86530000D01*
X164090000Y-85000000D02*
X163409999Y-85680001D01*
G04 #@! TO.N,PA4_SPI1_NSS*
X165000000Y-84500000D02*
X164490000Y-83990000D01*
X167098501Y-83889518D02*
X166488019Y-84500000D01*
X166488019Y-84500000D02*
X165000000Y-84500000D01*
X164490000Y-83990000D02*
X162560000Y-83990000D01*
G04 #@! TO.N,PA3*
X166037841Y-82828858D02*
X165250000Y-83616699D01*
X165250000Y-83616699D02*
X164866699Y-83616699D01*
X164866699Y-83616699D02*
X164250000Y-83000000D01*
G04 #@! TO.N,PA0*
X166744948Y-79364035D02*
X165875645Y-78494732D01*
X165875645Y-78494732D02*
X165875645Y-78105839D01*
G04 #@! TO.N,PC13*
X168350000Y-62050000D02*
X169250000Y-61150000D01*
X167000000Y-62050000D02*
X168350000Y-62050000D01*
X169250000Y-61150000D02*
X169250000Y-60500000D01*
X169250000Y-60500000D02*
X170000000Y-59750000D01*
X170000000Y-59750000D02*
X172750000Y-59750000D01*
X172750000Y-59750000D02*
X174000000Y-58500000D01*
X174000000Y-58500000D02*
X174000000Y-56500000D01*
X174000000Y-56500000D02*
X174750000Y-55750000D01*
X174750000Y-55750000D02*
X180000000Y-55750000D01*
X180000000Y-55750000D02*
X181000000Y-54750000D01*
X167000000Y-60000000D02*
X167000000Y-62050000D01*
X181000000Y-50140000D02*
X182880000Y-48260000D01*
X181000000Y-54750000D02*
X181000000Y-50140000D01*
G04 #@! TO.N,PD2*
X179082691Y-76950425D02*
X179648376Y-76950425D01*
X178987342Y-76950425D02*
X179082691Y-76950425D01*
X177634392Y-78303375D02*
X178987342Y-76950425D01*
G04 #@! TO.N,PC3*
X167805608Y-78303375D02*
X167272234Y-77770001D01*
X167805608Y-78303375D02*
X166750000Y-77247767D01*
X166750000Y-77247767D02*
X166750000Y-76250000D01*
X166750000Y-76250000D02*
X166250000Y-75750000D01*
X166250000Y-75750000D02*
X165250000Y-75750000D01*
G04 #@! TO.N,PC6*
X175500022Y-88936388D02*
X175500022Y-91172800D01*
X175500022Y-91172800D02*
X174474999Y-92197823D01*
X174474999Y-98074999D02*
X175460000Y-99060000D01*
X174474999Y-92197823D02*
X174474999Y-98074999D01*
X181677919Y-99060000D02*
X182880000Y-99060000D01*
X175513072Y-86717946D02*
X176450009Y-87654883D01*
X176450009Y-87986401D02*
X175500022Y-88936388D01*
X175460000Y-99060000D02*
X181677919Y-99060000D01*
X176450009Y-87654883D02*
X176450009Y-87986401D01*
G04 #@! TO.N,PC7*
X176900019Y-87397786D02*
X176900020Y-88172801D01*
X176150033Y-90359200D02*
X176100022Y-90409211D01*
X175866625Y-86364392D02*
X176900019Y-87397786D01*
X176100022Y-93465020D02*
X176600000Y-93964998D01*
X176900020Y-88172801D02*
X176150033Y-88922788D01*
X176600000Y-96200000D02*
X176920000Y-96520000D01*
X176150033Y-88922788D02*
X176150033Y-90359200D01*
X176920000Y-96520000D02*
X181677919Y-96520000D01*
X176100022Y-90409211D02*
X176100022Y-93465020D01*
X176600000Y-93964998D02*
X176600000Y-96200000D01*
X181677919Y-96520000D02*
X182880000Y-96520000D01*
G04 #@! TO.N,PC8*
X177350030Y-88359202D02*
X176600044Y-89109188D01*
X176600044Y-89109188D02*
X176600044Y-93328632D01*
X176220179Y-86010839D02*
X177350029Y-87140689D01*
X177251412Y-93980000D02*
X181677919Y-93980000D01*
X181677919Y-93980000D02*
X182880000Y-93980000D01*
X176600044Y-93328632D02*
X177251412Y-93980000D01*
X177350029Y-87140689D02*
X177350030Y-88359202D01*
G04 #@! TO.N,PC9*
X182880000Y-91440000D02*
X182640000Y-91440000D01*
X176573732Y-85657285D02*
X175600000Y-84683553D01*
X175600000Y-84683553D02*
X175600000Y-84600000D01*
G04 #@! TO.N,PC10*
X179660123Y-78398964D02*
X180042585Y-78398964D01*
X178695052Y-79364035D02*
X179660123Y-78398964D01*
G04 #@! TO.N,PC11*
X178341499Y-79010482D02*
X177351981Y-80000000D01*
X177351981Y-80000000D02*
X177250000Y-80000000D01*
G04 #@! TO.N,PC12*
X178969448Y-77675426D02*
X179996377Y-77675426D01*
X177987946Y-78656928D02*
X178969448Y-77675426D01*
X180529978Y-77141825D02*
X180529978Y-76732492D01*
X179996377Y-77675426D02*
X180529978Y-77141825D01*
X180529978Y-76732492D02*
X180529978Y-76166807D01*
G04 #@! TO.N,PC13*
X167000000Y-62350000D02*
X167000000Y-62050000D01*
X168400000Y-63750000D02*
X167000000Y-62350000D01*
X169750000Y-63750000D02*
X168400000Y-63750000D01*
G04 #@! TO.N,PC14*
X171409087Y-76250000D02*
X171500000Y-76250000D01*
X170634035Y-75474948D02*
X171409087Y-76250000D01*
G04 #@! TO.N,PC1*
X169512016Y-78835020D02*
X170510243Y-79833247D01*
X168512715Y-77596268D02*
X169512016Y-78595569D01*
X169512016Y-78595569D02*
X169512016Y-78835020D01*
X170510243Y-79833247D02*
X170510243Y-80325011D01*
G04 #@! TO.N,PC0*
X168866268Y-77242715D02*
X170111216Y-78487663D01*
X170111216Y-78487663D02*
X170237017Y-78487663D01*
G04 #@! TO.N,Net-(C15-Pad1)*
X167750000Y-74053004D02*
X169454787Y-75757791D01*
X169502665Y-75757791D02*
X169926928Y-76182054D01*
X167750000Y-73250000D02*
X167750000Y-74053004D01*
X169454787Y-75757791D02*
X169502665Y-75757791D01*
X168000000Y-73250000D02*
X168600000Y-73250000D01*
G04 #@! TO.N,PC13*
X171750000Y-64500000D02*
X170500000Y-64500000D01*
X170500000Y-64500000D02*
X169750000Y-63750000D01*
X170563325Y-74697131D02*
X170563325Y-73436675D01*
X170987588Y-75121394D02*
X170563325Y-74697131D01*
X170563325Y-73436675D02*
X170750000Y-73250000D01*
G04 #@! TO.N,Net-(R6-Pad1)*
X175513072Y-76182054D02*
X174750000Y-76945126D01*
X174750000Y-76945126D02*
X174750000Y-77750000D01*
X175250000Y-92500000D02*
X175250000Y-94250000D01*
G04 #@! TO.N,Net-(R8-Pad1)*
X169926928Y-86717946D02*
X170644874Y-86000000D01*
X170644874Y-86000000D02*
X171250000Y-86000000D01*
X171250000Y-86000000D02*
X172250000Y-87000000D01*
X172250000Y-87000000D02*
X172250000Y-90989998D01*
X172250000Y-90989998D02*
X172500000Y-91239998D01*
X172500000Y-91239998D02*
X172500000Y-93500000D01*
X171700000Y-94300000D02*
X170250000Y-94300000D01*
X172500000Y-93500000D02*
X171700000Y-94300000D01*
G04 #@! TO.N,PC15*
X169737965Y-75240542D02*
X169737965Y-74674857D01*
X170280482Y-75828501D02*
X169737965Y-75285984D01*
X169737965Y-75285984D02*
X169737965Y-75240542D01*
G04 #@! TD*
D30*
G04 #@! TO.N,+3V3*
G36*
X168550500Y-49269250D02*
X168709250Y-49428000D01*
X168864310Y-49428000D01*
X169097699Y-49331327D01*
X169276327Y-49152698D01*
X169341061Y-48996416D01*
X171018219Y-48996416D01*
X170967813Y-49118106D01*
X170967813Y-49348166D01*
X171126563Y-49506916D01*
X171752813Y-49506916D01*
X171752813Y-49376416D01*
X172052813Y-49376416D01*
X172052813Y-49506916D01*
X172202813Y-49506916D01*
X172202813Y-50031916D01*
X172052813Y-50031916D01*
X172052813Y-50162416D01*
X171752813Y-50162416D01*
X171752813Y-50031916D01*
X171126563Y-50031916D01*
X170967813Y-50190666D01*
X170967813Y-50420726D01*
X171064486Y-50654115D01*
X171243115Y-50832743D01*
X171308961Y-50860018D01*
X171225813Y-50943166D01*
X171225813Y-52296416D01*
X172329063Y-52296416D01*
X172487813Y-52137666D01*
X172487813Y-51293106D01*
X172391140Y-51059717D01*
X172260838Y-50929416D01*
X172329122Y-50929416D01*
X172562511Y-50832743D01*
X172725813Y-50669442D01*
X172725813Y-55327585D01*
X172600000Y-55302560D01*
X170400000Y-55302560D01*
X170199628Y-55342416D01*
X168483316Y-55342416D01*
X168347765Y-55251843D01*
X168100000Y-55202560D01*
X167979813Y-55202560D01*
X167979813Y-53201166D01*
X169217813Y-53201166D01*
X169217813Y-54045726D01*
X169314486Y-54279115D01*
X169493115Y-54457743D01*
X169726504Y-54554416D01*
X170321063Y-54554416D01*
X170479813Y-54395666D01*
X170479813Y-53042416D01*
X171225813Y-53042416D01*
X171225813Y-54395666D01*
X171384563Y-54554416D01*
X171979122Y-54554416D01*
X172212511Y-54457743D01*
X172391140Y-54279115D01*
X172487813Y-54045726D01*
X172487813Y-53201166D01*
X172329063Y-53042416D01*
X171225813Y-53042416D01*
X170479813Y-53042416D01*
X169376563Y-53042416D01*
X169217813Y-53201166D01*
X167979813Y-53201166D01*
X167979813Y-51293106D01*
X169217813Y-51293106D01*
X169217813Y-52137666D01*
X169376563Y-52296416D01*
X170479813Y-52296416D01*
X170479813Y-50943166D01*
X170321063Y-50784416D01*
X169726504Y-50784416D01*
X169493115Y-50881089D01*
X169314486Y-51059717D01*
X169217813Y-51293106D01*
X167979813Y-51293106D01*
X167979813Y-49428000D01*
X168016750Y-49428000D01*
X168175500Y-49269250D01*
X168175500Y-48996416D01*
X168550500Y-48996416D01*
X168550500Y-49269250D01*
X168550500Y-49269250D01*
G37*
X168550500Y-49269250D02*
X168709250Y-49428000D01*
X168864310Y-49428000D01*
X169097699Y-49331327D01*
X169276327Y-49152698D01*
X169341061Y-48996416D01*
X171018219Y-48996416D01*
X170967813Y-49118106D01*
X170967813Y-49348166D01*
X171126563Y-49506916D01*
X171752813Y-49506916D01*
X171752813Y-49376416D01*
X172052813Y-49376416D01*
X172052813Y-49506916D01*
X172202813Y-49506916D01*
X172202813Y-50031916D01*
X172052813Y-50031916D01*
X172052813Y-50162416D01*
X171752813Y-50162416D01*
X171752813Y-50031916D01*
X171126563Y-50031916D01*
X170967813Y-50190666D01*
X170967813Y-50420726D01*
X171064486Y-50654115D01*
X171243115Y-50832743D01*
X171308961Y-50860018D01*
X171225813Y-50943166D01*
X171225813Y-52296416D01*
X172329063Y-52296416D01*
X172487813Y-52137666D01*
X172487813Y-51293106D01*
X172391140Y-51059717D01*
X172260838Y-50929416D01*
X172329122Y-50929416D01*
X172562511Y-50832743D01*
X172725813Y-50669442D01*
X172725813Y-55327585D01*
X172600000Y-55302560D01*
X170400000Y-55302560D01*
X170199628Y-55342416D01*
X168483316Y-55342416D01*
X168347765Y-55251843D01*
X168100000Y-55202560D01*
X167979813Y-55202560D01*
X167979813Y-53201166D01*
X169217813Y-53201166D01*
X169217813Y-54045726D01*
X169314486Y-54279115D01*
X169493115Y-54457743D01*
X169726504Y-54554416D01*
X170321063Y-54554416D01*
X170479813Y-54395666D01*
X170479813Y-53042416D01*
X171225813Y-53042416D01*
X171225813Y-54395666D01*
X171384563Y-54554416D01*
X171979122Y-54554416D01*
X172212511Y-54457743D01*
X172391140Y-54279115D01*
X172487813Y-54045726D01*
X172487813Y-53201166D01*
X172329063Y-53042416D01*
X171225813Y-53042416D01*
X170479813Y-53042416D01*
X169376563Y-53042416D01*
X169217813Y-53201166D01*
X167979813Y-53201166D01*
X167979813Y-51293106D01*
X169217813Y-51293106D01*
X169217813Y-52137666D01*
X169376563Y-52296416D01*
X170479813Y-52296416D01*
X170479813Y-50943166D01*
X170321063Y-50784416D01*
X169726504Y-50784416D01*
X169493115Y-50881089D01*
X169314486Y-51059717D01*
X169217813Y-51293106D01*
X167979813Y-51293106D01*
X167979813Y-49428000D01*
X168016750Y-49428000D01*
X168175500Y-49269250D01*
X168175500Y-48996416D01*
X168550500Y-48996416D01*
X168550500Y-49269250D01*
G04 #@! TO.N,+5V*
G36*
X177468358Y-44653871D02*
X177657061Y-44936286D01*
X177725813Y-45281925D01*
X177725813Y-47456907D01*
X177657061Y-47802546D01*
X177468358Y-48084961D01*
X177185943Y-48273664D01*
X176840304Y-48342416D01*
X174465322Y-48342416D01*
X174119683Y-48273664D01*
X173929815Y-48146799D01*
X173929815Y-48070668D01*
X174088563Y-48229416D01*
X174229122Y-48229416D01*
X174462511Y-48132743D01*
X174641140Y-47954115D01*
X174737813Y-47720726D01*
X174737813Y-47355166D01*
X174579063Y-47196416D01*
X173929813Y-47196416D01*
X173929813Y-47216416D01*
X173800253Y-47216416D01*
X173800253Y-46544416D01*
X173750970Y-46296651D01*
X173675813Y-46184171D01*
X173675813Y-46068166D01*
X173929813Y-46068166D01*
X173929813Y-46942416D01*
X174579063Y-46942416D01*
X174737813Y-46783666D01*
X174737813Y-46418106D01*
X174641140Y-46184717D01*
X174462511Y-46006089D01*
X174229122Y-45909416D01*
X174088563Y-45909416D01*
X173929813Y-46068166D01*
X173675813Y-46068166D01*
X173625000Y-46017353D01*
X173625000Y-45556450D01*
X173639888Y-45481603D01*
X173625000Y-45406756D01*
X173625000Y-45406751D01*
X173589992Y-45230753D01*
X173648565Y-44936286D01*
X173837268Y-44653871D01*
X174052587Y-44510000D01*
X177253039Y-44510000D01*
X177468358Y-44653871D01*
X177468358Y-44653871D01*
G37*
X177468358Y-44653871D02*
X177657061Y-44936286D01*
X177725813Y-45281925D01*
X177725813Y-47456907D01*
X177657061Y-47802546D01*
X177468358Y-48084961D01*
X177185943Y-48273664D01*
X176840304Y-48342416D01*
X174465322Y-48342416D01*
X174119683Y-48273664D01*
X173929815Y-48146799D01*
X173929815Y-48070668D01*
X174088563Y-48229416D01*
X174229122Y-48229416D01*
X174462511Y-48132743D01*
X174641140Y-47954115D01*
X174737813Y-47720726D01*
X174737813Y-47355166D01*
X174579063Y-47196416D01*
X173929813Y-47196416D01*
X173929813Y-47216416D01*
X173800253Y-47216416D01*
X173800253Y-46544416D01*
X173750970Y-46296651D01*
X173675813Y-46184171D01*
X173675813Y-46068166D01*
X173929813Y-46068166D01*
X173929813Y-46942416D01*
X174579063Y-46942416D01*
X174737813Y-46783666D01*
X174737813Y-46418106D01*
X174641140Y-46184717D01*
X174462511Y-46006089D01*
X174229122Y-45909416D01*
X174088563Y-45909416D01*
X173929813Y-46068166D01*
X173675813Y-46068166D01*
X173625000Y-46017353D01*
X173625000Y-45556450D01*
X173639888Y-45481603D01*
X173625000Y-45406756D01*
X173625000Y-45406751D01*
X173589992Y-45230753D01*
X173648565Y-44936286D01*
X173837268Y-44653871D01*
X174052587Y-44510000D01*
X177253039Y-44510000D01*
X177468358Y-44653871D01*
G04 #@! TO.N,GND*
G36*
X162687000Y-106553000D02*
X162707000Y-106553000D01*
X162707000Y-106807000D01*
X162687000Y-106807000D01*
X162687000Y-108000819D01*
X162916892Y-108121486D01*
X163441358Y-107875183D01*
X163831645Y-107446924D01*
X163987186Y-107071392D01*
X164015530Y-107090331D01*
X165383198Y-108458000D01*
X162937509Y-108458000D01*
X162591870Y-108389248D01*
X162309455Y-108200545D01*
X162242733Y-108100688D01*
X162433000Y-108000819D01*
X162433000Y-106807000D01*
X162413000Y-106807000D01*
X162413000Y-106553000D01*
X162433000Y-106553000D01*
X162433000Y-106533000D01*
X162687000Y-106533000D01*
X162687000Y-106553000D01*
X162687000Y-106553000D01*
G37*
X162687000Y-106553000D02*
X162707000Y-106553000D01*
X162707000Y-106807000D01*
X162687000Y-106807000D01*
X162687000Y-108000819D01*
X162916892Y-108121486D01*
X163441358Y-107875183D01*
X163831645Y-107446924D01*
X163987186Y-107071392D01*
X164015530Y-107090331D01*
X165383198Y-108458000D01*
X162937509Y-108458000D01*
X162591870Y-108389248D01*
X162309455Y-108200545D01*
X162242733Y-108100688D01*
X162433000Y-108000819D01*
X162433000Y-106807000D01*
X162413000Y-106807000D01*
X162413000Y-106553000D01*
X162433000Y-106553000D01*
X162433000Y-106533000D01*
X162687000Y-106533000D01*
X162687000Y-106553000D01*
G36*
X181809375Y-102670625D02*
X182107761Y-102870000D01*
X181809375Y-103069375D01*
X181481161Y-103560582D01*
X181365908Y-104140000D01*
X181481161Y-104719418D01*
X181809375Y-105210625D01*
X182128478Y-105423843D01*
X181998642Y-105484817D01*
X181608355Y-105913076D01*
X181438524Y-106323110D01*
X181559845Y-106553000D01*
X182753000Y-106553000D01*
X182753000Y-106533000D01*
X183007000Y-106533000D01*
X183007000Y-106553000D01*
X183027000Y-106553000D01*
X183027000Y-106807000D01*
X183007000Y-106807000D01*
X183007000Y-108000819D01*
X183197267Y-108100688D01*
X183130545Y-108200545D01*
X182848130Y-108389248D01*
X182502491Y-108458000D01*
X180108018Y-108458000D01*
X180215301Y-108297440D01*
X180215904Y-108296538D01*
X180225527Y-108248157D01*
X180260000Y-108074852D01*
X180260000Y-108074848D01*
X180274888Y-108000000D01*
X180260000Y-107925152D01*
X180260000Y-107036890D01*
X181438524Y-107036890D01*
X181608355Y-107446924D01*
X181998642Y-107875183D01*
X182523108Y-108121486D01*
X182753000Y-108000819D01*
X182753000Y-106807000D01*
X181559845Y-106807000D01*
X181438524Y-107036890D01*
X180260000Y-107036890D01*
X180260000Y-105624846D01*
X180274888Y-105549999D01*
X180260000Y-105475152D01*
X180260000Y-105475148D01*
X180215904Y-105253463D01*
X180047929Y-105002071D01*
X179984473Y-104959671D01*
X178540331Y-103515530D01*
X178497929Y-103452071D01*
X178336318Y-103344086D01*
X178298157Y-103152235D01*
X178157809Y-102942191D01*
X178010000Y-102843427D01*
X178010000Y-102824846D01*
X178024888Y-102749999D01*
X178010000Y-102675152D01*
X178010000Y-102675148D01*
X177965904Y-102453463D01*
X177903454Y-102360000D01*
X181601822Y-102360000D01*
X181809375Y-102670625D01*
X181809375Y-102670625D01*
G37*
X181809375Y-102670625D02*
X182107761Y-102870000D01*
X181809375Y-103069375D01*
X181481161Y-103560582D01*
X181365908Y-104140000D01*
X181481161Y-104719418D01*
X181809375Y-105210625D01*
X182128478Y-105423843D01*
X181998642Y-105484817D01*
X181608355Y-105913076D01*
X181438524Y-106323110D01*
X181559845Y-106553000D01*
X182753000Y-106553000D01*
X182753000Y-106533000D01*
X183007000Y-106533000D01*
X183007000Y-106553000D01*
X183027000Y-106553000D01*
X183027000Y-106807000D01*
X183007000Y-106807000D01*
X183007000Y-108000819D01*
X183197267Y-108100688D01*
X183130545Y-108200545D01*
X182848130Y-108389248D01*
X182502491Y-108458000D01*
X180108018Y-108458000D01*
X180215301Y-108297440D01*
X180215904Y-108296538D01*
X180225527Y-108248157D01*
X180260000Y-108074852D01*
X180260000Y-108074848D01*
X180274888Y-108000000D01*
X180260000Y-107925152D01*
X180260000Y-107036890D01*
X181438524Y-107036890D01*
X181608355Y-107446924D01*
X181998642Y-107875183D01*
X182523108Y-108121486D01*
X182753000Y-108000819D01*
X182753000Y-106807000D01*
X181559845Y-106807000D01*
X181438524Y-107036890D01*
X180260000Y-107036890D01*
X180260000Y-105624846D01*
X180274888Y-105549999D01*
X180260000Y-105475152D01*
X180260000Y-105475148D01*
X180215904Y-105253463D01*
X180047929Y-105002071D01*
X179984473Y-104959671D01*
X178540331Y-103515530D01*
X178497929Y-103452071D01*
X178336318Y-103344086D01*
X178298157Y-103152235D01*
X178157809Y-102942191D01*
X178010000Y-102843427D01*
X178010000Y-102824846D01*
X178024888Y-102749999D01*
X178010000Y-102675152D01*
X178010000Y-102675148D01*
X177965904Y-102453463D01*
X177903454Y-102360000D01*
X181601822Y-102360000D01*
X181809375Y-102670625D01*
G36*
X176201843Y-104847765D02*
X176342191Y-105057809D01*
X176403320Y-105098654D01*
X176261673Y-105240302D01*
X176165000Y-105473691D01*
X176165000Y-105914250D01*
X176323750Y-106073000D01*
X177123000Y-106073000D01*
X177123000Y-106053000D01*
X177377000Y-106053000D01*
X177377000Y-106073000D01*
X178176250Y-106073000D01*
X178335000Y-105914250D01*
X178335000Y-105473691D01*
X178325179Y-105449980D01*
X178740000Y-105864802D01*
X178740001Y-107685198D01*
X178685199Y-107740000D01*
X175214754Y-107740000D01*
X175323157Y-107577765D01*
X175372440Y-107330000D01*
X175372440Y-106485750D01*
X176165000Y-106485750D01*
X176165000Y-106926309D01*
X176261673Y-107159698D01*
X176440301Y-107338327D01*
X176673690Y-107435000D01*
X176964250Y-107435000D01*
X177123000Y-107276250D01*
X177123000Y-106327000D01*
X177377000Y-106327000D01*
X177377000Y-107276250D01*
X177535750Y-107435000D01*
X177826310Y-107435000D01*
X178059699Y-107338327D01*
X178238327Y-107159698D01*
X178335000Y-106926309D01*
X178335000Y-106485750D01*
X178176250Y-106327000D01*
X177377000Y-106327000D01*
X177123000Y-106327000D01*
X176323750Y-106327000D01*
X176165000Y-106485750D01*
X175372440Y-106485750D01*
X175372440Y-105830000D01*
X175323157Y-105582235D01*
X175182809Y-105372191D01*
X175100869Y-105317440D01*
X175375000Y-105317440D01*
X175622765Y-105268157D01*
X175832809Y-105127809D01*
X175973157Y-104917765D01*
X176004538Y-104760000D01*
X176184386Y-104760000D01*
X176201843Y-104847765D01*
X176201843Y-104847765D01*
G37*
X176201843Y-104847765D02*
X176342191Y-105057809D01*
X176403320Y-105098654D01*
X176261673Y-105240302D01*
X176165000Y-105473691D01*
X176165000Y-105914250D01*
X176323750Y-106073000D01*
X177123000Y-106073000D01*
X177123000Y-106053000D01*
X177377000Y-106053000D01*
X177377000Y-106073000D01*
X178176250Y-106073000D01*
X178335000Y-105914250D01*
X178335000Y-105473691D01*
X178325179Y-105449980D01*
X178740000Y-105864802D01*
X178740001Y-107685198D01*
X178685199Y-107740000D01*
X175214754Y-107740000D01*
X175323157Y-107577765D01*
X175372440Y-107330000D01*
X175372440Y-106485750D01*
X176165000Y-106485750D01*
X176165000Y-106926309D01*
X176261673Y-107159698D01*
X176440301Y-107338327D01*
X176673690Y-107435000D01*
X176964250Y-107435000D01*
X177123000Y-107276250D01*
X177123000Y-106327000D01*
X177377000Y-106327000D01*
X177377000Y-107276250D01*
X177535750Y-107435000D01*
X177826310Y-107435000D01*
X178059699Y-107338327D01*
X178238327Y-107159698D01*
X178335000Y-106926309D01*
X178335000Y-106485750D01*
X178176250Y-106327000D01*
X177377000Y-106327000D01*
X177123000Y-106327000D01*
X176323750Y-106327000D01*
X176165000Y-106485750D01*
X175372440Y-106485750D01*
X175372440Y-105830000D01*
X175323157Y-105582235D01*
X175182809Y-105372191D01*
X175100869Y-105317440D01*
X175375000Y-105317440D01*
X175622765Y-105268157D01*
X175832809Y-105127809D01*
X175973157Y-104917765D01*
X176004538Y-104760000D01*
X176184386Y-104760000D01*
X176201843Y-104847765D01*
G36*
X172952071Y-102297929D02*
X173015530Y-102340331D01*
X173294696Y-102619498D01*
X173265302Y-102631673D01*
X173086673Y-102810301D01*
X172990000Y-103043690D01*
X172990000Y-103634250D01*
X173148750Y-103793000D01*
X173737500Y-103793000D01*
X173737500Y-103773000D01*
X173962500Y-103773000D01*
X173962500Y-103793000D01*
X173997000Y-103793000D01*
X173997000Y-104047000D01*
X173962500Y-104047000D01*
X173962500Y-105146250D01*
X174044632Y-105228382D01*
X174027235Y-105231843D01*
X173817191Y-105372191D01*
X173676843Y-105582235D01*
X173629549Y-105820000D01*
X172597440Y-105820000D01*
X172597440Y-105750000D01*
X172548157Y-105502235D01*
X172407809Y-105292191D01*
X172344666Y-105250000D01*
X172407809Y-105207809D01*
X172548157Y-104997765D01*
X172597440Y-104750000D01*
X172597440Y-104205750D01*
X172990000Y-104205750D01*
X172990000Y-104796310D01*
X173086673Y-105029699D01*
X173265302Y-105208327D01*
X173498691Y-105305000D01*
X173578750Y-105305000D01*
X173737500Y-105146250D01*
X173737500Y-104047000D01*
X173148750Y-104047000D01*
X172990000Y-104205750D01*
X172597440Y-104205750D01*
X172597440Y-103550000D01*
X172548157Y-103302235D01*
X172407809Y-103092191D01*
X172197765Y-102951843D01*
X171950000Y-102902560D01*
X171050000Y-102902560D01*
X170802235Y-102951843D01*
X170592191Y-103092191D01*
X170451843Y-103302235D01*
X170434386Y-103390000D01*
X170397440Y-103390000D01*
X170397440Y-102850000D01*
X170348157Y-102602235D01*
X170207809Y-102392191D01*
X170159632Y-102360000D01*
X172325153Y-102360000D01*
X172400000Y-102374888D01*
X172474847Y-102360000D01*
X172474852Y-102360000D01*
X172696537Y-102315904D01*
X172881502Y-102192314D01*
X172952071Y-102297929D01*
X172952071Y-102297929D01*
G37*
X172952071Y-102297929D02*
X173015530Y-102340331D01*
X173294696Y-102619498D01*
X173265302Y-102631673D01*
X173086673Y-102810301D01*
X172990000Y-103043690D01*
X172990000Y-103634250D01*
X173148750Y-103793000D01*
X173737500Y-103793000D01*
X173737500Y-103773000D01*
X173962500Y-103773000D01*
X173962500Y-103793000D01*
X173997000Y-103793000D01*
X173997000Y-104047000D01*
X173962500Y-104047000D01*
X173962500Y-105146250D01*
X174044632Y-105228382D01*
X174027235Y-105231843D01*
X173817191Y-105372191D01*
X173676843Y-105582235D01*
X173629549Y-105820000D01*
X172597440Y-105820000D01*
X172597440Y-105750000D01*
X172548157Y-105502235D01*
X172407809Y-105292191D01*
X172344666Y-105250000D01*
X172407809Y-105207809D01*
X172548157Y-104997765D01*
X172597440Y-104750000D01*
X172597440Y-104205750D01*
X172990000Y-104205750D01*
X172990000Y-104796310D01*
X173086673Y-105029699D01*
X173265302Y-105208327D01*
X173498691Y-105305000D01*
X173578750Y-105305000D01*
X173737500Y-105146250D01*
X173737500Y-104047000D01*
X173148750Y-104047000D01*
X172990000Y-104205750D01*
X172597440Y-104205750D01*
X172597440Y-103550000D01*
X172548157Y-103302235D01*
X172407809Y-103092191D01*
X172197765Y-102951843D01*
X171950000Y-102902560D01*
X171050000Y-102902560D01*
X170802235Y-102951843D01*
X170592191Y-103092191D01*
X170451843Y-103302235D01*
X170434386Y-103390000D01*
X170397440Y-103390000D01*
X170397440Y-102850000D01*
X170348157Y-102602235D01*
X170207809Y-102392191D01*
X170159632Y-102360000D01*
X172325153Y-102360000D01*
X172400000Y-102374888D01*
X172474847Y-102360000D01*
X172474852Y-102360000D01*
X172696537Y-102315904D01*
X172881502Y-102192314D01*
X172952071Y-102297929D01*
G36*
X169725112Y-90175000D02*
X169740000Y-90249847D01*
X169740000Y-90249851D01*
X169784096Y-90471536D01*
X169952071Y-90722929D01*
X169977620Y-90740000D01*
X169835750Y-90740000D01*
X169677000Y-90898750D01*
X169677000Y-91623000D01*
X169697000Y-91623000D01*
X169697000Y-91877000D01*
X169677000Y-91877000D01*
X169677000Y-92601250D01*
X169835750Y-92760000D01*
X170276309Y-92760000D01*
X170509698Y-92663327D01*
X170510898Y-92662127D01*
X170517773Y-92666721D01*
X170465000Y-92794126D01*
X170465000Y-93052560D01*
X169800000Y-93052560D01*
X169552235Y-93101843D01*
X169342191Y-93242191D01*
X169201843Y-93452235D01*
X169152560Y-93700000D01*
X169152560Y-94900000D01*
X169201843Y-95147765D01*
X169342191Y-95357809D01*
X169405334Y-95400000D01*
X169342191Y-95442191D01*
X169201843Y-95652235D01*
X169152560Y-95900000D01*
X169152560Y-96672638D01*
X168795199Y-97030000D01*
X168528178Y-97030000D01*
X168320625Y-96719375D01*
X168298967Y-96704904D01*
X168459698Y-96638327D01*
X168638327Y-96459699D01*
X168735000Y-96226310D01*
X168735000Y-95535750D01*
X168576250Y-95377000D01*
X167377000Y-95377000D01*
X167377000Y-95397000D01*
X167123000Y-95397000D01*
X167123000Y-95377000D01*
X165923750Y-95377000D01*
X165765000Y-95535750D01*
X165765000Y-96226310D01*
X165861673Y-96459699D01*
X166040302Y-96638327D01*
X166201033Y-96704904D01*
X166179375Y-96719375D01*
X165851161Y-97210582D01*
X165735908Y-97790000D01*
X165851161Y-98369418D01*
X166179375Y-98860625D01*
X166477761Y-99060000D01*
X166179375Y-99259375D01*
X165851161Y-99750582D01*
X165735908Y-100330000D01*
X165837353Y-100840000D01*
X163838178Y-100840000D01*
X163630625Y-100529375D01*
X163332239Y-100330000D01*
X163630625Y-100130625D01*
X163958839Y-99639418D01*
X164074092Y-99060000D01*
X163958839Y-98480582D01*
X163630625Y-97989375D01*
X163332239Y-97790000D01*
X163630625Y-97590625D01*
X163958839Y-97099418D01*
X164074092Y-96520000D01*
X163958839Y-95940582D01*
X163630625Y-95449375D01*
X163332239Y-95250000D01*
X163630625Y-95050625D01*
X163958839Y-94559418D01*
X164015673Y-94273690D01*
X165765000Y-94273690D01*
X165765000Y-94964250D01*
X165923750Y-95123000D01*
X167123000Y-95123000D01*
X167123000Y-93923750D01*
X167377000Y-93923750D01*
X167377000Y-95123000D01*
X168576250Y-95123000D01*
X168735000Y-94964250D01*
X168735000Y-94273690D01*
X168638327Y-94040301D01*
X168459698Y-93861673D01*
X168226309Y-93765000D01*
X167535750Y-93765000D01*
X167377000Y-93923750D01*
X167123000Y-93923750D01*
X166964250Y-93765000D01*
X166273691Y-93765000D01*
X166040302Y-93861673D01*
X165861673Y-94040301D01*
X165765000Y-94273690D01*
X164015673Y-94273690D01*
X164074092Y-93980000D01*
X164001209Y-93613592D01*
X164484473Y-93130329D01*
X164547929Y-93087929D01*
X164715904Y-92836537D01*
X164741980Y-92705444D01*
X164873691Y-92760000D01*
X165314250Y-92760000D01*
X165473000Y-92601250D01*
X165473000Y-91877000D01*
X165453000Y-91877000D01*
X165453000Y-91623000D01*
X165473000Y-91623000D01*
X165473000Y-91603000D01*
X165727000Y-91603000D01*
X165727000Y-91623000D01*
X165747000Y-91623000D01*
X165747000Y-91877000D01*
X165727000Y-91877000D01*
X165727000Y-92601250D01*
X165885750Y-92760000D01*
X166326309Y-92760000D01*
X166559698Y-92663327D01*
X166560898Y-92662127D01*
X166652235Y-92723157D01*
X166900000Y-92772440D01*
X168100000Y-92772440D01*
X168347765Y-92723157D01*
X168529020Y-92602045D01*
X168590302Y-92663327D01*
X168823691Y-92760000D01*
X169264250Y-92760000D01*
X169423000Y-92601250D01*
X169423000Y-91877000D01*
X169403000Y-91877000D01*
X169403000Y-91623000D01*
X169423000Y-91623000D01*
X169423000Y-90898750D01*
X169264250Y-90740000D01*
X169100995Y-90740000D01*
X169739791Y-90101205D01*
X169725112Y-90175000D01*
X169725112Y-90175000D01*
G37*
X169725112Y-90175000D02*
X169740000Y-90249847D01*
X169740000Y-90249851D01*
X169784096Y-90471536D01*
X169952071Y-90722929D01*
X169977620Y-90740000D01*
X169835750Y-90740000D01*
X169677000Y-90898750D01*
X169677000Y-91623000D01*
X169697000Y-91623000D01*
X169697000Y-91877000D01*
X169677000Y-91877000D01*
X169677000Y-92601250D01*
X169835750Y-92760000D01*
X170276309Y-92760000D01*
X170509698Y-92663327D01*
X170510898Y-92662127D01*
X170517773Y-92666721D01*
X170465000Y-92794126D01*
X170465000Y-93052560D01*
X169800000Y-93052560D01*
X169552235Y-93101843D01*
X169342191Y-93242191D01*
X169201843Y-93452235D01*
X169152560Y-93700000D01*
X169152560Y-94900000D01*
X169201843Y-95147765D01*
X169342191Y-95357809D01*
X169405334Y-95400000D01*
X169342191Y-95442191D01*
X169201843Y-95652235D01*
X169152560Y-95900000D01*
X169152560Y-96672638D01*
X168795199Y-97030000D01*
X168528178Y-97030000D01*
X168320625Y-96719375D01*
X168298967Y-96704904D01*
X168459698Y-96638327D01*
X168638327Y-96459699D01*
X168735000Y-96226310D01*
X168735000Y-95535750D01*
X168576250Y-95377000D01*
X167377000Y-95377000D01*
X167377000Y-95397000D01*
X167123000Y-95397000D01*
X167123000Y-95377000D01*
X165923750Y-95377000D01*
X165765000Y-95535750D01*
X165765000Y-96226310D01*
X165861673Y-96459699D01*
X166040302Y-96638327D01*
X166201033Y-96704904D01*
X166179375Y-96719375D01*
X165851161Y-97210582D01*
X165735908Y-97790000D01*
X165851161Y-98369418D01*
X166179375Y-98860625D01*
X166477761Y-99060000D01*
X166179375Y-99259375D01*
X165851161Y-99750582D01*
X165735908Y-100330000D01*
X165837353Y-100840000D01*
X163838178Y-100840000D01*
X163630625Y-100529375D01*
X163332239Y-100330000D01*
X163630625Y-100130625D01*
X163958839Y-99639418D01*
X164074092Y-99060000D01*
X163958839Y-98480582D01*
X163630625Y-97989375D01*
X163332239Y-97790000D01*
X163630625Y-97590625D01*
X163958839Y-97099418D01*
X164074092Y-96520000D01*
X163958839Y-95940582D01*
X163630625Y-95449375D01*
X163332239Y-95250000D01*
X163630625Y-95050625D01*
X163958839Y-94559418D01*
X164015673Y-94273690D01*
X165765000Y-94273690D01*
X165765000Y-94964250D01*
X165923750Y-95123000D01*
X167123000Y-95123000D01*
X167123000Y-93923750D01*
X167377000Y-93923750D01*
X167377000Y-95123000D01*
X168576250Y-95123000D01*
X168735000Y-94964250D01*
X168735000Y-94273690D01*
X168638327Y-94040301D01*
X168459698Y-93861673D01*
X168226309Y-93765000D01*
X167535750Y-93765000D01*
X167377000Y-93923750D01*
X167123000Y-93923750D01*
X166964250Y-93765000D01*
X166273691Y-93765000D01*
X166040302Y-93861673D01*
X165861673Y-94040301D01*
X165765000Y-94273690D01*
X164015673Y-94273690D01*
X164074092Y-93980000D01*
X164001209Y-93613592D01*
X164484473Y-93130329D01*
X164547929Y-93087929D01*
X164715904Y-92836537D01*
X164741980Y-92705444D01*
X164873691Y-92760000D01*
X165314250Y-92760000D01*
X165473000Y-92601250D01*
X165473000Y-91877000D01*
X165453000Y-91877000D01*
X165453000Y-91623000D01*
X165473000Y-91623000D01*
X165473000Y-91603000D01*
X165727000Y-91603000D01*
X165727000Y-91623000D01*
X165747000Y-91623000D01*
X165747000Y-91877000D01*
X165727000Y-91877000D01*
X165727000Y-92601250D01*
X165885750Y-92760000D01*
X166326309Y-92760000D01*
X166559698Y-92663327D01*
X166560898Y-92662127D01*
X166652235Y-92723157D01*
X166900000Y-92772440D01*
X168100000Y-92772440D01*
X168347765Y-92723157D01*
X168529020Y-92602045D01*
X168590302Y-92663327D01*
X168823691Y-92760000D01*
X169264250Y-92760000D01*
X169423000Y-92601250D01*
X169423000Y-91877000D01*
X169403000Y-91877000D01*
X169403000Y-91623000D01*
X169423000Y-91623000D01*
X169423000Y-90898750D01*
X169264250Y-90740000D01*
X169100995Y-90740000D01*
X169739791Y-90101205D01*
X169725112Y-90175000D01*
G36*
X181809375Y-95050625D02*
X182107761Y-95250000D01*
X181809375Y-95449375D01*
X181601822Y-95760000D01*
X179735000Y-95760000D01*
X179735000Y-95535750D01*
X179576250Y-95377000D01*
X178377000Y-95377000D01*
X178377000Y-95397000D01*
X178123000Y-95397000D01*
X178123000Y-95377000D01*
X178103000Y-95377000D01*
X178103000Y-95123000D01*
X178123000Y-95123000D01*
X178123000Y-95103000D01*
X178377000Y-95103000D01*
X178377000Y-95123000D01*
X179576250Y-95123000D01*
X179735000Y-94964250D01*
X179735000Y-94740000D01*
X181601822Y-94740000D01*
X181809375Y-95050625D01*
X181809375Y-95050625D01*
G37*
X181809375Y-95050625D02*
X182107761Y-95250000D01*
X181809375Y-95449375D01*
X181601822Y-95760000D01*
X179735000Y-95760000D01*
X179735000Y-95535750D01*
X179576250Y-95377000D01*
X178377000Y-95377000D01*
X178377000Y-95397000D01*
X178123000Y-95397000D01*
X178123000Y-95377000D01*
X178103000Y-95377000D01*
X178103000Y-95123000D01*
X178123000Y-95123000D01*
X178123000Y-95103000D01*
X178377000Y-95103000D01*
X178377000Y-95123000D01*
X179576250Y-95123000D01*
X179735000Y-94964250D01*
X179735000Y-94740000D01*
X181601822Y-94740000D01*
X181809375Y-95050625D01*
G36*
X177627000Y-91573000D02*
X178873000Y-91573000D01*
X178873000Y-91553000D01*
X179127000Y-91553000D01*
X179127000Y-91573000D01*
X180373000Y-91573000D01*
X180373000Y-91553000D01*
X180627000Y-91553000D01*
X180627000Y-91573000D01*
X180647000Y-91573000D01*
X180647000Y-91827000D01*
X180627000Y-91827000D01*
X180627000Y-92776250D01*
X180785750Y-92935000D01*
X181001310Y-92935000D01*
X181234699Y-92838327D01*
X181413327Y-92659698D01*
X181510000Y-92426309D01*
X181510000Y-92062579D01*
X181809375Y-92510625D01*
X182107761Y-92710000D01*
X181809375Y-92909375D01*
X181601822Y-93220000D01*
X177566214Y-93220000D01*
X177360044Y-93013830D01*
X177360044Y-92789206D01*
X177373000Y-92776250D01*
X177373000Y-91827000D01*
X177627000Y-91827000D01*
X177627000Y-92776250D01*
X177785750Y-92935000D01*
X178001310Y-92935000D01*
X178234699Y-92838327D01*
X178250000Y-92823026D01*
X178265301Y-92838327D01*
X178498690Y-92935000D01*
X178714250Y-92935000D01*
X178873000Y-92776250D01*
X178873000Y-91827000D01*
X179127000Y-91827000D01*
X179127000Y-92776250D01*
X179285750Y-92935000D01*
X179501310Y-92935000D01*
X179734699Y-92838327D01*
X179750000Y-92823026D01*
X179765301Y-92838327D01*
X179998690Y-92935000D01*
X180214250Y-92935000D01*
X180373000Y-92776250D01*
X180373000Y-91827000D01*
X179127000Y-91827000D01*
X178873000Y-91827000D01*
X177627000Y-91827000D01*
X177373000Y-91827000D01*
X177360044Y-91827000D01*
X177360044Y-91573000D01*
X177373000Y-91573000D01*
X177373000Y-91553000D01*
X177627000Y-91553000D01*
X177627000Y-91573000D01*
X177627000Y-91573000D01*
G37*
X177627000Y-91573000D02*
X178873000Y-91573000D01*
X178873000Y-91553000D01*
X179127000Y-91553000D01*
X179127000Y-91573000D01*
X180373000Y-91573000D01*
X180373000Y-91553000D01*
X180627000Y-91553000D01*
X180627000Y-91573000D01*
X180647000Y-91573000D01*
X180647000Y-91827000D01*
X180627000Y-91827000D01*
X180627000Y-92776250D01*
X180785750Y-92935000D01*
X181001310Y-92935000D01*
X181234699Y-92838327D01*
X181413327Y-92659698D01*
X181510000Y-92426309D01*
X181510000Y-92062579D01*
X181809375Y-92510625D01*
X182107761Y-92710000D01*
X181809375Y-92909375D01*
X181601822Y-93220000D01*
X177566214Y-93220000D01*
X177360044Y-93013830D01*
X177360044Y-92789206D01*
X177373000Y-92776250D01*
X177373000Y-91827000D01*
X177627000Y-91827000D01*
X177627000Y-92776250D01*
X177785750Y-92935000D01*
X178001310Y-92935000D01*
X178234699Y-92838327D01*
X178250000Y-92823026D01*
X178265301Y-92838327D01*
X178498690Y-92935000D01*
X178714250Y-92935000D01*
X178873000Y-92776250D01*
X178873000Y-91827000D01*
X179127000Y-91827000D01*
X179127000Y-92776250D01*
X179285750Y-92935000D01*
X179501310Y-92935000D01*
X179734699Y-92838327D01*
X179750000Y-92823026D01*
X179765301Y-92838327D01*
X179998690Y-92935000D01*
X180214250Y-92935000D01*
X180373000Y-92776250D01*
X180373000Y-91827000D01*
X179127000Y-91827000D01*
X178873000Y-91827000D01*
X177627000Y-91827000D01*
X177373000Y-91827000D01*
X177360044Y-91827000D01*
X177360044Y-91573000D01*
X177373000Y-91573000D01*
X177373000Y-91553000D01*
X177627000Y-91553000D01*
X177627000Y-91573000D01*
G36*
X175850758Y-78142466D02*
X175956727Y-78213273D01*
X176027534Y-78319242D01*
X176204311Y-78496019D01*
X176310282Y-78566827D01*
X176381088Y-78672795D01*
X176557865Y-78849572D01*
X176663833Y-78920378D01*
X176734641Y-79026349D01*
X176781907Y-79073615D01*
X176663720Y-79122569D01*
X176372569Y-79413720D01*
X176215000Y-79794126D01*
X176215000Y-80205874D01*
X176372569Y-80586280D01*
X176663720Y-80877431D01*
X176988175Y-81011825D01*
X177122569Y-81336280D01*
X177413720Y-81627431D01*
X177554292Y-81685658D01*
X177495901Y-81979211D01*
X177510790Y-82054062D01*
X177510789Y-83036855D01*
X177495901Y-83111702D01*
X177496015Y-83112277D01*
X177441748Y-83166544D01*
X177370940Y-83272515D01*
X177264972Y-83343321D01*
X177088195Y-83520098D01*
X177017389Y-83626066D01*
X176911418Y-83696874D01*
X176734641Y-83873651D01*
X176663833Y-83979622D01*
X176557865Y-84050428D01*
X176511741Y-84096552D01*
X176477431Y-84013720D01*
X176186280Y-83722569D01*
X175805874Y-83565000D01*
X175394126Y-83565000D01*
X175013720Y-83722569D01*
X174722569Y-84013720D01*
X174565000Y-84394126D01*
X174565000Y-84805874D01*
X174722569Y-85186280D01*
X175013720Y-85477431D01*
X175096551Y-85511741D01*
X174966874Y-85641418D01*
X174896066Y-85747389D01*
X174790098Y-85818195D01*
X174711741Y-85896552D01*
X174677431Y-85813720D01*
X174386280Y-85522569D01*
X174005874Y-85365000D01*
X173594126Y-85365000D01*
X173213720Y-85522569D01*
X172922569Y-85813720D01*
X172765000Y-86194126D01*
X172765000Y-86430069D01*
X172734473Y-86409671D01*
X171840331Y-85515530D01*
X171797929Y-85452071D01*
X171546537Y-85284096D01*
X171324852Y-85240000D01*
X171324847Y-85240000D01*
X171250000Y-85225112D01*
X171175153Y-85240000D01*
X171073713Y-85240000D01*
X171215904Y-85027197D01*
X171260000Y-84805512D01*
X171260000Y-84805507D01*
X171274888Y-84730660D01*
X171260000Y-84655813D01*
X171260000Y-83074846D01*
X171274888Y-82999999D01*
X171260000Y-82925152D01*
X171260000Y-82925148D01*
X171215904Y-82703463D01*
X171129825Y-82574637D01*
X171090329Y-82515526D01*
X171090327Y-82515524D01*
X171047929Y-82452071D01*
X170984476Y-82409673D01*
X169609802Y-81035000D01*
X169705874Y-81035000D01*
X169741687Y-81020166D01*
X169923963Y-81202442D01*
X170304369Y-81360011D01*
X170716117Y-81360011D01*
X171096523Y-81202442D01*
X171387674Y-80911291D01*
X171545243Y-80530885D01*
X171545243Y-80119137D01*
X171387674Y-79738731D01*
X171236202Y-79587259D01*
X171226147Y-79536710D01*
X171058172Y-79285318D01*
X170994716Y-79242918D01*
X170970094Y-79218297D01*
X171114448Y-79073943D01*
X171272017Y-78693537D01*
X171272017Y-78522662D01*
X172509056Y-78522662D01*
X172534822Y-78561223D01*
X172786214Y-78729198D01*
X172929039Y-78757608D01*
X173062156Y-78890725D01*
X173442562Y-79048294D01*
X173854310Y-79048294D01*
X174234716Y-78890725D01*
X174400099Y-78725342D01*
X174544126Y-78785000D01*
X174955874Y-78785000D01*
X175336280Y-78627431D01*
X175627431Y-78336280D01*
X175749609Y-78041317D01*
X175850758Y-78142466D01*
X175850758Y-78142466D01*
G37*
X175850758Y-78142466D02*
X175956727Y-78213273D01*
X176027534Y-78319242D01*
X176204311Y-78496019D01*
X176310282Y-78566827D01*
X176381088Y-78672795D01*
X176557865Y-78849572D01*
X176663833Y-78920378D01*
X176734641Y-79026349D01*
X176781907Y-79073615D01*
X176663720Y-79122569D01*
X176372569Y-79413720D01*
X176215000Y-79794126D01*
X176215000Y-80205874D01*
X176372569Y-80586280D01*
X176663720Y-80877431D01*
X176988175Y-81011825D01*
X177122569Y-81336280D01*
X177413720Y-81627431D01*
X177554292Y-81685658D01*
X177495901Y-81979211D01*
X177510790Y-82054062D01*
X177510789Y-83036855D01*
X177495901Y-83111702D01*
X177496015Y-83112277D01*
X177441748Y-83166544D01*
X177370940Y-83272515D01*
X177264972Y-83343321D01*
X177088195Y-83520098D01*
X177017389Y-83626066D01*
X176911418Y-83696874D01*
X176734641Y-83873651D01*
X176663833Y-83979622D01*
X176557865Y-84050428D01*
X176511741Y-84096552D01*
X176477431Y-84013720D01*
X176186280Y-83722569D01*
X175805874Y-83565000D01*
X175394126Y-83565000D01*
X175013720Y-83722569D01*
X174722569Y-84013720D01*
X174565000Y-84394126D01*
X174565000Y-84805874D01*
X174722569Y-85186280D01*
X175013720Y-85477431D01*
X175096551Y-85511741D01*
X174966874Y-85641418D01*
X174896066Y-85747389D01*
X174790098Y-85818195D01*
X174711741Y-85896552D01*
X174677431Y-85813720D01*
X174386280Y-85522569D01*
X174005874Y-85365000D01*
X173594126Y-85365000D01*
X173213720Y-85522569D01*
X172922569Y-85813720D01*
X172765000Y-86194126D01*
X172765000Y-86430069D01*
X172734473Y-86409671D01*
X171840331Y-85515530D01*
X171797929Y-85452071D01*
X171546537Y-85284096D01*
X171324852Y-85240000D01*
X171324847Y-85240000D01*
X171250000Y-85225112D01*
X171175153Y-85240000D01*
X171073713Y-85240000D01*
X171215904Y-85027197D01*
X171260000Y-84805512D01*
X171260000Y-84805507D01*
X171274888Y-84730660D01*
X171260000Y-84655813D01*
X171260000Y-83074846D01*
X171274888Y-82999999D01*
X171260000Y-82925152D01*
X171260000Y-82925148D01*
X171215904Y-82703463D01*
X171129825Y-82574637D01*
X171090329Y-82515526D01*
X171090327Y-82515524D01*
X171047929Y-82452071D01*
X170984476Y-82409673D01*
X169609802Y-81035000D01*
X169705874Y-81035000D01*
X169741687Y-81020166D01*
X169923963Y-81202442D01*
X170304369Y-81360011D01*
X170716117Y-81360011D01*
X171096523Y-81202442D01*
X171387674Y-80911291D01*
X171545243Y-80530885D01*
X171545243Y-80119137D01*
X171387674Y-79738731D01*
X171236202Y-79587259D01*
X171226147Y-79536710D01*
X171058172Y-79285318D01*
X170994716Y-79242918D01*
X170970094Y-79218297D01*
X171114448Y-79073943D01*
X171272017Y-78693537D01*
X171272017Y-78522662D01*
X172509056Y-78522662D01*
X172534822Y-78561223D01*
X172786214Y-78729198D01*
X172929039Y-78757608D01*
X173062156Y-78890725D01*
X173442562Y-79048294D01*
X173854310Y-79048294D01*
X174234716Y-78890725D01*
X174400099Y-78725342D01*
X174544126Y-78785000D01*
X174955874Y-78785000D01*
X175336280Y-78627431D01*
X175627431Y-78336280D01*
X175749609Y-78041317D01*
X175850758Y-78142466D01*
G36*
X165990001Y-76564802D02*
X165990000Y-77070839D01*
X165910644Y-77070839D01*
X165910644Y-76798495D01*
X165925532Y-76723648D01*
X165910644Y-76648801D01*
X165910644Y-76648796D01*
X165894762Y-76568949D01*
X165944455Y-76519256D01*
X165990001Y-76564802D01*
X165990001Y-76564802D01*
G37*
X165990001Y-76564802D02*
X165990000Y-77070839D01*
X165910644Y-77070839D01*
X165910644Y-76798495D01*
X165925532Y-76723648D01*
X165910644Y-76648801D01*
X165910644Y-76648796D01*
X165894762Y-76568949D01*
X165944455Y-76519256D01*
X165990001Y-76564802D01*
G36*
X168240528Y-76277563D02*
X168240531Y-76277565D01*
X168240787Y-76277821D01*
X168143294Y-76342964D01*
X167966517Y-76519741D01*
X167895710Y-76625710D01*
X167789741Y-76696517D01*
X167612964Y-76873294D01*
X167547821Y-76970787D01*
X167510000Y-76932966D01*
X167510000Y-76324848D01*
X167524888Y-76250000D01*
X167510000Y-76175152D01*
X167510000Y-76175148D01*
X167467089Y-75959420D01*
X167465904Y-75953462D01*
X167340329Y-75765527D01*
X167297929Y-75702071D01*
X167234472Y-75659671D01*
X166840331Y-75265529D01*
X166797929Y-75202071D01*
X166546537Y-75034096D01*
X166425399Y-75010000D01*
X166972966Y-75010000D01*
X168240528Y-76277563D01*
X168240528Y-76277563D01*
G37*
X168240528Y-76277563D02*
X168240531Y-76277565D01*
X168240787Y-76277821D01*
X168143294Y-76342964D01*
X167966517Y-76519741D01*
X167895710Y-76625710D01*
X167789741Y-76696517D01*
X167612964Y-76873294D01*
X167547821Y-76970787D01*
X167510000Y-76932966D01*
X167510000Y-76324848D01*
X167524888Y-76250000D01*
X167510000Y-76175152D01*
X167510000Y-76175148D01*
X167467089Y-75959420D01*
X167465904Y-75953462D01*
X167340329Y-75765527D01*
X167297929Y-75702071D01*
X167234472Y-75659671D01*
X166840331Y-75265529D01*
X166797929Y-75202071D01*
X166546537Y-75034096D01*
X166425399Y-75010000D01*
X166972966Y-75010000D01*
X168240528Y-76277563D01*
G36*
X169715000Y-73455874D02*
X169791208Y-73639857D01*
X169532091Y-73639857D01*
X169234919Y-73762950D01*
X169247440Y-73700000D01*
X169247440Y-73677361D01*
X169715000Y-73209801D01*
X169715000Y-73455874D01*
X169715000Y-73455874D01*
G37*
X169715000Y-73455874D02*
X169791208Y-73639857D01*
X169532091Y-73639857D01*
X169234919Y-73762950D01*
X169247440Y-73700000D01*
X169247440Y-73677361D01*
X169715000Y-73209801D01*
X169715000Y-73455874D01*
G36*
X175990000Y-73074603D02*
X175965904Y-72953463D01*
X175913685Y-72875312D01*
X175913685Y-72814801D01*
X175990001Y-72738486D01*
X175990000Y-73074603D01*
X175990000Y-73074603D01*
G37*
X175990000Y-73074603D02*
X175965904Y-72953463D01*
X175913685Y-72875312D01*
X175913685Y-72814801D01*
X175990001Y-72738486D01*
X175990000Y-73074603D01*
G36*
X173927000Y-70623000D02*
X173947000Y-70623000D01*
X173947000Y-70877000D01*
X173927000Y-70877000D01*
X173927000Y-71601250D01*
X174000474Y-71674724D01*
X173387726Y-72287473D01*
X173336466Y-72163720D01*
X173219035Y-72046289D01*
X173219035Y-71760000D01*
X173514250Y-71760000D01*
X173673000Y-71601250D01*
X173673000Y-70877000D01*
X173653000Y-70877000D01*
X173653000Y-70623000D01*
X173673000Y-70623000D01*
X173673000Y-70603000D01*
X173927000Y-70603000D01*
X173927000Y-70623000D01*
X173927000Y-70623000D01*
G37*
X173927000Y-70623000D02*
X173947000Y-70623000D01*
X173947000Y-70877000D01*
X173927000Y-70877000D01*
X173927000Y-71601250D01*
X174000474Y-71674724D01*
X173387726Y-72287473D01*
X173336466Y-72163720D01*
X173219035Y-72046289D01*
X173219035Y-71760000D01*
X173514250Y-71760000D01*
X173673000Y-71601250D01*
X173673000Y-70877000D01*
X173653000Y-70877000D01*
X173653000Y-70623000D01*
X173673000Y-70623000D01*
X173673000Y-70603000D01*
X173927000Y-70603000D01*
X173927000Y-70623000D01*
G36*
X168805000Y-71970199D02*
X168805000Y-71960750D01*
X168646250Y-71802000D01*
X167697000Y-71802000D01*
X167697000Y-71822000D01*
X167443000Y-71822000D01*
X167443000Y-71802000D01*
X167423000Y-71802000D01*
X167423000Y-71548000D01*
X167443000Y-71548000D01*
X167443000Y-71528000D01*
X167697000Y-71528000D01*
X167697000Y-71548000D01*
X168646250Y-71548000D01*
X168805000Y-71389250D01*
X168805000Y-71222440D01*
X169552758Y-71222440D01*
X168805000Y-71970199D01*
X168805000Y-71970199D01*
G37*
X168805000Y-71970199D02*
X168805000Y-71960750D01*
X168646250Y-71802000D01*
X167697000Y-71802000D01*
X167697000Y-71822000D01*
X167443000Y-71822000D01*
X167443000Y-71802000D01*
X167423000Y-71802000D01*
X167423000Y-71548000D01*
X167443000Y-71548000D01*
X167443000Y-71528000D01*
X167697000Y-71528000D01*
X167697000Y-71548000D01*
X168646250Y-71548000D01*
X168805000Y-71389250D01*
X168805000Y-71222440D01*
X169552758Y-71222440D01*
X168805000Y-71970199D01*
G36*
X178269116Y-68771500D02*
X178440001Y-68771500D01*
X178440000Y-70819394D01*
X178218534Y-70727660D01*
X177848821Y-70727660D01*
X177848821Y-70560033D01*
X177691252Y-70179627D01*
X177400101Y-69888476D01*
X177019695Y-69730907D01*
X176880157Y-69730907D01*
X176776250Y-69627000D01*
X175827000Y-69627000D01*
X175827000Y-69647000D01*
X175573000Y-69647000D01*
X175573000Y-69627000D01*
X175553000Y-69627000D01*
X175553000Y-69373000D01*
X175573000Y-69373000D01*
X175573000Y-69353000D01*
X175827000Y-69353000D01*
X175827000Y-69373000D01*
X176776250Y-69373000D01*
X176935000Y-69214250D01*
X176935000Y-68998690D01*
X176872350Y-68847440D01*
X177600000Y-68847440D01*
X177847765Y-68798157D01*
X178033636Y-68673961D01*
X178269116Y-68771500D01*
X178269116Y-68771500D01*
G37*
X178269116Y-68771500D02*
X178440001Y-68771500D01*
X178440000Y-70819394D01*
X178218534Y-70727660D01*
X177848821Y-70727660D01*
X177848821Y-70560033D01*
X177691252Y-70179627D01*
X177400101Y-69888476D01*
X177019695Y-69730907D01*
X176880157Y-69730907D01*
X176776250Y-69627000D01*
X175827000Y-69627000D01*
X175827000Y-69647000D01*
X175573000Y-69647000D01*
X175573000Y-69627000D01*
X175553000Y-69627000D01*
X175553000Y-69373000D01*
X175573000Y-69373000D01*
X175573000Y-69353000D01*
X175827000Y-69353000D01*
X175827000Y-69373000D01*
X176776250Y-69373000D01*
X176935000Y-69214250D01*
X176935000Y-68998690D01*
X176872350Y-68847440D01*
X177600000Y-68847440D01*
X177847765Y-68798157D01*
X178033636Y-68673961D01*
X178269116Y-68771500D01*
G36*
X173392919Y-44034326D02*
X173217723Y-44209522D01*
X173000950Y-44533946D01*
X172906134Y-44762851D01*
X172830014Y-45145534D01*
X172817813Y-45269416D01*
X172817813Y-45909416D01*
X172742000Y-45909416D01*
X172742000Y-45265441D01*
X172739560Y-45240665D01*
X172663440Y-44857982D01*
X172644477Y-44812201D01*
X172427704Y-44487777D01*
X172392664Y-44452737D01*
X172068240Y-44235964D01*
X172022459Y-44217001D01*
X171639776Y-44140881D01*
X171615000Y-44138441D01*
X169215000Y-44138441D01*
X169190224Y-44140881D01*
X168807541Y-44217001D01*
X168761760Y-44235964D01*
X168437336Y-44452737D01*
X168402296Y-44487777D01*
X168185523Y-44812201D01*
X168166560Y-44857982D01*
X168090440Y-45240665D01*
X168088000Y-45265441D01*
X168088000Y-46945560D01*
X167988000Y-46945560D01*
X167740235Y-46994843D01*
X167530191Y-47135191D01*
X167389843Y-47345235D01*
X167373277Y-47428521D01*
X167348157Y-47302235D01*
X167207809Y-47092191D01*
X166997765Y-46951843D01*
X166750000Y-46902560D01*
X165250000Y-46902560D01*
X165002235Y-46951843D01*
X164792191Y-47092191D01*
X164651843Y-47302235D01*
X164602560Y-47550000D01*
X164602560Y-49050000D01*
X164651843Y-49297765D01*
X164792191Y-49507809D01*
X164880334Y-49566705D01*
X164842191Y-49592191D01*
X164701843Y-49802235D01*
X164652560Y-50050000D01*
X164652560Y-51250000D01*
X164701843Y-51497765D01*
X164842191Y-51707809D01*
X164905334Y-51750000D01*
X164842191Y-51792191D01*
X164701843Y-52002235D01*
X164652560Y-52250000D01*
X164652560Y-53450000D01*
X164701843Y-53697765D01*
X164842191Y-53907809D01*
X165052235Y-54048157D01*
X165300000Y-54097440D01*
X166200000Y-54097440D01*
X166447765Y-54048157D01*
X166657809Y-53907809D01*
X166798157Y-53697765D01*
X166815614Y-53610000D01*
X167217813Y-53610000D01*
X167217813Y-55282937D01*
X167127000Y-55373750D01*
X167127000Y-57123000D01*
X167147000Y-57123000D01*
X167147000Y-57377000D01*
X167127000Y-57377000D01*
X167127000Y-57397000D01*
X166873000Y-57397000D01*
X166873000Y-57377000D01*
X165423750Y-57377000D01*
X165265000Y-57535750D01*
X165265000Y-58776309D01*
X165361673Y-59009698D01*
X165540301Y-59188327D01*
X165773690Y-59285000D01*
X166251289Y-59285000D01*
X166122569Y-59413720D01*
X165965000Y-59794126D01*
X165965000Y-60002560D01*
X165900000Y-60002560D01*
X165652235Y-60051843D01*
X165442191Y-60192191D01*
X165301843Y-60402235D01*
X165252560Y-60650000D01*
X165252560Y-63450000D01*
X165301843Y-63697765D01*
X165442191Y-63907809D01*
X165652235Y-64048157D01*
X165900000Y-64097440D01*
X167672638Y-64097440D01*
X167809670Y-64234472D01*
X167852071Y-64297929D01*
X168103463Y-64465904D01*
X168325148Y-64510000D01*
X168325153Y-64510000D01*
X168400000Y-64524888D01*
X168474847Y-64510000D01*
X169435199Y-64510000D01*
X169909671Y-64984473D01*
X169952071Y-65047929D01*
X170203463Y-65215904D01*
X170425148Y-65260000D01*
X170425152Y-65260000D01*
X170499999Y-65274888D01*
X170574846Y-65260000D01*
X171046289Y-65260000D01*
X171163720Y-65377431D01*
X171544126Y-65535000D01*
X171955874Y-65535000D01*
X172336280Y-65377431D01*
X172627431Y-65086280D01*
X172785000Y-64705874D01*
X172785000Y-64294126D01*
X172733918Y-64170802D01*
X172847765Y-64148157D01*
X173057809Y-64007809D01*
X173198157Y-63797765D01*
X173247440Y-63550000D01*
X173247440Y-63499237D01*
X174209670Y-64461468D01*
X174252070Y-64524924D01*
X174490776Y-64684423D01*
X174290529Y-64884670D01*
X174227070Y-64927072D01*
X174059095Y-65178465D01*
X174014999Y-65400150D01*
X174014999Y-65400154D01*
X174000111Y-65475001D01*
X174014999Y-65549848D01*
X174014999Y-66689359D01*
X173952235Y-66701843D01*
X173742191Y-66842191D01*
X173601843Y-67052235D01*
X173552560Y-67300000D01*
X173552560Y-68200000D01*
X173601843Y-68447765D01*
X173621752Y-68477560D01*
X173200000Y-68477560D01*
X172952235Y-68526843D01*
X172742191Y-68667191D01*
X172601843Y-68877235D01*
X172552560Y-69125000D01*
X172552560Y-69447639D01*
X172182298Y-69817901D01*
X172118840Y-69860302D01*
X172022440Y-70004575D01*
X172022440Y-69350000D01*
X171973157Y-69102235D01*
X171912127Y-69010898D01*
X171913327Y-69009698D01*
X172010000Y-68776309D01*
X172010000Y-68335750D01*
X171851250Y-68177000D01*
X171127000Y-68177000D01*
X171127000Y-68197000D01*
X170873000Y-68197000D01*
X170873000Y-68177000D01*
X170853000Y-68177000D01*
X170853000Y-67923000D01*
X170873000Y-67923000D01*
X170873000Y-66973750D01*
X171127000Y-66973750D01*
X171127000Y-67923000D01*
X171851250Y-67923000D01*
X172010000Y-67764250D01*
X172010000Y-67323691D01*
X171913327Y-67090302D01*
X171734699Y-66911673D01*
X171501310Y-66815000D01*
X171285750Y-66815000D01*
X171127000Y-66973750D01*
X170873000Y-66973750D01*
X170714250Y-66815000D01*
X170498690Y-66815000D01*
X170265301Y-66911673D01*
X170086673Y-67090302D01*
X170045377Y-67190000D01*
X169535750Y-67190000D01*
X169377000Y-67348750D01*
X169377000Y-68273000D01*
X169397000Y-68273000D01*
X169397000Y-68527000D01*
X169377000Y-68527000D01*
X169377000Y-68547000D01*
X169123000Y-68547000D01*
X169123000Y-68527000D01*
X169103000Y-68527000D01*
X169103000Y-68273000D01*
X169123000Y-68273000D01*
X169123000Y-67348750D01*
X168964250Y-67190000D01*
X168423691Y-67190000D01*
X168190302Y-67286673D01*
X168149047Y-67327927D01*
X167997765Y-67226843D01*
X167750000Y-67177560D01*
X166350000Y-67177560D01*
X166102235Y-67226843D01*
X165892191Y-67367191D01*
X165751843Y-67577235D01*
X165719417Y-67740254D01*
X165552071Y-67852071D01*
X165509669Y-67915530D01*
X165265528Y-68159671D01*
X165202072Y-68202071D01*
X165159672Y-68265527D01*
X165159671Y-68265528D01*
X165034097Y-68453463D01*
X164975112Y-68750000D01*
X164990001Y-68824852D01*
X164990000Y-70668473D01*
X164822235Y-70701843D01*
X164809991Y-70710024D01*
X164809991Y-70144837D01*
X164824879Y-70069990D01*
X164809991Y-69995143D01*
X164809991Y-69995139D01*
X164765895Y-69773454D01*
X164685720Y-69653464D01*
X164640320Y-69585517D01*
X164640318Y-69585515D01*
X164597920Y-69522062D01*
X164534466Y-69479663D01*
X164001209Y-68946408D01*
X164074092Y-68580000D01*
X163958839Y-68000582D01*
X163630625Y-67509375D01*
X163332239Y-67310000D01*
X163630625Y-67110625D01*
X163958839Y-66619418D01*
X164074092Y-66040000D01*
X163958839Y-65460582D01*
X163630625Y-64969375D01*
X163332239Y-64770000D01*
X163630625Y-64570625D01*
X163958839Y-64079418D01*
X164074092Y-63500000D01*
X163958839Y-62920582D01*
X163630625Y-62429375D01*
X163332239Y-62230000D01*
X163630625Y-62030625D01*
X163958839Y-61539418D01*
X164074092Y-60960000D01*
X163958839Y-60380582D01*
X163630625Y-59889375D01*
X163332239Y-59690000D01*
X163630625Y-59490625D01*
X163958839Y-58999418D01*
X164074092Y-58420000D01*
X163958839Y-57840582D01*
X163630625Y-57349375D01*
X163332239Y-57150000D01*
X163630625Y-56950625D01*
X163958839Y-56459418D01*
X164074092Y-55880000D01*
X164043001Y-55723691D01*
X165265000Y-55723691D01*
X165265000Y-56964250D01*
X165423750Y-57123000D01*
X166873000Y-57123000D01*
X166873000Y-55373750D01*
X166714250Y-55215000D01*
X165773690Y-55215000D01*
X165540301Y-55311673D01*
X165361673Y-55490302D01*
X165265000Y-55723691D01*
X164043001Y-55723691D01*
X163958839Y-55300582D01*
X163630625Y-54809375D01*
X163332239Y-54610000D01*
X163630625Y-54410625D01*
X163958839Y-53919418D01*
X164074092Y-53340000D01*
X163958839Y-52760582D01*
X163630625Y-52269375D01*
X163332239Y-52070000D01*
X163630625Y-51870625D01*
X163958839Y-51379418D01*
X164074092Y-50800000D01*
X163958839Y-50220582D01*
X163630625Y-49729375D01*
X163311522Y-49516157D01*
X163441358Y-49455183D01*
X163831645Y-49026924D01*
X164001476Y-48616890D01*
X163880155Y-48387000D01*
X162687000Y-48387000D01*
X162687000Y-48407000D01*
X162433000Y-48407000D01*
X162433000Y-48387000D01*
X162413000Y-48387000D01*
X162413000Y-48133000D01*
X162433000Y-48133000D01*
X162433000Y-48113000D01*
X162687000Y-48113000D01*
X162687000Y-48133000D01*
X163880155Y-48133000D01*
X164001476Y-47903110D01*
X163831645Y-47493076D01*
X163554292Y-47188739D01*
X163657765Y-47168157D01*
X163867809Y-47027809D01*
X164008157Y-46817765D01*
X164057440Y-46570000D01*
X164057440Y-44870000D01*
X164008157Y-44622235D01*
X163867809Y-44412191D01*
X163657765Y-44271843D01*
X163410000Y-44222560D01*
X162294017Y-44222560D01*
X162309455Y-44199455D01*
X162591870Y-44010752D01*
X162937509Y-43942000D01*
X173531095Y-43942000D01*
X173392919Y-44034326D01*
X173392919Y-44034326D01*
G37*
X173392919Y-44034326D02*
X173217723Y-44209522D01*
X173000950Y-44533946D01*
X172906134Y-44762851D01*
X172830014Y-45145534D01*
X172817813Y-45269416D01*
X172817813Y-45909416D01*
X172742000Y-45909416D01*
X172742000Y-45265441D01*
X172739560Y-45240665D01*
X172663440Y-44857982D01*
X172644477Y-44812201D01*
X172427704Y-44487777D01*
X172392664Y-44452737D01*
X172068240Y-44235964D01*
X172022459Y-44217001D01*
X171639776Y-44140881D01*
X171615000Y-44138441D01*
X169215000Y-44138441D01*
X169190224Y-44140881D01*
X168807541Y-44217001D01*
X168761760Y-44235964D01*
X168437336Y-44452737D01*
X168402296Y-44487777D01*
X168185523Y-44812201D01*
X168166560Y-44857982D01*
X168090440Y-45240665D01*
X168088000Y-45265441D01*
X168088000Y-46945560D01*
X167988000Y-46945560D01*
X167740235Y-46994843D01*
X167530191Y-47135191D01*
X167389843Y-47345235D01*
X167373277Y-47428521D01*
X167348157Y-47302235D01*
X167207809Y-47092191D01*
X166997765Y-46951843D01*
X166750000Y-46902560D01*
X165250000Y-46902560D01*
X165002235Y-46951843D01*
X164792191Y-47092191D01*
X164651843Y-47302235D01*
X164602560Y-47550000D01*
X164602560Y-49050000D01*
X164651843Y-49297765D01*
X164792191Y-49507809D01*
X164880334Y-49566705D01*
X164842191Y-49592191D01*
X164701843Y-49802235D01*
X164652560Y-50050000D01*
X164652560Y-51250000D01*
X164701843Y-51497765D01*
X164842191Y-51707809D01*
X164905334Y-51750000D01*
X164842191Y-51792191D01*
X164701843Y-52002235D01*
X164652560Y-52250000D01*
X164652560Y-53450000D01*
X164701843Y-53697765D01*
X164842191Y-53907809D01*
X165052235Y-54048157D01*
X165300000Y-54097440D01*
X166200000Y-54097440D01*
X166447765Y-54048157D01*
X166657809Y-53907809D01*
X166798157Y-53697765D01*
X166815614Y-53610000D01*
X167217813Y-53610000D01*
X167217813Y-55282937D01*
X167127000Y-55373750D01*
X167127000Y-57123000D01*
X167147000Y-57123000D01*
X167147000Y-57377000D01*
X167127000Y-57377000D01*
X167127000Y-57397000D01*
X166873000Y-57397000D01*
X166873000Y-57377000D01*
X165423750Y-57377000D01*
X165265000Y-57535750D01*
X165265000Y-58776309D01*
X165361673Y-59009698D01*
X165540301Y-59188327D01*
X165773690Y-59285000D01*
X166251289Y-59285000D01*
X166122569Y-59413720D01*
X165965000Y-59794126D01*
X165965000Y-60002560D01*
X165900000Y-60002560D01*
X165652235Y-60051843D01*
X165442191Y-60192191D01*
X165301843Y-60402235D01*
X165252560Y-60650000D01*
X165252560Y-63450000D01*
X165301843Y-63697765D01*
X165442191Y-63907809D01*
X165652235Y-64048157D01*
X165900000Y-64097440D01*
X167672638Y-64097440D01*
X167809670Y-64234472D01*
X167852071Y-64297929D01*
X168103463Y-64465904D01*
X168325148Y-64510000D01*
X168325153Y-64510000D01*
X168400000Y-64524888D01*
X168474847Y-64510000D01*
X169435199Y-64510000D01*
X169909671Y-64984473D01*
X169952071Y-65047929D01*
X170203463Y-65215904D01*
X170425148Y-65260000D01*
X170425152Y-65260000D01*
X170499999Y-65274888D01*
X170574846Y-65260000D01*
X171046289Y-65260000D01*
X171163720Y-65377431D01*
X171544126Y-65535000D01*
X171955874Y-65535000D01*
X172336280Y-65377431D01*
X172627431Y-65086280D01*
X172785000Y-64705874D01*
X172785000Y-64294126D01*
X172733918Y-64170802D01*
X172847765Y-64148157D01*
X173057809Y-64007809D01*
X173198157Y-63797765D01*
X173247440Y-63550000D01*
X173247440Y-63499237D01*
X174209670Y-64461468D01*
X174252070Y-64524924D01*
X174490776Y-64684423D01*
X174290529Y-64884670D01*
X174227070Y-64927072D01*
X174059095Y-65178465D01*
X174014999Y-65400150D01*
X174014999Y-65400154D01*
X174000111Y-65475001D01*
X174014999Y-65549848D01*
X174014999Y-66689359D01*
X173952235Y-66701843D01*
X173742191Y-66842191D01*
X173601843Y-67052235D01*
X173552560Y-67300000D01*
X173552560Y-68200000D01*
X173601843Y-68447765D01*
X173621752Y-68477560D01*
X173200000Y-68477560D01*
X172952235Y-68526843D01*
X172742191Y-68667191D01*
X172601843Y-68877235D01*
X172552560Y-69125000D01*
X172552560Y-69447639D01*
X172182298Y-69817901D01*
X172118840Y-69860302D01*
X172022440Y-70004575D01*
X172022440Y-69350000D01*
X171973157Y-69102235D01*
X171912127Y-69010898D01*
X171913327Y-69009698D01*
X172010000Y-68776309D01*
X172010000Y-68335750D01*
X171851250Y-68177000D01*
X171127000Y-68177000D01*
X171127000Y-68197000D01*
X170873000Y-68197000D01*
X170873000Y-68177000D01*
X170853000Y-68177000D01*
X170853000Y-67923000D01*
X170873000Y-67923000D01*
X170873000Y-66973750D01*
X171127000Y-66973750D01*
X171127000Y-67923000D01*
X171851250Y-67923000D01*
X172010000Y-67764250D01*
X172010000Y-67323691D01*
X171913327Y-67090302D01*
X171734699Y-66911673D01*
X171501310Y-66815000D01*
X171285750Y-66815000D01*
X171127000Y-66973750D01*
X170873000Y-66973750D01*
X170714250Y-66815000D01*
X170498690Y-66815000D01*
X170265301Y-66911673D01*
X170086673Y-67090302D01*
X170045377Y-67190000D01*
X169535750Y-67190000D01*
X169377000Y-67348750D01*
X169377000Y-68273000D01*
X169397000Y-68273000D01*
X169397000Y-68527000D01*
X169377000Y-68527000D01*
X169377000Y-68547000D01*
X169123000Y-68547000D01*
X169123000Y-68527000D01*
X169103000Y-68527000D01*
X169103000Y-68273000D01*
X169123000Y-68273000D01*
X169123000Y-67348750D01*
X168964250Y-67190000D01*
X168423691Y-67190000D01*
X168190302Y-67286673D01*
X168149047Y-67327927D01*
X167997765Y-67226843D01*
X167750000Y-67177560D01*
X166350000Y-67177560D01*
X166102235Y-67226843D01*
X165892191Y-67367191D01*
X165751843Y-67577235D01*
X165719417Y-67740254D01*
X165552071Y-67852071D01*
X165509669Y-67915530D01*
X165265528Y-68159671D01*
X165202072Y-68202071D01*
X165159672Y-68265527D01*
X165159671Y-68265528D01*
X165034097Y-68453463D01*
X164975112Y-68750000D01*
X164990001Y-68824852D01*
X164990000Y-70668473D01*
X164822235Y-70701843D01*
X164809991Y-70710024D01*
X164809991Y-70144837D01*
X164824879Y-70069990D01*
X164809991Y-69995143D01*
X164809991Y-69995139D01*
X164765895Y-69773454D01*
X164685720Y-69653464D01*
X164640320Y-69585517D01*
X164640318Y-69585515D01*
X164597920Y-69522062D01*
X164534466Y-69479663D01*
X164001209Y-68946408D01*
X164074092Y-68580000D01*
X163958839Y-68000582D01*
X163630625Y-67509375D01*
X163332239Y-67310000D01*
X163630625Y-67110625D01*
X163958839Y-66619418D01*
X164074092Y-66040000D01*
X163958839Y-65460582D01*
X163630625Y-64969375D01*
X163332239Y-64770000D01*
X163630625Y-64570625D01*
X163958839Y-64079418D01*
X164074092Y-63500000D01*
X163958839Y-62920582D01*
X163630625Y-62429375D01*
X163332239Y-62230000D01*
X163630625Y-62030625D01*
X163958839Y-61539418D01*
X164074092Y-60960000D01*
X163958839Y-60380582D01*
X163630625Y-59889375D01*
X163332239Y-59690000D01*
X163630625Y-59490625D01*
X163958839Y-58999418D01*
X164074092Y-58420000D01*
X163958839Y-57840582D01*
X163630625Y-57349375D01*
X163332239Y-57150000D01*
X163630625Y-56950625D01*
X163958839Y-56459418D01*
X164074092Y-55880000D01*
X164043001Y-55723691D01*
X165265000Y-55723691D01*
X165265000Y-56964250D01*
X165423750Y-57123000D01*
X166873000Y-57123000D01*
X166873000Y-55373750D01*
X166714250Y-55215000D01*
X165773690Y-55215000D01*
X165540301Y-55311673D01*
X165361673Y-55490302D01*
X165265000Y-55723691D01*
X164043001Y-55723691D01*
X163958839Y-55300582D01*
X163630625Y-54809375D01*
X163332239Y-54610000D01*
X163630625Y-54410625D01*
X163958839Y-53919418D01*
X164074092Y-53340000D01*
X163958839Y-52760582D01*
X163630625Y-52269375D01*
X163332239Y-52070000D01*
X163630625Y-51870625D01*
X163958839Y-51379418D01*
X164074092Y-50800000D01*
X163958839Y-50220582D01*
X163630625Y-49729375D01*
X163311522Y-49516157D01*
X163441358Y-49455183D01*
X163831645Y-49026924D01*
X164001476Y-48616890D01*
X163880155Y-48387000D01*
X162687000Y-48387000D01*
X162687000Y-48407000D01*
X162433000Y-48407000D01*
X162433000Y-48387000D01*
X162413000Y-48387000D01*
X162413000Y-48133000D01*
X162433000Y-48133000D01*
X162433000Y-48113000D01*
X162687000Y-48113000D01*
X162687000Y-48133000D01*
X163880155Y-48133000D01*
X164001476Y-47903110D01*
X163831645Y-47493076D01*
X163554292Y-47188739D01*
X163657765Y-47168157D01*
X163867809Y-47027809D01*
X164008157Y-46817765D01*
X164057440Y-46570000D01*
X164057440Y-44870000D01*
X164008157Y-44622235D01*
X163867809Y-44412191D01*
X163657765Y-44271843D01*
X163410000Y-44222560D01*
X162294017Y-44222560D01*
X162309455Y-44199455D01*
X162591870Y-44010752D01*
X162937509Y-43942000D01*
X173531095Y-43942000D01*
X173392919Y-44034326D01*
G36*
X167177000Y-69873000D02*
X167197000Y-69873000D01*
X167197000Y-70127000D01*
X167177000Y-70127000D01*
X167177000Y-70147000D01*
X166923000Y-70147000D01*
X166923000Y-70127000D01*
X166903000Y-70127000D01*
X166903000Y-69873000D01*
X166923000Y-69873000D01*
X166923000Y-69853000D01*
X167177000Y-69853000D01*
X167177000Y-69873000D01*
X167177000Y-69873000D01*
G37*
X167177000Y-69873000D02*
X167197000Y-69873000D01*
X167197000Y-70127000D01*
X167177000Y-70127000D01*
X167177000Y-70147000D01*
X166923000Y-70147000D01*
X166923000Y-70127000D01*
X166903000Y-70127000D01*
X166903000Y-69873000D01*
X166923000Y-69873000D01*
X166923000Y-69853000D01*
X167177000Y-69853000D01*
X167177000Y-69873000D01*
G36*
X181365908Y-55880000D02*
X181481161Y-56459418D01*
X181809375Y-56950625D01*
X182107761Y-57150000D01*
X181809375Y-57349375D01*
X181481161Y-57840582D01*
X181365908Y-58420000D01*
X181481161Y-58999418D01*
X181797188Y-59472387D01*
X179510331Y-57185530D01*
X179467929Y-57122071D01*
X179216537Y-56954096D01*
X178994852Y-56910000D01*
X178994847Y-56910000D01*
X178920000Y-56895112D01*
X178845153Y-56910000D01*
X178357236Y-56910000D01*
X178318289Y-56851711D01*
X177942855Y-56600854D01*
X177611783Y-56535000D01*
X177388217Y-56535000D01*
X177057145Y-56600854D01*
X177039164Y-56612869D01*
X176977765Y-56571843D01*
X176730000Y-56522560D01*
X175730000Y-56522560D01*
X175482235Y-56571843D01*
X175272191Y-56712191D01*
X175131843Y-56922235D01*
X175082560Y-57170000D01*
X175082560Y-58170000D01*
X175131843Y-58417765D01*
X175190678Y-58505817D01*
X175135881Y-58638126D01*
X175262046Y-58813000D01*
X175707678Y-58813000D01*
X175730000Y-58817440D01*
X176367144Y-58817440D01*
X176342765Y-58940000D01*
X176368027Y-59067000D01*
X176357000Y-59067000D01*
X176357000Y-60083000D01*
X176368027Y-60083000D01*
X176342765Y-60210000D01*
X176368027Y-60337000D01*
X176357000Y-60337000D01*
X176357000Y-60348027D01*
X176341783Y-60345000D01*
X176118217Y-60345000D01*
X176103000Y-60348027D01*
X176103000Y-60337000D01*
X175262046Y-60337000D01*
X175135881Y-60511874D01*
X175242873Y-60770209D01*
X175297199Y-60833090D01*
X175160854Y-61037145D01*
X175072765Y-61480000D01*
X175160854Y-61922855D01*
X175297199Y-62126910D01*
X175242873Y-62189791D01*
X175135881Y-62448126D01*
X175262046Y-62623000D01*
X176103000Y-62623000D01*
X176103000Y-62611973D01*
X176118217Y-62615000D01*
X176341783Y-62615000D01*
X176357000Y-62611973D01*
X176357000Y-62623000D01*
X176368027Y-62623000D01*
X176342765Y-62750000D01*
X176356441Y-62818756D01*
X176278197Y-62897000D01*
X176103000Y-62897000D01*
X176103000Y-62877000D01*
X175262046Y-62877000D01*
X175135881Y-63051874D01*
X175204267Y-63216995D01*
X175114801Y-63216995D01*
X173563335Y-61665530D01*
X173520933Y-61602071D01*
X173269541Y-61434096D01*
X173247440Y-61429700D01*
X173247440Y-60750000D01*
X173198157Y-60502235D01*
X173134575Y-60407079D01*
X173297929Y-60297929D01*
X173340331Y-60234470D01*
X174332927Y-59241874D01*
X175135881Y-59241874D01*
X175242873Y-59500209D01*
X175307489Y-59575000D01*
X175242873Y-59649791D01*
X175135881Y-59908126D01*
X175262046Y-60083000D01*
X176103000Y-60083000D01*
X176103000Y-59067000D01*
X175262046Y-59067000D01*
X175135881Y-59241874D01*
X174332927Y-59241874D01*
X174484473Y-59090329D01*
X174547929Y-59047929D01*
X174715904Y-58796537D01*
X174760000Y-58574852D01*
X174760000Y-58574847D01*
X174774888Y-58500000D01*
X174760000Y-58425153D01*
X174760000Y-56814801D01*
X175064802Y-56510000D01*
X179925153Y-56510000D01*
X180000000Y-56524888D01*
X180074847Y-56510000D01*
X180074852Y-56510000D01*
X180296537Y-56465904D01*
X180547929Y-56297929D01*
X180590331Y-56234470D01*
X181470469Y-55354332D01*
X181365908Y-55880000D01*
X181365908Y-55880000D01*
G37*
X181365908Y-55880000D02*
X181481161Y-56459418D01*
X181809375Y-56950625D01*
X182107761Y-57150000D01*
X181809375Y-57349375D01*
X181481161Y-57840582D01*
X181365908Y-58420000D01*
X181481161Y-58999418D01*
X181797188Y-59472387D01*
X179510331Y-57185530D01*
X179467929Y-57122071D01*
X179216537Y-56954096D01*
X178994852Y-56910000D01*
X178994847Y-56910000D01*
X178920000Y-56895112D01*
X178845153Y-56910000D01*
X178357236Y-56910000D01*
X178318289Y-56851711D01*
X177942855Y-56600854D01*
X177611783Y-56535000D01*
X177388217Y-56535000D01*
X177057145Y-56600854D01*
X177039164Y-56612869D01*
X176977765Y-56571843D01*
X176730000Y-56522560D01*
X175730000Y-56522560D01*
X175482235Y-56571843D01*
X175272191Y-56712191D01*
X175131843Y-56922235D01*
X175082560Y-57170000D01*
X175082560Y-58170000D01*
X175131843Y-58417765D01*
X175190678Y-58505817D01*
X175135881Y-58638126D01*
X175262046Y-58813000D01*
X175707678Y-58813000D01*
X175730000Y-58817440D01*
X176367144Y-58817440D01*
X176342765Y-58940000D01*
X176368027Y-59067000D01*
X176357000Y-59067000D01*
X176357000Y-60083000D01*
X176368027Y-60083000D01*
X176342765Y-60210000D01*
X176368027Y-60337000D01*
X176357000Y-60337000D01*
X176357000Y-60348027D01*
X176341783Y-60345000D01*
X176118217Y-60345000D01*
X176103000Y-60348027D01*
X176103000Y-60337000D01*
X175262046Y-60337000D01*
X175135881Y-60511874D01*
X175242873Y-60770209D01*
X175297199Y-60833090D01*
X175160854Y-61037145D01*
X175072765Y-61480000D01*
X175160854Y-61922855D01*
X175297199Y-62126910D01*
X175242873Y-62189791D01*
X175135881Y-62448126D01*
X175262046Y-62623000D01*
X176103000Y-62623000D01*
X176103000Y-62611973D01*
X176118217Y-62615000D01*
X176341783Y-62615000D01*
X176357000Y-62611973D01*
X176357000Y-62623000D01*
X176368027Y-62623000D01*
X176342765Y-62750000D01*
X176356441Y-62818756D01*
X176278197Y-62897000D01*
X176103000Y-62897000D01*
X176103000Y-62877000D01*
X175262046Y-62877000D01*
X175135881Y-63051874D01*
X175204267Y-63216995D01*
X175114801Y-63216995D01*
X173563335Y-61665530D01*
X173520933Y-61602071D01*
X173269541Y-61434096D01*
X173247440Y-61429700D01*
X173247440Y-60750000D01*
X173198157Y-60502235D01*
X173134575Y-60407079D01*
X173297929Y-60297929D01*
X173340331Y-60234470D01*
X174332927Y-59241874D01*
X175135881Y-59241874D01*
X175242873Y-59500209D01*
X175307489Y-59575000D01*
X175242873Y-59649791D01*
X175135881Y-59908126D01*
X175262046Y-60083000D01*
X176103000Y-60083000D01*
X176103000Y-59067000D01*
X175262046Y-59067000D01*
X175135881Y-59241874D01*
X174332927Y-59241874D01*
X174484473Y-59090329D01*
X174547929Y-59047929D01*
X174715904Y-58796537D01*
X174760000Y-58574852D01*
X174760000Y-58574847D01*
X174774888Y-58500000D01*
X174760000Y-58425153D01*
X174760000Y-56814801D01*
X175064802Y-56510000D01*
X179925153Y-56510000D01*
X180000000Y-56524888D01*
X180074847Y-56510000D01*
X180074852Y-56510000D01*
X180296537Y-56465904D01*
X180547929Y-56297929D01*
X180590331Y-56234470D01*
X181470469Y-55354332D01*
X181365908Y-55880000D01*
G36*
X173240001Y-56574852D02*
X173240000Y-58185198D01*
X173235000Y-58190198D01*
X173235000Y-57635750D01*
X173076250Y-57477000D01*
X171627000Y-57477000D01*
X171627000Y-57497000D01*
X171373000Y-57497000D01*
X171373000Y-57477000D01*
X171353000Y-57477000D01*
X171353000Y-57223000D01*
X171373000Y-57223000D01*
X171373000Y-57203000D01*
X171627000Y-57203000D01*
X171627000Y-57223000D01*
X173076250Y-57223000D01*
X173235000Y-57064250D01*
X173235000Y-56549710D01*
X173240001Y-56574852D01*
X173240001Y-56574852D01*
G37*
X173240001Y-56574852D02*
X173240000Y-58185198D01*
X173235000Y-58190198D01*
X173235000Y-57635750D01*
X173076250Y-57477000D01*
X171627000Y-57477000D01*
X171627000Y-57497000D01*
X171373000Y-57497000D01*
X171373000Y-57477000D01*
X171353000Y-57477000D01*
X171353000Y-57223000D01*
X171373000Y-57223000D01*
X171373000Y-57203000D01*
X171627000Y-57203000D01*
X171627000Y-57223000D01*
X173076250Y-57223000D01*
X173235000Y-57064250D01*
X173235000Y-56549710D01*
X173240001Y-56574852D01*
G36*
X177242000Y-51358000D02*
X177262000Y-51358000D01*
X177262000Y-51612000D01*
X177242000Y-51612000D01*
X177242000Y-52561250D01*
X177400750Y-52720000D01*
X177616310Y-52720000D01*
X177757260Y-52661617D01*
X177784097Y-52796537D01*
X177896661Y-52965000D01*
X177952072Y-53047929D01*
X178006354Y-53084199D01*
X177913720Y-53122569D01*
X177622569Y-53413720D01*
X177465000Y-53794126D01*
X177465000Y-54205874D01*
X177586831Y-54500000D01*
X177465000Y-54794126D01*
X177465000Y-54990000D01*
X174824846Y-54990000D01*
X174749999Y-54975112D01*
X174675152Y-54990000D01*
X174675148Y-54990000D01*
X174453463Y-55034096D01*
X174202071Y-55202071D01*
X174159671Y-55265527D01*
X173515528Y-55909671D01*
X173452072Y-55952071D01*
X173409672Y-56015527D01*
X173409671Y-56015528D01*
X173388951Y-56046538D01*
X173284097Y-56203463D01*
X173265307Y-56297929D01*
X173235000Y-56450290D01*
X173235000Y-55963081D01*
X173301826Y-55918429D01*
X173439477Y-55712420D01*
X173487813Y-55469416D01*
X173487813Y-54439238D01*
X173605048Y-54517573D01*
X173852813Y-54566856D01*
X175852813Y-54566856D01*
X176100578Y-54517573D01*
X176310622Y-54377225D01*
X176450970Y-54167181D01*
X176500253Y-53919416D01*
X176500253Y-52673013D01*
X176613690Y-52720000D01*
X176829250Y-52720000D01*
X176988000Y-52561250D01*
X176988000Y-51612000D01*
X176968000Y-51612000D01*
X176968000Y-51358000D01*
X176988000Y-51358000D01*
X176988000Y-51338000D01*
X177242000Y-51338000D01*
X177242000Y-51358000D01*
X177242000Y-51358000D01*
G37*
X177242000Y-51358000D02*
X177262000Y-51358000D01*
X177262000Y-51612000D01*
X177242000Y-51612000D01*
X177242000Y-52561250D01*
X177400750Y-52720000D01*
X177616310Y-52720000D01*
X177757260Y-52661617D01*
X177784097Y-52796537D01*
X177896661Y-52965000D01*
X177952072Y-53047929D01*
X178006354Y-53084199D01*
X177913720Y-53122569D01*
X177622569Y-53413720D01*
X177465000Y-53794126D01*
X177465000Y-54205874D01*
X177586831Y-54500000D01*
X177465000Y-54794126D01*
X177465000Y-54990000D01*
X174824846Y-54990000D01*
X174749999Y-54975112D01*
X174675152Y-54990000D01*
X174675148Y-54990000D01*
X174453463Y-55034096D01*
X174202071Y-55202071D01*
X174159671Y-55265527D01*
X173515528Y-55909671D01*
X173452072Y-55952071D01*
X173409672Y-56015527D01*
X173409671Y-56015528D01*
X173388951Y-56046538D01*
X173284097Y-56203463D01*
X173265307Y-56297929D01*
X173235000Y-56450290D01*
X173235000Y-55963081D01*
X173301826Y-55918429D01*
X173439477Y-55712420D01*
X173487813Y-55469416D01*
X173487813Y-54439238D01*
X173605048Y-54517573D01*
X173852813Y-54566856D01*
X175852813Y-54566856D01*
X176100578Y-54517573D01*
X176310622Y-54377225D01*
X176450970Y-54167181D01*
X176500253Y-53919416D01*
X176500253Y-52673013D01*
X176613690Y-52720000D01*
X176829250Y-52720000D01*
X176988000Y-52561250D01*
X176988000Y-51612000D01*
X176968000Y-51612000D01*
X176968000Y-51358000D01*
X176988000Y-51358000D01*
X176988000Y-51338000D01*
X177242000Y-51338000D01*
X177242000Y-51358000D01*
G36*
X182848130Y-44010752D02*
X183130545Y-44199455D01*
X183145983Y-44222560D01*
X182030000Y-44222560D01*
X181782235Y-44271843D01*
X181572191Y-44412191D01*
X181431843Y-44622235D01*
X181382560Y-44870000D01*
X181382560Y-44981316D01*
X181177999Y-45117999D01*
X181131415Y-45187718D01*
X180885000Y-45434132D01*
X180885000Y-45385750D01*
X180726250Y-45227000D01*
X179627000Y-45227000D01*
X179627000Y-45247000D01*
X179373000Y-45247000D01*
X179373000Y-45227000D01*
X179353000Y-45227000D01*
X179353000Y-44973000D01*
X179373000Y-44973000D01*
X179373000Y-44953000D01*
X179627000Y-44953000D01*
X179627000Y-44973000D01*
X180726250Y-44973000D01*
X180885000Y-44814250D01*
X180885000Y-44223691D01*
X180788327Y-43990302D01*
X180740025Y-43942000D01*
X182502491Y-43942000D01*
X182848130Y-44010752D01*
X182848130Y-44010752D01*
G37*
X182848130Y-44010752D02*
X183130545Y-44199455D01*
X183145983Y-44222560D01*
X182030000Y-44222560D01*
X181782235Y-44271843D01*
X181572191Y-44412191D01*
X181431843Y-44622235D01*
X181382560Y-44870000D01*
X181382560Y-44981316D01*
X181177999Y-45117999D01*
X181131415Y-45187718D01*
X180885000Y-45434132D01*
X180885000Y-45385750D01*
X180726250Y-45227000D01*
X179627000Y-45227000D01*
X179627000Y-45247000D01*
X179373000Y-45247000D01*
X179373000Y-45227000D01*
X179353000Y-45227000D01*
X179353000Y-44973000D01*
X179373000Y-44973000D01*
X179373000Y-44953000D01*
X179627000Y-44953000D01*
X179627000Y-44973000D01*
X180726250Y-44973000D01*
X180885000Y-44814250D01*
X180885000Y-44223691D01*
X180788327Y-43990302D01*
X180740025Y-43942000D01*
X182502491Y-43942000D01*
X182848130Y-44010752D01*
G36*
X171948130Y-44461193D02*
X172230545Y-44649896D01*
X172419248Y-44932311D01*
X172488000Y-45277950D01*
X172488000Y-45909416D01*
X172426504Y-45909416D01*
X172374224Y-45931071D01*
X172202813Y-45896976D01*
X171602813Y-45896976D01*
X171355048Y-45946259D01*
X171145004Y-46086607D01*
X171004656Y-46296651D01*
X170955373Y-46544416D01*
X170955373Y-47594416D01*
X171004656Y-47842181D01*
X171145004Y-48052225D01*
X171172979Y-48070917D01*
X171186910Y-48140953D01*
X171318867Y-48338441D01*
X169385440Y-48338441D01*
X169385440Y-47593000D01*
X169336157Y-47345235D01*
X169195809Y-47135191D01*
X168985765Y-46994843D01*
X168738000Y-46945560D01*
X168342000Y-46945560D01*
X168342000Y-45277950D01*
X168410752Y-44932311D01*
X168599455Y-44649896D01*
X168881870Y-44461193D01*
X169227509Y-44392441D01*
X171602491Y-44392441D01*
X171948130Y-44461193D01*
X171948130Y-44461193D01*
G37*
X171948130Y-44461193D02*
X172230545Y-44649896D01*
X172419248Y-44932311D01*
X172488000Y-45277950D01*
X172488000Y-45909416D01*
X172426504Y-45909416D01*
X172374224Y-45931071D01*
X172202813Y-45896976D01*
X171602813Y-45896976D01*
X171355048Y-45946259D01*
X171145004Y-46086607D01*
X171004656Y-46296651D01*
X170955373Y-46544416D01*
X170955373Y-47594416D01*
X171004656Y-47842181D01*
X171145004Y-48052225D01*
X171172979Y-48070917D01*
X171186910Y-48140953D01*
X171318867Y-48338441D01*
X169385440Y-48338441D01*
X169385440Y-47593000D01*
X169336157Y-47345235D01*
X169195809Y-47135191D01*
X168985765Y-46994843D01*
X168738000Y-46945560D01*
X168342000Y-46945560D01*
X168342000Y-45277950D01*
X168410752Y-44932311D01*
X168599455Y-44649896D01*
X168881870Y-44461193D01*
X169227509Y-44392441D01*
X171602491Y-44392441D01*
X171948130Y-44461193D01*
G04 #@! TD*
M02*
