G04 #@! TF.GenerationSoftware,KiCad,Pcbnew,5.0.2-bee76a0~70~ubuntu18.04.1*
G04 #@! TF.CreationDate,2019-01-02T21:11:22-05:00*
G04 #@! TF.ProjectId,stm32 prototype,73746d33-3220-4707-926f-746f74797065,rev?*
G04 #@! TF.SameCoordinates,Original*
G04 #@! TF.FileFunction,Legend,Top*
G04 #@! TF.FilePolarity,Positive*
%FSLAX46Y46*%
G04 Gerber Fmt 4.6, Leading zero omitted, Abs format (unit mm)*
G04 Created by KiCad (PCBNEW 5.0.2-bee76a0~70~ubuntu18.04.1) date Wed 02 Jan 2019 09:11:22 PM EST*
%MOMM*%
%LPD*%
G01*
G04 APERTURE LIST*
%ADD10C,0.125000*%
%ADD11C,0.120000*%
%ADD12C,0.150000*%
%ADD13C,0.100000*%
G04 APERTURE END LIST*
D10*
X166450000Y-86689880D02*
X166521428Y-86713690D01*
X166640476Y-86713690D01*
X166688095Y-86689880D01*
X166711904Y-86666071D01*
X166735714Y-86618452D01*
X166735714Y-86570833D01*
X166711904Y-86523214D01*
X166688095Y-86499404D01*
X166640476Y-86475595D01*
X166545238Y-86451785D01*
X166497619Y-86427976D01*
X166473809Y-86404166D01*
X166450000Y-86356547D01*
X166450000Y-86308928D01*
X166473809Y-86261309D01*
X166497619Y-86237500D01*
X166545238Y-86213690D01*
X166664285Y-86213690D01*
X166735714Y-86237500D01*
X166950000Y-86713690D02*
X166950000Y-86213690D01*
X167140476Y-86213690D01*
X167188095Y-86237500D01*
X167211904Y-86261309D01*
X167235714Y-86308928D01*
X167235714Y-86380357D01*
X167211904Y-86427976D01*
X167188095Y-86451785D01*
X167140476Y-86475595D01*
X166950000Y-86475595D01*
X167450000Y-86713690D02*
X167450000Y-86213690D01*
X167950000Y-86713690D02*
X167664285Y-86713690D01*
X167807142Y-86713690D02*
X167807142Y-86213690D01*
X167759523Y-86285119D01*
X167711904Y-86332738D01*
X167664285Y-86356547D01*
X165569047Y-87588690D02*
X165569047Y-87088690D01*
X165759523Y-87088690D01*
X165807142Y-87112500D01*
X165830952Y-87136309D01*
X165854761Y-87183928D01*
X165854761Y-87255357D01*
X165830952Y-87302976D01*
X165807142Y-87326785D01*
X165759523Y-87350595D01*
X165569047Y-87350595D01*
X166045238Y-87445833D02*
X166283333Y-87445833D01*
X165997619Y-87588690D02*
X166164285Y-87088690D01*
X166330952Y-87588690D01*
X166735714Y-87088690D02*
X166497619Y-87088690D01*
X166473809Y-87326785D01*
X166497619Y-87302976D01*
X166545238Y-87279166D01*
X166664285Y-87279166D01*
X166711904Y-87302976D01*
X166735714Y-87326785D01*
X166759523Y-87374404D01*
X166759523Y-87493452D01*
X166735714Y-87541071D01*
X166711904Y-87564880D01*
X166664285Y-87588690D01*
X166545238Y-87588690D01*
X166497619Y-87564880D01*
X166473809Y-87541071D01*
X166973809Y-87326785D02*
X167354761Y-87326785D01*
X167354761Y-87469642D02*
X166973809Y-87469642D01*
X167569047Y-87564880D02*
X167640476Y-87588690D01*
X167759523Y-87588690D01*
X167807142Y-87564880D01*
X167830952Y-87541071D01*
X167854761Y-87493452D01*
X167854761Y-87445833D01*
X167830952Y-87398214D01*
X167807142Y-87374404D01*
X167759523Y-87350595D01*
X167664285Y-87326785D01*
X167616666Y-87302976D01*
X167592857Y-87279166D01*
X167569047Y-87231547D01*
X167569047Y-87183928D01*
X167592857Y-87136309D01*
X167616666Y-87112500D01*
X167664285Y-87088690D01*
X167783333Y-87088690D01*
X167854761Y-87112500D01*
X168354761Y-87541071D02*
X168330952Y-87564880D01*
X168259523Y-87588690D01*
X168211904Y-87588690D01*
X168140476Y-87564880D01*
X168092857Y-87517261D01*
X168069047Y-87469642D01*
X168045238Y-87374404D01*
X168045238Y-87302976D01*
X168069047Y-87207738D01*
X168092857Y-87160119D01*
X168140476Y-87112500D01*
X168211904Y-87088690D01*
X168259523Y-87088690D01*
X168330952Y-87112500D01*
X168354761Y-87136309D01*
X168569047Y-87588690D02*
X168569047Y-87088690D01*
X168854761Y-87588690D02*
X168640476Y-87302976D01*
X168854761Y-87088690D02*
X168569047Y-87374404D01*
X165402380Y-88463690D02*
X165402380Y-87963690D01*
X165592857Y-87963690D01*
X165640476Y-87987500D01*
X165664285Y-88011309D01*
X165688095Y-88058928D01*
X165688095Y-88130357D01*
X165664285Y-88177976D01*
X165640476Y-88201785D01*
X165592857Y-88225595D01*
X165402380Y-88225595D01*
X165878571Y-88320833D02*
X166116666Y-88320833D01*
X165830952Y-88463690D02*
X165997619Y-87963690D01*
X166164285Y-88463690D01*
X166545238Y-87963690D02*
X166450000Y-87963690D01*
X166402380Y-87987500D01*
X166378571Y-88011309D01*
X166330952Y-88082738D01*
X166307142Y-88177976D01*
X166307142Y-88368452D01*
X166330952Y-88416071D01*
X166354761Y-88439880D01*
X166402380Y-88463690D01*
X166497619Y-88463690D01*
X166545238Y-88439880D01*
X166569047Y-88416071D01*
X166592857Y-88368452D01*
X166592857Y-88249404D01*
X166569047Y-88201785D01*
X166545238Y-88177976D01*
X166497619Y-88154166D01*
X166402380Y-88154166D01*
X166354761Y-88177976D01*
X166330952Y-88201785D01*
X166307142Y-88249404D01*
X166807142Y-88201785D02*
X167188095Y-88201785D01*
X167188095Y-88344642D02*
X166807142Y-88344642D01*
X167426190Y-88463690D02*
X167426190Y-87963690D01*
X167592857Y-88320833D01*
X167759523Y-87963690D01*
X167759523Y-88463690D01*
X167997619Y-88463690D02*
X167997619Y-87963690D01*
X168211904Y-88439880D02*
X168283333Y-88463690D01*
X168402380Y-88463690D01*
X168450000Y-88439880D01*
X168473809Y-88416071D01*
X168497619Y-88368452D01*
X168497619Y-88320833D01*
X168473809Y-88273214D01*
X168450000Y-88249404D01*
X168402380Y-88225595D01*
X168307142Y-88201785D01*
X168259523Y-88177976D01*
X168235714Y-88154166D01*
X168211904Y-88106547D01*
X168211904Y-88058928D01*
X168235714Y-88011309D01*
X168259523Y-87987500D01*
X168307142Y-87963690D01*
X168426190Y-87963690D01*
X168497619Y-87987500D01*
X168807142Y-87963690D02*
X168902380Y-87963690D01*
X168950000Y-87987500D01*
X168997619Y-88035119D01*
X169021428Y-88130357D01*
X169021428Y-88297023D01*
X168997619Y-88392261D01*
X168950000Y-88439880D01*
X168902380Y-88463690D01*
X168807142Y-88463690D01*
X168759523Y-88439880D01*
X168711904Y-88392261D01*
X168688095Y-88297023D01*
X168688095Y-88130357D01*
X168711904Y-88035119D01*
X168759523Y-87987500D01*
X168807142Y-87963690D01*
X165402380Y-89338690D02*
X165402380Y-88838690D01*
X165592857Y-88838690D01*
X165640476Y-88862500D01*
X165664285Y-88886309D01*
X165688095Y-88933928D01*
X165688095Y-89005357D01*
X165664285Y-89052976D01*
X165640476Y-89076785D01*
X165592857Y-89100595D01*
X165402380Y-89100595D01*
X165878571Y-89195833D02*
X166116666Y-89195833D01*
X165830952Y-89338690D02*
X165997619Y-88838690D01*
X166164285Y-89338690D01*
X166283333Y-88838690D02*
X166616666Y-88838690D01*
X166402380Y-89338690D01*
X166807142Y-89076785D02*
X167188095Y-89076785D01*
X167188095Y-89219642D02*
X166807142Y-89219642D01*
X167426190Y-89338690D02*
X167426190Y-88838690D01*
X167592857Y-89195833D01*
X167759523Y-88838690D01*
X167759523Y-89338690D01*
X168092857Y-88838690D02*
X168188095Y-88838690D01*
X168235714Y-88862500D01*
X168283333Y-88910119D01*
X168307142Y-89005357D01*
X168307142Y-89172023D01*
X168283333Y-89267261D01*
X168235714Y-89314880D01*
X168188095Y-89338690D01*
X168092857Y-89338690D01*
X168045238Y-89314880D01*
X167997619Y-89267261D01*
X167973809Y-89172023D01*
X167973809Y-89005357D01*
X167997619Y-88910119D01*
X168045238Y-88862500D01*
X168092857Y-88838690D01*
X168497619Y-89314880D02*
X168569047Y-89338690D01*
X168688095Y-89338690D01*
X168735714Y-89314880D01*
X168759523Y-89291071D01*
X168783333Y-89243452D01*
X168783333Y-89195833D01*
X168759523Y-89148214D01*
X168735714Y-89124404D01*
X168688095Y-89100595D01*
X168592857Y-89076785D01*
X168545238Y-89052976D01*
X168521428Y-89029166D01*
X168497619Y-88981547D01*
X168497619Y-88933928D01*
X168521428Y-88886309D01*
X168545238Y-88862500D01*
X168592857Y-88838690D01*
X168711904Y-88838690D01*
X168783333Y-88862500D01*
X168997619Y-89338690D02*
X168997619Y-88838690D01*
X176526190Y-71876190D02*
X176526190Y-72280952D01*
X176550000Y-72328571D01*
X176573809Y-72352380D01*
X176621428Y-72376190D01*
X176716666Y-72376190D01*
X176764285Y-72352380D01*
X176788095Y-72328571D01*
X176811904Y-72280952D01*
X176811904Y-71876190D01*
X177026190Y-72352380D02*
X177097619Y-72376190D01*
X177216666Y-72376190D01*
X177264285Y-72352380D01*
X177288095Y-72328571D01*
X177311904Y-72280952D01*
X177311904Y-72233333D01*
X177288095Y-72185714D01*
X177264285Y-72161904D01*
X177216666Y-72138095D01*
X177121428Y-72114285D01*
X177073809Y-72090476D01*
X177050000Y-72066666D01*
X177026190Y-72019047D01*
X177026190Y-71971428D01*
X177050000Y-71923809D01*
X177073809Y-71900000D01*
X177121428Y-71876190D01*
X177240476Y-71876190D01*
X177311904Y-71900000D01*
X177502380Y-72233333D02*
X177740476Y-72233333D01*
X177454761Y-72376190D02*
X177621428Y-71876190D01*
X177788095Y-72376190D01*
X178240476Y-72376190D02*
X178073809Y-72138095D01*
X177954761Y-72376190D02*
X177954761Y-71876190D01*
X178145238Y-71876190D01*
X178192857Y-71900000D01*
X178216666Y-71923809D01*
X178240476Y-71971428D01*
X178240476Y-72042857D01*
X178216666Y-72090476D01*
X178192857Y-72114285D01*
X178145238Y-72138095D01*
X177954761Y-72138095D01*
X178383333Y-71876190D02*
X178669047Y-71876190D01*
X178526190Y-72376190D02*
X178526190Y-71876190D01*
X179097619Y-72376190D02*
X178811904Y-72376190D01*
X178954761Y-72376190D02*
X178954761Y-71876190D01*
X178907142Y-71947619D01*
X178859523Y-71995238D01*
X178811904Y-72019047D01*
X175859523Y-73251190D02*
X175859523Y-72751190D01*
X176050000Y-72751190D01*
X176097619Y-72775000D01*
X176121428Y-72798809D01*
X176145238Y-72846428D01*
X176145238Y-72917857D01*
X176121428Y-72965476D01*
X176097619Y-72989285D01*
X176050000Y-73013095D01*
X175859523Y-73013095D01*
X176335714Y-73108333D02*
X176573809Y-73108333D01*
X176288095Y-73251190D02*
X176454761Y-72751190D01*
X176621428Y-73251190D01*
X177050000Y-73251190D02*
X176764285Y-73251190D01*
X176907142Y-73251190D02*
X176907142Y-72751190D01*
X176859523Y-72822619D01*
X176811904Y-72870238D01*
X176764285Y-72894047D01*
X177359523Y-72751190D02*
X177407142Y-72751190D01*
X177454761Y-72775000D01*
X177478571Y-72798809D01*
X177502380Y-72846428D01*
X177526190Y-72941666D01*
X177526190Y-73060714D01*
X177502380Y-73155952D01*
X177478571Y-73203571D01*
X177454761Y-73227380D01*
X177407142Y-73251190D01*
X177359523Y-73251190D01*
X177311904Y-73227380D01*
X177288095Y-73203571D01*
X177264285Y-73155952D01*
X177240476Y-73060714D01*
X177240476Y-72941666D01*
X177264285Y-72846428D01*
X177288095Y-72798809D01*
X177311904Y-72775000D01*
X177359523Y-72751190D01*
X178121428Y-72989285D02*
X178502380Y-72989285D01*
X178502380Y-73132142D02*
X178121428Y-73132142D01*
X179050000Y-72751190D02*
X179335714Y-72751190D01*
X179192857Y-73251190D02*
X179192857Y-72751190D01*
X179454761Y-72751190D02*
X179788095Y-73251190D01*
X179788095Y-72751190D02*
X179454761Y-73251190D01*
X176419047Y-74126190D02*
X176419047Y-73626190D01*
X176609523Y-73626190D01*
X176657142Y-73650000D01*
X176680952Y-73673809D01*
X176704761Y-73721428D01*
X176704761Y-73792857D01*
X176680952Y-73840476D01*
X176657142Y-73864285D01*
X176609523Y-73888095D01*
X176419047Y-73888095D01*
X176895238Y-73983333D02*
X177133333Y-73983333D01*
X176847619Y-74126190D02*
X177014285Y-73626190D01*
X177180952Y-74126190D01*
X177371428Y-74126190D02*
X177466666Y-74126190D01*
X177514285Y-74102380D01*
X177538095Y-74078571D01*
X177585714Y-74007142D01*
X177609523Y-73911904D01*
X177609523Y-73721428D01*
X177585714Y-73673809D01*
X177561904Y-73650000D01*
X177514285Y-73626190D01*
X177419047Y-73626190D01*
X177371428Y-73650000D01*
X177347619Y-73673809D01*
X177323809Y-73721428D01*
X177323809Y-73840476D01*
X177347619Y-73888095D01*
X177371428Y-73911904D01*
X177419047Y-73935714D01*
X177514285Y-73935714D01*
X177561904Y-73911904D01*
X177585714Y-73888095D01*
X177609523Y-73840476D01*
X177823809Y-73864285D02*
X178204761Y-73864285D01*
X178204761Y-74007142D02*
X177823809Y-74007142D01*
X178728571Y-74126190D02*
X178561904Y-73888095D01*
X178442857Y-74126190D02*
X178442857Y-73626190D01*
X178633333Y-73626190D01*
X178680952Y-73650000D01*
X178704761Y-73673809D01*
X178728571Y-73721428D01*
X178728571Y-73792857D01*
X178704761Y-73840476D01*
X178680952Y-73864285D01*
X178633333Y-73888095D01*
X178442857Y-73888095D01*
X178895238Y-73626190D02*
X179228571Y-74126190D01*
X179228571Y-73626190D02*
X178895238Y-74126190D01*
X176248333Y-64756190D02*
X176248333Y-64256190D01*
X176462619Y-64303809D02*
X176486428Y-64280000D01*
X176534047Y-64256190D01*
X176653095Y-64256190D01*
X176700714Y-64280000D01*
X176724523Y-64303809D01*
X176748333Y-64351428D01*
X176748333Y-64399047D01*
X176724523Y-64470476D01*
X176438809Y-64756190D01*
X176748333Y-64756190D01*
X177248333Y-64708571D02*
X177224523Y-64732380D01*
X177153095Y-64756190D01*
X177105476Y-64756190D01*
X177034047Y-64732380D01*
X176986428Y-64684761D01*
X176962619Y-64637142D01*
X176938809Y-64541904D01*
X176938809Y-64470476D01*
X176962619Y-64375238D01*
X176986428Y-64327619D01*
X177034047Y-64280000D01*
X177105476Y-64256190D01*
X177153095Y-64256190D01*
X177224523Y-64280000D01*
X177248333Y-64303809D01*
X177343571Y-64803809D02*
X177724523Y-64803809D01*
X178105476Y-64756190D02*
X177819761Y-64756190D01*
X177962619Y-64756190D02*
X177962619Y-64256190D01*
X177915000Y-64327619D01*
X177867380Y-64375238D01*
X177819761Y-64399047D01*
X175153095Y-65631190D02*
X175153095Y-65131190D01*
X175343571Y-65131190D01*
X175391190Y-65155000D01*
X175415000Y-65178809D01*
X175438809Y-65226428D01*
X175438809Y-65297857D01*
X175415000Y-65345476D01*
X175391190Y-65369285D01*
X175343571Y-65393095D01*
X175153095Y-65393095D01*
X175819761Y-65369285D02*
X175891190Y-65393095D01*
X175915000Y-65416904D01*
X175938809Y-65464523D01*
X175938809Y-65535952D01*
X175915000Y-65583571D01*
X175891190Y-65607380D01*
X175843571Y-65631190D01*
X175653095Y-65631190D01*
X175653095Y-65131190D01*
X175819761Y-65131190D01*
X175867380Y-65155000D01*
X175891190Y-65178809D01*
X175915000Y-65226428D01*
X175915000Y-65274047D01*
X175891190Y-65321666D01*
X175867380Y-65345476D01*
X175819761Y-65369285D01*
X175653095Y-65369285D01*
X176105476Y-65131190D02*
X176438809Y-65131190D01*
X176224523Y-65631190D01*
X177010238Y-65369285D02*
X177391190Y-65369285D01*
X177391190Y-65512142D02*
X177010238Y-65512142D01*
X177986428Y-65607380D02*
X178057857Y-65631190D01*
X178176904Y-65631190D01*
X178224523Y-65607380D01*
X178248333Y-65583571D01*
X178272142Y-65535952D01*
X178272142Y-65488333D01*
X178248333Y-65440714D01*
X178224523Y-65416904D01*
X178176904Y-65393095D01*
X178081666Y-65369285D01*
X178034047Y-65345476D01*
X178010238Y-65321666D01*
X177986428Y-65274047D01*
X177986428Y-65226428D01*
X178010238Y-65178809D01*
X178034047Y-65155000D01*
X178081666Y-65131190D01*
X178200714Y-65131190D01*
X178272142Y-65155000D01*
X178486428Y-65631190D02*
X178486428Y-65131190D01*
X178605476Y-65131190D01*
X178676904Y-65155000D01*
X178724523Y-65202619D01*
X178748333Y-65250238D01*
X178772142Y-65345476D01*
X178772142Y-65416904D01*
X178748333Y-65512142D01*
X178724523Y-65559761D01*
X178676904Y-65607380D01*
X178605476Y-65631190D01*
X178486428Y-65631190D01*
X178962619Y-65488333D02*
X179200714Y-65488333D01*
X178915000Y-65631190D02*
X179081666Y-65131190D01*
X179248333Y-65631190D01*
X175165000Y-66506190D02*
X175165000Y-66006190D01*
X175355476Y-66006190D01*
X175403095Y-66030000D01*
X175426904Y-66053809D01*
X175450714Y-66101428D01*
X175450714Y-66172857D01*
X175426904Y-66220476D01*
X175403095Y-66244285D01*
X175355476Y-66268095D01*
X175165000Y-66268095D01*
X175831666Y-66244285D02*
X175903095Y-66268095D01*
X175926904Y-66291904D01*
X175950714Y-66339523D01*
X175950714Y-66410952D01*
X175926904Y-66458571D01*
X175903095Y-66482380D01*
X175855476Y-66506190D01*
X175665000Y-66506190D01*
X175665000Y-66006190D01*
X175831666Y-66006190D01*
X175879285Y-66030000D01*
X175903095Y-66053809D01*
X175926904Y-66101428D01*
X175926904Y-66149047D01*
X175903095Y-66196666D01*
X175879285Y-66220476D01*
X175831666Y-66244285D01*
X175665000Y-66244285D01*
X176379285Y-66006190D02*
X176284047Y-66006190D01*
X176236428Y-66030000D01*
X176212619Y-66053809D01*
X176165000Y-66125238D01*
X176141190Y-66220476D01*
X176141190Y-66410952D01*
X176165000Y-66458571D01*
X176188809Y-66482380D01*
X176236428Y-66506190D01*
X176331666Y-66506190D01*
X176379285Y-66482380D01*
X176403095Y-66458571D01*
X176426904Y-66410952D01*
X176426904Y-66291904D01*
X176403095Y-66244285D01*
X176379285Y-66220476D01*
X176331666Y-66196666D01*
X176236428Y-66196666D01*
X176188809Y-66220476D01*
X176165000Y-66244285D01*
X176141190Y-66291904D01*
X177022142Y-66244285D02*
X177403095Y-66244285D01*
X177403095Y-66387142D02*
X177022142Y-66387142D01*
X177998333Y-66482380D02*
X178069761Y-66506190D01*
X178188809Y-66506190D01*
X178236428Y-66482380D01*
X178260238Y-66458571D01*
X178284047Y-66410952D01*
X178284047Y-66363333D01*
X178260238Y-66315714D01*
X178236428Y-66291904D01*
X178188809Y-66268095D01*
X178093571Y-66244285D01*
X178045952Y-66220476D01*
X178022142Y-66196666D01*
X177998333Y-66149047D01*
X177998333Y-66101428D01*
X178022142Y-66053809D01*
X178045952Y-66030000D01*
X178093571Y-66006190D01*
X178212619Y-66006190D01*
X178284047Y-66030000D01*
X178784047Y-66458571D02*
X178760238Y-66482380D01*
X178688809Y-66506190D01*
X178641190Y-66506190D01*
X178569761Y-66482380D01*
X178522142Y-66434761D01*
X178498333Y-66387142D01*
X178474523Y-66291904D01*
X178474523Y-66220476D01*
X178498333Y-66125238D01*
X178522142Y-66077619D01*
X178569761Y-66030000D01*
X178641190Y-66006190D01*
X178688809Y-66006190D01*
X178760238Y-66030000D01*
X178784047Y-66053809D01*
X179236428Y-66506190D02*
X178998333Y-66506190D01*
X178998333Y-66006190D01*
X179121666Y-87418690D02*
X179121666Y-86918690D01*
X179312142Y-86918690D01*
X179359761Y-86942500D01*
X179383571Y-86966309D01*
X179407380Y-87013928D01*
X179407380Y-87085357D01*
X179383571Y-87132976D01*
X179359761Y-87156785D01*
X179312142Y-87180595D01*
X179121666Y-87180595D01*
X179597857Y-87275833D02*
X179835952Y-87275833D01*
X179550238Y-87418690D02*
X179716904Y-86918690D01*
X179883571Y-87418690D01*
X180121666Y-87132976D02*
X180074047Y-87109166D01*
X180050238Y-87085357D01*
X180026428Y-87037738D01*
X180026428Y-87013928D01*
X180050238Y-86966309D01*
X180074047Y-86942500D01*
X180121666Y-86918690D01*
X180216904Y-86918690D01*
X180264523Y-86942500D01*
X180288333Y-86966309D01*
X180312142Y-87013928D01*
X180312142Y-87037738D01*
X180288333Y-87085357D01*
X180264523Y-87109166D01*
X180216904Y-87132976D01*
X180121666Y-87132976D01*
X180074047Y-87156785D01*
X180050238Y-87180595D01*
X180026428Y-87228214D01*
X180026428Y-87323452D01*
X180050238Y-87371071D01*
X180074047Y-87394880D01*
X180121666Y-87418690D01*
X180216904Y-87418690D01*
X180264523Y-87394880D01*
X180288333Y-87371071D01*
X180312142Y-87323452D01*
X180312142Y-87228214D01*
X180288333Y-87180595D01*
X180264523Y-87156785D01*
X180216904Y-87132976D01*
X179085952Y-88293690D02*
X179085952Y-87793690D01*
X179276428Y-87793690D01*
X179324047Y-87817500D01*
X179347857Y-87841309D01*
X179371666Y-87888928D01*
X179371666Y-87960357D01*
X179347857Y-88007976D01*
X179324047Y-88031785D01*
X179276428Y-88055595D01*
X179085952Y-88055595D01*
X179871666Y-88246071D02*
X179847857Y-88269880D01*
X179776428Y-88293690D01*
X179728809Y-88293690D01*
X179657380Y-88269880D01*
X179609761Y-88222261D01*
X179585952Y-88174642D01*
X179562142Y-88079404D01*
X179562142Y-88007976D01*
X179585952Y-87912738D01*
X179609761Y-87865119D01*
X179657380Y-87817500D01*
X179728809Y-87793690D01*
X179776428Y-87793690D01*
X179847857Y-87817500D01*
X179871666Y-87841309D01*
X180157380Y-88007976D02*
X180109761Y-87984166D01*
X180085952Y-87960357D01*
X180062142Y-87912738D01*
X180062142Y-87888928D01*
X180085952Y-87841309D01*
X180109761Y-87817500D01*
X180157380Y-87793690D01*
X180252619Y-87793690D01*
X180300238Y-87817500D01*
X180324047Y-87841309D01*
X180347857Y-87888928D01*
X180347857Y-87912738D01*
X180324047Y-87960357D01*
X180300238Y-87984166D01*
X180252619Y-88007976D01*
X180157380Y-88007976D01*
X180109761Y-88031785D01*
X180085952Y-88055595D01*
X180062142Y-88103214D01*
X180062142Y-88198452D01*
X180085952Y-88246071D01*
X180109761Y-88269880D01*
X180157380Y-88293690D01*
X180252619Y-88293690D01*
X180300238Y-88269880D01*
X180324047Y-88246071D01*
X180347857Y-88198452D01*
X180347857Y-88103214D01*
X180324047Y-88055595D01*
X180300238Y-88031785D01*
X180252619Y-88007976D01*
X164250000Y-48640952D02*
X164226190Y-48688571D01*
X164226190Y-48760000D01*
X164250000Y-48831428D01*
X164297619Y-48879047D01*
X164345238Y-48902857D01*
X164440476Y-48926666D01*
X164511904Y-48926666D01*
X164607142Y-48902857D01*
X164654761Y-48879047D01*
X164702380Y-48831428D01*
X164726190Y-48760000D01*
X164726190Y-48712380D01*
X164702380Y-48640952D01*
X164678571Y-48617142D01*
X164511904Y-48617142D01*
X164511904Y-48712380D01*
X164726190Y-48402857D02*
X164226190Y-48402857D01*
X164726190Y-48117142D01*
X164226190Y-48117142D01*
X164726190Y-47879047D02*
X164226190Y-47879047D01*
X164226190Y-47760000D01*
X164250000Y-47688571D01*
X164297619Y-47640952D01*
X164345238Y-47617142D01*
X164440476Y-47593333D01*
X164511904Y-47593333D01*
X164607142Y-47617142D01*
X164654761Y-47640952D01*
X164702380Y-47688571D01*
X164726190Y-47760000D01*
X164726190Y-47879047D01*
X180748809Y-47402857D02*
X181248809Y-47402857D01*
X181248809Y-47593333D01*
X181225000Y-47640952D01*
X181201190Y-47664761D01*
X181153571Y-47688571D01*
X181082142Y-47688571D01*
X181034523Y-47664761D01*
X181010714Y-47640952D01*
X180986904Y-47593333D01*
X180986904Y-47402857D01*
X180796428Y-48188571D02*
X180772619Y-48164761D01*
X180748809Y-48093333D01*
X180748809Y-48045714D01*
X180772619Y-47974285D01*
X180820238Y-47926666D01*
X180867857Y-47902857D01*
X180963095Y-47879047D01*
X181034523Y-47879047D01*
X181129761Y-47902857D01*
X181177380Y-47926666D01*
X181225000Y-47974285D01*
X181248809Y-48045714D01*
X181248809Y-48093333D01*
X181225000Y-48164761D01*
X181201190Y-48188571D01*
X180748809Y-48664761D02*
X180748809Y-48379047D01*
X180748809Y-48521904D02*
X181248809Y-48521904D01*
X181177380Y-48474285D01*
X181129761Y-48426666D01*
X181105952Y-48379047D01*
X181248809Y-48831428D02*
X181248809Y-49140952D01*
X181058333Y-48974285D01*
X181058333Y-49045714D01*
X181034523Y-49093333D01*
X181010714Y-49117142D01*
X180963095Y-49140952D01*
X180844047Y-49140952D01*
X180796428Y-49117142D01*
X180772619Y-49093333D01*
X180748809Y-49045714D01*
X180748809Y-48902857D01*
X180772619Y-48855238D01*
X180796428Y-48831428D01*
X180748809Y-50180952D02*
X181248809Y-50180952D01*
X181248809Y-50371428D01*
X181225000Y-50419047D01*
X181201190Y-50442857D01*
X181153571Y-50466666D01*
X181082142Y-50466666D01*
X181034523Y-50442857D01*
X181010714Y-50419047D01*
X180986904Y-50371428D01*
X180986904Y-50180952D01*
X181010714Y-50847619D02*
X180986904Y-50919047D01*
X180963095Y-50942857D01*
X180915476Y-50966666D01*
X180844047Y-50966666D01*
X180796428Y-50942857D01*
X180772619Y-50919047D01*
X180748809Y-50871428D01*
X180748809Y-50680952D01*
X181248809Y-50680952D01*
X181248809Y-50847619D01*
X181225000Y-50895238D01*
X181201190Y-50919047D01*
X181153571Y-50942857D01*
X181105952Y-50942857D01*
X181058333Y-50919047D01*
X181034523Y-50895238D01*
X181010714Y-50847619D01*
X181010714Y-50680952D01*
X180748809Y-51204761D02*
X180748809Y-51300000D01*
X180772619Y-51347619D01*
X180796428Y-51371428D01*
X180867857Y-51419047D01*
X180963095Y-51442857D01*
X181153571Y-51442857D01*
X181201190Y-51419047D01*
X181225000Y-51395238D01*
X181248809Y-51347619D01*
X181248809Y-51252380D01*
X181225000Y-51204761D01*
X181201190Y-51180952D01*
X181153571Y-51157142D01*
X181034523Y-51157142D01*
X180986904Y-51180952D01*
X180963095Y-51204761D01*
X180939285Y-51252380D01*
X180939285Y-51347619D01*
X180963095Y-51395238D01*
X180986904Y-51419047D01*
X181034523Y-51442857D01*
X180748809Y-52720952D02*
X181248809Y-52720952D01*
X181248809Y-52911428D01*
X181225000Y-52959047D01*
X181201190Y-52982857D01*
X181153571Y-53006666D01*
X181082142Y-53006666D01*
X181034523Y-52982857D01*
X181010714Y-52959047D01*
X180986904Y-52911428D01*
X180986904Y-52720952D01*
X181010714Y-53387619D02*
X180986904Y-53459047D01*
X180963095Y-53482857D01*
X180915476Y-53506666D01*
X180844047Y-53506666D01*
X180796428Y-53482857D01*
X180772619Y-53459047D01*
X180748809Y-53411428D01*
X180748809Y-53220952D01*
X181248809Y-53220952D01*
X181248809Y-53387619D01*
X181225000Y-53435238D01*
X181201190Y-53459047D01*
X181153571Y-53482857D01*
X181105952Y-53482857D01*
X181058333Y-53459047D01*
X181034523Y-53435238D01*
X181010714Y-53387619D01*
X181010714Y-53220952D01*
X181034523Y-53792380D02*
X181058333Y-53744761D01*
X181082142Y-53720952D01*
X181129761Y-53697142D01*
X181153571Y-53697142D01*
X181201190Y-53720952D01*
X181225000Y-53744761D01*
X181248809Y-53792380D01*
X181248809Y-53887619D01*
X181225000Y-53935238D01*
X181201190Y-53959047D01*
X181153571Y-53982857D01*
X181129761Y-53982857D01*
X181082142Y-53959047D01*
X181058333Y-53935238D01*
X181034523Y-53887619D01*
X181034523Y-53792380D01*
X181010714Y-53744761D01*
X180986904Y-53720952D01*
X180939285Y-53697142D01*
X180844047Y-53697142D01*
X180796428Y-53720952D01*
X180772619Y-53744761D01*
X180748809Y-53792380D01*
X180748809Y-53887619D01*
X180772619Y-53935238D01*
X180796428Y-53959047D01*
X180844047Y-53982857D01*
X180939285Y-53982857D01*
X180986904Y-53959047D01*
X181010714Y-53935238D01*
X181034523Y-53887619D01*
X180748809Y-55260952D02*
X181248809Y-55260952D01*
X181248809Y-55451428D01*
X181225000Y-55499047D01*
X181201190Y-55522857D01*
X181153571Y-55546666D01*
X181082142Y-55546666D01*
X181034523Y-55522857D01*
X181010714Y-55499047D01*
X180986904Y-55451428D01*
X180986904Y-55260952D01*
X181010714Y-55927619D02*
X180986904Y-55999047D01*
X180963095Y-56022857D01*
X180915476Y-56046666D01*
X180844047Y-56046666D01*
X180796428Y-56022857D01*
X180772619Y-55999047D01*
X180748809Y-55951428D01*
X180748809Y-55760952D01*
X181248809Y-55760952D01*
X181248809Y-55927619D01*
X181225000Y-55975238D01*
X181201190Y-55999047D01*
X181153571Y-56022857D01*
X181105952Y-56022857D01*
X181058333Y-55999047D01*
X181034523Y-55975238D01*
X181010714Y-55927619D01*
X181010714Y-55760952D01*
X181248809Y-56213333D02*
X181248809Y-56546666D01*
X180748809Y-56332380D01*
X180748809Y-57800952D02*
X181248809Y-57800952D01*
X181248809Y-57991428D01*
X181225000Y-58039047D01*
X181201190Y-58062857D01*
X181153571Y-58086666D01*
X181082142Y-58086666D01*
X181034523Y-58062857D01*
X181010714Y-58039047D01*
X180986904Y-57991428D01*
X180986904Y-57800952D01*
X181010714Y-58467619D02*
X180986904Y-58539047D01*
X180963095Y-58562857D01*
X180915476Y-58586666D01*
X180844047Y-58586666D01*
X180796428Y-58562857D01*
X180772619Y-58539047D01*
X180748809Y-58491428D01*
X180748809Y-58300952D01*
X181248809Y-58300952D01*
X181248809Y-58467619D01*
X181225000Y-58515238D01*
X181201190Y-58539047D01*
X181153571Y-58562857D01*
X181105952Y-58562857D01*
X181058333Y-58539047D01*
X181034523Y-58515238D01*
X181010714Y-58467619D01*
X181010714Y-58300952D01*
X181248809Y-59015238D02*
X181248809Y-58920000D01*
X181225000Y-58872380D01*
X181201190Y-58848571D01*
X181129761Y-58800952D01*
X181034523Y-58777142D01*
X180844047Y-58777142D01*
X180796428Y-58800952D01*
X180772619Y-58824761D01*
X180748809Y-58872380D01*
X180748809Y-58967619D01*
X180772619Y-59015238D01*
X180796428Y-59039047D01*
X180844047Y-59062857D01*
X180963095Y-59062857D01*
X181010714Y-59039047D01*
X181034523Y-59015238D01*
X181058333Y-58967619D01*
X181058333Y-58872380D01*
X181034523Y-58824761D01*
X181010714Y-58800952D01*
X180963095Y-58777142D01*
X180748809Y-60340952D02*
X181248809Y-60340952D01*
X181248809Y-60531428D01*
X181225000Y-60579047D01*
X181201190Y-60602857D01*
X181153571Y-60626666D01*
X181082142Y-60626666D01*
X181034523Y-60602857D01*
X181010714Y-60579047D01*
X180986904Y-60531428D01*
X180986904Y-60340952D01*
X181010714Y-61007619D02*
X180986904Y-61079047D01*
X180963095Y-61102857D01*
X180915476Y-61126666D01*
X180844047Y-61126666D01*
X180796428Y-61102857D01*
X180772619Y-61079047D01*
X180748809Y-61031428D01*
X180748809Y-60840952D01*
X181248809Y-60840952D01*
X181248809Y-61007619D01*
X181225000Y-61055238D01*
X181201190Y-61079047D01*
X181153571Y-61102857D01*
X181105952Y-61102857D01*
X181058333Y-61079047D01*
X181034523Y-61055238D01*
X181010714Y-61007619D01*
X181010714Y-60840952D01*
X181248809Y-61579047D02*
X181248809Y-61340952D01*
X181010714Y-61317142D01*
X181034523Y-61340952D01*
X181058333Y-61388571D01*
X181058333Y-61507619D01*
X181034523Y-61555238D01*
X181010714Y-61579047D01*
X180963095Y-61602857D01*
X180844047Y-61602857D01*
X180796428Y-61579047D01*
X180772619Y-61555238D01*
X180748809Y-61507619D01*
X180748809Y-61388571D01*
X180772619Y-61340952D01*
X180796428Y-61317142D01*
X180748809Y-62880952D02*
X181248809Y-62880952D01*
X181248809Y-63071428D01*
X181225000Y-63119047D01*
X181201190Y-63142857D01*
X181153571Y-63166666D01*
X181082142Y-63166666D01*
X181034523Y-63142857D01*
X181010714Y-63119047D01*
X180986904Y-63071428D01*
X180986904Y-62880952D01*
X181010714Y-63547619D02*
X180986904Y-63619047D01*
X180963095Y-63642857D01*
X180915476Y-63666666D01*
X180844047Y-63666666D01*
X180796428Y-63642857D01*
X180772619Y-63619047D01*
X180748809Y-63571428D01*
X180748809Y-63380952D01*
X181248809Y-63380952D01*
X181248809Y-63547619D01*
X181225000Y-63595238D01*
X181201190Y-63619047D01*
X181153571Y-63642857D01*
X181105952Y-63642857D01*
X181058333Y-63619047D01*
X181034523Y-63595238D01*
X181010714Y-63547619D01*
X181010714Y-63380952D01*
X181082142Y-64095238D02*
X180748809Y-64095238D01*
X181272619Y-63976190D02*
X180915476Y-63857142D01*
X180915476Y-64166666D01*
X180748809Y-65420952D02*
X181248809Y-65420952D01*
X181248809Y-65611428D01*
X181225000Y-65659047D01*
X181201190Y-65682857D01*
X181153571Y-65706666D01*
X181082142Y-65706666D01*
X181034523Y-65682857D01*
X181010714Y-65659047D01*
X180986904Y-65611428D01*
X180986904Y-65420952D01*
X180748809Y-65920952D02*
X181248809Y-65920952D01*
X181248809Y-66040000D01*
X181225000Y-66111428D01*
X181177380Y-66159047D01*
X181129761Y-66182857D01*
X181034523Y-66206666D01*
X180963095Y-66206666D01*
X180867857Y-66182857D01*
X180820238Y-66159047D01*
X180772619Y-66111428D01*
X180748809Y-66040000D01*
X180748809Y-65920952D01*
X181201190Y-66397142D02*
X181225000Y-66420952D01*
X181248809Y-66468571D01*
X181248809Y-66587619D01*
X181225000Y-66635238D01*
X181201190Y-66659047D01*
X181153571Y-66682857D01*
X181105952Y-66682857D01*
X181034523Y-66659047D01*
X180748809Y-66373333D01*
X180748809Y-66682857D01*
X180748809Y-67722857D02*
X181248809Y-67722857D01*
X181248809Y-67913333D01*
X181225000Y-67960952D01*
X181201190Y-67984761D01*
X181153571Y-68008571D01*
X181082142Y-68008571D01*
X181034523Y-67984761D01*
X181010714Y-67960952D01*
X180986904Y-67913333D01*
X180986904Y-67722857D01*
X180796428Y-68508571D02*
X180772619Y-68484761D01*
X180748809Y-68413333D01*
X180748809Y-68365714D01*
X180772619Y-68294285D01*
X180820238Y-68246666D01*
X180867857Y-68222857D01*
X180963095Y-68199047D01*
X181034523Y-68199047D01*
X181129761Y-68222857D01*
X181177380Y-68246666D01*
X181225000Y-68294285D01*
X181248809Y-68365714D01*
X181248809Y-68413333D01*
X181225000Y-68484761D01*
X181201190Y-68508571D01*
X180748809Y-68984761D02*
X180748809Y-68699047D01*
X180748809Y-68841904D02*
X181248809Y-68841904D01*
X181177380Y-68794285D01*
X181129761Y-68746666D01*
X181105952Y-68699047D01*
X181201190Y-69175238D02*
X181225000Y-69199047D01*
X181248809Y-69246666D01*
X181248809Y-69365714D01*
X181225000Y-69413333D01*
X181201190Y-69437142D01*
X181153571Y-69460952D01*
X181105952Y-69460952D01*
X181034523Y-69437142D01*
X180748809Y-69151428D01*
X180748809Y-69460952D01*
X180748809Y-70262857D02*
X181248809Y-70262857D01*
X181248809Y-70453333D01*
X181225000Y-70500952D01*
X181201190Y-70524761D01*
X181153571Y-70548571D01*
X181082142Y-70548571D01*
X181034523Y-70524761D01*
X181010714Y-70500952D01*
X180986904Y-70453333D01*
X180986904Y-70262857D01*
X180796428Y-71048571D02*
X180772619Y-71024761D01*
X180748809Y-70953333D01*
X180748809Y-70905714D01*
X180772619Y-70834285D01*
X180820238Y-70786666D01*
X180867857Y-70762857D01*
X180963095Y-70739047D01*
X181034523Y-70739047D01*
X181129761Y-70762857D01*
X181177380Y-70786666D01*
X181225000Y-70834285D01*
X181248809Y-70905714D01*
X181248809Y-70953333D01*
X181225000Y-71024761D01*
X181201190Y-71048571D01*
X180748809Y-71524761D02*
X180748809Y-71239047D01*
X180748809Y-71381904D02*
X181248809Y-71381904D01*
X181177380Y-71334285D01*
X181129761Y-71286666D01*
X181105952Y-71239047D01*
X180748809Y-72000952D02*
X180748809Y-71715238D01*
X180748809Y-71858095D02*
X181248809Y-71858095D01*
X181177380Y-71810476D01*
X181129761Y-71762857D01*
X181105952Y-71715238D01*
X180748809Y-72802857D02*
X181248809Y-72802857D01*
X181248809Y-72993333D01*
X181225000Y-73040952D01*
X181201190Y-73064761D01*
X181153571Y-73088571D01*
X181082142Y-73088571D01*
X181034523Y-73064761D01*
X181010714Y-73040952D01*
X180986904Y-72993333D01*
X180986904Y-72802857D01*
X180796428Y-73588571D02*
X180772619Y-73564761D01*
X180748809Y-73493333D01*
X180748809Y-73445714D01*
X180772619Y-73374285D01*
X180820238Y-73326666D01*
X180867857Y-73302857D01*
X180963095Y-73279047D01*
X181034523Y-73279047D01*
X181129761Y-73302857D01*
X181177380Y-73326666D01*
X181225000Y-73374285D01*
X181248809Y-73445714D01*
X181248809Y-73493333D01*
X181225000Y-73564761D01*
X181201190Y-73588571D01*
X180748809Y-74064761D02*
X180748809Y-73779047D01*
X180748809Y-73921904D02*
X181248809Y-73921904D01*
X181177380Y-73874285D01*
X181129761Y-73826666D01*
X181105952Y-73779047D01*
X181248809Y-74374285D02*
X181248809Y-74421904D01*
X181225000Y-74469523D01*
X181201190Y-74493333D01*
X181153571Y-74517142D01*
X181058333Y-74540952D01*
X180939285Y-74540952D01*
X180844047Y-74517142D01*
X180796428Y-74493333D01*
X180772619Y-74469523D01*
X180748809Y-74421904D01*
X180748809Y-74374285D01*
X180772619Y-74326666D01*
X180796428Y-74302857D01*
X180844047Y-74279047D01*
X180939285Y-74255238D01*
X181058333Y-74255238D01*
X181153571Y-74279047D01*
X181201190Y-74302857D01*
X181225000Y-74326666D01*
X181248809Y-74374285D01*
X180748809Y-75378571D02*
X181248809Y-75378571D01*
X181248809Y-75569047D01*
X181225000Y-75616666D01*
X181201190Y-75640476D01*
X181153571Y-75664285D01*
X181082142Y-75664285D01*
X181034523Y-75640476D01*
X181010714Y-75616666D01*
X180986904Y-75569047D01*
X180986904Y-75378571D01*
X180891666Y-75854761D02*
X180891666Y-76092857D01*
X180748809Y-75807142D02*
X181248809Y-75973809D01*
X180748809Y-76140476D01*
X180748809Y-76569047D02*
X180748809Y-76283333D01*
X180748809Y-76426190D02*
X181248809Y-76426190D01*
X181177380Y-76378571D01*
X181129761Y-76330952D01*
X181105952Y-76283333D01*
X181248809Y-77021428D02*
X181248809Y-76783333D01*
X181010714Y-76759523D01*
X181034523Y-76783333D01*
X181058333Y-76830952D01*
X181058333Y-76950000D01*
X181034523Y-76997619D01*
X181010714Y-77021428D01*
X180963095Y-77045238D01*
X180844047Y-77045238D01*
X180796428Y-77021428D01*
X180772619Y-76997619D01*
X180748809Y-76950000D01*
X180748809Y-76830952D01*
X180772619Y-76783333D01*
X180796428Y-76759523D01*
X180748809Y-77918571D02*
X181248809Y-77918571D01*
X181248809Y-78109047D01*
X181225000Y-78156666D01*
X181201190Y-78180476D01*
X181153571Y-78204285D01*
X181082142Y-78204285D01*
X181034523Y-78180476D01*
X181010714Y-78156666D01*
X180986904Y-78109047D01*
X180986904Y-77918571D01*
X180891666Y-78394761D02*
X180891666Y-78632857D01*
X180748809Y-78347142D02*
X181248809Y-78513809D01*
X180748809Y-78680476D01*
X180748809Y-79109047D02*
X180748809Y-78823333D01*
X180748809Y-78966190D02*
X181248809Y-78966190D01*
X181177380Y-78918571D01*
X181129761Y-78870952D01*
X181105952Y-78823333D01*
X181201190Y-79299523D02*
X181225000Y-79323333D01*
X181248809Y-79370952D01*
X181248809Y-79490000D01*
X181225000Y-79537619D01*
X181201190Y-79561428D01*
X181153571Y-79585238D01*
X181105952Y-79585238D01*
X181034523Y-79561428D01*
X180748809Y-79275714D01*
X180748809Y-79585238D01*
X180748809Y-80458571D02*
X181248809Y-80458571D01*
X181248809Y-80649047D01*
X181225000Y-80696666D01*
X181201190Y-80720476D01*
X181153571Y-80744285D01*
X181082142Y-80744285D01*
X181034523Y-80720476D01*
X181010714Y-80696666D01*
X180986904Y-80649047D01*
X180986904Y-80458571D01*
X180891666Y-80934761D02*
X180891666Y-81172857D01*
X180748809Y-80887142D02*
X181248809Y-81053809D01*
X180748809Y-81220476D01*
X180748809Y-81649047D02*
X180748809Y-81363333D01*
X180748809Y-81506190D02*
X181248809Y-81506190D01*
X181177380Y-81458571D01*
X181129761Y-81410952D01*
X181105952Y-81363333D01*
X180748809Y-82125238D02*
X180748809Y-81839523D01*
X180748809Y-81982380D02*
X181248809Y-81982380D01*
X181177380Y-81934761D01*
X181129761Y-81887142D01*
X181105952Y-81839523D01*
X180748809Y-82998571D02*
X181248809Y-82998571D01*
X181248809Y-83189047D01*
X181225000Y-83236666D01*
X181201190Y-83260476D01*
X181153571Y-83284285D01*
X181082142Y-83284285D01*
X181034523Y-83260476D01*
X181010714Y-83236666D01*
X180986904Y-83189047D01*
X180986904Y-82998571D01*
X180891666Y-83474761D02*
X180891666Y-83712857D01*
X180748809Y-83427142D02*
X181248809Y-83593809D01*
X180748809Y-83760476D01*
X180748809Y-84189047D02*
X180748809Y-83903333D01*
X180748809Y-84046190D02*
X181248809Y-84046190D01*
X181177380Y-83998571D01*
X181129761Y-83950952D01*
X181105952Y-83903333D01*
X181248809Y-84498571D02*
X181248809Y-84546190D01*
X181225000Y-84593809D01*
X181201190Y-84617619D01*
X181153571Y-84641428D01*
X181058333Y-84665238D01*
X180939285Y-84665238D01*
X180844047Y-84641428D01*
X180796428Y-84617619D01*
X180772619Y-84593809D01*
X180748809Y-84546190D01*
X180748809Y-84498571D01*
X180772619Y-84450952D01*
X180796428Y-84427142D01*
X180844047Y-84403333D01*
X180939285Y-84379523D01*
X181058333Y-84379523D01*
X181153571Y-84403333D01*
X181201190Y-84427142D01*
X181225000Y-84450952D01*
X181248809Y-84498571D01*
X180748809Y-85776666D02*
X181248809Y-85776666D01*
X181248809Y-85967142D01*
X181225000Y-86014761D01*
X181201190Y-86038571D01*
X181153571Y-86062380D01*
X181082142Y-86062380D01*
X181034523Y-86038571D01*
X181010714Y-86014761D01*
X180986904Y-85967142D01*
X180986904Y-85776666D01*
X180891666Y-86252857D02*
X180891666Y-86490952D01*
X180748809Y-86205238D02*
X181248809Y-86371904D01*
X180748809Y-86538571D01*
X180748809Y-86729047D02*
X180748809Y-86824285D01*
X180772619Y-86871904D01*
X180796428Y-86895714D01*
X180867857Y-86943333D01*
X180963095Y-86967142D01*
X181153571Y-86967142D01*
X181201190Y-86943333D01*
X181225000Y-86919523D01*
X181248809Y-86871904D01*
X181248809Y-86776666D01*
X181225000Y-86729047D01*
X181201190Y-86705238D01*
X181153571Y-86681428D01*
X181034523Y-86681428D01*
X180986904Y-86705238D01*
X180963095Y-86729047D01*
X180939285Y-86776666D01*
X180939285Y-86871904D01*
X180963095Y-86919523D01*
X180986904Y-86943333D01*
X181034523Y-86967142D01*
X180748809Y-93360952D02*
X181248809Y-93360952D01*
X181248809Y-93551428D01*
X181225000Y-93599047D01*
X181201190Y-93622857D01*
X181153571Y-93646666D01*
X181082142Y-93646666D01*
X181034523Y-93622857D01*
X181010714Y-93599047D01*
X180986904Y-93551428D01*
X180986904Y-93360952D01*
X180796428Y-94146666D02*
X180772619Y-94122857D01*
X180748809Y-94051428D01*
X180748809Y-94003809D01*
X180772619Y-93932380D01*
X180820238Y-93884761D01*
X180867857Y-93860952D01*
X180963095Y-93837142D01*
X181034523Y-93837142D01*
X181129761Y-93860952D01*
X181177380Y-93884761D01*
X181225000Y-93932380D01*
X181248809Y-94003809D01*
X181248809Y-94051428D01*
X181225000Y-94122857D01*
X181201190Y-94146666D01*
X181034523Y-94432380D02*
X181058333Y-94384761D01*
X181082142Y-94360952D01*
X181129761Y-94337142D01*
X181153571Y-94337142D01*
X181201190Y-94360952D01*
X181225000Y-94384761D01*
X181248809Y-94432380D01*
X181248809Y-94527619D01*
X181225000Y-94575238D01*
X181201190Y-94599047D01*
X181153571Y-94622857D01*
X181129761Y-94622857D01*
X181082142Y-94599047D01*
X181058333Y-94575238D01*
X181034523Y-94527619D01*
X181034523Y-94432380D01*
X181010714Y-94384761D01*
X180986904Y-94360952D01*
X180939285Y-94337142D01*
X180844047Y-94337142D01*
X180796428Y-94360952D01*
X180772619Y-94384761D01*
X180748809Y-94432380D01*
X180748809Y-94527619D01*
X180772619Y-94575238D01*
X180796428Y-94599047D01*
X180844047Y-94622857D01*
X180939285Y-94622857D01*
X180986904Y-94599047D01*
X181010714Y-94575238D01*
X181034523Y-94527619D01*
X180748809Y-95900952D02*
X181248809Y-95900952D01*
X181248809Y-96091428D01*
X181225000Y-96139047D01*
X181201190Y-96162857D01*
X181153571Y-96186666D01*
X181082142Y-96186666D01*
X181034523Y-96162857D01*
X181010714Y-96139047D01*
X180986904Y-96091428D01*
X180986904Y-95900952D01*
X180796428Y-96686666D02*
X180772619Y-96662857D01*
X180748809Y-96591428D01*
X180748809Y-96543809D01*
X180772619Y-96472380D01*
X180820238Y-96424761D01*
X180867857Y-96400952D01*
X180963095Y-96377142D01*
X181034523Y-96377142D01*
X181129761Y-96400952D01*
X181177380Y-96424761D01*
X181225000Y-96472380D01*
X181248809Y-96543809D01*
X181248809Y-96591428D01*
X181225000Y-96662857D01*
X181201190Y-96686666D01*
X181248809Y-96853333D02*
X181248809Y-97186666D01*
X180748809Y-96972380D01*
X180748809Y-98440952D02*
X181248809Y-98440952D01*
X181248809Y-98631428D01*
X181225000Y-98679047D01*
X181201190Y-98702857D01*
X181153571Y-98726666D01*
X181082142Y-98726666D01*
X181034523Y-98702857D01*
X181010714Y-98679047D01*
X180986904Y-98631428D01*
X180986904Y-98440952D01*
X180796428Y-99226666D02*
X180772619Y-99202857D01*
X180748809Y-99131428D01*
X180748809Y-99083809D01*
X180772619Y-99012380D01*
X180820238Y-98964761D01*
X180867857Y-98940952D01*
X180963095Y-98917142D01*
X181034523Y-98917142D01*
X181129761Y-98940952D01*
X181177380Y-98964761D01*
X181225000Y-99012380D01*
X181248809Y-99083809D01*
X181248809Y-99131428D01*
X181225000Y-99202857D01*
X181201190Y-99226666D01*
X181248809Y-99655238D02*
X181248809Y-99560000D01*
X181225000Y-99512380D01*
X181201190Y-99488571D01*
X181129761Y-99440952D01*
X181034523Y-99417142D01*
X180844047Y-99417142D01*
X180796428Y-99440952D01*
X180772619Y-99464761D01*
X180748809Y-99512380D01*
X180748809Y-99607619D01*
X180772619Y-99655238D01*
X180796428Y-99679047D01*
X180844047Y-99702857D01*
X180963095Y-99702857D01*
X181010714Y-99679047D01*
X181034523Y-99655238D01*
X181058333Y-99607619D01*
X181058333Y-99512380D01*
X181034523Y-99464761D01*
X181010714Y-99440952D01*
X180963095Y-99417142D01*
X180748809Y-100742857D02*
X181248809Y-100742857D01*
X181248809Y-100933333D01*
X181225000Y-100980952D01*
X181201190Y-101004761D01*
X181153571Y-101028571D01*
X181082142Y-101028571D01*
X181034523Y-101004761D01*
X181010714Y-100980952D01*
X180986904Y-100933333D01*
X180986904Y-100742857D01*
X181010714Y-101409523D02*
X180986904Y-101480952D01*
X180963095Y-101504761D01*
X180915476Y-101528571D01*
X180844047Y-101528571D01*
X180796428Y-101504761D01*
X180772619Y-101480952D01*
X180748809Y-101433333D01*
X180748809Y-101242857D01*
X181248809Y-101242857D01*
X181248809Y-101409523D01*
X181225000Y-101457142D01*
X181201190Y-101480952D01*
X181153571Y-101504761D01*
X181105952Y-101504761D01*
X181058333Y-101480952D01*
X181034523Y-101457142D01*
X181010714Y-101409523D01*
X181010714Y-101242857D01*
X180748809Y-102004761D02*
X180748809Y-101719047D01*
X180748809Y-101861904D02*
X181248809Y-101861904D01*
X181177380Y-101814285D01*
X181129761Y-101766666D01*
X181105952Y-101719047D01*
X181248809Y-102457142D02*
X181248809Y-102219047D01*
X181010714Y-102195238D01*
X181034523Y-102219047D01*
X181058333Y-102266666D01*
X181058333Y-102385714D01*
X181034523Y-102433333D01*
X181010714Y-102457142D01*
X180963095Y-102480952D01*
X180844047Y-102480952D01*
X180796428Y-102457142D01*
X180772619Y-102433333D01*
X180748809Y-102385714D01*
X180748809Y-102266666D01*
X180772619Y-102219047D01*
X180796428Y-102195238D01*
X180748809Y-103282857D02*
X181248809Y-103282857D01*
X181248809Y-103473333D01*
X181225000Y-103520952D01*
X181201190Y-103544761D01*
X181153571Y-103568571D01*
X181082142Y-103568571D01*
X181034523Y-103544761D01*
X181010714Y-103520952D01*
X180986904Y-103473333D01*
X180986904Y-103282857D01*
X181010714Y-103949523D02*
X180986904Y-104020952D01*
X180963095Y-104044761D01*
X180915476Y-104068571D01*
X180844047Y-104068571D01*
X180796428Y-104044761D01*
X180772619Y-104020952D01*
X180748809Y-103973333D01*
X180748809Y-103782857D01*
X181248809Y-103782857D01*
X181248809Y-103949523D01*
X181225000Y-103997142D01*
X181201190Y-104020952D01*
X181153571Y-104044761D01*
X181105952Y-104044761D01*
X181058333Y-104020952D01*
X181034523Y-103997142D01*
X181010714Y-103949523D01*
X181010714Y-103782857D01*
X180748809Y-104544761D02*
X180748809Y-104259047D01*
X180748809Y-104401904D02*
X181248809Y-104401904D01*
X181177380Y-104354285D01*
X181129761Y-104306666D01*
X181105952Y-104259047D01*
X181082142Y-104973333D02*
X180748809Y-104973333D01*
X181272619Y-104854285D02*
X180915476Y-104735238D01*
X180915476Y-105044761D01*
X181225000Y-106299047D02*
X181248809Y-106251428D01*
X181248809Y-106180000D01*
X181225000Y-106108571D01*
X181177380Y-106060952D01*
X181129761Y-106037142D01*
X181034523Y-106013333D01*
X180963095Y-106013333D01*
X180867857Y-106037142D01*
X180820238Y-106060952D01*
X180772619Y-106108571D01*
X180748809Y-106180000D01*
X180748809Y-106227619D01*
X180772619Y-106299047D01*
X180796428Y-106322857D01*
X180963095Y-106322857D01*
X180963095Y-106227619D01*
X180748809Y-106537142D02*
X181248809Y-106537142D01*
X180748809Y-106822857D01*
X181248809Y-106822857D01*
X180748809Y-107060952D02*
X181248809Y-107060952D01*
X181248809Y-107180000D01*
X181225000Y-107251428D01*
X181177380Y-107299047D01*
X181129761Y-107322857D01*
X181034523Y-107346666D01*
X180963095Y-107346666D01*
X180867857Y-107322857D01*
X180820238Y-107299047D01*
X180772619Y-107251428D01*
X180748809Y-107180000D01*
X180748809Y-107060952D01*
X164250000Y-107060952D02*
X164226190Y-107108571D01*
X164226190Y-107180000D01*
X164250000Y-107251428D01*
X164297619Y-107299047D01*
X164345238Y-107322857D01*
X164440476Y-107346666D01*
X164511904Y-107346666D01*
X164607142Y-107322857D01*
X164654761Y-107299047D01*
X164702380Y-107251428D01*
X164726190Y-107180000D01*
X164726190Y-107132380D01*
X164702380Y-107060952D01*
X164678571Y-107037142D01*
X164511904Y-107037142D01*
X164511904Y-107132380D01*
X164726190Y-106822857D02*
X164226190Y-106822857D01*
X164726190Y-106537142D01*
X164226190Y-106537142D01*
X164726190Y-106299047D02*
X164226190Y-106299047D01*
X164226190Y-106180000D01*
X164250000Y-106108571D01*
X164297619Y-106060952D01*
X164345238Y-106037142D01*
X164440476Y-106013333D01*
X164511904Y-106013333D01*
X164607142Y-106037142D01*
X164654761Y-106060952D01*
X164702380Y-106108571D01*
X164726190Y-106180000D01*
X164726190Y-106299047D01*
X164726190Y-104997142D02*
X164226190Y-104997142D01*
X164226190Y-104806666D01*
X164250000Y-104759047D01*
X164273809Y-104735238D01*
X164321428Y-104711428D01*
X164392857Y-104711428D01*
X164440476Y-104735238D01*
X164464285Y-104759047D01*
X164488095Y-104806666D01*
X164488095Y-104997142D01*
X164464285Y-104330476D02*
X164488095Y-104259047D01*
X164511904Y-104235238D01*
X164559523Y-104211428D01*
X164630952Y-104211428D01*
X164678571Y-104235238D01*
X164702380Y-104259047D01*
X164726190Y-104306666D01*
X164726190Y-104497142D01*
X164226190Y-104497142D01*
X164226190Y-104330476D01*
X164250000Y-104282857D01*
X164273809Y-104259047D01*
X164321428Y-104235238D01*
X164369047Y-104235238D01*
X164416666Y-104259047D01*
X164440476Y-104282857D01*
X164464285Y-104330476D01*
X164464285Y-104497142D01*
X164726190Y-103735238D02*
X164726190Y-104020952D01*
X164726190Y-103878095D02*
X164226190Y-103878095D01*
X164297619Y-103925714D01*
X164345238Y-103973333D01*
X164369047Y-104020952D01*
X164273809Y-103544761D02*
X164250000Y-103520952D01*
X164226190Y-103473333D01*
X164226190Y-103354285D01*
X164250000Y-103306666D01*
X164273809Y-103282857D01*
X164321428Y-103259047D01*
X164369047Y-103259047D01*
X164440476Y-103282857D01*
X164726190Y-103568571D01*
X164726190Y-103259047D01*
X164726190Y-102457142D02*
X164226190Y-102457142D01*
X164226190Y-102266666D01*
X164250000Y-102219047D01*
X164273809Y-102195238D01*
X164321428Y-102171428D01*
X164392857Y-102171428D01*
X164440476Y-102195238D01*
X164464285Y-102219047D01*
X164488095Y-102266666D01*
X164488095Y-102457142D01*
X164464285Y-101790476D02*
X164488095Y-101719047D01*
X164511904Y-101695238D01*
X164559523Y-101671428D01*
X164630952Y-101671428D01*
X164678571Y-101695238D01*
X164702380Y-101719047D01*
X164726190Y-101766666D01*
X164726190Y-101957142D01*
X164226190Y-101957142D01*
X164226190Y-101790476D01*
X164250000Y-101742857D01*
X164273809Y-101719047D01*
X164321428Y-101695238D01*
X164369047Y-101695238D01*
X164416666Y-101719047D01*
X164440476Y-101742857D01*
X164464285Y-101790476D01*
X164464285Y-101957142D01*
X164726190Y-101195238D02*
X164726190Y-101480952D01*
X164726190Y-101338095D02*
X164226190Y-101338095D01*
X164297619Y-101385714D01*
X164345238Y-101433333D01*
X164369047Y-101480952D01*
X164226190Y-101028571D02*
X164226190Y-100719047D01*
X164416666Y-100885714D01*
X164416666Y-100814285D01*
X164440476Y-100766666D01*
X164464285Y-100742857D01*
X164511904Y-100719047D01*
X164630952Y-100719047D01*
X164678571Y-100742857D01*
X164702380Y-100766666D01*
X164726190Y-100814285D01*
X164726190Y-100957142D01*
X164702380Y-101004761D01*
X164678571Y-101028571D01*
X164726190Y-99917142D02*
X164226190Y-99917142D01*
X164226190Y-99726666D01*
X164250000Y-99679047D01*
X164273809Y-99655238D01*
X164321428Y-99631428D01*
X164392857Y-99631428D01*
X164440476Y-99655238D01*
X164464285Y-99679047D01*
X164488095Y-99726666D01*
X164488095Y-99917142D01*
X164464285Y-99250476D02*
X164488095Y-99179047D01*
X164511904Y-99155238D01*
X164559523Y-99131428D01*
X164630952Y-99131428D01*
X164678571Y-99155238D01*
X164702380Y-99179047D01*
X164726190Y-99226666D01*
X164726190Y-99417142D01*
X164226190Y-99417142D01*
X164226190Y-99250476D01*
X164250000Y-99202857D01*
X164273809Y-99179047D01*
X164321428Y-99155238D01*
X164369047Y-99155238D01*
X164416666Y-99179047D01*
X164440476Y-99202857D01*
X164464285Y-99250476D01*
X164464285Y-99417142D01*
X164726190Y-98655238D02*
X164726190Y-98940952D01*
X164726190Y-98798095D02*
X164226190Y-98798095D01*
X164297619Y-98845714D01*
X164345238Y-98893333D01*
X164369047Y-98940952D01*
X164726190Y-98179047D02*
X164726190Y-98464761D01*
X164726190Y-98321904D02*
X164226190Y-98321904D01*
X164297619Y-98369523D01*
X164345238Y-98417142D01*
X164369047Y-98464761D01*
X164726190Y-97377142D02*
X164226190Y-97377142D01*
X164226190Y-97186666D01*
X164250000Y-97139047D01*
X164273809Y-97115238D01*
X164321428Y-97091428D01*
X164392857Y-97091428D01*
X164440476Y-97115238D01*
X164464285Y-97139047D01*
X164488095Y-97186666D01*
X164488095Y-97377142D01*
X164464285Y-96710476D02*
X164488095Y-96639047D01*
X164511904Y-96615238D01*
X164559523Y-96591428D01*
X164630952Y-96591428D01*
X164678571Y-96615238D01*
X164702380Y-96639047D01*
X164726190Y-96686666D01*
X164726190Y-96877142D01*
X164226190Y-96877142D01*
X164226190Y-96710476D01*
X164250000Y-96662857D01*
X164273809Y-96639047D01*
X164321428Y-96615238D01*
X164369047Y-96615238D01*
X164416666Y-96639047D01*
X164440476Y-96662857D01*
X164464285Y-96710476D01*
X164464285Y-96877142D01*
X164726190Y-96115238D02*
X164726190Y-96400952D01*
X164726190Y-96258095D02*
X164226190Y-96258095D01*
X164297619Y-96305714D01*
X164345238Y-96353333D01*
X164369047Y-96400952D01*
X164226190Y-95805714D02*
X164226190Y-95758095D01*
X164250000Y-95710476D01*
X164273809Y-95686666D01*
X164321428Y-95662857D01*
X164416666Y-95639047D01*
X164535714Y-95639047D01*
X164630952Y-95662857D01*
X164678571Y-95686666D01*
X164702380Y-95710476D01*
X164726190Y-95758095D01*
X164726190Y-95805714D01*
X164702380Y-95853333D01*
X164678571Y-95877142D01*
X164630952Y-95900952D01*
X164535714Y-95924761D01*
X164416666Y-95924761D01*
X164321428Y-95900952D01*
X164273809Y-95877142D01*
X164250000Y-95853333D01*
X164226190Y-95805714D01*
X164726190Y-94599047D02*
X164226190Y-94599047D01*
X164226190Y-94408571D01*
X164250000Y-94360952D01*
X164273809Y-94337142D01*
X164321428Y-94313333D01*
X164392857Y-94313333D01*
X164440476Y-94337142D01*
X164464285Y-94360952D01*
X164488095Y-94408571D01*
X164488095Y-94599047D01*
X164464285Y-93932380D02*
X164488095Y-93860952D01*
X164511904Y-93837142D01*
X164559523Y-93813333D01*
X164630952Y-93813333D01*
X164678571Y-93837142D01*
X164702380Y-93860952D01*
X164726190Y-93908571D01*
X164726190Y-94099047D01*
X164226190Y-94099047D01*
X164226190Y-93932380D01*
X164250000Y-93884761D01*
X164273809Y-93860952D01*
X164321428Y-93837142D01*
X164369047Y-93837142D01*
X164416666Y-93860952D01*
X164440476Y-93884761D01*
X164464285Y-93932380D01*
X164464285Y-94099047D01*
X164726190Y-93337142D02*
X164726190Y-93622857D01*
X164726190Y-93480000D02*
X164226190Y-93480000D01*
X164297619Y-93527619D01*
X164345238Y-93575238D01*
X164369047Y-93622857D01*
X164726190Y-92023333D02*
X164226190Y-92023333D01*
X164226190Y-91832857D01*
X164250000Y-91785238D01*
X164273809Y-91761428D01*
X164321428Y-91737619D01*
X164392857Y-91737619D01*
X164440476Y-91761428D01*
X164464285Y-91785238D01*
X164488095Y-91832857D01*
X164488095Y-92023333D01*
X164583333Y-91547142D02*
X164583333Y-91309047D01*
X164726190Y-91594761D02*
X164226190Y-91428095D01*
X164726190Y-91261428D01*
X164226190Y-91142380D02*
X164226190Y-90809047D01*
X164726190Y-91023333D01*
X164726190Y-89483333D02*
X164226190Y-89483333D01*
X164226190Y-89292857D01*
X164250000Y-89245238D01*
X164273809Y-89221428D01*
X164321428Y-89197619D01*
X164392857Y-89197619D01*
X164440476Y-89221428D01*
X164464285Y-89245238D01*
X164488095Y-89292857D01*
X164488095Y-89483333D01*
X164583333Y-89007142D02*
X164583333Y-88769047D01*
X164726190Y-89054761D02*
X164226190Y-88888095D01*
X164726190Y-88721428D01*
X164226190Y-88340476D02*
X164226190Y-88435714D01*
X164250000Y-88483333D01*
X164273809Y-88507142D01*
X164345238Y-88554761D01*
X164440476Y-88578571D01*
X164630952Y-88578571D01*
X164678571Y-88554761D01*
X164702380Y-88530952D01*
X164726190Y-88483333D01*
X164726190Y-88388095D01*
X164702380Y-88340476D01*
X164678571Y-88316666D01*
X164630952Y-88292857D01*
X164511904Y-88292857D01*
X164464285Y-88316666D01*
X164440476Y-88340476D01*
X164416666Y-88388095D01*
X164416666Y-88483333D01*
X164440476Y-88530952D01*
X164464285Y-88554761D01*
X164511904Y-88578571D01*
X164726190Y-86943333D02*
X164226190Y-86943333D01*
X164226190Y-86752857D01*
X164250000Y-86705238D01*
X164273809Y-86681428D01*
X164321428Y-86657619D01*
X164392857Y-86657619D01*
X164440476Y-86681428D01*
X164464285Y-86705238D01*
X164488095Y-86752857D01*
X164488095Y-86943333D01*
X164583333Y-86467142D02*
X164583333Y-86229047D01*
X164726190Y-86514761D02*
X164226190Y-86348095D01*
X164726190Y-86181428D01*
X164226190Y-85776666D02*
X164226190Y-86014761D01*
X164464285Y-86038571D01*
X164440476Y-86014761D01*
X164416666Y-85967142D01*
X164416666Y-85848095D01*
X164440476Y-85800476D01*
X164464285Y-85776666D01*
X164511904Y-85752857D01*
X164630952Y-85752857D01*
X164678571Y-85776666D01*
X164702380Y-85800476D01*
X164726190Y-85848095D01*
X164726190Y-85967142D01*
X164702380Y-86014761D01*
X164678571Y-86038571D01*
X164726190Y-84403333D02*
X164226190Y-84403333D01*
X164226190Y-84212857D01*
X164250000Y-84165238D01*
X164273809Y-84141428D01*
X164321428Y-84117619D01*
X164392857Y-84117619D01*
X164440476Y-84141428D01*
X164464285Y-84165238D01*
X164488095Y-84212857D01*
X164488095Y-84403333D01*
X164583333Y-83927142D02*
X164583333Y-83689047D01*
X164726190Y-83974761D02*
X164226190Y-83808095D01*
X164726190Y-83641428D01*
X164392857Y-83260476D02*
X164726190Y-83260476D01*
X164202380Y-83379523D02*
X164559523Y-83498571D01*
X164559523Y-83189047D01*
X164726190Y-81899047D02*
X164226190Y-81899047D01*
X164226190Y-81708571D01*
X164250000Y-81660952D01*
X164273809Y-81637142D01*
X164321428Y-81613333D01*
X164392857Y-81613333D01*
X164440476Y-81637142D01*
X164464285Y-81660952D01*
X164488095Y-81708571D01*
X164488095Y-81899047D01*
X164678571Y-81113333D02*
X164702380Y-81137142D01*
X164726190Y-81208571D01*
X164726190Y-81256190D01*
X164702380Y-81327619D01*
X164654761Y-81375238D01*
X164607142Y-81399047D01*
X164511904Y-81422857D01*
X164440476Y-81422857D01*
X164345238Y-81399047D01*
X164297619Y-81375238D01*
X164250000Y-81327619D01*
X164226190Y-81256190D01*
X164226190Y-81208571D01*
X164250000Y-81137142D01*
X164273809Y-81113333D01*
X164392857Y-80684761D02*
X164726190Y-80684761D01*
X164202380Y-80803809D02*
X164559523Y-80922857D01*
X164559523Y-80613333D01*
X164726190Y-79359047D02*
X164226190Y-79359047D01*
X164226190Y-79168571D01*
X164250000Y-79120952D01*
X164273809Y-79097142D01*
X164321428Y-79073333D01*
X164392857Y-79073333D01*
X164440476Y-79097142D01*
X164464285Y-79120952D01*
X164488095Y-79168571D01*
X164488095Y-79359047D01*
X164678571Y-78573333D02*
X164702380Y-78597142D01*
X164726190Y-78668571D01*
X164726190Y-78716190D01*
X164702380Y-78787619D01*
X164654761Y-78835238D01*
X164607142Y-78859047D01*
X164511904Y-78882857D01*
X164440476Y-78882857D01*
X164345238Y-78859047D01*
X164297619Y-78835238D01*
X164250000Y-78787619D01*
X164226190Y-78716190D01*
X164226190Y-78668571D01*
X164250000Y-78597142D01*
X164273809Y-78573333D01*
X164226190Y-78120952D02*
X164226190Y-78359047D01*
X164464285Y-78382857D01*
X164440476Y-78359047D01*
X164416666Y-78311428D01*
X164416666Y-78192380D01*
X164440476Y-78144761D01*
X164464285Y-78120952D01*
X164511904Y-78097142D01*
X164630952Y-78097142D01*
X164678571Y-78120952D01*
X164702380Y-78144761D01*
X164726190Y-78192380D01*
X164726190Y-78311428D01*
X164702380Y-78359047D01*
X164678571Y-78382857D01*
X164726190Y-76819047D02*
X164226190Y-76819047D01*
X164226190Y-76628571D01*
X164250000Y-76580952D01*
X164273809Y-76557142D01*
X164321428Y-76533333D01*
X164392857Y-76533333D01*
X164440476Y-76557142D01*
X164464285Y-76580952D01*
X164488095Y-76628571D01*
X164488095Y-76819047D01*
X164464285Y-76152380D02*
X164488095Y-76080952D01*
X164511904Y-76057142D01*
X164559523Y-76033333D01*
X164630952Y-76033333D01*
X164678571Y-76057142D01*
X164702380Y-76080952D01*
X164726190Y-76128571D01*
X164726190Y-76319047D01*
X164226190Y-76319047D01*
X164226190Y-76152380D01*
X164250000Y-76104761D01*
X164273809Y-76080952D01*
X164321428Y-76057142D01*
X164369047Y-76057142D01*
X164416666Y-76080952D01*
X164440476Y-76104761D01*
X164464285Y-76152380D01*
X164464285Y-76319047D01*
X164226190Y-75723809D02*
X164226190Y-75676190D01*
X164250000Y-75628571D01*
X164273809Y-75604761D01*
X164321428Y-75580952D01*
X164416666Y-75557142D01*
X164535714Y-75557142D01*
X164630952Y-75580952D01*
X164678571Y-75604761D01*
X164702380Y-75628571D01*
X164726190Y-75676190D01*
X164726190Y-75723809D01*
X164702380Y-75771428D01*
X164678571Y-75795238D01*
X164630952Y-75819047D01*
X164535714Y-75842857D01*
X164416666Y-75842857D01*
X164321428Y-75819047D01*
X164273809Y-75795238D01*
X164250000Y-75771428D01*
X164226190Y-75723809D01*
X164726190Y-74243333D02*
X164226190Y-74243333D01*
X164226190Y-74052857D01*
X164250000Y-74005238D01*
X164273809Y-73981428D01*
X164321428Y-73957619D01*
X164392857Y-73957619D01*
X164440476Y-73981428D01*
X164464285Y-74005238D01*
X164488095Y-74052857D01*
X164488095Y-74243333D01*
X164583333Y-73767142D02*
X164583333Y-73529047D01*
X164726190Y-73814761D02*
X164226190Y-73648095D01*
X164726190Y-73481428D01*
X164226190Y-73362380D02*
X164226190Y-73052857D01*
X164416666Y-73219523D01*
X164416666Y-73148095D01*
X164440476Y-73100476D01*
X164464285Y-73076666D01*
X164511904Y-73052857D01*
X164630952Y-73052857D01*
X164678571Y-73076666D01*
X164702380Y-73100476D01*
X164726190Y-73148095D01*
X164726190Y-73290952D01*
X164702380Y-73338571D01*
X164678571Y-73362380D01*
X164726190Y-71703333D02*
X164226190Y-71703333D01*
X164226190Y-71512857D01*
X164250000Y-71465238D01*
X164273809Y-71441428D01*
X164321428Y-71417619D01*
X164392857Y-71417619D01*
X164440476Y-71441428D01*
X164464285Y-71465238D01*
X164488095Y-71512857D01*
X164488095Y-71703333D01*
X164583333Y-71227142D02*
X164583333Y-70989047D01*
X164726190Y-71274761D02*
X164226190Y-71108095D01*
X164726190Y-70941428D01*
X164273809Y-70798571D02*
X164250000Y-70774761D01*
X164226190Y-70727142D01*
X164226190Y-70608095D01*
X164250000Y-70560476D01*
X164273809Y-70536666D01*
X164321428Y-70512857D01*
X164369047Y-70512857D01*
X164440476Y-70536666D01*
X164726190Y-70822380D01*
X164726190Y-70512857D01*
X164726190Y-69163333D02*
X164226190Y-69163333D01*
X164226190Y-68972857D01*
X164250000Y-68925238D01*
X164273809Y-68901428D01*
X164321428Y-68877619D01*
X164392857Y-68877619D01*
X164440476Y-68901428D01*
X164464285Y-68925238D01*
X164488095Y-68972857D01*
X164488095Y-69163333D01*
X164583333Y-68687142D02*
X164583333Y-68449047D01*
X164726190Y-68734761D02*
X164226190Y-68568095D01*
X164726190Y-68401428D01*
X164726190Y-67972857D02*
X164726190Y-68258571D01*
X164726190Y-68115714D02*
X164226190Y-68115714D01*
X164297619Y-68163333D01*
X164345238Y-68210952D01*
X164369047Y-68258571D01*
X164726190Y-66623333D02*
X164226190Y-66623333D01*
X164226190Y-66432857D01*
X164250000Y-66385238D01*
X164273809Y-66361428D01*
X164321428Y-66337619D01*
X164392857Y-66337619D01*
X164440476Y-66361428D01*
X164464285Y-66385238D01*
X164488095Y-66432857D01*
X164488095Y-66623333D01*
X164583333Y-66147142D02*
X164583333Y-65909047D01*
X164726190Y-66194761D02*
X164226190Y-66028095D01*
X164726190Y-65861428D01*
X164226190Y-65599523D02*
X164226190Y-65551904D01*
X164250000Y-65504285D01*
X164273809Y-65480476D01*
X164321428Y-65456666D01*
X164416666Y-65432857D01*
X164535714Y-65432857D01*
X164630952Y-65456666D01*
X164678571Y-65480476D01*
X164702380Y-65504285D01*
X164726190Y-65551904D01*
X164726190Y-65599523D01*
X164702380Y-65647142D01*
X164678571Y-65670952D01*
X164630952Y-65694761D01*
X164535714Y-65718571D01*
X164416666Y-65718571D01*
X164321428Y-65694761D01*
X164273809Y-65670952D01*
X164250000Y-65647142D01*
X164226190Y-65599523D01*
X164726190Y-64119047D02*
X164226190Y-64119047D01*
X164226190Y-63928571D01*
X164250000Y-63880952D01*
X164273809Y-63857142D01*
X164321428Y-63833333D01*
X164392857Y-63833333D01*
X164440476Y-63857142D01*
X164464285Y-63880952D01*
X164488095Y-63928571D01*
X164488095Y-64119047D01*
X164678571Y-63333333D02*
X164702380Y-63357142D01*
X164726190Y-63428571D01*
X164726190Y-63476190D01*
X164702380Y-63547619D01*
X164654761Y-63595238D01*
X164607142Y-63619047D01*
X164511904Y-63642857D01*
X164440476Y-63642857D01*
X164345238Y-63619047D01*
X164297619Y-63595238D01*
X164250000Y-63547619D01*
X164226190Y-63476190D01*
X164226190Y-63428571D01*
X164250000Y-63357142D01*
X164273809Y-63333333D01*
X164226190Y-63166666D02*
X164226190Y-62857142D01*
X164416666Y-63023809D01*
X164416666Y-62952380D01*
X164440476Y-62904761D01*
X164464285Y-62880952D01*
X164511904Y-62857142D01*
X164630952Y-62857142D01*
X164678571Y-62880952D01*
X164702380Y-62904761D01*
X164726190Y-62952380D01*
X164726190Y-63095238D01*
X164702380Y-63142857D01*
X164678571Y-63166666D01*
X164726190Y-61817142D02*
X164226190Y-61817142D01*
X164226190Y-61626666D01*
X164250000Y-61579047D01*
X164273809Y-61555238D01*
X164321428Y-61531428D01*
X164392857Y-61531428D01*
X164440476Y-61555238D01*
X164464285Y-61579047D01*
X164488095Y-61626666D01*
X164488095Y-61817142D01*
X164678571Y-61031428D02*
X164702380Y-61055238D01*
X164726190Y-61126666D01*
X164726190Y-61174285D01*
X164702380Y-61245714D01*
X164654761Y-61293333D01*
X164607142Y-61317142D01*
X164511904Y-61340952D01*
X164440476Y-61340952D01*
X164345238Y-61317142D01*
X164297619Y-61293333D01*
X164250000Y-61245714D01*
X164226190Y-61174285D01*
X164226190Y-61126666D01*
X164250000Y-61055238D01*
X164273809Y-61031428D01*
X164726190Y-60555238D02*
X164726190Y-60840952D01*
X164726190Y-60698095D02*
X164226190Y-60698095D01*
X164297619Y-60745714D01*
X164345238Y-60793333D01*
X164369047Y-60840952D01*
X164226190Y-60102857D02*
X164226190Y-60340952D01*
X164464285Y-60364761D01*
X164440476Y-60340952D01*
X164416666Y-60293333D01*
X164416666Y-60174285D01*
X164440476Y-60126666D01*
X164464285Y-60102857D01*
X164511904Y-60079047D01*
X164630952Y-60079047D01*
X164678571Y-60102857D01*
X164702380Y-60126666D01*
X164726190Y-60174285D01*
X164726190Y-60293333D01*
X164702380Y-60340952D01*
X164678571Y-60364761D01*
X164726190Y-59277142D02*
X164226190Y-59277142D01*
X164226190Y-59086666D01*
X164250000Y-59039047D01*
X164273809Y-59015238D01*
X164321428Y-58991428D01*
X164392857Y-58991428D01*
X164440476Y-59015238D01*
X164464285Y-59039047D01*
X164488095Y-59086666D01*
X164488095Y-59277142D01*
X164678571Y-58491428D02*
X164702380Y-58515238D01*
X164726190Y-58586666D01*
X164726190Y-58634285D01*
X164702380Y-58705714D01*
X164654761Y-58753333D01*
X164607142Y-58777142D01*
X164511904Y-58800952D01*
X164440476Y-58800952D01*
X164345238Y-58777142D01*
X164297619Y-58753333D01*
X164250000Y-58705714D01*
X164226190Y-58634285D01*
X164226190Y-58586666D01*
X164250000Y-58515238D01*
X164273809Y-58491428D01*
X164726190Y-58015238D02*
X164726190Y-58300952D01*
X164726190Y-58158095D02*
X164226190Y-58158095D01*
X164297619Y-58205714D01*
X164345238Y-58253333D01*
X164369047Y-58300952D01*
X164392857Y-57586666D02*
X164726190Y-57586666D01*
X164202380Y-57705714D02*
X164559523Y-57824761D01*
X164559523Y-57515238D01*
X164726190Y-56499047D02*
X164226190Y-56499047D01*
X164226190Y-56308571D01*
X164250000Y-56260952D01*
X164273809Y-56237142D01*
X164321428Y-56213333D01*
X164392857Y-56213333D01*
X164440476Y-56237142D01*
X164464285Y-56260952D01*
X164488095Y-56308571D01*
X164488095Y-56499047D01*
X164678571Y-55713333D02*
X164702380Y-55737142D01*
X164726190Y-55808571D01*
X164726190Y-55856190D01*
X164702380Y-55927619D01*
X164654761Y-55975238D01*
X164607142Y-55999047D01*
X164511904Y-56022857D01*
X164440476Y-56022857D01*
X164345238Y-55999047D01*
X164297619Y-55975238D01*
X164250000Y-55927619D01*
X164226190Y-55856190D01*
X164226190Y-55808571D01*
X164250000Y-55737142D01*
X164273809Y-55713333D01*
X164226190Y-55403809D02*
X164226190Y-55356190D01*
X164250000Y-55308571D01*
X164273809Y-55284761D01*
X164321428Y-55260952D01*
X164416666Y-55237142D01*
X164535714Y-55237142D01*
X164630952Y-55260952D01*
X164678571Y-55284761D01*
X164702380Y-55308571D01*
X164726190Y-55356190D01*
X164726190Y-55403809D01*
X164702380Y-55451428D01*
X164678571Y-55475238D01*
X164630952Y-55499047D01*
X164535714Y-55522857D01*
X164416666Y-55522857D01*
X164321428Y-55499047D01*
X164273809Y-55475238D01*
X164250000Y-55451428D01*
X164226190Y-55403809D01*
X164726190Y-53959047D02*
X164226190Y-53959047D01*
X164226190Y-53768571D01*
X164250000Y-53720952D01*
X164273809Y-53697142D01*
X164321428Y-53673333D01*
X164392857Y-53673333D01*
X164440476Y-53697142D01*
X164464285Y-53720952D01*
X164488095Y-53768571D01*
X164488095Y-53959047D01*
X164678571Y-53173333D02*
X164702380Y-53197142D01*
X164726190Y-53268571D01*
X164726190Y-53316190D01*
X164702380Y-53387619D01*
X164654761Y-53435238D01*
X164607142Y-53459047D01*
X164511904Y-53482857D01*
X164440476Y-53482857D01*
X164345238Y-53459047D01*
X164297619Y-53435238D01*
X164250000Y-53387619D01*
X164226190Y-53316190D01*
X164226190Y-53268571D01*
X164250000Y-53197142D01*
X164273809Y-53173333D01*
X164273809Y-52982857D02*
X164250000Y-52959047D01*
X164226190Y-52911428D01*
X164226190Y-52792380D01*
X164250000Y-52744761D01*
X164273809Y-52720952D01*
X164321428Y-52697142D01*
X164369047Y-52697142D01*
X164440476Y-52720952D01*
X164726190Y-53006666D01*
X164726190Y-52697142D01*
X164726190Y-51419047D02*
X164226190Y-51419047D01*
X164226190Y-51228571D01*
X164250000Y-51180952D01*
X164273809Y-51157142D01*
X164321428Y-51133333D01*
X164392857Y-51133333D01*
X164440476Y-51157142D01*
X164464285Y-51180952D01*
X164488095Y-51228571D01*
X164488095Y-51419047D01*
X164678571Y-50633333D02*
X164702380Y-50657142D01*
X164726190Y-50728571D01*
X164726190Y-50776190D01*
X164702380Y-50847619D01*
X164654761Y-50895238D01*
X164607142Y-50919047D01*
X164511904Y-50942857D01*
X164440476Y-50942857D01*
X164345238Y-50919047D01*
X164297619Y-50895238D01*
X164250000Y-50847619D01*
X164226190Y-50776190D01*
X164226190Y-50728571D01*
X164250000Y-50657142D01*
X164273809Y-50633333D01*
X164726190Y-50157142D02*
X164726190Y-50442857D01*
X164726190Y-50300000D02*
X164226190Y-50300000D01*
X164297619Y-50347619D01*
X164345238Y-50395238D01*
X164369047Y-50442857D01*
X174369047Y-98125000D02*
X174321428Y-98101190D01*
X174250000Y-98101190D01*
X174178571Y-98125000D01*
X174130952Y-98172619D01*
X174107142Y-98220238D01*
X174083333Y-98315476D01*
X174083333Y-98386904D01*
X174107142Y-98482142D01*
X174130952Y-98529761D01*
X174178571Y-98577380D01*
X174250000Y-98601190D01*
X174297619Y-98601190D01*
X174369047Y-98577380D01*
X174392857Y-98553571D01*
X174392857Y-98386904D01*
X174297619Y-98386904D01*
X174607142Y-98601190D02*
X174607142Y-98101190D01*
X174892857Y-98601190D01*
X174892857Y-98101190D01*
X175130952Y-98601190D02*
X175130952Y-98101190D01*
X175250000Y-98101190D01*
X175321428Y-98125000D01*
X175369047Y-98172619D01*
X175392857Y-98220238D01*
X175416666Y-98315476D01*
X175416666Y-98386904D01*
X175392857Y-98482142D01*
X175369047Y-98529761D01*
X175321428Y-98577380D01*
X175250000Y-98601190D01*
X175130952Y-98601190D01*
X173833333Y-99214285D02*
X173904761Y-99238095D01*
X173928571Y-99261904D01*
X173952380Y-99309523D01*
X173952380Y-99380952D01*
X173928571Y-99428571D01*
X173904761Y-99452380D01*
X173857142Y-99476190D01*
X173666666Y-99476190D01*
X173666666Y-98976190D01*
X173833333Y-98976190D01*
X173880952Y-99000000D01*
X173904761Y-99023809D01*
X173928571Y-99071428D01*
X173928571Y-99119047D01*
X173904761Y-99166666D01*
X173880952Y-99190476D01*
X173833333Y-99214285D01*
X173666666Y-99214285D01*
X174261904Y-98976190D02*
X174357142Y-98976190D01*
X174404761Y-99000000D01*
X174452380Y-99047619D01*
X174476190Y-99142857D01*
X174476190Y-99309523D01*
X174452380Y-99404761D01*
X174404761Y-99452380D01*
X174357142Y-99476190D01*
X174261904Y-99476190D01*
X174214285Y-99452380D01*
X174166666Y-99404761D01*
X174142857Y-99309523D01*
X174142857Y-99142857D01*
X174166666Y-99047619D01*
X174214285Y-99000000D01*
X174261904Y-98976190D01*
X174785714Y-98976190D02*
X174880952Y-98976190D01*
X174928571Y-99000000D01*
X174976190Y-99047619D01*
X175000000Y-99142857D01*
X175000000Y-99309523D01*
X174976190Y-99404761D01*
X174928571Y-99452380D01*
X174880952Y-99476190D01*
X174785714Y-99476190D01*
X174738095Y-99452380D01*
X174690476Y-99404761D01*
X174666666Y-99309523D01*
X174666666Y-99142857D01*
X174690476Y-99047619D01*
X174738095Y-99000000D01*
X174785714Y-98976190D01*
X175142857Y-98976190D02*
X175428571Y-98976190D01*
X175285714Y-99476190D02*
X175285714Y-98976190D01*
X175690476Y-98976190D02*
X175738095Y-98976190D01*
X175785714Y-99000000D01*
X175809523Y-99023809D01*
X175833333Y-99071428D01*
X175857142Y-99166666D01*
X175857142Y-99285714D01*
X175833333Y-99380952D01*
X175809523Y-99428571D01*
X175785714Y-99452380D01*
X175738095Y-99476190D01*
X175690476Y-99476190D01*
X175642857Y-99452380D01*
X175619047Y-99428571D01*
X175595238Y-99380952D01*
X175571428Y-99285714D01*
X175571428Y-99166666D01*
X175595238Y-99071428D01*
X175619047Y-99023809D01*
X175642857Y-99000000D01*
X175690476Y-98976190D01*
X174130952Y-99851190D02*
X174440476Y-99851190D01*
X174273809Y-100041666D01*
X174345238Y-100041666D01*
X174392857Y-100065476D01*
X174416666Y-100089285D01*
X174440476Y-100136904D01*
X174440476Y-100255952D01*
X174416666Y-100303571D01*
X174392857Y-100327380D01*
X174345238Y-100351190D01*
X174202380Y-100351190D01*
X174154761Y-100327380D01*
X174130952Y-100303571D01*
X174583333Y-99851190D02*
X174750000Y-100351190D01*
X174916666Y-99851190D01*
X175035714Y-99851190D02*
X175345238Y-99851190D01*
X175178571Y-100041666D01*
X175250000Y-100041666D01*
X175297619Y-100065476D01*
X175321428Y-100089285D01*
X175345238Y-100136904D01*
X175345238Y-100255952D01*
X175321428Y-100303571D01*
X175297619Y-100327380D01*
X175250000Y-100351190D01*
X175107142Y-100351190D01*
X175059523Y-100327380D01*
X175035714Y-100303571D01*
X170119047Y-98125000D02*
X170071428Y-98101190D01*
X170000000Y-98101190D01*
X169928571Y-98125000D01*
X169880952Y-98172619D01*
X169857142Y-98220238D01*
X169833333Y-98315476D01*
X169833333Y-98386904D01*
X169857142Y-98482142D01*
X169880952Y-98529761D01*
X169928571Y-98577380D01*
X170000000Y-98601190D01*
X170047619Y-98601190D01*
X170119047Y-98577380D01*
X170142857Y-98553571D01*
X170142857Y-98386904D01*
X170047619Y-98386904D01*
X170357142Y-98601190D02*
X170357142Y-98101190D01*
X170642857Y-98601190D01*
X170642857Y-98101190D01*
X170880952Y-98601190D02*
X170880952Y-98101190D01*
X171000000Y-98101190D01*
X171071428Y-98125000D01*
X171119047Y-98172619D01*
X171142857Y-98220238D01*
X171166666Y-98315476D01*
X171166666Y-98386904D01*
X171142857Y-98482142D01*
X171119047Y-98529761D01*
X171071428Y-98577380D01*
X171000000Y-98601190D01*
X170880952Y-98601190D01*
X169583333Y-99214285D02*
X169654761Y-99238095D01*
X169678571Y-99261904D01*
X169702380Y-99309523D01*
X169702380Y-99380952D01*
X169678571Y-99428571D01*
X169654761Y-99452380D01*
X169607142Y-99476190D01*
X169416666Y-99476190D01*
X169416666Y-98976190D01*
X169583333Y-98976190D01*
X169630952Y-99000000D01*
X169654761Y-99023809D01*
X169678571Y-99071428D01*
X169678571Y-99119047D01*
X169654761Y-99166666D01*
X169630952Y-99190476D01*
X169583333Y-99214285D01*
X169416666Y-99214285D01*
X170011904Y-98976190D02*
X170107142Y-98976190D01*
X170154761Y-99000000D01*
X170202380Y-99047619D01*
X170226190Y-99142857D01*
X170226190Y-99309523D01*
X170202380Y-99404761D01*
X170154761Y-99452380D01*
X170107142Y-99476190D01*
X170011904Y-99476190D01*
X169964285Y-99452380D01*
X169916666Y-99404761D01*
X169892857Y-99309523D01*
X169892857Y-99142857D01*
X169916666Y-99047619D01*
X169964285Y-99000000D01*
X170011904Y-98976190D01*
X170535714Y-98976190D02*
X170630952Y-98976190D01*
X170678571Y-99000000D01*
X170726190Y-99047619D01*
X170750000Y-99142857D01*
X170750000Y-99309523D01*
X170726190Y-99404761D01*
X170678571Y-99452380D01*
X170630952Y-99476190D01*
X170535714Y-99476190D01*
X170488095Y-99452380D01*
X170440476Y-99404761D01*
X170416666Y-99309523D01*
X170416666Y-99142857D01*
X170440476Y-99047619D01*
X170488095Y-99000000D01*
X170535714Y-98976190D01*
X170892857Y-98976190D02*
X171178571Y-98976190D01*
X171035714Y-99476190D02*
X171035714Y-98976190D01*
X171607142Y-99476190D02*
X171321428Y-99476190D01*
X171464285Y-99476190D02*
X171464285Y-98976190D01*
X171416666Y-99047619D01*
X171369047Y-99095238D01*
X171321428Y-99119047D01*
X169880952Y-99851190D02*
X170190476Y-99851190D01*
X170023809Y-100041666D01*
X170095238Y-100041666D01*
X170142857Y-100065476D01*
X170166666Y-100089285D01*
X170190476Y-100136904D01*
X170190476Y-100255952D01*
X170166666Y-100303571D01*
X170142857Y-100327380D01*
X170095238Y-100351190D01*
X169952380Y-100351190D01*
X169904761Y-100327380D01*
X169880952Y-100303571D01*
X170333333Y-99851190D02*
X170500000Y-100351190D01*
X170666666Y-99851190D01*
X170785714Y-99851190D02*
X171095238Y-99851190D01*
X170928571Y-100041666D01*
X171000000Y-100041666D01*
X171047619Y-100065476D01*
X171071428Y-100089285D01*
X171095238Y-100136904D01*
X171095238Y-100255952D01*
X171071428Y-100303571D01*
X171047619Y-100327380D01*
X171000000Y-100351190D01*
X170857142Y-100351190D01*
X170809523Y-100327380D01*
X170785714Y-100303571D01*
D11*
G04 #@! TO.C,J1*
X181550000Y-44390000D02*
X182880000Y-44390000D01*
X181550000Y-45720000D02*
X181550000Y-44390000D01*
X181550000Y-46990000D02*
X184210000Y-46990000D01*
X184210000Y-46990000D02*
X184210000Y-108010000D01*
X181550000Y-46990000D02*
X181550000Y-108010000D01*
X181550000Y-108010000D02*
X184210000Y-108010000D01*
X181550000Y-108010000D02*
X184210000Y-108010000D01*
X181550000Y-46990000D02*
X181550000Y-108010000D01*
X184210000Y-46990000D02*
X184210000Y-108010000D01*
X181550000Y-46990000D02*
X184210000Y-46990000D01*
X181550000Y-45720000D02*
X181550000Y-44390000D01*
X181550000Y-44390000D02*
X182880000Y-44390000D01*
D12*
G04 #@! TO.C,U1*
X172012893Y-74838552D02*
X171288109Y-74113767D01*
X180038555Y-81450000D02*
X179278415Y-80689860D01*
X172720000Y-88768555D02*
X171959860Y-88008415D01*
X165401445Y-81450000D02*
X166161585Y-82210140D01*
X172720000Y-74131445D02*
X173480140Y-74891585D01*
X165401445Y-81450000D02*
X166161585Y-80689860D01*
X172720000Y-88768555D02*
X173480140Y-88008415D01*
X180038555Y-81450000D02*
X179278415Y-82210140D01*
X172720000Y-74131445D02*
X172012893Y-74838552D01*
D11*
G04 #@! TO.C,D4*
X169850000Y-102800000D02*
X169850000Y-106850000D01*
X168150000Y-102800000D02*
X168150000Y-106850000D01*
X169850000Y-102750000D02*
X168150000Y-102750000D01*
G04 #@! TO.C,3v3*
X166850000Y-44200000D02*
X166850000Y-48250000D01*
X165150000Y-44200000D02*
X165150000Y-48250000D01*
X166850000Y-44150000D02*
X165150000Y-44150000D01*
G04 #@! TO.C,5v*
X180350000Y-44250000D02*
X178650000Y-44250000D01*
X178650000Y-44300000D02*
X178650000Y-48350000D01*
X180350000Y-44300000D02*
X180350000Y-48350000D01*
D13*
G04 #@! TO.C,U7*
X174177813Y-49419416D02*
X174502813Y-49419416D01*
X174502813Y-49419416D02*
X174502813Y-49119416D01*
X171527813Y-47419416D02*
X171202813Y-47419416D01*
X171202813Y-47419416D02*
X171202813Y-47719416D01*
X171502813Y-49419416D02*
X171202813Y-49419416D01*
X171202813Y-49419416D02*
X171202813Y-49094416D01*
X174502813Y-47744416D02*
X174277813Y-47419416D01*
X174277813Y-47419416D02*
X174177813Y-47419416D01*
X174177813Y-47419416D02*
X174177813Y-46894416D01*
X174502813Y-47744416D02*
X174502813Y-48119416D01*
D11*
G04 #@! TO.C,J10*
X165920000Y-93920000D02*
X167250000Y-93920000D01*
X165920000Y-95250000D02*
X165920000Y-93920000D01*
X165920000Y-96520000D02*
X168580000Y-96520000D01*
X168580000Y-96520000D02*
X168580000Y-101660000D01*
X165920000Y-96520000D02*
X165920000Y-101660000D01*
X165920000Y-101660000D02*
X168580000Y-101660000D01*
G04 #@! TO.C,Y2*
X166150000Y-70775000D02*
X170150000Y-70775000D01*
X166150000Y-67625000D02*
X166150000Y-70775000D01*
G04 #@! TO.C,J1*
X181550000Y-44390000D02*
X182880000Y-44390000D01*
X181550000Y-45720000D02*
X181550000Y-44390000D01*
X181550000Y-46990000D02*
X184210000Y-46990000D01*
X184210000Y-46990000D02*
X184210000Y-108010000D01*
X181550000Y-46990000D02*
X181550000Y-108010000D01*
X181550000Y-108010000D02*
X184210000Y-108010000D01*
G04 #@! TO.C,J8*
X161230000Y-108010000D02*
X163890000Y-108010000D01*
X161230000Y-46990000D02*
X161230000Y-108010000D01*
X163890000Y-46990000D02*
X163890000Y-108010000D01*
X161230000Y-46990000D02*
X163890000Y-46990000D01*
X161230000Y-45720000D02*
X161230000Y-44390000D01*
X161230000Y-44390000D02*
X162560000Y-44390000D01*
G04 #@! TO.C,J9*
X176920000Y-93920000D02*
X178250000Y-93920000D01*
X176920000Y-95250000D02*
X176920000Y-93920000D01*
X176920000Y-96520000D02*
X179580000Y-96520000D01*
X179580000Y-96520000D02*
X179580000Y-101660000D01*
X176920000Y-96520000D02*
X176920000Y-101660000D01*
X176920000Y-101660000D02*
X179580000Y-101660000D01*
G04 #@! TO.C,C1*
X179600000Y-90400000D02*
X179600000Y-91100000D01*
X178400000Y-91100000D02*
X178400000Y-90400000D01*
G04 #@! TO.C,C13*
X166900000Y-92350000D02*
X166200000Y-92350000D01*
X166200000Y-91150000D02*
X166900000Y-91150000D01*
G04 #@! TO.C,C14*
X176900000Y-91100000D02*
X176900000Y-90400000D01*
X178100000Y-90400000D02*
X178100000Y-91100000D01*
G04 #@! TO.C,C15*
X171600000Y-68650000D02*
X171600000Y-69350000D01*
X170400000Y-69350000D02*
X170400000Y-68650000D01*
G04 #@! TO.C,C17*
X166270000Y-71075000D02*
X166970000Y-71075000D01*
X166970000Y-72275000D02*
X166270000Y-72275000D01*
G04 #@! TO.C,C18*
X174400000Y-68900000D02*
X175100000Y-68900000D01*
X175100000Y-70100000D02*
X174400000Y-70100000D01*
G04 #@! TO.C,C21*
X170850000Y-92350000D02*
X170150000Y-92350000D01*
X170150000Y-91150000D02*
X170850000Y-91150000D01*
G04 #@! TO.C,C22*
X179900000Y-91100000D02*
X179900000Y-90400000D01*
X181100000Y-90400000D02*
X181100000Y-91100000D01*
G04 #@! TO.C,C23*
X175100000Y-71350000D02*
X174400000Y-71350000D01*
X174400000Y-70150000D02*
X175100000Y-70150000D01*
G04 #@! TO.C,C42*
X177715000Y-50185000D02*
X177715000Y-50885000D01*
X176515000Y-50885000D02*
X176515000Y-50185000D01*
G04 #@! TO.C,C43*
X168963000Y-46893000D02*
X168963000Y-47593000D01*
X167763000Y-47593000D02*
X167763000Y-46893000D01*
G04 #@! TO.C,L3*
X171852813Y-51189416D02*
X173852813Y-51189416D01*
X173852813Y-54149416D02*
X171852813Y-54149416D01*
G04 #@! TO.C,Q1*
X173340000Y-104575000D02*
X173340000Y-105985000D01*
X175660000Y-105985000D02*
X175660000Y-103250000D01*
X175670000Y-105985000D02*
X175000000Y-105985000D01*
X174000000Y-105985000D02*
X173340000Y-105985000D01*
G04 #@! TO.C,R1*
X177930000Y-104600000D02*
X177930000Y-105600000D01*
X176570000Y-105600000D02*
X176570000Y-104600000D01*
G04 #@! TO.C,R2*
X170820000Y-105750000D02*
X170820000Y-104750000D01*
X172180000Y-104750000D02*
X172180000Y-105750000D01*
G04 #@! TO.C,R5*
X175400000Y-67070000D02*
X176400000Y-67070000D01*
X176400000Y-68430000D02*
X175400000Y-68430000D01*
G04 #@! TO.C,R6*
X175930000Y-94850000D02*
X175930000Y-95850000D01*
X174570000Y-95850000D02*
X174570000Y-94850000D01*
G04 #@! TO.C,R7*
X167400000Y-73930000D02*
X166400000Y-73930000D01*
X166400000Y-72570000D02*
X167400000Y-72570000D01*
G04 #@! TO.C,R8*
X169570000Y-95900000D02*
X169570000Y-94900000D01*
X170930000Y-94900000D02*
X170930000Y-95900000D01*
G04 #@! TO.C,R50*
X166430000Y-51250000D02*
X166430000Y-52250000D01*
X165070000Y-52250000D02*
X165070000Y-51250000D01*
G04 #@! TO.C,R51*
X179070000Y-52250000D02*
X179070000Y-51250000D01*
X180430000Y-51250000D02*
X180430000Y-52250000D01*
G04 #@! TO.C,SWD*
X175100000Y-56910000D02*
X176230000Y-56910000D01*
X175100000Y-57670000D02*
X175100000Y-56910000D01*
X177807530Y-56975000D02*
X178630000Y-56975000D01*
X176990000Y-56975000D02*
X177192470Y-56975000D01*
X176990000Y-57106529D02*
X176990000Y-56975000D01*
X176990000Y-58376529D02*
X176990000Y-58233471D01*
X176793471Y-58430000D02*
X176936529Y-58430000D01*
X175100000Y-58430000D02*
X175666529Y-58430000D01*
X178630000Y-56975000D02*
X178630000Y-63445000D01*
X175100000Y-58430000D02*
X175100000Y-63445000D01*
X176537530Y-63445000D02*
X177192470Y-63445000D01*
X177807530Y-63445000D02*
X178630000Y-63445000D01*
X175100000Y-63445000D02*
X175922470Y-63445000D01*
G04 #@! TO.C,U1*
D12*
X177659646Y-75432857D02*
X177087226Y-76005277D01*
X177053554Y-76106292D01*
X177053554Y-76173636D01*
X177087226Y-76274651D01*
X177221913Y-76409338D01*
X177322928Y-76443010D01*
X177390272Y-76443010D01*
X177491287Y-76409338D01*
X178063707Y-75836918D01*
X178063707Y-77251132D02*
X177659646Y-76847071D01*
X177861676Y-77049101D02*
X178568783Y-76341995D01*
X178400424Y-76375666D01*
X178265737Y-76375666D01*
X178164722Y-76341995D01*
G04 #@! TO.C,D4*
X167702380Y-105988095D02*
X166702380Y-105988095D01*
X166702380Y-105750000D01*
X166750000Y-105607142D01*
X166845238Y-105511904D01*
X166940476Y-105464285D01*
X167130952Y-105416666D01*
X167273809Y-105416666D01*
X167464285Y-105464285D01*
X167559523Y-105511904D01*
X167654761Y-105607142D01*
X167702380Y-105750000D01*
X167702380Y-105988095D01*
X167035714Y-104559523D02*
X167702380Y-104559523D01*
X166654761Y-104797619D02*
X167369047Y-105035714D01*
X167369047Y-104416666D01*
G04 #@! TO.C,3v3*
X167559523Y-43902380D02*
X168178571Y-43902380D01*
X167845238Y-44283333D01*
X167988095Y-44283333D01*
X168083333Y-44330952D01*
X168130952Y-44378571D01*
X168178571Y-44473809D01*
X168178571Y-44711904D01*
X168130952Y-44807142D01*
X168083333Y-44854761D01*
X167988095Y-44902380D01*
X167702380Y-44902380D01*
X167607142Y-44854761D01*
X167559523Y-44807142D01*
X168511904Y-44235714D02*
X168750000Y-44902380D01*
X168988095Y-44235714D01*
X169273809Y-43902380D02*
X169892857Y-43902380D01*
X169559523Y-44283333D01*
X169702380Y-44283333D01*
X169797619Y-44330952D01*
X169845238Y-44378571D01*
X169892857Y-44473809D01*
X169892857Y-44711904D01*
X169845238Y-44807142D01*
X169797619Y-44854761D01*
X169702380Y-44902380D01*
X169416666Y-44902380D01*
X169321428Y-44854761D01*
X169273809Y-44807142D01*
G04 #@! TO.C,5v*
X177107142Y-44452380D02*
X176630952Y-44452380D01*
X176583333Y-44928571D01*
X176630952Y-44880952D01*
X176726190Y-44833333D01*
X176964285Y-44833333D01*
X177059523Y-44880952D01*
X177107142Y-44928571D01*
X177154761Y-45023809D01*
X177154761Y-45261904D01*
X177107142Y-45357142D01*
X177059523Y-45404761D01*
X176964285Y-45452380D01*
X176726190Y-45452380D01*
X176630952Y-45404761D01*
X176583333Y-45357142D01*
X177488095Y-44785714D02*
X177726190Y-45452380D01*
X177964285Y-44785714D01*
G04 #@! TO.C,U7*
X172238095Y-44702380D02*
X172238095Y-45511904D01*
X172285714Y-45607142D01*
X172333333Y-45654761D01*
X172428571Y-45702380D01*
X172619047Y-45702380D01*
X172714285Y-45654761D01*
X172761904Y-45607142D01*
X172809523Y-45511904D01*
X172809523Y-44702380D01*
X173190476Y-44702380D02*
X173857142Y-44702380D01*
X173428571Y-45702380D01*
G04 #@! TO.C,Y2*
X167673809Y-66726190D02*
X167673809Y-67202380D01*
X167340476Y-66202380D02*
X167673809Y-66726190D01*
X168007142Y-66202380D01*
X168292857Y-66297619D02*
X168340476Y-66250000D01*
X168435714Y-66202380D01*
X168673809Y-66202380D01*
X168769047Y-66250000D01*
X168816666Y-66297619D01*
X168864285Y-66392857D01*
X168864285Y-66488095D01*
X168816666Y-66630952D01*
X168245238Y-67202380D01*
X168864285Y-67202380D01*
G04 #@! TO.C,C1*
X174982142Y-90971666D02*
X175029761Y-91019285D01*
X175077380Y-91162142D01*
X175077380Y-91257380D01*
X175029761Y-91400238D01*
X174934523Y-91495476D01*
X174839285Y-91543095D01*
X174648809Y-91590714D01*
X174505952Y-91590714D01*
X174315476Y-91543095D01*
X174220238Y-91495476D01*
X174125000Y-91400238D01*
X174077380Y-91257380D01*
X174077380Y-91162142D01*
X174125000Y-91019285D01*
X174172619Y-90971666D01*
X175077380Y-90019285D02*
X175077380Y-90590714D01*
X175077380Y-90305000D02*
X174077380Y-90305000D01*
X174220238Y-90400238D01*
X174315476Y-90495476D01*
X174363095Y-90590714D01*
G04 #@! TO.C,C13*
X165907142Y-90857142D02*
X165859523Y-90904761D01*
X165716666Y-90952380D01*
X165621428Y-90952380D01*
X165478571Y-90904761D01*
X165383333Y-90809523D01*
X165335714Y-90714285D01*
X165288095Y-90523809D01*
X165288095Y-90380952D01*
X165335714Y-90190476D01*
X165383333Y-90095238D01*
X165478571Y-90000000D01*
X165621428Y-89952380D01*
X165716666Y-89952380D01*
X165859523Y-90000000D01*
X165907142Y-90047619D01*
X166859523Y-90952380D02*
X166288095Y-90952380D01*
X166573809Y-90952380D02*
X166573809Y-89952380D01*
X166478571Y-90095238D01*
X166383333Y-90190476D01*
X166288095Y-90238095D01*
X167192857Y-89952380D02*
X167811904Y-89952380D01*
X167478571Y-90333333D01*
X167621428Y-90333333D01*
X167716666Y-90380952D01*
X167764285Y-90428571D01*
X167811904Y-90523809D01*
X167811904Y-90761904D01*
X167764285Y-90857142D01*
X167716666Y-90904761D01*
X167621428Y-90952380D01*
X167335714Y-90952380D01*
X167240476Y-90904761D01*
X167192857Y-90857142D01*
G04 #@! TO.C,C14*
X173712142Y-91447857D02*
X173759761Y-91495476D01*
X173807380Y-91638333D01*
X173807380Y-91733571D01*
X173759761Y-91876428D01*
X173664523Y-91971666D01*
X173569285Y-92019285D01*
X173378809Y-92066904D01*
X173235952Y-92066904D01*
X173045476Y-92019285D01*
X172950238Y-91971666D01*
X172855000Y-91876428D01*
X172807380Y-91733571D01*
X172807380Y-91638333D01*
X172855000Y-91495476D01*
X172902619Y-91447857D01*
X173807380Y-90495476D02*
X173807380Y-91066904D01*
X173807380Y-90781190D02*
X172807380Y-90781190D01*
X172950238Y-90876428D01*
X173045476Y-90971666D01*
X173093095Y-91066904D01*
X173140714Y-89638333D02*
X173807380Y-89638333D01*
X172759761Y-89876428D02*
X173474047Y-90114523D01*
X173474047Y-89495476D01*
G04 #@! TO.C,C15*
X172857142Y-67392857D02*
X172904761Y-67440476D01*
X172952380Y-67583333D01*
X172952380Y-67678571D01*
X172904761Y-67821428D01*
X172809523Y-67916666D01*
X172714285Y-67964285D01*
X172523809Y-68011904D01*
X172380952Y-68011904D01*
X172190476Y-67964285D01*
X172095238Y-67916666D01*
X172000000Y-67821428D01*
X171952380Y-67678571D01*
X171952380Y-67583333D01*
X172000000Y-67440476D01*
X172047619Y-67392857D01*
X172952380Y-66440476D02*
X172952380Y-67011904D01*
X172952380Y-66726190D02*
X171952380Y-66726190D01*
X172095238Y-66821428D01*
X172190476Y-66916666D01*
X172238095Y-67011904D01*
X171952380Y-65535714D02*
X171952380Y-66011904D01*
X172428571Y-66059523D01*
X172380952Y-66011904D01*
X172333333Y-65916666D01*
X172333333Y-65678571D01*
X172380952Y-65583333D01*
X172428571Y-65535714D01*
X172523809Y-65488095D01*
X172761904Y-65488095D01*
X172857142Y-65535714D01*
X172904761Y-65583333D01*
X172952380Y-65678571D01*
X172952380Y-65916666D01*
X172904761Y-66011904D01*
X172857142Y-66059523D01*
G04 #@! TO.C,C17*
X169357142Y-72107142D02*
X169309523Y-72154761D01*
X169166666Y-72202380D01*
X169071428Y-72202380D01*
X168928571Y-72154761D01*
X168833333Y-72059523D01*
X168785714Y-71964285D01*
X168738095Y-71773809D01*
X168738095Y-71630952D01*
X168785714Y-71440476D01*
X168833333Y-71345238D01*
X168928571Y-71250000D01*
X169071428Y-71202380D01*
X169166666Y-71202380D01*
X169309523Y-71250000D01*
X169357142Y-71297619D01*
X170309523Y-72202380D02*
X169738095Y-72202380D01*
X170023809Y-72202380D02*
X170023809Y-71202380D01*
X169928571Y-71345238D01*
X169833333Y-71440476D01*
X169738095Y-71488095D01*
X170642857Y-71202380D02*
X171309523Y-71202380D01*
X170880952Y-72202380D01*
G04 #@! TO.C,C18*
X177607142Y-69857142D02*
X177559523Y-69904761D01*
X177416666Y-69952380D01*
X177321428Y-69952380D01*
X177178571Y-69904761D01*
X177083333Y-69809523D01*
X177035714Y-69714285D01*
X176988095Y-69523809D01*
X176988095Y-69380952D01*
X177035714Y-69190476D01*
X177083333Y-69095238D01*
X177178571Y-69000000D01*
X177321428Y-68952380D01*
X177416666Y-68952380D01*
X177559523Y-69000000D01*
X177607142Y-69047619D01*
X178559523Y-69952380D02*
X177988095Y-69952380D01*
X178273809Y-69952380D02*
X178273809Y-68952380D01*
X178178571Y-69095238D01*
X178083333Y-69190476D01*
X177988095Y-69238095D01*
X179130952Y-69380952D02*
X179035714Y-69333333D01*
X178988095Y-69285714D01*
X178940476Y-69190476D01*
X178940476Y-69142857D01*
X178988095Y-69047619D01*
X179035714Y-69000000D01*
X179130952Y-68952380D01*
X179321428Y-68952380D01*
X179416666Y-69000000D01*
X179464285Y-69047619D01*
X179511904Y-69142857D01*
X179511904Y-69190476D01*
X179464285Y-69285714D01*
X179416666Y-69333333D01*
X179321428Y-69380952D01*
X179130952Y-69380952D01*
X179035714Y-69428571D01*
X178988095Y-69476190D01*
X178940476Y-69571428D01*
X178940476Y-69761904D01*
X178988095Y-69857142D01*
X179035714Y-69904761D01*
X179130952Y-69952380D01*
X179321428Y-69952380D01*
X179416666Y-69904761D01*
X179464285Y-69857142D01*
X179511904Y-69761904D01*
X179511904Y-69571428D01*
X179464285Y-69476190D01*
X179416666Y-69428571D01*
X179321428Y-69380952D01*
G04 #@! TO.C,C21*
X169857142Y-90857142D02*
X169809523Y-90904761D01*
X169666666Y-90952380D01*
X169571428Y-90952380D01*
X169428571Y-90904761D01*
X169333333Y-90809523D01*
X169285714Y-90714285D01*
X169238095Y-90523809D01*
X169238095Y-90380952D01*
X169285714Y-90190476D01*
X169333333Y-90095238D01*
X169428571Y-90000000D01*
X169571428Y-89952380D01*
X169666666Y-89952380D01*
X169809523Y-90000000D01*
X169857142Y-90047619D01*
X170238095Y-90047619D02*
X170285714Y-90000000D01*
X170380952Y-89952380D01*
X170619047Y-89952380D01*
X170714285Y-90000000D01*
X170761904Y-90047619D01*
X170809523Y-90142857D01*
X170809523Y-90238095D01*
X170761904Y-90380952D01*
X170190476Y-90952380D01*
X170809523Y-90952380D01*
X171761904Y-90952380D02*
X171190476Y-90952380D01*
X171476190Y-90952380D02*
X171476190Y-89952380D01*
X171380952Y-90095238D01*
X171285714Y-90190476D01*
X171190476Y-90238095D01*
G04 #@! TO.C,C22*
X176252142Y-91447857D02*
X176299761Y-91495476D01*
X176347380Y-91638333D01*
X176347380Y-91733571D01*
X176299761Y-91876428D01*
X176204523Y-91971666D01*
X176109285Y-92019285D01*
X175918809Y-92066904D01*
X175775952Y-92066904D01*
X175585476Y-92019285D01*
X175490238Y-91971666D01*
X175395000Y-91876428D01*
X175347380Y-91733571D01*
X175347380Y-91638333D01*
X175395000Y-91495476D01*
X175442619Y-91447857D01*
X175442619Y-91066904D02*
X175395000Y-91019285D01*
X175347380Y-90924047D01*
X175347380Y-90685952D01*
X175395000Y-90590714D01*
X175442619Y-90543095D01*
X175537857Y-90495476D01*
X175633095Y-90495476D01*
X175775952Y-90543095D01*
X176347380Y-91114523D01*
X176347380Y-90495476D01*
X175442619Y-90114523D02*
X175395000Y-90066904D01*
X175347380Y-89971666D01*
X175347380Y-89733571D01*
X175395000Y-89638333D01*
X175442619Y-89590714D01*
X175537857Y-89543095D01*
X175633095Y-89543095D01*
X175775952Y-89590714D01*
X176347380Y-90162142D01*
X176347380Y-89543095D01*
G04 #@! TO.C,C23*
X177607142Y-71107142D02*
X177559523Y-71154761D01*
X177416666Y-71202380D01*
X177321428Y-71202380D01*
X177178571Y-71154761D01*
X177083333Y-71059523D01*
X177035714Y-70964285D01*
X176988095Y-70773809D01*
X176988095Y-70630952D01*
X177035714Y-70440476D01*
X177083333Y-70345238D01*
X177178571Y-70250000D01*
X177321428Y-70202380D01*
X177416666Y-70202380D01*
X177559523Y-70250000D01*
X177607142Y-70297619D01*
X177988095Y-70297619D02*
X178035714Y-70250000D01*
X178130952Y-70202380D01*
X178369047Y-70202380D01*
X178464285Y-70250000D01*
X178511904Y-70297619D01*
X178559523Y-70392857D01*
X178559523Y-70488095D01*
X178511904Y-70630952D01*
X177940476Y-71202380D01*
X178559523Y-71202380D01*
X178892857Y-70202380D02*
X179511904Y-70202380D01*
X179178571Y-70583333D01*
X179321428Y-70583333D01*
X179416666Y-70630952D01*
X179464285Y-70678571D01*
X179511904Y-70773809D01*
X179511904Y-71011904D01*
X179464285Y-71107142D01*
X179416666Y-71154761D01*
X179321428Y-71202380D01*
X179035714Y-71202380D01*
X178940476Y-71154761D01*
X178892857Y-71107142D01*
G04 #@! TO.C,C42*
X176107142Y-49537857D02*
X176154761Y-49585476D01*
X176202380Y-49728333D01*
X176202380Y-49823571D01*
X176154761Y-49966428D01*
X176059523Y-50061666D01*
X175964285Y-50109285D01*
X175773809Y-50156904D01*
X175630952Y-50156904D01*
X175440476Y-50109285D01*
X175345238Y-50061666D01*
X175250000Y-49966428D01*
X175202380Y-49823571D01*
X175202380Y-49728333D01*
X175250000Y-49585476D01*
X175297619Y-49537857D01*
X175535714Y-48680714D02*
X176202380Y-48680714D01*
X175154761Y-48918809D02*
X175869047Y-49156904D01*
X175869047Y-48537857D01*
X175297619Y-48204523D02*
X175250000Y-48156904D01*
X175202380Y-48061666D01*
X175202380Y-47823571D01*
X175250000Y-47728333D01*
X175297619Y-47680714D01*
X175392857Y-47633095D01*
X175488095Y-47633095D01*
X175630952Y-47680714D01*
X176202380Y-48252142D01*
X176202380Y-47633095D01*
G04 #@! TO.C,C43*
X170107142Y-47892857D02*
X170154761Y-47940476D01*
X170202380Y-48083333D01*
X170202380Y-48178571D01*
X170154761Y-48321428D01*
X170059523Y-48416666D01*
X169964285Y-48464285D01*
X169773809Y-48511904D01*
X169630952Y-48511904D01*
X169440476Y-48464285D01*
X169345238Y-48416666D01*
X169250000Y-48321428D01*
X169202380Y-48178571D01*
X169202380Y-48083333D01*
X169250000Y-47940476D01*
X169297619Y-47892857D01*
X169535714Y-47035714D02*
X170202380Y-47035714D01*
X169154761Y-47273809D02*
X169869047Y-47511904D01*
X169869047Y-46892857D01*
X169202380Y-46607142D02*
X169202380Y-45988095D01*
X169583333Y-46321428D01*
X169583333Y-46178571D01*
X169630952Y-46083333D01*
X169678571Y-46035714D01*
X169773809Y-45988095D01*
X170011904Y-45988095D01*
X170107142Y-46035714D01*
X170154761Y-46083333D01*
X170202380Y-46178571D01*
X170202380Y-46464285D01*
X170154761Y-46559523D01*
X170107142Y-46607142D01*
G04 #@! TO.C,L3*
X173583333Y-55702380D02*
X173107142Y-55702380D01*
X173107142Y-54702380D01*
X173821428Y-54702380D02*
X174440476Y-54702380D01*
X174107142Y-55083333D01*
X174250000Y-55083333D01*
X174345238Y-55130952D01*
X174392857Y-55178571D01*
X174440476Y-55273809D01*
X174440476Y-55511904D01*
X174392857Y-55607142D01*
X174345238Y-55654761D01*
X174250000Y-55702380D01*
X173964285Y-55702380D01*
X173869047Y-55654761D01*
X173821428Y-55607142D01*
G04 #@! TO.C,Q1*
X175047619Y-101845238D02*
X175000000Y-101940476D01*
X174904761Y-102035714D01*
X174761904Y-102178571D01*
X174714285Y-102273809D01*
X174714285Y-102369047D01*
X174952380Y-102321428D02*
X174904761Y-102416666D01*
X174809523Y-102511904D01*
X174619047Y-102559523D01*
X174285714Y-102559523D01*
X174095238Y-102511904D01*
X174000000Y-102416666D01*
X173952380Y-102321428D01*
X173952380Y-102130952D01*
X174000000Y-102035714D01*
X174095238Y-101940476D01*
X174285714Y-101892857D01*
X174619047Y-101892857D01*
X174809523Y-101940476D01*
X174904761Y-102035714D01*
X174952380Y-102130952D01*
X174952380Y-102321428D01*
X174952380Y-100940476D02*
X174952380Y-101511904D01*
X174952380Y-101226190D02*
X173952380Y-101226190D01*
X174095238Y-101321428D01*
X174190476Y-101416666D01*
X174238095Y-101511904D01*
G04 #@! TO.C,R1*
X179152380Y-105266666D02*
X178676190Y-105600000D01*
X179152380Y-105838095D02*
X178152380Y-105838095D01*
X178152380Y-105457142D01*
X178200000Y-105361904D01*
X178247619Y-105314285D01*
X178342857Y-105266666D01*
X178485714Y-105266666D01*
X178580952Y-105314285D01*
X178628571Y-105361904D01*
X178676190Y-105457142D01*
X178676190Y-105838095D01*
X179152380Y-104314285D02*
X179152380Y-104885714D01*
X179152380Y-104600000D02*
X178152380Y-104600000D01*
X178295238Y-104695238D01*
X178390476Y-104790476D01*
X178438095Y-104885714D01*
G04 #@! TO.C,R2*
X171952380Y-102166666D02*
X171476190Y-102500000D01*
X171952380Y-102738095D02*
X170952380Y-102738095D01*
X170952380Y-102357142D01*
X171000000Y-102261904D01*
X171047619Y-102214285D01*
X171142857Y-102166666D01*
X171285714Y-102166666D01*
X171380952Y-102214285D01*
X171428571Y-102261904D01*
X171476190Y-102357142D01*
X171476190Y-102738095D01*
X171047619Y-101785714D02*
X171000000Y-101738095D01*
X170952380Y-101642857D01*
X170952380Y-101404761D01*
X171000000Y-101309523D01*
X171047619Y-101261904D01*
X171142857Y-101214285D01*
X171238095Y-101214285D01*
X171380952Y-101261904D01*
X171952380Y-101833333D01*
X171952380Y-101214285D01*
G04 #@! TO.C,R5*
X178903333Y-68397380D02*
X178570000Y-67921190D01*
X178331904Y-68397380D02*
X178331904Y-67397380D01*
X178712857Y-67397380D01*
X178808095Y-67445000D01*
X178855714Y-67492619D01*
X178903333Y-67587857D01*
X178903333Y-67730714D01*
X178855714Y-67825952D01*
X178808095Y-67873571D01*
X178712857Y-67921190D01*
X178331904Y-67921190D01*
X179808095Y-67397380D02*
X179331904Y-67397380D01*
X179284285Y-67873571D01*
X179331904Y-67825952D01*
X179427142Y-67778333D01*
X179665238Y-67778333D01*
X179760476Y-67825952D01*
X179808095Y-67873571D01*
X179855714Y-67968809D01*
X179855714Y-68206904D01*
X179808095Y-68302142D01*
X179760476Y-68349761D01*
X179665238Y-68397380D01*
X179427142Y-68397380D01*
X179331904Y-68349761D01*
X179284285Y-68302142D01*
G04 #@! TO.C,R6*
X174202380Y-95516666D02*
X173726190Y-95850000D01*
X174202380Y-96088095D02*
X173202380Y-96088095D01*
X173202380Y-95707142D01*
X173250000Y-95611904D01*
X173297619Y-95564285D01*
X173392857Y-95516666D01*
X173535714Y-95516666D01*
X173630952Y-95564285D01*
X173678571Y-95611904D01*
X173726190Y-95707142D01*
X173726190Y-96088095D01*
X173202380Y-94659523D02*
X173202380Y-94850000D01*
X173250000Y-94945238D01*
X173297619Y-94992857D01*
X173440476Y-95088095D01*
X173630952Y-95135714D01*
X174011904Y-95135714D01*
X174107142Y-95088095D01*
X174154761Y-95040476D01*
X174202380Y-94945238D01*
X174202380Y-94754761D01*
X174154761Y-94659523D01*
X174107142Y-94611904D01*
X174011904Y-94564285D01*
X173773809Y-94564285D01*
X173678571Y-94611904D01*
X173630952Y-94659523D01*
X173583333Y-94754761D01*
X173583333Y-94945238D01*
X173630952Y-95040476D01*
X173678571Y-95088095D01*
X173773809Y-95135714D01*
G04 #@! TO.C,R7*
X166733333Y-75152380D02*
X166400000Y-74676190D01*
X166161904Y-75152380D02*
X166161904Y-74152380D01*
X166542857Y-74152380D01*
X166638095Y-74200000D01*
X166685714Y-74247619D01*
X166733333Y-74342857D01*
X166733333Y-74485714D01*
X166685714Y-74580952D01*
X166638095Y-74628571D01*
X166542857Y-74676190D01*
X166161904Y-74676190D01*
X167066666Y-74152380D02*
X167733333Y-74152380D01*
X167304761Y-75152380D01*
G04 #@! TO.C,R8*
X172152380Y-95566666D02*
X171676190Y-95900000D01*
X172152380Y-96138095D02*
X171152380Y-96138095D01*
X171152380Y-95757142D01*
X171200000Y-95661904D01*
X171247619Y-95614285D01*
X171342857Y-95566666D01*
X171485714Y-95566666D01*
X171580952Y-95614285D01*
X171628571Y-95661904D01*
X171676190Y-95757142D01*
X171676190Y-96138095D01*
X171580952Y-94995238D02*
X171533333Y-95090476D01*
X171485714Y-95138095D01*
X171390476Y-95185714D01*
X171342857Y-95185714D01*
X171247619Y-95138095D01*
X171200000Y-95090476D01*
X171152380Y-94995238D01*
X171152380Y-94804761D01*
X171200000Y-94709523D01*
X171247619Y-94661904D01*
X171342857Y-94614285D01*
X171390476Y-94614285D01*
X171485714Y-94661904D01*
X171533333Y-94709523D01*
X171580952Y-94804761D01*
X171580952Y-94995238D01*
X171628571Y-95090476D01*
X171676190Y-95138095D01*
X171771428Y-95185714D01*
X171961904Y-95185714D01*
X172057142Y-95138095D01*
X172104761Y-95090476D01*
X172152380Y-94995238D01*
X172152380Y-94804761D01*
X172104761Y-94709523D01*
X172057142Y-94661904D01*
X171961904Y-94614285D01*
X171771428Y-94614285D01*
X171676190Y-94661904D01*
X171628571Y-94709523D01*
X171580952Y-94804761D01*
G04 #@! TO.C,R50*
X167702380Y-52392857D02*
X167226190Y-52726190D01*
X167702380Y-52964285D02*
X166702380Y-52964285D01*
X166702380Y-52583333D01*
X166750000Y-52488095D01*
X166797619Y-52440476D01*
X166892857Y-52392857D01*
X167035714Y-52392857D01*
X167130952Y-52440476D01*
X167178571Y-52488095D01*
X167226190Y-52583333D01*
X167226190Y-52964285D01*
X166702380Y-51488095D02*
X166702380Y-51964285D01*
X167178571Y-52011904D01*
X167130952Y-51964285D01*
X167083333Y-51869047D01*
X167083333Y-51630952D01*
X167130952Y-51535714D01*
X167178571Y-51488095D01*
X167273809Y-51440476D01*
X167511904Y-51440476D01*
X167607142Y-51488095D01*
X167654761Y-51535714D01*
X167702380Y-51630952D01*
X167702380Y-51869047D01*
X167654761Y-51964285D01*
X167607142Y-52011904D01*
X166702380Y-50821428D02*
X166702380Y-50726190D01*
X166750000Y-50630952D01*
X166797619Y-50583333D01*
X166892857Y-50535714D01*
X167083333Y-50488095D01*
X167321428Y-50488095D01*
X167511904Y-50535714D01*
X167607142Y-50583333D01*
X167654761Y-50630952D01*
X167702380Y-50726190D01*
X167702380Y-50821428D01*
X167654761Y-50916666D01*
X167607142Y-50964285D01*
X167511904Y-51011904D01*
X167321428Y-51059523D01*
X167083333Y-51059523D01*
X166892857Y-51011904D01*
X166797619Y-50964285D01*
X166750000Y-50916666D01*
X166702380Y-50821428D01*
G04 #@! TO.C,R51*
X178452380Y-54392857D02*
X177976190Y-54726190D01*
X178452380Y-54964285D02*
X177452380Y-54964285D01*
X177452380Y-54583333D01*
X177500000Y-54488095D01*
X177547619Y-54440476D01*
X177642857Y-54392857D01*
X177785714Y-54392857D01*
X177880952Y-54440476D01*
X177928571Y-54488095D01*
X177976190Y-54583333D01*
X177976190Y-54964285D01*
X177452380Y-53488095D02*
X177452380Y-53964285D01*
X177928571Y-54011904D01*
X177880952Y-53964285D01*
X177833333Y-53869047D01*
X177833333Y-53630952D01*
X177880952Y-53535714D01*
X177928571Y-53488095D01*
X178023809Y-53440476D01*
X178261904Y-53440476D01*
X178357142Y-53488095D01*
X178404761Y-53535714D01*
X178452380Y-53630952D01*
X178452380Y-53869047D01*
X178404761Y-53964285D01*
X178357142Y-54011904D01*
X178452380Y-52488095D02*
X178452380Y-53059523D01*
X178452380Y-52773809D02*
X177452380Y-52773809D01*
X177595238Y-52869047D01*
X177690476Y-52964285D01*
X177738095Y-53059523D01*
G04 #@! TO.C,SWD*
X175507857Y-56154761D02*
X175650714Y-56202380D01*
X175888809Y-56202380D01*
X175984047Y-56154761D01*
X176031666Y-56107142D01*
X176079285Y-56011904D01*
X176079285Y-55916666D01*
X176031666Y-55821428D01*
X175984047Y-55773809D01*
X175888809Y-55726190D01*
X175698333Y-55678571D01*
X175603095Y-55630952D01*
X175555476Y-55583333D01*
X175507857Y-55488095D01*
X175507857Y-55392857D01*
X175555476Y-55297619D01*
X175603095Y-55250000D01*
X175698333Y-55202380D01*
X175936428Y-55202380D01*
X176079285Y-55250000D01*
X176412619Y-55202380D02*
X176650714Y-56202380D01*
X176841190Y-55488095D01*
X177031666Y-56202380D01*
X177269761Y-55202380D01*
X177650714Y-56202380D02*
X177650714Y-55202380D01*
X177888809Y-55202380D01*
X178031666Y-55250000D01*
X178126904Y-55345238D01*
X178174523Y-55440476D01*
X178222142Y-55630952D01*
X178222142Y-55773809D01*
X178174523Y-55964285D01*
X178126904Y-56059523D01*
X178031666Y-56154761D01*
X177888809Y-56202380D01*
X177650714Y-56202380D01*
G04 #@! TO.C,RESET*
X174202380Y-61452380D02*
X173726190Y-61785714D01*
X174202380Y-62023809D02*
X173202380Y-62023809D01*
X173202380Y-61642857D01*
X173250000Y-61547619D01*
X173297619Y-61500000D01*
X173392857Y-61452380D01*
X173535714Y-61452380D01*
X173630952Y-61500000D01*
X173678571Y-61547619D01*
X173726190Y-61642857D01*
X173726190Y-62023809D01*
X173678571Y-61023809D02*
X173678571Y-60690476D01*
X174202380Y-60547619D02*
X174202380Y-61023809D01*
X173202380Y-61023809D01*
X173202380Y-60547619D01*
X174154761Y-60166666D02*
X174202380Y-60023809D01*
X174202380Y-59785714D01*
X174154761Y-59690476D01*
X174107142Y-59642857D01*
X174011904Y-59595238D01*
X173916666Y-59595238D01*
X173821428Y-59642857D01*
X173773809Y-59690476D01*
X173726190Y-59785714D01*
X173678571Y-59976190D01*
X173630952Y-60071428D01*
X173583333Y-60119047D01*
X173488095Y-60166666D01*
X173392857Y-60166666D01*
X173297619Y-60119047D01*
X173250000Y-60071428D01*
X173202380Y-59976190D01*
X173202380Y-59738095D01*
X173250000Y-59595238D01*
X173678571Y-59166666D02*
X173678571Y-58833333D01*
X174202380Y-58690476D02*
X174202380Y-59166666D01*
X173202380Y-59166666D01*
X173202380Y-58690476D01*
X173202380Y-58404761D02*
X173202380Y-57833333D01*
X174202380Y-58119047D02*
X173202380Y-58119047D01*
G04 #@! TO.C,PC13*
X165925714Y-56332380D02*
X165925714Y-55332380D01*
X166306666Y-55332380D01*
X166401904Y-55380000D01*
X166449523Y-55427619D01*
X166497142Y-55522857D01*
X166497142Y-55665714D01*
X166449523Y-55760952D01*
X166401904Y-55808571D01*
X166306666Y-55856190D01*
X165925714Y-55856190D01*
X167497142Y-56237142D02*
X167449523Y-56284761D01*
X167306666Y-56332380D01*
X167211428Y-56332380D01*
X167068571Y-56284761D01*
X166973333Y-56189523D01*
X166925714Y-56094285D01*
X166878095Y-55903809D01*
X166878095Y-55760952D01*
X166925714Y-55570476D01*
X166973333Y-55475238D01*
X167068571Y-55380000D01*
X167211428Y-55332380D01*
X167306666Y-55332380D01*
X167449523Y-55380000D01*
X167497142Y-55427619D01*
X168449523Y-56332380D02*
X167878095Y-56332380D01*
X168163809Y-56332380D02*
X168163809Y-55332380D01*
X168068571Y-55475238D01*
X167973333Y-55570476D01*
X167878095Y-55618095D01*
X168782857Y-55332380D02*
X169401904Y-55332380D01*
X169068571Y-55713333D01*
X169211428Y-55713333D01*
X169306666Y-55760952D01*
X169354285Y-55808571D01*
X169401904Y-55903809D01*
X169401904Y-56141904D01*
X169354285Y-56237142D01*
X169306666Y-56284761D01*
X169211428Y-56332380D01*
X168925714Y-56332380D01*
X168830476Y-56284761D01*
X168782857Y-56237142D01*
G04 #@! TD*
M02*
