M48
;DRILL file {KiCad 5.0.2-bee76a0~70~ubuntu18.04.1} date Sun 16 Dec 2018 09:13:13 PM EST
;FORMAT={-:-/ absolute / inch / decimal}
FMAT,2
INCH,TZ
T1C0.0157
T2C0.0394
%
G90
G05
T1
X5.4207Y-3.0991
X5.4207Y-3.1582
X5.4207Y-3.2172
X5.4207Y-3.2763
X5.4207Y-3.3353
X5.4207Y-3.3944
X5.4601Y-3.0991
X5.4601Y-3.1582
X5.4601Y-3.2172
X5.4601Y-3.2763
X5.4601Y-3.3353
X5.4601Y-3.3944
X5.466Y-3.5893
X5.466Y-3.6287
X5.4994Y-2.9909
X5.4994Y-3.0696
X5.4994Y-3.4141
X5.5053Y-3.5893
X5.5053Y-3.5893
X5.5053Y-3.5893
X5.5053Y-3.6287
X5.5388Y-3.0696
X5.5388Y-3.4141
X5.5447Y-3.5893
X5.5447Y-3.6287
X5.551Y-3.8749
X5.5782Y-3.0696
X5.5782Y-3.4141
X5.5841Y-3.5893
X5.5841Y-3.6287
X5.6175Y-3.0696
X5.6175Y-3.4141
X5.716Y-2.9318
X5.8046Y-2.981
X5.8046Y-3.0204
X5.8046Y-3.0598
X5.8046Y-3.4338
X5.8046Y-3.4731
X5.8046Y-3.5125
X5.8046Y-3.794
X5.8046Y-3.8334
X5.8046Y-3.8727
X5.8046Y-3.9121
X5.8124Y-3.5972
X5.8124Y-3.6365
X5.8124Y-3.6759
X5.8124Y-3.7153
X5.8439Y-2.981
X5.8439Y-3.0204
X5.8439Y-3.0598
X5.8439Y-3.4338
X5.8439Y-3.4731
X5.8439Y-3.5125
X5.8439Y-3.794
X5.8439Y-3.8334
X5.8439Y-3.8727
X5.8439Y-3.9121
X5.8518Y-3.5972
X5.8518Y-3.6365
X5.8518Y-3.6759
X5.8518Y-3.7153
X5.8833Y-2.981
X5.8833Y-3.0204
X5.8833Y-3.0598
X5.8833Y-3.4338
X5.8833Y-3.4731
X5.8833Y-3.5125
X5.8969Y-4.0837
X5.8969Y-4.3577
X5.9227Y-2.981
X5.9227Y-3.0204
X5.9227Y-3.0598
X5.9227Y-3.0991
X5.9227Y-3.3944
X5.9227Y-3.4338
X5.9227Y-3.4731
X5.9227Y-3.5125
X6.0265Y-3.1251
X6.0265Y-3.2432
X6.0265Y-3.3613
X6.0265Y-3.4794
X6.0265Y-3.5975
X6.0265Y-3.7156
X6.0265Y-3.8337
X6.0265Y-3.9518
X6.1811Y-4.7539
X6.204Y-4.1687
X6.204Y-4.279
X6.2795Y-4.626
X6.2805Y-4.7569
X6.4773Y-4.7569
X6.5511Y-3.3412
X6.5551Y-3.9302
X6.5569Y-3.8022
X6.557Y-3.5738
X6.5572Y-3.6919
X6.558Y-3.1054
X6.558Y-3.2235
X6.558Y-3.4597
X6.684Y-4.2451
X6.684Y-4.314
X6.684Y-4.3731
X6.7224Y-3.6909
X6.7224Y-3.7894
X6.7318Y-3.8292
X6.7323Y-3.6024
X6.7323Y-3.6516
X6.7323Y-3.7402
X6.7323Y-3.878
X6.7421Y-3.5433
X6.812Y-3.4085
X6.871Y-3.4085
X6.8898Y-3.6713
X6.9793Y-3.4085
X7.372Y-3.7303
X7.4749Y-3.412
X7.4993Y-4.1804
X7.5098Y-4.124
X7.5108Y-3.2215
X7.5108Y-3.3692
X7.5108Y-3.8317
X7.5301Y-3.4085
X7.5305Y-4.5109
X7.5492Y-3.5925
X7.5778Y-3.5463
X7.5871Y-3.3892
X7.6033Y-3.1788
X7.6188Y-3.4452
X7.6289Y-3.3101
X7.6289Y-3.6743
X7.6476Y-4.5571
X7.6486Y-4.3534
X7.6486Y-4.4125
X7.6486Y-4.6034
X7.6584Y-3.438
X7.6584Y-3.5955
X7.67Y-3.6604
X7.6772Y-4.1929
X7.6772Y-4.5177
X7.7076Y-3.438
X7.7264Y-4.5079
X7.7372Y-4.0188
X7.7563Y-3.4385
X7.7849Y-4.4788
X7.8061Y-3.5463
X7.875Y-4.127
X7.875Y-4.1861
X7.875Y-4.3436
X7.875Y-4.4026
X7.8789Y-2.9425
X7.8839Y-3.4055
X7.9045Y-3.6546
X7.9143Y-3.8908
X7.9429Y-4.3307
X7.9626Y-3.5827
X7.9635Y-3.6546
X7.9823Y-3.4843
X8.0315Y-3.6024
X8.0324Y-3.8908
X8.0363Y-2.9425
X8.0915Y-3.9499
X8.1367Y-3.4407
X8.1407Y-4.0778
X8.2677Y-4.124
X8.3101Y-3.3258
X8.5433Y-4.252
X8.6811Y-4.0551
T2
X8.622Y-3.2173
X8.622Y-3.3173
X8.622Y-3.4173
X8.622Y-3.5173
X8.622Y-3.6173
X8.622Y-3.7173
X8.622Y-3.8173
X8.622Y-3.9173
X8.129Y-3.5227
X8.129Y-3.7786
X8.3062Y-3.5227
X8.3062Y-3.7786
X7.4Y-5.
X7.5Y-5.
X7.6Y-5.
X7.7Y-5.
X7.8Y-5.
X7.9Y-5.
X8.Y-5.
X6.Y-5.
X6.1Y-5.
X6.2Y-5.
X6.3Y-5.
X6.4Y-5.
X6.5Y-5.
X8.6033Y-4.3435
X8.6033Y-4.4435
X8.6033Y-4.5435
X8.6033Y-4.6435
X8.6033Y-4.7435
X8.6033Y-4.8435
X7.3917Y-4.7638
X7.4917Y-4.7638
X7.5917Y-4.7638
X7.6917Y-4.7638
X7.7917Y-4.7638
X7.1161Y-4.6228
X7.1161Y-4.7228
X7.1161Y-4.8228
X8.1722Y-4.3435
X8.1722Y-4.4435
X8.1722Y-4.5435
X8.1722Y-4.6435
X8.1722Y-4.7435
X8.1722Y-4.8435
X5.5Y-2.7
X5.6Y-2.7
X5.7Y-2.7
X5.8Y-2.7
X5.9Y-2.7
X6.Y-2.7
X6.1Y-2.7
X6.2Y-2.7
X6.3Y-2.7
X6.4Y-2.7
X6.5Y-2.7
X6.6Y-2.7
X6.7Y-2.7
X6.8Y-2.7
X6.9Y-2.7
X7.Y-2.7
X7.1Y-2.7
X7.2Y-2.7
X7.3Y-2.7
X7.4Y-2.7
X7.5Y-2.7
X7.6Y-2.7
X7.7Y-2.7
X7.8Y-2.7
X7.9Y-2.7
X8.Y-2.7
X8.1Y-2.7
X8.2Y-2.7
X8.3Y-2.7
X8.4Y-2.7
X8.4596Y-4.3435
X8.4596Y-4.4435
X8.4596Y-4.5435
X8.4596Y-4.6435
X8.4596Y-4.7435
X8.4596Y-4.8435
X5.7776Y-4.5571
X5.8776Y-4.5571
X5.9776Y-4.5571
X6.0776Y-4.5571
X6.1776Y-4.5571
X6.2776Y-4.5571
X6.3776Y-4.5571
X6.4776Y-4.5571
X8.3159Y-4.3435
X8.3159Y-4.4435
X8.3159Y-4.5435
X8.3159Y-4.6435
X8.3159Y-4.7435
X8.3159Y-4.8435
X6.7Y-5.
X6.8Y-5.
X6.9Y-5.
X7.Y-5.
X7.1Y-5.
X7.2Y-5.
X5.4823Y-4.0354
X5.4823Y-4.1354
X5.4823Y-4.2354
X5.4823Y-4.3354
T0
M30
