G04 #@! TF.GenerationSoftware,KiCad,Pcbnew,5.0.2-bee76a0~70~ubuntu18.04.1*
G04 #@! TF.CreationDate,2019-01-02T21:11:22-05:00*
G04 #@! TF.ProjectId,stm32 prototype,73746d33-3220-4707-926f-746f74797065,rev?*
G04 #@! TF.SameCoordinates,Original*
G04 #@! TF.FileFunction,Copper,L4,Bot*
G04 #@! TF.FilePolarity,Positive*
%FSLAX46Y46*%
G04 Gerber Fmt 4.6, Leading zero omitted, Abs format (unit mm)*
G04 Created by KiCad (PCBNEW 5.0.2-bee76a0~70~ubuntu18.04.1) date Wed 02 Jan 2019 09:11:22 PM EST*
%MOMM*%
%LPD*%
G01*
G04 APERTURE LIST*
G04 #@! TA.AperFunction,ComponentPad*
%ADD10O,1.700000X1.700000*%
G04 #@! TD*
G04 #@! TA.AperFunction,ComponentPad*
%ADD11R,1.700000X1.700000*%
G04 #@! TD*
G04 #@! TA.AperFunction,SMDPad,CuDef*
%ADD12R,1.200000X0.750000*%
G04 #@! TD*
G04 #@! TA.AperFunction,SMDPad,CuDef*
%ADD13R,0.750000X1.200000*%
G04 #@! TD*
G04 #@! TA.AperFunction,SMDPad,CuDef*
%ADD14R,0.900000X1.200000*%
G04 #@! TD*
G04 #@! TA.AperFunction,ComponentPad*
%ADD15O,1.000000X1.000000*%
G04 #@! TD*
G04 #@! TA.AperFunction,ComponentPad*
%ADD16R,1.000000X1.000000*%
G04 #@! TD*
G04 #@! TA.AperFunction,ViaPad*
%ADD17C,0.800000*%
G04 #@! TD*
G04 #@! TA.AperFunction,Conductor*
%ADD18C,0.250000*%
G04 #@! TD*
G04 #@! TA.AperFunction,Conductor*
%ADD19C,0.254000*%
G04 #@! TD*
G04 APERTURE END LIST*
D10*
G04 #@! TO.P,J1,25*
G04 #@! TO.N,GND*
X182880000Y-106680000D03*
G04 #@! TO.P,J1,24*
G04 #@! TO.N,PB14*
X182880000Y-104140000D03*
G04 #@! TO.P,J1,23*
G04 #@! TO.N,PB15*
X182880000Y-101600000D03*
G04 #@! TO.P,J1,22*
G04 #@! TO.N,PC6*
X182880000Y-99060000D03*
G04 #@! TO.P,J1,21*
G04 #@! TO.N,PC7*
X182880000Y-96520000D03*
G04 #@! TO.P,J1,20*
G04 #@! TO.N,PC8*
X182880000Y-93980000D03*
G04 #@! TO.P,J1,19*
G04 #@! TO.N,PC9*
X182880000Y-91440000D03*
G04 #@! TO.P,J1,18*
G04 #@! TO.N,PA8_MCO*
X182880000Y-88900000D03*
G04 #@! TO.P,J1,17*
G04 #@! TO.N,PA9_ST_RXD*
X182880000Y-86360000D03*
G04 #@! TO.P,J1,16*
G04 #@! TO.N,PA10_ST_TXD*
X182880000Y-83820000D03*
G04 #@! TO.P,J1,15*
G04 #@! TO.N,PA11_ST_RTS*
X182880000Y-81280000D03*
G04 #@! TO.P,J1,14*
G04 #@! TO.N,PA12_CTS*
X182880000Y-78740000D03*
G04 #@! TO.P,J1,13*
G04 #@! TO.N,PA15*
X182880000Y-76200000D03*
G04 #@! TO.P,J1,12*
G04 #@! TO.N,PC10*
X182880000Y-73660000D03*
G04 #@! TO.P,J1,11*
G04 #@! TO.N,PC11*
X182880000Y-71120000D03*
G04 #@! TO.P,J1,10*
G04 #@! TO.N,PC12*
X182880000Y-68580000D03*
G04 #@! TO.P,J1,9*
G04 #@! TO.N,PD2*
X182880000Y-66040000D03*
G04 #@! TO.P,J1,8*
G04 #@! TO.N,PB4*
X182880000Y-63500000D03*
G04 #@! TO.P,J1,7*
G04 #@! TO.N,PB5_I2C1_SMBA*
X182880000Y-60960000D03*
G04 #@! TO.P,J1,6*
G04 #@! TO.N,PB6_I2C1_SCL*
X182880000Y-58420000D03*
G04 #@! TO.P,J1,5*
G04 #@! TO.N,PB7_I2C1_SDA*
X182880000Y-55880000D03*
G04 #@! TO.P,J1,4*
G04 #@! TO.N,PB8*
X182880000Y-53340000D03*
G04 #@! TO.P,J1,3*
G04 #@! TO.N,PB9*
X182880000Y-50800000D03*
G04 #@! TO.P,J1,2*
G04 #@! TO.N,PC13*
X182880000Y-48260000D03*
D11*
G04 #@! TO.P,J1,1*
G04 #@! TO.N,+5V*
X182880000Y-45720000D03*
G04 #@! TD*
G04 #@! TO.P,J1,1*
G04 #@! TO.N,+5V*
X182880000Y-45720000D03*
D10*
G04 #@! TO.P,J1,2*
G04 #@! TO.N,PC13*
X182880000Y-48260000D03*
G04 #@! TO.P,J1,3*
G04 #@! TO.N,PB9*
X182880000Y-50800000D03*
G04 #@! TO.P,J1,4*
G04 #@! TO.N,PB8*
X182880000Y-53340000D03*
G04 #@! TO.P,J1,5*
G04 #@! TO.N,PB7_I2C1_SDA*
X182880000Y-55880000D03*
G04 #@! TO.P,J1,6*
G04 #@! TO.N,PB6_I2C1_SCL*
X182880000Y-58420000D03*
G04 #@! TO.P,J1,7*
G04 #@! TO.N,PB5_I2C1_SMBA*
X182880000Y-60960000D03*
G04 #@! TO.P,J1,8*
G04 #@! TO.N,PB4*
X182880000Y-63500000D03*
G04 #@! TO.P,J1,9*
G04 #@! TO.N,PD2*
X182880000Y-66040000D03*
G04 #@! TO.P,J1,10*
G04 #@! TO.N,PC12*
X182880000Y-68580000D03*
G04 #@! TO.P,J1,11*
G04 #@! TO.N,PC11*
X182880000Y-71120000D03*
G04 #@! TO.P,J1,12*
G04 #@! TO.N,PC10*
X182880000Y-73660000D03*
G04 #@! TO.P,J1,13*
G04 #@! TO.N,PA15*
X182880000Y-76200000D03*
G04 #@! TO.P,J1,14*
G04 #@! TO.N,PA12_CTS*
X182880000Y-78740000D03*
G04 #@! TO.P,J1,15*
G04 #@! TO.N,PA11_ST_RTS*
X182880000Y-81280000D03*
G04 #@! TO.P,J1,16*
G04 #@! TO.N,PA10_ST_TXD*
X182880000Y-83820000D03*
G04 #@! TO.P,J1,17*
G04 #@! TO.N,PA9_ST_RXD*
X182880000Y-86360000D03*
G04 #@! TO.P,J1,18*
G04 #@! TO.N,PA8_MCO*
X182880000Y-88900000D03*
G04 #@! TO.P,J1,19*
G04 #@! TO.N,PC9*
X182880000Y-91440000D03*
G04 #@! TO.P,J1,20*
G04 #@! TO.N,PC8*
X182880000Y-93980000D03*
G04 #@! TO.P,J1,21*
G04 #@! TO.N,PC7*
X182880000Y-96520000D03*
G04 #@! TO.P,J1,22*
G04 #@! TO.N,PC6*
X182880000Y-99060000D03*
G04 #@! TO.P,J1,23*
G04 #@! TO.N,PB15*
X182880000Y-101600000D03*
G04 #@! TO.P,J1,24*
G04 #@! TO.N,PB14*
X182880000Y-104140000D03*
G04 #@! TO.P,J1,25*
G04 #@! TO.N,GND*
X182880000Y-106680000D03*
G04 #@! TD*
G04 #@! TO.P,J10,3*
G04 #@! TO.N,+3V3*
X167250000Y-100330000D03*
G04 #@! TO.P,J10,2*
G04 #@! TO.N,Net-(J10-Pad2)*
X167250000Y-97790000D03*
D11*
G04 #@! TO.P,J10,1*
G04 #@! TO.N,GND*
X167250000Y-95250000D03*
G04 #@! TD*
D10*
G04 #@! TO.P,J1,25*
G04 #@! TO.N,GND*
X182880000Y-106680000D03*
G04 #@! TO.P,J1,24*
G04 #@! TO.N,PB14*
X182880000Y-104140000D03*
G04 #@! TO.P,J1,23*
G04 #@! TO.N,PB15*
X182880000Y-101600000D03*
G04 #@! TO.P,J1,22*
G04 #@! TO.N,PC6*
X182880000Y-99060000D03*
G04 #@! TO.P,J1,21*
G04 #@! TO.N,PC7*
X182880000Y-96520000D03*
G04 #@! TO.P,J1,20*
G04 #@! TO.N,PC8*
X182880000Y-93980000D03*
G04 #@! TO.P,J1,19*
G04 #@! TO.N,PC9*
X182880000Y-91440000D03*
G04 #@! TO.P,J1,18*
G04 #@! TO.N,PA8_MCO*
X182880000Y-88900000D03*
G04 #@! TO.P,J1,17*
G04 #@! TO.N,PA9_ST_RXD*
X182880000Y-86360000D03*
G04 #@! TO.P,J1,16*
G04 #@! TO.N,PA10_ST_TXD*
X182880000Y-83820000D03*
G04 #@! TO.P,J1,15*
G04 #@! TO.N,PA11_ST_RTS*
X182880000Y-81280000D03*
G04 #@! TO.P,J1,14*
G04 #@! TO.N,PA12_CTS*
X182880000Y-78740000D03*
G04 #@! TO.P,J1,13*
G04 #@! TO.N,PA15*
X182880000Y-76200000D03*
G04 #@! TO.P,J1,12*
G04 #@! TO.N,PC10*
X182880000Y-73660000D03*
G04 #@! TO.P,J1,11*
G04 #@! TO.N,PC11*
X182880000Y-71120000D03*
G04 #@! TO.P,J1,10*
G04 #@! TO.N,PC12*
X182880000Y-68580000D03*
G04 #@! TO.P,J1,9*
G04 #@! TO.N,PD2*
X182880000Y-66040000D03*
G04 #@! TO.P,J1,8*
G04 #@! TO.N,PB4*
X182880000Y-63500000D03*
G04 #@! TO.P,J1,7*
G04 #@! TO.N,PB5_I2C1_SMBA*
X182880000Y-60960000D03*
G04 #@! TO.P,J1,6*
G04 #@! TO.N,PB6_I2C1_SCL*
X182880000Y-58420000D03*
G04 #@! TO.P,J1,5*
G04 #@! TO.N,PB7_I2C1_SDA*
X182880000Y-55880000D03*
G04 #@! TO.P,J1,4*
G04 #@! TO.N,PB8*
X182880000Y-53340000D03*
G04 #@! TO.P,J1,3*
G04 #@! TO.N,PB9*
X182880000Y-50800000D03*
G04 #@! TO.P,J1,2*
G04 #@! TO.N,PC13*
X182880000Y-48260000D03*
D11*
G04 #@! TO.P,J1,1*
G04 #@! TO.N,+5V*
X182880000Y-45720000D03*
G04 #@! TD*
G04 #@! TO.P,J8,1*
G04 #@! TO.N,+3V3*
X162560000Y-45720000D03*
D10*
G04 #@! TO.P,J8,2*
G04 #@! TO.N,GND*
X162560000Y-48260000D03*
G04 #@! TO.P,J8,3*
G04 #@! TO.N,PC1*
X162560000Y-50800000D03*
G04 #@! TO.P,J8,4*
G04 #@! TO.N,PC2*
X162560000Y-53340000D03*
G04 #@! TO.P,J8,5*
G04 #@! TO.N,PC0*
X162560000Y-55880000D03*
G04 #@! TO.P,J8,6*
G04 #@! TO.N,PC14*
X162560000Y-58420000D03*
G04 #@! TO.P,J8,7*
G04 #@! TO.N,PC15*
X162560000Y-60960000D03*
G04 #@! TO.P,J8,8*
G04 #@! TO.N,PC3*
X162560000Y-63500000D03*
G04 #@! TO.P,J8,9*
G04 #@! TO.N,PA0*
X162560000Y-66040000D03*
G04 #@! TO.P,J8,10*
G04 #@! TO.N,PA1*
X162560000Y-68580000D03*
G04 #@! TO.P,J8,11*
G04 #@! TO.N,PA2*
X162560000Y-71120000D03*
G04 #@! TO.P,J8,12*
G04 #@! TO.N,PA3*
X162560000Y-73660000D03*
G04 #@! TO.P,J8,13*
G04 #@! TO.N,PB0*
X162560000Y-76200000D03*
G04 #@! TO.P,J8,14*
G04 #@! TO.N,PC5*
X162560000Y-78740000D03*
G04 #@! TO.P,J8,15*
G04 #@! TO.N,PC4*
X162560000Y-81280000D03*
G04 #@! TO.P,J8,16*
G04 #@! TO.N,PA4_SPI1_NSS*
X162560000Y-83820000D03*
G04 #@! TO.P,J8,17*
G04 #@! TO.N,PA5_SPI1_SCK*
X162560000Y-86360000D03*
G04 #@! TO.P,J8,18*
G04 #@! TO.N,PA6_SPI1_MISO*
X162560000Y-88900000D03*
G04 #@! TO.P,J8,19*
G04 #@! TO.N,PA7_SPI1_MOSI*
X162560000Y-91440000D03*
G04 #@! TO.P,J8,20*
G04 #@! TO.N,PB1*
X162560000Y-93980000D03*
G04 #@! TO.P,J8,21*
G04 #@! TO.N,PB10*
X162560000Y-96520000D03*
G04 #@! TO.P,J8,22*
G04 #@! TO.N,PB11*
X162560000Y-99060000D03*
G04 #@! TO.P,J8,23*
G04 #@! TO.N,PB13*
X162560000Y-101600000D03*
G04 #@! TO.P,J8,24*
G04 #@! TO.N,PB12*
X162560000Y-104140000D03*
G04 #@! TO.P,J8,25*
G04 #@! TO.N,GND*
X162560000Y-106680000D03*
G04 #@! TD*
G04 #@! TO.P,J9,3*
G04 #@! TO.N,+3V3*
X178250000Y-100330000D03*
G04 #@! TO.P,J9,2*
G04 #@! TO.N,Net-(J9-Pad2)*
X178250000Y-97790000D03*
D11*
G04 #@! TO.P,J9,1*
G04 #@! TO.N,GND*
X178250000Y-95250000D03*
G04 #@! TD*
D12*
G04 #@! TO.P,C12,2*
G04 #@! TO.N,NRST*
X174750000Y-79500000D03*
G04 #@! TO.P,C12,1*
G04 #@! TO.N,GND*
X172850000Y-79500000D03*
G04 #@! TD*
G04 #@! TO.P,C19,1*
G04 #@! TO.N,GND*
X174000000Y-84000000D03*
G04 #@! TO.P,C19,2*
G04 #@! TO.N,+3V3*
X172100000Y-84000000D03*
G04 #@! TD*
D13*
G04 #@! TO.P,C20,1*
G04 #@! TO.N,GND*
X169250000Y-63450000D03*
G04 #@! TO.P,C20,2*
G04 #@! TO.N,PC13*
X169250000Y-61550000D03*
G04 #@! TD*
D12*
G04 #@! TO.P,C24,1*
G04 #@! TO.N,GND*
X174900000Y-81250000D03*
G04 #@! TO.P,C24,2*
G04 #@! TO.N,+3V3*
X173000000Y-81250000D03*
G04 #@! TD*
D14*
G04 #@! TO.P,R3,1*
G04 #@! TO.N,+3V3*
X180000000Y-55900000D03*
G04 #@! TO.P,R3,2*
G04 #@! TO.N,PB6_I2C1_SCL*
X180000000Y-58100000D03*
G04 #@! TD*
G04 #@! TO.P,R4,2*
G04 #@! TO.N,PB7_I2C1_SDA*
X180000000Y-51750000D03*
G04 #@! TO.P,R4,1*
G04 #@! TO.N,+3V3*
X180000000Y-53950000D03*
G04 #@! TD*
G04 #@! TO.P,R32,2*
G04 #@! TO.N,PC13*
X169250000Y-59850000D03*
G04 #@! TO.P,R32,1*
G04 #@! TO.N,+3V3*
X169250000Y-57650000D03*
G04 #@! TD*
D15*
G04 #@! TO.P,SWD,10*
G04 #@! TO.N,NRST*
X177500000Y-62750000D03*
G04 #@! TO.P,SWD,9*
G04 #@! TO.N,GND*
X176230000Y-62750000D03*
G04 #@! TO.P,SWD,8*
G04 #@! TO.N,N/C*
X177500000Y-61480000D03*
G04 #@! TO.P,SWD,7*
X176230000Y-61480000D03*
G04 #@! TO.P,SWD,6*
G04 #@! TO.N,SWO*
X177500000Y-60210000D03*
G04 #@! TO.P,SWD,5*
G04 #@! TO.N,GND*
X176230000Y-60210000D03*
G04 #@! TO.P,SWD,4*
G04 #@! TO.N,TCK_SWCLK*
X177500000Y-58940000D03*
G04 #@! TO.P,SWD,3*
G04 #@! TO.N,GND*
X176230000Y-58940000D03*
G04 #@! TO.P,SWD,2*
G04 #@! TO.N,TMS_SWDIO*
X177500000Y-57670000D03*
D16*
G04 #@! TO.P,SWD,1*
G04 #@! TO.N,+3V3*
X176230000Y-57670000D03*
G04 #@! TD*
D17*
G04 #@! TO.N,GND*
X177115000Y-52785000D03*
X170000000Y-46750000D03*
X170052813Y-45669416D03*
X171052813Y-45669416D03*
X172052813Y-45669416D03*
X169052813Y-44669416D03*
X170052813Y-44669416D03*
X171052813Y-44669416D03*
X172052813Y-44669416D03*
X169500000Y-90750000D03*
X181000000Y-93250000D03*
X177250000Y-69500000D03*
X169250000Y-64750000D03*
X176024990Y-72701699D03*
X177600000Y-93000000D03*
X178500000Y-107500000D03*
X164661065Y-92837714D03*
X169000000Y-71500000D03*
X167583298Y-82397556D03*
X173750000Y-85250000D03*
X166000000Y-76750000D03*
X173225689Y-71748991D03*
X176500000Y-81250000D03*
X176000000Y-82500000D03*
X172216758Y-67507922D03*
X169000000Y-74000000D03*
X168000000Y-76000000D03*
G04 #@! TO.N,+3V3*
X169500000Y-54500000D03*
X168500000Y-54500000D03*
X169602813Y-50500000D03*
X169602813Y-49500000D03*
X168500000Y-52500000D03*
X168500000Y-50500000D03*
X168500000Y-53469416D03*
X178500000Y-54000000D03*
X178500000Y-55000000D03*
X176813821Y-70765907D03*
X181362340Y-90387660D03*
X178474990Y-67736500D03*
X171500000Y-93000000D03*
X167250000Y-107250000D03*
X169250000Y-56500000D03*
X168725926Y-83524066D03*
X168250000Y-80000000D03*
X172459035Y-72750000D03*
X168500000Y-49500000D03*
X168500000Y-51500000D03*
G04 #@! TO.N,+5V*
X177052813Y-45869416D03*
X176052813Y-45869416D03*
X175052813Y-45869416D03*
X174052813Y-45869416D03*
X174052813Y-44869416D03*
X175052813Y-44869416D03*
X176052813Y-44869416D03*
X177052813Y-44869416D03*
G04 #@! TO.N,NRST*
X173648436Y-78013294D03*
G04 #@! TO.N,PB14*
X173800000Y-86400000D03*
G04 #@! TO.N,PB11*
X166750000Y-90500000D03*
G04 #@! TO.N,PB10*
X165750000Y-90250000D03*
G04 #@! TO.N,PC2*
X169500000Y-80000000D03*
G04 #@! TO.N,PB9*
X176750000Y-72000000D03*
G04 #@! TO.N,PB8*
X178012660Y-71762660D03*
G04 #@! TO.N,PB7_I2C1_SDA*
X178400000Y-65000000D03*
G04 #@! TO.N,PB6_I2C1_SCL*
X179125010Y-63286846D03*
G04 #@! TO.N,PB5_I2C1_SMBA*
X178575927Y-75288139D03*
G04 #@! TO.N,PB4*
X179627006Y-74589417D03*
G04 #@! TO.N,PA15*
X178000000Y-80750000D03*
G04 #@! TO.N,PA12_CTS*
X179265500Y-84495306D03*
G04 #@! TO.N,PA11_ST_RTS*
X179399869Y-85487783D03*
G04 #@! TO.N,PA10_ST_TXD*
X179659171Y-86648408D03*
G04 #@! TO.N,PA9_ST_RXD*
X178804707Y-87167940D03*
G04 #@! TO.N,PA8_MCO*
X178250000Y-88000000D03*
G04 #@! TO.N,PA3*
X164250000Y-83000000D03*
G04 #@! TO.N,PA0*
X165875645Y-78105839D03*
G04 #@! TO.N,PC13*
X167000000Y-60000000D03*
G04 #@! TO.N,PD2*
X179648376Y-76950425D03*
G04 #@! TO.N,PC3*
X165250000Y-75750000D03*
G04 #@! TO.N,PC9*
X175600000Y-84600000D03*
G04 #@! TO.N,PC10*
X180042585Y-78398964D03*
G04 #@! TO.N,PC11*
X177250000Y-80000000D03*
G04 #@! TO.N,PC12*
X180529978Y-76166807D03*
G04 #@! TO.N,PC14*
X171500000Y-76250000D03*
G04 #@! TO.N,PC1*
X170510243Y-80325011D03*
G04 #@! TO.N,PC0*
X170237017Y-78487663D03*
G04 #@! TO.N,PC13*
X170750000Y-73250000D03*
X171750000Y-64500000D03*
G04 #@! TO.N,Net-(R6-Pad1)*
X174750000Y-77750000D03*
X175250000Y-92500000D03*
G04 #@! TO.N,PC15*
X169737965Y-74674857D03*
G04 #@! TD*
D18*
G04 #@! TO.N,GND*
X169250000Y-63200000D02*
X169250000Y-64750000D01*
X174000000Y-84000000D02*
X174000000Y-85000000D01*
X174000000Y-85000000D02*
X173750000Y-85250000D01*
X174825000Y-81250000D02*
X174900000Y-81250000D01*
X173075000Y-79500000D02*
X174825000Y-81250000D01*
X172850000Y-79500000D02*
X173075000Y-79500000D01*
X174900000Y-81250000D02*
X176500000Y-81250000D01*
X174900000Y-81250000D02*
X174900000Y-81400000D01*
X174900000Y-81400000D02*
X176000000Y-82500000D01*
G04 #@! TO.N,+3V3*
X180000000Y-55900000D02*
X180000000Y-53950000D01*
X180000000Y-53950000D02*
X178550000Y-53950000D01*
X178550000Y-53950000D02*
X178500000Y-54000000D01*
X180000000Y-55900000D02*
X179400000Y-55900000D01*
X179400000Y-55900000D02*
X178500000Y-55000000D01*
X169250000Y-57650000D02*
X169250000Y-56500000D01*
X169125925Y-83924065D02*
X168725926Y-83524066D01*
X169201860Y-84000000D02*
X169125925Y-83924065D01*
X172100000Y-84000000D02*
X169201860Y-84000000D01*
X168250000Y-80000000D02*
X169500000Y-81250000D01*
X169500000Y-81250000D02*
X172100000Y-81250000D01*
X172100000Y-81250000D02*
X173000000Y-81250000D01*
G04 #@! TO.N,NRST*
X174000000Y-78930543D02*
X173648436Y-78578979D01*
X173648436Y-78578979D02*
X173648436Y-78013294D01*
X174180543Y-78930543D02*
X174750000Y-79500000D01*
X174000000Y-78930543D02*
X174180543Y-78930543D01*
G04 #@! TO.N,PB14*
X173800000Y-86400000D02*
X176200000Y-88800000D01*
X176200000Y-88800000D02*
X176200000Y-92800000D01*
X176200000Y-92800000D02*
X177200000Y-93800000D01*
X177200000Y-93800000D02*
X179600000Y-93800000D01*
X179600000Y-93800000D02*
X181000000Y-95200000D01*
X181000000Y-102260000D02*
X182880000Y-104140000D01*
X181000000Y-95200000D02*
X181000000Y-102260000D01*
G04 #@! TO.N,PB11*
X166750000Y-90500000D02*
X166750000Y-92750000D01*
X166750000Y-92750000D02*
X164250000Y-95250000D01*
X164250000Y-97370000D02*
X162560000Y-99060000D01*
X164250000Y-95250000D02*
X164250000Y-97370000D01*
G04 #@! TO.N,PB10*
X163750000Y-95330000D02*
X162560000Y-96520000D01*
X163750000Y-95000000D02*
X163750000Y-95330000D01*
X165750000Y-90250000D02*
X165750000Y-93000000D01*
X165750000Y-93000000D02*
X163750000Y-95000000D01*
G04 #@! TO.N,PC2*
X174450009Y-56950009D02*
X173250000Y-55750000D01*
X163409999Y-54189999D02*
X162560000Y-53340000D01*
X164970000Y-55750000D02*
X163409999Y-54189999D01*
X173250000Y-55750000D02*
X164970000Y-55750000D01*
X169899999Y-79600001D02*
X170399999Y-79600001D01*
X169500000Y-80000000D02*
X169899999Y-79600001D01*
X174049991Y-74063599D02*
X174450009Y-73663581D01*
X174049991Y-75950009D02*
X174049991Y-74063599D01*
X174450009Y-72250000D02*
X174450009Y-56950009D01*
X174450009Y-72299991D02*
X174450009Y-72250000D01*
X174450009Y-73663581D02*
X174450009Y-72250000D01*
X170399999Y-79600001D02*
X174049991Y-75950009D01*
G04 #@! TO.N,PC14*
X164049989Y-59909989D02*
X164049989Y-61936400D01*
X162560000Y-58420000D02*
X164049989Y-59909989D01*
X165549989Y-63436400D02*
X165549989Y-65049989D01*
X165549989Y-65049989D02*
X166500000Y-66000000D01*
X164049989Y-61936400D02*
X165549989Y-63436400D01*
G04 #@! TO.N,PB7_I2C1_SDA*
X181760000Y-57000000D02*
X182880000Y-55880000D01*
X178600000Y-57000000D02*
X181760000Y-57000000D01*
X178400000Y-65000000D02*
X178400000Y-57200000D01*
X178400000Y-57200000D02*
X178600000Y-57000000D01*
X180000000Y-51750000D02*
X180950000Y-51750000D01*
X180950000Y-51750000D02*
X181600000Y-52400000D01*
X181600000Y-54600000D02*
X182880000Y-55880000D01*
X181600000Y-52400000D02*
X181600000Y-54600000D01*
G04 #@! TO.N,PB6_I2C1_SCL*
X179525009Y-62886847D02*
X179125010Y-63286846D01*
X180000000Y-62411856D02*
X179525009Y-62886847D01*
X180000000Y-58100000D02*
X180000000Y-62411856D01*
X182560000Y-58100000D02*
X182880000Y-58420000D01*
X180000000Y-58100000D02*
X182560000Y-58100000D01*
G04 #@! TO.N,PA3*
X164250000Y-83000000D02*
X163750000Y-82500000D01*
X163750000Y-82500000D02*
X164750000Y-81500000D01*
X164750000Y-81500000D02*
X164750000Y-77250000D01*
X164750000Y-77250000D02*
X163750000Y-76250000D01*
X163750000Y-74850000D02*
X162560000Y-73660000D01*
X163750000Y-76250000D02*
X163750000Y-74850000D01*
G04 #@! TO.N,PA0*
X163735001Y-69621411D02*
X164299989Y-70186399D01*
X165228443Y-77458637D02*
X165475646Y-77705840D01*
X165228443Y-76864854D02*
X165228443Y-77458637D01*
X165475646Y-77705840D02*
X165875645Y-78105839D01*
X164299989Y-75936400D02*
X165228443Y-76864854D01*
X164299989Y-70186399D02*
X164299989Y-75936400D01*
X163735001Y-67215001D02*
X163735001Y-69621411D01*
X162560000Y-66040000D02*
X163735001Y-67215001D01*
G04 #@! TO.N,PC13*
X169250000Y-61300000D02*
X169250000Y-59450000D01*
X169250000Y-59450000D02*
X167550000Y-59450000D01*
X167550000Y-59450000D02*
X167000000Y-60000000D01*
G04 #@! TO.N,PC3*
X163409999Y-64349999D02*
X162560000Y-63500000D01*
X164185012Y-69435004D02*
X164185012Y-65125012D01*
X164840380Y-70090380D02*
X164185012Y-69435004D01*
X165250000Y-75750000D02*
X164840380Y-75340380D01*
X164185012Y-65125012D02*
X163409999Y-64349999D01*
X164840380Y-75340380D02*
X164840380Y-70090380D01*
G04 #@! TO.N,PC1*
X170910242Y-79726169D02*
X170910242Y-79925012D01*
X170910242Y-79925012D02*
X170510243Y-80325011D01*
X174700011Y-75936400D02*
X170910242Y-79726169D01*
X174900018Y-74299993D02*
X174700011Y-74500000D01*
X174700011Y-74500000D02*
X174700011Y-75936400D01*
X167059991Y-55299991D02*
X173436401Y-55299991D01*
X174900018Y-56763608D02*
X174900018Y-74299993D01*
X174700011Y-74450011D02*
X174700011Y-74500000D01*
X162560000Y-50800000D02*
X167059991Y-55299991D01*
X173436401Y-55299991D02*
X174900018Y-56763608D01*
G04 #@! TO.N,PC0*
X173549989Y-72563601D02*
X173549989Y-75740376D01*
X170802702Y-78487663D02*
X170237017Y-78487663D01*
X166000000Y-59320000D02*
X166000000Y-64750000D01*
X166000000Y-64750000D02*
X166750000Y-65500000D01*
X174000000Y-66500000D02*
X174000000Y-72113590D01*
X173549989Y-75740376D02*
X170802702Y-78487663D01*
X162560000Y-55880000D02*
X166000000Y-59320000D01*
X174000000Y-72113590D02*
X173549989Y-72563601D01*
X173000000Y-65500000D02*
X174000000Y-66500000D01*
X166750000Y-65500000D02*
X173000000Y-65500000D01*
G04 #@! TO.N,PC14*
X171500000Y-76250000D02*
X171500000Y-72250000D01*
X171500000Y-72250000D02*
X173500000Y-70250000D01*
X173500000Y-66750000D02*
X172750000Y-66000000D01*
X173500000Y-70250000D02*
X173500000Y-66750000D01*
X166500000Y-66000000D02*
X172750000Y-66000000D01*
G04 #@! TO.N,PC15*
X165099978Y-65349978D02*
X166250000Y-66500000D01*
X162560000Y-60960000D02*
X163409999Y-61809999D01*
X166250000Y-66500000D02*
X169044229Y-66500000D01*
X165099978Y-63622800D02*
X165099978Y-65349978D01*
X169737965Y-67193736D02*
X169737965Y-74109172D01*
X163409999Y-61932821D02*
X165099978Y-63622800D01*
X169737965Y-74109172D02*
X169737965Y-74674857D01*
X169044229Y-66500000D02*
X169737965Y-67193736D01*
X163409999Y-61809999D02*
X163409999Y-61932821D01*
G04 #@! TD*
D19*
G04 #@! TO.N,GND*
G36*
X181481161Y-58999418D02*
X181809375Y-59490625D01*
X182107761Y-59690000D01*
X181809375Y-59889375D01*
X181481161Y-60380582D01*
X181365908Y-60960000D01*
X181481161Y-61539418D01*
X181809375Y-62030625D01*
X182107761Y-62230000D01*
X181809375Y-62429375D01*
X181481161Y-62920582D01*
X181365908Y-63500000D01*
X181481161Y-64079418D01*
X181809375Y-64570625D01*
X182107761Y-64770000D01*
X181809375Y-64969375D01*
X181481161Y-65460582D01*
X181365908Y-66040000D01*
X181481161Y-66619418D01*
X181809375Y-67110625D01*
X182107761Y-67310000D01*
X181809375Y-67509375D01*
X181481161Y-68000582D01*
X181365908Y-68580000D01*
X181481161Y-69159418D01*
X181809375Y-69650625D01*
X182107761Y-69850000D01*
X181809375Y-70049375D01*
X181481161Y-70540582D01*
X181365908Y-71120000D01*
X181481161Y-71699418D01*
X181809375Y-72190625D01*
X182107761Y-72390000D01*
X181809375Y-72589375D01*
X181481161Y-73080582D01*
X181365908Y-73660000D01*
X181481161Y-74239418D01*
X181809375Y-74730625D01*
X182107761Y-74930000D01*
X181809375Y-75129375D01*
X181481161Y-75620582D01*
X181462617Y-75713811D01*
X181407409Y-75580527D01*
X181116258Y-75289376D01*
X180735852Y-75131807D01*
X180522617Y-75131807D01*
X180662006Y-74795291D01*
X180662006Y-74383543D01*
X180504437Y-74003137D01*
X180213286Y-73711986D01*
X179832880Y-73554417D01*
X179421132Y-73554417D01*
X179040726Y-73711986D01*
X178749575Y-74003137D01*
X178646021Y-74253139D01*
X178370053Y-74253139D01*
X177989647Y-74410708D01*
X177698496Y-74701859D01*
X177540927Y-75082265D01*
X177540927Y-75494013D01*
X177698496Y-75874419D01*
X177989647Y-76165570D01*
X178370053Y-76323139D01*
X178781801Y-76323139D01*
X178833270Y-76301820D01*
X178770945Y-76364145D01*
X178613376Y-76744551D01*
X178613376Y-77156299D01*
X178770945Y-77536705D01*
X179062096Y-77827856D01*
X179144697Y-77862071D01*
X179007585Y-78193090D01*
X179007585Y-78604838D01*
X179165154Y-78985244D01*
X179456305Y-79276395D01*
X179836711Y-79433964D01*
X180248459Y-79433964D01*
X180628865Y-79276395D01*
X180920016Y-78985244D01*
X181077585Y-78604838D01*
X181077585Y-78193090D01*
X180920016Y-77812684D01*
X180628865Y-77521533D01*
X180546264Y-77487318D01*
X180664526Y-77201807D01*
X180735852Y-77201807D01*
X181116258Y-77044238D01*
X181407409Y-76753087D01*
X181453696Y-76641341D01*
X181481161Y-76779418D01*
X181809375Y-77270625D01*
X182107761Y-77470000D01*
X181809375Y-77669375D01*
X181481161Y-78160582D01*
X181365908Y-78740000D01*
X181481161Y-79319418D01*
X181809375Y-79810625D01*
X182107761Y-80010000D01*
X181809375Y-80209375D01*
X181481161Y-80700582D01*
X181365908Y-81280000D01*
X181481161Y-81859418D01*
X181809375Y-82350625D01*
X182107761Y-82550000D01*
X181809375Y-82749375D01*
X181481161Y-83240582D01*
X181365908Y-83820000D01*
X181481161Y-84399418D01*
X181809375Y-84890625D01*
X182107761Y-85090000D01*
X181809375Y-85289375D01*
X181481161Y-85780582D01*
X181365908Y-86360000D01*
X181481161Y-86939418D01*
X181809375Y-87430625D01*
X182107761Y-87630000D01*
X181809375Y-87829375D01*
X181481161Y-88320582D01*
X181365908Y-88900000D01*
X181455947Y-89352660D01*
X181156466Y-89352660D01*
X180776060Y-89510229D01*
X180484909Y-89801380D01*
X180327340Y-90181786D01*
X180327340Y-90593534D01*
X180484909Y-90973940D01*
X180776060Y-91265091D01*
X181156466Y-91422660D01*
X181369357Y-91422660D01*
X181365908Y-91440000D01*
X181481161Y-92019418D01*
X181809375Y-92510625D01*
X182107761Y-92710000D01*
X181809375Y-92909375D01*
X181481161Y-93400582D01*
X181365908Y-93980000D01*
X181481161Y-94559418D01*
X181539150Y-94646205D01*
X181484473Y-94609671D01*
X180190331Y-93315530D01*
X180147929Y-93252071D01*
X179896537Y-93084096D01*
X179674852Y-93040000D01*
X179674847Y-93040000D01*
X179600000Y-93025112D01*
X179525153Y-93040000D01*
X177514802Y-93040000D01*
X176960000Y-92485199D01*
X176960000Y-88874848D01*
X176974888Y-88800000D01*
X176960000Y-88725152D01*
X176960000Y-88725148D01*
X176915904Y-88503463D01*
X176747929Y-88252071D01*
X176684473Y-88209671D01*
X176268928Y-87794126D01*
X177215000Y-87794126D01*
X177215000Y-88205874D01*
X177372569Y-88586280D01*
X177663720Y-88877431D01*
X178044126Y-89035000D01*
X178455874Y-89035000D01*
X178836280Y-88877431D01*
X179127431Y-88586280D01*
X179285000Y-88205874D01*
X179285000Y-88089272D01*
X179390987Y-88045371D01*
X179682138Y-87754220D01*
X179711469Y-87683408D01*
X179865045Y-87683408D01*
X180245451Y-87525839D01*
X180536602Y-87234688D01*
X180694171Y-86854282D01*
X180694171Y-86442534D01*
X180536602Y-86062128D01*
X180356743Y-85882269D01*
X180434869Y-85693657D01*
X180434869Y-85281909D01*
X180277300Y-84901503D01*
X180235032Y-84859235D01*
X180300500Y-84701180D01*
X180300500Y-84289432D01*
X180142931Y-83909026D01*
X179851780Y-83617875D01*
X179471374Y-83460306D01*
X179059626Y-83460306D01*
X178679220Y-83617875D01*
X178388069Y-83909026D01*
X178230500Y-84289432D01*
X178230500Y-84701180D01*
X178388069Y-85081586D01*
X178430337Y-85123854D01*
X178364869Y-85281909D01*
X178364869Y-85693657D01*
X178522438Y-86074063D01*
X178586446Y-86138071D01*
X178218427Y-86290509D01*
X177927276Y-86581660D01*
X177769707Y-86962066D01*
X177769707Y-87078668D01*
X177663720Y-87122569D01*
X177372569Y-87413720D01*
X177215000Y-87794126D01*
X176268928Y-87794126D01*
X174835000Y-86360199D01*
X174835000Y-86194126D01*
X174677431Y-85813720D01*
X174386280Y-85522569D01*
X174005874Y-85365000D01*
X173594126Y-85365000D01*
X173213720Y-85522569D01*
X172922569Y-85813720D01*
X172765000Y-86194126D01*
X172765000Y-86605874D01*
X172922569Y-86986280D01*
X173213720Y-87277431D01*
X173594126Y-87435000D01*
X173760199Y-87435000D01*
X175440000Y-89114802D01*
X175440001Y-91465000D01*
X175044126Y-91465000D01*
X174663720Y-91622569D01*
X174372569Y-91913720D01*
X174215000Y-92294126D01*
X174215000Y-92705874D01*
X174372569Y-93086280D01*
X174663720Y-93377431D01*
X175044126Y-93535000D01*
X175455874Y-93535000D01*
X175741775Y-93416576D01*
X176609670Y-94284472D01*
X176652071Y-94347929D01*
X176765000Y-94423386D01*
X176765000Y-94964250D01*
X176923750Y-95123000D01*
X178123000Y-95123000D01*
X178123000Y-95103000D01*
X178377000Y-95103000D01*
X178377000Y-95123000D01*
X179576250Y-95123000D01*
X179712224Y-94987026D01*
X180240000Y-95514802D01*
X180240001Y-102185148D01*
X180225112Y-102260000D01*
X180240001Y-102334852D01*
X180284097Y-102556537D01*
X180452072Y-102807929D01*
X180515528Y-102850329D01*
X181438791Y-103773593D01*
X181365908Y-104140000D01*
X181481161Y-104719418D01*
X181809375Y-105210625D01*
X182128478Y-105423843D01*
X181998642Y-105484817D01*
X181608355Y-105913076D01*
X181438524Y-106323110D01*
X181559845Y-106553000D01*
X182753000Y-106553000D01*
X182753000Y-106533000D01*
X183007000Y-106533000D01*
X183007000Y-106553000D01*
X183027000Y-106553000D01*
X183027000Y-106807000D01*
X183007000Y-106807000D01*
X183007000Y-108000819D01*
X183190020Y-108096884D01*
X183123679Y-108197499D01*
X182840237Y-108388400D01*
X182492563Y-108458000D01*
X162937509Y-108458000D01*
X162591870Y-108389248D01*
X162309455Y-108200545D01*
X162242733Y-108100688D01*
X162433000Y-108000819D01*
X162433000Y-106807000D01*
X162687000Y-106807000D01*
X162687000Y-108000819D01*
X162916892Y-108121486D01*
X163441358Y-107875183D01*
X163831645Y-107446924D01*
X163998478Y-107044126D01*
X166215000Y-107044126D01*
X166215000Y-107455874D01*
X166372569Y-107836280D01*
X166663720Y-108127431D01*
X167044126Y-108285000D01*
X167455874Y-108285000D01*
X167836280Y-108127431D01*
X168127431Y-107836280D01*
X168285000Y-107455874D01*
X168285000Y-107044126D01*
X168282003Y-107036890D01*
X181438524Y-107036890D01*
X181608355Y-107446924D01*
X181998642Y-107875183D01*
X182523108Y-108121486D01*
X182753000Y-108000819D01*
X182753000Y-106807000D01*
X181559845Y-106807000D01*
X181438524Y-107036890D01*
X168282003Y-107036890D01*
X168127431Y-106663720D01*
X167836280Y-106372569D01*
X167455874Y-106215000D01*
X167044126Y-106215000D01*
X166663720Y-106372569D01*
X166372569Y-106663720D01*
X166215000Y-107044126D01*
X163998478Y-107044126D01*
X164001476Y-107036890D01*
X163880155Y-106807000D01*
X162687000Y-106807000D01*
X162433000Y-106807000D01*
X162413000Y-106807000D01*
X162413000Y-106553000D01*
X162433000Y-106553000D01*
X162433000Y-106533000D01*
X162687000Y-106533000D01*
X162687000Y-106553000D01*
X163880155Y-106553000D01*
X164001476Y-106323110D01*
X163831645Y-105913076D01*
X163441358Y-105484817D01*
X163311522Y-105423843D01*
X163630625Y-105210625D01*
X163958839Y-104719418D01*
X164074092Y-104140000D01*
X163958839Y-103560582D01*
X163630625Y-103069375D01*
X163332239Y-102870000D01*
X163630625Y-102670625D01*
X163958839Y-102179418D01*
X164074092Y-101600000D01*
X163958839Y-101020582D01*
X163630625Y-100529375D01*
X163332239Y-100330000D01*
X163630625Y-100130625D01*
X163958839Y-99639418D01*
X164074092Y-99060000D01*
X164001209Y-98693592D01*
X164734473Y-97960329D01*
X164797929Y-97917929D01*
X164883408Y-97790000D01*
X165735908Y-97790000D01*
X165851161Y-98369418D01*
X166179375Y-98860625D01*
X166477761Y-99060000D01*
X166179375Y-99259375D01*
X165851161Y-99750582D01*
X165735908Y-100330000D01*
X165851161Y-100909418D01*
X166179375Y-101400625D01*
X166670582Y-101728839D01*
X167103744Y-101815000D01*
X167396256Y-101815000D01*
X167829418Y-101728839D01*
X168320625Y-101400625D01*
X168648839Y-100909418D01*
X168764092Y-100330000D01*
X168648839Y-99750582D01*
X168320625Y-99259375D01*
X168022239Y-99060000D01*
X168320625Y-98860625D01*
X168648839Y-98369418D01*
X168764092Y-97790000D01*
X176735908Y-97790000D01*
X176851161Y-98369418D01*
X177179375Y-98860625D01*
X177477761Y-99060000D01*
X177179375Y-99259375D01*
X176851161Y-99750582D01*
X176735908Y-100330000D01*
X176851161Y-100909418D01*
X177179375Y-101400625D01*
X177670582Y-101728839D01*
X178103744Y-101815000D01*
X178396256Y-101815000D01*
X178829418Y-101728839D01*
X179320625Y-101400625D01*
X179648839Y-100909418D01*
X179764092Y-100330000D01*
X179648839Y-99750582D01*
X179320625Y-99259375D01*
X179022239Y-99060000D01*
X179320625Y-98860625D01*
X179648839Y-98369418D01*
X179764092Y-97790000D01*
X179648839Y-97210582D01*
X179320625Y-96719375D01*
X179298967Y-96704904D01*
X179459698Y-96638327D01*
X179638327Y-96459699D01*
X179735000Y-96226310D01*
X179735000Y-95535750D01*
X179576250Y-95377000D01*
X178377000Y-95377000D01*
X178377000Y-95397000D01*
X178123000Y-95397000D01*
X178123000Y-95377000D01*
X176923750Y-95377000D01*
X176765000Y-95535750D01*
X176765000Y-96226310D01*
X176861673Y-96459699D01*
X177040302Y-96638327D01*
X177201033Y-96704904D01*
X177179375Y-96719375D01*
X176851161Y-97210582D01*
X176735908Y-97790000D01*
X168764092Y-97790000D01*
X168648839Y-97210582D01*
X168320625Y-96719375D01*
X168298967Y-96704904D01*
X168459698Y-96638327D01*
X168638327Y-96459699D01*
X168735000Y-96226310D01*
X168735000Y-95535750D01*
X168576250Y-95377000D01*
X167377000Y-95377000D01*
X167377000Y-95397000D01*
X167123000Y-95397000D01*
X167123000Y-95377000D01*
X165923750Y-95377000D01*
X165765000Y-95535750D01*
X165765000Y-96226310D01*
X165861673Y-96459699D01*
X166040302Y-96638327D01*
X166201033Y-96704904D01*
X166179375Y-96719375D01*
X165851161Y-97210582D01*
X165735908Y-97790000D01*
X164883408Y-97790000D01*
X164965904Y-97666537D01*
X165010000Y-97444852D01*
X165010000Y-97444847D01*
X165024888Y-97370000D01*
X165010000Y-97295153D01*
X165010000Y-95564801D01*
X165765000Y-94809801D01*
X165765000Y-94964250D01*
X165923750Y-95123000D01*
X167123000Y-95123000D01*
X167123000Y-93923750D01*
X167377000Y-93923750D01*
X167377000Y-95123000D01*
X168576250Y-95123000D01*
X168735000Y-94964250D01*
X168735000Y-94273690D01*
X168638327Y-94040301D01*
X168459698Y-93861673D01*
X168226309Y-93765000D01*
X167535750Y-93765000D01*
X167377000Y-93923750D01*
X167123000Y-93923750D01*
X166964250Y-93765000D01*
X166809802Y-93765000D01*
X167234473Y-93340329D01*
X167297929Y-93297929D01*
X167465904Y-93046537D01*
X167510000Y-92824852D01*
X167510000Y-92824847D01*
X167516110Y-92794126D01*
X170465000Y-92794126D01*
X170465000Y-93205874D01*
X170622569Y-93586280D01*
X170913720Y-93877431D01*
X171294126Y-94035000D01*
X171705874Y-94035000D01*
X172086280Y-93877431D01*
X172377431Y-93586280D01*
X172535000Y-93205874D01*
X172535000Y-92794126D01*
X172377431Y-92413720D01*
X172086280Y-92122569D01*
X171705874Y-91965000D01*
X171294126Y-91965000D01*
X170913720Y-92122569D01*
X170622569Y-92413720D01*
X170465000Y-92794126D01*
X167516110Y-92794126D01*
X167524888Y-92750000D01*
X167510000Y-92675153D01*
X167510000Y-91203711D01*
X167627431Y-91086280D01*
X167785000Y-90705874D01*
X167785000Y-90294126D01*
X167627431Y-89913720D01*
X167336280Y-89622569D01*
X166955874Y-89465000D01*
X166544126Y-89465000D01*
X166462515Y-89498804D01*
X166336280Y-89372569D01*
X165955874Y-89215000D01*
X165544126Y-89215000D01*
X165163720Y-89372569D01*
X164872569Y-89663720D01*
X164715000Y-90044126D01*
X164715000Y-90455874D01*
X164872569Y-90836280D01*
X164990000Y-90953711D01*
X164990001Y-92685197D01*
X164011230Y-93663969D01*
X163958839Y-93400582D01*
X163630625Y-92909375D01*
X163332239Y-92710000D01*
X163630625Y-92510625D01*
X163958839Y-92019418D01*
X164074092Y-91440000D01*
X163958839Y-90860582D01*
X163630625Y-90369375D01*
X163332239Y-90170000D01*
X163630625Y-89970625D01*
X163958839Y-89479418D01*
X164074092Y-88900000D01*
X163958839Y-88320582D01*
X163630625Y-87829375D01*
X163332239Y-87630000D01*
X163630625Y-87430625D01*
X163958839Y-86939418D01*
X164074092Y-86360000D01*
X163958839Y-85780582D01*
X163630625Y-85289375D01*
X163332239Y-85090000D01*
X163630625Y-84890625D01*
X163958839Y-84399418D01*
X164032300Y-84030102D01*
X164044126Y-84035000D01*
X164455874Y-84035000D01*
X164836280Y-83877431D01*
X165127431Y-83586280D01*
X165238476Y-83318192D01*
X167690926Y-83318192D01*
X167690926Y-83729940D01*
X167848495Y-84110346D01*
X168139646Y-84401497D01*
X168520052Y-84559066D01*
X168670599Y-84559066D01*
X168905323Y-84715904D01*
X169127008Y-84760000D01*
X169127012Y-84760000D01*
X169201859Y-84774888D01*
X169276706Y-84760000D01*
X170993541Y-84760000D01*
X171042191Y-84832809D01*
X171252235Y-84973157D01*
X171500000Y-85022440D01*
X172700000Y-85022440D01*
X172947765Y-84973157D01*
X173039102Y-84912127D01*
X173040302Y-84913327D01*
X173273691Y-85010000D01*
X173714250Y-85010000D01*
X173873000Y-84851250D01*
X173873000Y-84127000D01*
X173853000Y-84127000D01*
X173853000Y-83873000D01*
X173873000Y-83873000D01*
X173873000Y-83148750D01*
X174127000Y-83148750D01*
X174127000Y-83873000D01*
X174147000Y-83873000D01*
X174147000Y-84127000D01*
X174127000Y-84127000D01*
X174127000Y-84851250D01*
X174285750Y-85010000D01*
X174649552Y-85010000D01*
X174722569Y-85186280D01*
X175013720Y-85477431D01*
X175394126Y-85635000D01*
X175805874Y-85635000D01*
X176186280Y-85477431D01*
X176477431Y-85186280D01*
X176635000Y-84805874D01*
X176635000Y-84394126D01*
X176477431Y-84013720D01*
X176186280Y-83722569D01*
X175805874Y-83565000D01*
X175394126Y-83565000D01*
X175235000Y-83630912D01*
X175235000Y-83498690D01*
X175138327Y-83265301D01*
X174959698Y-83086673D01*
X174726309Y-82990000D01*
X174285750Y-82990000D01*
X174127000Y-83148750D01*
X173873000Y-83148750D01*
X173714250Y-82990000D01*
X173273691Y-82990000D01*
X173040302Y-83086673D01*
X173039102Y-83087873D01*
X172947765Y-83026843D01*
X172700000Y-82977560D01*
X171500000Y-82977560D01*
X171252235Y-83026843D01*
X171042191Y-83167191D01*
X170993541Y-83240000D01*
X169728538Y-83240000D01*
X169603357Y-82937786D01*
X169312206Y-82646635D01*
X168931800Y-82489066D01*
X168520052Y-82489066D01*
X168139646Y-82646635D01*
X167848495Y-82937786D01*
X167690926Y-83318192D01*
X165238476Y-83318192D01*
X165285000Y-83205874D01*
X165285000Y-82794126D01*
X165127431Y-82413720D01*
X165019256Y-82305545D01*
X165234473Y-82090329D01*
X165297929Y-82047929D01*
X165465904Y-81796537D01*
X165510000Y-81574852D01*
X165510000Y-81574848D01*
X165524888Y-81500000D01*
X165510000Y-81425152D01*
X165510000Y-79074660D01*
X165669771Y-79140839D01*
X166081519Y-79140839D01*
X166461925Y-78983270D01*
X166753076Y-78692119D01*
X166910645Y-78311713D01*
X166910645Y-77899965D01*
X166753076Y-77519559D01*
X166461925Y-77228408D01*
X166081519Y-77070839D01*
X165988443Y-77070839D01*
X165988443Y-76939700D01*
X166003331Y-76864853D01*
X165988443Y-76790006D01*
X165988443Y-76790002D01*
X165944347Y-76568317D01*
X165924739Y-76538972D01*
X166127431Y-76336280D01*
X166285000Y-75955874D01*
X166285000Y-75544126D01*
X166127431Y-75163720D01*
X165836280Y-74872569D01*
X165600380Y-74774856D01*
X165600380Y-70165230D01*
X165615268Y-70090384D01*
X165600380Y-70015535D01*
X165600380Y-70015528D01*
X165556284Y-69793843D01*
X165452467Y-69638470D01*
X165430712Y-69605910D01*
X165430709Y-69605907D01*
X165388309Y-69542451D01*
X165324856Y-69500053D01*
X164945012Y-69120205D01*
X164945012Y-66269813D01*
X165659670Y-66984472D01*
X165702071Y-67047929D01*
X165765527Y-67090329D01*
X165953462Y-67215904D01*
X166001605Y-67225480D01*
X166175148Y-67260000D01*
X166175152Y-67260000D01*
X166250000Y-67274888D01*
X166324848Y-67260000D01*
X168729428Y-67260000D01*
X168977965Y-67508538D01*
X168977966Y-73971145D01*
X168860534Y-74088577D01*
X168702965Y-74468983D01*
X168702965Y-74880731D01*
X168860534Y-75261137D01*
X169151685Y-75552288D01*
X169532091Y-75709857D01*
X169943839Y-75709857D01*
X170324245Y-75552288D01*
X170615396Y-75261137D01*
X170740000Y-74960315D01*
X170740000Y-75546289D01*
X170622569Y-75663720D01*
X170465000Y-76044126D01*
X170465000Y-76455874D01*
X170622569Y-76836280D01*
X170913720Y-77127431D01*
X171037048Y-77178515D01*
X170669172Y-77546392D01*
X170442891Y-77452663D01*
X170031143Y-77452663D01*
X169650737Y-77610232D01*
X169359586Y-77901383D01*
X169202017Y-78281789D01*
X169202017Y-78693537D01*
X169314460Y-78965000D01*
X169294126Y-78965000D01*
X168913720Y-79122569D01*
X168875000Y-79161289D01*
X168836280Y-79122569D01*
X168455874Y-78965000D01*
X168044126Y-78965000D01*
X167663720Y-79122569D01*
X167372569Y-79413720D01*
X167215000Y-79794126D01*
X167215000Y-80205874D01*
X167372569Y-80586280D01*
X167663720Y-80877431D01*
X168044126Y-81035000D01*
X168210199Y-81035000D01*
X168909671Y-81734473D01*
X168952071Y-81797929D01*
X169203463Y-81965904D01*
X169425148Y-82010000D01*
X169425153Y-82010000D01*
X169500000Y-82024888D01*
X169574847Y-82010000D01*
X171893541Y-82010000D01*
X171942191Y-82082809D01*
X172152235Y-82223157D01*
X172400000Y-82272440D01*
X173600000Y-82272440D01*
X173847765Y-82223157D01*
X173939102Y-82162127D01*
X173940302Y-82163327D01*
X174173691Y-82260000D01*
X174614250Y-82260000D01*
X174773000Y-82101250D01*
X174773000Y-81377000D01*
X175027000Y-81377000D01*
X175027000Y-82101250D01*
X175185750Y-82260000D01*
X175626309Y-82260000D01*
X175859698Y-82163327D01*
X176038327Y-81984699D01*
X176135000Y-81751310D01*
X176135000Y-81535750D01*
X175976250Y-81377000D01*
X175027000Y-81377000D01*
X174773000Y-81377000D01*
X174753000Y-81377000D01*
X174753000Y-81123000D01*
X174773000Y-81123000D01*
X174773000Y-81103000D01*
X175027000Y-81103000D01*
X175027000Y-81123000D01*
X175976250Y-81123000D01*
X176135000Y-80964250D01*
X176135000Y-80748690D01*
X176038327Y-80515301D01*
X175859698Y-80336673D01*
X175817035Y-80319001D01*
X175948157Y-80122765D01*
X175997440Y-79875000D01*
X175997440Y-79794126D01*
X176215000Y-79794126D01*
X176215000Y-80205874D01*
X176372569Y-80586280D01*
X176663720Y-80877431D01*
X176988175Y-81011825D01*
X177122569Y-81336280D01*
X177413720Y-81627431D01*
X177794126Y-81785000D01*
X178205874Y-81785000D01*
X178586280Y-81627431D01*
X178877431Y-81336280D01*
X179035000Y-80955874D01*
X179035000Y-80544126D01*
X178877431Y-80163720D01*
X178586280Y-79872569D01*
X178261825Y-79738175D01*
X178127431Y-79413720D01*
X177836280Y-79122569D01*
X177455874Y-78965000D01*
X177044126Y-78965000D01*
X176663720Y-79122569D01*
X176372569Y-79413720D01*
X176215000Y-79794126D01*
X175997440Y-79794126D01*
X175997440Y-79125000D01*
X175948157Y-78877235D01*
X175807809Y-78667191D01*
X175597765Y-78526843D01*
X175463562Y-78500149D01*
X175627431Y-78336280D01*
X175785000Y-77955874D01*
X175785000Y-77544126D01*
X175627431Y-77163720D01*
X175336280Y-76872569D01*
X174984398Y-76726815D01*
X175184484Y-76526729D01*
X175247940Y-76484329D01*
X175322541Y-76372681D01*
X175415915Y-76232938D01*
X175432621Y-76148950D01*
X175460011Y-76011252D01*
X175460011Y-76011248D01*
X175474899Y-75936400D01*
X175460011Y-75861552D01*
X175460011Y-74829867D01*
X175615922Y-74596530D01*
X175660018Y-74374845D01*
X175660018Y-74374841D01*
X175674906Y-74299993D01*
X175660018Y-74225145D01*
X175660018Y-71794126D01*
X175715000Y-71794126D01*
X175715000Y-72205874D01*
X175872569Y-72586280D01*
X176163720Y-72877431D01*
X176544126Y-73035000D01*
X176955874Y-73035000D01*
X177336280Y-72877431D01*
X177530494Y-72683217D01*
X177806786Y-72797660D01*
X178218534Y-72797660D01*
X178598940Y-72640091D01*
X178890091Y-72348940D01*
X179047660Y-71968534D01*
X179047660Y-71556786D01*
X178890091Y-71176380D01*
X178598940Y-70885229D01*
X178218534Y-70727660D01*
X177848821Y-70727660D01*
X177848821Y-70560033D01*
X177691252Y-70179627D01*
X177400101Y-69888476D01*
X177019695Y-69730907D01*
X176607947Y-69730907D01*
X176227541Y-69888476D01*
X175936390Y-70179627D01*
X175778821Y-70560033D01*
X175778821Y-70971781D01*
X175935720Y-71350569D01*
X175872569Y-71413720D01*
X175715000Y-71794126D01*
X175660018Y-71794126D01*
X175660018Y-67530626D01*
X177439990Y-67530626D01*
X177439990Y-67942374D01*
X177597559Y-68322780D01*
X177888710Y-68613931D01*
X178269116Y-68771500D01*
X178680864Y-68771500D01*
X179061270Y-68613931D01*
X179352421Y-68322780D01*
X179509990Y-67942374D01*
X179509990Y-67530626D01*
X179352421Y-67150220D01*
X179061270Y-66859069D01*
X178680864Y-66701500D01*
X178269116Y-66701500D01*
X177888710Y-66859069D01*
X177597559Y-67150220D01*
X177439990Y-67530626D01*
X175660018Y-67530626D01*
X175660018Y-63709439D01*
X175928123Y-63844132D01*
X176103000Y-63719135D01*
X176103000Y-62877000D01*
X176083000Y-62877000D01*
X176083000Y-62623000D01*
X176103000Y-62623000D01*
X176103000Y-62611973D01*
X176118217Y-62615000D01*
X176341783Y-62615000D01*
X176357000Y-62611973D01*
X176357000Y-62623000D01*
X176368027Y-62623000D01*
X176342765Y-62750000D01*
X176368027Y-62877000D01*
X176357000Y-62877000D01*
X176357000Y-63719135D01*
X176531877Y-63844132D01*
X176853053Y-63682776D01*
X177057145Y-63819146D01*
X177388217Y-63885000D01*
X177611783Y-63885000D01*
X177640000Y-63879387D01*
X177640000Y-64296289D01*
X177522569Y-64413720D01*
X177365000Y-64794126D01*
X177365000Y-65205874D01*
X177522569Y-65586280D01*
X177813720Y-65877431D01*
X178194126Y-66035000D01*
X178605874Y-66035000D01*
X178986280Y-65877431D01*
X179277431Y-65586280D01*
X179435000Y-65205874D01*
X179435000Y-64794126D01*
X179277431Y-64413720D01*
X179185557Y-64321846D01*
X179330884Y-64321846D01*
X179711290Y-64164277D01*
X180002441Y-63873126D01*
X180160010Y-63492720D01*
X180160010Y-63326647D01*
X180484470Y-63002187D01*
X180547929Y-62959785D01*
X180704733Y-62725112D01*
X180715904Y-62708394D01*
X180747580Y-62549146D01*
X180760000Y-62486708D01*
X180760000Y-62486704D01*
X180774888Y-62411856D01*
X180760000Y-62337008D01*
X180760000Y-59256573D01*
X180907809Y-59157809D01*
X181048157Y-58947765D01*
X181065614Y-58860000D01*
X181453429Y-58860000D01*
X181481161Y-58999418D01*
X181481161Y-58999418D01*
G37*
X181481161Y-58999418D02*
X181809375Y-59490625D01*
X182107761Y-59690000D01*
X181809375Y-59889375D01*
X181481161Y-60380582D01*
X181365908Y-60960000D01*
X181481161Y-61539418D01*
X181809375Y-62030625D01*
X182107761Y-62230000D01*
X181809375Y-62429375D01*
X181481161Y-62920582D01*
X181365908Y-63500000D01*
X181481161Y-64079418D01*
X181809375Y-64570625D01*
X182107761Y-64770000D01*
X181809375Y-64969375D01*
X181481161Y-65460582D01*
X181365908Y-66040000D01*
X181481161Y-66619418D01*
X181809375Y-67110625D01*
X182107761Y-67310000D01*
X181809375Y-67509375D01*
X181481161Y-68000582D01*
X181365908Y-68580000D01*
X181481161Y-69159418D01*
X181809375Y-69650625D01*
X182107761Y-69850000D01*
X181809375Y-70049375D01*
X181481161Y-70540582D01*
X181365908Y-71120000D01*
X181481161Y-71699418D01*
X181809375Y-72190625D01*
X182107761Y-72390000D01*
X181809375Y-72589375D01*
X181481161Y-73080582D01*
X181365908Y-73660000D01*
X181481161Y-74239418D01*
X181809375Y-74730625D01*
X182107761Y-74930000D01*
X181809375Y-75129375D01*
X181481161Y-75620582D01*
X181462617Y-75713811D01*
X181407409Y-75580527D01*
X181116258Y-75289376D01*
X180735852Y-75131807D01*
X180522617Y-75131807D01*
X180662006Y-74795291D01*
X180662006Y-74383543D01*
X180504437Y-74003137D01*
X180213286Y-73711986D01*
X179832880Y-73554417D01*
X179421132Y-73554417D01*
X179040726Y-73711986D01*
X178749575Y-74003137D01*
X178646021Y-74253139D01*
X178370053Y-74253139D01*
X177989647Y-74410708D01*
X177698496Y-74701859D01*
X177540927Y-75082265D01*
X177540927Y-75494013D01*
X177698496Y-75874419D01*
X177989647Y-76165570D01*
X178370053Y-76323139D01*
X178781801Y-76323139D01*
X178833270Y-76301820D01*
X178770945Y-76364145D01*
X178613376Y-76744551D01*
X178613376Y-77156299D01*
X178770945Y-77536705D01*
X179062096Y-77827856D01*
X179144697Y-77862071D01*
X179007585Y-78193090D01*
X179007585Y-78604838D01*
X179165154Y-78985244D01*
X179456305Y-79276395D01*
X179836711Y-79433964D01*
X180248459Y-79433964D01*
X180628865Y-79276395D01*
X180920016Y-78985244D01*
X181077585Y-78604838D01*
X181077585Y-78193090D01*
X180920016Y-77812684D01*
X180628865Y-77521533D01*
X180546264Y-77487318D01*
X180664526Y-77201807D01*
X180735852Y-77201807D01*
X181116258Y-77044238D01*
X181407409Y-76753087D01*
X181453696Y-76641341D01*
X181481161Y-76779418D01*
X181809375Y-77270625D01*
X182107761Y-77470000D01*
X181809375Y-77669375D01*
X181481161Y-78160582D01*
X181365908Y-78740000D01*
X181481161Y-79319418D01*
X181809375Y-79810625D01*
X182107761Y-80010000D01*
X181809375Y-80209375D01*
X181481161Y-80700582D01*
X181365908Y-81280000D01*
X181481161Y-81859418D01*
X181809375Y-82350625D01*
X182107761Y-82550000D01*
X181809375Y-82749375D01*
X181481161Y-83240582D01*
X181365908Y-83820000D01*
X181481161Y-84399418D01*
X181809375Y-84890625D01*
X182107761Y-85090000D01*
X181809375Y-85289375D01*
X181481161Y-85780582D01*
X181365908Y-86360000D01*
X181481161Y-86939418D01*
X181809375Y-87430625D01*
X182107761Y-87630000D01*
X181809375Y-87829375D01*
X181481161Y-88320582D01*
X181365908Y-88900000D01*
X181455947Y-89352660D01*
X181156466Y-89352660D01*
X180776060Y-89510229D01*
X180484909Y-89801380D01*
X180327340Y-90181786D01*
X180327340Y-90593534D01*
X180484909Y-90973940D01*
X180776060Y-91265091D01*
X181156466Y-91422660D01*
X181369357Y-91422660D01*
X181365908Y-91440000D01*
X181481161Y-92019418D01*
X181809375Y-92510625D01*
X182107761Y-92710000D01*
X181809375Y-92909375D01*
X181481161Y-93400582D01*
X181365908Y-93980000D01*
X181481161Y-94559418D01*
X181539150Y-94646205D01*
X181484473Y-94609671D01*
X180190331Y-93315530D01*
X180147929Y-93252071D01*
X179896537Y-93084096D01*
X179674852Y-93040000D01*
X179674847Y-93040000D01*
X179600000Y-93025112D01*
X179525153Y-93040000D01*
X177514802Y-93040000D01*
X176960000Y-92485199D01*
X176960000Y-88874848D01*
X176974888Y-88800000D01*
X176960000Y-88725152D01*
X176960000Y-88725148D01*
X176915904Y-88503463D01*
X176747929Y-88252071D01*
X176684473Y-88209671D01*
X176268928Y-87794126D01*
X177215000Y-87794126D01*
X177215000Y-88205874D01*
X177372569Y-88586280D01*
X177663720Y-88877431D01*
X178044126Y-89035000D01*
X178455874Y-89035000D01*
X178836280Y-88877431D01*
X179127431Y-88586280D01*
X179285000Y-88205874D01*
X179285000Y-88089272D01*
X179390987Y-88045371D01*
X179682138Y-87754220D01*
X179711469Y-87683408D01*
X179865045Y-87683408D01*
X180245451Y-87525839D01*
X180536602Y-87234688D01*
X180694171Y-86854282D01*
X180694171Y-86442534D01*
X180536602Y-86062128D01*
X180356743Y-85882269D01*
X180434869Y-85693657D01*
X180434869Y-85281909D01*
X180277300Y-84901503D01*
X180235032Y-84859235D01*
X180300500Y-84701180D01*
X180300500Y-84289432D01*
X180142931Y-83909026D01*
X179851780Y-83617875D01*
X179471374Y-83460306D01*
X179059626Y-83460306D01*
X178679220Y-83617875D01*
X178388069Y-83909026D01*
X178230500Y-84289432D01*
X178230500Y-84701180D01*
X178388069Y-85081586D01*
X178430337Y-85123854D01*
X178364869Y-85281909D01*
X178364869Y-85693657D01*
X178522438Y-86074063D01*
X178586446Y-86138071D01*
X178218427Y-86290509D01*
X177927276Y-86581660D01*
X177769707Y-86962066D01*
X177769707Y-87078668D01*
X177663720Y-87122569D01*
X177372569Y-87413720D01*
X177215000Y-87794126D01*
X176268928Y-87794126D01*
X174835000Y-86360199D01*
X174835000Y-86194126D01*
X174677431Y-85813720D01*
X174386280Y-85522569D01*
X174005874Y-85365000D01*
X173594126Y-85365000D01*
X173213720Y-85522569D01*
X172922569Y-85813720D01*
X172765000Y-86194126D01*
X172765000Y-86605874D01*
X172922569Y-86986280D01*
X173213720Y-87277431D01*
X173594126Y-87435000D01*
X173760199Y-87435000D01*
X175440000Y-89114802D01*
X175440001Y-91465000D01*
X175044126Y-91465000D01*
X174663720Y-91622569D01*
X174372569Y-91913720D01*
X174215000Y-92294126D01*
X174215000Y-92705874D01*
X174372569Y-93086280D01*
X174663720Y-93377431D01*
X175044126Y-93535000D01*
X175455874Y-93535000D01*
X175741775Y-93416576D01*
X176609670Y-94284472D01*
X176652071Y-94347929D01*
X176765000Y-94423386D01*
X176765000Y-94964250D01*
X176923750Y-95123000D01*
X178123000Y-95123000D01*
X178123000Y-95103000D01*
X178377000Y-95103000D01*
X178377000Y-95123000D01*
X179576250Y-95123000D01*
X179712224Y-94987026D01*
X180240000Y-95514802D01*
X180240001Y-102185148D01*
X180225112Y-102260000D01*
X180240001Y-102334852D01*
X180284097Y-102556537D01*
X180452072Y-102807929D01*
X180515528Y-102850329D01*
X181438791Y-103773593D01*
X181365908Y-104140000D01*
X181481161Y-104719418D01*
X181809375Y-105210625D01*
X182128478Y-105423843D01*
X181998642Y-105484817D01*
X181608355Y-105913076D01*
X181438524Y-106323110D01*
X181559845Y-106553000D01*
X182753000Y-106553000D01*
X182753000Y-106533000D01*
X183007000Y-106533000D01*
X183007000Y-106553000D01*
X183027000Y-106553000D01*
X183027000Y-106807000D01*
X183007000Y-106807000D01*
X183007000Y-108000819D01*
X183190020Y-108096884D01*
X183123679Y-108197499D01*
X182840237Y-108388400D01*
X182492563Y-108458000D01*
X162937509Y-108458000D01*
X162591870Y-108389248D01*
X162309455Y-108200545D01*
X162242733Y-108100688D01*
X162433000Y-108000819D01*
X162433000Y-106807000D01*
X162687000Y-106807000D01*
X162687000Y-108000819D01*
X162916892Y-108121486D01*
X163441358Y-107875183D01*
X163831645Y-107446924D01*
X163998478Y-107044126D01*
X166215000Y-107044126D01*
X166215000Y-107455874D01*
X166372569Y-107836280D01*
X166663720Y-108127431D01*
X167044126Y-108285000D01*
X167455874Y-108285000D01*
X167836280Y-108127431D01*
X168127431Y-107836280D01*
X168285000Y-107455874D01*
X168285000Y-107044126D01*
X168282003Y-107036890D01*
X181438524Y-107036890D01*
X181608355Y-107446924D01*
X181998642Y-107875183D01*
X182523108Y-108121486D01*
X182753000Y-108000819D01*
X182753000Y-106807000D01*
X181559845Y-106807000D01*
X181438524Y-107036890D01*
X168282003Y-107036890D01*
X168127431Y-106663720D01*
X167836280Y-106372569D01*
X167455874Y-106215000D01*
X167044126Y-106215000D01*
X166663720Y-106372569D01*
X166372569Y-106663720D01*
X166215000Y-107044126D01*
X163998478Y-107044126D01*
X164001476Y-107036890D01*
X163880155Y-106807000D01*
X162687000Y-106807000D01*
X162433000Y-106807000D01*
X162413000Y-106807000D01*
X162413000Y-106553000D01*
X162433000Y-106553000D01*
X162433000Y-106533000D01*
X162687000Y-106533000D01*
X162687000Y-106553000D01*
X163880155Y-106553000D01*
X164001476Y-106323110D01*
X163831645Y-105913076D01*
X163441358Y-105484817D01*
X163311522Y-105423843D01*
X163630625Y-105210625D01*
X163958839Y-104719418D01*
X164074092Y-104140000D01*
X163958839Y-103560582D01*
X163630625Y-103069375D01*
X163332239Y-102870000D01*
X163630625Y-102670625D01*
X163958839Y-102179418D01*
X164074092Y-101600000D01*
X163958839Y-101020582D01*
X163630625Y-100529375D01*
X163332239Y-100330000D01*
X163630625Y-100130625D01*
X163958839Y-99639418D01*
X164074092Y-99060000D01*
X164001209Y-98693592D01*
X164734473Y-97960329D01*
X164797929Y-97917929D01*
X164883408Y-97790000D01*
X165735908Y-97790000D01*
X165851161Y-98369418D01*
X166179375Y-98860625D01*
X166477761Y-99060000D01*
X166179375Y-99259375D01*
X165851161Y-99750582D01*
X165735908Y-100330000D01*
X165851161Y-100909418D01*
X166179375Y-101400625D01*
X166670582Y-101728839D01*
X167103744Y-101815000D01*
X167396256Y-101815000D01*
X167829418Y-101728839D01*
X168320625Y-101400625D01*
X168648839Y-100909418D01*
X168764092Y-100330000D01*
X168648839Y-99750582D01*
X168320625Y-99259375D01*
X168022239Y-99060000D01*
X168320625Y-98860625D01*
X168648839Y-98369418D01*
X168764092Y-97790000D01*
X176735908Y-97790000D01*
X176851161Y-98369418D01*
X177179375Y-98860625D01*
X177477761Y-99060000D01*
X177179375Y-99259375D01*
X176851161Y-99750582D01*
X176735908Y-100330000D01*
X176851161Y-100909418D01*
X177179375Y-101400625D01*
X177670582Y-101728839D01*
X178103744Y-101815000D01*
X178396256Y-101815000D01*
X178829418Y-101728839D01*
X179320625Y-101400625D01*
X179648839Y-100909418D01*
X179764092Y-100330000D01*
X179648839Y-99750582D01*
X179320625Y-99259375D01*
X179022239Y-99060000D01*
X179320625Y-98860625D01*
X179648839Y-98369418D01*
X179764092Y-97790000D01*
X179648839Y-97210582D01*
X179320625Y-96719375D01*
X179298967Y-96704904D01*
X179459698Y-96638327D01*
X179638327Y-96459699D01*
X179735000Y-96226310D01*
X179735000Y-95535750D01*
X179576250Y-95377000D01*
X178377000Y-95377000D01*
X178377000Y-95397000D01*
X178123000Y-95397000D01*
X178123000Y-95377000D01*
X176923750Y-95377000D01*
X176765000Y-95535750D01*
X176765000Y-96226310D01*
X176861673Y-96459699D01*
X177040302Y-96638327D01*
X177201033Y-96704904D01*
X177179375Y-96719375D01*
X176851161Y-97210582D01*
X176735908Y-97790000D01*
X168764092Y-97790000D01*
X168648839Y-97210582D01*
X168320625Y-96719375D01*
X168298967Y-96704904D01*
X168459698Y-96638327D01*
X168638327Y-96459699D01*
X168735000Y-96226310D01*
X168735000Y-95535750D01*
X168576250Y-95377000D01*
X167377000Y-95377000D01*
X167377000Y-95397000D01*
X167123000Y-95397000D01*
X167123000Y-95377000D01*
X165923750Y-95377000D01*
X165765000Y-95535750D01*
X165765000Y-96226310D01*
X165861673Y-96459699D01*
X166040302Y-96638327D01*
X166201033Y-96704904D01*
X166179375Y-96719375D01*
X165851161Y-97210582D01*
X165735908Y-97790000D01*
X164883408Y-97790000D01*
X164965904Y-97666537D01*
X165010000Y-97444852D01*
X165010000Y-97444847D01*
X165024888Y-97370000D01*
X165010000Y-97295153D01*
X165010000Y-95564801D01*
X165765000Y-94809801D01*
X165765000Y-94964250D01*
X165923750Y-95123000D01*
X167123000Y-95123000D01*
X167123000Y-93923750D01*
X167377000Y-93923750D01*
X167377000Y-95123000D01*
X168576250Y-95123000D01*
X168735000Y-94964250D01*
X168735000Y-94273690D01*
X168638327Y-94040301D01*
X168459698Y-93861673D01*
X168226309Y-93765000D01*
X167535750Y-93765000D01*
X167377000Y-93923750D01*
X167123000Y-93923750D01*
X166964250Y-93765000D01*
X166809802Y-93765000D01*
X167234473Y-93340329D01*
X167297929Y-93297929D01*
X167465904Y-93046537D01*
X167510000Y-92824852D01*
X167510000Y-92824847D01*
X167516110Y-92794126D01*
X170465000Y-92794126D01*
X170465000Y-93205874D01*
X170622569Y-93586280D01*
X170913720Y-93877431D01*
X171294126Y-94035000D01*
X171705874Y-94035000D01*
X172086280Y-93877431D01*
X172377431Y-93586280D01*
X172535000Y-93205874D01*
X172535000Y-92794126D01*
X172377431Y-92413720D01*
X172086280Y-92122569D01*
X171705874Y-91965000D01*
X171294126Y-91965000D01*
X170913720Y-92122569D01*
X170622569Y-92413720D01*
X170465000Y-92794126D01*
X167516110Y-92794126D01*
X167524888Y-92750000D01*
X167510000Y-92675153D01*
X167510000Y-91203711D01*
X167627431Y-91086280D01*
X167785000Y-90705874D01*
X167785000Y-90294126D01*
X167627431Y-89913720D01*
X167336280Y-89622569D01*
X166955874Y-89465000D01*
X166544126Y-89465000D01*
X166462515Y-89498804D01*
X166336280Y-89372569D01*
X165955874Y-89215000D01*
X165544126Y-89215000D01*
X165163720Y-89372569D01*
X164872569Y-89663720D01*
X164715000Y-90044126D01*
X164715000Y-90455874D01*
X164872569Y-90836280D01*
X164990000Y-90953711D01*
X164990001Y-92685197D01*
X164011230Y-93663969D01*
X163958839Y-93400582D01*
X163630625Y-92909375D01*
X163332239Y-92710000D01*
X163630625Y-92510625D01*
X163958839Y-92019418D01*
X164074092Y-91440000D01*
X163958839Y-90860582D01*
X163630625Y-90369375D01*
X163332239Y-90170000D01*
X163630625Y-89970625D01*
X163958839Y-89479418D01*
X164074092Y-88900000D01*
X163958839Y-88320582D01*
X163630625Y-87829375D01*
X163332239Y-87630000D01*
X163630625Y-87430625D01*
X163958839Y-86939418D01*
X164074092Y-86360000D01*
X163958839Y-85780582D01*
X163630625Y-85289375D01*
X163332239Y-85090000D01*
X163630625Y-84890625D01*
X163958839Y-84399418D01*
X164032300Y-84030102D01*
X164044126Y-84035000D01*
X164455874Y-84035000D01*
X164836280Y-83877431D01*
X165127431Y-83586280D01*
X165238476Y-83318192D01*
X167690926Y-83318192D01*
X167690926Y-83729940D01*
X167848495Y-84110346D01*
X168139646Y-84401497D01*
X168520052Y-84559066D01*
X168670599Y-84559066D01*
X168905323Y-84715904D01*
X169127008Y-84760000D01*
X169127012Y-84760000D01*
X169201859Y-84774888D01*
X169276706Y-84760000D01*
X170993541Y-84760000D01*
X171042191Y-84832809D01*
X171252235Y-84973157D01*
X171500000Y-85022440D01*
X172700000Y-85022440D01*
X172947765Y-84973157D01*
X173039102Y-84912127D01*
X173040302Y-84913327D01*
X173273691Y-85010000D01*
X173714250Y-85010000D01*
X173873000Y-84851250D01*
X173873000Y-84127000D01*
X173853000Y-84127000D01*
X173853000Y-83873000D01*
X173873000Y-83873000D01*
X173873000Y-83148750D01*
X174127000Y-83148750D01*
X174127000Y-83873000D01*
X174147000Y-83873000D01*
X174147000Y-84127000D01*
X174127000Y-84127000D01*
X174127000Y-84851250D01*
X174285750Y-85010000D01*
X174649552Y-85010000D01*
X174722569Y-85186280D01*
X175013720Y-85477431D01*
X175394126Y-85635000D01*
X175805874Y-85635000D01*
X176186280Y-85477431D01*
X176477431Y-85186280D01*
X176635000Y-84805874D01*
X176635000Y-84394126D01*
X176477431Y-84013720D01*
X176186280Y-83722569D01*
X175805874Y-83565000D01*
X175394126Y-83565000D01*
X175235000Y-83630912D01*
X175235000Y-83498690D01*
X175138327Y-83265301D01*
X174959698Y-83086673D01*
X174726309Y-82990000D01*
X174285750Y-82990000D01*
X174127000Y-83148750D01*
X173873000Y-83148750D01*
X173714250Y-82990000D01*
X173273691Y-82990000D01*
X173040302Y-83086673D01*
X173039102Y-83087873D01*
X172947765Y-83026843D01*
X172700000Y-82977560D01*
X171500000Y-82977560D01*
X171252235Y-83026843D01*
X171042191Y-83167191D01*
X170993541Y-83240000D01*
X169728538Y-83240000D01*
X169603357Y-82937786D01*
X169312206Y-82646635D01*
X168931800Y-82489066D01*
X168520052Y-82489066D01*
X168139646Y-82646635D01*
X167848495Y-82937786D01*
X167690926Y-83318192D01*
X165238476Y-83318192D01*
X165285000Y-83205874D01*
X165285000Y-82794126D01*
X165127431Y-82413720D01*
X165019256Y-82305545D01*
X165234473Y-82090329D01*
X165297929Y-82047929D01*
X165465904Y-81796537D01*
X165510000Y-81574852D01*
X165510000Y-81574848D01*
X165524888Y-81500000D01*
X165510000Y-81425152D01*
X165510000Y-79074660D01*
X165669771Y-79140839D01*
X166081519Y-79140839D01*
X166461925Y-78983270D01*
X166753076Y-78692119D01*
X166910645Y-78311713D01*
X166910645Y-77899965D01*
X166753076Y-77519559D01*
X166461925Y-77228408D01*
X166081519Y-77070839D01*
X165988443Y-77070839D01*
X165988443Y-76939700D01*
X166003331Y-76864853D01*
X165988443Y-76790006D01*
X165988443Y-76790002D01*
X165944347Y-76568317D01*
X165924739Y-76538972D01*
X166127431Y-76336280D01*
X166285000Y-75955874D01*
X166285000Y-75544126D01*
X166127431Y-75163720D01*
X165836280Y-74872569D01*
X165600380Y-74774856D01*
X165600380Y-70165230D01*
X165615268Y-70090384D01*
X165600380Y-70015535D01*
X165600380Y-70015528D01*
X165556284Y-69793843D01*
X165452467Y-69638470D01*
X165430712Y-69605910D01*
X165430709Y-69605907D01*
X165388309Y-69542451D01*
X165324856Y-69500053D01*
X164945012Y-69120205D01*
X164945012Y-66269813D01*
X165659670Y-66984472D01*
X165702071Y-67047929D01*
X165765527Y-67090329D01*
X165953462Y-67215904D01*
X166001605Y-67225480D01*
X166175148Y-67260000D01*
X166175152Y-67260000D01*
X166250000Y-67274888D01*
X166324848Y-67260000D01*
X168729428Y-67260000D01*
X168977965Y-67508538D01*
X168977966Y-73971145D01*
X168860534Y-74088577D01*
X168702965Y-74468983D01*
X168702965Y-74880731D01*
X168860534Y-75261137D01*
X169151685Y-75552288D01*
X169532091Y-75709857D01*
X169943839Y-75709857D01*
X170324245Y-75552288D01*
X170615396Y-75261137D01*
X170740000Y-74960315D01*
X170740000Y-75546289D01*
X170622569Y-75663720D01*
X170465000Y-76044126D01*
X170465000Y-76455874D01*
X170622569Y-76836280D01*
X170913720Y-77127431D01*
X171037048Y-77178515D01*
X170669172Y-77546392D01*
X170442891Y-77452663D01*
X170031143Y-77452663D01*
X169650737Y-77610232D01*
X169359586Y-77901383D01*
X169202017Y-78281789D01*
X169202017Y-78693537D01*
X169314460Y-78965000D01*
X169294126Y-78965000D01*
X168913720Y-79122569D01*
X168875000Y-79161289D01*
X168836280Y-79122569D01*
X168455874Y-78965000D01*
X168044126Y-78965000D01*
X167663720Y-79122569D01*
X167372569Y-79413720D01*
X167215000Y-79794126D01*
X167215000Y-80205874D01*
X167372569Y-80586280D01*
X167663720Y-80877431D01*
X168044126Y-81035000D01*
X168210199Y-81035000D01*
X168909671Y-81734473D01*
X168952071Y-81797929D01*
X169203463Y-81965904D01*
X169425148Y-82010000D01*
X169425153Y-82010000D01*
X169500000Y-82024888D01*
X169574847Y-82010000D01*
X171893541Y-82010000D01*
X171942191Y-82082809D01*
X172152235Y-82223157D01*
X172400000Y-82272440D01*
X173600000Y-82272440D01*
X173847765Y-82223157D01*
X173939102Y-82162127D01*
X173940302Y-82163327D01*
X174173691Y-82260000D01*
X174614250Y-82260000D01*
X174773000Y-82101250D01*
X174773000Y-81377000D01*
X175027000Y-81377000D01*
X175027000Y-82101250D01*
X175185750Y-82260000D01*
X175626309Y-82260000D01*
X175859698Y-82163327D01*
X176038327Y-81984699D01*
X176135000Y-81751310D01*
X176135000Y-81535750D01*
X175976250Y-81377000D01*
X175027000Y-81377000D01*
X174773000Y-81377000D01*
X174753000Y-81377000D01*
X174753000Y-81123000D01*
X174773000Y-81123000D01*
X174773000Y-81103000D01*
X175027000Y-81103000D01*
X175027000Y-81123000D01*
X175976250Y-81123000D01*
X176135000Y-80964250D01*
X176135000Y-80748690D01*
X176038327Y-80515301D01*
X175859698Y-80336673D01*
X175817035Y-80319001D01*
X175948157Y-80122765D01*
X175997440Y-79875000D01*
X175997440Y-79794126D01*
X176215000Y-79794126D01*
X176215000Y-80205874D01*
X176372569Y-80586280D01*
X176663720Y-80877431D01*
X176988175Y-81011825D01*
X177122569Y-81336280D01*
X177413720Y-81627431D01*
X177794126Y-81785000D01*
X178205874Y-81785000D01*
X178586280Y-81627431D01*
X178877431Y-81336280D01*
X179035000Y-80955874D01*
X179035000Y-80544126D01*
X178877431Y-80163720D01*
X178586280Y-79872569D01*
X178261825Y-79738175D01*
X178127431Y-79413720D01*
X177836280Y-79122569D01*
X177455874Y-78965000D01*
X177044126Y-78965000D01*
X176663720Y-79122569D01*
X176372569Y-79413720D01*
X176215000Y-79794126D01*
X175997440Y-79794126D01*
X175997440Y-79125000D01*
X175948157Y-78877235D01*
X175807809Y-78667191D01*
X175597765Y-78526843D01*
X175463562Y-78500149D01*
X175627431Y-78336280D01*
X175785000Y-77955874D01*
X175785000Y-77544126D01*
X175627431Y-77163720D01*
X175336280Y-76872569D01*
X174984398Y-76726815D01*
X175184484Y-76526729D01*
X175247940Y-76484329D01*
X175322541Y-76372681D01*
X175415915Y-76232938D01*
X175432621Y-76148950D01*
X175460011Y-76011252D01*
X175460011Y-76011248D01*
X175474899Y-75936400D01*
X175460011Y-75861552D01*
X175460011Y-74829867D01*
X175615922Y-74596530D01*
X175660018Y-74374845D01*
X175660018Y-74374841D01*
X175674906Y-74299993D01*
X175660018Y-74225145D01*
X175660018Y-71794126D01*
X175715000Y-71794126D01*
X175715000Y-72205874D01*
X175872569Y-72586280D01*
X176163720Y-72877431D01*
X176544126Y-73035000D01*
X176955874Y-73035000D01*
X177336280Y-72877431D01*
X177530494Y-72683217D01*
X177806786Y-72797660D01*
X178218534Y-72797660D01*
X178598940Y-72640091D01*
X178890091Y-72348940D01*
X179047660Y-71968534D01*
X179047660Y-71556786D01*
X178890091Y-71176380D01*
X178598940Y-70885229D01*
X178218534Y-70727660D01*
X177848821Y-70727660D01*
X177848821Y-70560033D01*
X177691252Y-70179627D01*
X177400101Y-69888476D01*
X177019695Y-69730907D01*
X176607947Y-69730907D01*
X176227541Y-69888476D01*
X175936390Y-70179627D01*
X175778821Y-70560033D01*
X175778821Y-70971781D01*
X175935720Y-71350569D01*
X175872569Y-71413720D01*
X175715000Y-71794126D01*
X175660018Y-71794126D01*
X175660018Y-67530626D01*
X177439990Y-67530626D01*
X177439990Y-67942374D01*
X177597559Y-68322780D01*
X177888710Y-68613931D01*
X178269116Y-68771500D01*
X178680864Y-68771500D01*
X179061270Y-68613931D01*
X179352421Y-68322780D01*
X179509990Y-67942374D01*
X179509990Y-67530626D01*
X179352421Y-67150220D01*
X179061270Y-66859069D01*
X178680864Y-66701500D01*
X178269116Y-66701500D01*
X177888710Y-66859069D01*
X177597559Y-67150220D01*
X177439990Y-67530626D01*
X175660018Y-67530626D01*
X175660018Y-63709439D01*
X175928123Y-63844132D01*
X176103000Y-63719135D01*
X176103000Y-62877000D01*
X176083000Y-62877000D01*
X176083000Y-62623000D01*
X176103000Y-62623000D01*
X176103000Y-62611973D01*
X176118217Y-62615000D01*
X176341783Y-62615000D01*
X176357000Y-62611973D01*
X176357000Y-62623000D01*
X176368027Y-62623000D01*
X176342765Y-62750000D01*
X176368027Y-62877000D01*
X176357000Y-62877000D01*
X176357000Y-63719135D01*
X176531877Y-63844132D01*
X176853053Y-63682776D01*
X177057145Y-63819146D01*
X177388217Y-63885000D01*
X177611783Y-63885000D01*
X177640000Y-63879387D01*
X177640000Y-64296289D01*
X177522569Y-64413720D01*
X177365000Y-64794126D01*
X177365000Y-65205874D01*
X177522569Y-65586280D01*
X177813720Y-65877431D01*
X178194126Y-66035000D01*
X178605874Y-66035000D01*
X178986280Y-65877431D01*
X179277431Y-65586280D01*
X179435000Y-65205874D01*
X179435000Y-64794126D01*
X179277431Y-64413720D01*
X179185557Y-64321846D01*
X179330884Y-64321846D01*
X179711290Y-64164277D01*
X180002441Y-63873126D01*
X180160010Y-63492720D01*
X180160010Y-63326647D01*
X180484470Y-63002187D01*
X180547929Y-62959785D01*
X180704733Y-62725112D01*
X180715904Y-62708394D01*
X180747580Y-62549146D01*
X180760000Y-62486708D01*
X180760000Y-62486704D01*
X180774888Y-62411856D01*
X180760000Y-62337008D01*
X180760000Y-59256573D01*
X180907809Y-59157809D01*
X181048157Y-58947765D01*
X181065614Y-58860000D01*
X181453429Y-58860000D01*
X181481161Y-58999418D01*
G36*
X172977000Y-79373000D02*
X172997000Y-79373000D01*
X172997000Y-79627000D01*
X172977000Y-79627000D01*
X172977000Y-79647000D01*
X172723000Y-79647000D01*
X172723000Y-79627000D01*
X172703000Y-79627000D01*
X172703000Y-79373000D01*
X172723000Y-79373000D01*
X172723000Y-79353000D01*
X172977000Y-79353000D01*
X172977000Y-79373000D01*
X172977000Y-79373000D01*
G37*
X172977000Y-79373000D02*
X172997000Y-79373000D01*
X172997000Y-79627000D01*
X172977000Y-79627000D01*
X172977000Y-79647000D01*
X172723000Y-79647000D01*
X172723000Y-79627000D01*
X172703000Y-79627000D01*
X172703000Y-79373000D01*
X172723000Y-79373000D01*
X172723000Y-79353000D01*
X172977000Y-79353000D01*
X172977000Y-79373000D01*
G36*
X172740001Y-67064803D02*
X172740000Y-69935198D01*
X171015528Y-71659671D01*
X170952072Y-71702071D01*
X170909672Y-71765527D01*
X170909671Y-71765528D01*
X170784097Y-71953463D01*
X170732074Y-72215000D01*
X170544126Y-72215000D01*
X170497965Y-72234120D01*
X170497965Y-67268583D01*
X170512853Y-67193736D01*
X170497965Y-67118889D01*
X170497965Y-67118884D01*
X170453869Y-66897199D01*
X170362195Y-66760000D01*
X172435199Y-66760000D01*
X172740001Y-67064803D01*
X172740001Y-67064803D01*
G37*
X172740001Y-67064803D02*
X172740000Y-69935198D01*
X171015528Y-71659671D01*
X170952072Y-71702071D01*
X170909672Y-71765527D01*
X170909671Y-71765528D01*
X170784097Y-71953463D01*
X170732074Y-72215000D01*
X170544126Y-72215000D01*
X170497965Y-72234120D01*
X170497965Y-67268583D01*
X170512853Y-67193736D01*
X170497965Y-67118889D01*
X170497965Y-67118884D01*
X170453869Y-66897199D01*
X170362195Y-66760000D01*
X172435199Y-66760000D01*
X172740001Y-67064803D01*
G36*
X173240001Y-71798788D02*
X173105768Y-71933022D01*
X173045315Y-71872569D01*
X172979496Y-71845306D01*
X173240001Y-71584801D01*
X173240001Y-71798788D01*
X173240001Y-71798788D01*
G37*
X173240001Y-71798788D02*
X173105768Y-71933022D01*
X173045315Y-71872569D01*
X172979496Y-71845306D01*
X173240001Y-71584801D01*
X173240001Y-71798788D01*
G36*
X173690010Y-57264812D02*
X173690009Y-65115208D01*
X173590331Y-65015530D01*
X173547929Y-64952071D01*
X173296537Y-64784096D01*
X173074852Y-64740000D01*
X173074847Y-64740000D01*
X173000000Y-64725112D01*
X172925153Y-64740000D01*
X172770865Y-64740000D01*
X172785000Y-64705874D01*
X172785000Y-64294126D01*
X172627431Y-63913720D01*
X172336280Y-63622569D01*
X171955874Y-63465000D01*
X171544126Y-63465000D01*
X171163720Y-63622569D01*
X170872569Y-63913720D01*
X170715000Y-64294126D01*
X170715000Y-64705874D01*
X170729135Y-64740000D01*
X167064802Y-64740000D01*
X166760000Y-64435199D01*
X166760000Y-63735750D01*
X168240000Y-63735750D01*
X168240000Y-64176309D01*
X168336673Y-64409698D01*
X168515301Y-64588327D01*
X168748690Y-64685000D01*
X168964250Y-64685000D01*
X169123000Y-64526250D01*
X169123000Y-63577000D01*
X169377000Y-63577000D01*
X169377000Y-64526250D01*
X169535750Y-64685000D01*
X169751310Y-64685000D01*
X169984699Y-64588327D01*
X170163327Y-64409698D01*
X170260000Y-64176309D01*
X170260000Y-63735750D01*
X170101250Y-63577000D01*
X169377000Y-63577000D01*
X169123000Y-63577000D01*
X168398750Y-63577000D01*
X168240000Y-63735750D01*
X166760000Y-63735750D01*
X166760000Y-61020865D01*
X166794126Y-61035000D01*
X167205874Y-61035000D01*
X167586280Y-60877431D01*
X167877431Y-60586280D01*
X168033291Y-60210000D01*
X168152560Y-60210000D01*
X168152560Y-60450000D01*
X168201843Y-60697765D01*
X168260323Y-60785286D01*
X168227560Y-60950000D01*
X168227560Y-62150000D01*
X168276843Y-62397765D01*
X168337873Y-62489102D01*
X168336673Y-62490302D01*
X168240000Y-62723691D01*
X168240000Y-63164250D01*
X168398750Y-63323000D01*
X169123000Y-63323000D01*
X169123000Y-63303000D01*
X169377000Y-63303000D01*
X169377000Y-63323000D01*
X170101250Y-63323000D01*
X170260000Y-63164250D01*
X170260000Y-62723691D01*
X170163327Y-62490302D01*
X170162127Y-62489102D01*
X170223157Y-62397765D01*
X170272440Y-62150000D01*
X170272440Y-60950000D01*
X170239677Y-60785286D01*
X170298157Y-60697765D01*
X170347440Y-60450000D01*
X170347440Y-59250000D01*
X170298157Y-59002235D01*
X170157809Y-58792191D01*
X170094666Y-58750000D01*
X170157809Y-58707809D01*
X170298157Y-58497765D01*
X170347440Y-58250000D01*
X170347440Y-57050000D01*
X170298157Y-56802235D01*
X170265395Y-56753204D01*
X170285000Y-56705874D01*
X170285000Y-56510000D01*
X172935199Y-56510000D01*
X173690010Y-57264812D01*
X173690010Y-57264812D01*
G37*
X173690010Y-57264812D02*
X173690009Y-65115208D01*
X173590331Y-65015530D01*
X173547929Y-64952071D01*
X173296537Y-64784096D01*
X173074852Y-64740000D01*
X173074847Y-64740000D01*
X173000000Y-64725112D01*
X172925153Y-64740000D01*
X172770865Y-64740000D01*
X172785000Y-64705874D01*
X172785000Y-64294126D01*
X172627431Y-63913720D01*
X172336280Y-63622569D01*
X171955874Y-63465000D01*
X171544126Y-63465000D01*
X171163720Y-63622569D01*
X170872569Y-63913720D01*
X170715000Y-64294126D01*
X170715000Y-64705874D01*
X170729135Y-64740000D01*
X167064802Y-64740000D01*
X166760000Y-64435199D01*
X166760000Y-63735750D01*
X168240000Y-63735750D01*
X168240000Y-64176309D01*
X168336673Y-64409698D01*
X168515301Y-64588327D01*
X168748690Y-64685000D01*
X168964250Y-64685000D01*
X169123000Y-64526250D01*
X169123000Y-63577000D01*
X169377000Y-63577000D01*
X169377000Y-64526250D01*
X169535750Y-64685000D01*
X169751310Y-64685000D01*
X169984699Y-64588327D01*
X170163327Y-64409698D01*
X170260000Y-64176309D01*
X170260000Y-63735750D01*
X170101250Y-63577000D01*
X169377000Y-63577000D01*
X169123000Y-63577000D01*
X168398750Y-63577000D01*
X168240000Y-63735750D01*
X166760000Y-63735750D01*
X166760000Y-61020865D01*
X166794126Y-61035000D01*
X167205874Y-61035000D01*
X167586280Y-60877431D01*
X167877431Y-60586280D01*
X168033291Y-60210000D01*
X168152560Y-60210000D01*
X168152560Y-60450000D01*
X168201843Y-60697765D01*
X168260323Y-60785286D01*
X168227560Y-60950000D01*
X168227560Y-62150000D01*
X168276843Y-62397765D01*
X168337873Y-62489102D01*
X168336673Y-62490302D01*
X168240000Y-62723691D01*
X168240000Y-63164250D01*
X168398750Y-63323000D01*
X169123000Y-63323000D01*
X169123000Y-63303000D01*
X169377000Y-63303000D01*
X169377000Y-63323000D01*
X170101250Y-63323000D01*
X170260000Y-63164250D01*
X170260000Y-62723691D01*
X170163327Y-62490302D01*
X170162127Y-62489102D01*
X170223157Y-62397765D01*
X170272440Y-62150000D01*
X170272440Y-60950000D01*
X170239677Y-60785286D01*
X170298157Y-60697765D01*
X170347440Y-60450000D01*
X170347440Y-59250000D01*
X170298157Y-59002235D01*
X170157809Y-58792191D01*
X170094666Y-58750000D01*
X170157809Y-58707809D01*
X170298157Y-58497765D01*
X170347440Y-58250000D01*
X170347440Y-57050000D01*
X170298157Y-56802235D01*
X170265395Y-56753204D01*
X170285000Y-56705874D01*
X170285000Y-56510000D01*
X172935199Y-56510000D01*
X173690010Y-57264812D01*
G36*
X176342765Y-58940000D02*
X176368027Y-59067000D01*
X176357000Y-59067000D01*
X176357000Y-60083000D01*
X176368027Y-60083000D01*
X176342765Y-60210000D01*
X176368027Y-60337000D01*
X176357000Y-60337000D01*
X176357000Y-60348027D01*
X176341783Y-60345000D01*
X176118217Y-60345000D01*
X176103000Y-60348027D01*
X176103000Y-60337000D01*
X176083000Y-60337000D01*
X176083000Y-60083000D01*
X176103000Y-60083000D01*
X176103000Y-59067000D01*
X176083000Y-59067000D01*
X176083000Y-58817440D01*
X176367144Y-58817440D01*
X176342765Y-58940000D01*
X176342765Y-58940000D01*
G37*
X176342765Y-58940000D02*
X176368027Y-59067000D01*
X176357000Y-59067000D01*
X176357000Y-60083000D01*
X176368027Y-60083000D01*
X176342765Y-60210000D01*
X176368027Y-60337000D01*
X176357000Y-60337000D01*
X176357000Y-60348027D01*
X176341783Y-60345000D01*
X176118217Y-60345000D01*
X176103000Y-60348027D01*
X176103000Y-60337000D01*
X176083000Y-60337000D01*
X176083000Y-60083000D01*
X176103000Y-60083000D01*
X176103000Y-59067000D01*
X176083000Y-59067000D01*
X176083000Y-58817440D01*
X176367144Y-58817440D01*
X176342765Y-58940000D01*
G36*
X173466533Y-43991985D02*
X173175382Y-44283136D01*
X173017813Y-44663542D01*
X173017813Y-45075290D01*
X173139644Y-45369416D01*
X173017813Y-45663542D01*
X173017813Y-46075290D01*
X173175382Y-46455696D01*
X173466533Y-46746847D01*
X173846939Y-46904416D01*
X174258687Y-46904416D01*
X174552813Y-46782585D01*
X174846939Y-46904416D01*
X175258687Y-46904416D01*
X175552813Y-46782585D01*
X175846939Y-46904416D01*
X176258687Y-46904416D01*
X176552813Y-46782585D01*
X176846939Y-46904416D01*
X177258687Y-46904416D01*
X177639093Y-46746847D01*
X177930244Y-46455696D01*
X178087813Y-46075290D01*
X178087813Y-45663542D01*
X177965982Y-45369416D01*
X178087813Y-45075290D01*
X178087813Y-44663542D01*
X177930244Y-44283136D01*
X177639093Y-43991985D01*
X177518418Y-43942000D01*
X181877326Y-43942000D01*
X182220927Y-44009909D01*
X182502299Y-44196423D01*
X182519996Y-44222560D01*
X182030000Y-44222560D01*
X181782235Y-44271843D01*
X181572191Y-44412191D01*
X181431843Y-44622235D01*
X181382560Y-44870000D01*
X181382560Y-46570000D01*
X181431843Y-46817765D01*
X181572191Y-47027809D01*
X181782235Y-47168157D01*
X181827619Y-47177184D01*
X181809375Y-47189375D01*
X181481161Y-47680582D01*
X181365908Y-48260000D01*
X181481161Y-48839418D01*
X181809375Y-49330625D01*
X182107761Y-49530000D01*
X181809375Y-49729375D01*
X181481161Y-50220582D01*
X181365908Y-50800000D01*
X181437907Y-51161966D01*
X181246537Y-51034096D01*
X181067294Y-50998442D01*
X181048157Y-50902235D01*
X180907809Y-50692191D01*
X180697765Y-50551843D01*
X180450000Y-50502560D01*
X179550000Y-50502560D01*
X179302235Y-50551843D01*
X179092191Y-50692191D01*
X178951843Y-50902235D01*
X178902560Y-51150000D01*
X178902560Y-52350000D01*
X178951843Y-52597765D01*
X179092191Y-52807809D01*
X179155334Y-52850000D01*
X179092191Y-52892191D01*
X178970344Y-53074547D01*
X178705874Y-52965000D01*
X178294126Y-52965000D01*
X177913720Y-53122569D01*
X177622569Y-53413720D01*
X177465000Y-53794126D01*
X177465000Y-54205874D01*
X177586831Y-54500000D01*
X177465000Y-54794126D01*
X177465000Y-55205874D01*
X177622569Y-55586280D01*
X177913720Y-55877431D01*
X178294126Y-56035000D01*
X178460198Y-56035000D01*
X178662802Y-56237604D01*
X178600000Y-56225112D01*
X178525152Y-56240000D01*
X178525148Y-56240000D01*
X178303463Y-56284096D01*
X178052071Y-56452071D01*
X178009669Y-56515530D01*
X177927416Y-56597783D01*
X177611783Y-56535000D01*
X177388217Y-56535000D01*
X177057145Y-56600854D01*
X177039164Y-56612869D01*
X176977765Y-56571843D01*
X176730000Y-56522560D01*
X175730000Y-56522560D01*
X175630881Y-56542276D01*
X175615922Y-56467071D01*
X175447947Y-56215679D01*
X175384491Y-56173279D01*
X174026732Y-54815521D01*
X173984330Y-54752062D01*
X173732938Y-54584087D01*
X173511253Y-54539991D01*
X173511248Y-54539991D01*
X173436401Y-54525103D01*
X173361554Y-54539991D01*
X170535000Y-54539991D01*
X170535000Y-54294126D01*
X170377431Y-53913720D01*
X170086280Y-53622569D01*
X169705874Y-53465000D01*
X169535000Y-53465000D01*
X169535000Y-53263542D01*
X169419503Y-52984708D01*
X169535000Y-52705874D01*
X169535000Y-52294126D01*
X169413169Y-52000000D01*
X169535000Y-51705874D01*
X169535000Y-51535000D01*
X169808687Y-51535000D01*
X170189093Y-51377431D01*
X170480244Y-51086280D01*
X170637813Y-50705874D01*
X170637813Y-50294126D01*
X170515982Y-50000000D01*
X170637813Y-49705874D01*
X170637813Y-49294126D01*
X170480244Y-48913720D01*
X170189093Y-48622569D01*
X169808687Y-48465000D01*
X169396939Y-48465000D01*
X169051407Y-48608124D01*
X168705874Y-48465000D01*
X168294126Y-48465000D01*
X167913720Y-48622569D01*
X167622569Y-48913720D01*
X167465000Y-49294126D01*
X167465000Y-49705874D01*
X167586831Y-50000000D01*
X167465000Y-50294126D01*
X167465000Y-50705874D01*
X167586831Y-51000000D01*
X167465000Y-51294126D01*
X167465000Y-51705874D01*
X167586831Y-52000000D01*
X167465000Y-52294126D01*
X167465000Y-52705874D01*
X167580497Y-52984708D01*
X167465000Y-53263542D01*
X167465000Y-53675290D01*
X167593165Y-53984708D01*
X167465000Y-54294126D01*
X167465000Y-54539991D01*
X167374794Y-54539991D01*
X164001209Y-51166408D01*
X164074092Y-50800000D01*
X163958839Y-50220582D01*
X163630625Y-49729375D01*
X163311522Y-49516157D01*
X163441358Y-49455183D01*
X163831645Y-49026924D01*
X164001476Y-48616890D01*
X163880155Y-48387000D01*
X162687000Y-48387000D01*
X162687000Y-48407000D01*
X162433000Y-48407000D01*
X162433000Y-48387000D01*
X162413000Y-48387000D01*
X162413000Y-48133000D01*
X162433000Y-48133000D01*
X162433000Y-48113000D01*
X162687000Y-48113000D01*
X162687000Y-48133000D01*
X163880155Y-48133000D01*
X164001476Y-47903110D01*
X163831645Y-47493076D01*
X163554292Y-47188739D01*
X163657765Y-47168157D01*
X163867809Y-47027809D01*
X164008157Y-46817765D01*
X164057440Y-46570000D01*
X164057440Y-44870000D01*
X164008157Y-44622235D01*
X163867809Y-44412191D01*
X163657765Y-44271843D01*
X163410000Y-44222560D01*
X162294017Y-44222560D01*
X162309455Y-44199455D01*
X162591870Y-44010752D01*
X162937509Y-43942000D01*
X173587208Y-43942000D01*
X173466533Y-43991985D01*
X173466533Y-43991985D01*
G37*
X173466533Y-43991985D02*
X173175382Y-44283136D01*
X173017813Y-44663542D01*
X173017813Y-45075290D01*
X173139644Y-45369416D01*
X173017813Y-45663542D01*
X173017813Y-46075290D01*
X173175382Y-46455696D01*
X173466533Y-46746847D01*
X173846939Y-46904416D01*
X174258687Y-46904416D01*
X174552813Y-46782585D01*
X174846939Y-46904416D01*
X175258687Y-46904416D01*
X175552813Y-46782585D01*
X175846939Y-46904416D01*
X176258687Y-46904416D01*
X176552813Y-46782585D01*
X176846939Y-46904416D01*
X177258687Y-46904416D01*
X177639093Y-46746847D01*
X177930244Y-46455696D01*
X178087813Y-46075290D01*
X178087813Y-45663542D01*
X177965982Y-45369416D01*
X178087813Y-45075290D01*
X178087813Y-44663542D01*
X177930244Y-44283136D01*
X177639093Y-43991985D01*
X177518418Y-43942000D01*
X181877326Y-43942000D01*
X182220927Y-44009909D01*
X182502299Y-44196423D01*
X182519996Y-44222560D01*
X182030000Y-44222560D01*
X181782235Y-44271843D01*
X181572191Y-44412191D01*
X181431843Y-44622235D01*
X181382560Y-44870000D01*
X181382560Y-46570000D01*
X181431843Y-46817765D01*
X181572191Y-47027809D01*
X181782235Y-47168157D01*
X181827619Y-47177184D01*
X181809375Y-47189375D01*
X181481161Y-47680582D01*
X181365908Y-48260000D01*
X181481161Y-48839418D01*
X181809375Y-49330625D01*
X182107761Y-49530000D01*
X181809375Y-49729375D01*
X181481161Y-50220582D01*
X181365908Y-50800000D01*
X181437907Y-51161966D01*
X181246537Y-51034096D01*
X181067294Y-50998442D01*
X181048157Y-50902235D01*
X180907809Y-50692191D01*
X180697765Y-50551843D01*
X180450000Y-50502560D01*
X179550000Y-50502560D01*
X179302235Y-50551843D01*
X179092191Y-50692191D01*
X178951843Y-50902235D01*
X178902560Y-51150000D01*
X178902560Y-52350000D01*
X178951843Y-52597765D01*
X179092191Y-52807809D01*
X179155334Y-52850000D01*
X179092191Y-52892191D01*
X178970344Y-53074547D01*
X178705874Y-52965000D01*
X178294126Y-52965000D01*
X177913720Y-53122569D01*
X177622569Y-53413720D01*
X177465000Y-53794126D01*
X177465000Y-54205874D01*
X177586831Y-54500000D01*
X177465000Y-54794126D01*
X177465000Y-55205874D01*
X177622569Y-55586280D01*
X177913720Y-55877431D01*
X178294126Y-56035000D01*
X178460198Y-56035000D01*
X178662802Y-56237604D01*
X178600000Y-56225112D01*
X178525152Y-56240000D01*
X178525148Y-56240000D01*
X178303463Y-56284096D01*
X178052071Y-56452071D01*
X178009669Y-56515530D01*
X177927416Y-56597783D01*
X177611783Y-56535000D01*
X177388217Y-56535000D01*
X177057145Y-56600854D01*
X177039164Y-56612869D01*
X176977765Y-56571843D01*
X176730000Y-56522560D01*
X175730000Y-56522560D01*
X175630881Y-56542276D01*
X175615922Y-56467071D01*
X175447947Y-56215679D01*
X175384491Y-56173279D01*
X174026732Y-54815521D01*
X173984330Y-54752062D01*
X173732938Y-54584087D01*
X173511253Y-54539991D01*
X173511248Y-54539991D01*
X173436401Y-54525103D01*
X173361554Y-54539991D01*
X170535000Y-54539991D01*
X170535000Y-54294126D01*
X170377431Y-53913720D01*
X170086280Y-53622569D01*
X169705874Y-53465000D01*
X169535000Y-53465000D01*
X169535000Y-53263542D01*
X169419503Y-52984708D01*
X169535000Y-52705874D01*
X169535000Y-52294126D01*
X169413169Y-52000000D01*
X169535000Y-51705874D01*
X169535000Y-51535000D01*
X169808687Y-51535000D01*
X170189093Y-51377431D01*
X170480244Y-51086280D01*
X170637813Y-50705874D01*
X170637813Y-50294126D01*
X170515982Y-50000000D01*
X170637813Y-49705874D01*
X170637813Y-49294126D01*
X170480244Y-48913720D01*
X170189093Y-48622569D01*
X169808687Y-48465000D01*
X169396939Y-48465000D01*
X169051407Y-48608124D01*
X168705874Y-48465000D01*
X168294126Y-48465000D01*
X167913720Y-48622569D01*
X167622569Y-48913720D01*
X167465000Y-49294126D01*
X167465000Y-49705874D01*
X167586831Y-50000000D01*
X167465000Y-50294126D01*
X167465000Y-50705874D01*
X167586831Y-51000000D01*
X167465000Y-51294126D01*
X167465000Y-51705874D01*
X167586831Y-52000000D01*
X167465000Y-52294126D01*
X167465000Y-52705874D01*
X167580497Y-52984708D01*
X167465000Y-53263542D01*
X167465000Y-53675290D01*
X167593165Y-53984708D01*
X167465000Y-54294126D01*
X167465000Y-54539991D01*
X167374794Y-54539991D01*
X164001209Y-51166408D01*
X164074092Y-50800000D01*
X163958839Y-50220582D01*
X163630625Y-49729375D01*
X163311522Y-49516157D01*
X163441358Y-49455183D01*
X163831645Y-49026924D01*
X164001476Y-48616890D01*
X163880155Y-48387000D01*
X162687000Y-48387000D01*
X162687000Y-48407000D01*
X162433000Y-48407000D01*
X162433000Y-48387000D01*
X162413000Y-48387000D01*
X162413000Y-48133000D01*
X162433000Y-48133000D01*
X162433000Y-48113000D01*
X162687000Y-48113000D01*
X162687000Y-48133000D01*
X163880155Y-48133000D01*
X164001476Y-47903110D01*
X163831645Y-47493076D01*
X163554292Y-47188739D01*
X163657765Y-47168157D01*
X163867809Y-47027809D01*
X164008157Y-46817765D01*
X164057440Y-46570000D01*
X164057440Y-44870000D01*
X164008157Y-44622235D01*
X163867809Y-44412191D01*
X163657765Y-44271843D01*
X163410000Y-44222560D01*
X162294017Y-44222560D01*
X162309455Y-44199455D01*
X162591870Y-44010752D01*
X162937509Y-43942000D01*
X173587208Y-43942000D01*
X173466533Y-43991985D01*
G04 #@! TD*
M02*
