G04 #@! TF.GenerationSoftware,KiCad,Pcbnew,5.0.2-bee76a0~70~ubuntu18.04.1*
G04 #@! TF.CreationDate,2019-01-02T21:11:22-05:00*
G04 #@! TF.ProjectId,stm32 prototype,73746d33-3220-4707-926f-746f74797065,rev?*
G04 #@! TF.SameCoordinates,Original*
G04 #@! TF.FileFunction,Copper,L3,Inr*
G04 #@! TF.FilePolarity,Positive*
%FSLAX46Y46*%
G04 Gerber Fmt 4.6, Leading zero omitted, Abs format (unit mm)*
G04 Created by KiCad (PCBNEW 5.0.2-bee76a0~70~ubuntu18.04.1) date Wed 02 Jan 2019 09:11:22 PM EST*
%MOMM*%
%LPD*%
G01*
G04 APERTURE LIST*
G04 #@! TA.AperFunction,ViaPad*
%ADD10O,1.700000X1.700000*%
G04 #@! TD*
G04 #@! TA.AperFunction,ViaPad*
%ADD11R,1.700000X1.700000*%
G04 #@! TD*
G04 #@! TA.AperFunction,ViaPad*
%ADD12O,1.000000X1.000000*%
G04 #@! TD*
G04 #@! TA.AperFunction,ViaPad*
%ADD13R,1.000000X1.000000*%
G04 #@! TD*
G04 #@! TA.AperFunction,ViaPad*
%ADD14C,0.800000*%
G04 #@! TD*
G04 #@! TA.AperFunction,Conductor*
%ADD15C,0.250000*%
G04 #@! TD*
G04 #@! TA.AperFunction,Conductor*
%ADD16C,0.254000*%
G04 #@! TD*
G04 APERTURE END LIST*
D10*
G04 #@! TO.N,GND*
G04 #@! TO.C,J1*
X182880000Y-106680000D03*
G04 #@! TO.N,PB14*
X182880000Y-104140000D03*
G04 #@! TO.N,PB15*
X182880000Y-101600000D03*
G04 #@! TO.N,PC6*
X182880000Y-99060000D03*
G04 #@! TO.N,PC7*
X182880000Y-96520000D03*
G04 #@! TO.N,PC8*
X182880000Y-93980000D03*
G04 #@! TO.N,PC9*
X182880000Y-91440000D03*
G04 #@! TO.N,PA8_MCO*
X182880000Y-88900000D03*
G04 #@! TO.N,PA9_ST_RXD*
X182880000Y-86360000D03*
G04 #@! TO.N,PA10_ST_TXD*
X182880000Y-83820000D03*
G04 #@! TO.N,PA11_ST_RTS*
X182880000Y-81280000D03*
G04 #@! TO.N,PA12_CTS*
X182880000Y-78740000D03*
G04 #@! TO.N,PA15*
X182880000Y-76200000D03*
G04 #@! TO.N,PC10*
X182880000Y-73660000D03*
G04 #@! TO.N,PC11*
X182880000Y-71120000D03*
G04 #@! TO.N,PC12*
X182880000Y-68580000D03*
G04 #@! TO.N,PD2*
X182880000Y-66040000D03*
G04 #@! TO.N,PB4*
X182880000Y-63500000D03*
G04 #@! TO.N,PB5_I2C1_SMBA*
X182880000Y-60960000D03*
G04 #@! TO.N,PB6_I2C1_SCL*
X182880000Y-58420000D03*
G04 #@! TO.N,PB7_I2C1_SDA*
X182880000Y-55880000D03*
G04 #@! TO.N,PB8*
X182880000Y-53340000D03*
G04 #@! TO.N,PB9*
X182880000Y-50800000D03*
G04 #@! TO.N,PC13*
X182880000Y-48260000D03*
D11*
G04 #@! TO.N,+5V*
X182880000Y-45720000D03*
G04 #@! TD*
G04 #@! TO.N,+5V*
G04 #@! TO.C,J1*
X182880000Y-45720000D03*
D10*
G04 #@! TO.N,PC13*
X182880000Y-48260000D03*
G04 #@! TO.N,PB9*
X182880000Y-50800000D03*
G04 #@! TO.N,PB8*
X182880000Y-53340000D03*
G04 #@! TO.N,PB7_I2C1_SDA*
X182880000Y-55880000D03*
G04 #@! TO.N,PB6_I2C1_SCL*
X182880000Y-58420000D03*
G04 #@! TO.N,PB5_I2C1_SMBA*
X182880000Y-60960000D03*
G04 #@! TO.N,PB4*
X182880000Y-63500000D03*
G04 #@! TO.N,PD2*
X182880000Y-66040000D03*
G04 #@! TO.N,PC12*
X182880000Y-68580000D03*
G04 #@! TO.N,PC11*
X182880000Y-71120000D03*
G04 #@! TO.N,PC10*
X182880000Y-73660000D03*
G04 #@! TO.N,PA15*
X182880000Y-76200000D03*
G04 #@! TO.N,PA12_CTS*
X182880000Y-78740000D03*
G04 #@! TO.N,PA11_ST_RTS*
X182880000Y-81280000D03*
G04 #@! TO.N,PA10_ST_TXD*
X182880000Y-83820000D03*
G04 #@! TO.N,PA9_ST_RXD*
X182880000Y-86360000D03*
G04 #@! TO.N,PA8_MCO*
X182880000Y-88900000D03*
G04 #@! TO.N,PC9*
X182880000Y-91440000D03*
G04 #@! TO.N,PC8*
X182880000Y-93980000D03*
G04 #@! TO.N,PC7*
X182880000Y-96520000D03*
G04 #@! TO.N,PC6*
X182880000Y-99060000D03*
G04 #@! TO.N,PB15*
X182880000Y-101600000D03*
G04 #@! TO.N,PB14*
X182880000Y-104140000D03*
G04 #@! TO.N,GND*
X182880000Y-106680000D03*
G04 #@! TD*
G04 #@! TO.N,+3V3*
G04 #@! TO.C,J10*
X167250000Y-100330000D03*
G04 #@! TO.N,Net-(J10-Pad2)*
X167250000Y-97790000D03*
D11*
G04 #@! TO.N,GND*
X167250000Y-95250000D03*
G04 #@! TD*
D10*
G04 #@! TO.N,GND*
G04 #@! TO.C,J1*
X182880000Y-106680000D03*
G04 #@! TO.N,PB14*
X182880000Y-104140000D03*
G04 #@! TO.N,PB15*
X182880000Y-101600000D03*
G04 #@! TO.N,PC6*
X182880000Y-99060000D03*
G04 #@! TO.N,PC7*
X182880000Y-96520000D03*
G04 #@! TO.N,PC8*
X182880000Y-93980000D03*
G04 #@! TO.N,PC9*
X182880000Y-91440000D03*
G04 #@! TO.N,PA8_MCO*
X182880000Y-88900000D03*
G04 #@! TO.N,PA9_ST_RXD*
X182880000Y-86360000D03*
G04 #@! TO.N,PA10_ST_TXD*
X182880000Y-83820000D03*
G04 #@! TO.N,PA11_ST_RTS*
X182880000Y-81280000D03*
G04 #@! TO.N,PA12_CTS*
X182880000Y-78740000D03*
G04 #@! TO.N,PA15*
X182880000Y-76200000D03*
G04 #@! TO.N,PC10*
X182880000Y-73660000D03*
G04 #@! TO.N,PC11*
X182880000Y-71120000D03*
G04 #@! TO.N,PC12*
X182880000Y-68580000D03*
G04 #@! TO.N,PD2*
X182880000Y-66040000D03*
G04 #@! TO.N,PB4*
X182880000Y-63500000D03*
G04 #@! TO.N,PB5_I2C1_SMBA*
X182880000Y-60960000D03*
G04 #@! TO.N,PB6_I2C1_SCL*
X182880000Y-58420000D03*
G04 #@! TO.N,PB7_I2C1_SDA*
X182880000Y-55880000D03*
G04 #@! TO.N,PB8*
X182880000Y-53340000D03*
G04 #@! TO.N,PB9*
X182880000Y-50800000D03*
G04 #@! TO.N,PC13*
X182880000Y-48260000D03*
D11*
G04 #@! TO.N,+5V*
X182880000Y-45720000D03*
G04 #@! TD*
G04 #@! TO.N,+3V3*
G04 #@! TO.C,J8*
X162560000Y-45720000D03*
D10*
G04 #@! TO.N,GND*
X162560000Y-48260000D03*
G04 #@! TO.N,PC1*
X162560000Y-50800000D03*
G04 #@! TO.N,PC2*
X162560000Y-53340000D03*
G04 #@! TO.N,PC0*
X162560000Y-55880000D03*
G04 #@! TO.N,PC14*
X162560000Y-58420000D03*
G04 #@! TO.N,PC15*
X162560000Y-60960000D03*
G04 #@! TO.N,PC3*
X162560000Y-63500000D03*
G04 #@! TO.N,PA0*
X162560000Y-66040000D03*
G04 #@! TO.N,PA1*
X162560000Y-68580000D03*
G04 #@! TO.N,PA2*
X162560000Y-71120000D03*
G04 #@! TO.N,PA3*
X162560000Y-73660000D03*
G04 #@! TO.N,PB0*
X162560000Y-76200000D03*
G04 #@! TO.N,PC5*
X162560000Y-78740000D03*
G04 #@! TO.N,PC4*
X162560000Y-81280000D03*
G04 #@! TO.N,PA4_SPI1_NSS*
X162560000Y-83820000D03*
G04 #@! TO.N,PA5_SPI1_SCK*
X162560000Y-86360000D03*
G04 #@! TO.N,PA6_SPI1_MISO*
X162560000Y-88900000D03*
G04 #@! TO.N,PA7_SPI1_MOSI*
X162560000Y-91440000D03*
G04 #@! TO.N,PB1*
X162560000Y-93980000D03*
G04 #@! TO.N,PB10*
X162560000Y-96520000D03*
G04 #@! TO.N,PB11*
X162560000Y-99060000D03*
G04 #@! TO.N,PB13*
X162560000Y-101600000D03*
G04 #@! TO.N,PB12*
X162560000Y-104140000D03*
G04 #@! TO.N,GND*
X162560000Y-106680000D03*
G04 #@! TD*
G04 #@! TO.N,+3V3*
G04 #@! TO.C,J9*
X178250000Y-100330000D03*
G04 #@! TO.N,Net-(J9-Pad2)*
X178250000Y-97790000D03*
D11*
G04 #@! TO.N,GND*
X178250000Y-95250000D03*
G04 #@! TD*
D12*
G04 #@! TO.N,NRST*
G04 #@! TO.C,SWD*
X177500000Y-62750000D03*
G04 #@! TO.N,GND*
X176230000Y-62750000D03*
G04 #@! TO.N,N/C*
X177500000Y-61480000D03*
X176230000Y-61480000D03*
G04 #@! TO.N,SWO*
X177500000Y-60210000D03*
G04 #@! TO.N,GND*
X176230000Y-60210000D03*
G04 #@! TO.N,TCK_SWCLK*
X177500000Y-58940000D03*
G04 #@! TO.N,GND*
X176230000Y-58940000D03*
G04 #@! TO.N,TMS_SWDIO*
X177500000Y-57670000D03*
D13*
G04 #@! TO.N,+3V3*
X176230000Y-57670000D03*
G04 #@! TD*
D14*
G04 #@! TO.N,GND*
X177115000Y-52785000D03*
X170000000Y-46750000D03*
X170052813Y-45669416D03*
X171052813Y-45669416D03*
X172052813Y-45669416D03*
X169052813Y-44669416D03*
X170052813Y-44669416D03*
X171052813Y-44669416D03*
X172052813Y-44669416D03*
X169500000Y-90750000D03*
X181000000Y-93250000D03*
X177250000Y-69500000D03*
X169250000Y-64750000D03*
X176024990Y-72701699D03*
X177600000Y-93000000D03*
X178500000Y-107500000D03*
X164661065Y-92837714D03*
X169000000Y-71500000D03*
X167583298Y-82397556D03*
X173750000Y-85250000D03*
X166000000Y-76750000D03*
X173225689Y-71748991D03*
X176500000Y-81250000D03*
X176000000Y-82500000D03*
X172216758Y-67507922D03*
X169000000Y-74000000D03*
X168000000Y-76000000D03*
G04 #@! TO.N,+3V3*
X169500000Y-54500000D03*
X168500000Y-54500000D03*
X169602813Y-50500000D03*
X169602813Y-49500000D03*
X168500000Y-52500000D03*
X168500000Y-50500000D03*
X168500000Y-53469416D03*
X178500000Y-54000000D03*
X178500000Y-55000000D03*
X176813821Y-70765907D03*
X181362340Y-90387660D03*
X178474990Y-67736500D03*
X171500000Y-93000000D03*
X167250000Y-107250000D03*
X169250000Y-56500000D03*
X168725926Y-83524066D03*
X168250000Y-80000000D03*
X172459035Y-72750000D03*
X168500000Y-49500000D03*
X168500000Y-51500000D03*
G04 #@! TO.N,+5V*
X177052813Y-45869416D03*
X176052813Y-45869416D03*
X175052813Y-45869416D03*
X174052813Y-45869416D03*
X174052813Y-44869416D03*
X175052813Y-44869416D03*
X176052813Y-44869416D03*
X177052813Y-44869416D03*
G04 #@! TO.N,NRST*
X173648436Y-78013294D03*
G04 #@! TO.N,PB14*
X173800000Y-86400000D03*
G04 #@! TO.N,PB11*
X166750000Y-90500000D03*
G04 #@! TO.N,PB10*
X165750000Y-90250000D03*
G04 #@! TO.N,PC2*
X169500000Y-80000000D03*
G04 #@! TO.N,PB9*
X176750000Y-72000000D03*
G04 #@! TO.N,PB8*
X178012660Y-71762660D03*
G04 #@! TO.N,PB7_I2C1_SDA*
X178400000Y-65000000D03*
G04 #@! TO.N,PB6_I2C1_SCL*
X179125010Y-63286846D03*
G04 #@! TO.N,PB5_I2C1_SMBA*
X178575927Y-75288139D03*
G04 #@! TO.N,PB4*
X179627006Y-74589417D03*
G04 #@! TO.N,PA15*
X178000000Y-80750000D03*
G04 #@! TO.N,PA12_CTS*
X179265500Y-84495306D03*
G04 #@! TO.N,PA11_ST_RTS*
X179399869Y-85487783D03*
G04 #@! TO.N,PA10_ST_TXD*
X179659171Y-86648408D03*
G04 #@! TO.N,PA9_ST_RXD*
X178804707Y-87167940D03*
G04 #@! TO.N,PA8_MCO*
X178250000Y-88000000D03*
G04 #@! TO.N,PA3*
X164250000Y-83000000D03*
G04 #@! TO.N,PA0*
X165875645Y-78105839D03*
G04 #@! TO.N,PC13*
X167000000Y-60000000D03*
G04 #@! TO.N,PD2*
X179648376Y-76950425D03*
G04 #@! TO.N,PC3*
X165250000Y-75750000D03*
G04 #@! TO.N,PC9*
X175600000Y-84600000D03*
G04 #@! TO.N,PC10*
X180042585Y-78398964D03*
G04 #@! TO.N,PC11*
X177250000Y-80000000D03*
G04 #@! TO.N,PC12*
X180529978Y-76166807D03*
G04 #@! TO.N,PC14*
X171500000Y-76250000D03*
G04 #@! TO.N,PC1*
X170510243Y-80325011D03*
G04 #@! TO.N,PC0*
X170237017Y-78487663D03*
G04 #@! TO.N,PC13*
X170750000Y-73250000D03*
X171750000Y-64500000D03*
G04 #@! TO.N,Net-(R6-Pad1)*
X174750000Y-77750000D03*
X175250000Y-92500000D03*
G04 #@! TO.N,PC15*
X169737965Y-74674857D03*
G04 #@! TD*
D15*
G04 #@! TO.N,PB9*
X179850011Y-63634847D02*
X179850011Y-62938845D01*
X182030001Y-51649999D02*
X182880000Y-50800000D01*
X179500000Y-54180000D02*
X182030001Y-51649999D01*
X178500000Y-70250000D02*
X178500000Y-68750000D01*
X179500000Y-62588834D02*
X179500000Y-54180000D01*
X179850011Y-62938845D02*
X179500000Y-62588834D01*
X179500000Y-63984858D02*
X179850011Y-63634847D01*
X179500000Y-67750000D02*
X179500000Y-63984858D01*
X178500000Y-68750000D02*
X179500000Y-67750000D01*
X176750000Y-72000000D02*
X178500000Y-70250000D01*
G04 #@! TO.N,PB8*
X180000000Y-68386410D02*
X178950011Y-69436399D01*
X182880000Y-53340000D02*
X180300022Y-55919978D01*
X178950011Y-69436399D02*
X178950011Y-70436400D01*
X178950011Y-70436400D02*
X178412659Y-70973752D01*
X178412659Y-71362661D02*
X178012660Y-71762660D01*
X180000000Y-64121268D02*
X180000000Y-68386410D01*
X180300022Y-55919978D02*
X180300022Y-63821247D01*
X178412659Y-70973752D02*
X178412659Y-71362661D01*
X180300022Y-63821247D02*
X180000000Y-64121268D01*
G04 #@! TO.N,PB5_I2C1_SMBA*
X178901996Y-71120825D02*
X178901996Y-74396385D01*
X179400022Y-70622800D02*
X178901996Y-71120825D01*
X179400022Y-69622799D02*
X179400022Y-70622800D01*
X182880000Y-60960000D02*
X180750033Y-63089967D01*
X178575927Y-74722454D02*
X178575927Y-75288139D01*
X180750033Y-63089967D02*
X180750033Y-64007647D01*
X178901996Y-74396385D02*
X178575927Y-74722454D01*
X180750033Y-64007647D02*
X180500000Y-64257680D01*
X180500000Y-64257680D02*
X180500000Y-68522821D01*
X180500000Y-68522821D02*
X179400022Y-69622799D01*
G04 #@! TO.N,PB4*
X179627006Y-71032227D02*
X179627006Y-74023732D01*
X179850033Y-70809200D02*
X179627006Y-71032227D01*
X181000000Y-65380000D02*
X181000000Y-68750000D01*
X182880000Y-63500000D02*
X181000000Y-65380000D01*
X179627006Y-74023732D02*
X179627006Y-74589417D01*
X179850033Y-69899967D02*
X179850033Y-70809200D01*
X181000000Y-68750000D02*
X179850033Y-69899967D01*
G04 #@! TO.N,PA15*
X178399999Y-80350001D02*
X179899999Y-80350001D01*
X178000000Y-80750000D02*
X178399999Y-80350001D01*
X179899999Y-80350001D02*
X181500000Y-78750000D01*
X181500000Y-78750000D02*
X181500000Y-77500000D01*
X182030001Y-77049999D02*
X182880000Y-76200000D01*
X181950001Y-77049999D02*
X181500000Y-77500000D01*
X182030001Y-77049999D02*
X181950001Y-77049999D01*
G04 #@! TO.N,PA12_CTS*
X179265500Y-82354500D02*
X179265500Y-83929621D01*
X182880000Y-78740000D02*
X179265500Y-82354500D01*
X179265500Y-83929621D02*
X179265500Y-84495306D01*
G04 #@! TO.N,PA11_ST_RTS*
X182880000Y-81280000D02*
X180250000Y-83910000D01*
X180250000Y-83910000D02*
X180250000Y-84637652D01*
X179799868Y-85087784D02*
X179399869Y-85487783D01*
X180250000Y-84637652D02*
X179799868Y-85087784D01*
G04 #@! TO.N,PA10_ST_TXD*
X182487579Y-83820000D02*
X182880000Y-83820000D01*
X179659171Y-86648408D02*
X182487579Y-83820000D01*
G04 #@! TO.N,PA9_ST_RXD*
X181640000Y-86360000D02*
X182880000Y-86360000D01*
X180386767Y-87613233D02*
X181640000Y-86360000D01*
X178804707Y-87167940D02*
X179250000Y-87613233D01*
X179250000Y-87613233D02*
X180386767Y-87613233D01*
G04 #@! TO.N,PA8_MCO*
X179150000Y-88900000D02*
X182880000Y-88900000D01*
X178250000Y-88000000D02*
X179150000Y-88900000D01*
G04 #@! TO.N,PD2*
X180352008Y-70147992D02*
X180352008Y-74937419D01*
X179648376Y-76384740D02*
X179648376Y-76950425D01*
X179648376Y-75641051D02*
X179648376Y-76384740D01*
X180352008Y-74937419D02*
X179648376Y-75641051D01*
X181500000Y-69000000D02*
X180352008Y-70147992D01*
X181500000Y-67420000D02*
X181500000Y-69000000D01*
X182880000Y-66040000D02*
X181500000Y-67420000D01*
G04 #@! TO.N,PC9*
X175600000Y-84600000D02*
X177400000Y-86400000D01*
X177400000Y-86400000D02*
X177400000Y-88800000D01*
X177400000Y-88800000D02*
X178000000Y-89400000D01*
X182087341Y-90039659D02*
X182087341Y-90647341D01*
X181447682Y-89400000D02*
X182087341Y-90039659D01*
X178000000Y-89400000D02*
X181447682Y-89400000D01*
X182087341Y-90647341D02*
X182880000Y-91440000D01*
G04 #@! TO.N,PC10*
X182880000Y-73660000D02*
X181704999Y-74835001D01*
X180442584Y-77998965D02*
X180042585Y-78398964D01*
X180442584Y-77921006D02*
X180442584Y-77998965D01*
X181704999Y-76658591D02*
X180442584Y-77921006D01*
X181704999Y-74835001D02*
X181704999Y-76658591D01*
G04 #@! TO.N,PC11*
X180810658Y-76916521D02*
X181254988Y-76472192D01*
X180754938Y-76916521D02*
X180810658Y-76916521D01*
X179996032Y-77675427D02*
X180754938Y-76916521D01*
X182030001Y-71969999D02*
X182880000Y-71120000D01*
X181254988Y-72745012D02*
X182030001Y-71969999D01*
X181254988Y-76472192D02*
X181254988Y-72745012D01*
X177250000Y-80000000D02*
X179574573Y-77675427D01*
X179574573Y-77675427D02*
X179996032Y-77675427D01*
G04 #@! TO.N,PC12*
X180529978Y-75601122D02*
X180529978Y-76166807D01*
X180802019Y-70657981D02*
X180802019Y-75329081D01*
X182880000Y-68580000D02*
X180802019Y-70657981D01*
X180802019Y-75329081D02*
X180529978Y-75601122D01*
G04 #@! TO.N,PC13*
X171149999Y-72850001D02*
X171149999Y-72600001D01*
X170750000Y-73250000D02*
X171149999Y-72850001D01*
X171149999Y-72600001D02*
X173500000Y-70250000D01*
X173500000Y-70250000D02*
X173500000Y-66250000D01*
X173500000Y-66250000D02*
X171750000Y-64500000D01*
G04 #@! TO.N,Net-(R6-Pad1)*
X174750000Y-77750000D02*
X174750000Y-78315685D01*
X174750000Y-78315685D02*
X174750000Y-92000000D01*
X174750000Y-92000000D02*
X175250000Y-92500000D01*
G04 #@! TD*
D16*
G04 #@! TO.N,+3V3*
G36*
X168175382Y-44083136D02*
X168017813Y-44463542D01*
X168017813Y-44875290D01*
X168175382Y-45255696D01*
X168466533Y-45546847D01*
X168846939Y-45704416D01*
X169017813Y-45704416D01*
X169017813Y-45875290D01*
X169132974Y-46153315D01*
X169122569Y-46163720D01*
X168965000Y-46544126D01*
X168965000Y-46955874D01*
X169122569Y-47336280D01*
X169413720Y-47627431D01*
X169794126Y-47785000D01*
X170205874Y-47785000D01*
X170586280Y-47627431D01*
X170877431Y-47336280D01*
X171035000Y-46955874D01*
X171035000Y-46704416D01*
X171258687Y-46704416D01*
X171552813Y-46582585D01*
X171846939Y-46704416D01*
X172258687Y-46704416D01*
X172639093Y-46546847D01*
X172930244Y-46255696D01*
X173017813Y-46044285D01*
X173017813Y-46075290D01*
X173175382Y-46455696D01*
X173466533Y-46746847D01*
X173846939Y-46904416D01*
X174258687Y-46904416D01*
X174552813Y-46782585D01*
X174846939Y-46904416D01*
X175258687Y-46904416D01*
X175552813Y-46782585D01*
X175846939Y-46904416D01*
X176258687Y-46904416D01*
X176552813Y-46782585D01*
X176846939Y-46904416D01*
X177258687Y-46904416D01*
X177639093Y-46746847D01*
X177930244Y-46455696D01*
X178087813Y-46075290D01*
X178087813Y-45663542D01*
X177965982Y-45369416D01*
X178087813Y-45075290D01*
X178087813Y-44663542D01*
X177930244Y-44283136D01*
X177639093Y-43991985D01*
X177518418Y-43942000D01*
X182502491Y-43942000D01*
X182848130Y-44010752D01*
X183130545Y-44199455D01*
X183145983Y-44222560D01*
X182030000Y-44222560D01*
X181782235Y-44271843D01*
X181572191Y-44412191D01*
X181431843Y-44622235D01*
X181382560Y-44870000D01*
X181382560Y-46570000D01*
X181431843Y-46817765D01*
X181572191Y-47027809D01*
X181782235Y-47168157D01*
X181827619Y-47177184D01*
X181809375Y-47189375D01*
X181481161Y-47680582D01*
X181365908Y-48260000D01*
X181481161Y-48839418D01*
X181809375Y-49330625D01*
X182107761Y-49530000D01*
X181809375Y-49729375D01*
X181481161Y-50220582D01*
X181365908Y-50800000D01*
X181438791Y-51166407D01*
X179015528Y-53589671D01*
X178952072Y-53632071D01*
X178909672Y-53695527D01*
X178909671Y-53695528D01*
X178784097Y-53883463D01*
X178725112Y-54180000D01*
X178740001Y-54254852D01*
X178740000Y-62326046D01*
X178585625Y-62389991D01*
X178569146Y-62307145D01*
X178440759Y-62115000D01*
X178569146Y-61922855D01*
X178657235Y-61480000D01*
X178569146Y-61037145D01*
X178440759Y-60845000D01*
X178569146Y-60652855D01*
X178657235Y-60210000D01*
X178569146Y-59767145D01*
X178440759Y-59575000D01*
X178569146Y-59382855D01*
X178657235Y-58940000D01*
X178569146Y-58497145D01*
X178440759Y-58305000D01*
X178569146Y-58112855D01*
X178657235Y-57670000D01*
X178569146Y-57227145D01*
X178318289Y-56851711D01*
X177942855Y-56600854D01*
X177611783Y-56535000D01*
X177388217Y-56535000D01*
X177057145Y-56600854D01*
X177041129Y-56611555D01*
X176856309Y-56535000D01*
X176638750Y-56535000D01*
X176480000Y-56693750D01*
X176480000Y-57153593D01*
X176430854Y-57227145D01*
X176342765Y-57670000D01*
X176370765Y-57810765D01*
X176341783Y-57805000D01*
X176118217Y-57805000D01*
X175787145Y-57870854D01*
X175713593Y-57920000D01*
X175253750Y-57920000D01*
X175095000Y-58078750D01*
X175095000Y-58296310D01*
X175171555Y-58481130D01*
X175160854Y-58497145D01*
X175072765Y-58940000D01*
X175160854Y-59382855D01*
X175289241Y-59575000D01*
X175160854Y-59767145D01*
X175072765Y-60210000D01*
X175160854Y-60652855D01*
X175289241Y-60845000D01*
X175160854Y-61037145D01*
X175072765Y-61480000D01*
X175160854Y-61922855D01*
X175289241Y-62115000D01*
X175160854Y-62307145D01*
X175072765Y-62750000D01*
X175160854Y-63192855D01*
X175411711Y-63568289D01*
X175787145Y-63819146D01*
X176118217Y-63885000D01*
X176341783Y-63885000D01*
X176672855Y-63819146D01*
X176865000Y-63690759D01*
X177057145Y-63819146D01*
X177388217Y-63885000D01*
X177611783Y-63885000D01*
X177942855Y-63819146D01*
X178164011Y-63671374D01*
X178247579Y-63873126D01*
X178339453Y-63965000D01*
X178194126Y-63965000D01*
X177813720Y-64122569D01*
X177522569Y-64413720D01*
X177365000Y-64794126D01*
X177365000Y-65205874D01*
X177522569Y-65586280D01*
X177813720Y-65877431D01*
X178194126Y-66035000D01*
X178605874Y-66035000D01*
X178740000Y-65979443D01*
X178740000Y-67435198D01*
X178015528Y-68159671D01*
X177952072Y-68202071D01*
X177909672Y-68265527D01*
X177909671Y-68265528D01*
X177784097Y-68453463D01*
X177756992Y-68589727D01*
X177455874Y-68465000D01*
X177044126Y-68465000D01*
X176663720Y-68622569D01*
X176372569Y-68913720D01*
X176215000Y-69294126D01*
X176215000Y-69705874D01*
X176372569Y-70086280D01*
X176663720Y-70377431D01*
X177044126Y-70535000D01*
X177140198Y-70535000D01*
X176710199Y-70965000D01*
X176544126Y-70965000D01*
X176163720Y-71122569D01*
X175872569Y-71413720D01*
X175757150Y-71692366D01*
X175438710Y-71824268D01*
X175147559Y-72115419D01*
X174989990Y-72495825D01*
X174989990Y-72907573D01*
X175147559Y-73287979D01*
X175438710Y-73579130D01*
X175819116Y-73736699D01*
X176230864Y-73736699D01*
X176611270Y-73579130D01*
X176902421Y-73287979D01*
X177017840Y-73009333D01*
X177336280Y-72877431D01*
X177530494Y-72683217D01*
X177806786Y-72797660D01*
X178141997Y-72797660D01*
X178141997Y-74081583D01*
X178091457Y-74132123D01*
X178027998Y-74174525D01*
X177860023Y-74425918D01*
X177831614Y-74568741D01*
X177698496Y-74701859D01*
X177540927Y-75082265D01*
X177540927Y-75494013D01*
X177698496Y-75874419D01*
X177989647Y-76165570D01*
X178370053Y-76323139D01*
X178781801Y-76323139D01*
X178833270Y-76301820D01*
X178770945Y-76364145D01*
X178613376Y-76744551D01*
X178613376Y-77156299D01*
X178732151Y-77443047D01*
X177210199Y-78965000D01*
X177044126Y-78965000D01*
X176663720Y-79122569D01*
X176372569Y-79413720D01*
X176215000Y-79794126D01*
X176215000Y-80205874D01*
X176229814Y-80241639D01*
X175913720Y-80372569D01*
X175622569Y-80663720D01*
X175510000Y-80935486D01*
X175510000Y-78453711D01*
X175627431Y-78336280D01*
X175785000Y-77955874D01*
X175785000Y-77544126D01*
X175627431Y-77163720D01*
X175336280Y-76872569D01*
X174955874Y-76715000D01*
X174544126Y-76715000D01*
X174163720Y-76872569D01*
X173998337Y-77037952D01*
X173854310Y-76978294D01*
X173442562Y-76978294D01*
X173062156Y-77135863D01*
X172771005Y-77427014D01*
X172613436Y-77807420D01*
X172613436Y-78219168D01*
X172771005Y-78599574D01*
X173062156Y-78890725D01*
X173442562Y-79048294D01*
X173854310Y-79048294D01*
X173990000Y-78992089D01*
X173990000Y-84229136D01*
X173955874Y-84215000D01*
X173544126Y-84215000D01*
X173163720Y-84372569D01*
X172872569Y-84663720D01*
X172715000Y-85044126D01*
X172715000Y-85455874D01*
X172872569Y-85836280D01*
X172901317Y-85865028D01*
X172765000Y-86194126D01*
X172765000Y-86605874D01*
X172922569Y-86986280D01*
X173213720Y-87277431D01*
X173594126Y-87435000D01*
X173990001Y-87435000D01*
X173990001Y-91925148D01*
X173975112Y-92000000D01*
X173990001Y-92074852D01*
X174034097Y-92296537D01*
X174202072Y-92547929D01*
X174215000Y-92556567D01*
X174215000Y-92705874D01*
X174372569Y-93086280D01*
X174663720Y-93377431D01*
X175044126Y-93535000D01*
X175455874Y-93535000D01*
X175836280Y-93377431D01*
X176127431Y-93086280D01*
X176248444Y-92794126D01*
X176565000Y-92794126D01*
X176565000Y-93205874D01*
X176722569Y-93586280D01*
X177013720Y-93877431D01*
X177029394Y-93883923D01*
X176942191Y-93942191D01*
X176801843Y-94152235D01*
X176752560Y-94400000D01*
X176752560Y-96100000D01*
X176801843Y-96347765D01*
X176942191Y-96557809D01*
X177152235Y-96698157D01*
X177197619Y-96707184D01*
X177179375Y-96719375D01*
X176851161Y-97210582D01*
X176735908Y-97790000D01*
X176851161Y-98369418D01*
X177179375Y-98860625D01*
X177501969Y-99076176D01*
X177180915Y-99299289D01*
X176888655Y-99736735D01*
X176977282Y-99957000D01*
X177877000Y-99957000D01*
X177877000Y-99937000D01*
X178623000Y-99937000D01*
X178623000Y-99957000D01*
X179522718Y-99957000D01*
X179611345Y-99736735D01*
X179319085Y-99299289D01*
X178998031Y-99076176D01*
X179320625Y-98860625D01*
X179648839Y-98369418D01*
X179764092Y-97790000D01*
X179648839Y-97210582D01*
X179320625Y-96719375D01*
X179302381Y-96707184D01*
X179347765Y-96698157D01*
X179557809Y-96557809D01*
X179698157Y-96347765D01*
X179747440Y-96100000D01*
X179747440Y-94400000D01*
X179698157Y-94152235D01*
X179557809Y-93942191D01*
X179347765Y-93801843D01*
X179100000Y-93752560D01*
X178311151Y-93752560D01*
X178477431Y-93586280D01*
X178635000Y-93205874D01*
X178635000Y-92794126D01*
X178477431Y-92413720D01*
X178186280Y-92122569D01*
X177805874Y-91965000D01*
X177394126Y-91965000D01*
X177013720Y-92122569D01*
X176722569Y-92413720D01*
X176565000Y-92794126D01*
X176248444Y-92794126D01*
X176285000Y-92705874D01*
X176285000Y-92294126D01*
X176127431Y-91913720D01*
X175836280Y-91622569D01*
X175510000Y-91487420D01*
X175510000Y-85635000D01*
X175560198Y-85635000D01*
X176640000Y-86714803D01*
X176640001Y-88725148D01*
X176625112Y-88800000D01*
X176640001Y-88874852D01*
X176684097Y-89096537D01*
X176763252Y-89215000D01*
X176852072Y-89347929D01*
X176915528Y-89390329D01*
X177409670Y-89884472D01*
X177452071Y-89947929D01*
X177703463Y-90115904D01*
X177925148Y-90160000D01*
X177925152Y-90160000D01*
X177999999Y-90174888D01*
X178074846Y-90160000D01*
X181132880Y-90160000D01*
X181327341Y-90354461D01*
X181327341Y-90572494D01*
X181312453Y-90647341D01*
X181327341Y-90722188D01*
X181327341Y-90722193D01*
X181371437Y-90943878D01*
X181443223Y-91051312D01*
X181365908Y-91440000D01*
X181481161Y-92019418D01*
X181809375Y-92510625D01*
X182107761Y-92710000D01*
X181942374Y-92820508D01*
X181877431Y-92663720D01*
X181586280Y-92372569D01*
X181205874Y-92215000D01*
X180794126Y-92215000D01*
X180413720Y-92372569D01*
X180122569Y-92663720D01*
X179965000Y-93044126D01*
X179965000Y-93455874D01*
X180122569Y-93836280D01*
X180413720Y-94127431D01*
X180794126Y-94285000D01*
X181205874Y-94285000D01*
X181409776Y-94200541D01*
X181481161Y-94559418D01*
X181809375Y-95050625D01*
X182107761Y-95250000D01*
X181809375Y-95449375D01*
X181481161Y-95940582D01*
X181365908Y-96520000D01*
X181481161Y-97099418D01*
X181809375Y-97590625D01*
X182107761Y-97790000D01*
X181809375Y-97989375D01*
X181481161Y-98480582D01*
X181365908Y-99060000D01*
X181481161Y-99639418D01*
X181809375Y-100130625D01*
X182107761Y-100330000D01*
X181809375Y-100529375D01*
X181481161Y-101020582D01*
X181365908Y-101600000D01*
X181481161Y-102179418D01*
X181809375Y-102670625D01*
X182107761Y-102870000D01*
X181809375Y-103069375D01*
X181481161Y-103560582D01*
X181365908Y-104140000D01*
X181481161Y-104719418D01*
X181809375Y-105210625D01*
X182107761Y-105410000D01*
X181809375Y-105609375D01*
X181481161Y-106100582D01*
X181365908Y-106680000D01*
X181481161Y-107259418D01*
X181809375Y-107750625D01*
X182300582Y-108078839D01*
X182733744Y-108165000D01*
X183026256Y-108165000D01*
X183173921Y-108135628D01*
X183130545Y-108200545D01*
X182848130Y-108389248D01*
X182502491Y-108458000D01*
X178891769Y-108458000D01*
X179086280Y-108377431D01*
X179377431Y-108086280D01*
X179535000Y-107705874D01*
X179535000Y-107294126D01*
X179377431Y-106913720D01*
X179086280Y-106622569D01*
X178705874Y-106465000D01*
X178294126Y-106465000D01*
X177913720Y-106622569D01*
X177622569Y-106913720D01*
X177465000Y-107294126D01*
X177465000Y-107705874D01*
X177622569Y-108086280D01*
X177913720Y-108377431D01*
X178108231Y-108458000D01*
X162937509Y-108458000D01*
X162591870Y-108389248D01*
X162309455Y-108200545D01*
X162266079Y-108135628D01*
X162413744Y-108165000D01*
X162706256Y-108165000D01*
X163139418Y-108078839D01*
X163630625Y-107750625D01*
X163958839Y-107259418D01*
X164074092Y-106680000D01*
X163958839Y-106100582D01*
X163630625Y-105609375D01*
X163332239Y-105410000D01*
X163630625Y-105210625D01*
X163958839Y-104719418D01*
X164074092Y-104140000D01*
X163958839Y-103560582D01*
X163630625Y-103069375D01*
X163332239Y-102870000D01*
X163630625Y-102670625D01*
X163958839Y-102179418D01*
X164074092Y-101600000D01*
X163958839Y-101020582D01*
X163893814Y-100923265D01*
X165888655Y-100923265D01*
X166180915Y-101360711D01*
X166656730Y-101691374D01*
X166877000Y-101608671D01*
X166877000Y-100703000D01*
X167623000Y-100703000D01*
X167623000Y-101608671D01*
X167843270Y-101691374D01*
X168319085Y-101360711D01*
X168611345Y-100923265D01*
X176888655Y-100923265D01*
X177180915Y-101360711D01*
X177656730Y-101691374D01*
X177877000Y-101608671D01*
X177877000Y-100703000D01*
X178623000Y-100703000D01*
X178623000Y-101608671D01*
X178843270Y-101691374D01*
X179319085Y-101360711D01*
X179611345Y-100923265D01*
X179522718Y-100703000D01*
X178623000Y-100703000D01*
X177877000Y-100703000D01*
X176977282Y-100703000D01*
X176888655Y-100923265D01*
X168611345Y-100923265D01*
X168522718Y-100703000D01*
X167623000Y-100703000D01*
X166877000Y-100703000D01*
X165977282Y-100703000D01*
X165888655Y-100923265D01*
X163893814Y-100923265D01*
X163630625Y-100529375D01*
X163332239Y-100330000D01*
X163630625Y-100130625D01*
X163958839Y-99639418D01*
X164074092Y-99060000D01*
X163958839Y-98480582D01*
X163630625Y-97989375D01*
X163332239Y-97790000D01*
X165735908Y-97790000D01*
X165851161Y-98369418D01*
X166179375Y-98860625D01*
X166501969Y-99076176D01*
X166180915Y-99299289D01*
X165888655Y-99736735D01*
X165977282Y-99957000D01*
X166877000Y-99957000D01*
X166877000Y-99937000D01*
X167623000Y-99937000D01*
X167623000Y-99957000D01*
X168522718Y-99957000D01*
X168611345Y-99736735D01*
X168319085Y-99299289D01*
X167998031Y-99076176D01*
X168320625Y-98860625D01*
X168648839Y-98369418D01*
X168764092Y-97790000D01*
X168648839Y-97210582D01*
X168320625Y-96719375D01*
X168302381Y-96707184D01*
X168347765Y-96698157D01*
X168557809Y-96557809D01*
X168698157Y-96347765D01*
X168747440Y-96100000D01*
X168747440Y-94400000D01*
X168698157Y-94152235D01*
X168557809Y-93942191D01*
X168347765Y-93801843D01*
X168100000Y-93752560D01*
X166400000Y-93752560D01*
X166152235Y-93801843D01*
X165942191Y-93942191D01*
X165801843Y-94152235D01*
X165752560Y-94400000D01*
X165752560Y-96100000D01*
X165801843Y-96347765D01*
X165942191Y-96557809D01*
X166152235Y-96698157D01*
X166197619Y-96707184D01*
X166179375Y-96719375D01*
X165851161Y-97210582D01*
X165735908Y-97790000D01*
X163332239Y-97790000D01*
X163630625Y-97590625D01*
X163958839Y-97099418D01*
X164074092Y-96520000D01*
X163958839Y-95940582D01*
X163630625Y-95449375D01*
X163332239Y-95250000D01*
X163630625Y-95050625D01*
X163958839Y-94559418D01*
X164074092Y-93980000D01*
X164008156Y-93648516D01*
X164074785Y-93715145D01*
X164455191Y-93872714D01*
X164866939Y-93872714D01*
X165247345Y-93715145D01*
X165538496Y-93423994D01*
X165696065Y-93043588D01*
X165696065Y-92631840D01*
X165538496Y-92251434D01*
X165247345Y-91960283D01*
X164866939Y-91802714D01*
X164455191Y-91802714D01*
X164074785Y-91960283D01*
X163844440Y-92190628D01*
X163958839Y-92019418D01*
X164074092Y-91440000D01*
X163958839Y-90860582D01*
X163630625Y-90369375D01*
X163332239Y-90170000D01*
X163520622Y-90044126D01*
X164715000Y-90044126D01*
X164715000Y-90455874D01*
X164872569Y-90836280D01*
X165163720Y-91127431D01*
X165544126Y-91285000D01*
X165955874Y-91285000D01*
X166037485Y-91251196D01*
X166163720Y-91377431D01*
X166544126Y-91535000D01*
X166955874Y-91535000D01*
X167336280Y-91377431D01*
X167627431Y-91086280D01*
X167785000Y-90705874D01*
X167785000Y-90544126D01*
X168465000Y-90544126D01*
X168465000Y-90955874D01*
X168622569Y-91336280D01*
X168913720Y-91627431D01*
X169294126Y-91785000D01*
X169705874Y-91785000D01*
X170086280Y-91627431D01*
X170377431Y-91336280D01*
X170535000Y-90955874D01*
X170535000Y-90544126D01*
X170377431Y-90163720D01*
X170086280Y-89872569D01*
X169705874Y-89715000D01*
X169294126Y-89715000D01*
X168913720Y-89872569D01*
X168622569Y-90163720D01*
X168465000Y-90544126D01*
X167785000Y-90544126D01*
X167785000Y-90294126D01*
X167627431Y-89913720D01*
X167336280Y-89622569D01*
X166955874Y-89465000D01*
X166544126Y-89465000D01*
X166462515Y-89498804D01*
X166336280Y-89372569D01*
X165955874Y-89215000D01*
X165544126Y-89215000D01*
X165163720Y-89372569D01*
X164872569Y-89663720D01*
X164715000Y-90044126D01*
X163520622Y-90044126D01*
X163630625Y-89970625D01*
X163958839Y-89479418D01*
X164074092Y-88900000D01*
X163958839Y-88320582D01*
X163630625Y-87829375D01*
X163332239Y-87630000D01*
X163630625Y-87430625D01*
X163958839Y-86939418D01*
X164074092Y-86360000D01*
X163958839Y-85780582D01*
X163630625Y-85289375D01*
X163332239Y-85090000D01*
X163630625Y-84890625D01*
X163958839Y-84399418D01*
X164032300Y-84030102D01*
X164044126Y-84035000D01*
X164455874Y-84035000D01*
X164836280Y-83877431D01*
X165127431Y-83586280D01*
X165285000Y-83205874D01*
X165285000Y-82794126D01*
X165127431Y-82413720D01*
X164905393Y-82191682D01*
X166548298Y-82191682D01*
X166548298Y-82603430D01*
X166705867Y-82983836D01*
X166997018Y-83274987D01*
X167377424Y-83432556D01*
X167789172Y-83432556D01*
X168169578Y-83274987D01*
X168460729Y-82983836D01*
X168618298Y-82603430D01*
X168618298Y-82191682D01*
X168460729Y-81811276D01*
X168169578Y-81520125D01*
X167789172Y-81362556D01*
X167377424Y-81362556D01*
X166997018Y-81520125D01*
X166705867Y-81811276D01*
X166548298Y-82191682D01*
X164905393Y-82191682D01*
X164836280Y-82122569D01*
X164455874Y-81965000D01*
X164044126Y-81965000D01*
X163828656Y-82054250D01*
X163958839Y-81859418D01*
X164074092Y-81280000D01*
X163958839Y-80700582D01*
X163630625Y-80209375D01*
X163332239Y-80010000D01*
X163630625Y-79810625D01*
X163641649Y-79794126D01*
X168465000Y-79794126D01*
X168465000Y-80205874D01*
X168622569Y-80586280D01*
X168913720Y-80877431D01*
X169294126Y-81035000D01*
X169705874Y-81035000D01*
X169741687Y-81020166D01*
X169923963Y-81202442D01*
X170304369Y-81360011D01*
X170716117Y-81360011D01*
X171096523Y-81202442D01*
X171387674Y-80911291D01*
X171545243Y-80530885D01*
X171545243Y-80119137D01*
X171387674Y-79738731D01*
X171096523Y-79447580D01*
X170844996Y-79343395D01*
X171114448Y-79073943D01*
X171272017Y-78693537D01*
X171272017Y-78281789D01*
X171114448Y-77901383D01*
X170823297Y-77610232D01*
X170442891Y-77452663D01*
X170031143Y-77452663D01*
X169650737Y-77610232D01*
X169359586Y-77901383D01*
X169202017Y-78281789D01*
X169202017Y-78693537D01*
X169314460Y-78965000D01*
X169294126Y-78965000D01*
X168913720Y-79122569D01*
X168622569Y-79413720D01*
X168465000Y-79794126D01*
X163641649Y-79794126D01*
X163958839Y-79319418D01*
X164074092Y-78740000D01*
X163958839Y-78160582D01*
X163630625Y-77669375D01*
X163332239Y-77470000D01*
X163630625Y-77270625D01*
X163958839Y-76779418D01*
X164074092Y-76200000D01*
X163958839Y-75620582D01*
X163907753Y-75544126D01*
X164215000Y-75544126D01*
X164215000Y-75955874D01*
X164372569Y-76336280D01*
X164663720Y-76627431D01*
X164965000Y-76752225D01*
X164965000Y-76955874D01*
X165122569Y-77336280D01*
X165152031Y-77365742D01*
X164998214Y-77519559D01*
X164840645Y-77899965D01*
X164840645Y-78311713D01*
X164998214Y-78692119D01*
X165289365Y-78983270D01*
X165669771Y-79140839D01*
X166081519Y-79140839D01*
X166461925Y-78983270D01*
X166753076Y-78692119D01*
X166910645Y-78311713D01*
X166910645Y-77899965D01*
X166753076Y-77519559D01*
X166723614Y-77490097D01*
X166877431Y-77336280D01*
X167035000Y-76955874D01*
X167035000Y-76544126D01*
X166877431Y-76163720D01*
X166586280Y-75872569D01*
X166396902Y-75794126D01*
X166965000Y-75794126D01*
X166965000Y-76205874D01*
X167122569Y-76586280D01*
X167413720Y-76877431D01*
X167794126Y-77035000D01*
X168205874Y-77035000D01*
X168586280Y-76877431D01*
X168877431Y-76586280D01*
X169035000Y-76205874D01*
X169035000Y-76044126D01*
X170465000Y-76044126D01*
X170465000Y-76455874D01*
X170622569Y-76836280D01*
X170913720Y-77127431D01*
X171294126Y-77285000D01*
X171705874Y-77285000D01*
X172086280Y-77127431D01*
X172377431Y-76836280D01*
X172535000Y-76455874D01*
X172535000Y-76044126D01*
X172377431Y-75663720D01*
X172086280Y-75372569D01*
X171705874Y-75215000D01*
X171294126Y-75215000D01*
X170913720Y-75372569D01*
X170622569Y-75663720D01*
X170465000Y-76044126D01*
X169035000Y-76044126D01*
X169035000Y-75794126D01*
X168877431Y-75413720D01*
X168586280Y-75122569D01*
X168205874Y-74965000D01*
X167794126Y-74965000D01*
X167413720Y-75122569D01*
X167122569Y-75413720D01*
X166965000Y-75794126D01*
X166396902Y-75794126D01*
X166285000Y-75747775D01*
X166285000Y-75544126D01*
X166127431Y-75163720D01*
X165836280Y-74872569D01*
X165455874Y-74715000D01*
X165044126Y-74715000D01*
X164663720Y-74872569D01*
X164372569Y-75163720D01*
X164215000Y-75544126D01*
X163907753Y-75544126D01*
X163630625Y-75129375D01*
X163332239Y-74930000D01*
X163630625Y-74730625D01*
X163958839Y-74239418D01*
X164047412Y-73794126D01*
X167965000Y-73794126D01*
X167965000Y-74205874D01*
X168122569Y-74586280D01*
X168413720Y-74877431D01*
X168761219Y-75021370D01*
X168860534Y-75261137D01*
X169151685Y-75552288D01*
X169532091Y-75709857D01*
X169943839Y-75709857D01*
X170324245Y-75552288D01*
X170615396Y-75261137D01*
X170772965Y-74880731D01*
X170772965Y-74468983D01*
X170696757Y-74285000D01*
X170955874Y-74285000D01*
X171336280Y-74127431D01*
X171627431Y-73836280D01*
X171785000Y-73455874D01*
X171785000Y-73267618D01*
X171865903Y-73146538D01*
X171909999Y-72924853D01*
X171909999Y-72924849D01*
X171912494Y-72912307D01*
X172418894Y-72405907D01*
X172639409Y-72626422D01*
X173019815Y-72783991D01*
X173431563Y-72783991D01*
X173811969Y-72626422D01*
X174103120Y-72335271D01*
X174260689Y-71954865D01*
X174260689Y-71543117D01*
X174103120Y-71162711D01*
X173882605Y-70942196D01*
X173984473Y-70840329D01*
X174047929Y-70797929D01*
X174215904Y-70546537D01*
X174260000Y-70324852D01*
X174260000Y-70324848D01*
X174274888Y-70250001D01*
X174260000Y-70175154D01*
X174260000Y-66324848D01*
X174274888Y-66250000D01*
X174260000Y-66175152D01*
X174260000Y-66175148D01*
X174215904Y-65953463D01*
X174215904Y-65953462D01*
X174090329Y-65765527D01*
X174047929Y-65702071D01*
X173984473Y-65659671D01*
X172785000Y-64460199D01*
X172785000Y-64294126D01*
X172627431Y-63913720D01*
X172336280Y-63622569D01*
X171955874Y-63465000D01*
X171544126Y-63465000D01*
X171163720Y-63622569D01*
X170872569Y-63913720D01*
X170715000Y-64294126D01*
X170715000Y-64705874D01*
X170872569Y-65086280D01*
X171163720Y-65377431D01*
X171544126Y-65535000D01*
X171710199Y-65535000D01*
X172740001Y-66564803D01*
X172740001Y-66604380D01*
X172422632Y-66472922D01*
X172010884Y-66472922D01*
X171630478Y-66630491D01*
X171339327Y-66921642D01*
X171181758Y-67302048D01*
X171181758Y-67713796D01*
X171339327Y-68094202D01*
X171630478Y-68385353D01*
X172010884Y-68542922D01*
X172422632Y-68542922D01*
X172740000Y-68411464D01*
X172740000Y-69935198D01*
X170665528Y-72009671D01*
X170602070Y-72052072D01*
X170473718Y-72244164D01*
X170163720Y-72372569D01*
X169872569Y-72663720D01*
X169715000Y-73044126D01*
X169715000Y-73251289D01*
X169586280Y-73122569D01*
X169205874Y-72965000D01*
X168794126Y-72965000D01*
X168413720Y-73122569D01*
X168122569Y-73413720D01*
X167965000Y-73794126D01*
X164047412Y-73794126D01*
X164074092Y-73660000D01*
X163958839Y-73080582D01*
X163630625Y-72589375D01*
X163332239Y-72390000D01*
X163630625Y-72190625D01*
X163958839Y-71699418D01*
X164039456Y-71294126D01*
X167965000Y-71294126D01*
X167965000Y-71705874D01*
X168122569Y-72086280D01*
X168413720Y-72377431D01*
X168794126Y-72535000D01*
X169205874Y-72535000D01*
X169586280Y-72377431D01*
X169877431Y-72086280D01*
X170035000Y-71705874D01*
X170035000Y-71294126D01*
X169877431Y-70913720D01*
X169586280Y-70622569D01*
X169205874Y-70465000D01*
X168794126Y-70465000D01*
X168413720Y-70622569D01*
X168122569Y-70913720D01*
X167965000Y-71294126D01*
X164039456Y-71294126D01*
X164074092Y-71120000D01*
X163958839Y-70540582D01*
X163630625Y-70049375D01*
X163332239Y-69850000D01*
X163630625Y-69650625D01*
X163958839Y-69159418D01*
X164074092Y-68580000D01*
X163958839Y-68000582D01*
X163630625Y-67509375D01*
X163332239Y-67310000D01*
X163630625Y-67110625D01*
X163958839Y-66619418D01*
X164074092Y-66040000D01*
X163958839Y-65460582D01*
X163630625Y-64969375D01*
X163332239Y-64770000D01*
X163630625Y-64570625D01*
X163648331Y-64544126D01*
X168215000Y-64544126D01*
X168215000Y-64955874D01*
X168372569Y-65336280D01*
X168663720Y-65627431D01*
X169044126Y-65785000D01*
X169455874Y-65785000D01*
X169836280Y-65627431D01*
X170127431Y-65336280D01*
X170285000Y-64955874D01*
X170285000Y-64544126D01*
X170127431Y-64163720D01*
X169836280Y-63872569D01*
X169455874Y-63715000D01*
X169044126Y-63715000D01*
X168663720Y-63872569D01*
X168372569Y-64163720D01*
X168215000Y-64544126D01*
X163648331Y-64544126D01*
X163958839Y-64079418D01*
X164074092Y-63500000D01*
X163958839Y-62920582D01*
X163630625Y-62429375D01*
X163332239Y-62230000D01*
X163630625Y-62030625D01*
X163958839Y-61539418D01*
X164074092Y-60960000D01*
X163958839Y-60380582D01*
X163630625Y-59889375D01*
X163488075Y-59794126D01*
X165965000Y-59794126D01*
X165965000Y-60205874D01*
X166122569Y-60586280D01*
X166413720Y-60877431D01*
X166794126Y-61035000D01*
X167205874Y-61035000D01*
X167586280Y-60877431D01*
X167877431Y-60586280D01*
X168035000Y-60205874D01*
X168035000Y-59794126D01*
X167877431Y-59413720D01*
X167586280Y-59122569D01*
X167205874Y-58965000D01*
X166794126Y-58965000D01*
X166413720Y-59122569D01*
X166122569Y-59413720D01*
X165965000Y-59794126D01*
X163488075Y-59794126D01*
X163332239Y-59690000D01*
X163630625Y-59490625D01*
X163958839Y-58999418D01*
X164074092Y-58420000D01*
X163958839Y-57840582D01*
X163630625Y-57349375D01*
X163332239Y-57150000D01*
X163491343Y-57043690D01*
X175095000Y-57043690D01*
X175095000Y-57261250D01*
X175253750Y-57420000D01*
X175980000Y-57420000D01*
X175980000Y-56693750D01*
X175821250Y-56535000D01*
X175603691Y-56535000D01*
X175370302Y-56631673D01*
X175191673Y-56810301D01*
X175095000Y-57043690D01*
X163491343Y-57043690D01*
X163630625Y-56950625D01*
X163958839Y-56459418D01*
X164074092Y-55880000D01*
X163958839Y-55300582D01*
X163630625Y-54809375D01*
X163332239Y-54610000D01*
X163630625Y-54410625D01*
X163958839Y-53919418D01*
X164074092Y-53340000D01*
X163958839Y-52760582D01*
X163837594Y-52579126D01*
X176080000Y-52579126D01*
X176080000Y-52990874D01*
X176237569Y-53371280D01*
X176528720Y-53662431D01*
X176909126Y-53820000D01*
X177320874Y-53820000D01*
X177701280Y-53662431D01*
X177992431Y-53371280D01*
X178150000Y-52990874D01*
X178150000Y-52579126D01*
X177992431Y-52198720D01*
X177701280Y-51907569D01*
X177320874Y-51750000D01*
X176909126Y-51750000D01*
X176528720Y-51907569D01*
X176237569Y-52198720D01*
X176080000Y-52579126D01*
X163837594Y-52579126D01*
X163630625Y-52269375D01*
X163332239Y-52070000D01*
X163630625Y-51870625D01*
X163958839Y-51379418D01*
X164074092Y-50800000D01*
X163958839Y-50220582D01*
X163630625Y-49729375D01*
X163332239Y-49530000D01*
X163630625Y-49330625D01*
X163958839Y-48839418D01*
X164074092Y-48260000D01*
X163958839Y-47680582D01*
X163630625Y-47189375D01*
X163608967Y-47174904D01*
X163769698Y-47108327D01*
X163948327Y-46929699D01*
X164045000Y-46696310D01*
X164045000Y-46251750D01*
X163886250Y-46093000D01*
X162933000Y-46093000D01*
X162933000Y-46113000D01*
X162187000Y-46113000D01*
X162187000Y-46093000D01*
X162167000Y-46093000D01*
X162167000Y-45347000D01*
X162187000Y-45347000D01*
X162187000Y-44393750D01*
X162933000Y-44393750D01*
X162933000Y-45347000D01*
X163886250Y-45347000D01*
X164045000Y-45188250D01*
X164045000Y-44743690D01*
X163948327Y-44510301D01*
X163769698Y-44331673D01*
X163536309Y-44235000D01*
X163091750Y-44235000D01*
X162933000Y-44393750D01*
X162187000Y-44393750D01*
X162182583Y-44389333D01*
X162309455Y-44199455D01*
X162591870Y-44010752D01*
X162937509Y-43942000D01*
X168316518Y-43942000D01*
X168175382Y-44083136D01*
X168175382Y-44083136D01*
G37*
X168175382Y-44083136D02*
X168017813Y-44463542D01*
X168017813Y-44875290D01*
X168175382Y-45255696D01*
X168466533Y-45546847D01*
X168846939Y-45704416D01*
X169017813Y-45704416D01*
X169017813Y-45875290D01*
X169132974Y-46153315D01*
X169122569Y-46163720D01*
X168965000Y-46544126D01*
X168965000Y-46955874D01*
X169122569Y-47336280D01*
X169413720Y-47627431D01*
X169794126Y-47785000D01*
X170205874Y-47785000D01*
X170586280Y-47627431D01*
X170877431Y-47336280D01*
X171035000Y-46955874D01*
X171035000Y-46704416D01*
X171258687Y-46704416D01*
X171552813Y-46582585D01*
X171846939Y-46704416D01*
X172258687Y-46704416D01*
X172639093Y-46546847D01*
X172930244Y-46255696D01*
X173017813Y-46044285D01*
X173017813Y-46075290D01*
X173175382Y-46455696D01*
X173466533Y-46746847D01*
X173846939Y-46904416D01*
X174258687Y-46904416D01*
X174552813Y-46782585D01*
X174846939Y-46904416D01*
X175258687Y-46904416D01*
X175552813Y-46782585D01*
X175846939Y-46904416D01*
X176258687Y-46904416D01*
X176552813Y-46782585D01*
X176846939Y-46904416D01*
X177258687Y-46904416D01*
X177639093Y-46746847D01*
X177930244Y-46455696D01*
X178087813Y-46075290D01*
X178087813Y-45663542D01*
X177965982Y-45369416D01*
X178087813Y-45075290D01*
X178087813Y-44663542D01*
X177930244Y-44283136D01*
X177639093Y-43991985D01*
X177518418Y-43942000D01*
X182502491Y-43942000D01*
X182848130Y-44010752D01*
X183130545Y-44199455D01*
X183145983Y-44222560D01*
X182030000Y-44222560D01*
X181782235Y-44271843D01*
X181572191Y-44412191D01*
X181431843Y-44622235D01*
X181382560Y-44870000D01*
X181382560Y-46570000D01*
X181431843Y-46817765D01*
X181572191Y-47027809D01*
X181782235Y-47168157D01*
X181827619Y-47177184D01*
X181809375Y-47189375D01*
X181481161Y-47680582D01*
X181365908Y-48260000D01*
X181481161Y-48839418D01*
X181809375Y-49330625D01*
X182107761Y-49530000D01*
X181809375Y-49729375D01*
X181481161Y-50220582D01*
X181365908Y-50800000D01*
X181438791Y-51166407D01*
X179015528Y-53589671D01*
X178952072Y-53632071D01*
X178909672Y-53695527D01*
X178909671Y-53695528D01*
X178784097Y-53883463D01*
X178725112Y-54180000D01*
X178740001Y-54254852D01*
X178740000Y-62326046D01*
X178585625Y-62389991D01*
X178569146Y-62307145D01*
X178440759Y-62115000D01*
X178569146Y-61922855D01*
X178657235Y-61480000D01*
X178569146Y-61037145D01*
X178440759Y-60845000D01*
X178569146Y-60652855D01*
X178657235Y-60210000D01*
X178569146Y-59767145D01*
X178440759Y-59575000D01*
X178569146Y-59382855D01*
X178657235Y-58940000D01*
X178569146Y-58497145D01*
X178440759Y-58305000D01*
X178569146Y-58112855D01*
X178657235Y-57670000D01*
X178569146Y-57227145D01*
X178318289Y-56851711D01*
X177942855Y-56600854D01*
X177611783Y-56535000D01*
X177388217Y-56535000D01*
X177057145Y-56600854D01*
X177041129Y-56611555D01*
X176856309Y-56535000D01*
X176638750Y-56535000D01*
X176480000Y-56693750D01*
X176480000Y-57153593D01*
X176430854Y-57227145D01*
X176342765Y-57670000D01*
X176370765Y-57810765D01*
X176341783Y-57805000D01*
X176118217Y-57805000D01*
X175787145Y-57870854D01*
X175713593Y-57920000D01*
X175253750Y-57920000D01*
X175095000Y-58078750D01*
X175095000Y-58296310D01*
X175171555Y-58481130D01*
X175160854Y-58497145D01*
X175072765Y-58940000D01*
X175160854Y-59382855D01*
X175289241Y-59575000D01*
X175160854Y-59767145D01*
X175072765Y-60210000D01*
X175160854Y-60652855D01*
X175289241Y-60845000D01*
X175160854Y-61037145D01*
X175072765Y-61480000D01*
X175160854Y-61922855D01*
X175289241Y-62115000D01*
X175160854Y-62307145D01*
X175072765Y-62750000D01*
X175160854Y-63192855D01*
X175411711Y-63568289D01*
X175787145Y-63819146D01*
X176118217Y-63885000D01*
X176341783Y-63885000D01*
X176672855Y-63819146D01*
X176865000Y-63690759D01*
X177057145Y-63819146D01*
X177388217Y-63885000D01*
X177611783Y-63885000D01*
X177942855Y-63819146D01*
X178164011Y-63671374D01*
X178247579Y-63873126D01*
X178339453Y-63965000D01*
X178194126Y-63965000D01*
X177813720Y-64122569D01*
X177522569Y-64413720D01*
X177365000Y-64794126D01*
X177365000Y-65205874D01*
X177522569Y-65586280D01*
X177813720Y-65877431D01*
X178194126Y-66035000D01*
X178605874Y-66035000D01*
X178740000Y-65979443D01*
X178740000Y-67435198D01*
X178015528Y-68159671D01*
X177952072Y-68202071D01*
X177909672Y-68265527D01*
X177909671Y-68265528D01*
X177784097Y-68453463D01*
X177756992Y-68589727D01*
X177455874Y-68465000D01*
X177044126Y-68465000D01*
X176663720Y-68622569D01*
X176372569Y-68913720D01*
X176215000Y-69294126D01*
X176215000Y-69705874D01*
X176372569Y-70086280D01*
X176663720Y-70377431D01*
X177044126Y-70535000D01*
X177140198Y-70535000D01*
X176710199Y-70965000D01*
X176544126Y-70965000D01*
X176163720Y-71122569D01*
X175872569Y-71413720D01*
X175757150Y-71692366D01*
X175438710Y-71824268D01*
X175147559Y-72115419D01*
X174989990Y-72495825D01*
X174989990Y-72907573D01*
X175147559Y-73287979D01*
X175438710Y-73579130D01*
X175819116Y-73736699D01*
X176230864Y-73736699D01*
X176611270Y-73579130D01*
X176902421Y-73287979D01*
X177017840Y-73009333D01*
X177336280Y-72877431D01*
X177530494Y-72683217D01*
X177806786Y-72797660D01*
X178141997Y-72797660D01*
X178141997Y-74081583D01*
X178091457Y-74132123D01*
X178027998Y-74174525D01*
X177860023Y-74425918D01*
X177831614Y-74568741D01*
X177698496Y-74701859D01*
X177540927Y-75082265D01*
X177540927Y-75494013D01*
X177698496Y-75874419D01*
X177989647Y-76165570D01*
X178370053Y-76323139D01*
X178781801Y-76323139D01*
X178833270Y-76301820D01*
X178770945Y-76364145D01*
X178613376Y-76744551D01*
X178613376Y-77156299D01*
X178732151Y-77443047D01*
X177210199Y-78965000D01*
X177044126Y-78965000D01*
X176663720Y-79122569D01*
X176372569Y-79413720D01*
X176215000Y-79794126D01*
X176215000Y-80205874D01*
X176229814Y-80241639D01*
X175913720Y-80372569D01*
X175622569Y-80663720D01*
X175510000Y-80935486D01*
X175510000Y-78453711D01*
X175627431Y-78336280D01*
X175785000Y-77955874D01*
X175785000Y-77544126D01*
X175627431Y-77163720D01*
X175336280Y-76872569D01*
X174955874Y-76715000D01*
X174544126Y-76715000D01*
X174163720Y-76872569D01*
X173998337Y-77037952D01*
X173854310Y-76978294D01*
X173442562Y-76978294D01*
X173062156Y-77135863D01*
X172771005Y-77427014D01*
X172613436Y-77807420D01*
X172613436Y-78219168D01*
X172771005Y-78599574D01*
X173062156Y-78890725D01*
X173442562Y-79048294D01*
X173854310Y-79048294D01*
X173990000Y-78992089D01*
X173990000Y-84229136D01*
X173955874Y-84215000D01*
X173544126Y-84215000D01*
X173163720Y-84372569D01*
X172872569Y-84663720D01*
X172715000Y-85044126D01*
X172715000Y-85455874D01*
X172872569Y-85836280D01*
X172901317Y-85865028D01*
X172765000Y-86194126D01*
X172765000Y-86605874D01*
X172922569Y-86986280D01*
X173213720Y-87277431D01*
X173594126Y-87435000D01*
X173990001Y-87435000D01*
X173990001Y-91925148D01*
X173975112Y-92000000D01*
X173990001Y-92074852D01*
X174034097Y-92296537D01*
X174202072Y-92547929D01*
X174215000Y-92556567D01*
X174215000Y-92705874D01*
X174372569Y-93086280D01*
X174663720Y-93377431D01*
X175044126Y-93535000D01*
X175455874Y-93535000D01*
X175836280Y-93377431D01*
X176127431Y-93086280D01*
X176248444Y-92794126D01*
X176565000Y-92794126D01*
X176565000Y-93205874D01*
X176722569Y-93586280D01*
X177013720Y-93877431D01*
X177029394Y-93883923D01*
X176942191Y-93942191D01*
X176801843Y-94152235D01*
X176752560Y-94400000D01*
X176752560Y-96100000D01*
X176801843Y-96347765D01*
X176942191Y-96557809D01*
X177152235Y-96698157D01*
X177197619Y-96707184D01*
X177179375Y-96719375D01*
X176851161Y-97210582D01*
X176735908Y-97790000D01*
X176851161Y-98369418D01*
X177179375Y-98860625D01*
X177501969Y-99076176D01*
X177180915Y-99299289D01*
X176888655Y-99736735D01*
X176977282Y-99957000D01*
X177877000Y-99957000D01*
X177877000Y-99937000D01*
X178623000Y-99937000D01*
X178623000Y-99957000D01*
X179522718Y-99957000D01*
X179611345Y-99736735D01*
X179319085Y-99299289D01*
X178998031Y-99076176D01*
X179320625Y-98860625D01*
X179648839Y-98369418D01*
X179764092Y-97790000D01*
X179648839Y-97210582D01*
X179320625Y-96719375D01*
X179302381Y-96707184D01*
X179347765Y-96698157D01*
X179557809Y-96557809D01*
X179698157Y-96347765D01*
X179747440Y-96100000D01*
X179747440Y-94400000D01*
X179698157Y-94152235D01*
X179557809Y-93942191D01*
X179347765Y-93801843D01*
X179100000Y-93752560D01*
X178311151Y-93752560D01*
X178477431Y-93586280D01*
X178635000Y-93205874D01*
X178635000Y-92794126D01*
X178477431Y-92413720D01*
X178186280Y-92122569D01*
X177805874Y-91965000D01*
X177394126Y-91965000D01*
X177013720Y-92122569D01*
X176722569Y-92413720D01*
X176565000Y-92794126D01*
X176248444Y-92794126D01*
X176285000Y-92705874D01*
X176285000Y-92294126D01*
X176127431Y-91913720D01*
X175836280Y-91622569D01*
X175510000Y-91487420D01*
X175510000Y-85635000D01*
X175560198Y-85635000D01*
X176640000Y-86714803D01*
X176640001Y-88725148D01*
X176625112Y-88800000D01*
X176640001Y-88874852D01*
X176684097Y-89096537D01*
X176763252Y-89215000D01*
X176852072Y-89347929D01*
X176915528Y-89390329D01*
X177409670Y-89884472D01*
X177452071Y-89947929D01*
X177703463Y-90115904D01*
X177925148Y-90160000D01*
X177925152Y-90160000D01*
X177999999Y-90174888D01*
X178074846Y-90160000D01*
X181132880Y-90160000D01*
X181327341Y-90354461D01*
X181327341Y-90572494D01*
X181312453Y-90647341D01*
X181327341Y-90722188D01*
X181327341Y-90722193D01*
X181371437Y-90943878D01*
X181443223Y-91051312D01*
X181365908Y-91440000D01*
X181481161Y-92019418D01*
X181809375Y-92510625D01*
X182107761Y-92710000D01*
X181942374Y-92820508D01*
X181877431Y-92663720D01*
X181586280Y-92372569D01*
X181205874Y-92215000D01*
X180794126Y-92215000D01*
X180413720Y-92372569D01*
X180122569Y-92663720D01*
X179965000Y-93044126D01*
X179965000Y-93455874D01*
X180122569Y-93836280D01*
X180413720Y-94127431D01*
X180794126Y-94285000D01*
X181205874Y-94285000D01*
X181409776Y-94200541D01*
X181481161Y-94559418D01*
X181809375Y-95050625D01*
X182107761Y-95250000D01*
X181809375Y-95449375D01*
X181481161Y-95940582D01*
X181365908Y-96520000D01*
X181481161Y-97099418D01*
X181809375Y-97590625D01*
X182107761Y-97790000D01*
X181809375Y-97989375D01*
X181481161Y-98480582D01*
X181365908Y-99060000D01*
X181481161Y-99639418D01*
X181809375Y-100130625D01*
X182107761Y-100330000D01*
X181809375Y-100529375D01*
X181481161Y-101020582D01*
X181365908Y-101600000D01*
X181481161Y-102179418D01*
X181809375Y-102670625D01*
X182107761Y-102870000D01*
X181809375Y-103069375D01*
X181481161Y-103560582D01*
X181365908Y-104140000D01*
X181481161Y-104719418D01*
X181809375Y-105210625D01*
X182107761Y-105410000D01*
X181809375Y-105609375D01*
X181481161Y-106100582D01*
X181365908Y-106680000D01*
X181481161Y-107259418D01*
X181809375Y-107750625D01*
X182300582Y-108078839D01*
X182733744Y-108165000D01*
X183026256Y-108165000D01*
X183173921Y-108135628D01*
X183130545Y-108200545D01*
X182848130Y-108389248D01*
X182502491Y-108458000D01*
X178891769Y-108458000D01*
X179086280Y-108377431D01*
X179377431Y-108086280D01*
X179535000Y-107705874D01*
X179535000Y-107294126D01*
X179377431Y-106913720D01*
X179086280Y-106622569D01*
X178705874Y-106465000D01*
X178294126Y-106465000D01*
X177913720Y-106622569D01*
X177622569Y-106913720D01*
X177465000Y-107294126D01*
X177465000Y-107705874D01*
X177622569Y-108086280D01*
X177913720Y-108377431D01*
X178108231Y-108458000D01*
X162937509Y-108458000D01*
X162591870Y-108389248D01*
X162309455Y-108200545D01*
X162266079Y-108135628D01*
X162413744Y-108165000D01*
X162706256Y-108165000D01*
X163139418Y-108078839D01*
X163630625Y-107750625D01*
X163958839Y-107259418D01*
X164074092Y-106680000D01*
X163958839Y-106100582D01*
X163630625Y-105609375D01*
X163332239Y-105410000D01*
X163630625Y-105210625D01*
X163958839Y-104719418D01*
X164074092Y-104140000D01*
X163958839Y-103560582D01*
X163630625Y-103069375D01*
X163332239Y-102870000D01*
X163630625Y-102670625D01*
X163958839Y-102179418D01*
X164074092Y-101600000D01*
X163958839Y-101020582D01*
X163893814Y-100923265D01*
X165888655Y-100923265D01*
X166180915Y-101360711D01*
X166656730Y-101691374D01*
X166877000Y-101608671D01*
X166877000Y-100703000D01*
X167623000Y-100703000D01*
X167623000Y-101608671D01*
X167843270Y-101691374D01*
X168319085Y-101360711D01*
X168611345Y-100923265D01*
X176888655Y-100923265D01*
X177180915Y-101360711D01*
X177656730Y-101691374D01*
X177877000Y-101608671D01*
X177877000Y-100703000D01*
X178623000Y-100703000D01*
X178623000Y-101608671D01*
X178843270Y-101691374D01*
X179319085Y-101360711D01*
X179611345Y-100923265D01*
X179522718Y-100703000D01*
X178623000Y-100703000D01*
X177877000Y-100703000D01*
X176977282Y-100703000D01*
X176888655Y-100923265D01*
X168611345Y-100923265D01*
X168522718Y-100703000D01*
X167623000Y-100703000D01*
X166877000Y-100703000D01*
X165977282Y-100703000D01*
X165888655Y-100923265D01*
X163893814Y-100923265D01*
X163630625Y-100529375D01*
X163332239Y-100330000D01*
X163630625Y-100130625D01*
X163958839Y-99639418D01*
X164074092Y-99060000D01*
X163958839Y-98480582D01*
X163630625Y-97989375D01*
X163332239Y-97790000D01*
X165735908Y-97790000D01*
X165851161Y-98369418D01*
X166179375Y-98860625D01*
X166501969Y-99076176D01*
X166180915Y-99299289D01*
X165888655Y-99736735D01*
X165977282Y-99957000D01*
X166877000Y-99957000D01*
X166877000Y-99937000D01*
X167623000Y-99937000D01*
X167623000Y-99957000D01*
X168522718Y-99957000D01*
X168611345Y-99736735D01*
X168319085Y-99299289D01*
X167998031Y-99076176D01*
X168320625Y-98860625D01*
X168648839Y-98369418D01*
X168764092Y-97790000D01*
X168648839Y-97210582D01*
X168320625Y-96719375D01*
X168302381Y-96707184D01*
X168347765Y-96698157D01*
X168557809Y-96557809D01*
X168698157Y-96347765D01*
X168747440Y-96100000D01*
X168747440Y-94400000D01*
X168698157Y-94152235D01*
X168557809Y-93942191D01*
X168347765Y-93801843D01*
X168100000Y-93752560D01*
X166400000Y-93752560D01*
X166152235Y-93801843D01*
X165942191Y-93942191D01*
X165801843Y-94152235D01*
X165752560Y-94400000D01*
X165752560Y-96100000D01*
X165801843Y-96347765D01*
X165942191Y-96557809D01*
X166152235Y-96698157D01*
X166197619Y-96707184D01*
X166179375Y-96719375D01*
X165851161Y-97210582D01*
X165735908Y-97790000D01*
X163332239Y-97790000D01*
X163630625Y-97590625D01*
X163958839Y-97099418D01*
X164074092Y-96520000D01*
X163958839Y-95940582D01*
X163630625Y-95449375D01*
X163332239Y-95250000D01*
X163630625Y-95050625D01*
X163958839Y-94559418D01*
X164074092Y-93980000D01*
X164008156Y-93648516D01*
X164074785Y-93715145D01*
X164455191Y-93872714D01*
X164866939Y-93872714D01*
X165247345Y-93715145D01*
X165538496Y-93423994D01*
X165696065Y-93043588D01*
X165696065Y-92631840D01*
X165538496Y-92251434D01*
X165247345Y-91960283D01*
X164866939Y-91802714D01*
X164455191Y-91802714D01*
X164074785Y-91960283D01*
X163844440Y-92190628D01*
X163958839Y-92019418D01*
X164074092Y-91440000D01*
X163958839Y-90860582D01*
X163630625Y-90369375D01*
X163332239Y-90170000D01*
X163520622Y-90044126D01*
X164715000Y-90044126D01*
X164715000Y-90455874D01*
X164872569Y-90836280D01*
X165163720Y-91127431D01*
X165544126Y-91285000D01*
X165955874Y-91285000D01*
X166037485Y-91251196D01*
X166163720Y-91377431D01*
X166544126Y-91535000D01*
X166955874Y-91535000D01*
X167336280Y-91377431D01*
X167627431Y-91086280D01*
X167785000Y-90705874D01*
X167785000Y-90544126D01*
X168465000Y-90544126D01*
X168465000Y-90955874D01*
X168622569Y-91336280D01*
X168913720Y-91627431D01*
X169294126Y-91785000D01*
X169705874Y-91785000D01*
X170086280Y-91627431D01*
X170377431Y-91336280D01*
X170535000Y-90955874D01*
X170535000Y-90544126D01*
X170377431Y-90163720D01*
X170086280Y-89872569D01*
X169705874Y-89715000D01*
X169294126Y-89715000D01*
X168913720Y-89872569D01*
X168622569Y-90163720D01*
X168465000Y-90544126D01*
X167785000Y-90544126D01*
X167785000Y-90294126D01*
X167627431Y-89913720D01*
X167336280Y-89622569D01*
X166955874Y-89465000D01*
X166544126Y-89465000D01*
X166462515Y-89498804D01*
X166336280Y-89372569D01*
X165955874Y-89215000D01*
X165544126Y-89215000D01*
X165163720Y-89372569D01*
X164872569Y-89663720D01*
X164715000Y-90044126D01*
X163520622Y-90044126D01*
X163630625Y-89970625D01*
X163958839Y-89479418D01*
X164074092Y-88900000D01*
X163958839Y-88320582D01*
X163630625Y-87829375D01*
X163332239Y-87630000D01*
X163630625Y-87430625D01*
X163958839Y-86939418D01*
X164074092Y-86360000D01*
X163958839Y-85780582D01*
X163630625Y-85289375D01*
X163332239Y-85090000D01*
X163630625Y-84890625D01*
X163958839Y-84399418D01*
X164032300Y-84030102D01*
X164044126Y-84035000D01*
X164455874Y-84035000D01*
X164836280Y-83877431D01*
X165127431Y-83586280D01*
X165285000Y-83205874D01*
X165285000Y-82794126D01*
X165127431Y-82413720D01*
X164905393Y-82191682D01*
X166548298Y-82191682D01*
X166548298Y-82603430D01*
X166705867Y-82983836D01*
X166997018Y-83274987D01*
X167377424Y-83432556D01*
X167789172Y-83432556D01*
X168169578Y-83274987D01*
X168460729Y-82983836D01*
X168618298Y-82603430D01*
X168618298Y-82191682D01*
X168460729Y-81811276D01*
X168169578Y-81520125D01*
X167789172Y-81362556D01*
X167377424Y-81362556D01*
X166997018Y-81520125D01*
X166705867Y-81811276D01*
X166548298Y-82191682D01*
X164905393Y-82191682D01*
X164836280Y-82122569D01*
X164455874Y-81965000D01*
X164044126Y-81965000D01*
X163828656Y-82054250D01*
X163958839Y-81859418D01*
X164074092Y-81280000D01*
X163958839Y-80700582D01*
X163630625Y-80209375D01*
X163332239Y-80010000D01*
X163630625Y-79810625D01*
X163641649Y-79794126D01*
X168465000Y-79794126D01*
X168465000Y-80205874D01*
X168622569Y-80586280D01*
X168913720Y-80877431D01*
X169294126Y-81035000D01*
X169705874Y-81035000D01*
X169741687Y-81020166D01*
X169923963Y-81202442D01*
X170304369Y-81360011D01*
X170716117Y-81360011D01*
X171096523Y-81202442D01*
X171387674Y-80911291D01*
X171545243Y-80530885D01*
X171545243Y-80119137D01*
X171387674Y-79738731D01*
X171096523Y-79447580D01*
X170844996Y-79343395D01*
X171114448Y-79073943D01*
X171272017Y-78693537D01*
X171272017Y-78281789D01*
X171114448Y-77901383D01*
X170823297Y-77610232D01*
X170442891Y-77452663D01*
X170031143Y-77452663D01*
X169650737Y-77610232D01*
X169359586Y-77901383D01*
X169202017Y-78281789D01*
X169202017Y-78693537D01*
X169314460Y-78965000D01*
X169294126Y-78965000D01*
X168913720Y-79122569D01*
X168622569Y-79413720D01*
X168465000Y-79794126D01*
X163641649Y-79794126D01*
X163958839Y-79319418D01*
X164074092Y-78740000D01*
X163958839Y-78160582D01*
X163630625Y-77669375D01*
X163332239Y-77470000D01*
X163630625Y-77270625D01*
X163958839Y-76779418D01*
X164074092Y-76200000D01*
X163958839Y-75620582D01*
X163907753Y-75544126D01*
X164215000Y-75544126D01*
X164215000Y-75955874D01*
X164372569Y-76336280D01*
X164663720Y-76627431D01*
X164965000Y-76752225D01*
X164965000Y-76955874D01*
X165122569Y-77336280D01*
X165152031Y-77365742D01*
X164998214Y-77519559D01*
X164840645Y-77899965D01*
X164840645Y-78311713D01*
X164998214Y-78692119D01*
X165289365Y-78983270D01*
X165669771Y-79140839D01*
X166081519Y-79140839D01*
X166461925Y-78983270D01*
X166753076Y-78692119D01*
X166910645Y-78311713D01*
X166910645Y-77899965D01*
X166753076Y-77519559D01*
X166723614Y-77490097D01*
X166877431Y-77336280D01*
X167035000Y-76955874D01*
X167035000Y-76544126D01*
X166877431Y-76163720D01*
X166586280Y-75872569D01*
X166396902Y-75794126D01*
X166965000Y-75794126D01*
X166965000Y-76205874D01*
X167122569Y-76586280D01*
X167413720Y-76877431D01*
X167794126Y-77035000D01*
X168205874Y-77035000D01*
X168586280Y-76877431D01*
X168877431Y-76586280D01*
X169035000Y-76205874D01*
X169035000Y-76044126D01*
X170465000Y-76044126D01*
X170465000Y-76455874D01*
X170622569Y-76836280D01*
X170913720Y-77127431D01*
X171294126Y-77285000D01*
X171705874Y-77285000D01*
X172086280Y-77127431D01*
X172377431Y-76836280D01*
X172535000Y-76455874D01*
X172535000Y-76044126D01*
X172377431Y-75663720D01*
X172086280Y-75372569D01*
X171705874Y-75215000D01*
X171294126Y-75215000D01*
X170913720Y-75372569D01*
X170622569Y-75663720D01*
X170465000Y-76044126D01*
X169035000Y-76044126D01*
X169035000Y-75794126D01*
X168877431Y-75413720D01*
X168586280Y-75122569D01*
X168205874Y-74965000D01*
X167794126Y-74965000D01*
X167413720Y-75122569D01*
X167122569Y-75413720D01*
X166965000Y-75794126D01*
X166396902Y-75794126D01*
X166285000Y-75747775D01*
X166285000Y-75544126D01*
X166127431Y-75163720D01*
X165836280Y-74872569D01*
X165455874Y-74715000D01*
X165044126Y-74715000D01*
X164663720Y-74872569D01*
X164372569Y-75163720D01*
X164215000Y-75544126D01*
X163907753Y-75544126D01*
X163630625Y-75129375D01*
X163332239Y-74930000D01*
X163630625Y-74730625D01*
X163958839Y-74239418D01*
X164047412Y-73794126D01*
X167965000Y-73794126D01*
X167965000Y-74205874D01*
X168122569Y-74586280D01*
X168413720Y-74877431D01*
X168761219Y-75021370D01*
X168860534Y-75261137D01*
X169151685Y-75552288D01*
X169532091Y-75709857D01*
X169943839Y-75709857D01*
X170324245Y-75552288D01*
X170615396Y-75261137D01*
X170772965Y-74880731D01*
X170772965Y-74468983D01*
X170696757Y-74285000D01*
X170955874Y-74285000D01*
X171336280Y-74127431D01*
X171627431Y-73836280D01*
X171785000Y-73455874D01*
X171785000Y-73267618D01*
X171865903Y-73146538D01*
X171909999Y-72924853D01*
X171909999Y-72924849D01*
X171912494Y-72912307D01*
X172418894Y-72405907D01*
X172639409Y-72626422D01*
X173019815Y-72783991D01*
X173431563Y-72783991D01*
X173811969Y-72626422D01*
X174103120Y-72335271D01*
X174260689Y-71954865D01*
X174260689Y-71543117D01*
X174103120Y-71162711D01*
X173882605Y-70942196D01*
X173984473Y-70840329D01*
X174047929Y-70797929D01*
X174215904Y-70546537D01*
X174260000Y-70324852D01*
X174260000Y-70324848D01*
X174274888Y-70250001D01*
X174260000Y-70175154D01*
X174260000Y-66324848D01*
X174274888Y-66250000D01*
X174260000Y-66175152D01*
X174260000Y-66175148D01*
X174215904Y-65953463D01*
X174215904Y-65953462D01*
X174090329Y-65765527D01*
X174047929Y-65702071D01*
X173984473Y-65659671D01*
X172785000Y-64460199D01*
X172785000Y-64294126D01*
X172627431Y-63913720D01*
X172336280Y-63622569D01*
X171955874Y-63465000D01*
X171544126Y-63465000D01*
X171163720Y-63622569D01*
X170872569Y-63913720D01*
X170715000Y-64294126D01*
X170715000Y-64705874D01*
X170872569Y-65086280D01*
X171163720Y-65377431D01*
X171544126Y-65535000D01*
X171710199Y-65535000D01*
X172740001Y-66564803D01*
X172740001Y-66604380D01*
X172422632Y-66472922D01*
X172010884Y-66472922D01*
X171630478Y-66630491D01*
X171339327Y-66921642D01*
X171181758Y-67302048D01*
X171181758Y-67713796D01*
X171339327Y-68094202D01*
X171630478Y-68385353D01*
X172010884Y-68542922D01*
X172422632Y-68542922D01*
X172740000Y-68411464D01*
X172740000Y-69935198D01*
X170665528Y-72009671D01*
X170602070Y-72052072D01*
X170473718Y-72244164D01*
X170163720Y-72372569D01*
X169872569Y-72663720D01*
X169715000Y-73044126D01*
X169715000Y-73251289D01*
X169586280Y-73122569D01*
X169205874Y-72965000D01*
X168794126Y-72965000D01*
X168413720Y-73122569D01*
X168122569Y-73413720D01*
X167965000Y-73794126D01*
X164047412Y-73794126D01*
X164074092Y-73660000D01*
X163958839Y-73080582D01*
X163630625Y-72589375D01*
X163332239Y-72390000D01*
X163630625Y-72190625D01*
X163958839Y-71699418D01*
X164039456Y-71294126D01*
X167965000Y-71294126D01*
X167965000Y-71705874D01*
X168122569Y-72086280D01*
X168413720Y-72377431D01*
X168794126Y-72535000D01*
X169205874Y-72535000D01*
X169586280Y-72377431D01*
X169877431Y-72086280D01*
X170035000Y-71705874D01*
X170035000Y-71294126D01*
X169877431Y-70913720D01*
X169586280Y-70622569D01*
X169205874Y-70465000D01*
X168794126Y-70465000D01*
X168413720Y-70622569D01*
X168122569Y-70913720D01*
X167965000Y-71294126D01*
X164039456Y-71294126D01*
X164074092Y-71120000D01*
X163958839Y-70540582D01*
X163630625Y-70049375D01*
X163332239Y-69850000D01*
X163630625Y-69650625D01*
X163958839Y-69159418D01*
X164074092Y-68580000D01*
X163958839Y-68000582D01*
X163630625Y-67509375D01*
X163332239Y-67310000D01*
X163630625Y-67110625D01*
X163958839Y-66619418D01*
X164074092Y-66040000D01*
X163958839Y-65460582D01*
X163630625Y-64969375D01*
X163332239Y-64770000D01*
X163630625Y-64570625D01*
X163648331Y-64544126D01*
X168215000Y-64544126D01*
X168215000Y-64955874D01*
X168372569Y-65336280D01*
X168663720Y-65627431D01*
X169044126Y-65785000D01*
X169455874Y-65785000D01*
X169836280Y-65627431D01*
X170127431Y-65336280D01*
X170285000Y-64955874D01*
X170285000Y-64544126D01*
X170127431Y-64163720D01*
X169836280Y-63872569D01*
X169455874Y-63715000D01*
X169044126Y-63715000D01*
X168663720Y-63872569D01*
X168372569Y-64163720D01*
X168215000Y-64544126D01*
X163648331Y-64544126D01*
X163958839Y-64079418D01*
X164074092Y-63500000D01*
X163958839Y-62920582D01*
X163630625Y-62429375D01*
X163332239Y-62230000D01*
X163630625Y-62030625D01*
X163958839Y-61539418D01*
X164074092Y-60960000D01*
X163958839Y-60380582D01*
X163630625Y-59889375D01*
X163488075Y-59794126D01*
X165965000Y-59794126D01*
X165965000Y-60205874D01*
X166122569Y-60586280D01*
X166413720Y-60877431D01*
X166794126Y-61035000D01*
X167205874Y-61035000D01*
X167586280Y-60877431D01*
X167877431Y-60586280D01*
X168035000Y-60205874D01*
X168035000Y-59794126D01*
X167877431Y-59413720D01*
X167586280Y-59122569D01*
X167205874Y-58965000D01*
X166794126Y-58965000D01*
X166413720Y-59122569D01*
X166122569Y-59413720D01*
X165965000Y-59794126D01*
X163488075Y-59794126D01*
X163332239Y-59690000D01*
X163630625Y-59490625D01*
X163958839Y-58999418D01*
X164074092Y-58420000D01*
X163958839Y-57840582D01*
X163630625Y-57349375D01*
X163332239Y-57150000D01*
X163491343Y-57043690D01*
X175095000Y-57043690D01*
X175095000Y-57261250D01*
X175253750Y-57420000D01*
X175980000Y-57420000D01*
X175980000Y-56693750D01*
X175821250Y-56535000D01*
X175603691Y-56535000D01*
X175370302Y-56631673D01*
X175191673Y-56810301D01*
X175095000Y-57043690D01*
X163491343Y-57043690D01*
X163630625Y-56950625D01*
X163958839Y-56459418D01*
X164074092Y-55880000D01*
X163958839Y-55300582D01*
X163630625Y-54809375D01*
X163332239Y-54610000D01*
X163630625Y-54410625D01*
X163958839Y-53919418D01*
X164074092Y-53340000D01*
X163958839Y-52760582D01*
X163837594Y-52579126D01*
X176080000Y-52579126D01*
X176080000Y-52990874D01*
X176237569Y-53371280D01*
X176528720Y-53662431D01*
X176909126Y-53820000D01*
X177320874Y-53820000D01*
X177701280Y-53662431D01*
X177992431Y-53371280D01*
X178150000Y-52990874D01*
X178150000Y-52579126D01*
X177992431Y-52198720D01*
X177701280Y-51907569D01*
X177320874Y-51750000D01*
X176909126Y-51750000D01*
X176528720Y-51907569D01*
X176237569Y-52198720D01*
X176080000Y-52579126D01*
X163837594Y-52579126D01*
X163630625Y-52269375D01*
X163332239Y-52070000D01*
X163630625Y-51870625D01*
X163958839Y-51379418D01*
X164074092Y-50800000D01*
X163958839Y-50220582D01*
X163630625Y-49729375D01*
X163332239Y-49530000D01*
X163630625Y-49330625D01*
X163958839Y-48839418D01*
X164074092Y-48260000D01*
X163958839Y-47680582D01*
X163630625Y-47189375D01*
X163608967Y-47174904D01*
X163769698Y-47108327D01*
X163948327Y-46929699D01*
X164045000Y-46696310D01*
X164045000Y-46251750D01*
X163886250Y-46093000D01*
X162933000Y-46093000D01*
X162933000Y-46113000D01*
X162187000Y-46113000D01*
X162187000Y-46093000D01*
X162167000Y-46093000D01*
X162167000Y-45347000D01*
X162187000Y-45347000D01*
X162187000Y-44393750D01*
X162933000Y-44393750D01*
X162933000Y-45347000D01*
X163886250Y-45347000D01*
X164045000Y-45188250D01*
X164045000Y-44743690D01*
X163948327Y-44510301D01*
X163769698Y-44331673D01*
X163536309Y-44235000D01*
X163091750Y-44235000D01*
X162933000Y-44393750D01*
X162187000Y-44393750D01*
X162182583Y-44389333D01*
X162309455Y-44199455D01*
X162591870Y-44010752D01*
X162937509Y-43942000D01*
X168316518Y-43942000D01*
X168175382Y-44083136D01*
G04 #@! TD*
M02*
