G04 #@! TF.GenerationSoftware,KiCad,Pcbnew,5.0.2-bee76a0~70~ubuntu18.04.1*
G04 #@! TF.CreationDate,2019-01-02T21:11:22-05:00*
G04 #@! TF.ProjectId,stm32 prototype,73746d33-3220-4707-926f-746f74797065,rev?*
G04 #@! TF.SameCoordinates,Original*
G04 #@! TF.FileFunction,Copper,L2,Inr*
G04 #@! TF.FilePolarity,Positive*
%FSLAX46Y46*%
G04 Gerber Fmt 4.6, Leading zero omitted, Abs format (unit mm)*
G04 Created by KiCad (PCBNEW 5.0.2-bee76a0~70~ubuntu18.04.1) date Wed 02 Jan 2019 09:11:22 PM EST*
%MOMM*%
%LPD*%
G01*
G04 APERTURE LIST*
G04 #@! TA.AperFunction,ViaPad*
%ADD10O,1.700000X1.700000*%
G04 #@! TD*
G04 #@! TA.AperFunction,ViaPad*
%ADD11R,1.700000X1.700000*%
G04 #@! TD*
G04 #@! TA.AperFunction,ViaPad*
%ADD12O,1.000000X1.000000*%
G04 #@! TD*
G04 #@! TA.AperFunction,ViaPad*
%ADD13R,1.000000X1.000000*%
G04 #@! TD*
G04 #@! TA.AperFunction,ViaPad*
%ADD14C,0.800000*%
G04 #@! TD*
G04 #@! TA.AperFunction,Conductor*
%ADD15C,0.254000*%
G04 #@! TD*
G04 APERTURE END LIST*
D10*
G04 #@! TO.N,GND*
G04 #@! TO.C,J1*
X182880000Y-106680000D03*
G04 #@! TO.N,PB14*
X182880000Y-104140000D03*
G04 #@! TO.N,PB15*
X182880000Y-101600000D03*
G04 #@! TO.N,PC6*
X182880000Y-99060000D03*
G04 #@! TO.N,PC7*
X182880000Y-96520000D03*
G04 #@! TO.N,PC8*
X182880000Y-93980000D03*
G04 #@! TO.N,PC9*
X182880000Y-91440000D03*
G04 #@! TO.N,PA8_MCO*
X182880000Y-88900000D03*
G04 #@! TO.N,PA9_ST_RXD*
X182880000Y-86360000D03*
G04 #@! TO.N,PA10_ST_TXD*
X182880000Y-83820000D03*
G04 #@! TO.N,PA11_ST_RTS*
X182880000Y-81280000D03*
G04 #@! TO.N,PA12_CTS*
X182880000Y-78740000D03*
G04 #@! TO.N,PA15*
X182880000Y-76200000D03*
G04 #@! TO.N,PC10*
X182880000Y-73660000D03*
G04 #@! TO.N,PC11*
X182880000Y-71120000D03*
G04 #@! TO.N,PC12*
X182880000Y-68580000D03*
G04 #@! TO.N,PD2*
X182880000Y-66040000D03*
G04 #@! TO.N,PB4*
X182880000Y-63500000D03*
G04 #@! TO.N,PB5_I2C1_SMBA*
X182880000Y-60960000D03*
G04 #@! TO.N,PB6_I2C1_SCL*
X182880000Y-58420000D03*
G04 #@! TO.N,PB7_I2C1_SDA*
X182880000Y-55880000D03*
G04 #@! TO.N,PB8*
X182880000Y-53340000D03*
G04 #@! TO.N,PB9*
X182880000Y-50800000D03*
G04 #@! TO.N,PC13*
X182880000Y-48260000D03*
D11*
G04 #@! TO.N,+5V*
X182880000Y-45720000D03*
G04 #@! TD*
G04 #@! TO.N,+5V*
G04 #@! TO.C,J1*
X182880000Y-45720000D03*
D10*
G04 #@! TO.N,PC13*
X182880000Y-48260000D03*
G04 #@! TO.N,PB9*
X182880000Y-50800000D03*
G04 #@! TO.N,PB8*
X182880000Y-53340000D03*
G04 #@! TO.N,PB7_I2C1_SDA*
X182880000Y-55880000D03*
G04 #@! TO.N,PB6_I2C1_SCL*
X182880000Y-58420000D03*
G04 #@! TO.N,PB5_I2C1_SMBA*
X182880000Y-60960000D03*
G04 #@! TO.N,PB4*
X182880000Y-63500000D03*
G04 #@! TO.N,PD2*
X182880000Y-66040000D03*
G04 #@! TO.N,PC12*
X182880000Y-68580000D03*
G04 #@! TO.N,PC11*
X182880000Y-71120000D03*
G04 #@! TO.N,PC10*
X182880000Y-73660000D03*
G04 #@! TO.N,PA15*
X182880000Y-76200000D03*
G04 #@! TO.N,PA12_CTS*
X182880000Y-78740000D03*
G04 #@! TO.N,PA11_ST_RTS*
X182880000Y-81280000D03*
G04 #@! TO.N,PA10_ST_TXD*
X182880000Y-83820000D03*
G04 #@! TO.N,PA9_ST_RXD*
X182880000Y-86360000D03*
G04 #@! TO.N,PA8_MCO*
X182880000Y-88900000D03*
G04 #@! TO.N,PC9*
X182880000Y-91440000D03*
G04 #@! TO.N,PC8*
X182880000Y-93980000D03*
G04 #@! TO.N,PC7*
X182880000Y-96520000D03*
G04 #@! TO.N,PC6*
X182880000Y-99060000D03*
G04 #@! TO.N,PB15*
X182880000Y-101600000D03*
G04 #@! TO.N,PB14*
X182880000Y-104140000D03*
G04 #@! TO.N,GND*
X182880000Y-106680000D03*
G04 #@! TD*
G04 #@! TO.N,+3V3*
G04 #@! TO.C,J10*
X167250000Y-100330000D03*
G04 #@! TO.N,Net-(J10-Pad2)*
X167250000Y-97790000D03*
D11*
G04 #@! TO.N,GND*
X167250000Y-95250000D03*
G04 #@! TD*
D10*
G04 #@! TO.N,GND*
G04 #@! TO.C,J1*
X182880000Y-106680000D03*
G04 #@! TO.N,PB14*
X182880000Y-104140000D03*
G04 #@! TO.N,PB15*
X182880000Y-101600000D03*
G04 #@! TO.N,PC6*
X182880000Y-99060000D03*
G04 #@! TO.N,PC7*
X182880000Y-96520000D03*
G04 #@! TO.N,PC8*
X182880000Y-93980000D03*
G04 #@! TO.N,PC9*
X182880000Y-91440000D03*
G04 #@! TO.N,PA8_MCO*
X182880000Y-88900000D03*
G04 #@! TO.N,PA9_ST_RXD*
X182880000Y-86360000D03*
G04 #@! TO.N,PA10_ST_TXD*
X182880000Y-83820000D03*
G04 #@! TO.N,PA11_ST_RTS*
X182880000Y-81280000D03*
G04 #@! TO.N,PA12_CTS*
X182880000Y-78740000D03*
G04 #@! TO.N,PA15*
X182880000Y-76200000D03*
G04 #@! TO.N,PC10*
X182880000Y-73660000D03*
G04 #@! TO.N,PC11*
X182880000Y-71120000D03*
G04 #@! TO.N,PC12*
X182880000Y-68580000D03*
G04 #@! TO.N,PD2*
X182880000Y-66040000D03*
G04 #@! TO.N,PB4*
X182880000Y-63500000D03*
G04 #@! TO.N,PB5_I2C1_SMBA*
X182880000Y-60960000D03*
G04 #@! TO.N,PB6_I2C1_SCL*
X182880000Y-58420000D03*
G04 #@! TO.N,PB7_I2C1_SDA*
X182880000Y-55880000D03*
G04 #@! TO.N,PB8*
X182880000Y-53340000D03*
G04 #@! TO.N,PB9*
X182880000Y-50800000D03*
G04 #@! TO.N,PC13*
X182880000Y-48260000D03*
D11*
G04 #@! TO.N,+5V*
X182880000Y-45720000D03*
G04 #@! TD*
G04 #@! TO.N,+3V3*
G04 #@! TO.C,J8*
X162560000Y-45720000D03*
D10*
G04 #@! TO.N,GND*
X162560000Y-48260000D03*
G04 #@! TO.N,PC1*
X162560000Y-50800000D03*
G04 #@! TO.N,PC2*
X162560000Y-53340000D03*
G04 #@! TO.N,PC0*
X162560000Y-55880000D03*
G04 #@! TO.N,PC14*
X162560000Y-58420000D03*
G04 #@! TO.N,PC15*
X162560000Y-60960000D03*
G04 #@! TO.N,PC3*
X162560000Y-63500000D03*
G04 #@! TO.N,PA0*
X162560000Y-66040000D03*
G04 #@! TO.N,PA1*
X162560000Y-68580000D03*
G04 #@! TO.N,PA2*
X162560000Y-71120000D03*
G04 #@! TO.N,PA3*
X162560000Y-73660000D03*
G04 #@! TO.N,PB0*
X162560000Y-76200000D03*
G04 #@! TO.N,PC5*
X162560000Y-78740000D03*
G04 #@! TO.N,PC4*
X162560000Y-81280000D03*
G04 #@! TO.N,PA4_SPI1_NSS*
X162560000Y-83820000D03*
G04 #@! TO.N,PA5_SPI1_SCK*
X162560000Y-86360000D03*
G04 #@! TO.N,PA6_SPI1_MISO*
X162560000Y-88900000D03*
G04 #@! TO.N,PA7_SPI1_MOSI*
X162560000Y-91440000D03*
G04 #@! TO.N,PB1*
X162560000Y-93980000D03*
G04 #@! TO.N,PB10*
X162560000Y-96520000D03*
G04 #@! TO.N,PB11*
X162560000Y-99060000D03*
G04 #@! TO.N,PB13*
X162560000Y-101600000D03*
G04 #@! TO.N,PB12*
X162560000Y-104140000D03*
G04 #@! TO.N,GND*
X162560000Y-106680000D03*
G04 #@! TD*
G04 #@! TO.N,+3V3*
G04 #@! TO.C,J9*
X178250000Y-100330000D03*
G04 #@! TO.N,Net-(J9-Pad2)*
X178250000Y-97790000D03*
D11*
G04 #@! TO.N,GND*
X178250000Y-95250000D03*
G04 #@! TD*
D12*
G04 #@! TO.N,NRST*
G04 #@! TO.C,SWD*
X177500000Y-62750000D03*
G04 #@! TO.N,GND*
X176230000Y-62750000D03*
G04 #@! TO.N,N/C*
X177500000Y-61480000D03*
X176230000Y-61480000D03*
G04 #@! TO.N,SWO*
X177500000Y-60210000D03*
G04 #@! TO.N,GND*
X176230000Y-60210000D03*
G04 #@! TO.N,TCK_SWCLK*
X177500000Y-58940000D03*
G04 #@! TO.N,GND*
X176230000Y-58940000D03*
G04 #@! TO.N,TMS_SWDIO*
X177500000Y-57670000D03*
D13*
G04 #@! TO.N,+3V3*
X176230000Y-57670000D03*
G04 #@! TD*
D14*
G04 #@! TO.N,GND*
X177115000Y-52785000D03*
X170000000Y-46750000D03*
X170052813Y-45669416D03*
X171052813Y-45669416D03*
X172052813Y-45669416D03*
X169052813Y-44669416D03*
X170052813Y-44669416D03*
X171052813Y-44669416D03*
X172052813Y-44669416D03*
X169500000Y-90750000D03*
X181000000Y-93250000D03*
X177250000Y-69500000D03*
X169250000Y-64750000D03*
X176024990Y-72701699D03*
X177600000Y-93000000D03*
X178500000Y-107500000D03*
X164661065Y-92837714D03*
X169000000Y-71500000D03*
X167583298Y-82397556D03*
X173750000Y-85250000D03*
X166000000Y-76750000D03*
X173225689Y-71748991D03*
X176500000Y-81250000D03*
X176000000Y-82500000D03*
X172216758Y-67507922D03*
X169000000Y-74000000D03*
X168000000Y-76000000D03*
G04 #@! TO.N,+3V3*
X169500000Y-54500000D03*
X168500000Y-54500000D03*
X169602813Y-50500000D03*
X169602813Y-49500000D03*
X168500000Y-52500000D03*
X168500000Y-50500000D03*
X168500000Y-53469416D03*
X178500000Y-54000000D03*
X178500000Y-55000000D03*
X176813821Y-70765907D03*
X181362340Y-90387660D03*
X178474990Y-67736500D03*
X171500000Y-93000000D03*
X167250000Y-107250000D03*
X169250000Y-56500000D03*
X168725926Y-83524066D03*
X168250000Y-80000000D03*
X172459035Y-72750000D03*
X168500000Y-49500000D03*
X168500000Y-51500000D03*
G04 #@! TO.N,+5V*
X177052813Y-45869416D03*
X176052813Y-45869416D03*
X175052813Y-45869416D03*
X174052813Y-45869416D03*
X174052813Y-44869416D03*
X175052813Y-44869416D03*
X176052813Y-44869416D03*
X177052813Y-44869416D03*
G04 #@! TO.N,NRST*
X173648436Y-78013294D03*
G04 #@! TO.N,PB14*
X173800000Y-86400000D03*
G04 #@! TO.N,PB11*
X166750000Y-90500000D03*
G04 #@! TO.N,PB10*
X165750000Y-90250000D03*
G04 #@! TO.N,PC2*
X169500000Y-80000000D03*
G04 #@! TO.N,PB9*
X176750000Y-72000000D03*
G04 #@! TO.N,PB8*
X178012660Y-71762660D03*
G04 #@! TO.N,PB7_I2C1_SDA*
X178400000Y-65000000D03*
G04 #@! TO.N,PB6_I2C1_SCL*
X179125010Y-63286846D03*
G04 #@! TO.N,PB5_I2C1_SMBA*
X178575927Y-75288139D03*
G04 #@! TO.N,PB4*
X179627006Y-74589417D03*
G04 #@! TO.N,PA15*
X178000000Y-80750000D03*
G04 #@! TO.N,PA12_CTS*
X179265500Y-84495306D03*
G04 #@! TO.N,PA11_ST_RTS*
X179399869Y-85487783D03*
G04 #@! TO.N,PA10_ST_TXD*
X179659171Y-86648408D03*
G04 #@! TO.N,PA9_ST_RXD*
X178804707Y-87167940D03*
G04 #@! TO.N,PA8_MCO*
X178250000Y-88000000D03*
G04 #@! TO.N,PA3*
X164250000Y-83000000D03*
G04 #@! TO.N,PA0*
X165875645Y-78105839D03*
G04 #@! TO.N,PC13*
X167000000Y-60000000D03*
G04 #@! TO.N,PD2*
X179648376Y-76950425D03*
G04 #@! TO.N,PC3*
X165250000Y-75750000D03*
G04 #@! TO.N,PC9*
X175600000Y-84600000D03*
G04 #@! TO.N,PC10*
X180042585Y-78398964D03*
G04 #@! TO.N,PC11*
X177250000Y-80000000D03*
G04 #@! TO.N,PC12*
X180529978Y-76166807D03*
G04 #@! TO.N,PC14*
X171500000Y-76250000D03*
G04 #@! TO.N,PC1*
X170510243Y-80325011D03*
G04 #@! TO.N,PC0*
X170237017Y-78487663D03*
G04 #@! TO.N,PC13*
X170750000Y-73250000D03*
X171750000Y-64500000D03*
G04 #@! TO.N,Net-(R6-Pad1)*
X174750000Y-77750000D03*
X175250000Y-92500000D03*
G04 #@! TO.N,PC15*
X169737965Y-74674857D03*
G04 #@! TD*
D15*
G04 #@! TO.N,GND*
G36*
X173466533Y-43991985D02*
X173175382Y-44283136D01*
X173017813Y-44663542D01*
X173017813Y-45075290D01*
X173139644Y-45369416D01*
X173017813Y-45663542D01*
X173017813Y-46075290D01*
X173175382Y-46455696D01*
X173466533Y-46746847D01*
X173846939Y-46904416D01*
X174258687Y-46904416D01*
X174552813Y-46782585D01*
X174846939Y-46904416D01*
X175258687Y-46904416D01*
X175552813Y-46782585D01*
X175846939Y-46904416D01*
X176258687Y-46904416D01*
X176552813Y-46782585D01*
X176846939Y-46904416D01*
X177258687Y-46904416D01*
X177639093Y-46746847D01*
X177930244Y-46455696D01*
X178087813Y-46075290D01*
X178087813Y-45663542D01*
X177965982Y-45369416D01*
X178087813Y-45075290D01*
X178087813Y-44663542D01*
X177930244Y-44283136D01*
X177639093Y-43991985D01*
X177518418Y-43942000D01*
X182502491Y-43942000D01*
X182848130Y-44010752D01*
X183130545Y-44199455D01*
X183145983Y-44222560D01*
X182030000Y-44222560D01*
X181782235Y-44271843D01*
X181572191Y-44412191D01*
X181431843Y-44622235D01*
X181382560Y-44870000D01*
X181382560Y-46570000D01*
X181431843Y-46817765D01*
X181572191Y-47027809D01*
X181782235Y-47168157D01*
X181827619Y-47177184D01*
X181809375Y-47189375D01*
X181481161Y-47680582D01*
X181365908Y-48260000D01*
X181481161Y-48839418D01*
X181809375Y-49330625D01*
X182107761Y-49530000D01*
X181809375Y-49729375D01*
X181481161Y-50220582D01*
X181365908Y-50800000D01*
X181481161Y-51379418D01*
X181809375Y-51870625D01*
X182107761Y-52070000D01*
X181809375Y-52269375D01*
X181481161Y-52760582D01*
X181365908Y-53340000D01*
X181481161Y-53919418D01*
X181809375Y-54410625D01*
X182107761Y-54610000D01*
X181809375Y-54809375D01*
X181481161Y-55300582D01*
X181365908Y-55880000D01*
X181481161Y-56459418D01*
X181809375Y-56950625D01*
X182107761Y-57150000D01*
X181809375Y-57349375D01*
X181481161Y-57840582D01*
X181365908Y-58420000D01*
X181481161Y-58999418D01*
X181809375Y-59490625D01*
X182107761Y-59690000D01*
X181809375Y-59889375D01*
X181481161Y-60380582D01*
X181365908Y-60960000D01*
X181481161Y-61539418D01*
X181809375Y-62030625D01*
X182107761Y-62230000D01*
X181809375Y-62429375D01*
X181481161Y-62920582D01*
X181365908Y-63500000D01*
X181481161Y-64079418D01*
X181809375Y-64570625D01*
X182107761Y-64770000D01*
X181809375Y-64969375D01*
X181481161Y-65460582D01*
X181365908Y-66040000D01*
X181481161Y-66619418D01*
X181809375Y-67110625D01*
X182107761Y-67310000D01*
X181809375Y-67509375D01*
X181481161Y-68000582D01*
X181365908Y-68580000D01*
X181481161Y-69159418D01*
X181809375Y-69650625D01*
X182107761Y-69850000D01*
X181809375Y-70049375D01*
X181481161Y-70540582D01*
X181365908Y-71120000D01*
X181481161Y-71699418D01*
X181809375Y-72190625D01*
X182107761Y-72390000D01*
X181809375Y-72589375D01*
X181481161Y-73080582D01*
X181365908Y-73660000D01*
X181481161Y-74239418D01*
X181809375Y-74730625D01*
X182107761Y-74930000D01*
X181809375Y-75129375D01*
X181481161Y-75620582D01*
X181462617Y-75713811D01*
X181407409Y-75580527D01*
X181116258Y-75289376D01*
X180735852Y-75131807D01*
X180522617Y-75131807D01*
X180662006Y-74795291D01*
X180662006Y-74383543D01*
X180504437Y-74003137D01*
X180213286Y-73711986D01*
X179832880Y-73554417D01*
X179421132Y-73554417D01*
X179040726Y-73711986D01*
X178749575Y-74003137D01*
X178646021Y-74253139D01*
X178370053Y-74253139D01*
X177989647Y-74410708D01*
X177698496Y-74701859D01*
X177540927Y-75082265D01*
X177540927Y-75494013D01*
X177698496Y-75874419D01*
X177989647Y-76165570D01*
X178370053Y-76323139D01*
X178781801Y-76323139D01*
X178833270Y-76301820D01*
X178770945Y-76364145D01*
X178613376Y-76744551D01*
X178613376Y-77156299D01*
X178770945Y-77536705D01*
X179062096Y-77827856D01*
X179144697Y-77862071D01*
X179007585Y-78193090D01*
X179007585Y-78604838D01*
X179165154Y-78985244D01*
X179456305Y-79276395D01*
X179836711Y-79433964D01*
X180248459Y-79433964D01*
X180628865Y-79276395D01*
X180920016Y-78985244D01*
X181077585Y-78604838D01*
X181077585Y-78193090D01*
X180920016Y-77812684D01*
X180628865Y-77521533D01*
X180546264Y-77487318D01*
X180664526Y-77201807D01*
X180735852Y-77201807D01*
X181116258Y-77044238D01*
X181407409Y-76753087D01*
X181453696Y-76641341D01*
X181481161Y-76779418D01*
X181809375Y-77270625D01*
X182107761Y-77470000D01*
X181809375Y-77669375D01*
X181481161Y-78160582D01*
X181365908Y-78740000D01*
X181481161Y-79319418D01*
X181809375Y-79810625D01*
X182107761Y-80010000D01*
X181809375Y-80209375D01*
X181481161Y-80700582D01*
X181365908Y-81280000D01*
X181481161Y-81859418D01*
X181809375Y-82350625D01*
X182107761Y-82550000D01*
X181809375Y-82749375D01*
X181481161Y-83240582D01*
X181365908Y-83820000D01*
X181481161Y-84399418D01*
X181809375Y-84890625D01*
X182107761Y-85090000D01*
X181809375Y-85289375D01*
X181481161Y-85780582D01*
X181365908Y-86360000D01*
X181481161Y-86939418D01*
X181809375Y-87430625D01*
X182107761Y-87630000D01*
X181809375Y-87829375D01*
X181481161Y-88320582D01*
X181365908Y-88900000D01*
X181455947Y-89352660D01*
X181156466Y-89352660D01*
X180776060Y-89510229D01*
X180484909Y-89801380D01*
X180327340Y-90181786D01*
X180327340Y-90593534D01*
X180484909Y-90973940D01*
X180776060Y-91265091D01*
X181156466Y-91422660D01*
X181369357Y-91422660D01*
X181365908Y-91440000D01*
X181481161Y-92019418D01*
X181809375Y-92510625D01*
X182107761Y-92710000D01*
X181809375Y-92909375D01*
X181481161Y-93400582D01*
X181365908Y-93980000D01*
X181481161Y-94559418D01*
X181809375Y-95050625D01*
X182107761Y-95250000D01*
X181809375Y-95449375D01*
X181481161Y-95940582D01*
X181365908Y-96520000D01*
X181481161Y-97099418D01*
X181809375Y-97590625D01*
X182107761Y-97790000D01*
X181809375Y-97989375D01*
X181481161Y-98480582D01*
X181365908Y-99060000D01*
X181481161Y-99639418D01*
X181809375Y-100130625D01*
X182107761Y-100330000D01*
X181809375Y-100529375D01*
X181481161Y-101020582D01*
X181365908Y-101600000D01*
X181481161Y-102179418D01*
X181809375Y-102670625D01*
X182107761Y-102870000D01*
X181809375Y-103069375D01*
X181481161Y-103560582D01*
X181365908Y-104140000D01*
X181481161Y-104719418D01*
X181809375Y-105210625D01*
X182131969Y-105426176D01*
X181810915Y-105649289D01*
X181518655Y-106086735D01*
X181607282Y-106307000D01*
X182507000Y-106307000D01*
X182507000Y-106287000D01*
X183253000Y-106287000D01*
X183253000Y-106307000D01*
X183273000Y-106307000D01*
X183273000Y-107053000D01*
X183253000Y-107053000D01*
X183253000Y-107958671D01*
X183284306Y-107970425D01*
X183130545Y-108200545D01*
X182848130Y-108389248D01*
X182502491Y-108458000D01*
X162937509Y-108458000D01*
X162591870Y-108389248D01*
X162309455Y-108200545D01*
X162155694Y-107970425D01*
X162187000Y-107958671D01*
X162187000Y-107053000D01*
X162933000Y-107053000D01*
X162933000Y-107958671D01*
X163153270Y-108041374D01*
X163629085Y-107710711D01*
X163921345Y-107273265D01*
X163832718Y-107053000D01*
X162933000Y-107053000D01*
X162187000Y-107053000D01*
X162167000Y-107053000D01*
X162167000Y-107044126D01*
X166215000Y-107044126D01*
X166215000Y-107455874D01*
X166372569Y-107836280D01*
X166663720Y-108127431D01*
X167044126Y-108285000D01*
X167455874Y-108285000D01*
X167836280Y-108127431D01*
X168127431Y-107836280D01*
X168285000Y-107455874D01*
X168285000Y-107273265D01*
X181518655Y-107273265D01*
X181810915Y-107710711D01*
X182286730Y-108041374D01*
X182507000Y-107958671D01*
X182507000Y-107053000D01*
X181607282Y-107053000D01*
X181518655Y-107273265D01*
X168285000Y-107273265D01*
X168285000Y-107044126D01*
X168127431Y-106663720D01*
X167836280Y-106372569D01*
X167455874Y-106215000D01*
X167044126Y-106215000D01*
X166663720Y-106372569D01*
X166372569Y-106663720D01*
X166215000Y-107044126D01*
X162167000Y-107044126D01*
X162167000Y-106307000D01*
X162187000Y-106307000D01*
X162187000Y-106287000D01*
X162933000Y-106287000D01*
X162933000Y-106307000D01*
X163832718Y-106307000D01*
X163921345Y-106086735D01*
X163629085Y-105649289D01*
X163308031Y-105426176D01*
X163630625Y-105210625D01*
X163958839Y-104719418D01*
X164074092Y-104140000D01*
X163958839Y-103560582D01*
X163630625Y-103069375D01*
X163332239Y-102870000D01*
X163630625Y-102670625D01*
X163958839Y-102179418D01*
X164074092Y-101600000D01*
X163958839Y-101020582D01*
X163630625Y-100529375D01*
X163332239Y-100330000D01*
X163630625Y-100130625D01*
X163958839Y-99639418D01*
X164074092Y-99060000D01*
X163958839Y-98480582D01*
X163630625Y-97989375D01*
X163332239Y-97790000D01*
X165735908Y-97790000D01*
X165851161Y-98369418D01*
X166179375Y-98860625D01*
X166477761Y-99060000D01*
X166179375Y-99259375D01*
X165851161Y-99750582D01*
X165735908Y-100330000D01*
X165851161Y-100909418D01*
X166179375Y-101400625D01*
X166670582Y-101728839D01*
X167103744Y-101815000D01*
X167396256Y-101815000D01*
X167829418Y-101728839D01*
X168320625Y-101400625D01*
X168648839Y-100909418D01*
X168764092Y-100330000D01*
X168648839Y-99750582D01*
X168320625Y-99259375D01*
X168022239Y-99060000D01*
X168320625Y-98860625D01*
X168648839Y-98369418D01*
X168764092Y-97790000D01*
X176735908Y-97790000D01*
X176851161Y-98369418D01*
X177179375Y-98860625D01*
X177477761Y-99060000D01*
X177179375Y-99259375D01*
X176851161Y-99750582D01*
X176735908Y-100330000D01*
X176851161Y-100909418D01*
X177179375Y-101400625D01*
X177670582Y-101728839D01*
X178103744Y-101815000D01*
X178396256Y-101815000D01*
X178829418Y-101728839D01*
X179320625Y-101400625D01*
X179648839Y-100909418D01*
X179764092Y-100330000D01*
X179648839Y-99750582D01*
X179320625Y-99259375D01*
X179022239Y-99060000D01*
X179320625Y-98860625D01*
X179648839Y-98369418D01*
X179764092Y-97790000D01*
X179648839Y-97210582D01*
X179320625Y-96719375D01*
X179298967Y-96704904D01*
X179459698Y-96638327D01*
X179638327Y-96459699D01*
X179735000Y-96226310D01*
X179735000Y-95781750D01*
X179576250Y-95623000D01*
X178623000Y-95623000D01*
X178623000Y-95643000D01*
X177877000Y-95643000D01*
X177877000Y-95623000D01*
X176923750Y-95623000D01*
X176765000Y-95781750D01*
X176765000Y-96226310D01*
X176861673Y-96459699D01*
X177040302Y-96638327D01*
X177201033Y-96704904D01*
X177179375Y-96719375D01*
X176851161Y-97210582D01*
X176735908Y-97790000D01*
X168764092Y-97790000D01*
X168648839Y-97210582D01*
X168320625Y-96719375D01*
X168298967Y-96704904D01*
X168459698Y-96638327D01*
X168638327Y-96459699D01*
X168735000Y-96226310D01*
X168735000Y-95781750D01*
X168576250Y-95623000D01*
X167623000Y-95623000D01*
X167623000Y-95643000D01*
X166877000Y-95643000D01*
X166877000Y-95623000D01*
X165923750Y-95623000D01*
X165765000Y-95781750D01*
X165765000Y-96226310D01*
X165861673Y-96459699D01*
X166040302Y-96638327D01*
X166201033Y-96704904D01*
X166179375Y-96719375D01*
X165851161Y-97210582D01*
X165735908Y-97790000D01*
X163332239Y-97790000D01*
X163630625Y-97590625D01*
X163958839Y-97099418D01*
X164074092Y-96520000D01*
X163958839Y-95940582D01*
X163630625Y-95449375D01*
X163332239Y-95250000D01*
X163630625Y-95050625D01*
X163958839Y-94559418D01*
X164015673Y-94273690D01*
X165765000Y-94273690D01*
X165765000Y-94718250D01*
X165923750Y-94877000D01*
X166877000Y-94877000D01*
X166877000Y-93923750D01*
X167623000Y-93923750D01*
X167623000Y-94877000D01*
X168576250Y-94877000D01*
X168735000Y-94718250D01*
X168735000Y-94273690D01*
X176765000Y-94273690D01*
X176765000Y-94718250D01*
X176923750Y-94877000D01*
X177877000Y-94877000D01*
X177877000Y-93923750D01*
X178623000Y-93923750D01*
X178623000Y-94877000D01*
X179576250Y-94877000D01*
X179735000Y-94718250D01*
X179735000Y-94273690D01*
X179638327Y-94040301D01*
X179459698Y-93861673D01*
X179226309Y-93765000D01*
X178781750Y-93765000D01*
X178623000Y-93923750D01*
X177877000Y-93923750D01*
X177718250Y-93765000D01*
X177273691Y-93765000D01*
X177040302Y-93861673D01*
X176861673Y-94040301D01*
X176765000Y-94273690D01*
X168735000Y-94273690D01*
X168638327Y-94040301D01*
X168459698Y-93861673D01*
X168226309Y-93765000D01*
X167781750Y-93765000D01*
X167623000Y-93923750D01*
X166877000Y-93923750D01*
X166718250Y-93765000D01*
X166273691Y-93765000D01*
X166040302Y-93861673D01*
X165861673Y-94040301D01*
X165765000Y-94273690D01*
X164015673Y-94273690D01*
X164074092Y-93980000D01*
X163958839Y-93400582D01*
X163630625Y-92909375D01*
X163458143Y-92794126D01*
X170465000Y-92794126D01*
X170465000Y-93205874D01*
X170622569Y-93586280D01*
X170913720Y-93877431D01*
X171294126Y-94035000D01*
X171705874Y-94035000D01*
X172086280Y-93877431D01*
X172377431Y-93586280D01*
X172535000Y-93205874D01*
X172535000Y-92794126D01*
X172377431Y-92413720D01*
X172257837Y-92294126D01*
X174215000Y-92294126D01*
X174215000Y-92705874D01*
X174372569Y-93086280D01*
X174663720Y-93377431D01*
X175044126Y-93535000D01*
X175455874Y-93535000D01*
X175836280Y-93377431D01*
X176127431Y-93086280D01*
X176285000Y-92705874D01*
X176285000Y-92294126D01*
X176127431Y-91913720D01*
X175836280Y-91622569D01*
X175455874Y-91465000D01*
X175044126Y-91465000D01*
X174663720Y-91622569D01*
X174372569Y-91913720D01*
X174215000Y-92294126D01*
X172257837Y-92294126D01*
X172086280Y-92122569D01*
X171705874Y-91965000D01*
X171294126Y-91965000D01*
X170913720Y-92122569D01*
X170622569Y-92413720D01*
X170465000Y-92794126D01*
X163458143Y-92794126D01*
X163332239Y-92710000D01*
X163630625Y-92510625D01*
X163958839Y-92019418D01*
X164074092Y-91440000D01*
X163958839Y-90860582D01*
X163630625Y-90369375D01*
X163332239Y-90170000D01*
X163520622Y-90044126D01*
X164715000Y-90044126D01*
X164715000Y-90455874D01*
X164872569Y-90836280D01*
X165163720Y-91127431D01*
X165544126Y-91285000D01*
X165955874Y-91285000D01*
X166037485Y-91251196D01*
X166163720Y-91377431D01*
X166544126Y-91535000D01*
X166955874Y-91535000D01*
X167336280Y-91377431D01*
X167627431Y-91086280D01*
X167785000Y-90705874D01*
X167785000Y-90294126D01*
X167627431Y-89913720D01*
X167336280Y-89622569D01*
X166955874Y-89465000D01*
X166544126Y-89465000D01*
X166462515Y-89498804D01*
X166336280Y-89372569D01*
X165955874Y-89215000D01*
X165544126Y-89215000D01*
X165163720Y-89372569D01*
X164872569Y-89663720D01*
X164715000Y-90044126D01*
X163520622Y-90044126D01*
X163630625Y-89970625D01*
X163958839Y-89479418D01*
X164074092Y-88900000D01*
X163958839Y-88320582D01*
X163630625Y-87829375D01*
X163577872Y-87794126D01*
X177215000Y-87794126D01*
X177215000Y-88205874D01*
X177372569Y-88586280D01*
X177663720Y-88877431D01*
X178044126Y-89035000D01*
X178455874Y-89035000D01*
X178836280Y-88877431D01*
X179127431Y-88586280D01*
X179285000Y-88205874D01*
X179285000Y-88089272D01*
X179390987Y-88045371D01*
X179682138Y-87754220D01*
X179711469Y-87683408D01*
X179865045Y-87683408D01*
X180245451Y-87525839D01*
X180536602Y-87234688D01*
X180694171Y-86854282D01*
X180694171Y-86442534D01*
X180536602Y-86062128D01*
X180356743Y-85882269D01*
X180434869Y-85693657D01*
X180434869Y-85281909D01*
X180277300Y-84901503D01*
X180235032Y-84859235D01*
X180300500Y-84701180D01*
X180300500Y-84289432D01*
X180142931Y-83909026D01*
X179851780Y-83617875D01*
X179471374Y-83460306D01*
X179059626Y-83460306D01*
X178679220Y-83617875D01*
X178388069Y-83909026D01*
X178230500Y-84289432D01*
X178230500Y-84701180D01*
X178388069Y-85081586D01*
X178430337Y-85123854D01*
X178364869Y-85281909D01*
X178364869Y-85693657D01*
X178522438Y-86074063D01*
X178586446Y-86138071D01*
X178218427Y-86290509D01*
X177927276Y-86581660D01*
X177769707Y-86962066D01*
X177769707Y-87078668D01*
X177663720Y-87122569D01*
X177372569Y-87413720D01*
X177215000Y-87794126D01*
X163577872Y-87794126D01*
X163332239Y-87630000D01*
X163630625Y-87430625D01*
X163958839Y-86939418D01*
X164074092Y-86360000D01*
X164041098Y-86194126D01*
X172765000Y-86194126D01*
X172765000Y-86605874D01*
X172922569Y-86986280D01*
X173213720Y-87277431D01*
X173594126Y-87435000D01*
X174005874Y-87435000D01*
X174386280Y-87277431D01*
X174677431Y-86986280D01*
X174835000Y-86605874D01*
X174835000Y-86194126D01*
X174677431Y-85813720D01*
X174386280Y-85522569D01*
X174005874Y-85365000D01*
X173594126Y-85365000D01*
X173213720Y-85522569D01*
X172922569Y-85813720D01*
X172765000Y-86194126D01*
X164041098Y-86194126D01*
X163958839Y-85780582D01*
X163630625Y-85289375D01*
X163332239Y-85090000D01*
X163630625Y-84890625D01*
X163958839Y-84399418D01*
X164032300Y-84030102D01*
X164044126Y-84035000D01*
X164455874Y-84035000D01*
X164836280Y-83877431D01*
X165127431Y-83586280D01*
X165238476Y-83318192D01*
X167690926Y-83318192D01*
X167690926Y-83729940D01*
X167848495Y-84110346D01*
X168139646Y-84401497D01*
X168520052Y-84559066D01*
X168931800Y-84559066D01*
X169312206Y-84401497D01*
X169319577Y-84394126D01*
X174565000Y-84394126D01*
X174565000Y-84805874D01*
X174722569Y-85186280D01*
X175013720Y-85477431D01*
X175394126Y-85635000D01*
X175805874Y-85635000D01*
X176186280Y-85477431D01*
X176477431Y-85186280D01*
X176635000Y-84805874D01*
X176635000Y-84394126D01*
X176477431Y-84013720D01*
X176186280Y-83722569D01*
X175805874Y-83565000D01*
X175394126Y-83565000D01*
X175013720Y-83722569D01*
X174722569Y-84013720D01*
X174565000Y-84394126D01*
X169319577Y-84394126D01*
X169603357Y-84110346D01*
X169760926Y-83729940D01*
X169760926Y-83318192D01*
X169603357Y-82937786D01*
X169312206Y-82646635D01*
X168931800Y-82489066D01*
X168520052Y-82489066D01*
X168139646Y-82646635D01*
X167848495Y-82937786D01*
X167690926Y-83318192D01*
X165238476Y-83318192D01*
X165285000Y-83205874D01*
X165285000Y-82794126D01*
X165127431Y-82413720D01*
X164836280Y-82122569D01*
X164455874Y-81965000D01*
X164044126Y-81965000D01*
X163828656Y-82054250D01*
X163958839Y-81859418D01*
X164074092Y-81280000D01*
X163958839Y-80700582D01*
X163630625Y-80209375D01*
X163332239Y-80010000D01*
X163630625Y-79810625D01*
X163641649Y-79794126D01*
X167215000Y-79794126D01*
X167215000Y-80205874D01*
X167372569Y-80586280D01*
X167663720Y-80877431D01*
X168044126Y-81035000D01*
X168455874Y-81035000D01*
X168836280Y-80877431D01*
X168875000Y-80838711D01*
X168913720Y-80877431D01*
X169294126Y-81035000D01*
X169705874Y-81035000D01*
X169741687Y-81020166D01*
X169923963Y-81202442D01*
X170304369Y-81360011D01*
X170716117Y-81360011D01*
X171096523Y-81202442D01*
X171387674Y-80911291D01*
X171545243Y-80530885D01*
X171545243Y-80119137D01*
X171410620Y-79794126D01*
X176215000Y-79794126D01*
X176215000Y-80205874D01*
X176372569Y-80586280D01*
X176663720Y-80877431D01*
X176988175Y-81011825D01*
X177122569Y-81336280D01*
X177413720Y-81627431D01*
X177794126Y-81785000D01*
X178205874Y-81785000D01*
X178586280Y-81627431D01*
X178877431Y-81336280D01*
X179035000Y-80955874D01*
X179035000Y-80544126D01*
X178877431Y-80163720D01*
X178586280Y-79872569D01*
X178261825Y-79738175D01*
X178127431Y-79413720D01*
X177836280Y-79122569D01*
X177455874Y-78965000D01*
X177044126Y-78965000D01*
X176663720Y-79122569D01*
X176372569Y-79413720D01*
X176215000Y-79794126D01*
X171410620Y-79794126D01*
X171387674Y-79738731D01*
X171096523Y-79447580D01*
X170844996Y-79343395D01*
X171114448Y-79073943D01*
X171272017Y-78693537D01*
X171272017Y-78281789D01*
X171114448Y-77901383D01*
X171020485Y-77807420D01*
X172613436Y-77807420D01*
X172613436Y-78219168D01*
X172771005Y-78599574D01*
X173062156Y-78890725D01*
X173442562Y-79048294D01*
X173854310Y-79048294D01*
X174234716Y-78890725D01*
X174400099Y-78725342D01*
X174544126Y-78785000D01*
X174955874Y-78785000D01*
X175336280Y-78627431D01*
X175627431Y-78336280D01*
X175785000Y-77955874D01*
X175785000Y-77544126D01*
X175627431Y-77163720D01*
X175336280Y-76872569D01*
X174955874Y-76715000D01*
X174544126Y-76715000D01*
X174163720Y-76872569D01*
X173998337Y-77037952D01*
X173854310Y-76978294D01*
X173442562Y-76978294D01*
X173062156Y-77135863D01*
X172771005Y-77427014D01*
X172613436Y-77807420D01*
X171020485Y-77807420D01*
X170823297Y-77610232D01*
X170442891Y-77452663D01*
X170031143Y-77452663D01*
X169650737Y-77610232D01*
X169359586Y-77901383D01*
X169202017Y-78281789D01*
X169202017Y-78693537D01*
X169314460Y-78965000D01*
X169294126Y-78965000D01*
X168913720Y-79122569D01*
X168875000Y-79161289D01*
X168836280Y-79122569D01*
X168455874Y-78965000D01*
X168044126Y-78965000D01*
X167663720Y-79122569D01*
X167372569Y-79413720D01*
X167215000Y-79794126D01*
X163641649Y-79794126D01*
X163958839Y-79319418D01*
X164074092Y-78740000D01*
X163958839Y-78160582D01*
X163784701Y-77899965D01*
X164840645Y-77899965D01*
X164840645Y-78311713D01*
X164998214Y-78692119D01*
X165289365Y-78983270D01*
X165669771Y-79140839D01*
X166081519Y-79140839D01*
X166461925Y-78983270D01*
X166753076Y-78692119D01*
X166910645Y-78311713D01*
X166910645Y-77899965D01*
X166753076Y-77519559D01*
X166461925Y-77228408D01*
X166081519Y-77070839D01*
X165669771Y-77070839D01*
X165289365Y-77228408D01*
X164998214Y-77519559D01*
X164840645Y-77899965D01*
X163784701Y-77899965D01*
X163630625Y-77669375D01*
X163332239Y-77470000D01*
X163630625Y-77270625D01*
X163958839Y-76779418D01*
X164074092Y-76200000D01*
X163958839Y-75620582D01*
X163907753Y-75544126D01*
X164215000Y-75544126D01*
X164215000Y-75955874D01*
X164372569Y-76336280D01*
X164663720Y-76627431D01*
X165044126Y-76785000D01*
X165455874Y-76785000D01*
X165836280Y-76627431D01*
X166127431Y-76336280D01*
X166248444Y-76044126D01*
X170465000Y-76044126D01*
X170465000Y-76455874D01*
X170622569Y-76836280D01*
X170913720Y-77127431D01*
X171294126Y-77285000D01*
X171705874Y-77285000D01*
X172086280Y-77127431D01*
X172377431Y-76836280D01*
X172535000Y-76455874D01*
X172535000Y-76044126D01*
X172377431Y-75663720D01*
X172086280Y-75372569D01*
X171705874Y-75215000D01*
X171294126Y-75215000D01*
X170913720Y-75372569D01*
X170622569Y-75663720D01*
X170465000Y-76044126D01*
X166248444Y-76044126D01*
X166285000Y-75955874D01*
X166285000Y-75544126D01*
X166127431Y-75163720D01*
X165836280Y-74872569D01*
X165455874Y-74715000D01*
X165044126Y-74715000D01*
X164663720Y-74872569D01*
X164372569Y-75163720D01*
X164215000Y-75544126D01*
X163907753Y-75544126D01*
X163630625Y-75129375D01*
X163332239Y-74930000D01*
X163630625Y-74730625D01*
X163805448Y-74468983D01*
X168702965Y-74468983D01*
X168702965Y-74880731D01*
X168860534Y-75261137D01*
X169151685Y-75552288D01*
X169532091Y-75709857D01*
X169943839Y-75709857D01*
X170324245Y-75552288D01*
X170615396Y-75261137D01*
X170772965Y-74880731D01*
X170772965Y-74468983D01*
X170696757Y-74285000D01*
X170955874Y-74285000D01*
X171336280Y-74127431D01*
X171627431Y-73836280D01*
X171760455Y-73515131D01*
X171872755Y-73627431D01*
X172253161Y-73785000D01*
X172664909Y-73785000D01*
X173045315Y-73627431D01*
X173336466Y-73336280D01*
X173494035Y-72955874D01*
X173494035Y-72544126D01*
X173336466Y-72163720D01*
X173045315Y-71872569D01*
X172855937Y-71794126D01*
X175715000Y-71794126D01*
X175715000Y-72205874D01*
X175872569Y-72586280D01*
X176163720Y-72877431D01*
X176544126Y-73035000D01*
X176955874Y-73035000D01*
X177336280Y-72877431D01*
X177530494Y-72683217D01*
X177806786Y-72797660D01*
X178218534Y-72797660D01*
X178598940Y-72640091D01*
X178890091Y-72348940D01*
X179047660Y-71968534D01*
X179047660Y-71556786D01*
X178890091Y-71176380D01*
X178598940Y-70885229D01*
X178218534Y-70727660D01*
X177848821Y-70727660D01*
X177848821Y-70560033D01*
X177691252Y-70179627D01*
X177400101Y-69888476D01*
X177019695Y-69730907D01*
X176607947Y-69730907D01*
X176227541Y-69888476D01*
X175936390Y-70179627D01*
X175778821Y-70560033D01*
X175778821Y-70971781D01*
X175935720Y-71350569D01*
X175872569Y-71413720D01*
X175715000Y-71794126D01*
X172855937Y-71794126D01*
X172664909Y-71715000D01*
X172253161Y-71715000D01*
X171872755Y-71872569D01*
X171581604Y-72163720D01*
X171448580Y-72484869D01*
X171336280Y-72372569D01*
X170955874Y-72215000D01*
X170544126Y-72215000D01*
X170163720Y-72372569D01*
X169872569Y-72663720D01*
X169715000Y-73044126D01*
X169715000Y-73455874D01*
X169791208Y-73639857D01*
X169532091Y-73639857D01*
X169151685Y-73797426D01*
X168860534Y-74088577D01*
X168702965Y-74468983D01*
X163805448Y-74468983D01*
X163958839Y-74239418D01*
X164074092Y-73660000D01*
X163958839Y-73080582D01*
X163630625Y-72589375D01*
X163332239Y-72390000D01*
X163630625Y-72190625D01*
X163958839Y-71699418D01*
X164074092Y-71120000D01*
X163958839Y-70540582D01*
X163630625Y-70049375D01*
X163332239Y-69850000D01*
X163630625Y-69650625D01*
X163958839Y-69159418D01*
X164074092Y-68580000D01*
X163958839Y-68000582D01*
X163644825Y-67530626D01*
X177439990Y-67530626D01*
X177439990Y-67942374D01*
X177597559Y-68322780D01*
X177888710Y-68613931D01*
X178269116Y-68771500D01*
X178680864Y-68771500D01*
X179061270Y-68613931D01*
X179352421Y-68322780D01*
X179509990Y-67942374D01*
X179509990Y-67530626D01*
X179352421Y-67150220D01*
X179061270Y-66859069D01*
X178680864Y-66701500D01*
X178269116Y-66701500D01*
X177888710Y-66859069D01*
X177597559Y-67150220D01*
X177439990Y-67530626D01*
X163644825Y-67530626D01*
X163630625Y-67509375D01*
X163332239Y-67310000D01*
X163630625Y-67110625D01*
X163958839Y-66619418D01*
X164074092Y-66040000D01*
X163958839Y-65460582D01*
X163630625Y-64969375D01*
X163332239Y-64770000D01*
X163630625Y-64570625D01*
X163815375Y-64294126D01*
X170715000Y-64294126D01*
X170715000Y-64705874D01*
X170872569Y-65086280D01*
X171163720Y-65377431D01*
X171544126Y-65535000D01*
X171955874Y-65535000D01*
X172336280Y-65377431D01*
X172627431Y-65086280D01*
X172785000Y-64705874D01*
X172785000Y-64294126D01*
X172627431Y-63913720D01*
X172336280Y-63622569D01*
X171955874Y-63465000D01*
X171544126Y-63465000D01*
X171163720Y-63622569D01*
X170872569Y-63913720D01*
X170715000Y-64294126D01*
X163815375Y-64294126D01*
X163958839Y-64079418D01*
X164074092Y-63500000D01*
X164008475Y-63170115D01*
X175175614Y-63170115D01*
X175187350Y-63198512D01*
X175438355Y-63563376D01*
X175809881Y-63804411D01*
X175980000Y-63698400D01*
X175980000Y-63000000D01*
X175286303Y-63000000D01*
X175175614Y-63170115D01*
X164008475Y-63170115D01*
X163958839Y-62920582D01*
X163630625Y-62429375D01*
X163332239Y-62230000D01*
X163630625Y-62030625D01*
X163958839Y-61539418D01*
X163970657Y-61480000D01*
X175072765Y-61480000D01*
X175160854Y-61922855D01*
X175302250Y-62134468D01*
X175187350Y-62301488D01*
X175175614Y-62329885D01*
X175286303Y-62500000D01*
X175713593Y-62500000D01*
X175787145Y-62549146D01*
X176118217Y-62615000D01*
X176341783Y-62615000D01*
X176370765Y-62609235D01*
X176342765Y-62750000D01*
X176430854Y-63192855D01*
X176480000Y-63266407D01*
X176480000Y-63698400D01*
X176650119Y-63804411D01*
X176845443Y-63677691D01*
X177057145Y-63819146D01*
X177388217Y-63885000D01*
X177611783Y-63885000D01*
X177942855Y-63819146D01*
X178164011Y-63671374D01*
X178247579Y-63873126D01*
X178339453Y-63965000D01*
X178194126Y-63965000D01*
X177813720Y-64122569D01*
X177522569Y-64413720D01*
X177365000Y-64794126D01*
X177365000Y-65205874D01*
X177522569Y-65586280D01*
X177813720Y-65877431D01*
X178194126Y-66035000D01*
X178605874Y-66035000D01*
X178986280Y-65877431D01*
X179277431Y-65586280D01*
X179435000Y-65205874D01*
X179435000Y-64794126D01*
X179277431Y-64413720D01*
X179185557Y-64321846D01*
X179330884Y-64321846D01*
X179711290Y-64164277D01*
X180002441Y-63873126D01*
X180160010Y-63492720D01*
X180160010Y-63080972D01*
X180002441Y-62700566D01*
X179711290Y-62409415D01*
X179330884Y-62251846D01*
X178919136Y-62251846D01*
X178585625Y-62389991D01*
X178569146Y-62307145D01*
X178440759Y-62115000D01*
X178569146Y-61922855D01*
X178657235Y-61480000D01*
X178569146Y-61037145D01*
X178440759Y-60845000D01*
X178569146Y-60652855D01*
X178657235Y-60210000D01*
X178569146Y-59767145D01*
X178440759Y-59575000D01*
X178569146Y-59382855D01*
X178657235Y-58940000D01*
X178569146Y-58497145D01*
X178440759Y-58305000D01*
X178569146Y-58112855D01*
X178657235Y-57670000D01*
X178569146Y-57227145D01*
X178318289Y-56851711D01*
X177942855Y-56600854D01*
X177611783Y-56535000D01*
X177388217Y-56535000D01*
X177057145Y-56600854D01*
X177039164Y-56612869D01*
X176977765Y-56571843D01*
X176730000Y-56522560D01*
X175730000Y-56522560D01*
X175482235Y-56571843D01*
X175272191Y-56712191D01*
X175131843Y-56922235D01*
X175082560Y-57170000D01*
X175082560Y-58170000D01*
X175131843Y-58417765D01*
X175184963Y-58497264D01*
X175175614Y-58519885D01*
X175286303Y-58690000D01*
X175365266Y-58690000D01*
X175482235Y-58768157D01*
X175730000Y-58817440D01*
X176367144Y-58817440D01*
X176342765Y-58940000D01*
X176430854Y-59382855D01*
X176480000Y-59456407D01*
X176480000Y-59693593D01*
X176430854Y-59767145D01*
X176342765Y-60210000D01*
X176370765Y-60350765D01*
X176341783Y-60345000D01*
X176118217Y-60345000D01*
X175787145Y-60410854D01*
X175713593Y-60460000D01*
X175286303Y-60460000D01*
X175175614Y-60630115D01*
X175187350Y-60658512D01*
X175302250Y-60825532D01*
X175160854Y-61037145D01*
X175072765Y-61480000D01*
X163970657Y-61480000D01*
X164074092Y-60960000D01*
X163958839Y-60380582D01*
X163630625Y-59889375D01*
X163488075Y-59794126D01*
X165965000Y-59794126D01*
X165965000Y-60205874D01*
X166122569Y-60586280D01*
X166413720Y-60877431D01*
X166794126Y-61035000D01*
X167205874Y-61035000D01*
X167586280Y-60877431D01*
X167877431Y-60586280D01*
X168035000Y-60205874D01*
X168035000Y-59794126D01*
X167877431Y-59413720D01*
X167823826Y-59360115D01*
X175175614Y-59360115D01*
X175187350Y-59388512D01*
X175315643Y-59575000D01*
X175187350Y-59761488D01*
X175175614Y-59789885D01*
X175286303Y-59960000D01*
X175756841Y-59960000D01*
X175809881Y-59994411D01*
X175865101Y-59960000D01*
X175980000Y-59960000D01*
X175980000Y-59190000D01*
X175865101Y-59190000D01*
X175809881Y-59155589D01*
X175756841Y-59190000D01*
X175286303Y-59190000D01*
X175175614Y-59360115D01*
X167823826Y-59360115D01*
X167586280Y-59122569D01*
X167205874Y-58965000D01*
X166794126Y-58965000D01*
X166413720Y-59122569D01*
X166122569Y-59413720D01*
X165965000Y-59794126D01*
X163488075Y-59794126D01*
X163332239Y-59690000D01*
X163630625Y-59490625D01*
X163958839Y-58999418D01*
X164074092Y-58420000D01*
X163958839Y-57840582D01*
X163630625Y-57349375D01*
X163332239Y-57150000D01*
X163630625Y-56950625D01*
X163958839Y-56459418D01*
X164074092Y-55880000D01*
X163958839Y-55300582D01*
X163630625Y-54809375D01*
X163332239Y-54610000D01*
X163630625Y-54410625D01*
X163958839Y-53919418D01*
X164074092Y-53340000D01*
X163958839Y-52760582D01*
X163630625Y-52269375D01*
X163332239Y-52070000D01*
X163630625Y-51870625D01*
X163958839Y-51379418D01*
X164074092Y-50800000D01*
X163958839Y-50220582D01*
X163630625Y-49729375D01*
X163308031Y-49513824D01*
X163624170Y-49294126D01*
X167465000Y-49294126D01*
X167465000Y-49705874D01*
X167586831Y-50000000D01*
X167465000Y-50294126D01*
X167465000Y-50705874D01*
X167586831Y-51000000D01*
X167465000Y-51294126D01*
X167465000Y-51705874D01*
X167586831Y-52000000D01*
X167465000Y-52294126D01*
X167465000Y-52705874D01*
X167580497Y-52984708D01*
X167465000Y-53263542D01*
X167465000Y-53675290D01*
X167593165Y-53984708D01*
X167465000Y-54294126D01*
X167465000Y-54705874D01*
X167622569Y-55086280D01*
X167913720Y-55377431D01*
X168294126Y-55535000D01*
X168705874Y-55535000D01*
X169000000Y-55413169D01*
X169125131Y-55465000D01*
X169044126Y-55465000D01*
X168663720Y-55622569D01*
X168372569Y-55913720D01*
X168215000Y-56294126D01*
X168215000Y-56705874D01*
X168372569Y-57086280D01*
X168663720Y-57377431D01*
X169044126Y-57535000D01*
X169455874Y-57535000D01*
X169836280Y-57377431D01*
X170127431Y-57086280D01*
X170285000Y-56705874D01*
X170285000Y-56294126D01*
X170127431Y-55913720D01*
X169836280Y-55622569D01*
X169624869Y-55535000D01*
X169705874Y-55535000D01*
X170086280Y-55377431D01*
X170377431Y-55086280D01*
X170535000Y-54705874D01*
X170535000Y-54294126D01*
X170377431Y-53913720D01*
X170257837Y-53794126D01*
X177465000Y-53794126D01*
X177465000Y-54205874D01*
X177586831Y-54500000D01*
X177465000Y-54794126D01*
X177465000Y-55205874D01*
X177622569Y-55586280D01*
X177913720Y-55877431D01*
X178294126Y-56035000D01*
X178705874Y-56035000D01*
X179086280Y-55877431D01*
X179377431Y-55586280D01*
X179535000Y-55205874D01*
X179535000Y-54794126D01*
X179413169Y-54500000D01*
X179535000Y-54205874D01*
X179535000Y-53794126D01*
X179377431Y-53413720D01*
X179086280Y-53122569D01*
X178705874Y-52965000D01*
X178294126Y-52965000D01*
X177913720Y-53122569D01*
X177622569Y-53413720D01*
X177465000Y-53794126D01*
X170257837Y-53794126D01*
X170086280Y-53622569D01*
X169705874Y-53465000D01*
X169535000Y-53465000D01*
X169535000Y-53263542D01*
X169419503Y-52984708D01*
X169535000Y-52705874D01*
X169535000Y-52294126D01*
X169413169Y-52000000D01*
X169535000Y-51705874D01*
X169535000Y-51535000D01*
X169808687Y-51535000D01*
X170189093Y-51377431D01*
X170480244Y-51086280D01*
X170637813Y-50705874D01*
X170637813Y-50294126D01*
X170515982Y-50000000D01*
X170637813Y-49705874D01*
X170637813Y-49294126D01*
X170480244Y-48913720D01*
X170189093Y-48622569D01*
X169808687Y-48465000D01*
X169396939Y-48465000D01*
X169051407Y-48608124D01*
X168705874Y-48465000D01*
X168294126Y-48465000D01*
X167913720Y-48622569D01*
X167622569Y-48913720D01*
X167465000Y-49294126D01*
X163624170Y-49294126D01*
X163629085Y-49290711D01*
X163921345Y-48853265D01*
X163832718Y-48633000D01*
X162933000Y-48633000D01*
X162933000Y-48653000D01*
X162187000Y-48653000D01*
X162187000Y-48633000D01*
X162167000Y-48633000D01*
X162167000Y-47887000D01*
X162187000Y-47887000D01*
X162187000Y-47867000D01*
X162933000Y-47867000D01*
X162933000Y-47887000D01*
X163832718Y-47887000D01*
X163921345Y-47666735D01*
X163629085Y-47229289D01*
X163567075Y-47186196D01*
X163657765Y-47168157D01*
X163867809Y-47027809D01*
X164008157Y-46817765D01*
X164057440Y-46570000D01*
X164057440Y-44870000D01*
X164008157Y-44622235D01*
X163867809Y-44412191D01*
X163657765Y-44271843D01*
X163410000Y-44222560D01*
X162294017Y-44222560D01*
X162309455Y-44199455D01*
X162591870Y-44010752D01*
X162937509Y-43942000D01*
X173587208Y-43942000D01*
X173466533Y-43991985D01*
X173466533Y-43991985D01*
G37*
X173466533Y-43991985D02*
X173175382Y-44283136D01*
X173017813Y-44663542D01*
X173017813Y-45075290D01*
X173139644Y-45369416D01*
X173017813Y-45663542D01*
X173017813Y-46075290D01*
X173175382Y-46455696D01*
X173466533Y-46746847D01*
X173846939Y-46904416D01*
X174258687Y-46904416D01*
X174552813Y-46782585D01*
X174846939Y-46904416D01*
X175258687Y-46904416D01*
X175552813Y-46782585D01*
X175846939Y-46904416D01*
X176258687Y-46904416D01*
X176552813Y-46782585D01*
X176846939Y-46904416D01*
X177258687Y-46904416D01*
X177639093Y-46746847D01*
X177930244Y-46455696D01*
X178087813Y-46075290D01*
X178087813Y-45663542D01*
X177965982Y-45369416D01*
X178087813Y-45075290D01*
X178087813Y-44663542D01*
X177930244Y-44283136D01*
X177639093Y-43991985D01*
X177518418Y-43942000D01*
X182502491Y-43942000D01*
X182848130Y-44010752D01*
X183130545Y-44199455D01*
X183145983Y-44222560D01*
X182030000Y-44222560D01*
X181782235Y-44271843D01*
X181572191Y-44412191D01*
X181431843Y-44622235D01*
X181382560Y-44870000D01*
X181382560Y-46570000D01*
X181431843Y-46817765D01*
X181572191Y-47027809D01*
X181782235Y-47168157D01*
X181827619Y-47177184D01*
X181809375Y-47189375D01*
X181481161Y-47680582D01*
X181365908Y-48260000D01*
X181481161Y-48839418D01*
X181809375Y-49330625D01*
X182107761Y-49530000D01*
X181809375Y-49729375D01*
X181481161Y-50220582D01*
X181365908Y-50800000D01*
X181481161Y-51379418D01*
X181809375Y-51870625D01*
X182107761Y-52070000D01*
X181809375Y-52269375D01*
X181481161Y-52760582D01*
X181365908Y-53340000D01*
X181481161Y-53919418D01*
X181809375Y-54410625D01*
X182107761Y-54610000D01*
X181809375Y-54809375D01*
X181481161Y-55300582D01*
X181365908Y-55880000D01*
X181481161Y-56459418D01*
X181809375Y-56950625D01*
X182107761Y-57150000D01*
X181809375Y-57349375D01*
X181481161Y-57840582D01*
X181365908Y-58420000D01*
X181481161Y-58999418D01*
X181809375Y-59490625D01*
X182107761Y-59690000D01*
X181809375Y-59889375D01*
X181481161Y-60380582D01*
X181365908Y-60960000D01*
X181481161Y-61539418D01*
X181809375Y-62030625D01*
X182107761Y-62230000D01*
X181809375Y-62429375D01*
X181481161Y-62920582D01*
X181365908Y-63500000D01*
X181481161Y-64079418D01*
X181809375Y-64570625D01*
X182107761Y-64770000D01*
X181809375Y-64969375D01*
X181481161Y-65460582D01*
X181365908Y-66040000D01*
X181481161Y-66619418D01*
X181809375Y-67110625D01*
X182107761Y-67310000D01*
X181809375Y-67509375D01*
X181481161Y-68000582D01*
X181365908Y-68580000D01*
X181481161Y-69159418D01*
X181809375Y-69650625D01*
X182107761Y-69850000D01*
X181809375Y-70049375D01*
X181481161Y-70540582D01*
X181365908Y-71120000D01*
X181481161Y-71699418D01*
X181809375Y-72190625D01*
X182107761Y-72390000D01*
X181809375Y-72589375D01*
X181481161Y-73080582D01*
X181365908Y-73660000D01*
X181481161Y-74239418D01*
X181809375Y-74730625D01*
X182107761Y-74930000D01*
X181809375Y-75129375D01*
X181481161Y-75620582D01*
X181462617Y-75713811D01*
X181407409Y-75580527D01*
X181116258Y-75289376D01*
X180735852Y-75131807D01*
X180522617Y-75131807D01*
X180662006Y-74795291D01*
X180662006Y-74383543D01*
X180504437Y-74003137D01*
X180213286Y-73711986D01*
X179832880Y-73554417D01*
X179421132Y-73554417D01*
X179040726Y-73711986D01*
X178749575Y-74003137D01*
X178646021Y-74253139D01*
X178370053Y-74253139D01*
X177989647Y-74410708D01*
X177698496Y-74701859D01*
X177540927Y-75082265D01*
X177540927Y-75494013D01*
X177698496Y-75874419D01*
X177989647Y-76165570D01*
X178370053Y-76323139D01*
X178781801Y-76323139D01*
X178833270Y-76301820D01*
X178770945Y-76364145D01*
X178613376Y-76744551D01*
X178613376Y-77156299D01*
X178770945Y-77536705D01*
X179062096Y-77827856D01*
X179144697Y-77862071D01*
X179007585Y-78193090D01*
X179007585Y-78604838D01*
X179165154Y-78985244D01*
X179456305Y-79276395D01*
X179836711Y-79433964D01*
X180248459Y-79433964D01*
X180628865Y-79276395D01*
X180920016Y-78985244D01*
X181077585Y-78604838D01*
X181077585Y-78193090D01*
X180920016Y-77812684D01*
X180628865Y-77521533D01*
X180546264Y-77487318D01*
X180664526Y-77201807D01*
X180735852Y-77201807D01*
X181116258Y-77044238D01*
X181407409Y-76753087D01*
X181453696Y-76641341D01*
X181481161Y-76779418D01*
X181809375Y-77270625D01*
X182107761Y-77470000D01*
X181809375Y-77669375D01*
X181481161Y-78160582D01*
X181365908Y-78740000D01*
X181481161Y-79319418D01*
X181809375Y-79810625D01*
X182107761Y-80010000D01*
X181809375Y-80209375D01*
X181481161Y-80700582D01*
X181365908Y-81280000D01*
X181481161Y-81859418D01*
X181809375Y-82350625D01*
X182107761Y-82550000D01*
X181809375Y-82749375D01*
X181481161Y-83240582D01*
X181365908Y-83820000D01*
X181481161Y-84399418D01*
X181809375Y-84890625D01*
X182107761Y-85090000D01*
X181809375Y-85289375D01*
X181481161Y-85780582D01*
X181365908Y-86360000D01*
X181481161Y-86939418D01*
X181809375Y-87430625D01*
X182107761Y-87630000D01*
X181809375Y-87829375D01*
X181481161Y-88320582D01*
X181365908Y-88900000D01*
X181455947Y-89352660D01*
X181156466Y-89352660D01*
X180776060Y-89510229D01*
X180484909Y-89801380D01*
X180327340Y-90181786D01*
X180327340Y-90593534D01*
X180484909Y-90973940D01*
X180776060Y-91265091D01*
X181156466Y-91422660D01*
X181369357Y-91422660D01*
X181365908Y-91440000D01*
X181481161Y-92019418D01*
X181809375Y-92510625D01*
X182107761Y-92710000D01*
X181809375Y-92909375D01*
X181481161Y-93400582D01*
X181365908Y-93980000D01*
X181481161Y-94559418D01*
X181809375Y-95050625D01*
X182107761Y-95250000D01*
X181809375Y-95449375D01*
X181481161Y-95940582D01*
X181365908Y-96520000D01*
X181481161Y-97099418D01*
X181809375Y-97590625D01*
X182107761Y-97790000D01*
X181809375Y-97989375D01*
X181481161Y-98480582D01*
X181365908Y-99060000D01*
X181481161Y-99639418D01*
X181809375Y-100130625D01*
X182107761Y-100330000D01*
X181809375Y-100529375D01*
X181481161Y-101020582D01*
X181365908Y-101600000D01*
X181481161Y-102179418D01*
X181809375Y-102670625D01*
X182107761Y-102870000D01*
X181809375Y-103069375D01*
X181481161Y-103560582D01*
X181365908Y-104140000D01*
X181481161Y-104719418D01*
X181809375Y-105210625D01*
X182131969Y-105426176D01*
X181810915Y-105649289D01*
X181518655Y-106086735D01*
X181607282Y-106307000D01*
X182507000Y-106307000D01*
X182507000Y-106287000D01*
X183253000Y-106287000D01*
X183253000Y-106307000D01*
X183273000Y-106307000D01*
X183273000Y-107053000D01*
X183253000Y-107053000D01*
X183253000Y-107958671D01*
X183284306Y-107970425D01*
X183130545Y-108200545D01*
X182848130Y-108389248D01*
X182502491Y-108458000D01*
X162937509Y-108458000D01*
X162591870Y-108389248D01*
X162309455Y-108200545D01*
X162155694Y-107970425D01*
X162187000Y-107958671D01*
X162187000Y-107053000D01*
X162933000Y-107053000D01*
X162933000Y-107958671D01*
X163153270Y-108041374D01*
X163629085Y-107710711D01*
X163921345Y-107273265D01*
X163832718Y-107053000D01*
X162933000Y-107053000D01*
X162187000Y-107053000D01*
X162167000Y-107053000D01*
X162167000Y-107044126D01*
X166215000Y-107044126D01*
X166215000Y-107455874D01*
X166372569Y-107836280D01*
X166663720Y-108127431D01*
X167044126Y-108285000D01*
X167455874Y-108285000D01*
X167836280Y-108127431D01*
X168127431Y-107836280D01*
X168285000Y-107455874D01*
X168285000Y-107273265D01*
X181518655Y-107273265D01*
X181810915Y-107710711D01*
X182286730Y-108041374D01*
X182507000Y-107958671D01*
X182507000Y-107053000D01*
X181607282Y-107053000D01*
X181518655Y-107273265D01*
X168285000Y-107273265D01*
X168285000Y-107044126D01*
X168127431Y-106663720D01*
X167836280Y-106372569D01*
X167455874Y-106215000D01*
X167044126Y-106215000D01*
X166663720Y-106372569D01*
X166372569Y-106663720D01*
X166215000Y-107044126D01*
X162167000Y-107044126D01*
X162167000Y-106307000D01*
X162187000Y-106307000D01*
X162187000Y-106287000D01*
X162933000Y-106287000D01*
X162933000Y-106307000D01*
X163832718Y-106307000D01*
X163921345Y-106086735D01*
X163629085Y-105649289D01*
X163308031Y-105426176D01*
X163630625Y-105210625D01*
X163958839Y-104719418D01*
X164074092Y-104140000D01*
X163958839Y-103560582D01*
X163630625Y-103069375D01*
X163332239Y-102870000D01*
X163630625Y-102670625D01*
X163958839Y-102179418D01*
X164074092Y-101600000D01*
X163958839Y-101020582D01*
X163630625Y-100529375D01*
X163332239Y-100330000D01*
X163630625Y-100130625D01*
X163958839Y-99639418D01*
X164074092Y-99060000D01*
X163958839Y-98480582D01*
X163630625Y-97989375D01*
X163332239Y-97790000D01*
X165735908Y-97790000D01*
X165851161Y-98369418D01*
X166179375Y-98860625D01*
X166477761Y-99060000D01*
X166179375Y-99259375D01*
X165851161Y-99750582D01*
X165735908Y-100330000D01*
X165851161Y-100909418D01*
X166179375Y-101400625D01*
X166670582Y-101728839D01*
X167103744Y-101815000D01*
X167396256Y-101815000D01*
X167829418Y-101728839D01*
X168320625Y-101400625D01*
X168648839Y-100909418D01*
X168764092Y-100330000D01*
X168648839Y-99750582D01*
X168320625Y-99259375D01*
X168022239Y-99060000D01*
X168320625Y-98860625D01*
X168648839Y-98369418D01*
X168764092Y-97790000D01*
X176735908Y-97790000D01*
X176851161Y-98369418D01*
X177179375Y-98860625D01*
X177477761Y-99060000D01*
X177179375Y-99259375D01*
X176851161Y-99750582D01*
X176735908Y-100330000D01*
X176851161Y-100909418D01*
X177179375Y-101400625D01*
X177670582Y-101728839D01*
X178103744Y-101815000D01*
X178396256Y-101815000D01*
X178829418Y-101728839D01*
X179320625Y-101400625D01*
X179648839Y-100909418D01*
X179764092Y-100330000D01*
X179648839Y-99750582D01*
X179320625Y-99259375D01*
X179022239Y-99060000D01*
X179320625Y-98860625D01*
X179648839Y-98369418D01*
X179764092Y-97790000D01*
X179648839Y-97210582D01*
X179320625Y-96719375D01*
X179298967Y-96704904D01*
X179459698Y-96638327D01*
X179638327Y-96459699D01*
X179735000Y-96226310D01*
X179735000Y-95781750D01*
X179576250Y-95623000D01*
X178623000Y-95623000D01*
X178623000Y-95643000D01*
X177877000Y-95643000D01*
X177877000Y-95623000D01*
X176923750Y-95623000D01*
X176765000Y-95781750D01*
X176765000Y-96226310D01*
X176861673Y-96459699D01*
X177040302Y-96638327D01*
X177201033Y-96704904D01*
X177179375Y-96719375D01*
X176851161Y-97210582D01*
X176735908Y-97790000D01*
X168764092Y-97790000D01*
X168648839Y-97210582D01*
X168320625Y-96719375D01*
X168298967Y-96704904D01*
X168459698Y-96638327D01*
X168638327Y-96459699D01*
X168735000Y-96226310D01*
X168735000Y-95781750D01*
X168576250Y-95623000D01*
X167623000Y-95623000D01*
X167623000Y-95643000D01*
X166877000Y-95643000D01*
X166877000Y-95623000D01*
X165923750Y-95623000D01*
X165765000Y-95781750D01*
X165765000Y-96226310D01*
X165861673Y-96459699D01*
X166040302Y-96638327D01*
X166201033Y-96704904D01*
X166179375Y-96719375D01*
X165851161Y-97210582D01*
X165735908Y-97790000D01*
X163332239Y-97790000D01*
X163630625Y-97590625D01*
X163958839Y-97099418D01*
X164074092Y-96520000D01*
X163958839Y-95940582D01*
X163630625Y-95449375D01*
X163332239Y-95250000D01*
X163630625Y-95050625D01*
X163958839Y-94559418D01*
X164015673Y-94273690D01*
X165765000Y-94273690D01*
X165765000Y-94718250D01*
X165923750Y-94877000D01*
X166877000Y-94877000D01*
X166877000Y-93923750D01*
X167623000Y-93923750D01*
X167623000Y-94877000D01*
X168576250Y-94877000D01*
X168735000Y-94718250D01*
X168735000Y-94273690D01*
X176765000Y-94273690D01*
X176765000Y-94718250D01*
X176923750Y-94877000D01*
X177877000Y-94877000D01*
X177877000Y-93923750D01*
X178623000Y-93923750D01*
X178623000Y-94877000D01*
X179576250Y-94877000D01*
X179735000Y-94718250D01*
X179735000Y-94273690D01*
X179638327Y-94040301D01*
X179459698Y-93861673D01*
X179226309Y-93765000D01*
X178781750Y-93765000D01*
X178623000Y-93923750D01*
X177877000Y-93923750D01*
X177718250Y-93765000D01*
X177273691Y-93765000D01*
X177040302Y-93861673D01*
X176861673Y-94040301D01*
X176765000Y-94273690D01*
X168735000Y-94273690D01*
X168638327Y-94040301D01*
X168459698Y-93861673D01*
X168226309Y-93765000D01*
X167781750Y-93765000D01*
X167623000Y-93923750D01*
X166877000Y-93923750D01*
X166718250Y-93765000D01*
X166273691Y-93765000D01*
X166040302Y-93861673D01*
X165861673Y-94040301D01*
X165765000Y-94273690D01*
X164015673Y-94273690D01*
X164074092Y-93980000D01*
X163958839Y-93400582D01*
X163630625Y-92909375D01*
X163458143Y-92794126D01*
X170465000Y-92794126D01*
X170465000Y-93205874D01*
X170622569Y-93586280D01*
X170913720Y-93877431D01*
X171294126Y-94035000D01*
X171705874Y-94035000D01*
X172086280Y-93877431D01*
X172377431Y-93586280D01*
X172535000Y-93205874D01*
X172535000Y-92794126D01*
X172377431Y-92413720D01*
X172257837Y-92294126D01*
X174215000Y-92294126D01*
X174215000Y-92705874D01*
X174372569Y-93086280D01*
X174663720Y-93377431D01*
X175044126Y-93535000D01*
X175455874Y-93535000D01*
X175836280Y-93377431D01*
X176127431Y-93086280D01*
X176285000Y-92705874D01*
X176285000Y-92294126D01*
X176127431Y-91913720D01*
X175836280Y-91622569D01*
X175455874Y-91465000D01*
X175044126Y-91465000D01*
X174663720Y-91622569D01*
X174372569Y-91913720D01*
X174215000Y-92294126D01*
X172257837Y-92294126D01*
X172086280Y-92122569D01*
X171705874Y-91965000D01*
X171294126Y-91965000D01*
X170913720Y-92122569D01*
X170622569Y-92413720D01*
X170465000Y-92794126D01*
X163458143Y-92794126D01*
X163332239Y-92710000D01*
X163630625Y-92510625D01*
X163958839Y-92019418D01*
X164074092Y-91440000D01*
X163958839Y-90860582D01*
X163630625Y-90369375D01*
X163332239Y-90170000D01*
X163520622Y-90044126D01*
X164715000Y-90044126D01*
X164715000Y-90455874D01*
X164872569Y-90836280D01*
X165163720Y-91127431D01*
X165544126Y-91285000D01*
X165955874Y-91285000D01*
X166037485Y-91251196D01*
X166163720Y-91377431D01*
X166544126Y-91535000D01*
X166955874Y-91535000D01*
X167336280Y-91377431D01*
X167627431Y-91086280D01*
X167785000Y-90705874D01*
X167785000Y-90294126D01*
X167627431Y-89913720D01*
X167336280Y-89622569D01*
X166955874Y-89465000D01*
X166544126Y-89465000D01*
X166462515Y-89498804D01*
X166336280Y-89372569D01*
X165955874Y-89215000D01*
X165544126Y-89215000D01*
X165163720Y-89372569D01*
X164872569Y-89663720D01*
X164715000Y-90044126D01*
X163520622Y-90044126D01*
X163630625Y-89970625D01*
X163958839Y-89479418D01*
X164074092Y-88900000D01*
X163958839Y-88320582D01*
X163630625Y-87829375D01*
X163577872Y-87794126D01*
X177215000Y-87794126D01*
X177215000Y-88205874D01*
X177372569Y-88586280D01*
X177663720Y-88877431D01*
X178044126Y-89035000D01*
X178455874Y-89035000D01*
X178836280Y-88877431D01*
X179127431Y-88586280D01*
X179285000Y-88205874D01*
X179285000Y-88089272D01*
X179390987Y-88045371D01*
X179682138Y-87754220D01*
X179711469Y-87683408D01*
X179865045Y-87683408D01*
X180245451Y-87525839D01*
X180536602Y-87234688D01*
X180694171Y-86854282D01*
X180694171Y-86442534D01*
X180536602Y-86062128D01*
X180356743Y-85882269D01*
X180434869Y-85693657D01*
X180434869Y-85281909D01*
X180277300Y-84901503D01*
X180235032Y-84859235D01*
X180300500Y-84701180D01*
X180300500Y-84289432D01*
X180142931Y-83909026D01*
X179851780Y-83617875D01*
X179471374Y-83460306D01*
X179059626Y-83460306D01*
X178679220Y-83617875D01*
X178388069Y-83909026D01*
X178230500Y-84289432D01*
X178230500Y-84701180D01*
X178388069Y-85081586D01*
X178430337Y-85123854D01*
X178364869Y-85281909D01*
X178364869Y-85693657D01*
X178522438Y-86074063D01*
X178586446Y-86138071D01*
X178218427Y-86290509D01*
X177927276Y-86581660D01*
X177769707Y-86962066D01*
X177769707Y-87078668D01*
X177663720Y-87122569D01*
X177372569Y-87413720D01*
X177215000Y-87794126D01*
X163577872Y-87794126D01*
X163332239Y-87630000D01*
X163630625Y-87430625D01*
X163958839Y-86939418D01*
X164074092Y-86360000D01*
X164041098Y-86194126D01*
X172765000Y-86194126D01*
X172765000Y-86605874D01*
X172922569Y-86986280D01*
X173213720Y-87277431D01*
X173594126Y-87435000D01*
X174005874Y-87435000D01*
X174386280Y-87277431D01*
X174677431Y-86986280D01*
X174835000Y-86605874D01*
X174835000Y-86194126D01*
X174677431Y-85813720D01*
X174386280Y-85522569D01*
X174005874Y-85365000D01*
X173594126Y-85365000D01*
X173213720Y-85522569D01*
X172922569Y-85813720D01*
X172765000Y-86194126D01*
X164041098Y-86194126D01*
X163958839Y-85780582D01*
X163630625Y-85289375D01*
X163332239Y-85090000D01*
X163630625Y-84890625D01*
X163958839Y-84399418D01*
X164032300Y-84030102D01*
X164044126Y-84035000D01*
X164455874Y-84035000D01*
X164836280Y-83877431D01*
X165127431Y-83586280D01*
X165238476Y-83318192D01*
X167690926Y-83318192D01*
X167690926Y-83729940D01*
X167848495Y-84110346D01*
X168139646Y-84401497D01*
X168520052Y-84559066D01*
X168931800Y-84559066D01*
X169312206Y-84401497D01*
X169319577Y-84394126D01*
X174565000Y-84394126D01*
X174565000Y-84805874D01*
X174722569Y-85186280D01*
X175013720Y-85477431D01*
X175394126Y-85635000D01*
X175805874Y-85635000D01*
X176186280Y-85477431D01*
X176477431Y-85186280D01*
X176635000Y-84805874D01*
X176635000Y-84394126D01*
X176477431Y-84013720D01*
X176186280Y-83722569D01*
X175805874Y-83565000D01*
X175394126Y-83565000D01*
X175013720Y-83722569D01*
X174722569Y-84013720D01*
X174565000Y-84394126D01*
X169319577Y-84394126D01*
X169603357Y-84110346D01*
X169760926Y-83729940D01*
X169760926Y-83318192D01*
X169603357Y-82937786D01*
X169312206Y-82646635D01*
X168931800Y-82489066D01*
X168520052Y-82489066D01*
X168139646Y-82646635D01*
X167848495Y-82937786D01*
X167690926Y-83318192D01*
X165238476Y-83318192D01*
X165285000Y-83205874D01*
X165285000Y-82794126D01*
X165127431Y-82413720D01*
X164836280Y-82122569D01*
X164455874Y-81965000D01*
X164044126Y-81965000D01*
X163828656Y-82054250D01*
X163958839Y-81859418D01*
X164074092Y-81280000D01*
X163958839Y-80700582D01*
X163630625Y-80209375D01*
X163332239Y-80010000D01*
X163630625Y-79810625D01*
X163641649Y-79794126D01*
X167215000Y-79794126D01*
X167215000Y-80205874D01*
X167372569Y-80586280D01*
X167663720Y-80877431D01*
X168044126Y-81035000D01*
X168455874Y-81035000D01*
X168836280Y-80877431D01*
X168875000Y-80838711D01*
X168913720Y-80877431D01*
X169294126Y-81035000D01*
X169705874Y-81035000D01*
X169741687Y-81020166D01*
X169923963Y-81202442D01*
X170304369Y-81360011D01*
X170716117Y-81360011D01*
X171096523Y-81202442D01*
X171387674Y-80911291D01*
X171545243Y-80530885D01*
X171545243Y-80119137D01*
X171410620Y-79794126D01*
X176215000Y-79794126D01*
X176215000Y-80205874D01*
X176372569Y-80586280D01*
X176663720Y-80877431D01*
X176988175Y-81011825D01*
X177122569Y-81336280D01*
X177413720Y-81627431D01*
X177794126Y-81785000D01*
X178205874Y-81785000D01*
X178586280Y-81627431D01*
X178877431Y-81336280D01*
X179035000Y-80955874D01*
X179035000Y-80544126D01*
X178877431Y-80163720D01*
X178586280Y-79872569D01*
X178261825Y-79738175D01*
X178127431Y-79413720D01*
X177836280Y-79122569D01*
X177455874Y-78965000D01*
X177044126Y-78965000D01*
X176663720Y-79122569D01*
X176372569Y-79413720D01*
X176215000Y-79794126D01*
X171410620Y-79794126D01*
X171387674Y-79738731D01*
X171096523Y-79447580D01*
X170844996Y-79343395D01*
X171114448Y-79073943D01*
X171272017Y-78693537D01*
X171272017Y-78281789D01*
X171114448Y-77901383D01*
X171020485Y-77807420D01*
X172613436Y-77807420D01*
X172613436Y-78219168D01*
X172771005Y-78599574D01*
X173062156Y-78890725D01*
X173442562Y-79048294D01*
X173854310Y-79048294D01*
X174234716Y-78890725D01*
X174400099Y-78725342D01*
X174544126Y-78785000D01*
X174955874Y-78785000D01*
X175336280Y-78627431D01*
X175627431Y-78336280D01*
X175785000Y-77955874D01*
X175785000Y-77544126D01*
X175627431Y-77163720D01*
X175336280Y-76872569D01*
X174955874Y-76715000D01*
X174544126Y-76715000D01*
X174163720Y-76872569D01*
X173998337Y-77037952D01*
X173854310Y-76978294D01*
X173442562Y-76978294D01*
X173062156Y-77135863D01*
X172771005Y-77427014D01*
X172613436Y-77807420D01*
X171020485Y-77807420D01*
X170823297Y-77610232D01*
X170442891Y-77452663D01*
X170031143Y-77452663D01*
X169650737Y-77610232D01*
X169359586Y-77901383D01*
X169202017Y-78281789D01*
X169202017Y-78693537D01*
X169314460Y-78965000D01*
X169294126Y-78965000D01*
X168913720Y-79122569D01*
X168875000Y-79161289D01*
X168836280Y-79122569D01*
X168455874Y-78965000D01*
X168044126Y-78965000D01*
X167663720Y-79122569D01*
X167372569Y-79413720D01*
X167215000Y-79794126D01*
X163641649Y-79794126D01*
X163958839Y-79319418D01*
X164074092Y-78740000D01*
X163958839Y-78160582D01*
X163784701Y-77899965D01*
X164840645Y-77899965D01*
X164840645Y-78311713D01*
X164998214Y-78692119D01*
X165289365Y-78983270D01*
X165669771Y-79140839D01*
X166081519Y-79140839D01*
X166461925Y-78983270D01*
X166753076Y-78692119D01*
X166910645Y-78311713D01*
X166910645Y-77899965D01*
X166753076Y-77519559D01*
X166461925Y-77228408D01*
X166081519Y-77070839D01*
X165669771Y-77070839D01*
X165289365Y-77228408D01*
X164998214Y-77519559D01*
X164840645Y-77899965D01*
X163784701Y-77899965D01*
X163630625Y-77669375D01*
X163332239Y-77470000D01*
X163630625Y-77270625D01*
X163958839Y-76779418D01*
X164074092Y-76200000D01*
X163958839Y-75620582D01*
X163907753Y-75544126D01*
X164215000Y-75544126D01*
X164215000Y-75955874D01*
X164372569Y-76336280D01*
X164663720Y-76627431D01*
X165044126Y-76785000D01*
X165455874Y-76785000D01*
X165836280Y-76627431D01*
X166127431Y-76336280D01*
X166248444Y-76044126D01*
X170465000Y-76044126D01*
X170465000Y-76455874D01*
X170622569Y-76836280D01*
X170913720Y-77127431D01*
X171294126Y-77285000D01*
X171705874Y-77285000D01*
X172086280Y-77127431D01*
X172377431Y-76836280D01*
X172535000Y-76455874D01*
X172535000Y-76044126D01*
X172377431Y-75663720D01*
X172086280Y-75372569D01*
X171705874Y-75215000D01*
X171294126Y-75215000D01*
X170913720Y-75372569D01*
X170622569Y-75663720D01*
X170465000Y-76044126D01*
X166248444Y-76044126D01*
X166285000Y-75955874D01*
X166285000Y-75544126D01*
X166127431Y-75163720D01*
X165836280Y-74872569D01*
X165455874Y-74715000D01*
X165044126Y-74715000D01*
X164663720Y-74872569D01*
X164372569Y-75163720D01*
X164215000Y-75544126D01*
X163907753Y-75544126D01*
X163630625Y-75129375D01*
X163332239Y-74930000D01*
X163630625Y-74730625D01*
X163805448Y-74468983D01*
X168702965Y-74468983D01*
X168702965Y-74880731D01*
X168860534Y-75261137D01*
X169151685Y-75552288D01*
X169532091Y-75709857D01*
X169943839Y-75709857D01*
X170324245Y-75552288D01*
X170615396Y-75261137D01*
X170772965Y-74880731D01*
X170772965Y-74468983D01*
X170696757Y-74285000D01*
X170955874Y-74285000D01*
X171336280Y-74127431D01*
X171627431Y-73836280D01*
X171760455Y-73515131D01*
X171872755Y-73627431D01*
X172253161Y-73785000D01*
X172664909Y-73785000D01*
X173045315Y-73627431D01*
X173336466Y-73336280D01*
X173494035Y-72955874D01*
X173494035Y-72544126D01*
X173336466Y-72163720D01*
X173045315Y-71872569D01*
X172855937Y-71794126D01*
X175715000Y-71794126D01*
X175715000Y-72205874D01*
X175872569Y-72586280D01*
X176163720Y-72877431D01*
X176544126Y-73035000D01*
X176955874Y-73035000D01*
X177336280Y-72877431D01*
X177530494Y-72683217D01*
X177806786Y-72797660D01*
X178218534Y-72797660D01*
X178598940Y-72640091D01*
X178890091Y-72348940D01*
X179047660Y-71968534D01*
X179047660Y-71556786D01*
X178890091Y-71176380D01*
X178598940Y-70885229D01*
X178218534Y-70727660D01*
X177848821Y-70727660D01*
X177848821Y-70560033D01*
X177691252Y-70179627D01*
X177400101Y-69888476D01*
X177019695Y-69730907D01*
X176607947Y-69730907D01*
X176227541Y-69888476D01*
X175936390Y-70179627D01*
X175778821Y-70560033D01*
X175778821Y-70971781D01*
X175935720Y-71350569D01*
X175872569Y-71413720D01*
X175715000Y-71794126D01*
X172855937Y-71794126D01*
X172664909Y-71715000D01*
X172253161Y-71715000D01*
X171872755Y-71872569D01*
X171581604Y-72163720D01*
X171448580Y-72484869D01*
X171336280Y-72372569D01*
X170955874Y-72215000D01*
X170544126Y-72215000D01*
X170163720Y-72372569D01*
X169872569Y-72663720D01*
X169715000Y-73044126D01*
X169715000Y-73455874D01*
X169791208Y-73639857D01*
X169532091Y-73639857D01*
X169151685Y-73797426D01*
X168860534Y-74088577D01*
X168702965Y-74468983D01*
X163805448Y-74468983D01*
X163958839Y-74239418D01*
X164074092Y-73660000D01*
X163958839Y-73080582D01*
X163630625Y-72589375D01*
X163332239Y-72390000D01*
X163630625Y-72190625D01*
X163958839Y-71699418D01*
X164074092Y-71120000D01*
X163958839Y-70540582D01*
X163630625Y-70049375D01*
X163332239Y-69850000D01*
X163630625Y-69650625D01*
X163958839Y-69159418D01*
X164074092Y-68580000D01*
X163958839Y-68000582D01*
X163644825Y-67530626D01*
X177439990Y-67530626D01*
X177439990Y-67942374D01*
X177597559Y-68322780D01*
X177888710Y-68613931D01*
X178269116Y-68771500D01*
X178680864Y-68771500D01*
X179061270Y-68613931D01*
X179352421Y-68322780D01*
X179509990Y-67942374D01*
X179509990Y-67530626D01*
X179352421Y-67150220D01*
X179061270Y-66859069D01*
X178680864Y-66701500D01*
X178269116Y-66701500D01*
X177888710Y-66859069D01*
X177597559Y-67150220D01*
X177439990Y-67530626D01*
X163644825Y-67530626D01*
X163630625Y-67509375D01*
X163332239Y-67310000D01*
X163630625Y-67110625D01*
X163958839Y-66619418D01*
X164074092Y-66040000D01*
X163958839Y-65460582D01*
X163630625Y-64969375D01*
X163332239Y-64770000D01*
X163630625Y-64570625D01*
X163815375Y-64294126D01*
X170715000Y-64294126D01*
X170715000Y-64705874D01*
X170872569Y-65086280D01*
X171163720Y-65377431D01*
X171544126Y-65535000D01*
X171955874Y-65535000D01*
X172336280Y-65377431D01*
X172627431Y-65086280D01*
X172785000Y-64705874D01*
X172785000Y-64294126D01*
X172627431Y-63913720D01*
X172336280Y-63622569D01*
X171955874Y-63465000D01*
X171544126Y-63465000D01*
X171163720Y-63622569D01*
X170872569Y-63913720D01*
X170715000Y-64294126D01*
X163815375Y-64294126D01*
X163958839Y-64079418D01*
X164074092Y-63500000D01*
X164008475Y-63170115D01*
X175175614Y-63170115D01*
X175187350Y-63198512D01*
X175438355Y-63563376D01*
X175809881Y-63804411D01*
X175980000Y-63698400D01*
X175980000Y-63000000D01*
X175286303Y-63000000D01*
X175175614Y-63170115D01*
X164008475Y-63170115D01*
X163958839Y-62920582D01*
X163630625Y-62429375D01*
X163332239Y-62230000D01*
X163630625Y-62030625D01*
X163958839Y-61539418D01*
X163970657Y-61480000D01*
X175072765Y-61480000D01*
X175160854Y-61922855D01*
X175302250Y-62134468D01*
X175187350Y-62301488D01*
X175175614Y-62329885D01*
X175286303Y-62500000D01*
X175713593Y-62500000D01*
X175787145Y-62549146D01*
X176118217Y-62615000D01*
X176341783Y-62615000D01*
X176370765Y-62609235D01*
X176342765Y-62750000D01*
X176430854Y-63192855D01*
X176480000Y-63266407D01*
X176480000Y-63698400D01*
X176650119Y-63804411D01*
X176845443Y-63677691D01*
X177057145Y-63819146D01*
X177388217Y-63885000D01*
X177611783Y-63885000D01*
X177942855Y-63819146D01*
X178164011Y-63671374D01*
X178247579Y-63873126D01*
X178339453Y-63965000D01*
X178194126Y-63965000D01*
X177813720Y-64122569D01*
X177522569Y-64413720D01*
X177365000Y-64794126D01*
X177365000Y-65205874D01*
X177522569Y-65586280D01*
X177813720Y-65877431D01*
X178194126Y-66035000D01*
X178605874Y-66035000D01*
X178986280Y-65877431D01*
X179277431Y-65586280D01*
X179435000Y-65205874D01*
X179435000Y-64794126D01*
X179277431Y-64413720D01*
X179185557Y-64321846D01*
X179330884Y-64321846D01*
X179711290Y-64164277D01*
X180002441Y-63873126D01*
X180160010Y-63492720D01*
X180160010Y-63080972D01*
X180002441Y-62700566D01*
X179711290Y-62409415D01*
X179330884Y-62251846D01*
X178919136Y-62251846D01*
X178585625Y-62389991D01*
X178569146Y-62307145D01*
X178440759Y-62115000D01*
X178569146Y-61922855D01*
X178657235Y-61480000D01*
X178569146Y-61037145D01*
X178440759Y-60845000D01*
X178569146Y-60652855D01*
X178657235Y-60210000D01*
X178569146Y-59767145D01*
X178440759Y-59575000D01*
X178569146Y-59382855D01*
X178657235Y-58940000D01*
X178569146Y-58497145D01*
X178440759Y-58305000D01*
X178569146Y-58112855D01*
X178657235Y-57670000D01*
X178569146Y-57227145D01*
X178318289Y-56851711D01*
X177942855Y-56600854D01*
X177611783Y-56535000D01*
X177388217Y-56535000D01*
X177057145Y-56600854D01*
X177039164Y-56612869D01*
X176977765Y-56571843D01*
X176730000Y-56522560D01*
X175730000Y-56522560D01*
X175482235Y-56571843D01*
X175272191Y-56712191D01*
X175131843Y-56922235D01*
X175082560Y-57170000D01*
X175082560Y-58170000D01*
X175131843Y-58417765D01*
X175184963Y-58497264D01*
X175175614Y-58519885D01*
X175286303Y-58690000D01*
X175365266Y-58690000D01*
X175482235Y-58768157D01*
X175730000Y-58817440D01*
X176367144Y-58817440D01*
X176342765Y-58940000D01*
X176430854Y-59382855D01*
X176480000Y-59456407D01*
X176480000Y-59693593D01*
X176430854Y-59767145D01*
X176342765Y-60210000D01*
X176370765Y-60350765D01*
X176341783Y-60345000D01*
X176118217Y-60345000D01*
X175787145Y-60410854D01*
X175713593Y-60460000D01*
X175286303Y-60460000D01*
X175175614Y-60630115D01*
X175187350Y-60658512D01*
X175302250Y-60825532D01*
X175160854Y-61037145D01*
X175072765Y-61480000D01*
X163970657Y-61480000D01*
X164074092Y-60960000D01*
X163958839Y-60380582D01*
X163630625Y-59889375D01*
X163488075Y-59794126D01*
X165965000Y-59794126D01*
X165965000Y-60205874D01*
X166122569Y-60586280D01*
X166413720Y-60877431D01*
X166794126Y-61035000D01*
X167205874Y-61035000D01*
X167586280Y-60877431D01*
X167877431Y-60586280D01*
X168035000Y-60205874D01*
X168035000Y-59794126D01*
X167877431Y-59413720D01*
X167823826Y-59360115D01*
X175175614Y-59360115D01*
X175187350Y-59388512D01*
X175315643Y-59575000D01*
X175187350Y-59761488D01*
X175175614Y-59789885D01*
X175286303Y-59960000D01*
X175756841Y-59960000D01*
X175809881Y-59994411D01*
X175865101Y-59960000D01*
X175980000Y-59960000D01*
X175980000Y-59190000D01*
X175865101Y-59190000D01*
X175809881Y-59155589D01*
X175756841Y-59190000D01*
X175286303Y-59190000D01*
X175175614Y-59360115D01*
X167823826Y-59360115D01*
X167586280Y-59122569D01*
X167205874Y-58965000D01*
X166794126Y-58965000D01*
X166413720Y-59122569D01*
X166122569Y-59413720D01*
X165965000Y-59794126D01*
X163488075Y-59794126D01*
X163332239Y-59690000D01*
X163630625Y-59490625D01*
X163958839Y-58999418D01*
X164074092Y-58420000D01*
X163958839Y-57840582D01*
X163630625Y-57349375D01*
X163332239Y-57150000D01*
X163630625Y-56950625D01*
X163958839Y-56459418D01*
X164074092Y-55880000D01*
X163958839Y-55300582D01*
X163630625Y-54809375D01*
X163332239Y-54610000D01*
X163630625Y-54410625D01*
X163958839Y-53919418D01*
X164074092Y-53340000D01*
X163958839Y-52760582D01*
X163630625Y-52269375D01*
X163332239Y-52070000D01*
X163630625Y-51870625D01*
X163958839Y-51379418D01*
X164074092Y-50800000D01*
X163958839Y-50220582D01*
X163630625Y-49729375D01*
X163308031Y-49513824D01*
X163624170Y-49294126D01*
X167465000Y-49294126D01*
X167465000Y-49705874D01*
X167586831Y-50000000D01*
X167465000Y-50294126D01*
X167465000Y-50705874D01*
X167586831Y-51000000D01*
X167465000Y-51294126D01*
X167465000Y-51705874D01*
X167586831Y-52000000D01*
X167465000Y-52294126D01*
X167465000Y-52705874D01*
X167580497Y-52984708D01*
X167465000Y-53263542D01*
X167465000Y-53675290D01*
X167593165Y-53984708D01*
X167465000Y-54294126D01*
X167465000Y-54705874D01*
X167622569Y-55086280D01*
X167913720Y-55377431D01*
X168294126Y-55535000D01*
X168705874Y-55535000D01*
X169000000Y-55413169D01*
X169125131Y-55465000D01*
X169044126Y-55465000D01*
X168663720Y-55622569D01*
X168372569Y-55913720D01*
X168215000Y-56294126D01*
X168215000Y-56705874D01*
X168372569Y-57086280D01*
X168663720Y-57377431D01*
X169044126Y-57535000D01*
X169455874Y-57535000D01*
X169836280Y-57377431D01*
X170127431Y-57086280D01*
X170285000Y-56705874D01*
X170285000Y-56294126D01*
X170127431Y-55913720D01*
X169836280Y-55622569D01*
X169624869Y-55535000D01*
X169705874Y-55535000D01*
X170086280Y-55377431D01*
X170377431Y-55086280D01*
X170535000Y-54705874D01*
X170535000Y-54294126D01*
X170377431Y-53913720D01*
X170257837Y-53794126D01*
X177465000Y-53794126D01*
X177465000Y-54205874D01*
X177586831Y-54500000D01*
X177465000Y-54794126D01*
X177465000Y-55205874D01*
X177622569Y-55586280D01*
X177913720Y-55877431D01*
X178294126Y-56035000D01*
X178705874Y-56035000D01*
X179086280Y-55877431D01*
X179377431Y-55586280D01*
X179535000Y-55205874D01*
X179535000Y-54794126D01*
X179413169Y-54500000D01*
X179535000Y-54205874D01*
X179535000Y-53794126D01*
X179377431Y-53413720D01*
X179086280Y-53122569D01*
X178705874Y-52965000D01*
X178294126Y-52965000D01*
X177913720Y-53122569D01*
X177622569Y-53413720D01*
X177465000Y-53794126D01*
X170257837Y-53794126D01*
X170086280Y-53622569D01*
X169705874Y-53465000D01*
X169535000Y-53465000D01*
X169535000Y-53263542D01*
X169419503Y-52984708D01*
X169535000Y-52705874D01*
X169535000Y-52294126D01*
X169413169Y-52000000D01*
X169535000Y-51705874D01*
X169535000Y-51535000D01*
X169808687Y-51535000D01*
X170189093Y-51377431D01*
X170480244Y-51086280D01*
X170637813Y-50705874D01*
X170637813Y-50294126D01*
X170515982Y-50000000D01*
X170637813Y-49705874D01*
X170637813Y-49294126D01*
X170480244Y-48913720D01*
X170189093Y-48622569D01*
X169808687Y-48465000D01*
X169396939Y-48465000D01*
X169051407Y-48608124D01*
X168705874Y-48465000D01*
X168294126Y-48465000D01*
X167913720Y-48622569D01*
X167622569Y-48913720D01*
X167465000Y-49294126D01*
X163624170Y-49294126D01*
X163629085Y-49290711D01*
X163921345Y-48853265D01*
X163832718Y-48633000D01*
X162933000Y-48633000D01*
X162933000Y-48653000D01*
X162187000Y-48653000D01*
X162187000Y-48633000D01*
X162167000Y-48633000D01*
X162167000Y-47887000D01*
X162187000Y-47887000D01*
X162187000Y-47867000D01*
X162933000Y-47867000D01*
X162933000Y-47887000D01*
X163832718Y-47887000D01*
X163921345Y-47666735D01*
X163629085Y-47229289D01*
X163567075Y-47186196D01*
X163657765Y-47168157D01*
X163867809Y-47027809D01*
X164008157Y-46817765D01*
X164057440Y-46570000D01*
X164057440Y-44870000D01*
X164008157Y-44622235D01*
X163867809Y-44412191D01*
X163657765Y-44271843D01*
X163410000Y-44222560D01*
X162294017Y-44222560D01*
X162309455Y-44199455D01*
X162591870Y-44010752D01*
X162937509Y-43942000D01*
X173587208Y-43942000D01*
X173466533Y-43991985D01*
G04 #@! TD*
M02*
