M48
;DRILL file {KiCad 5.0.2-bee76a0~70~ubuntu18.04.1} date Wed 02 Jan 2019 09:11:18 PM EST
;FORMAT={-:-/ absolute / inch / decimal}
FMAT,2
INCH,TZ
T1C0.0157
T2C0.0256
T3C0.0394
%
G90
G05
T1
X6.4665Y-3.2677
X6.4827Y-3.655
X6.5059Y-2.9823
X6.5256Y-3.5531
X6.5305Y-3.075
X6.5354Y-3.0217
X6.565Y-3.563
X6.5748Y-2.3622
X6.5846Y-4.2224
X6.5978Y-3.244
X6.6142Y-2.9921
X6.624Y-3.1496
X6.6339Y-1.9488
X6.6339Y-1.9882
X6.6339Y-2.0276
X6.6339Y-2.0669
X6.6339Y-2.1051
X6.6339Y-2.1457
X6.6428Y-3.2883
X6.6535Y-2.815
X6.6535Y-2.9134
X6.6556Y-1.7586
X6.6634Y-2.2244
X6.6634Y-2.5492
X6.6732Y-2.1457
X6.6732Y-3.1496
X6.6732Y-3.5728
X6.6773Y-1.9488
X6.6773Y-1.9882
X6.6826Y-2.94
X6.6929Y-1.8406
X6.695Y-1.7586
X6.695Y-1.798
X6.7022Y-3.0901
X6.713Y-3.1624
X6.7224Y-2.8839
X6.7344Y-1.7586
X6.7344Y-1.798
X6.752Y-3.002
X6.752Y-3.6614
X6.7618Y-2.5394
X6.7737Y-1.7586
X6.7737Y-1.798
X6.7802Y-2.6578
X6.7897Y-2.8642
X6.8199Y-2.8248
X6.8366Y-3.0714
X6.8406Y-3.3563
X6.8425Y-3.4016
X6.8525Y-1.7665
X6.8525Y-1.8059
X6.8799Y-3.061
X6.8918Y-1.7665
X6.8918Y-1.8059
X6.8996Y-3.6417
X6.9134Y-3.3307
X6.9291Y-3.248
X6.9301Y-2.8623
X6.9312Y-1.7665
X6.9312Y-1.8059
X6.9488Y-3.1988
X6.9587Y-2.8346
X6.9612Y-2.7861
X6.9706Y-1.7665
X6.9706Y-1.8059
X6.973Y-2.0781
X6.9783Y-2.7362
X6.9783Y-3.1496
X6.9921Y-3.6614
X7.0079Y-3.1791
X7.0084Y-2.8253
X7.0177Y-3.4646
X7.0236Y-2.5591
X7.0266Y-2.6668
X7.0276Y-2.126
X7.0276Y-2.1654
X7.0276Y-4.2323
X7.0305Y-2.9641
X7.0396Y-3.4318
X7.0522Y-2.4916
X7.0577Y-3.3266
X7.063Y-3.3657
X7.0719Y-2.9366
X7.0728Y-3.0295
X7.0732Y-3.4114
X7.0883Y-3.0866
X7.1075Y-2.9987
X7.126Y-3.6713
X7.1402Y-3.5586
T2
X6.9382Y-2.2705
X6.9382Y-2.3205
X6.9382Y-2.3705
X6.9382Y-2.4205
X6.9382Y-2.4705
X6.9882Y-2.2705
X6.9882Y-2.3205
X6.9882Y-2.3705
X6.9882Y-2.4205
X6.9882Y-2.4705
T3
X7.0177Y-3.75
X7.0177Y-3.85
X7.0177Y-3.95
X7.2Y-1.8
X7.2Y-1.9
X7.2Y-2.
X7.2Y-2.1
X7.2Y-2.2
X7.2Y-2.3
X7.2Y-2.4
X7.2Y-2.5
X7.2Y-2.6
X7.2Y-2.7
X7.2Y-2.8
X7.2Y-2.9
X7.2Y-3.
X7.2Y-3.1
X7.2Y-3.2
X7.2Y-3.3
X7.2Y-3.4
X7.2Y-3.5
X7.2Y-3.6
X7.2Y-3.7
X7.2Y-3.8
X7.2Y-3.9
X7.2Y-4.
X7.2Y-4.1
X7.2Y-4.2
X7.2Y-1.8
X7.2Y-1.9
X7.2Y-2.
X7.2Y-2.1
X7.2Y-2.2
X7.2Y-2.3
X7.2Y-2.4
X7.2Y-2.5
X7.2Y-2.6
X7.2Y-2.7
X7.2Y-2.8
X7.2Y-2.9
X7.2Y-3.
X7.2Y-3.1
X7.2Y-3.2
X7.2Y-3.3
X7.2Y-3.4
X7.2Y-3.5
X7.2Y-3.6
X7.2Y-3.7
X7.2Y-3.8
X7.2Y-3.9
X7.2Y-4.
X7.2Y-4.1
X7.2Y-4.2
X6.4Y-1.8
X6.4Y-1.9
X6.4Y-2.
X6.4Y-2.1
X6.4Y-2.2
X6.4Y-2.3
X6.4Y-2.4
X6.4Y-2.5
X6.4Y-2.6
X6.4Y-2.7
X6.4Y-2.8
X6.4Y-2.9
X6.4Y-3.
X6.4Y-3.1
X6.4Y-3.2
X6.4Y-3.3
X6.4Y-3.4
X6.4Y-3.5
X6.4Y-3.6
X6.4Y-3.7
X6.4Y-3.8
X6.4Y-3.9
X6.4Y-4.
X6.4Y-4.1
X6.4Y-4.2
X6.5846Y-3.75
X6.5846Y-3.85
X6.5846Y-3.95
X7.2Y-1.8
X7.2Y-1.9
X7.2Y-2.
X7.2Y-2.1
X7.2Y-2.2
X7.2Y-2.3
X7.2Y-2.4
X7.2Y-2.5
X7.2Y-2.6
X7.2Y-2.7
X7.2Y-2.8
X7.2Y-2.9
X7.2Y-3.
X7.2Y-3.1
X7.2Y-3.2
X7.2Y-3.3
X7.2Y-3.4
X7.2Y-3.5
X7.2Y-3.6
X7.2Y-3.7
X7.2Y-3.8
X7.2Y-3.9
X7.2Y-4.
X7.2Y-4.1
X7.2Y-4.2
T0
M30
