G04 #@! TF.GenerationSoftware,KiCad,Pcbnew,5.0.2-bee76a0~70~ubuntu18.04.1*
G04 #@! TF.CreationDate,2018-12-16T21:13:16-05:00*
G04 #@! TF.ProjectId,stm32 prototype,73746d33-3220-4707-926f-746f74797065,rev?*
G04 #@! TF.SameCoordinates,Original*
G04 #@! TF.FileFunction,Copper,L3,Inr*
G04 #@! TF.FilePolarity,Positive*
%FSLAX46Y46*%
G04 Gerber Fmt 4.6, Leading zero omitted, Abs format (unit mm)*
G04 Created by KiCad (PCBNEW 5.0.2-bee76a0~70~ubuntu18.04.1) date Sun 16 Dec 2018 09:13:16 PM EST*
%MOMM*%
%LPD*%
G01*
G04 APERTURE LIST*
G04 #@! TA.AperFunction,ViaPad*
%ADD10O,1.700000X1.700000*%
G04 #@! TD*
G04 #@! TA.AperFunction,ViaPad*
%ADD11R,1.700000X1.700000*%
G04 #@! TD*
G04 #@! TA.AperFunction,ViaPad*
%ADD12R,2.000000X2.000000*%
G04 #@! TD*
G04 #@! TA.AperFunction,ViaPad*
%ADD13C,2.000000*%
G04 #@! TD*
G04 #@! TA.AperFunction,ViaPad*
%ADD14C,0.800000*%
G04 #@! TD*
G04 #@! TA.AperFunction,Conductor*
%ADD15C,0.254000*%
G04 #@! TD*
G04 APERTURE END LIST*
D10*
G04 #@! TO.N,Net-(J2-Pad6)*
G04 #@! TO.C,J2*
X152400000Y-127000000D03*
G04 #@! TO.N,Net-(J2-Pad5)*
X154940000Y-127000000D03*
G04 #@! TO.N,Net-(J2-Pad4)*
X157480000Y-127000000D03*
G04 #@! TO.N,Net-(J2-Pad3)*
X160020000Y-127000000D03*
G04 #@! TO.N,Net-(J2-Pad2)*
X162560000Y-127000000D03*
D11*
G04 #@! TO.N,Net-(J2-Pad1)*
X165100000Y-127000000D03*
G04 #@! TD*
D12*
G04 #@! TO.N,Net-(C20-Pad2)*
G04 #@! TO.C,SW2*
X210976416Y-89476187D03*
D13*
G04 #@! TO.N,N/C*
X210976416Y-95976187D03*
G04 #@! TO.N,GND*
X206476416Y-89476187D03*
G04 #@! TO.N,N/C*
X206476416Y-95976187D03*
G04 #@! TD*
D10*
G04 #@! TO.N,FTDI_ST_RXD*
G04 #@! TO.C,J1*
X139250000Y-110120000D03*
G04 #@! TO.N,FTDI_ST_TXD*
X139250000Y-107580000D03*
G04 #@! TO.N,N/C*
X139250000Y-105040000D03*
D11*
G04 #@! TO.N,GND*
X139250000Y-102500000D03*
G04 #@! TD*
D10*
G04 #@! TO.N,GND*
G04 #@! TO.C,J3*
X164530000Y-115750000D03*
G04 #@! TO.N,FTDI_CTS*
X161990000Y-115750000D03*
G04 #@! TO.N,FTDI_ST_RTS*
X159450000Y-115750000D03*
G04 #@! TO.N,N/C*
X156910000Y-115750000D03*
X154370000Y-115750000D03*
X151830000Y-115750000D03*
X149290000Y-115750000D03*
D11*
G04 #@! TO.N,+5V*
X146750000Y-115750000D03*
G04 #@! TD*
D10*
G04 #@! TO.N,GND*
G04 #@! TO.C,J4*
X207575001Y-123025001D03*
G04 #@! TO.N,+3V3*
X207575001Y-120485001D03*
G04 #@! TO.N,+5V*
X207575001Y-117945001D03*
G04 #@! TO.N,I2C1_SMBA*
X207575001Y-115405001D03*
G04 #@! TO.N,I2C1_SCL*
X207575001Y-112865001D03*
D11*
G04 #@! TO.N,I2C1_SDA*
X207575001Y-110325001D03*
G04 #@! TD*
G04 #@! TO.N,I2C1_SDA*
G04 #@! TO.C,J5*
X211225001Y-110325001D03*
D10*
G04 #@! TO.N,I2C1_SCL*
X211225001Y-112865001D03*
G04 #@! TO.N,I2C1_SMBA*
X211225001Y-115405001D03*
G04 #@! TO.N,+5V*
X211225001Y-117945001D03*
G04 #@! TO.N,+3V3*
X211225001Y-120485001D03*
G04 #@! TO.N,GND*
X211225001Y-123025001D03*
G04 #@! TD*
G04 #@! TO.N,GND*
G04 #@! TO.C,J6*
X214875001Y-123025001D03*
G04 #@! TO.N,+3V3*
X214875001Y-120485001D03*
G04 #@! TO.N,+5V*
X214875001Y-117945001D03*
G04 #@! TO.N,I2C1_SMBA*
X214875001Y-115405001D03*
G04 #@! TO.N,I2C1_SCL*
X214875001Y-112865001D03*
D11*
G04 #@! TO.N,I2C1_SDA*
X214875001Y-110325001D03*
G04 #@! TD*
G04 #@! TO.N,I2C1_SDA*
G04 #@! TO.C,J7*
X218525001Y-110325001D03*
D10*
G04 #@! TO.N,I2C1_SCL*
X218525001Y-112865001D03*
G04 #@! TO.N,I2C1_SMBA*
X218525001Y-115405001D03*
G04 #@! TO.N,+5V*
X218525001Y-117945001D03*
G04 #@! TO.N,+3V3*
X218525001Y-120485001D03*
G04 #@! TO.N,GND*
X218525001Y-123025001D03*
G04 #@! TD*
G04 #@! TO.N,GND*
G04 #@! TO.C,J12*
X187960000Y-127000000D03*
G04 #@! TO.N,+3V3*
X190500000Y-127000000D03*
G04 #@! TO.N,USART2_CTS*
X193040000Y-127000000D03*
G04 #@! TO.N,USART2_RTS*
X195580000Y-127000000D03*
G04 #@! TO.N,USART2_TX*
X198120000Y-127000000D03*
G04 #@! TO.N,USART2_RX*
X200660000Y-127000000D03*
D11*
G04 #@! TO.N,USART2_CK*
X203200000Y-127000000D03*
G04 #@! TD*
D10*
G04 #@! TO.N,GND*
G04 #@! TO.C,J13*
X182880000Y-127000000D03*
G04 #@! TO.N,+3V3*
X180340000Y-127000000D03*
G04 #@! TO.N,SPI3_MOSI*
X177800000Y-127000000D03*
G04 #@! TO.N,SPI3_MISO*
X175260000Y-127000000D03*
G04 #@! TO.N,SPI3_SCK*
X172720000Y-127000000D03*
D11*
G04 #@! TO.N,SPI3_NSS*
X170180000Y-127000000D03*
G04 #@! TD*
D10*
G04 #@! TO.N,PC0*
G04 #@! TO.C,J14*
X213360000Y-68580000D03*
G04 #@! TO.N,PC1*
X210820000Y-68580000D03*
G04 #@! TO.N,PC2*
X208280000Y-68580000D03*
G04 #@! TO.N,PA1*
X205740000Y-68580000D03*
G04 #@! TO.N,PA2*
X203200000Y-68580000D03*
G04 #@! TO.N,PC4*
X200660000Y-68580000D03*
G04 #@! TO.N,PC5*
X198120000Y-68580000D03*
G04 #@! TO.N,PB0*
X195580000Y-68580000D03*
G04 #@! TO.N,PB1*
X193040000Y-68580000D03*
G04 #@! TO.N,PB2*
X190500000Y-68580000D03*
G04 #@! TO.N,PE7*
X187960000Y-68580000D03*
G04 #@! TO.N,PE8*
X185420000Y-68580000D03*
G04 #@! TO.N,PE9*
X182880000Y-68580000D03*
G04 #@! TO.N,PE10*
X180340000Y-68580000D03*
G04 #@! TO.N,PE11*
X177800000Y-68580000D03*
G04 #@! TO.N,PE12*
X175260000Y-68580000D03*
G04 #@! TO.N,PE13*
X172720000Y-68580000D03*
G04 #@! TO.N,PE14*
X170180000Y-68580000D03*
G04 #@! TO.N,PE15*
X167640000Y-68580000D03*
G04 #@! TO.N,PB10*
X165100000Y-68580000D03*
G04 #@! TO.N,PB11*
X162560000Y-68580000D03*
G04 #@! TO.N,PB12*
X160020000Y-68580000D03*
G04 #@! TO.N,PB13*
X157480000Y-68580000D03*
G04 #@! TO.N,PB14*
X154940000Y-68580000D03*
G04 #@! TO.N,PB15*
X152400000Y-68580000D03*
G04 #@! TO.N,PD8*
X149860000Y-68580000D03*
G04 #@! TO.N,PD9*
X147320000Y-68580000D03*
G04 #@! TO.N,PD10*
X144780000Y-68580000D03*
G04 #@! TO.N,PD11*
X142240000Y-68580000D03*
D11*
G04 #@! TO.N,PD12*
X139700000Y-68580000D03*
G04 #@! TD*
D10*
G04 #@! TO.N,PE2*
G04 #@! TO.C,J9*
X219000000Y-99500000D03*
G04 #@! TO.N,PE3*
X219000000Y-96960000D03*
G04 #@! TO.N,PE4*
X219000000Y-94420000D03*
G04 #@! TO.N,PE5*
X219000000Y-91880000D03*
G04 #@! TO.N,PE6*
X219000000Y-89340000D03*
G04 #@! TO.N,PC13*
X219000000Y-86800000D03*
G04 #@! TO.N,PC14*
X219000000Y-84260000D03*
D11*
G04 #@! TO.N,PC15*
X219000000Y-81720000D03*
G04 #@! TD*
D10*
G04 #@! TO.N,PD2*
G04 #@! TO.C,J10*
X180750000Y-117420000D03*
G04 #@! TO.N,PD1*
X180750000Y-119960000D03*
D11*
G04 #@! TO.N,PD0*
X180750000Y-122500000D03*
G04 #@! TD*
D10*
G04 #@! TO.N,PE1*
G04 #@! TO.C,J11*
X197910000Y-121000000D03*
G04 #@! TO.N,PE0*
X195370000Y-121000000D03*
G04 #@! TO.N,PB9*
X192830000Y-121000000D03*
G04 #@! TO.N,PB8*
X190290000Y-121000000D03*
D11*
G04 #@! TO.N,PB4*
X187750000Y-121000000D03*
G04 #@! TD*
D14*
G04 #@! TO.N,PA2*
X193773813Y-93326416D03*
G04 #@! TO.N,PC4*
X187250000Y-94750000D03*
G04 #@! TO.N,GND*
X166573813Y-81876416D03*
X166573813Y-78876416D03*
X204123148Y-74740523D03*
X193123148Y-80740523D03*
X140995584Y-98421813D03*
X157582187Y-105885584D03*
X157582187Y-108685584D03*
X147635584Y-91367813D03*
X147635584Y-92367813D03*
X147635584Y-93367813D03*
X147635584Y-94367813D03*
X148635584Y-91367813D03*
X148635584Y-92367813D03*
X148635584Y-93367813D03*
X148635584Y-94367813D03*
X169773813Y-109576416D03*
X169773813Y-107826416D03*
X159523813Y-120826416D03*
X194273813Y-112076416D03*
X174523813Y-86576416D03*
X177273813Y-86576416D03*
X139685584Y-75967813D03*
X150435584Y-89217813D03*
X149435584Y-89217813D03*
X148435584Y-89217813D03*
X150435584Y-88217813D03*
X150435584Y-87217813D03*
X150435584Y-86217813D03*
X147435584Y-89217813D03*
X147435584Y-88217813D03*
X148435584Y-88217813D03*
X149435584Y-88217813D03*
X148435584Y-87217813D03*
X147435584Y-87217813D03*
X149435584Y-87217813D03*
X145185584Y-74467813D03*
X166398803Y-84867312D03*
X206773813Y-103576416D03*
X205523813Y-100326416D03*
X204023813Y-98826416D03*
X201023813Y-98826416D03*
X200773813Y-92826416D03*
X195773813Y-87326416D03*
X194523813Y-87326416D03*
X190773813Y-97326416D03*
X200023813Y-106326416D03*
X200023813Y-111826416D03*
X197011153Y-87339076D03*
X191265529Y-86576447D03*
X166573813Y-87876416D03*
G04 #@! TO.N,+3V3*
X153073813Y-100376416D03*
X153073813Y-97376416D03*
X153073813Y-94376416D03*
X153073813Y-91376416D03*
X153073813Y-88376416D03*
X153073813Y-85376416D03*
X153073813Y-82376416D03*
X153073813Y-79376416D03*
X200123148Y-74740523D03*
X138835584Y-92167813D03*
X138835584Y-91167813D03*
X139835584Y-91167813D03*
X139835584Y-91167813D03*
X139835584Y-91167813D03*
X139835584Y-92167813D03*
X140835584Y-92167813D03*
X140835584Y-91167813D03*
X141835584Y-92167813D03*
X141835584Y-91167813D03*
X169773813Y-111076416D03*
X164523813Y-120826416D03*
X194273813Y-110576416D03*
X173023813Y-86576416D03*
X137685584Y-86217813D03*
X137685584Y-84717813D03*
X137685584Y-83217813D03*
X137685584Y-81717813D03*
X137685584Y-80217813D03*
X137685584Y-78717813D03*
X138685584Y-78717813D03*
X138685584Y-86217813D03*
X138685584Y-84717813D03*
X138685584Y-80217813D03*
X138685584Y-81717813D03*
X138685584Y-83217813D03*
X139685584Y-77967813D03*
X140685584Y-77967813D03*
X141685584Y-77967813D03*
X142685584Y-77967813D03*
X139685584Y-86717813D03*
X140685584Y-86717813D03*
X141685584Y-86717813D03*
X142685584Y-86717813D03*
X202273813Y-92826416D03*
X198273813Y-90076416D03*
X194523813Y-91326416D03*
X200023813Y-104826416D03*
X200023813Y-110326416D03*
X206672925Y-87394117D03*
G04 #@! TO.N,+5V*
X149782187Y-110685584D03*
X147435584Y-99367813D03*
X147435584Y-98367813D03*
X147435584Y-97367813D03*
X147435584Y-96367813D03*
X148435584Y-96367813D03*
X148435584Y-97367813D03*
X148435584Y-98367813D03*
X148435584Y-99367813D03*
X150435584Y-78717813D03*
X148435584Y-77717813D03*
X148435584Y-75717813D03*
X148435584Y-76717813D03*
X149435584Y-77717813D03*
X150435584Y-76717813D03*
X149435584Y-76717813D03*
X150435584Y-77717813D03*
X147435584Y-75717813D03*
X147435584Y-77717813D03*
X147435584Y-76717813D03*
X150435584Y-75717813D03*
X149435584Y-75717813D03*
G04 #@! TO.N,GND*
X166498648Y-99826261D03*
X194273813Y-116926407D03*
X196523813Y-102076416D03*
G04 #@! TO.N,MEM_CHIP_SELECT*
X190773813Y-81826416D03*
X190773813Y-85576416D03*
G04 #@! TO.N,ST_WP*
X193773813Y-84076416D03*
G04 #@! TO.N,GND*
X166545167Y-96575011D03*
X166552873Y-93774990D03*
X166548803Y-90774990D03*
X211076416Y-84476187D03*
X193517328Y-87507991D03*
G04 #@! TO.N,+3V3*
X220500000Y-103000000D03*
X194250000Y-115750000D03*
X149782187Y-103725010D03*
X189861358Y-86663961D03*
X192475010Y-90076416D03*
X217000000Y-108000000D03*
G04 #@! TO.N,ST_WP*
X192712089Y-86084607D03*
G04 #@! TO.N,TMS_SWDIO*
X157000000Y-120750000D03*
X159500000Y-117500000D03*
G04 #@! TO.N,Net-(R31-Pad2)*
X191750000Y-91250000D03*
X200250000Y-86500000D03*
G04 #@! TO.N,PE1*
X197737340Y-113762660D03*
G04 #@! TO.N,PE0*
X196250000Y-114500000D03*
G04 #@! TO.N,PB9*
X195000000Y-114750000D03*
G04 #@! TO.N,PB8*
X191273813Y-114576416D03*
G04 #@! TO.N,PD12*
X171000000Y-98500000D03*
G04 #@! TO.N,PD11*
X170987340Y-97262660D03*
G04 #@! TO.N,PD10*
X170750000Y-96250000D03*
G04 #@! TO.N,PD9*
X171000000Y-95000000D03*
G04 #@! TO.N,PD8*
X170750000Y-93750000D03*
G04 #@! TO.N,PB15*
X171000000Y-92750000D03*
G04 #@! TO.N,PB14*
X171000000Y-91500000D03*
G04 #@! TO.N,PB13*
X171250000Y-90000000D03*
G04 #@! TO.N,PB12*
X175000000Y-93250000D03*
G04 #@! TO.N,PA1*
X194817334Y-92975010D03*
G04 #@! TO.N,PC2*
X202750000Y-88500000D03*
G04 #@! TO.N,PC1*
X202250000Y-91000000D03*
G04 #@! TO.N,PC0*
X204000000Y-91500000D03*
G04 #@! TO.N,PE6*
X190750000Y-104750000D03*
G04 #@! TO.N,PE5*
X195000000Y-106500000D03*
X210000000Y-104750000D03*
G04 #@! TO.N,PE4*
X190481954Y-106181701D03*
X201750000Y-110000000D03*
G04 #@! TD*
D15*
G04 #@! TO.N,+3V3*
G36*
X138602235Y-67131843D02*
X138392191Y-67272191D01*
X138251843Y-67482235D01*
X138202560Y-67730000D01*
X138202560Y-69430000D01*
X138251843Y-69677765D01*
X138392191Y-69887809D01*
X138602235Y-70028157D01*
X138850000Y-70077440D01*
X140550000Y-70077440D01*
X140797765Y-70028157D01*
X141007809Y-69887809D01*
X141148157Y-69677765D01*
X141157184Y-69632381D01*
X141169375Y-69650625D01*
X141660582Y-69978839D01*
X142093744Y-70065000D01*
X142386256Y-70065000D01*
X142819418Y-69978839D01*
X143310625Y-69650625D01*
X143510000Y-69352239D01*
X143709375Y-69650625D01*
X144200582Y-69978839D01*
X144633744Y-70065000D01*
X144926256Y-70065000D01*
X145359418Y-69978839D01*
X145850625Y-69650625D01*
X146050000Y-69352239D01*
X146249375Y-69650625D01*
X146740582Y-69978839D01*
X147173744Y-70065000D01*
X147466256Y-70065000D01*
X147899418Y-69978839D01*
X148390625Y-69650625D01*
X148590000Y-69352239D01*
X148789375Y-69650625D01*
X149280582Y-69978839D01*
X149713744Y-70065000D01*
X150006256Y-70065000D01*
X150439418Y-69978839D01*
X150930625Y-69650625D01*
X151130000Y-69352239D01*
X151329375Y-69650625D01*
X151820582Y-69978839D01*
X152253744Y-70065000D01*
X152546256Y-70065000D01*
X152979418Y-69978839D01*
X153470625Y-69650625D01*
X153670000Y-69352239D01*
X153869375Y-69650625D01*
X154360582Y-69978839D01*
X154793744Y-70065000D01*
X155086256Y-70065000D01*
X155519418Y-69978839D01*
X156010625Y-69650625D01*
X156210000Y-69352239D01*
X156409375Y-69650625D01*
X156900582Y-69978839D01*
X157333744Y-70065000D01*
X157626256Y-70065000D01*
X158059418Y-69978839D01*
X158550625Y-69650625D01*
X158750000Y-69352239D01*
X158949375Y-69650625D01*
X159440582Y-69978839D01*
X159873744Y-70065000D01*
X160166256Y-70065000D01*
X160599418Y-69978839D01*
X161090625Y-69650625D01*
X161290000Y-69352239D01*
X161489375Y-69650625D01*
X161980582Y-69978839D01*
X162413744Y-70065000D01*
X162706256Y-70065000D01*
X163139418Y-69978839D01*
X163630625Y-69650625D01*
X163830000Y-69352239D01*
X164029375Y-69650625D01*
X164520582Y-69978839D01*
X164953744Y-70065000D01*
X165246256Y-70065000D01*
X165679418Y-69978839D01*
X166170625Y-69650625D01*
X166370000Y-69352239D01*
X166569375Y-69650625D01*
X167060582Y-69978839D01*
X167493744Y-70065000D01*
X167786256Y-70065000D01*
X168219418Y-69978839D01*
X168710625Y-69650625D01*
X168910000Y-69352239D01*
X169109375Y-69650625D01*
X169600582Y-69978839D01*
X170033744Y-70065000D01*
X170326256Y-70065000D01*
X170759418Y-69978839D01*
X171250625Y-69650625D01*
X171450000Y-69352239D01*
X171649375Y-69650625D01*
X172140582Y-69978839D01*
X172573744Y-70065000D01*
X172866256Y-70065000D01*
X173299418Y-69978839D01*
X173790625Y-69650625D01*
X173990000Y-69352239D01*
X174189375Y-69650625D01*
X174680582Y-69978839D01*
X175113744Y-70065000D01*
X175406256Y-70065000D01*
X175839418Y-69978839D01*
X176330625Y-69650625D01*
X176530000Y-69352239D01*
X176729375Y-69650625D01*
X177220582Y-69978839D01*
X177653744Y-70065000D01*
X177946256Y-70065000D01*
X178379418Y-69978839D01*
X178870625Y-69650625D01*
X179070000Y-69352239D01*
X179269375Y-69650625D01*
X179760582Y-69978839D01*
X180193744Y-70065000D01*
X180486256Y-70065000D01*
X180919418Y-69978839D01*
X181410625Y-69650625D01*
X181610000Y-69352239D01*
X181809375Y-69650625D01*
X182300582Y-69978839D01*
X182733744Y-70065000D01*
X183026256Y-70065000D01*
X183459418Y-69978839D01*
X183950625Y-69650625D01*
X184150000Y-69352239D01*
X184349375Y-69650625D01*
X184840582Y-69978839D01*
X185273744Y-70065000D01*
X185566256Y-70065000D01*
X185999418Y-69978839D01*
X186490625Y-69650625D01*
X186690000Y-69352239D01*
X186889375Y-69650625D01*
X187380582Y-69978839D01*
X187813744Y-70065000D01*
X188106256Y-70065000D01*
X188539418Y-69978839D01*
X189030625Y-69650625D01*
X189230000Y-69352239D01*
X189429375Y-69650625D01*
X189920582Y-69978839D01*
X190353744Y-70065000D01*
X190646256Y-70065000D01*
X191079418Y-69978839D01*
X191570625Y-69650625D01*
X191770000Y-69352239D01*
X191969375Y-69650625D01*
X192460582Y-69978839D01*
X192893744Y-70065000D01*
X193186256Y-70065000D01*
X193619418Y-69978839D01*
X194110625Y-69650625D01*
X194310000Y-69352239D01*
X194509375Y-69650625D01*
X195000582Y-69978839D01*
X195433744Y-70065000D01*
X195726256Y-70065000D01*
X196159418Y-69978839D01*
X196650625Y-69650625D01*
X196850000Y-69352239D01*
X197049375Y-69650625D01*
X197540582Y-69978839D01*
X197973744Y-70065000D01*
X198266256Y-70065000D01*
X198699418Y-69978839D01*
X199190625Y-69650625D01*
X199390000Y-69352239D01*
X199589375Y-69650625D01*
X200080582Y-69978839D01*
X200513744Y-70065000D01*
X200806256Y-70065000D01*
X201239418Y-69978839D01*
X201730625Y-69650625D01*
X201930000Y-69352239D01*
X202129375Y-69650625D01*
X202620582Y-69978839D01*
X203053744Y-70065000D01*
X203346256Y-70065000D01*
X203779418Y-69978839D01*
X204270625Y-69650625D01*
X204470000Y-69352239D01*
X204669375Y-69650625D01*
X205160582Y-69978839D01*
X205593744Y-70065000D01*
X205886256Y-70065000D01*
X206319418Y-69978839D01*
X206810625Y-69650625D01*
X207010000Y-69352239D01*
X207209375Y-69650625D01*
X207700582Y-69978839D01*
X208133744Y-70065000D01*
X208426256Y-70065000D01*
X208859418Y-69978839D01*
X209350625Y-69650625D01*
X209550000Y-69352239D01*
X209749375Y-69650625D01*
X210240582Y-69978839D01*
X210673744Y-70065000D01*
X210966256Y-70065000D01*
X211399418Y-69978839D01*
X211890625Y-69650625D01*
X212090000Y-69352239D01*
X212289375Y-69650625D01*
X212780582Y-69978839D01*
X213213744Y-70065000D01*
X213506256Y-70065000D01*
X213939418Y-69978839D01*
X214430625Y-69650625D01*
X214758839Y-69159418D01*
X214874092Y-68580000D01*
X214758839Y-68000582D01*
X214430625Y-67509375D01*
X213939418Y-67181161D01*
X213667131Y-67127000D01*
X219987491Y-67127000D01*
X220333130Y-67195752D01*
X220615545Y-67384455D01*
X220804248Y-67666870D01*
X220873000Y-68012509D01*
X220873000Y-127987491D01*
X220804248Y-128333130D01*
X220615545Y-128615545D01*
X220333130Y-128804248D01*
X219987491Y-128873000D01*
X138012509Y-128873000D01*
X137666870Y-128804248D01*
X137384455Y-128615545D01*
X137195752Y-128333130D01*
X137127000Y-127987491D01*
X137127000Y-127000000D01*
X150885908Y-127000000D01*
X151001161Y-127579418D01*
X151329375Y-128070625D01*
X151820582Y-128398839D01*
X152253744Y-128485000D01*
X152546256Y-128485000D01*
X152979418Y-128398839D01*
X153470625Y-128070625D01*
X153670000Y-127772239D01*
X153869375Y-128070625D01*
X154360582Y-128398839D01*
X154793744Y-128485000D01*
X155086256Y-128485000D01*
X155519418Y-128398839D01*
X156010625Y-128070625D01*
X156210000Y-127772239D01*
X156409375Y-128070625D01*
X156900582Y-128398839D01*
X157333744Y-128485000D01*
X157626256Y-128485000D01*
X158059418Y-128398839D01*
X158550625Y-128070625D01*
X158750000Y-127772239D01*
X158949375Y-128070625D01*
X159440582Y-128398839D01*
X159873744Y-128485000D01*
X160166256Y-128485000D01*
X160599418Y-128398839D01*
X161090625Y-128070625D01*
X161290000Y-127772239D01*
X161489375Y-128070625D01*
X161980582Y-128398839D01*
X162413744Y-128485000D01*
X162706256Y-128485000D01*
X163139418Y-128398839D01*
X163630625Y-128070625D01*
X163642816Y-128052381D01*
X163651843Y-128097765D01*
X163792191Y-128307809D01*
X164002235Y-128448157D01*
X164250000Y-128497440D01*
X165950000Y-128497440D01*
X166197765Y-128448157D01*
X166407809Y-128307809D01*
X166548157Y-128097765D01*
X166597440Y-127850000D01*
X166597440Y-126150000D01*
X168682560Y-126150000D01*
X168682560Y-127850000D01*
X168731843Y-128097765D01*
X168872191Y-128307809D01*
X169082235Y-128448157D01*
X169330000Y-128497440D01*
X171030000Y-128497440D01*
X171277765Y-128448157D01*
X171487809Y-128307809D01*
X171628157Y-128097765D01*
X171637184Y-128052381D01*
X171649375Y-128070625D01*
X172140582Y-128398839D01*
X172573744Y-128485000D01*
X172866256Y-128485000D01*
X173299418Y-128398839D01*
X173790625Y-128070625D01*
X173990000Y-127772239D01*
X174189375Y-128070625D01*
X174680582Y-128398839D01*
X175113744Y-128485000D01*
X175406256Y-128485000D01*
X175839418Y-128398839D01*
X176330625Y-128070625D01*
X176530000Y-127772239D01*
X176729375Y-128070625D01*
X177220582Y-128398839D01*
X177653744Y-128485000D01*
X177946256Y-128485000D01*
X178379418Y-128398839D01*
X178870625Y-128070625D01*
X179086176Y-127748031D01*
X179309289Y-128069085D01*
X179746735Y-128361345D01*
X179967000Y-128272718D01*
X179967000Y-127373000D01*
X179947000Y-127373000D01*
X179947000Y-126627000D01*
X179967000Y-126627000D01*
X179967000Y-125727282D01*
X180713000Y-125727282D01*
X180713000Y-126627000D01*
X180733000Y-126627000D01*
X180733000Y-127373000D01*
X180713000Y-127373000D01*
X180713000Y-128272718D01*
X180933265Y-128361345D01*
X181370711Y-128069085D01*
X181593824Y-127748031D01*
X181809375Y-128070625D01*
X182300582Y-128398839D01*
X182733744Y-128485000D01*
X183026256Y-128485000D01*
X183459418Y-128398839D01*
X183950625Y-128070625D01*
X184278839Y-127579418D01*
X184394092Y-127000000D01*
X186445908Y-127000000D01*
X186561161Y-127579418D01*
X186889375Y-128070625D01*
X187380582Y-128398839D01*
X187813744Y-128485000D01*
X188106256Y-128485000D01*
X188539418Y-128398839D01*
X189030625Y-128070625D01*
X189246176Y-127748031D01*
X189469289Y-128069085D01*
X189906735Y-128361345D01*
X190127000Y-128272718D01*
X190127000Y-127373000D01*
X190107000Y-127373000D01*
X190107000Y-126627000D01*
X190127000Y-126627000D01*
X190127000Y-125727282D01*
X190873000Y-125727282D01*
X190873000Y-126627000D01*
X190893000Y-126627000D01*
X190893000Y-127373000D01*
X190873000Y-127373000D01*
X190873000Y-128272718D01*
X191093265Y-128361345D01*
X191530711Y-128069085D01*
X191753824Y-127748031D01*
X191969375Y-128070625D01*
X192460582Y-128398839D01*
X192893744Y-128485000D01*
X193186256Y-128485000D01*
X193619418Y-128398839D01*
X194110625Y-128070625D01*
X194310000Y-127772239D01*
X194509375Y-128070625D01*
X195000582Y-128398839D01*
X195433744Y-128485000D01*
X195726256Y-128485000D01*
X196159418Y-128398839D01*
X196650625Y-128070625D01*
X196850000Y-127772239D01*
X197049375Y-128070625D01*
X197540582Y-128398839D01*
X197973744Y-128485000D01*
X198266256Y-128485000D01*
X198699418Y-128398839D01*
X199190625Y-128070625D01*
X199390000Y-127772239D01*
X199589375Y-128070625D01*
X200080582Y-128398839D01*
X200513744Y-128485000D01*
X200806256Y-128485000D01*
X201239418Y-128398839D01*
X201730625Y-128070625D01*
X201742816Y-128052381D01*
X201751843Y-128097765D01*
X201892191Y-128307809D01*
X202102235Y-128448157D01*
X202350000Y-128497440D01*
X204050000Y-128497440D01*
X204297765Y-128448157D01*
X204507809Y-128307809D01*
X204648157Y-128097765D01*
X204697440Y-127850000D01*
X204697440Y-126150000D01*
X204648157Y-125902235D01*
X204507809Y-125692191D01*
X204297765Y-125551843D01*
X204050000Y-125502560D01*
X202350000Y-125502560D01*
X202102235Y-125551843D01*
X201892191Y-125692191D01*
X201751843Y-125902235D01*
X201742816Y-125947619D01*
X201730625Y-125929375D01*
X201239418Y-125601161D01*
X200806256Y-125515000D01*
X200513744Y-125515000D01*
X200080582Y-125601161D01*
X199589375Y-125929375D01*
X199390000Y-126227761D01*
X199190625Y-125929375D01*
X198699418Y-125601161D01*
X198266256Y-125515000D01*
X197973744Y-125515000D01*
X197540582Y-125601161D01*
X197049375Y-125929375D01*
X196850000Y-126227761D01*
X196650625Y-125929375D01*
X196159418Y-125601161D01*
X195726256Y-125515000D01*
X195433744Y-125515000D01*
X195000582Y-125601161D01*
X194509375Y-125929375D01*
X194310000Y-126227761D01*
X194110625Y-125929375D01*
X193619418Y-125601161D01*
X193186256Y-125515000D01*
X192893744Y-125515000D01*
X192460582Y-125601161D01*
X191969375Y-125929375D01*
X191753824Y-126251969D01*
X191530711Y-125930915D01*
X191093265Y-125638655D01*
X190873000Y-125727282D01*
X190127000Y-125727282D01*
X189906735Y-125638655D01*
X189469289Y-125930915D01*
X189246176Y-126251969D01*
X189030625Y-125929375D01*
X188539418Y-125601161D01*
X188106256Y-125515000D01*
X187813744Y-125515000D01*
X187380582Y-125601161D01*
X186889375Y-125929375D01*
X186561161Y-126420582D01*
X186445908Y-127000000D01*
X184394092Y-127000000D01*
X184278839Y-126420582D01*
X183950625Y-125929375D01*
X183459418Y-125601161D01*
X183026256Y-125515000D01*
X182733744Y-125515000D01*
X182300582Y-125601161D01*
X181809375Y-125929375D01*
X181593824Y-126251969D01*
X181370711Y-125930915D01*
X180933265Y-125638655D01*
X180713000Y-125727282D01*
X179967000Y-125727282D01*
X179746735Y-125638655D01*
X179309289Y-125930915D01*
X179086176Y-126251969D01*
X178870625Y-125929375D01*
X178379418Y-125601161D01*
X177946256Y-125515000D01*
X177653744Y-125515000D01*
X177220582Y-125601161D01*
X176729375Y-125929375D01*
X176530000Y-126227761D01*
X176330625Y-125929375D01*
X175839418Y-125601161D01*
X175406256Y-125515000D01*
X175113744Y-125515000D01*
X174680582Y-125601161D01*
X174189375Y-125929375D01*
X173990000Y-126227761D01*
X173790625Y-125929375D01*
X173299418Y-125601161D01*
X172866256Y-125515000D01*
X172573744Y-125515000D01*
X172140582Y-125601161D01*
X171649375Y-125929375D01*
X171637184Y-125947619D01*
X171628157Y-125902235D01*
X171487809Y-125692191D01*
X171277765Y-125551843D01*
X171030000Y-125502560D01*
X169330000Y-125502560D01*
X169082235Y-125551843D01*
X168872191Y-125692191D01*
X168731843Y-125902235D01*
X168682560Y-126150000D01*
X166597440Y-126150000D01*
X166548157Y-125902235D01*
X166407809Y-125692191D01*
X166197765Y-125551843D01*
X165950000Y-125502560D01*
X164250000Y-125502560D01*
X164002235Y-125551843D01*
X163792191Y-125692191D01*
X163651843Y-125902235D01*
X163642816Y-125947619D01*
X163630625Y-125929375D01*
X163139418Y-125601161D01*
X162706256Y-125515000D01*
X162413744Y-125515000D01*
X161980582Y-125601161D01*
X161489375Y-125929375D01*
X161290000Y-126227761D01*
X161090625Y-125929375D01*
X160599418Y-125601161D01*
X160166256Y-125515000D01*
X159873744Y-125515000D01*
X159440582Y-125601161D01*
X158949375Y-125929375D01*
X158750000Y-126227761D01*
X158550625Y-125929375D01*
X158059418Y-125601161D01*
X157626256Y-125515000D01*
X157333744Y-125515000D01*
X156900582Y-125601161D01*
X156409375Y-125929375D01*
X156210000Y-126227761D01*
X156010625Y-125929375D01*
X155519418Y-125601161D01*
X155086256Y-125515000D01*
X154793744Y-125515000D01*
X154360582Y-125601161D01*
X153869375Y-125929375D01*
X153670000Y-126227761D01*
X153470625Y-125929375D01*
X152979418Y-125601161D01*
X152546256Y-125515000D01*
X152253744Y-125515000D01*
X151820582Y-125601161D01*
X151329375Y-125929375D01*
X151001161Y-126420582D01*
X150885908Y-127000000D01*
X137127000Y-127000000D01*
X137127000Y-120544126D01*
X155965000Y-120544126D01*
X155965000Y-120955874D01*
X156122569Y-121336280D01*
X156413720Y-121627431D01*
X156794126Y-121785000D01*
X157205874Y-121785000D01*
X157586280Y-121627431D01*
X157877431Y-121336280D01*
X158035000Y-120955874D01*
X158035000Y-120620542D01*
X158488813Y-120620542D01*
X158488813Y-121032290D01*
X158646382Y-121412696D01*
X158937533Y-121703847D01*
X159317939Y-121861416D01*
X159729687Y-121861416D01*
X160110093Y-121703847D01*
X160401244Y-121412696D01*
X160558813Y-121032290D01*
X160558813Y-120620542D01*
X160401244Y-120240136D01*
X160110093Y-119948985D01*
X159729687Y-119791416D01*
X159317939Y-119791416D01*
X158937533Y-119948985D01*
X158646382Y-120240136D01*
X158488813Y-120620542D01*
X158035000Y-120620542D01*
X158035000Y-120544126D01*
X157877431Y-120163720D01*
X157586280Y-119872569D01*
X157205874Y-119715000D01*
X156794126Y-119715000D01*
X156413720Y-119872569D01*
X156122569Y-120163720D01*
X155965000Y-120544126D01*
X137127000Y-120544126D01*
X137127000Y-114900000D01*
X145252560Y-114900000D01*
X145252560Y-116600000D01*
X145301843Y-116847765D01*
X145442191Y-117057809D01*
X145652235Y-117198157D01*
X145900000Y-117247440D01*
X147600000Y-117247440D01*
X147847765Y-117198157D01*
X148057809Y-117057809D01*
X148198157Y-116847765D01*
X148207184Y-116802381D01*
X148219375Y-116820625D01*
X148710582Y-117148839D01*
X149143744Y-117235000D01*
X149436256Y-117235000D01*
X149869418Y-117148839D01*
X150360625Y-116820625D01*
X150560000Y-116522239D01*
X150759375Y-116820625D01*
X151250582Y-117148839D01*
X151683744Y-117235000D01*
X151976256Y-117235000D01*
X152409418Y-117148839D01*
X152900625Y-116820625D01*
X153100000Y-116522239D01*
X153299375Y-116820625D01*
X153790582Y-117148839D01*
X154223744Y-117235000D01*
X154516256Y-117235000D01*
X154949418Y-117148839D01*
X155440625Y-116820625D01*
X155640000Y-116522239D01*
X155839375Y-116820625D01*
X156330582Y-117148839D01*
X156763744Y-117235000D01*
X157056256Y-117235000D01*
X157489418Y-117148839D01*
X157980625Y-116820625D01*
X158180000Y-116522239D01*
X158379375Y-116820625D01*
X158600053Y-116968078D01*
X158465000Y-117294126D01*
X158465000Y-117705874D01*
X158622569Y-118086280D01*
X158913720Y-118377431D01*
X159294126Y-118535000D01*
X159705874Y-118535000D01*
X160086280Y-118377431D01*
X160377431Y-118086280D01*
X160535000Y-117705874D01*
X160535000Y-117420000D01*
X179235908Y-117420000D01*
X179351161Y-117999418D01*
X179679375Y-118490625D01*
X179977761Y-118690000D01*
X179679375Y-118889375D01*
X179351161Y-119380582D01*
X179235908Y-119960000D01*
X179351161Y-120539418D01*
X179679375Y-121030625D01*
X179697619Y-121042816D01*
X179652235Y-121051843D01*
X179442191Y-121192191D01*
X179301843Y-121402235D01*
X179252560Y-121650000D01*
X179252560Y-123350000D01*
X179301843Y-123597765D01*
X179442191Y-123807809D01*
X179652235Y-123948157D01*
X179900000Y-123997440D01*
X181600000Y-123997440D01*
X181847765Y-123948157D01*
X182057809Y-123807809D01*
X182198157Y-123597765D01*
X182247440Y-123350000D01*
X182247440Y-123025001D01*
X206060909Y-123025001D01*
X206176162Y-123604419D01*
X206504376Y-124095626D01*
X206995583Y-124423840D01*
X207428745Y-124510001D01*
X207721257Y-124510001D01*
X208154419Y-124423840D01*
X208645626Y-124095626D01*
X208973840Y-123604419D01*
X209089093Y-123025001D01*
X209710909Y-123025001D01*
X209826162Y-123604419D01*
X210154376Y-124095626D01*
X210645583Y-124423840D01*
X211078745Y-124510001D01*
X211371257Y-124510001D01*
X211804419Y-124423840D01*
X212295626Y-124095626D01*
X212623840Y-123604419D01*
X212739093Y-123025001D01*
X213360909Y-123025001D01*
X213476162Y-123604419D01*
X213804376Y-124095626D01*
X214295583Y-124423840D01*
X214728745Y-124510001D01*
X215021257Y-124510001D01*
X215454419Y-124423840D01*
X215945626Y-124095626D01*
X216273840Y-123604419D01*
X216389093Y-123025001D01*
X217010909Y-123025001D01*
X217126162Y-123604419D01*
X217454376Y-124095626D01*
X217945583Y-124423840D01*
X218378745Y-124510001D01*
X218671257Y-124510001D01*
X219104419Y-124423840D01*
X219595626Y-124095626D01*
X219923840Y-123604419D01*
X220039093Y-123025001D01*
X219923840Y-122445583D01*
X219595626Y-121954376D01*
X219273032Y-121738825D01*
X219594086Y-121515712D01*
X219886346Y-121078266D01*
X219797719Y-120858001D01*
X218898001Y-120858001D01*
X218898001Y-120878001D01*
X218152001Y-120878001D01*
X218152001Y-120858001D01*
X217252283Y-120858001D01*
X217163656Y-121078266D01*
X217455916Y-121515712D01*
X217776970Y-121738825D01*
X217454376Y-121954376D01*
X217126162Y-122445583D01*
X217010909Y-123025001D01*
X216389093Y-123025001D01*
X216273840Y-122445583D01*
X215945626Y-121954376D01*
X215623032Y-121738825D01*
X215944086Y-121515712D01*
X216236346Y-121078266D01*
X216147719Y-120858001D01*
X215248001Y-120858001D01*
X215248001Y-120878001D01*
X214502001Y-120878001D01*
X214502001Y-120858001D01*
X213602283Y-120858001D01*
X213513656Y-121078266D01*
X213805916Y-121515712D01*
X214126970Y-121738825D01*
X213804376Y-121954376D01*
X213476162Y-122445583D01*
X213360909Y-123025001D01*
X212739093Y-123025001D01*
X212623840Y-122445583D01*
X212295626Y-121954376D01*
X211973032Y-121738825D01*
X212294086Y-121515712D01*
X212586346Y-121078266D01*
X212497719Y-120858001D01*
X211598001Y-120858001D01*
X211598001Y-120878001D01*
X210852001Y-120878001D01*
X210852001Y-120858001D01*
X209952283Y-120858001D01*
X209863656Y-121078266D01*
X210155916Y-121515712D01*
X210476970Y-121738825D01*
X210154376Y-121954376D01*
X209826162Y-122445583D01*
X209710909Y-123025001D01*
X209089093Y-123025001D01*
X208973840Y-122445583D01*
X208645626Y-121954376D01*
X208323032Y-121738825D01*
X208644086Y-121515712D01*
X208936346Y-121078266D01*
X208847719Y-120858001D01*
X207948001Y-120858001D01*
X207948001Y-120878001D01*
X207202001Y-120878001D01*
X207202001Y-120858001D01*
X206302283Y-120858001D01*
X206213656Y-121078266D01*
X206505916Y-121515712D01*
X206826970Y-121738825D01*
X206504376Y-121954376D01*
X206176162Y-122445583D01*
X206060909Y-123025001D01*
X182247440Y-123025001D01*
X182247440Y-121650000D01*
X182198157Y-121402235D01*
X182057809Y-121192191D01*
X181847765Y-121051843D01*
X181802381Y-121042816D01*
X181820625Y-121030625D01*
X182148839Y-120539418D01*
X182226298Y-120150000D01*
X186252560Y-120150000D01*
X186252560Y-121850000D01*
X186301843Y-122097765D01*
X186442191Y-122307809D01*
X186652235Y-122448157D01*
X186900000Y-122497440D01*
X188600000Y-122497440D01*
X188847765Y-122448157D01*
X189057809Y-122307809D01*
X189198157Y-122097765D01*
X189207184Y-122052381D01*
X189219375Y-122070625D01*
X189710582Y-122398839D01*
X190143744Y-122485000D01*
X190436256Y-122485000D01*
X190869418Y-122398839D01*
X191360625Y-122070625D01*
X191560000Y-121772239D01*
X191759375Y-122070625D01*
X192250582Y-122398839D01*
X192683744Y-122485000D01*
X192976256Y-122485000D01*
X193409418Y-122398839D01*
X193900625Y-122070625D01*
X194100000Y-121772239D01*
X194299375Y-122070625D01*
X194790582Y-122398839D01*
X195223744Y-122485000D01*
X195516256Y-122485000D01*
X195949418Y-122398839D01*
X196440625Y-122070625D01*
X196640000Y-121772239D01*
X196839375Y-122070625D01*
X197330582Y-122398839D01*
X197763744Y-122485000D01*
X198056256Y-122485000D01*
X198489418Y-122398839D01*
X198980625Y-122070625D01*
X199308839Y-121579418D01*
X199424092Y-121000000D01*
X199308839Y-120420582D01*
X198980625Y-119929375D01*
X198489418Y-119601161D01*
X198056256Y-119515000D01*
X197763744Y-119515000D01*
X197330582Y-119601161D01*
X196839375Y-119929375D01*
X196640000Y-120227761D01*
X196440625Y-119929375D01*
X195949418Y-119601161D01*
X195516256Y-119515000D01*
X195223744Y-119515000D01*
X194790582Y-119601161D01*
X194299375Y-119929375D01*
X194100000Y-120227761D01*
X193900625Y-119929375D01*
X193409418Y-119601161D01*
X192976256Y-119515000D01*
X192683744Y-119515000D01*
X192250582Y-119601161D01*
X191759375Y-119929375D01*
X191560000Y-120227761D01*
X191360625Y-119929375D01*
X190869418Y-119601161D01*
X190436256Y-119515000D01*
X190143744Y-119515000D01*
X189710582Y-119601161D01*
X189219375Y-119929375D01*
X189207184Y-119947619D01*
X189198157Y-119902235D01*
X189057809Y-119692191D01*
X188847765Y-119551843D01*
X188600000Y-119502560D01*
X186900000Y-119502560D01*
X186652235Y-119551843D01*
X186442191Y-119692191D01*
X186301843Y-119902235D01*
X186252560Y-120150000D01*
X182226298Y-120150000D01*
X182264092Y-119960000D01*
X182148839Y-119380582D01*
X181820625Y-118889375D01*
X181522239Y-118690000D01*
X181820625Y-118490625D01*
X182148839Y-117999418D01*
X182264092Y-117420000D01*
X182148839Y-116840582D01*
X182068625Y-116720533D01*
X193238813Y-116720533D01*
X193238813Y-117132281D01*
X193396382Y-117512687D01*
X193687533Y-117803838D01*
X194067939Y-117961407D01*
X194479687Y-117961407D01*
X194860093Y-117803838D01*
X195151244Y-117512687D01*
X195308813Y-117132281D01*
X195308813Y-116720533D01*
X195151244Y-116340127D01*
X194860093Y-116048976D01*
X194479687Y-115891407D01*
X194067939Y-115891407D01*
X193687533Y-116048976D01*
X193396382Y-116340127D01*
X193238813Y-116720533D01*
X182068625Y-116720533D01*
X181820625Y-116349375D01*
X181329418Y-116021161D01*
X180896256Y-115935000D01*
X180603744Y-115935000D01*
X180170582Y-116021161D01*
X179679375Y-116349375D01*
X179351161Y-116840582D01*
X179235908Y-117420000D01*
X160535000Y-117420000D01*
X160535000Y-117294126D01*
X160378269Y-116915744D01*
X160520625Y-116820625D01*
X160720000Y-116522239D01*
X160919375Y-116820625D01*
X161410582Y-117148839D01*
X161843744Y-117235000D01*
X162136256Y-117235000D01*
X162569418Y-117148839D01*
X163060625Y-116820625D01*
X163260000Y-116522239D01*
X163459375Y-116820625D01*
X163950582Y-117148839D01*
X164383744Y-117235000D01*
X164676256Y-117235000D01*
X165109418Y-117148839D01*
X165600625Y-116820625D01*
X165928839Y-116329418D01*
X166044092Y-115750000D01*
X165928839Y-115170582D01*
X165600625Y-114679375D01*
X165138424Y-114370542D01*
X190238813Y-114370542D01*
X190238813Y-114782290D01*
X190396382Y-115162696D01*
X190687533Y-115453847D01*
X191067939Y-115611416D01*
X191479687Y-115611416D01*
X191860093Y-115453847D01*
X192151244Y-115162696D01*
X192308813Y-114782290D01*
X192308813Y-114544126D01*
X193965000Y-114544126D01*
X193965000Y-114955874D01*
X194122569Y-115336280D01*
X194413720Y-115627431D01*
X194794126Y-115785000D01*
X195205874Y-115785000D01*
X195586280Y-115627431D01*
X195785738Y-115427973D01*
X196044126Y-115535000D01*
X196455874Y-115535000D01*
X196836280Y-115377431D01*
X197127431Y-115086280D01*
X197285000Y-114705874D01*
X197285000Y-114695571D01*
X197531466Y-114797660D01*
X197943214Y-114797660D01*
X198323620Y-114640091D01*
X198614771Y-114348940D01*
X198772340Y-113968534D01*
X198772340Y-113556786D01*
X198614771Y-113176380D01*
X198323620Y-112885229D01*
X198274786Y-112865001D01*
X206060909Y-112865001D01*
X206176162Y-113444419D01*
X206504376Y-113935626D01*
X206802762Y-114135001D01*
X206504376Y-114334376D01*
X206176162Y-114825583D01*
X206060909Y-115405001D01*
X206176162Y-115984419D01*
X206504376Y-116475626D01*
X206802762Y-116675001D01*
X206504376Y-116874376D01*
X206176162Y-117365583D01*
X206060909Y-117945001D01*
X206176162Y-118524419D01*
X206504376Y-119015626D01*
X206826970Y-119231177D01*
X206505916Y-119454290D01*
X206213656Y-119891736D01*
X206302283Y-120112001D01*
X207202001Y-120112001D01*
X207202001Y-120092001D01*
X207948001Y-120092001D01*
X207948001Y-120112001D01*
X208847719Y-120112001D01*
X208936346Y-119891736D01*
X208644086Y-119454290D01*
X208323032Y-119231177D01*
X208645626Y-119015626D01*
X208973840Y-118524419D01*
X209089093Y-117945001D01*
X208973840Y-117365583D01*
X208645626Y-116874376D01*
X208347240Y-116675001D01*
X208645626Y-116475626D01*
X208973840Y-115984419D01*
X209089093Y-115405001D01*
X208973840Y-114825583D01*
X208645626Y-114334376D01*
X208347240Y-114135001D01*
X208645626Y-113935626D01*
X208973840Y-113444419D01*
X209089093Y-112865001D01*
X209710909Y-112865001D01*
X209826162Y-113444419D01*
X210154376Y-113935626D01*
X210452762Y-114135001D01*
X210154376Y-114334376D01*
X209826162Y-114825583D01*
X209710909Y-115405001D01*
X209826162Y-115984419D01*
X210154376Y-116475626D01*
X210452762Y-116675001D01*
X210154376Y-116874376D01*
X209826162Y-117365583D01*
X209710909Y-117945001D01*
X209826162Y-118524419D01*
X210154376Y-119015626D01*
X210476970Y-119231177D01*
X210155916Y-119454290D01*
X209863656Y-119891736D01*
X209952283Y-120112001D01*
X210852001Y-120112001D01*
X210852001Y-120092001D01*
X211598001Y-120092001D01*
X211598001Y-120112001D01*
X212497719Y-120112001D01*
X212586346Y-119891736D01*
X212294086Y-119454290D01*
X211973032Y-119231177D01*
X212295626Y-119015626D01*
X212623840Y-118524419D01*
X212739093Y-117945001D01*
X212623840Y-117365583D01*
X212295626Y-116874376D01*
X211997240Y-116675001D01*
X212295626Y-116475626D01*
X212623840Y-115984419D01*
X212739093Y-115405001D01*
X212623840Y-114825583D01*
X212295626Y-114334376D01*
X211997240Y-114135001D01*
X212295626Y-113935626D01*
X212623840Y-113444419D01*
X212739093Y-112865001D01*
X213360909Y-112865001D01*
X213476162Y-113444419D01*
X213804376Y-113935626D01*
X214102762Y-114135001D01*
X213804376Y-114334376D01*
X213476162Y-114825583D01*
X213360909Y-115405001D01*
X213476162Y-115984419D01*
X213804376Y-116475626D01*
X214102762Y-116675001D01*
X213804376Y-116874376D01*
X213476162Y-117365583D01*
X213360909Y-117945001D01*
X213476162Y-118524419D01*
X213804376Y-119015626D01*
X214126970Y-119231177D01*
X213805916Y-119454290D01*
X213513656Y-119891736D01*
X213602283Y-120112001D01*
X214502001Y-120112001D01*
X214502001Y-120092001D01*
X215248001Y-120092001D01*
X215248001Y-120112001D01*
X216147719Y-120112001D01*
X216236346Y-119891736D01*
X215944086Y-119454290D01*
X215623032Y-119231177D01*
X215945626Y-119015626D01*
X216273840Y-118524419D01*
X216389093Y-117945001D01*
X216273840Y-117365583D01*
X215945626Y-116874376D01*
X215647240Y-116675001D01*
X215945626Y-116475626D01*
X216273840Y-115984419D01*
X216389093Y-115405001D01*
X216273840Y-114825583D01*
X215945626Y-114334376D01*
X215647240Y-114135001D01*
X215945626Y-113935626D01*
X216273840Y-113444419D01*
X216389093Y-112865001D01*
X217010909Y-112865001D01*
X217126162Y-113444419D01*
X217454376Y-113935626D01*
X217752762Y-114135001D01*
X217454376Y-114334376D01*
X217126162Y-114825583D01*
X217010909Y-115405001D01*
X217126162Y-115984419D01*
X217454376Y-116475626D01*
X217752762Y-116675001D01*
X217454376Y-116874376D01*
X217126162Y-117365583D01*
X217010909Y-117945001D01*
X217126162Y-118524419D01*
X217454376Y-119015626D01*
X217776970Y-119231177D01*
X217455916Y-119454290D01*
X217163656Y-119891736D01*
X217252283Y-120112001D01*
X218152001Y-120112001D01*
X218152001Y-120092001D01*
X218898001Y-120092001D01*
X218898001Y-120112001D01*
X219797719Y-120112001D01*
X219886346Y-119891736D01*
X219594086Y-119454290D01*
X219273032Y-119231177D01*
X219595626Y-119015626D01*
X219923840Y-118524419D01*
X220039093Y-117945001D01*
X219923840Y-117365583D01*
X219595626Y-116874376D01*
X219297240Y-116675001D01*
X219595626Y-116475626D01*
X219923840Y-115984419D01*
X220039093Y-115405001D01*
X219923840Y-114825583D01*
X219595626Y-114334376D01*
X219297240Y-114135001D01*
X219595626Y-113935626D01*
X219923840Y-113444419D01*
X220039093Y-112865001D01*
X219923840Y-112285583D01*
X219595626Y-111794376D01*
X219577382Y-111782185D01*
X219622766Y-111773158D01*
X219832810Y-111632810D01*
X219973158Y-111422766D01*
X220022441Y-111175001D01*
X220022441Y-109475001D01*
X219973158Y-109227236D01*
X219832810Y-109017192D01*
X219622766Y-108876844D01*
X219375001Y-108827561D01*
X217675001Y-108827561D01*
X217427236Y-108876844D01*
X217217192Y-109017192D01*
X217076844Y-109227236D01*
X217027561Y-109475001D01*
X217027561Y-111175001D01*
X217076844Y-111422766D01*
X217217192Y-111632810D01*
X217427236Y-111773158D01*
X217472620Y-111782185D01*
X217454376Y-111794376D01*
X217126162Y-112285583D01*
X217010909Y-112865001D01*
X216389093Y-112865001D01*
X216273840Y-112285583D01*
X215945626Y-111794376D01*
X215927382Y-111782185D01*
X215972766Y-111773158D01*
X216182810Y-111632810D01*
X216323158Y-111422766D01*
X216372441Y-111175001D01*
X216372441Y-109475001D01*
X216323158Y-109227236D01*
X216182810Y-109017192D01*
X215972766Y-108876844D01*
X215725001Y-108827561D01*
X214025001Y-108827561D01*
X213777236Y-108876844D01*
X213567192Y-109017192D01*
X213426844Y-109227236D01*
X213377561Y-109475001D01*
X213377561Y-111175001D01*
X213426844Y-111422766D01*
X213567192Y-111632810D01*
X213777236Y-111773158D01*
X213822620Y-111782185D01*
X213804376Y-111794376D01*
X213476162Y-112285583D01*
X213360909Y-112865001D01*
X212739093Y-112865001D01*
X212623840Y-112285583D01*
X212295626Y-111794376D01*
X212277382Y-111782185D01*
X212322766Y-111773158D01*
X212532810Y-111632810D01*
X212673158Y-111422766D01*
X212722441Y-111175001D01*
X212722441Y-109475001D01*
X212673158Y-109227236D01*
X212532810Y-109017192D01*
X212322766Y-108876844D01*
X212075001Y-108827561D01*
X210375001Y-108827561D01*
X210127236Y-108876844D01*
X209917192Y-109017192D01*
X209776844Y-109227236D01*
X209727561Y-109475001D01*
X209727561Y-111175001D01*
X209776844Y-111422766D01*
X209917192Y-111632810D01*
X210127236Y-111773158D01*
X210172620Y-111782185D01*
X210154376Y-111794376D01*
X209826162Y-112285583D01*
X209710909Y-112865001D01*
X209089093Y-112865001D01*
X208973840Y-112285583D01*
X208645626Y-111794376D01*
X208627382Y-111782185D01*
X208672766Y-111773158D01*
X208882810Y-111632810D01*
X209023158Y-111422766D01*
X209072441Y-111175001D01*
X209072441Y-109475001D01*
X209023158Y-109227236D01*
X208882810Y-109017192D01*
X208672766Y-108876844D01*
X208425001Y-108827561D01*
X206725001Y-108827561D01*
X206477236Y-108876844D01*
X206267192Y-109017192D01*
X206126844Y-109227236D01*
X206077561Y-109475001D01*
X206077561Y-111175001D01*
X206126844Y-111422766D01*
X206267192Y-111632810D01*
X206477236Y-111773158D01*
X206522620Y-111782185D01*
X206504376Y-111794376D01*
X206176162Y-112285583D01*
X206060909Y-112865001D01*
X198274786Y-112865001D01*
X197943214Y-112727660D01*
X197531466Y-112727660D01*
X197151060Y-112885229D01*
X196859909Y-113176380D01*
X196702340Y-113556786D01*
X196702340Y-113567089D01*
X196455874Y-113465000D01*
X196044126Y-113465000D01*
X195663720Y-113622569D01*
X195464262Y-113822027D01*
X195205874Y-113715000D01*
X194794126Y-113715000D01*
X194413720Y-113872569D01*
X194122569Y-114163720D01*
X193965000Y-114544126D01*
X192308813Y-114544126D01*
X192308813Y-114370542D01*
X192151244Y-113990136D01*
X191860093Y-113698985D01*
X191479687Y-113541416D01*
X191067939Y-113541416D01*
X190687533Y-113698985D01*
X190396382Y-113990136D01*
X190238813Y-114370542D01*
X165138424Y-114370542D01*
X165109418Y-114351161D01*
X164676256Y-114265000D01*
X164383744Y-114265000D01*
X163950582Y-114351161D01*
X163459375Y-114679375D01*
X163260000Y-114977761D01*
X163060625Y-114679375D01*
X162569418Y-114351161D01*
X162136256Y-114265000D01*
X161843744Y-114265000D01*
X161410582Y-114351161D01*
X160919375Y-114679375D01*
X160720000Y-114977761D01*
X160520625Y-114679375D01*
X160029418Y-114351161D01*
X159596256Y-114265000D01*
X159303744Y-114265000D01*
X158870582Y-114351161D01*
X158379375Y-114679375D01*
X158180000Y-114977761D01*
X157980625Y-114679375D01*
X157489418Y-114351161D01*
X157056256Y-114265000D01*
X156763744Y-114265000D01*
X156330582Y-114351161D01*
X155839375Y-114679375D01*
X155640000Y-114977761D01*
X155440625Y-114679375D01*
X154949418Y-114351161D01*
X154516256Y-114265000D01*
X154223744Y-114265000D01*
X153790582Y-114351161D01*
X153299375Y-114679375D01*
X153100000Y-114977761D01*
X152900625Y-114679375D01*
X152409418Y-114351161D01*
X151976256Y-114265000D01*
X151683744Y-114265000D01*
X151250582Y-114351161D01*
X150759375Y-114679375D01*
X150560000Y-114977761D01*
X150360625Y-114679375D01*
X149869418Y-114351161D01*
X149436256Y-114265000D01*
X149143744Y-114265000D01*
X148710582Y-114351161D01*
X148219375Y-114679375D01*
X148207184Y-114697619D01*
X148198157Y-114652235D01*
X148057809Y-114442191D01*
X147847765Y-114301843D01*
X147600000Y-114252560D01*
X145900000Y-114252560D01*
X145652235Y-114301843D01*
X145442191Y-114442191D01*
X145301843Y-114652235D01*
X145252560Y-114900000D01*
X137127000Y-114900000D01*
X137127000Y-111870542D01*
X193238813Y-111870542D01*
X193238813Y-112282290D01*
X193396382Y-112662696D01*
X193687533Y-112953847D01*
X194067939Y-113111416D01*
X194479687Y-113111416D01*
X194860093Y-112953847D01*
X195151244Y-112662696D01*
X195308813Y-112282290D01*
X195308813Y-111870542D01*
X195205260Y-111620542D01*
X198988813Y-111620542D01*
X198988813Y-112032290D01*
X199146382Y-112412696D01*
X199437533Y-112703847D01*
X199817939Y-112861416D01*
X200229687Y-112861416D01*
X200610093Y-112703847D01*
X200901244Y-112412696D01*
X201058813Y-112032290D01*
X201058813Y-111620542D01*
X200901244Y-111240136D01*
X200610093Y-110948985D01*
X200229687Y-110791416D01*
X199817939Y-110791416D01*
X199437533Y-110948985D01*
X199146382Y-111240136D01*
X198988813Y-111620542D01*
X195205260Y-111620542D01*
X195151244Y-111490136D01*
X194860093Y-111198985D01*
X194479687Y-111041416D01*
X194067939Y-111041416D01*
X193687533Y-111198985D01*
X193396382Y-111490136D01*
X193238813Y-111870542D01*
X137127000Y-111870542D01*
X137127000Y-105040000D01*
X137735908Y-105040000D01*
X137851161Y-105619418D01*
X138179375Y-106110625D01*
X138477761Y-106310000D01*
X138179375Y-106509375D01*
X137851161Y-107000582D01*
X137735908Y-107580000D01*
X137851161Y-108159418D01*
X138179375Y-108650625D01*
X138477761Y-108850000D01*
X138179375Y-109049375D01*
X137851161Y-109540582D01*
X137735908Y-110120000D01*
X137851161Y-110699418D01*
X138179375Y-111190625D01*
X138670582Y-111518839D01*
X139103744Y-111605000D01*
X139396256Y-111605000D01*
X139829418Y-111518839D01*
X140320625Y-111190625D01*
X140648839Y-110699418D01*
X140692541Y-110479710D01*
X148747187Y-110479710D01*
X148747187Y-110891458D01*
X148904756Y-111271864D01*
X149195907Y-111563015D01*
X149576313Y-111720584D01*
X149988061Y-111720584D01*
X150368467Y-111563015D01*
X150659618Y-111271864D01*
X150817187Y-110891458D01*
X150817187Y-110479710D01*
X150659618Y-110099304D01*
X150368467Y-109808153D01*
X149988061Y-109650584D01*
X149576313Y-109650584D01*
X149195907Y-109808153D01*
X148904756Y-110099304D01*
X148747187Y-110479710D01*
X140692541Y-110479710D01*
X140764092Y-110120000D01*
X140648839Y-109540582D01*
X140320625Y-109049375D01*
X140022239Y-108850000D01*
X140320625Y-108650625D01*
X140434826Y-108479710D01*
X156547187Y-108479710D01*
X156547187Y-108891458D01*
X156704756Y-109271864D01*
X156995907Y-109563015D01*
X157376313Y-109720584D01*
X157788061Y-109720584D01*
X158168467Y-109563015D01*
X158459618Y-109271864D01*
X158617187Y-108891458D01*
X158617187Y-108479710D01*
X158459618Y-108099304D01*
X158168467Y-107808153D01*
X157788061Y-107650584D01*
X157376313Y-107650584D01*
X156995907Y-107808153D01*
X156704756Y-108099304D01*
X156547187Y-108479710D01*
X140434826Y-108479710D01*
X140648839Y-108159418D01*
X140756027Y-107620542D01*
X168738813Y-107620542D01*
X168738813Y-108032290D01*
X168896382Y-108412696D01*
X169185102Y-108701416D01*
X168896382Y-108990136D01*
X168738813Y-109370542D01*
X168738813Y-109782290D01*
X168896382Y-110162696D01*
X169187533Y-110453847D01*
X169567939Y-110611416D01*
X169979687Y-110611416D01*
X170360093Y-110453847D01*
X170651244Y-110162696D01*
X170803910Y-109794126D01*
X200715000Y-109794126D01*
X200715000Y-110205874D01*
X200872569Y-110586280D01*
X201163720Y-110877431D01*
X201544126Y-111035000D01*
X201955874Y-111035000D01*
X202336280Y-110877431D01*
X202627431Y-110586280D01*
X202785000Y-110205874D01*
X202785000Y-109794126D01*
X202627431Y-109413720D01*
X202336280Y-109122569D01*
X201955874Y-108965000D01*
X201544126Y-108965000D01*
X201163720Y-109122569D01*
X200872569Y-109413720D01*
X200715000Y-109794126D01*
X170803910Y-109794126D01*
X170808813Y-109782290D01*
X170808813Y-109370542D01*
X170651244Y-108990136D01*
X170362524Y-108701416D01*
X170651244Y-108412696D01*
X170808813Y-108032290D01*
X170808813Y-107620542D01*
X170651244Y-107240136D01*
X170360093Y-106948985D01*
X169979687Y-106791416D01*
X169567939Y-106791416D01*
X169187533Y-106948985D01*
X168896382Y-107240136D01*
X168738813Y-107620542D01*
X140756027Y-107620542D01*
X140764092Y-107580000D01*
X140648839Y-107000582D01*
X140320625Y-106509375D01*
X140022239Y-106310000D01*
X140320625Y-106110625D01*
X140608553Y-105679710D01*
X156547187Y-105679710D01*
X156547187Y-106091458D01*
X156704756Y-106471864D01*
X156995907Y-106763015D01*
X157376313Y-106920584D01*
X157788061Y-106920584D01*
X158168467Y-106763015D01*
X158459618Y-106471864D01*
X158617187Y-106091458D01*
X158617187Y-105975827D01*
X189446954Y-105975827D01*
X189446954Y-106387575D01*
X189604523Y-106767981D01*
X189895674Y-107059132D01*
X190276080Y-107216701D01*
X190687828Y-107216701D01*
X191068234Y-107059132D01*
X191359385Y-106767981D01*
X191516954Y-106387575D01*
X191516954Y-106294126D01*
X193965000Y-106294126D01*
X193965000Y-106705874D01*
X194122569Y-107086280D01*
X194413720Y-107377431D01*
X194794126Y-107535000D01*
X195205874Y-107535000D01*
X195586280Y-107377431D01*
X195877431Y-107086280D01*
X196035000Y-106705874D01*
X196035000Y-106294126D01*
X195963100Y-106120542D01*
X198988813Y-106120542D01*
X198988813Y-106532290D01*
X199146382Y-106912696D01*
X199437533Y-107203847D01*
X199817939Y-107361416D01*
X200229687Y-107361416D01*
X200610093Y-107203847D01*
X200901244Y-106912696D01*
X201058813Y-106532290D01*
X201058813Y-106120542D01*
X200901244Y-105740136D01*
X200610093Y-105448985D01*
X200229687Y-105291416D01*
X199817939Y-105291416D01*
X199437533Y-105448985D01*
X199146382Y-105740136D01*
X198988813Y-106120542D01*
X195963100Y-106120542D01*
X195877431Y-105913720D01*
X195586280Y-105622569D01*
X195205874Y-105465000D01*
X194794126Y-105465000D01*
X194413720Y-105622569D01*
X194122569Y-105913720D01*
X193965000Y-106294126D01*
X191516954Y-106294126D01*
X191516954Y-105975827D01*
X191361993Y-105601718D01*
X191627431Y-105336280D01*
X191785000Y-104955874D01*
X191785000Y-104544126D01*
X191627431Y-104163720D01*
X191336280Y-103872569D01*
X190955874Y-103715000D01*
X190544126Y-103715000D01*
X190163720Y-103872569D01*
X189872569Y-104163720D01*
X189715000Y-104544126D01*
X189715000Y-104955874D01*
X189869961Y-105329983D01*
X189604523Y-105595421D01*
X189446954Y-105975827D01*
X158617187Y-105975827D01*
X158617187Y-105679710D01*
X158459618Y-105299304D01*
X158168467Y-105008153D01*
X157788061Y-104850584D01*
X157376313Y-104850584D01*
X156995907Y-105008153D01*
X156704756Y-105299304D01*
X156547187Y-105679710D01*
X140608553Y-105679710D01*
X140648839Y-105619418D01*
X140764092Y-105040000D01*
X140648839Y-104460582D01*
X140320625Y-103969375D01*
X140302381Y-103957184D01*
X140347765Y-103948157D01*
X140557809Y-103807809D01*
X140698157Y-103597765D01*
X140743353Y-103370542D01*
X205738813Y-103370542D01*
X205738813Y-103782290D01*
X205896382Y-104162696D01*
X206187533Y-104453847D01*
X206567939Y-104611416D01*
X206979687Y-104611416D01*
X207142139Y-104544126D01*
X208965000Y-104544126D01*
X208965000Y-104955874D01*
X209122569Y-105336280D01*
X209413720Y-105627431D01*
X209794126Y-105785000D01*
X210205874Y-105785000D01*
X210586280Y-105627431D01*
X210877431Y-105336280D01*
X211035000Y-104955874D01*
X211035000Y-104544126D01*
X210877431Y-104163720D01*
X210586280Y-103872569D01*
X210205874Y-103715000D01*
X209794126Y-103715000D01*
X209413720Y-103872569D01*
X209122569Y-104163720D01*
X208965000Y-104544126D01*
X207142139Y-104544126D01*
X207360093Y-104453847D01*
X207651244Y-104162696D01*
X207808813Y-103782290D01*
X207808813Y-103370542D01*
X207651244Y-102990136D01*
X207360093Y-102698985D01*
X206979687Y-102541416D01*
X206567939Y-102541416D01*
X206187533Y-102698985D01*
X205896382Y-102990136D01*
X205738813Y-103370542D01*
X140743353Y-103370542D01*
X140747440Y-103350000D01*
X140747440Y-101870542D01*
X195488813Y-101870542D01*
X195488813Y-102282290D01*
X195646382Y-102662696D01*
X195937533Y-102953847D01*
X196317939Y-103111416D01*
X196729687Y-103111416D01*
X197110093Y-102953847D01*
X197401244Y-102662696D01*
X197558813Y-102282290D01*
X197558813Y-101870542D01*
X197401244Y-101490136D01*
X197110093Y-101198985D01*
X196729687Y-101041416D01*
X196317939Y-101041416D01*
X195937533Y-101198985D01*
X195646382Y-101490136D01*
X195488813Y-101870542D01*
X140747440Y-101870542D01*
X140747440Y-101650000D01*
X140698157Y-101402235D01*
X140557809Y-101192191D01*
X140347765Y-101051843D01*
X140100000Y-101002560D01*
X138400000Y-101002560D01*
X138152235Y-101051843D01*
X137942191Y-101192191D01*
X137801843Y-101402235D01*
X137752560Y-101650000D01*
X137752560Y-103350000D01*
X137801843Y-103597765D01*
X137942191Y-103807809D01*
X138152235Y-103948157D01*
X138197619Y-103957184D01*
X138179375Y-103969375D01*
X137851161Y-104460582D01*
X137735908Y-105040000D01*
X137127000Y-105040000D01*
X137127000Y-98215939D01*
X139960584Y-98215939D01*
X139960584Y-98627687D01*
X140118153Y-99008093D01*
X140409304Y-99299244D01*
X140789710Y-99456813D01*
X141201458Y-99456813D01*
X141581864Y-99299244D01*
X141873015Y-99008093D01*
X142030584Y-98627687D01*
X142030584Y-98215939D01*
X141873015Y-97835533D01*
X141581864Y-97544382D01*
X141201458Y-97386813D01*
X140789710Y-97386813D01*
X140409304Y-97544382D01*
X140118153Y-97835533D01*
X139960584Y-98215939D01*
X137127000Y-98215939D01*
X137127000Y-96161939D01*
X146400584Y-96161939D01*
X146400584Y-96573687D01*
X146522415Y-96867813D01*
X146400584Y-97161939D01*
X146400584Y-97573687D01*
X146522415Y-97867813D01*
X146400584Y-98161939D01*
X146400584Y-98573687D01*
X146522415Y-98867813D01*
X146400584Y-99161939D01*
X146400584Y-99573687D01*
X146558153Y-99954093D01*
X146849304Y-100245244D01*
X147229710Y-100402813D01*
X147641458Y-100402813D01*
X147935584Y-100280982D01*
X148229710Y-100402813D01*
X148641458Y-100402813D01*
X149021864Y-100245244D01*
X149313015Y-99954093D01*
X149451240Y-99620387D01*
X165463648Y-99620387D01*
X165463648Y-100032135D01*
X165621217Y-100412541D01*
X165912368Y-100703692D01*
X166292774Y-100861261D01*
X166704522Y-100861261D01*
X167084928Y-100703692D01*
X167376079Y-100412541D01*
X167497028Y-100120542D01*
X204488813Y-100120542D01*
X204488813Y-100532290D01*
X204646382Y-100912696D01*
X204937533Y-101203847D01*
X205317939Y-101361416D01*
X205729687Y-101361416D01*
X206110093Y-101203847D01*
X206401244Y-100912696D01*
X206558813Y-100532290D01*
X206558813Y-100120542D01*
X206401244Y-99740136D01*
X206110093Y-99448985D01*
X205729687Y-99291416D01*
X205317939Y-99291416D01*
X204937533Y-99448985D01*
X204646382Y-99740136D01*
X204488813Y-100120542D01*
X167497028Y-100120542D01*
X167533648Y-100032135D01*
X167533648Y-99620387D01*
X167376079Y-99239981D01*
X167084928Y-98948830D01*
X166704522Y-98791261D01*
X166292774Y-98791261D01*
X165912368Y-98948830D01*
X165621217Y-99239981D01*
X165463648Y-99620387D01*
X149451240Y-99620387D01*
X149470584Y-99573687D01*
X149470584Y-99161939D01*
X149348753Y-98867813D01*
X149470584Y-98573687D01*
X149470584Y-98161939D01*
X149348753Y-97867813D01*
X149470584Y-97573687D01*
X149470584Y-97161939D01*
X149348753Y-96867813D01*
X149470584Y-96573687D01*
X149470584Y-96369137D01*
X165510167Y-96369137D01*
X165510167Y-96780885D01*
X165667736Y-97161291D01*
X165958887Y-97452442D01*
X166339293Y-97610011D01*
X166751041Y-97610011D01*
X167131447Y-97452442D01*
X167422598Y-97161291D01*
X167580167Y-96780885D01*
X167580167Y-96369137D01*
X167422598Y-95988731D01*
X167131447Y-95697580D01*
X166751041Y-95540011D01*
X166339293Y-95540011D01*
X165958887Y-95697580D01*
X165667736Y-95988731D01*
X165510167Y-96369137D01*
X149470584Y-96369137D01*
X149470584Y-96161939D01*
X149313015Y-95781533D01*
X149021864Y-95490382D01*
X148810453Y-95402813D01*
X148841458Y-95402813D01*
X149221864Y-95245244D01*
X149513015Y-94954093D01*
X149670584Y-94573687D01*
X149670584Y-94161939D01*
X149548753Y-93867813D01*
X149670584Y-93573687D01*
X149670584Y-93569116D01*
X165517873Y-93569116D01*
X165517873Y-93980864D01*
X165675442Y-94361270D01*
X165966593Y-94652421D01*
X166346999Y-94809990D01*
X166758747Y-94809990D01*
X167139153Y-94652421D01*
X167430304Y-94361270D01*
X167587873Y-93980864D01*
X167587873Y-93569116D01*
X167577522Y-93544126D01*
X169715000Y-93544126D01*
X169715000Y-93955874D01*
X169872569Y-94336280D01*
X170072027Y-94535738D01*
X169965000Y-94794126D01*
X169965000Y-95205874D01*
X170072027Y-95464262D01*
X169872569Y-95663720D01*
X169715000Y-96044126D01*
X169715000Y-96455874D01*
X169872569Y-96836280D01*
X169993560Y-96957271D01*
X169952340Y-97056786D01*
X169952340Y-97468534D01*
X170109909Y-97848940D01*
X170148629Y-97887660D01*
X170122569Y-97913720D01*
X169965000Y-98294126D01*
X169965000Y-98705874D01*
X170122569Y-99086280D01*
X170413720Y-99377431D01*
X170794126Y-99535000D01*
X171205874Y-99535000D01*
X171586280Y-99377431D01*
X171877431Y-99086280D01*
X172035000Y-98705874D01*
X172035000Y-98620542D01*
X199988813Y-98620542D01*
X199988813Y-99032290D01*
X200146382Y-99412696D01*
X200437533Y-99703847D01*
X200817939Y-99861416D01*
X201229687Y-99861416D01*
X201610093Y-99703847D01*
X201901244Y-99412696D01*
X202058813Y-99032290D01*
X202058813Y-98620542D01*
X202988813Y-98620542D01*
X202988813Y-99032290D01*
X203146382Y-99412696D01*
X203437533Y-99703847D01*
X203817939Y-99861416D01*
X204229687Y-99861416D01*
X204610093Y-99703847D01*
X204901244Y-99412696D01*
X205058813Y-99032290D01*
X205058813Y-98620542D01*
X204901244Y-98240136D01*
X204610093Y-97948985D01*
X204229687Y-97791416D01*
X203817939Y-97791416D01*
X203437533Y-97948985D01*
X203146382Y-98240136D01*
X202988813Y-98620542D01*
X202058813Y-98620542D01*
X201901244Y-98240136D01*
X201610093Y-97948985D01*
X201229687Y-97791416D01*
X200817939Y-97791416D01*
X200437533Y-97948985D01*
X200146382Y-98240136D01*
X199988813Y-98620542D01*
X172035000Y-98620542D01*
X172035000Y-98294126D01*
X171877431Y-97913720D01*
X171838711Y-97875000D01*
X171864771Y-97848940D01*
X172022340Y-97468534D01*
X172022340Y-97120542D01*
X189738813Y-97120542D01*
X189738813Y-97532290D01*
X189896382Y-97912696D01*
X190187533Y-98203847D01*
X190567939Y-98361416D01*
X190979687Y-98361416D01*
X191360093Y-98203847D01*
X191651244Y-97912696D01*
X191808813Y-97532290D01*
X191808813Y-97120542D01*
X191651244Y-96740136D01*
X191360093Y-96448985D01*
X190979687Y-96291416D01*
X190567939Y-96291416D01*
X190187533Y-96448985D01*
X189896382Y-96740136D01*
X189738813Y-97120542D01*
X172022340Y-97120542D01*
X172022340Y-97056786D01*
X171864771Y-96676380D01*
X171743780Y-96555389D01*
X171785000Y-96455874D01*
X171785000Y-96044126D01*
X171677973Y-95785738D01*
X171877431Y-95586280D01*
X172035000Y-95205874D01*
X172035000Y-94794126D01*
X171931447Y-94544126D01*
X186215000Y-94544126D01*
X186215000Y-94955874D01*
X186372569Y-95336280D01*
X186663720Y-95627431D01*
X187044126Y-95785000D01*
X187455874Y-95785000D01*
X187779463Y-95650965D01*
X204841416Y-95650965D01*
X204841416Y-96301409D01*
X205090330Y-96902340D01*
X205550263Y-97362273D01*
X206151194Y-97611187D01*
X206801638Y-97611187D01*
X207402569Y-97362273D01*
X207862502Y-96902340D01*
X208111416Y-96301409D01*
X208111416Y-95650965D01*
X209341416Y-95650965D01*
X209341416Y-96301409D01*
X209590330Y-96902340D01*
X210050263Y-97362273D01*
X210651194Y-97611187D01*
X211301638Y-97611187D01*
X211902569Y-97362273D01*
X212362502Y-96902340D01*
X212611416Y-96301409D01*
X212611416Y-95650965D01*
X212362502Y-95050034D01*
X211902569Y-94590101D01*
X211301638Y-94341187D01*
X210651194Y-94341187D01*
X210050263Y-94590101D01*
X209590330Y-95050034D01*
X209341416Y-95650965D01*
X208111416Y-95650965D01*
X207862502Y-95050034D01*
X207402569Y-94590101D01*
X206801638Y-94341187D01*
X206151194Y-94341187D01*
X205550263Y-94590101D01*
X205090330Y-95050034D01*
X204841416Y-95650965D01*
X187779463Y-95650965D01*
X187836280Y-95627431D01*
X188127431Y-95336280D01*
X188285000Y-94955874D01*
X188285000Y-94544126D01*
X188127431Y-94163720D01*
X187836280Y-93872569D01*
X187455874Y-93715000D01*
X187044126Y-93715000D01*
X186663720Y-93872569D01*
X186372569Y-94163720D01*
X186215000Y-94544126D01*
X171931447Y-94544126D01*
X171877431Y-94413720D01*
X171677973Y-94214262D01*
X171785000Y-93955874D01*
X171785000Y-93544126D01*
X171751196Y-93462515D01*
X171877431Y-93336280D01*
X171998444Y-93044126D01*
X173965000Y-93044126D01*
X173965000Y-93455874D01*
X174122569Y-93836280D01*
X174413720Y-94127431D01*
X174794126Y-94285000D01*
X175205874Y-94285000D01*
X175586280Y-94127431D01*
X175877431Y-93836280D01*
X176035000Y-93455874D01*
X176035000Y-93120542D01*
X192738813Y-93120542D01*
X192738813Y-93532290D01*
X192896382Y-93912696D01*
X193187533Y-94203847D01*
X193567939Y-94361416D01*
X193979687Y-94361416D01*
X194360093Y-94203847D01*
X194570780Y-93993160D01*
X194611460Y-94010010D01*
X195023208Y-94010010D01*
X195403614Y-93852441D01*
X195694765Y-93561290D01*
X195852334Y-93180884D01*
X195852334Y-92769136D01*
X195790785Y-92620542D01*
X199738813Y-92620542D01*
X199738813Y-93032290D01*
X199896382Y-93412696D01*
X200187533Y-93703847D01*
X200567939Y-93861416D01*
X200979687Y-93861416D01*
X201360093Y-93703847D01*
X201651244Y-93412696D01*
X201808813Y-93032290D01*
X201808813Y-92620542D01*
X201651244Y-92240136D01*
X201360093Y-91948985D01*
X200979687Y-91791416D01*
X200567939Y-91791416D01*
X200187533Y-91948985D01*
X199896382Y-92240136D01*
X199738813Y-92620542D01*
X195790785Y-92620542D01*
X195694765Y-92388730D01*
X195403614Y-92097579D01*
X195023208Y-91940010D01*
X194611460Y-91940010D01*
X194231054Y-92097579D01*
X194020367Y-92308266D01*
X193979687Y-92291416D01*
X193567939Y-92291416D01*
X193187533Y-92448985D01*
X192896382Y-92740136D01*
X192738813Y-93120542D01*
X176035000Y-93120542D01*
X176035000Y-93044126D01*
X175877431Y-92663720D01*
X175586280Y-92372569D01*
X175205874Y-92215000D01*
X174794126Y-92215000D01*
X174413720Y-92372569D01*
X174122569Y-92663720D01*
X173965000Y-93044126D01*
X171998444Y-93044126D01*
X172035000Y-92955874D01*
X172035000Y-92544126D01*
X171877431Y-92163720D01*
X171838711Y-92125000D01*
X171877431Y-92086280D01*
X172035000Y-91705874D01*
X172035000Y-91294126D01*
X171931447Y-91044126D01*
X190715000Y-91044126D01*
X190715000Y-91455874D01*
X190872569Y-91836280D01*
X191163720Y-92127431D01*
X191544126Y-92285000D01*
X191955874Y-92285000D01*
X192336280Y-92127431D01*
X192627431Y-91836280D01*
X192785000Y-91455874D01*
X192785000Y-91044126D01*
X192681447Y-90794126D01*
X201215000Y-90794126D01*
X201215000Y-91205874D01*
X201372569Y-91586280D01*
X201663720Y-91877431D01*
X202044126Y-92035000D01*
X202455874Y-92035000D01*
X202836280Y-91877431D01*
X202977547Y-91736164D01*
X203122569Y-92086280D01*
X203413720Y-92377431D01*
X203794126Y-92535000D01*
X204205874Y-92535000D01*
X204586280Y-92377431D01*
X204877431Y-92086280D01*
X205035000Y-91705874D01*
X205035000Y-91294126D01*
X204877431Y-90913720D01*
X204586280Y-90622569D01*
X204205874Y-90465000D01*
X203794126Y-90465000D01*
X203413720Y-90622569D01*
X203272453Y-90763836D01*
X203127431Y-90413720D01*
X202836280Y-90122569D01*
X202455874Y-89965000D01*
X202044126Y-89965000D01*
X201663720Y-90122569D01*
X201372569Y-90413720D01*
X201215000Y-90794126D01*
X192681447Y-90794126D01*
X192627431Y-90663720D01*
X192336280Y-90372569D01*
X191955874Y-90215000D01*
X191544126Y-90215000D01*
X191163720Y-90372569D01*
X190872569Y-90663720D01*
X190715000Y-91044126D01*
X171931447Y-91044126D01*
X171877431Y-90913720D01*
X171838711Y-90875000D01*
X172127431Y-90586280D01*
X172285000Y-90205874D01*
X172285000Y-89794126D01*
X172127431Y-89413720D01*
X171836280Y-89122569D01*
X171455874Y-88965000D01*
X171044126Y-88965000D01*
X170663720Y-89122569D01*
X170372569Y-89413720D01*
X170215000Y-89794126D01*
X170215000Y-90205874D01*
X170372569Y-90586280D01*
X170411289Y-90625000D01*
X170122569Y-90913720D01*
X169965000Y-91294126D01*
X169965000Y-91705874D01*
X170122569Y-92086280D01*
X170161289Y-92125000D01*
X170122569Y-92163720D01*
X169965000Y-92544126D01*
X169965000Y-92955874D01*
X169998804Y-93037485D01*
X169872569Y-93163720D01*
X169715000Y-93544126D01*
X167577522Y-93544126D01*
X167430304Y-93188710D01*
X167139153Y-92897559D01*
X166758747Y-92739990D01*
X166346999Y-92739990D01*
X165966593Y-92897559D01*
X165675442Y-93188710D01*
X165517873Y-93569116D01*
X149670584Y-93569116D01*
X149670584Y-93161939D01*
X149548753Y-92867813D01*
X149670584Y-92573687D01*
X149670584Y-92161939D01*
X149548753Y-91867813D01*
X149670584Y-91573687D01*
X149670584Y-91161939D01*
X149513015Y-90781533D01*
X149300598Y-90569116D01*
X165513803Y-90569116D01*
X165513803Y-90980864D01*
X165671372Y-91361270D01*
X165962523Y-91652421D01*
X166342929Y-91809990D01*
X166754677Y-91809990D01*
X167135083Y-91652421D01*
X167426234Y-91361270D01*
X167583803Y-90980864D01*
X167583803Y-90569116D01*
X167426234Y-90188710D01*
X167135083Y-89897559D01*
X166754677Y-89739990D01*
X166342929Y-89739990D01*
X165962523Y-89897559D01*
X165671372Y-90188710D01*
X165513803Y-90569116D01*
X149300598Y-90569116D01*
X149221864Y-90490382D01*
X148841458Y-90332813D01*
X148429710Y-90332813D01*
X148135584Y-90454644D01*
X147841458Y-90332813D01*
X147429710Y-90332813D01*
X147049304Y-90490382D01*
X146758153Y-90781533D01*
X146600584Y-91161939D01*
X146600584Y-91573687D01*
X146722415Y-91867813D01*
X146600584Y-92161939D01*
X146600584Y-92573687D01*
X146722415Y-92867813D01*
X146600584Y-93161939D01*
X146600584Y-93573687D01*
X146722415Y-93867813D01*
X146600584Y-94161939D01*
X146600584Y-94573687D01*
X146758153Y-94954093D01*
X147049304Y-95245244D01*
X147260715Y-95332813D01*
X147229710Y-95332813D01*
X146849304Y-95490382D01*
X146558153Y-95781533D01*
X146400584Y-96161939D01*
X137127000Y-96161939D01*
X137127000Y-87011939D01*
X146400584Y-87011939D01*
X146400584Y-87423687D01*
X146522415Y-87717813D01*
X146400584Y-88011939D01*
X146400584Y-88423687D01*
X146522415Y-88717813D01*
X146400584Y-89011939D01*
X146400584Y-89423687D01*
X146558153Y-89804093D01*
X146849304Y-90095244D01*
X147229710Y-90252813D01*
X147641458Y-90252813D01*
X147935584Y-90130982D01*
X148229710Y-90252813D01*
X148641458Y-90252813D01*
X148935584Y-90130982D01*
X149229710Y-90252813D01*
X149641458Y-90252813D01*
X149935584Y-90130982D01*
X150229710Y-90252813D01*
X150641458Y-90252813D01*
X151021864Y-90095244D01*
X151313015Y-89804093D01*
X151470584Y-89423687D01*
X151470584Y-89011939D01*
X151348753Y-88717813D01*
X151470584Y-88423687D01*
X151470584Y-88011939D01*
X151348753Y-87717813D01*
X151368333Y-87670542D01*
X165538813Y-87670542D01*
X165538813Y-88082290D01*
X165696382Y-88462696D01*
X165987533Y-88753847D01*
X166367939Y-88911416D01*
X166779687Y-88911416D01*
X167160093Y-88753847D01*
X167451244Y-88462696D01*
X167608813Y-88082290D01*
X167608813Y-87670542D01*
X167451244Y-87290136D01*
X167160093Y-86998985D01*
X166779687Y-86841416D01*
X166367939Y-86841416D01*
X165987533Y-86998985D01*
X165696382Y-87290136D01*
X165538813Y-87670542D01*
X151368333Y-87670542D01*
X151470584Y-87423687D01*
X151470584Y-87011939D01*
X151348753Y-86717813D01*
X151470584Y-86423687D01*
X151470584Y-86370542D01*
X173488813Y-86370542D01*
X173488813Y-86782290D01*
X173646382Y-87162696D01*
X173937533Y-87453847D01*
X174317939Y-87611416D01*
X174729687Y-87611416D01*
X175110093Y-87453847D01*
X175401244Y-87162696D01*
X175558813Y-86782290D01*
X175558813Y-86370542D01*
X176238813Y-86370542D01*
X176238813Y-86782290D01*
X176396382Y-87162696D01*
X176687533Y-87453847D01*
X177067939Y-87611416D01*
X177479687Y-87611416D01*
X177860093Y-87453847D01*
X178151244Y-87162696D01*
X178308813Y-86782290D01*
X178308813Y-86370542D01*
X178151244Y-85990136D01*
X177860093Y-85698985D01*
X177479687Y-85541416D01*
X177067939Y-85541416D01*
X176687533Y-85698985D01*
X176396382Y-85990136D01*
X176238813Y-86370542D01*
X175558813Y-86370542D01*
X175401244Y-85990136D01*
X175110093Y-85698985D01*
X174729687Y-85541416D01*
X174317939Y-85541416D01*
X173937533Y-85698985D01*
X173646382Y-85990136D01*
X173488813Y-86370542D01*
X151470584Y-86370542D01*
X151470584Y-86011939D01*
X151313015Y-85631533D01*
X151021864Y-85340382D01*
X150641458Y-85182813D01*
X150229710Y-85182813D01*
X149849304Y-85340382D01*
X149558153Y-85631533D01*
X149400584Y-86011939D01*
X149400584Y-86182813D01*
X149229710Y-86182813D01*
X148935584Y-86304644D01*
X148641458Y-86182813D01*
X148229710Y-86182813D01*
X147935584Y-86304644D01*
X147641458Y-86182813D01*
X147229710Y-86182813D01*
X146849304Y-86340382D01*
X146558153Y-86631533D01*
X146400584Y-87011939D01*
X137127000Y-87011939D01*
X137127000Y-84661438D01*
X165363803Y-84661438D01*
X165363803Y-85073186D01*
X165521372Y-85453592D01*
X165812523Y-85744743D01*
X166192929Y-85902312D01*
X166604677Y-85902312D01*
X166985083Y-85744743D01*
X167276234Y-85453592D01*
X167310634Y-85370542D01*
X189738813Y-85370542D01*
X189738813Y-85782290D01*
X189896382Y-86162696D01*
X190187533Y-86453847D01*
X190230529Y-86471656D01*
X190230529Y-86782321D01*
X190388098Y-87162727D01*
X190679249Y-87453878D01*
X191059655Y-87611447D01*
X191471403Y-87611447D01*
X191851809Y-87453878D01*
X192142960Y-87162727D01*
X192211402Y-86997492D01*
X192506215Y-87119607D01*
X192557926Y-87119607D01*
X192482328Y-87302117D01*
X192482328Y-87713865D01*
X192639897Y-88094271D01*
X192931048Y-88385422D01*
X193311454Y-88542991D01*
X193723202Y-88542991D01*
X194103608Y-88385422D01*
X194183359Y-88305671D01*
X194317939Y-88361416D01*
X194729687Y-88361416D01*
X195110093Y-88203847D01*
X195148813Y-88165127D01*
X195187533Y-88203847D01*
X195567939Y-88361416D01*
X195979687Y-88361416D01*
X196360093Y-88203847D01*
X196386153Y-88177787D01*
X196424873Y-88216507D01*
X196805279Y-88374076D01*
X197217027Y-88374076D01*
X197410043Y-88294126D01*
X201715000Y-88294126D01*
X201715000Y-88705874D01*
X201872569Y-89086280D01*
X202163720Y-89377431D01*
X202544126Y-89535000D01*
X202955874Y-89535000D01*
X203336280Y-89377431D01*
X203562746Y-89150965D01*
X204841416Y-89150965D01*
X204841416Y-89801409D01*
X205090330Y-90402340D01*
X205550263Y-90862273D01*
X206151194Y-91111187D01*
X206801638Y-91111187D01*
X207402569Y-90862273D01*
X207862502Y-90402340D01*
X208111416Y-89801409D01*
X208111416Y-89150965D01*
X207862502Y-88550034D01*
X207788655Y-88476187D01*
X209328976Y-88476187D01*
X209328976Y-90476187D01*
X209378259Y-90723952D01*
X209518607Y-90933996D01*
X209728651Y-91074344D01*
X209976416Y-91123627D01*
X211976416Y-91123627D01*
X212224181Y-91074344D01*
X212434225Y-90933996D01*
X212574573Y-90723952D01*
X212623856Y-90476187D01*
X212623856Y-88476187D01*
X212574573Y-88228422D01*
X212434225Y-88018378D01*
X212224181Y-87878030D01*
X211976416Y-87828747D01*
X209976416Y-87828747D01*
X209728651Y-87878030D01*
X209518607Y-88018378D01*
X209378259Y-88228422D01*
X209328976Y-88476187D01*
X207788655Y-88476187D01*
X207402569Y-88090101D01*
X206801638Y-87841187D01*
X206151194Y-87841187D01*
X205550263Y-88090101D01*
X205090330Y-88550034D01*
X204841416Y-89150965D01*
X203562746Y-89150965D01*
X203627431Y-89086280D01*
X203785000Y-88705874D01*
X203785000Y-88294126D01*
X203627431Y-87913720D01*
X203336280Y-87622569D01*
X202955874Y-87465000D01*
X202544126Y-87465000D01*
X202163720Y-87622569D01*
X201872569Y-87913720D01*
X201715000Y-88294126D01*
X197410043Y-88294126D01*
X197597433Y-88216507D01*
X197888584Y-87925356D01*
X198046153Y-87544950D01*
X198046153Y-87133202D01*
X197888584Y-86752796D01*
X197597433Y-86461645D01*
X197217027Y-86304076D01*
X196805279Y-86304076D01*
X196424873Y-86461645D01*
X196398813Y-86487705D01*
X196360093Y-86448985D01*
X195986230Y-86294126D01*
X199215000Y-86294126D01*
X199215000Y-86705874D01*
X199372569Y-87086280D01*
X199663720Y-87377431D01*
X200044126Y-87535000D01*
X200455874Y-87535000D01*
X200836280Y-87377431D01*
X201127431Y-87086280D01*
X201285000Y-86705874D01*
X201285000Y-86294126D01*
X201127431Y-85913720D01*
X200836280Y-85622569D01*
X200455874Y-85465000D01*
X200044126Y-85465000D01*
X199663720Y-85622569D01*
X199372569Y-85913720D01*
X199215000Y-86294126D01*
X195986230Y-86294126D01*
X195979687Y-86291416D01*
X195567939Y-86291416D01*
X195187533Y-86448985D01*
X195148813Y-86487705D01*
X195110093Y-86448985D01*
X194729687Y-86291416D01*
X194317939Y-86291416D01*
X193937533Y-86448985D01*
X193857782Y-86528736D01*
X193723202Y-86472991D01*
X193671491Y-86472991D01*
X193747089Y-86290481D01*
X193747089Y-85878733D01*
X193589520Y-85498327D01*
X193298369Y-85207176D01*
X192917963Y-85049607D01*
X192506215Y-85049607D01*
X192125809Y-85207176D01*
X191834658Y-85498327D01*
X191808813Y-85560722D01*
X191808813Y-85370542D01*
X191651244Y-84990136D01*
X191360093Y-84698985D01*
X190979687Y-84541416D01*
X190567939Y-84541416D01*
X190187533Y-84698985D01*
X189896382Y-84990136D01*
X189738813Y-85370542D01*
X167310634Y-85370542D01*
X167433803Y-85073186D01*
X167433803Y-84661438D01*
X167276234Y-84281032D01*
X166985083Y-83989881D01*
X166696973Y-83870542D01*
X192738813Y-83870542D01*
X192738813Y-84282290D01*
X192896382Y-84662696D01*
X193187533Y-84953847D01*
X193567939Y-85111416D01*
X193979687Y-85111416D01*
X194360093Y-84953847D01*
X194651244Y-84662696D01*
X194808813Y-84282290D01*
X194808813Y-84270313D01*
X210041416Y-84270313D01*
X210041416Y-84682061D01*
X210198985Y-85062467D01*
X210490136Y-85353618D01*
X210870542Y-85511187D01*
X211282290Y-85511187D01*
X211662696Y-85353618D01*
X211953847Y-85062467D01*
X212111416Y-84682061D01*
X212111416Y-84270313D01*
X212107145Y-84260000D01*
X217485908Y-84260000D01*
X217601161Y-84839418D01*
X217929375Y-85330625D01*
X218227761Y-85530000D01*
X217929375Y-85729375D01*
X217601161Y-86220582D01*
X217485908Y-86800000D01*
X217601161Y-87379418D01*
X217929375Y-87870625D01*
X218227761Y-88070000D01*
X217929375Y-88269375D01*
X217601161Y-88760582D01*
X217485908Y-89340000D01*
X217601161Y-89919418D01*
X217929375Y-90410625D01*
X218227761Y-90610000D01*
X217929375Y-90809375D01*
X217601161Y-91300582D01*
X217485908Y-91880000D01*
X217601161Y-92459418D01*
X217929375Y-92950625D01*
X218227761Y-93150000D01*
X217929375Y-93349375D01*
X217601161Y-93840582D01*
X217485908Y-94420000D01*
X217601161Y-94999418D01*
X217929375Y-95490625D01*
X218227761Y-95690000D01*
X217929375Y-95889375D01*
X217601161Y-96380582D01*
X217485908Y-96960000D01*
X217601161Y-97539418D01*
X217929375Y-98030625D01*
X218227761Y-98230000D01*
X217929375Y-98429375D01*
X217601161Y-98920582D01*
X217485908Y-99500000D01*
X217601161Y-100079418D01*
X217929375Y-100570625D01*
X218420582Y-100898839D01*
X218853744Y-100985000D01*
X219146256Y-100985000D01*
X219579418Y-100898839D01*
X220070625Y-100570625D01*
X220398839Y-100079418D01*
X220514092Y-99500000D01*
X220398839Y-98920582D01*
X220070625Y-98429375D01*
X219772239Y-98230000D01*
X220070625Y-98030625D01*
X220398839Y-97539418D01*
X220514092Y-96960000D01*
X220398839Y-96380582D01*
X220070625Y-95889375D01*
X219772239Y-95690000D01*
X220070625Y-95490625D01*
X220398839Y-94999418D01*
X220514092Y-94420000D01*
X220398839Y-93840582D01*
X220070625Y-93349375D01*
X219772239Y-93150000D01*
X220070625Y-92950625D01*
X220398839Y-92459418D01*
X220514092Y-91880000D01*
X220398839Y-91300582D01*
X220070625Y-90809375D01*
X219772239Y-90610000D01*
X220070625Y-90410625D01*
X220398839Y-89919418D01*
X220514092Y-89340000D01*
X220398839Y-88760582D01*
X220070625Y-88269375D01*
X219772239Y-88070000D01*
X220070625Y-87870625D01*
X220398839Y-87379418D01*
X220514092Y-86800000D01*
X220398839Y-86220582D01*
X220070625Y-85729375D01*
X219772239Y-85530000D01*
X220070625Y-85330625D01*
X220398839Y-84839418D01*
X220514092Y-84260000D01*
X220398839Y-83680582D01*
X220070625Y-83189375D01*
X220052381Y-83177184D01*
X220097765Y-83168157D01*
X220307809Y-83027809D01*
X220448157Y-82817765D01*
X220497440Y-82570000D01*
X220497440Y-80870000D01*
X220448157Y-80622235D01*
X220307809Y-80412191D01*
X220097765Y-80271843D01*
X219850000Y-80222560D01*
X218150000Y-80222560D01*
X217902235Y-80271843D01*
X217692191Y-80412191D01*
X217551843Y-80622235D01*
X217502560Y-80870000D01*
X217502560Y-82570000D01*
X217551843Y-82817765D01*
X217692191Y-83027809D01*
X217902235Y-83168157D01*
X217947619Y-83177184D01*
X217929375Y-83189375D01*
X217601161Y-83680582D01*
X217485908Y-84260000D01*
X212107145Y-84260000D01*
X211953847Y-83889907D01*
X211662696Y-83598756D01*
X211282290Y-83441187D01*
X210870542Y-83441187D01*
X210490136Y-83598756D01*
X210198985Y-83889907D01*
X210041416Y-84270313D01*
X194808813Y-84270313D01*
X194808813Y-83870542D01*
X194651244Y-83490136D01*
X194360093Y-83198985D01*
X193979687Y-83041416D01*
X193567939Y-83041416D01*
X193187533Y-83198985D01*
X192896382Y-83490136D01*
X192738813Y-83870542D01*
X166696973Y-83870542D01*
X166604677Y-83832312D01*
X166192929Y-83832312D01*
X165812523Y-83989881D01*
X165521372Y-84281032D01*
X165363803Y-84661438D01*
X137127000Y-84661438D01*
X137127000Y-81670542D01*
X165538813Y-81670542D01*
X165538813Y-82082290D01*
X165696382Y-82462696D01*
X165987533Y-82753847D01*
X166367939Y-82911416D01*
X166779687Y-82911416D01*
X167160093Y-82753847D01*
X167451244Y-82462696D01*
X167608813Y-82082290D01*
X167608813Y-81670542D01*
X167588103Y-81620542D01*
X189738813Y-81620542D01*
X189738813Y-82032290D01*
X189896382Y-82412696D01*
X190187533Y-82703847D01*
X190567939Y-82861416D01*
X190979687Y-82861416D01*
X191360093Y-82703847D01*
X191651244Y-82412696D01*
X191808813Y-82032290D01*
X191808813Y-81620542D01*
X191651244Y-81240136D01*
X191360093Y-80948985D01*
X190979687Y-80791416D01*
X190567939Y-80791416D01*
X190187533Y-80948985D01*
X189896382Y-81240136D01*
X189738813Y-81620542D01*
X167588103Y-81620542D01*
X167451244Y-81290136D01*
X167160093Y-80998985D01*
X166779687Y-80841416D01*
X166367939Y-80841416D01*
X165987533Y-80998985D01*
X165696382Y-81290136D01*
X165538813Y-81670542D01*
X137127000Y-81670542D01*
X137127000Y-80534649D01*
X192088148Y-80534649D01*
X192088148Y-80946397D01*
X192245717Y-81326803D01*
X192536868Y-81617954D01*
X192917274Y-81775523D01*
X193329022Y-81775523D01*
X193709428Y-81617954D01*
X194000579Y-81326803D01*
X194158148Y-80946397D01*
X194158148Y-80534649D01*
X194000579Y-80154243D01*
X193709428Y-79863092D01*
X193329022Y-79705523D01*
X192917274Y-79705523D01*
X192536868Y-79863092D01*
X192245717Y-80154243D01*
X192088148Y-80534649D01*
X137127000Y-80534649D01*
X137127000Y-75761939D01*
X138650584Y-75761939D01*
X138650584Y-76173687D01*
X138808153Y-76554093D01*
X139099304Y-76845244D01*
X139479710Y-77002813D01*
X139891458Y-77002813D01*
X140271864Y-76845244D01*
X140563015Y-76554093D01*
X140720584Y-76173687D01*
X140720584Y-75761939D01*
X140617031Y-75511939D01*
X146400584Y-75511939D01*
X146400584Y-75923687D01*
X146522415Y-76217813D01*
X146400584Y-76511939D01*
X146400584Y-76923687D01*
X146522415Y-77217813D01*
X146400584Y-77511939D01*
X146400584Y-77923687D01*
X146558153Y-78304093D01*
X146849304Y-78595244D01*
X147229710Y-78752813D01*
X147641458Y-78752813D01*
X147935584Y-78630982D01*
X148229710Y-78752813D01*
X148641458Y-78752813D01*
X148935584Y-78630982D01*
X149229710Y-78752813D01*
X149400584Y-78752813D01*
X149400584Y-78923687D01*
X149558153Y-79304093D01*
X149849304Y-79595244D01*
X150229710Y-79752813D01*
X150641458Y-79752813D01*
X151021864Y-79595244D01*
X151313015Y-79304093D01*
X151470584Y-78923687D01*
X151470584Y-78670542D01*
X165538813Y-78670542D01*
X165538813Y-79082290D01*
X165696382Y-79462696D01*
X165987533Y-79753847D01*
X166367939Y-79911416D01*
X166779687Y-79911416D01*
X167160093Y-79753847D01*
X167451244Y-79462696D01*
X167608813Y-79082290D01*
X167608813Y-78670542D01*
X167451244Y-78290136D01*
X167160093Y-77998985D01*
X166779687Y-77841416D01*
X166367939Y-77841416D01*
X165987533Y-77998985D01*
X165696382Y-78290136D01*
X165538813Y-78670542D01*
X151470584Y-78670542D01*
X151470584Y-78511939D01*
X151348753Y-78217813D01*
X151470584Y-77923687D01*
X151470584Y-77511939D01*
X151348753Y-77217813D01*
X151470584Y-76923687D01*
X151470584Y-76511939D01*
X151348753Y-76217813D01*
X151470584Y-75923687D01*
X151470584Y-75511939D01*
X151313015Y-75131533D01*
X151021864Y-74840382D01*
X150641458Y-74682813D01*
X150229710Y-74682813D01*
X149935584Y-74804644D01*
X149641458Y-74682813D01*
X149229710Y-74682813D01*
X148935584Y-74804644D01*
X148641458Y-74682813D01*
X148229710Y-74682813D01*
X147935584Y-74804644D01*
X147641458Y-74682813D01*
X147229710Y-74682813D01*
X146849304Y-74840382D01*
X146558153Y-75131533D01*
X146400584Y-75511939D01*
X140617031Y-75511939D01*
X140563015Y-75381533D01*
X140271864Y-75090382D01*
X139891458Y-74932813D01*
X139479710Y-74932813D01*
X139099304Y-75090382D01*
X138808153Y-75381533D01*
X138650584Y-75761939D01*
X137127000Y-75761939D01*
X137127000Y-74261939D01*
X144150584Y-74261939D01*
X144150584Y-74673687D01*
X144308153Y-75054093D01*
X144599304Y-75345244D01*
X144979710Y-75502813D01*
X145391458Y-75502813D01*
X145771864Y-75345244D01*
X146063015Y-75054093D01*
X146220584Y-74673687D01*
X146220584Y-74534649D01*
X203088148Y-74534649D01*
X203088148Y-74946397D01*
X203245717Y-75326803D01*
X203536868Y-75617954D01*
X203917274Y-75775523D01*
X204329022Y-75775523D01*
X204709428Y-75617954D01*
X205000579Y-75326803D01*
X205158148Y-74946397D01*
X205158148Y-74534649D01*
X205000579Y-74154243D01*
X204709428Y-73863092D01*
X204329022Y-73705523D01*
X203917274Y-73705523D01*
X203536868Y-73863092D01*
X203245717Y-74154243D01*
X203088148Y-74534649D01*
X146220584Y-74534649D01*
X146220584Y-74261939D01*
X146063015Y-73881533D01*
X145771864Y-73590382D01*
X145391458Y-73432813D01*
X144979710Y-73432813D01*
X144599304Y-73590382D01*
X144308153Y-73881533D01*
X144150584Y-74261939D01*
X137127000Y-74261939D01*
X137127000Y-68012509D01*
X137195752Y-67666870D01*
X137384455Y-67384455D01*
X137666870Y-67195752D01*
X138012509Y-67127000D01*
X138626583Y-67127000D01*
X138602235Y-67131843D01*
X138602235Y-67131843D01*
G37*
X138602235Y-67131843D02*
X138392191Y-67272191D01*
X138251843Y-67482235D01*
X138202560Y-67730000D01*
X138202560Y-69430000D01*
X138251843Y-69677765D01*
X138392191Y-69887809D01*
X138602235Y-70028157D01*
X138850000Y-70077440D01*
X140550000Y-70077440D01*
X140797765Y-70028157D01*
X141007809Y-69887809D01*
X141148157Y-69677765D01*
X141157184Y-69632381D01*
X141169375Y-69650625D01*
X141660582Y-69978839D01*
X142093744Y-70065000D01*
X142386256Y-70065000D01*
X142819418Y-69978839D01*
X143310625Y-69650625D01*
X143510000Y-69352239D01*
X143709375Y-69650625D01*
X144200582Y-69978839D01*
X144633744Y-70065000D01*
X144926256Y-70065000D01*
X145359418Y-69978839D01*
X145850625Y-69650625D01*
X146050000Y-69352239D01*
X146249375Y-69650625D01*
X146740582Y-69978839D01*
X147173744Y-70065000D01*
X147466256Y-70065000D01*
X147899418Y-69978839D01*
X148390625Y-69650625D01*
X148590000Y-69352239D01*
X148789375Y-69650625D01*
X149280582Y-69978839D01*
X149713744Y-70065000D01*
X150006256Y-70065000D01*
X150439418Y-69978839D01*
X150930625Y-69650625D01*
X151130000Y-69352239D01*
X151329375Y-69650625D01*
X151820582Y-69978839D01*
X152253744Y-70065000D01*
X152546256Y-70065000D01*
X152979418Y-69978839D01*
X153470625Y-69650625D01*
X153670000Y-69352239D01*
X153869375Y-69650625D01*
X154360582Y-69978839D01*
X154793744Y-70065000D01*
X155086256Y-70065000D01*
X155519418Y-69978839D01*
X156010625Y-69650625D01*
X156210000Y-69352239D01*
X156409375Y-69650625D01*
X156900582Y-69978839D01*
X157333744Y-70065000D01*
X157626256Y-70065000D01*
X158059418Y-69978839D01*
X158550625Y-69650625D01*
X158750000Y-69352239D01*
X158949375Y-69650625D01*
X159440582Y-69978839D01*
X159873744Y-70065000D01*
X160166256Y-70065000D01*
X160599418Y-69978839D01*
X161090625Y-69650625D01*
X161290000Y-69352239D01*
X161489375Y-69650625D01*
X161980582Y-69978839D01*
X162413744Y-70065000D01*
X162706256Y-70065000D01*
X163139418Y-69978839D01*
X163630625Y-69650625D01*
X163830000Y-69352239D01*
X164029375Y-69650625D01*
X164520582Y-69978839D01*
X164953744Y-70065000D01*
X165246256Y-70065000D01*
X165679418Y-69978839D01*
X166170625Y-69650625D01*
X166370000Y-69352239D01*
X166569375Y-69650625D01*
X167060582Y-69978839D01*
X167493744Y-70065000D01*
X167786256Y-70065000D01*
X168219418Y-69978839D01*
X168710625Y-69650625D01*
X168910000Y-69352239D01*
X169109375Y-69650625D01*
X169600582Y-69978839D01*
X170033744Y-70065000D01*
X170326256Y-70065000D01*
X170759418Y-69978839D01*
X171250625Y-69650625D01*
X171450000Y-69352239D01*
X171649375Y-69650625D01*
X172140582Y-69978839D01*
X172573744Y-70065000D01*
X172866256Y-70065000D01*
X173299418Y-69978839D01*
X173790625Y-69650625D01*
X173990000Y-69352239D01*
X174189375Y-69650625D01*
X174680582Y-69978839D01*
X175113744Y-70065000D01*
X175406256Y-70065000D01*
X175839418Y-69978839D01*
X176330625Y-69650625D01*
X176530000Y-69352239D01*
X176729375Y-69650625D01*
X177220582Y-69978839D01*
X177653744Y-70065000D01*
X177946256Y-70065000D01*
X178379418Y-69978839D01*
X178870625Y-69650625D01*
X179070000Y-69352239D01*
X179269375Y-69650625D01*
X179760582Y-69978839D01*
X180193744Y-70065000D01*
X180486256Y-70065000D01*
X180919418Y-69978839D01*
X181410625Y-69650625D01*
X181610000Y-69352239D01*
X181809375Y-69650625D01*
X182300582Y-69978839D01*
X182733744Y-70065000D01*
X183026256Y-70065000D01*
X183459418Y-69978839D01*
X183950625Y-69650625D01*
X184150000Y-69352239D01*
X184349375Y-69650625D01*
X184840582Y-69978839D01*
X185273744Y-70065000D01*
X185566256Y-70065000D01*
X185999418Y-69978839D01*
X186490625Y-69650625D01*
X186690000Y-69352239D01*
X186889375Y-69650625D01*
X187380582Y-69978839D01*
X187813744Y-70065000D01*
X188106256Y-70065000D01*
X188539418Y-69978839D01*
X189030625Y-69650625D01*
X189230000Y-69352239D01*
X189429375Y-69650625D01*
X189920582Y-69978839D01*
X190353744Y-70065000D01*
X190646256Y-70065000D01*
X191079418Y-69978839D01*
X191570625Y-69650625D01*
X191770000Y-69352239D01*
X191969375Y-69650625D01*
X192460582Y-69978839D01*
X192893744Y-70065000D01*
X193186256Y-70065000D01*
X193619418Y-69978839D01*
X194110625Y-69650625D01*
X194310000Y-69352239D01*
X194509375Y-69650625D01*
X195000582Y-69978839D01*
X195433744Y-70065000D01*
X195726256Y-70065000D01*
X196159418Y-69978839D01*
X196650625Y-69650625D01*
X196850000Y-69352239D01*
X197049375Y-69650625D01*
X197540582Y-69978839D01*
X197973744Y-70065000D01*
X198266256Y-70065000D01*
X198699418Y-69978839D01*
X199190625Y-69650625D01*
X199390000Y-69352239D01*
X199589375Y-69650625D01*
X200080582Y-69978839D01*
X200513744Y-70065000D01*
X200806256Y-70065000D01*
X201239418Y-69978839D01*
X201730625Y-69650625D01*
X201930000Y-69352239D01*
X202129375Y-69650625D01*
X202620582Y-69978839D01*
X203053744Y-70065000D01*
X203346256Y-70065000D01*
X203779418Y-69978839D01*
X204270625Y-69650625D01*
X204470000Y-69352239D01*
X204669375Y-69650625D01*
X205160582Y-69978839D01*
X205593744Y-70065000D01*
X205886256Y-70065000D01*
X206319418Y-69978839D01*
X206810625Y-69650625D01*
X207010000Y-69352239D01*
X207209375Y-69650625D01*
X207700582Y-69978839D01*
X208133744Y-70065000D01*
X208426256Y-70065000D01*
X208859418Y-69978839D01*
X209350625Y-69650625D01*
X209550000Y-69352239D01*
X209749375Y-69650625D01*
X210240582Y-69978839D01*
X210673744Y-70065000D01*
X210966256Y-70065000D01*
X211399418Y-69978839D01*
X211890625Y-69650625D01*
X212090000Y-69352239D01*
X212289375Y-69650625D01*
X212780582Y-69978839D01*
X213213744Y-70065000D01*
X213506256Y-70065000D01*
X213939418Y-69978839D01*
X214430625Y-69650625D01*
X214758839Y-69159418D01*
X214874092Y-68580000D01*
X214758839Y-68000582D01*
X214430625Y-67509375D01*
X213939418Y-67181161D01*
X213667131Y-67127000D01*
X219987491Y-67127000D01*
X220333130Y-67195752D01*
X220615545Y-67384455D01*
X220804248Y-67666870D01*
X220873000Y-68012509D01*
X220873000Y-127987491D01*
X220804248Y-128333130D01*
X220615545Y-128615545D01*
X220333130Y-128804248D01*
X219987491Y-128873000D01*
X138012509Y-128873000D01*
X137666870Y-128804248D01*
X137384455Y-128615545D01*
X137195752Y-128333130D01*
X137127000Y-127987491D01*
X137127000Y-127000000D01*
X150885908Y-127000000D01*
X151001161Y-127579418D01*
X151329375Y-128070625D01*
X151820582Y-128398839D01*
X152253744Y-128485000D01*
X152546256Y-128485000D01*
X152979418Y-128398839D01*
X153470625Y-128070625D01*
X153670000Y-127772239D01*
X153869375Y-128070625D01*
X154360582Y-128398839D01*
X154793744Y-128485000D01*
X155086256Y-128485000D01*
X155519418Y-128398839D01*
X156010625Y-128070625D01*
X156210000Y-127772239D01*
X156409375Y-128070625D01*
X156900582Y-128398839D01*
X157333744Y-128485000D01*
X157626256Y-128485000D01*
X158059418Y-128398839D01*
X158550625Y-128070625D01*
X158750000Y-127772239D01*
X158949375Y-128070625D01*
X159440582Y-128398839D01*
X159873744Y-128485000D01*
X160166256Y-128485000D01*
X160599418Y-128398839D01*
X161090625Y-128070625D01*
X161290000Y-127772239D01*
X161489375Y-128070625D01*
X161980582Y-128398839D01*
X162413744Y-128485000D01*
X162706256Y-128485000D01*
X163139418Y-128398839D01*
X163630625Y-128070625D01*
X163642816Y-128052381D01*
X163651843Y-128097765D01*
X163792191Y-128307809D01*
X164002235Y-128448157D01*
X164250000Y-128497440D01*
X165950000Y-128497440D01*
X166197765Y-128448157D01*
X166407809Y-128307809D01*
X166548157Y-128097765D01*
X166597440Y-127850000D01*
X166597440Y-126150000D01*
X168682560Y-126150000D01*
X168682560Y-127850000D01*
X168731843Y-128097765D01*
X168872191Y-128307809D01*
X169082235Y-128448157D01*
X169330000Y-128497440D01*
X171030000Y-128497440D01*
X171277765Y-128448157D01*
X171487809Y-128307809D01*
X171628157Y-128097765D01*
X171637184Y-128052381D01*
X171649375Y-128070625D01*
X172140582Y-128398839D01*
X172573744Y-128485000D01*
X172866256Y-128485000D01*
X173299418Y-128398839D01*
X173790625Y-128070625D01*
X173990000Y-127772239D01*
X174189375Y-128070625D01*
X174680582Y-128398839D01*
X175113744Y-128485000D01*
X175406256Y-128485000D01*
X175839418Y-128398839D01*
X176330625Y-128070625D01*
X176530000Y-127772239D01*
X176729375Y-128070625D01*
X177220582Y-128398839D01*
X177653744Y-128485000D01*
X177946256Y-128485000D01*
X178379418Y-128398839D01*
X178870625Y-128070625D01*
X179086176Y-127748031D01*
X179309289Y-128069085D01*
X179746735Y-128361345D01*
X179967000Y-128272718D01*
X179967000Y-127373000D01*
X179947000Y-127373000D01*
X179947000Y-126627000D01*
X179967000Y-126627000D01*
X179967000Y-125727282D01*
X180713000Y-125727282D01*
X180713000Y-126627000D01*
X180733000Y-126627000D01*
X180733000Y-127373000D01*
X180713000Y-127373000D01*
X180713000Y-128272718D01*
X180933265Y-128361345D01*
X181370711Y-128069085D01*
X181593824Y-127748031D01*
X181809375Y-128070625D01*
X182300582Y-128398839D01*
X182733744Y-128485000D01*
X183026256Y-128485000D01*
X183459418Y-128398839D01*
X183950625Y-128070625D01*
X184278839Y-127579418D01*
X184394092Y-127000000D01*
X186445908Y-127000000D01*
X186561161Y-127579418D01*
X186889375Y-128070625D01*
X187380582Y-128398839D01*
X187813744Y-128485000D01*
X188106256Y-128485000D01*
X188539418Y-128398839D01*
X189030625Y-128070625D01*
X189246176Y-127748031D01*
X189469289Y-128069085D01*
X189906735Y-128361345D01*
X190127000Y-128272718D01*
X190127000Y-127373000D01*
X190107000Y-127373000D01*
X190107000Y-126627000D01*
X190127000Y-126627000D01*
X190127000Y-125727282D01*
X190873000Y-125727282D01*
X190873000Y-126627000D01*
X190893000Y-126627000D01*
X190893000Y-127373000D01*
X190873000Y-127373000D01*
X190873000Y-128272718D01*
X191093265Y-128361345D01*
X191530711Y-128069085D01*
X191753824Y-127748031D01*
X191969375Y-128070625D01*
X192460582Y-128398839D01*
X192893744Y-128485000D01*
X193186256Y-128485000D01*
X193619418Y-128398839D01*
X194110625Y-128070625D01*
X194310000Y-127772239D01*
X194509375Y-128070625D01*
X195000582Y-128398839D01*
X195433744Y-128485000D01*
X195726256Y-128485000D01*
X196159418Y-128398839D01*
X196650625Y-128070625D01*
X196850000Y-127772239D01*
X197049375Y-128070625D01*
X197540582Y-128398839D01*
X197973744Y-128485000D01*
X198266256Y-128485000D01*
X198699418Y-128398839D01*
X199190625Y-128070625D01*
X199390000Y-127772239D01*
X199589375Y-128070625D01*
X200080582Y-128398839D01*
X200513744Y-128485000D01*
X200806256Y-128485000D01*
X201239418Y-128398839D01*
X201730625Y-128070625D01*
X201742816Y-128052381D01*
X201751843Y-128097765D01*
X201892191Y-128307809D01*
X202102235Y-128448157D01*
X202350000Y-128497440D01*
X204050000Y-128497440D01*
X204297765Y-128448157D01*
X204507809Y-128307809D01*
X204648157Y-128097765D01*
X204697440Y-127850000D01*
X204697440Y-126150000D01*
X204648157Y-125902235D01*
X204507809Y-125692191D01*
X204297765Y-125551843D01*
X204050000Y-125502560D01*
X202350000Y-125502560D01*
X202102235Y-125551843D01*
X201892191Y-125692191D01*
X201751843Y-125902235D01*
X201742816Y-125947619D01*
X201730625Y-125929375D01*
X201239418Y-125601161D01*
X200806256Y-125515000D01*
X200513744Y-125515000D01*
X200080582Y-125601161D01*
X199589375Y-125929375D01*
X199390000Y-126227761D01*
X199190625Y-125929375D01*
X198699418Y-125601161D01*
X198266256Y-125515000D01*
X197973744Y-125515000D01*
X197540582Y-125601161D01*
X197049375Y-125929375D01*
X196850000Y-126227761D01*
X196650625Y-125929375D01*
X196159418Y-125601161D01*
X195726256Y-125515000D01*
X195433744Y-125515000D01*
X195000582Y-125601161D01*
X194509375Y-125929375D01*
X194310000Y-126227761D01*
X194110625Y-125929375D01*
X193619418Y-125601161D01*
X193186256Y-125515000D01*
X192893744Y-125515000D01*
X192460582Y-125601161D01*
X191969375Y-125929375D01*
X191753824Y-126251969D01*
X191530711Y-125930915D01*
X191093265Y-125638655D01*
X190873000Y-125727282D01*
X190127000Y-125727282D01*
X189906735Y-125638655D01*
X189469289Y-125930915D01*
X189246176Y-126251969D01*
X189030625Y-125929375D01*
X188539418Y-125601161D01*
X188106256Y-125515000D01*
X187813744Y-125515000D01*
X187380582Y-125601161D01*
X186889375Y-125929375D01*
X186561161Y-126420582D01*
X186445908Y-127000000D01*
X184394092Y-127000000D01*
X184278839Y-126420582D01*
X183950625Y-125929375D01*
X183459418Y-125601161D01*
X183026256Y-125515000D01*
X182733744Y-125515000D01*
X182300582Y-125601161D01*
X181809375Y-125929375D01*
X181593824Y-126251969D01*
X181370711Y-125930915D01*
X180933265Y-125638655D01*
X180713000Y-125727282D01*
X179967000Y-125727282D01*
X179746735Y-125638655D01*
X179309289Y-125930915D01*
X179086176Y-126251969D01*
X178870625Y-125929375D01*
X178379418Y-125601161D01*
X177946256Y-125515000D01*
X177653744Y-125515000D01*
X177220582Y-125601161D01*
X176729375Y-125929375D01*
X176530000Y-126227761D01*
X176330625Y-125929375D01*
X175839418Y-125601161D01*
X175406256Y-125515000D01*
X175113744Y-125515000D01*
X174680582Y-125601161D01*
X174189375Y-125929375D01*
X173990000Y-126227761D01*
X173790625Y-125929375D01*
X173299418Y-125601161D01*
X172866256Y-125515000D01*
X172573744Y-125515000D01*
X172140582Y-125601161D01*
X171649375Y-125929375D01*
X171637184Y-125947619D01*
X171628157Y-125902235D01*
X171487809Y-125692191D01*
X171277765Y-125551843D01*
X171030000Y-125502560D01*
X169330000Y-125502560D01*
X169082235Y-125551843D01*
X168872191Y-125692191D01*
X168731843Y-125902235D01*
X168682560Y-126150000D01*
X166597440Y-126150000D01*
X166548157Y-125902235D01*
X166407809Y-125692191D01*
X166197765Y-125551843D01*
X165950000Y-125502560D01*
X164250000Y-125502560D01*
X164002235Y-125551843D01*
X163792191Y-125692191D01*
X163651843Y-125902235D01*
X163642816Y-125947619D01*
X163630625Y-125929375D01*
X163139418Y-125601161D01*
X162706256Y-125515000D01*
X162413744Y-125515000D01*
X161980582Y-125601161D01*
X161489375Y-125929375D01*
X161290000Y-126227761D01*
X161090625Y-125929375D01*
X160599418Y-125601161D01*
X160166256Y-125515000D01*
X159873744Y-125515000D01*
X159440582Y-125601161D01*
X158949375Y-125929375D01*
X158750000Y-126227761D01*
X158550625Y-125929375D01*
X158059418Y-125601161D01*
X157626256Y-125515000D01*
X157333744Y-125515000D01*
X156900582Y-125601161D01*
X156409375Y-125929375D01*
X156210000Y-126227761D01*
X156010625Y-125929375D01*
X155519418Y-125601161D01*
X155086256Y-125515000D01*
X154793744Y-125515000D01*
X154360582Y-125601161D01*
X153869375Y-125929375D01*
X153670000Y-126227761D01*
X153470625Y-125929375D01*
X152979418Y-125601161D01*
X152546256Y-125515000D01*
X152253744Y-125515000D01*
X151820582Y-125601161D01*
X151329375Y-125929375D01*
X151001161Y-126420582D01*
X150885908Y-127000000D01*
X137127000Y-127000000D01*
X137127000Y-120544126D01*
X155965000Y-120544126D01*
X155965000Y-120955874D01*
X156122569Y-121336280D01*
X156413720Y-121627431D01*
X156794126Y-121785000D01*
X157205874Y-121785000D01*
X157586280Y-121627431D01*
X157877431Y-121336280D01*
X158035000Y-120955874D01*
X158035000Y-120620542D01*
X158488813Y-120620542D01*
X158488813Y-121032290D01*
X158646382Y-121412696D01*
X158937533Y-121703847D01*
X159317939Y-121861416D01*
X159729687Y-121861416D01*
X160110093Y-121703847D01*
X160401244Y-121412696D01*
X160558813Y-121032290D01*
X160558813Y-120620542D01*
X160401244Y-120240136D01*
X160110093Y-119948985D01*
X159729687Y-119791416D01*
X159317939Y-119791416D01*
X158937533Y-119948985D01*
X158646382Y-120240136D01*
X158488813Y-120620542D01*
X158035000Y-120620542D01*
X158035000Y-120544126D01*
X157877431Y-120163720D01*
X157586280Y-119872569D01*
X157205874Y-119715000D01*
X156794126Y-119715000D01*
X156413720Y-119872569D01*
X156122569Y-120163720D01*
X155965000Y-120544126D01*
X137127000Y-120544126D01*
X137127000Y-114900000D01*
X145252560Y-114900000D01*
X145252560Y-116600000D01*
X145301843Y-116847765D01*
X145442191Y-117057809D01*
X145652235Y-117198157D01*
X145900000Y-117247440D01*
X147600000Y-117247440D01*
X147847765Y-117198157D01*
X148057809Y-117057809D01*
X148198157Y-116847765D01*
X148207184Y-116802381D01*
X148219375Y-116820625D01*
X148710582Y-117148839D01*
X149143744Y-117235000D01*
X149436256Y-117235000D01*
X149869418Y-117148839D01*
X150360625Y-116820625D01*
X150560000Y-116522239D01*
X150759375Y-116820625D01*
X151250582Y-117148839D01*
X151683744Y-117235000D01*
X151976256Y-117235000D01*
X152409418Y-117148839D01*
X152900625Y-116820625D01*
X153100000Y-116522239D01*
X153299375Y-116820625D01*
X153790582Y-117148839D01*
X154223744Y-117235000D01*
X154516256Y-117235000D01*
X154949418Y-117148839D01*
X155440625Y-116820625D01*
X155640000Y-116522239D01*
X155839375Y-116820625D01*
X156330582Y-117148839D01*
X156763744Y-117235000D01*
X157056256Y-117235000D01*
X157489418Y-117148839D01*
X157980625Y-116820625D01*
X158180000Y-116522239D01*
X158379375Y-116820625D01*
X158600053Y-116968078D01*
X158465000Y-117294126D01*
X158465000Y-117705874D01*
X158622569Y-118086280D01*
X158913720Y-118377431D01*
X159294126Y-118535000D01*
X159705874Y-118535000D01*
X160086280Y-118377431D01*
X160377431Y-118086280D01*
X160535000Y-117705874D01*
X160535000Y-117420000D01*
X179235908Y-117420000D01*
X179351161Y-117999418D01*
X179679375Y-118490625D01*
X179977761Y-118690000D01*
X179679375Y-118889375D01*
X179351161Y-119380582D01*
X179235908Y-119960000D01*
X179351161Y-120539418D01*
X179679375Y-121030625D01*
X179697619Y-121042816D01*
X179652235Y-121051843D01*
X179442191Y-121192191D01*
X179301843Y-121402235D01*
X179252560Y-121650000D01*
X179252560Y-123350000D01*
X179301843Y-123597765D01*
X179442191Y-123807809D01*
X179652235Y-123948157D01*
X179900000Y-123997440D01*
X181600000Y-123997440D01*
X181847765Y-123948157D01*
X182057809Y-123807809D01*
X182198157Y-123597765D01*
X182247440Y-123350000D01*
X182247440Y-123025001D01*
X206060909Y-123025001D01*
X206176162Y-123604419D01*
X206504376Y-124095626D01*
X206995583Y-124423840D01*
X207428745Y-124510001D01*
X207721257Y-124510001D01*
X208154419Y-124423840D01*
X208645626Y-124095626D01*
X208973840Y-123604419D01*
X209089093Y-123025001D01*
X209710909Y-123025001D01*
X209826162Y-123604419D01*
X210154376Y-124095626D01*
X210645583Y-124423840D01*
X211078745Y-124510001D01*
X211371257Y-124510001D01*
X211804419Y-124423840D01*
X212295626Y-124095626D01*
X212623840Y-123604419D01*
X212739093Y-123025001D01*
X213360909Y-123025001D01*
X213476162Y-123604419D01*
X213804376Y-124095626D01*
X214295583Y-124423840D01*
X214728745Y-124510001D01*
X215021257Y-124510001D01*
X215454419Y-124423840D01*
X215945626Y-124095626D01*
X216273840Y-123604419D01*
X216389093Y-123025001D01*
X217010909Y-123025001D01*
X217126162Y-123604419D01*
X217454376Y-124095626D01*
X217945583Y-124423840D01*
X218378745Y-124510001D01*
X218671257Y-124510001D01*
X219104419Y-124423840D01*
X219595626Y-124095626D01*
X219923840Y-123604419D01*
X220039093Y-123025001D01*
X219923840Y-122445583D01*
X219595626Y-121954376D01*
X219273032Y-121738825D01*
X219594086Y-121515712D01*
X219886346Y-121078266D01*
X219797719Y-120858001D01*
X218898001Y-120858001D01*
X218898001Y-120878001D01*
X218152001Y-120878001D01*
X218152001Y-120858001D01*
X217252283Y-120858001D01*
X217163656Y-121078266D01*
X217455916Y-121515712D01*
X217776970Y-121738825D01*
X217454376Y-121954376D01*
X217126162Y-122445583D01*
X217010909Y-123025001D01*
X216389093Y-123025001D01*
X216273840Y-122445583D01*
X215945626Y-121954376D01*
X215623032Y-121738825D01*
X215944086Y-121515712D01*
X216236346Y-121078266D01*
X216147719Y-120858001D01*
X215248001Y-120858001D01*
X215248001Y-120878001D01*
X214502001Y-120878001D01*
X214502001Y-120858001D01*
X213602283Y-120858001D01*
X213513656Y-121078266D01*
X213805916Y-121515712D01*
X214126970Y-121738825D01*
X213804376Y-121954376D01*
X213476162Y-122445583D01*
X213360909Y-123025001D01*
X212739093Y-123025001D01*
X212623840Y-122445583D01*
X212295626Y-121954376D01*
X211973032Y-121738825D01*
X212294086Y-121515712D01*
X212586346Y-121078266D01*
X212497719Y-120858001D01*
X211598001Y-120858001D01*
X211598001Y-120878001D01*
X210852001Y-120878001D01*
X210852001Y-120858001D01*
X209952283Y-120858001D01*
X209863656Y-121078266D01*
X210155916Y-121515712D01*
X210476970Y-121738825D01*
X210154376Y-121954376D01*
X209826162Y-122445583D01*
X209710909Y-123025001D01*
X209089093Y-123025001D01*
X208973840Y-122445583D01*
X208645626Y-121954376D01*
X208323032Y-121738825D01*
X208644086Y-121515712D01*
X208936346Y-121078266D01*
X208847719Y-120858001D01*
X207948001Y-120858001D01*
X207948001Y-120878001D01*
X207202001Y-120878001D01*
X207202001Y-120858001D01*
X206302283Y-120858001D01*
X206213656Y-121078266D01*
X206505916Y-121515712D01*
X206826970Y-121738825D01*
X206504376Y-121954376D01*
X206176162Y-122445583D01*
X206060909Y-123025001D01*
X182247440Y-123025001D01*
X182247440Y-121650000D01*
X182198157Y-121402235D01*
X182057809Y-121192191D01*
X181847765Y-121051843D01*
X181802381Y-121042816D01*
X181820625Y-121030625D01*
X182148839Y-120539418D01*
X182226298Y-120150000D01*
X186252560Y-120150000D01*
X186252560Y-121850000D01*
X186301843Y-122097765D01*
X186442191Y-122307809D01*
X186652235Y-122448157D01*
X186900000Y-122497440D01*
X188600000Y-122497440D01*
X188847765Y-122448157D01*
X189057809Y-122307809D01*
X189198157Y-122097765D01*
X189207184Y-122052381D01*
X189219375Y-122070625D01*
X189710582Y-122398839D01*
X190143744Y-122485000D01*
X190436256Y-122485000D01*
X190869418Y-122398839D01*
X191360625Y-122070625D01*
X191560000Y-121772239D01*
X191759375Y-122070625D01*
X192250582Y-122398839D01*
X192683744Y-122485000D01*
X192976256Y-122485000D01*
X193409418Y-122398839D01*
X193900625Y-122070625D01*
X194100000Y-121772239D01*
X194299375Y-122070625D01*
X194790582Y-122398839D01*
X195223744Y-122485000D01*
X195516256Y-122485000D01*
X195949418Y-122398839D01*
X196440625Y-122070625D01*
X196640000Y-121772239D01*
X196839375Y-122070625D01*
X197330582Y-122398839D01*
X197763744Y-122485000D01*
X198056256Y-122485000D01*
X198489418Y-122398839D01*
X198980625Y-122070625D01*
X199308839Y-121579418D01*
X199424092Y-121000000D01*
X199308839Y-120420582D01*
X198980625Y-119929375D01*
X198489418Y-119601161D01*
X198056256Y-119515000D01*
X197763744Y-119515000D01*
X197330582Y-119601161D01*
X196839375Y-119929375D01*
X196640000Y-120227761D01*
X196440625Y-119929375D01*
X195949418Y-119601161D01*
X195516256Y-119515000D01*
X195223744Y-119515000D01*
X194790582Y-119601161D01*
X194299375Y-119929375D01*
X194100000Y-120227761D01*
X193900625Y-119929375D01*
X193409418Y-119601161D01*
X192976256Y-119515000D01*
X192683744Y-119515000D01*
X192250582Y-119601161D01*
X191759375Y-119929375D01*
X191560000Y-120227761D01*
X191360625Y-119929375D01*
X190869418Y-119601161D01*
X190436256Y-119515000D01*
X190143744Y-119515000D01*
X189710582Y-119601161D01*
X189219375Y-119929375D01*
X189207184Y-119947619D01*
X189198157Y-119902235D01*
X189057809Y-119692191D01*
X188847765Y-119551843D01*
X188600000Y-119502560D01*
X186900000Y-119502560D01*
X186652235Y-119551843D01*
X186442191Y-119692191D01*
X186301843Y-119902235D01*
X186252560Y-120150000D01*
X182226298Y-120150000D01*
X182264092Y-119960000D01*
X182148839Y-119380582D01*
X181820625Y-118889375D01*
X181522239Y-118690000D01*
X181820625Y-118490625D01*
X182148839Y-117999418D01*
X182264092Y-117420000D01*
X182148839Y-116840582D01*
X182068625Y-116720533D01*
X193238813Y-116720533D01*
X193238813Y-117132281D01*
X193396382Y-117512687D01*
X193687533Y-117803838D01*
X194067939Y-117961407D01*
X194479687Y-117961407D01*
X194860093Y-117803838D01*
X195151244Y-117512687D01*
X195308813Y-117132281D01*
X195308813Y-116720533D01*
X195151244Y-116340127D01*
X194860093Y-116048976D01*
X194479687Y-115891407D01*
X194067939Y-115891407D01*
X193687533Y-116048976D01*
X193396382Y-116340127D01*
X193238813Y-116720533D01*
X182068625Y-116720533D01*
X181820625Y-116349375D01*
X181329418Y-116021161D01*
X180896256Y-115935000D01*
X180603744Y-115935000D01*
X180170582Y-116021161D01*
X179679375Y-116349375D01*
X179351161Y-116840582D01*
X179235908Y-117420000D01*
X160535000Y-117420000D01*
X160535000Y-117294126D01*
X160378269Y-116915744D01*
X160520625Y-116820625D01*
X160720000Y-116522239D01*
X160919375Y-116820625D01*
X161410582Y-117148839D01*
X161843744Y-117235000D01*
X162136256Y-117235000D01*
X162569418Y-117148839D01*
X163060625Y-116820625D01*
X163260000Y-116522239D01*
X163459375Y-116820625D01*
X163950582Y-117148839D01*
X164383744Y-117235000D01*
X164676256Y-117235000D01*
X165109418Y-117148839D01*
X165600625Y-116820625D01*
X165928839Y-116329418D01*
X166044092Y-115750000D01*
X165928839Y-115170582D01*
X165600625Y-114679375D01*
X165138424Y-114370542D01*
X190238813Y-114370542D01*
X190238813Y-114782290D01*
X190396382Y-115162696D01*
X190687533Y-115453847D01*
X191067939Y-115611416D01*
X191479687Y-115611416D01*
X191860093Y-115453847D01*
X192151244Y-115162696D01*
X192308813Y-114782290D01*
X192308813Y-114544126D01*
X193965000Y-114544126D01*
X193965000Y-114955874D01*
X194122569Y-115336280D01*
X194413720Y-115627431D01*
X194794126Y-115785000D01*
X195205874Y-115785000D01*
X195586280Y-115627431D01*
X195785738Y-115427973D01*
X196044126Y-115535000D01*
X196455874Y-115535000D01*
X196836280Y-115377431D01*
X197127431Y-115086280D01*
X197285000Y-114705874D01*
X197285000Y-114695571D01*
X197531466Y-114797660D01*
X197943214Y-114797660D01*
X198323620Y-114640091D01*
X198614771Y-114348940D01*
X198772340Y-113968534D01*
X198772340Y-113556786D01*
X198614771Y-113176380D01*
X198323620Y-112885229D01*
X198274786Y-112865001D01*
X206060909Y-112865001D01*
X206176162Y-113444419D01*
X206504376Y-113935626D01*
X206802762Y-114135001D01*
X206504376Y-114334376D01*
X206176162Y-114825583D01*
X206060909Y-115405001D01*
X206176162Y-115984419D01*
X206504376Y-116475626D01*
X206802762Y-116675001D01*
X206504376Y-116874376D01*
X206176162Y-117365583D01*
X206060909Y-117945001D01*
X206176162Y-118524419D01*
X206504376Y-119015626D01*
X206826970Y-119231177D01*
X206505916Y-119454290D01*
X206213656Y-119891736D01*
X206302283Y-120112001D01*
X207202001Y-120112001D01*
X207202001Y-120092001D01*
X207948001Y-120092001D01*
X207948001Y-120112001D01*
X208847719Y-120112001D01*
X208936346Y-119891736D01*
X208644086Y-119454290D01*
X208323032Y-119231177D01*
X208645626Y-119015626D01*
X208973840Y-118524419D01*
X209089093Y-117945001D01*
X208973840Y-117365583D01*
X208645626Y-116874376D01*
X208347240Y-116675001D01*
X208645626Y-116475626D01*
X208973840Y-115984419D01*
X209089093Y-115405001D01*
X208973840Y-114825583D01*
X208645626Y-114334376D01*
X208347240Y-114135001D01*
X208645626Y-113935626D01*
X208973840Y-113444419D01*
X209089093Y-112865001D01*
X209710909Y-112865001D01*
X209826162Y-113444419D01*
X210154376Y-113935626D01*
X210452762Y-114135001D01*
X210154376Y-114334376D01*
X209826162Y-114825583D01*
X209710909Y-115405001D01*
X209826162Y-115984419D01*
X210154376Y-116475626D01*
X210452762Y-116675001D01*
X210154376Y-116874376D01*
X209826162Y-117365583D01*
X209710909Y-117945001D01*
X209826162Y-118524419D01*
X210154376Y-119015626D01*
X210476970Y-119231177D01*
X210155916Y-119454290D01*
X209863656Y-119891736D01*
X209952283Y-120112001D01*
X210852001Y-120112001D01*
X210852001Y-120092001D01*
X211598001Y-120092001D01*
X211598001Y-120112001D01*
X212497719Y-120112001D01*
X212586346Y-119891736D01*
X212294086Y-119454290D01*
X211973032Y-119231177D01*
X212295626Y-119015626D01*
X212623840Y-118524419D01*
X212739093Y-117945001D01*
X212623840Y-117365583D01*
X212295626Y-116874376D01*
X211997240Y-116675001D01*
X212295626Y-116475626D01*
X212623840Y-115984419D01*
X212739093Y-115405001D01*
X212623840Y-114825583D01*
X212295626Y-114334376D01*
X211997240Y-114135001D01*
X212295626Y-113935626D01*
X212623840Y-113444419D01*
X212739093Y-112865001D01*
X213360909Y-112865001D01*
X213476162Y-113444419D01*
X213804376Y-113935626D01*
X214102762Y-114135001D01*
X213804376Y-114334376D01*
X213476162Y-114825583D01*
X213360909Y-115405001D01*
X213476162Y-115984419D01*
X213804376Y-116475626D01*
X214102762Y-116675001D01*
X213804376Y-116874376D01*
X213476162Y-117365583D01*
X213360909Y-117945001D01*
X213476162Y-118524419D01*
X213804376Y-119015626D01*
X214126970Y-119231177D01*
X213805916Y-119454290D01*
X213513656Y-119891736D01*
X213602283Y-120112001D01*
X214502001Y-120112001D01*
X214502001Y-120092001D01*
X215248001Y-120092001D01*
X215248001Y-120112001D01*
X216147719Y-120112001D01*
X216236346Y-119891736D01*
X215944086Y-119454290D01*
X215623032Y-119231177D01*
X215945626Y-119015626D01*
X216273840Y-118524419D01*
X216389093Y-117945001D01*
X216273840Y-117365583D01*
X215945626Y-116874376D01*
X215647240Y-116675001D01*
X215945626Y-116475626D01*
X216273840Y-115984419D01*
X216389093Y-115405001D01*
X216273840Y-114825583D01*
X215945626Y-114334376D01*
X215647240Y-114135001D01*
X215945626Y-113935626D01*
X216273840Y-113444419D01*
X216389093Y-112865001D01*
X217010909Y-112865001D01*
X217126162Y-113444419D01*
X217454376Y-113935626D01*
X217752762Y-114135001D01*
X217454376Y-114334376D01*
X217126162Y-114825583D01*
X217010909Y-115405001D01*
X217126162Y-115984419D01*
X217454376Y-116475626D01*
X217752762Y-116675001D01*
X217454376Y-116874376D01*
X217126162Y-117365583D01*
X217010909Y-117945001D01*
X217126162Y-118524419D01*
X217454376Y-119015626D01*
X217776970Y-119231177D01*
X217455916Y-119454290D01*
X217163656Y-119891736D01*
X217252283Y-120112001D01*
X218152001Y-120112001D01*
X218152001Y-120092001D01*
X218898001Y-120092001D01*
X218898001Y-120112001D01*
X219797719Y-120112001D01*
X219886346Y-119891736D01*
X219594086Y-119454290D01*
X219273032Y-119231177D01*
X219595626Y-119015626D01*
X219923840Y-118524419D01*
X220039093Y-117945001D01*
X219923840Y-117365583D01*
X219595626Y-116874376D01*
X219297240Y-116675001D01*
X219595626Y-116475626D01*
X219923840Y-115984419D01*
X220039093Y-115405001D01*
X219923840Y-114825583D01*
X219595626Y-114334376D01*
X219297240Y-114135001D01*
X219595626Y-113935626D01*
X219923840Y-113444419D01*
X220039093Y-112865001D01*
X219923840Y-112285583D01*
X219595626Y-111794376D01*
X219577382Y-111782185D01*
X219622766Y-111773158D01*
X219832810Y-111632810D01*
X219973158Y-111422766D01*
X220022441Y-111175001D01*
X220022441Y-109475001D01*
X219973158Y-109227236D01*
X219832810Y-109017192D01*
X219622766Y-108876844D01*
X219375001Y-108827561D01*
X217675001Y-108827561D01*
X217427236Y-108876844D01*
X217217192Y-109017192D01*
X217076844Y-109227236D01*
X217027561Y-109475001D01*
X217027561Y-111175001D01*
X217076844Y-111422766D01*
X217217192Y-111632810D01*
X217427236Y-111773158D01*
X217472620Y-111782185D01*
X217454376Y-111794376D01*
X217126162Y-112285583D01*
X217010909Y-112865001D01*
X216389093Y-112865001D01*
X216273840Y-112285583D01*
X215945626Y-111794376D01*
X215927382Y-111782185D01*
X215972766Y-111773158D01*
X216182810Y-111632810D01*
X216323158Y-111422766D01*
X216372441Y-111175001D01*
X216372441Y-109475001D01*
X216323158Y-109227236D01*
X216182810Y-109017192D01*
X215972766Y-108876844D01*
X215725001Y-108827561D01*
X214025001Y-108827561D01*
X213777236Y-108876844D01*
X213567192Y-109017192D01*
X213426844Y-109227236D01*
X213377561Y-109475001D01*
X213377561Y-111175001D01*
X213426844Y-111422766D01*
X213567192Y-111632810D01*
X213777236Y-111773158D01*
X213822620Y-111782185D01*
X213804376Y-111794376D01*
X213476162Y-112285583D01*
X213360909Y-112865001D01*
X212739093Y-112865001D01*
X212623840Y-112285583D01*
X212295626Y-111794376D01*
X212277382Y-111782185D01*
X212322766Y-111773158D01*
X212532810Y-111632810D01*
X212673158Y-111422766D01*
X212722441Y-111175001D01*
X212722441Y-109475001D01*
X212673158Y-109227236D01*
X212532810Y-109017192D01*
X212322766Y-108876844D01*
X212075001Y-108827561D01*
X210375001Y-108827561D01*
X210127236Y-108876844D01*
X209917192Y-109017192D01*
X209776844Y-109227236D01*
X209727561Y-109475001D01*
X209727561Y-111175001D01*
X209776844Y-111422766D01*
X209917192Y-111632810D01*
X210127236Y-111773158D01*
X210172620Y-111782185D01*
X210154376Y-111794376D01*
X209826162Y-112285583D01*
X209710909Y-112865001D01*
X209089093Y-112865001D01*
X208973840Y-112285583D01*
X208645626Y-111794376D01*
X208627382Y-111782185D01*
X208672766Y-111773158D01*
X208882810Y-111632810D01*
X209023158Y-111422766D01*
X209072441Y-111175001D01*
X209072441Y-109475001D01*
X209023158Y-109227236D01*
X208882810Y-109017192D01*
X208672766Y-108876844D01*
X208425001Y-108827561D01*
X206725001Y-108827561D01*
X206477236Y-108876844D01*
X206267192Y-109017192D01*
X206126844Y-109227236D01*
X206077561Y-109475001D01*
X206077561Y-111175001D01*
X206126844Y-111422766D01*
X206267192Y-111632810D01*
X206477236Y-111773158D01*
X206522620Y-111782185D01*
X206504376Y-111794376D01*
X206176162Y-112285583D01*
X206060909Y-112865001D01*
X198274786Y-112865001D01*
X197943214Y-112727660D01*
X197531466Y-112727660D01*
X197151060Y-112885229D01*
X196859909Y-113176380D01*
X196702340Y-113556786D01*
X196702340Y-113567089D01*
X196455874Y-113465000D01*
X196044126Y-113465000D01*
X195663720Y-113622569D01*
X195464262Y-113822027D01*
X195205874Y-113715000D01*
X194794126Y-113715000D01*
X194413720Y-113872569D01*
X194122569Y-114163720D01*
X193965000Y-114544126D01*
X192308813Y-114544126D01*
X192308813Y-114370542D01*
X192151244Y-113990136D01*
X191860093Y-113698985D01*
X191479687Y-113541416D01*
X191067939Y-113541416D01*
X190687533Y-113698985D01*
X190396382Y-113990136D01*
X190238813Y-114370542D01*
X165138424Y-114370542D01*
X165109418Y-114351161D01*
X164676256Y-114265000D01*
X164383744Y-114265000D01*
X163950582Y-114351161D01*
X163459375Y-114679375D01*
X163260000Y-114977761D01*
X163060625Y-114679375D01*
X162569418Y-114351161D01*
X162136256Y-114265000D01*
X161843744Y-114265000D01*
X161410582Y-114351161D01*
X160919375Y-114679375D01*
X160720000Y-114977761D01*
X160520625Y-114679375D01*
X160029418Y-114351161D01*
X159596256Y-114265000D01*
X159303744Y-114265000D01*
X158870582Y-114351161D01*
X158379375Y-114679375D01*
X158180000Y-114977761D01*
X157980625Y-114679375D01*
X157489418Y-114351161D01*
X157056256Y-114265000D01*
X156763744Y-114265000D01*
X156330582Y-114351161D01*
X155839375Y-114679375D01*
X155640000Y-114977761D01*
X155440625Y-114679375D01*
X154949418Y-114351161D01*
X154516256Y-114265000D01*
X154223744Y-114265000D01*
X153790582Y-114351161D01*
X153299375Y-114679375D01*
X153100000Y-114977761D01*
X152900625Y-114679375D01*
X152409418Y-114351161D01*
X151976256Y-114265000D01*
X151683744Y-114265000D01*
X151250582Y-114351161D01*
X150759375Y-114679375D01*
X150560000Y-114977761D01*
X150360625Y-114679375D01*
X149869418Y-114351161D01*
X149436256Y-114265000D01*
X149143744Y-114265000D01*
X148710582Y-114351161D01*
X148219375Y-114679375D01*
X148207184Y-114697619D01*
X148198157Y-114652235D01*
X148057809Y-114442191D01*
X147847765Y-114301843D01*
X147600000Y-114252560D01*
X145900000Y-114252560D01*
X145652235Y-114301843D01*
X145442191Y-114442191D01*
X145301843Y-114652235D01*
X145252560Y-114900000D01*
X137127000Y-114900000D01*
X137127000Y-111870542D01*
X193238813Y-111870542D01*
X193238813Y-112282290D01*
X193396382Y-112662696D01*
X193687533Y-112953847D01*
X194067939Y-113111416D01*
X194479687Y-113111416D01*
X194860093Y-112953847D01*
X195151244Y-112662696D01*
X195308813Y-112282290D01*
X195308813Y-111870542D01*
X195205260Y-111620542D01*
X198988813Y-111620542D01*
X198988813Y-112032290D01*
X199146382Y-112412696D01*
X199437533Y-112703847D01*
X199817939Y-112861416D01*
X200229687Y-112861416D01*
X200610093Y-112703847D01*
X200901244Y-112412696D01*
X201058813Y-112032290D01*
X201058813Y-111620542D01*
X200901244Y-111240136D01*
X200610093Y-110948985D01*
X200229687Y-110791416D01*
X199817939Y-110791416D01*
X199437533Y-110948985D01*
X199146382Y-111240136D01*
X198988813Y-111620542D01*
X195205260Y-111620542D01*
X195151244Y-111490136D01*
X194860093Y-111198985D01*
X194479687Y-111041416D01*
X194067939Y-111041416D01*
X193687533Y-111198985D01*
X193396382Y-111490136D01*
X193238813Y-111870542D01*
X137127000Y-111870542D01*
X137127000Y-105040000D01*
X137735908Y-105040000D01*
X137851161Y-105619418D01*
X138179375Y-106110625D01*
X138477761Y-106310000D01*
X138179375Y-106509375D01*
X137851161Y-107000582D01*
X137735908Y-107580000D01*
X137851161Y-108159418D01*
X138179375Y-108650625D01*
X138477761Y-108850000D01*
X138179375Y-109049375D01*
X137851161Y-109540582D01*
X137735908Y-110120000D01*
X137851161Y-110699418D01*
X138179375Y-111190625D01*
X138670582Y-111518839D01*
X139103744Y-111605000D01*
X139396256Y-111605000D01*
X139829418Y-111518839D01*
X140320625Y-111190625D01*
X140648839Y-110699418D01*
X140692541Y-110479710D01*
X148747187Y-110479710D01*
X148747187Y-110891458D01*
X148904756Y-111271864D01*
X149195907Y-111563015D01*
X149576313Y-111720584D01*
X149988061Y-111720584D01*
X150368467Y-111563015D01*
X150659618Y-111271864D01*
X150817187Y-110891458D01*
X150817187Y-110479710D01*
X150659618Y-110099304D01*
X150368467Y-109808153D01*
X149988061Y-109650584D01*
X149576313Y-109650584D01*
X149195907Y-109808153D01*
X148904756Y-110099304D01*
X148747187Y-110479710D01*
X140692541Y-110479710D01*
X140764092Y-110120000D01*
X140648839Y-109540582D01*
X140320625Y-109049375D01*
X140022239Y-108850000D01*
X140320625Y-108650625D01*
X140434826Y-108479710D01*
X156547187Y-108479710D01*
X156547187Y-108891458D01*
X156704756Y-109271864D01*
X156995907Y-109563015D01*
X157376313Y-109720584D01*
X157788061Y-109720584D01*
X158168467Y-109563015D01*
X158459618Y-109271864D01*
X158617187Y-108891458D01*
X158617187Y-108479710D01*
X158459618Y-108099304D01*
X158168467Y-107808153D01*
X157788061Y-107650584D01*
X157376313Y-107650584D01*
X156995907Y-107808153D01*
X156704756Y-108099304D01*
X156547187Y-108479710D01*
X140434826Y-108479710D01*
X140648839Y-108159418D01*
X140756027Y-107620542D01*
X168738813Y-107620542D01*
X168738813Y-108032290D01*
X168896382Y-108412696D01*
X169185102Y-108701416D01*
X168896382Y-108990136D01*
X168738813Y-109370542D01*
X168738813Y-109782290D01*
X168896382Y-110162696D01*
X169187533Y-110453847D01*
X169567939Y-110611416D01*
X169979687Y-110611416D01*
X170360093Y-110453847D01*
X170651244Y-110162696D01*
X170803910Y-109794126D01*
X200715000Y-109794126D01*
X200715000Y-110205874D01*
X200872569Y-110586280D01*
X201163720Y-110877431D01*
X201544126Y-111035000D01*
X201955874Y-111035000D01*
X202336280Y-110877431D01*
X202627431Y-110586280D01*
X202785000Y-110205874D01*
X202785000Y-109794126D01*
X202627431Y-109413720D01*
X202336280Y-109122569D01*
X201955874Y-108965000D01*
X201544126Y-108965000D01*
X201163720Y-109122569D01*
X200872569Y-109413720D01*
X200715000Y-109794126D01*
X170803910Y-109794126D01*
X170808813Y-109782290D01*
X170808813Y-109370542D01*
X170651244Y-108990136D01*
X170362524Y-108701416D01*
X170651244Y-108412696D01*
X170808813Y-108032290D01*
X170808813Y-107620542D01*
X170651244Y-107240136D01*
X170360093Y-106948985D01*
X169979687Y-106791416D01*
X169567939Y-106791416D01*
X169187533Y-106948985D01*
X168896382Y-107240136D01*
X168738813Y-107620542D01*
X140756027Y-107620542D01*
X140764092Y-107580000D01*
X140648839Y-107000582D01*
X140320625Y-106509375D01*
X140022239Y-106310000D01*
X140320625Y-106110625D01*
X140608553Y-105679710D01*
X156547187Y-105679710D01*
X156547187Y-106091458D01*
X156704756Y-106471864D01*
X156995907Y-106763015D01*
X157376313Y-106920584D01*
X157788061Y-106920584D01*
X158168467Y-106763015D01*
X158459618Y-106471864D01*
X158617187Y-106091458D01*
X158617187Y-105975827D01*
X189446954Y-105975827D01*
X189446954Y-106387575D01*
X189604523Y-106767981D01*
X189895674Y-107059132D01*
X190276080Y-107216701D01*
X190687828Y-107216701D01*
X191068234Y-107059132D01*
X191359385Y-106767981D01*
X191516954Y-106387575D01*
X191516954Y-106294126D01*
X193965000Y-106294126D01*
X193965000Y-106705874D01*
X194122569Y-107086280D01*
X194413720Y-107377431D01*
X194794126Y-107535000D01*
X195205874Y-107535000D01*
X195586280Y-107377431D01*
X195877431Y-107086280D01*
X196035000Y-106705874D01*
X196035000Y-106294126D01*
X195963100Y-106120542D01*
X198988813Y-106120542D01*
X198988813Y-106532290D01*
X199146382Y-106912696D01*
X199437533Y-107203847D01*
X199817939Y-107361416D01*
X200229687Y-107361416D01*
X200610093Y-107203847D01*
X200901244Y-106912696D01*
X201058813Y-106532290D01*
X201058813Y-106120542D01*
X200901244Y-105740136D01*
X200610093Y-105448985D01*
X200229687Y-105291416D01*
X199817939Y-105291416D01*
X199437533Y-105448985D01*
X199146382Y-105740136D01*
X198988813Y-106120542D01*
X195963100Y-106120542D01*
X195877431Y-105913720D01*
X195586280Y-105622569D01*
X195205874Y-105465000D01*
X194794126Y-105465000D01*
X194413720Y-105622569D01*
X194122569Y-105913720D01*
X193965000Y-106294126D01*
X191516954Y-106294126D01*
X191516954Y-105975827D01*
X191361993Y-105601718D01*
X191627431Y-105336280D01*
X191785000Y-104955874D01*
X191785000Y-104544126D01*
X191627431Y-104163720D01*
X191336280Y-103872569D01*
X190955874Y-103715000D01*
X190544126Y-103715000D01*
X190163720Y-103872569D01*
X189872569Y-104163720D01*
X189715000Y-104544126D01*
X189715000Y-104955874D01*
X189869961Y-105329983D01*
X189604523Y-105595421D01*
X189446954Y-105975827D01*
X158617187Y-105975827D01*
X158617187Y-105679710D01*
X158459618Y-105299304D01*
X158168467Y-105008153D01*
X157788061Y-104850584D01*
X157376313Y-104850584D01*
X156995907Y-105008153D01*
X156704756Y-105299304D01*
X156547187Y-105679710D01*
X140608553Y-105679710D01*
X140648839Y-105619418D01*
X140764092Y-105040000D01*
X140648839Y-104460582D01*
X140320625Y-103969375D01*
X140302381Y-103957184D01*
X140347765Y-103948157D01*
X140557809Y-103807809D01*
X140698157Y-103597765D01*
X140743353Y-103370542D01*
X205738813Y-103370542D01*
X205738813Y-103782290D01*
X205896382Y-104162696D01*
X206187533Y-104453847D01*
X206567939Y-104611416D01*
X206979687Y-104611416D01*
X207142139Y-104544126D01*
X208965000Y-104544126D01*
X208965000Y-104955874D01*
X209122569Y-105336280D01*
X209413720Y-105627431D01*
X209794126Y-105785000D01*
X210205874Y-105785000D01*
X210586280Y-105627431D01*
X210877431Y-105336280D01*
X211035000Y-104955874D01*
X211035000Y-104544126D01*
X210877431Y-104163720D01*
X210586280Y-103872569D01*
X210205874Y-103715000D01*
X209794126Y-103715000D01*
X209413720Y-103872569D01*
X209122569Y-104163720D01*
X208965000Y-104544126D01*
X207142139Y-104544126D01*
X207360093Y-104453847D01*
X207651244Y-104162696D01*
X207808813Y-103782290D01*
X207808813Y-103370542D01*
X207651244Y-102990136D01*
X207360093Y-102698985D01*
X206979687Y-102541416D01*
X206567939Y-102541416D01*
X206187533Y-102698985D01*
X205896382Y-102990136D01*
X205738813Y-103370542D01*
X140743353Y-103370542D01*
X140747440Y-103350000D01*
X140747440Y-101870542D01*
X195488813Y-101870542D01*
X195488813Y-102282290D01*
X195646382Y-102662696D01*
X195937533Y-102953847D01*
X196317939Y-103111416D01*
X196729687Y-103111416D01*
X197110093Y-102953847D01*
X197401244Y-102662696D01*
X197558813Y-102282290D01*
X197558813Y-101870542D01*
X197401244Y-101490136D01*
X197110093Y-101198985D01*
X196729687Y-101041416D01*
X196317939Y-101041416D01*
X195937533Y-101198985D01*
X195646382Y-101490136D01*
X195488813Y-101870542D01*
X140747440Y-101870542D01*
X140747440Y-101650000D01*
X140698157Y-101402235D01*
X140557809Y-101192191D01*
X140347765Y-101051843D01*
X140100000Y-101002560D01*
X138400000Y-101002560D01*
X138152235Y-101051843D01*
X137942191Y-101192191D01*
X137801843Y-101402235D01*
X137752560Y-101650000D01*
X137752560Y-103350000D01*
X137801843Y-103597765D01*
X137942191Y-103807809D01*
X138152235Y-103948157D01*
X138197619Y-103957184D01*
X138179375Y-103969375D01*
X137851161Y-104460582D01*
X137735908Y-105040000D01*
X137127000Y-105040000D01*
X137127000Y-98215939D01*
X139960584Y-98215939D01*
X139960584Y-98627687D01*
X140118153Y-99008093D01*
X140409304Y-99299244D01*
X140789710Y-99456813D01*
X141201458Y-99456813D01*
X141581864Y-99299244D01*
X141873015Y-99008093D01*
X142030584Y-98627687D01*
X142030584Y-98215939D01*
X141873015Y-97835533D01*
X141581864Y-97544382D01*
X141201458Y-97386813D01*
X140789710Y-97386813D01*
X140409304Y-97544382D01*
X140118153Y-97835533D01*
X139960584Y-98215939D01*
X137127000Y-98215939D01*
X137127000Y-96161939D01*
X146400584Y-96161939D01*
X146400584Y-96573687D01*
X146522415Y-96867813D01*
X146400584Y-97161939D01*
X146400584Y-97573687D01*
X146522415Y-97867813D01*
X146400584Y-98161939D01*
X146400584Y-98573687D01*
X146522415Y-98867813D01*
X146400584Y-99161939D01*
X146400584Y-99573687D01*
X146558153Y-99954093D01*
X146849304Y-100245244D01*
X147229710Y-100402813D01*
X147641458Y-100402813D01*
X147935584Y-100280982D01*
X148229710Y-100402813D01*
X148641458Y-100402813D01*
X149021864Y-100245244D01*
X149313015Y-99954093D01*
X149451240Y-99620387D01*
X165463648Y-99620387D01*
X165463648Y-100032135D01*
X165621217Y-100412541D01*
X165912368Y-100703692D01*
X166292774Y-100861261D01*
X166704522Y-100861261D01*
X167084928Y-100703692D01*
X167376079Y-100412541D01*
X167497028Y-100120542D01*
X204488813Y-100120542D01*
X204488813Y-100532290D01*
X204646382Y-100912696D01*
X204937533Y-101203847D01*
X205317939Y-101361416D01*
X205729687Y-101361416D01*
X206110093Y-101203847D01*
X206401244Y-100912696D01*
X206558813Y-100532290D01*
X206558813Y-100120542D01*
X206401244Y-99740136D01*
X206110093Y-99448985D01*
X205729687Y-99291416D01*
X205317939Y-99291416D01*
X204937533Y-99448985D01*
X204646382Y-99740136D01*
X204488813Y-100120542D01*
X167497028Y-100120542D01*
X167533648Y-100032135D01*
X167533648Y-99620387D01*
X167376079Y-99239981D01*
X167084928Y-98948830D01*
X166704522Y-98791261D01*
X166292774Y-98791261D01*
X165912368Y-98948830D01*
X165621217Y-99239981D01*
X165463648Y-99620387D01*
X149451240Y-99620387D01*
X149470584Y-99573687D01*
X149470584Y-99161939D01*
X149348753Y-98867813D01*
X149470584Y-98573687D01*
X149470584Y-98161939D01*
X149348753Y-97867813D01*
X149470584Y-97573687D01*
X149470584Y-97161939D01*
X149348753Y-96867813D01*
X149470584Y-96573687D01*
X149470584Y-96369137D01*
X165510167Y-96369137D01*
X165510167Y-96780885D01*
X165667736Y-97161291D01*
X165958887Y-97452442D01*
X166339293Y-97610011D01*
X166751041Y-97610011D01*
X167131447Y-97452442D01*
X167422598Y-97161291D01*
X167580167Y-96780885D01*
X167580167Y-96369137D01*
X167422598Y-95988731D01*
X167131447Y-95697580D01*
X166751041Y-95540011D01*
X166339293Y-95540011D01*
X165958887Y-95697580D01*
X165667736Y-95988731D01*
X165510167Y-96369137D01*
X149470584Y-96369137D01*
X149470584Y-96161939D01*
X149313015Y-95781533D01*
X149021864Y-95490382D01*
X148810453Y-95402813D01*
X148841458Y-95402813D01*
X149221864Y-95245244D01*
X149513015Y-94954093D01*
X149670584Y-94573687D01*
X149670584Y-94161939D01*
X149548753Y-93867813D01*
X149670584Y-93573687D01*
X149670584Y-93569116D01*
X165517873Y-93569116D01*
X165517873Y-93980864D01*
X165675442Y-94361270D01*
X165966593Y-94652421D01*
X166346999Y-94809990D01*
X166758747Y-94809990D01*
X167139153Y-94652421D01*
X167430304Y-94361270D01*
X167587873Y-93980864D01*
X167587873Y-93569116D01*
X167577522Y-93544126D01*
X169715000Y-93544126D01*
X169715000Y-93955874D01*
X169872569Y-94336280D01*
X170072027Y-94535738D01*
X169965000Y-94794126D01*
X169965000Y-95205874D01*
X170072027Y-95464262D01*
X169872569Y-95663720D01*
X169715000Y-96044126D01*
X169715000Y-96455874D01*
X169872569Y-96836280D01*
X169993560Y-96957271D01*
X169952340Y-97056786D01*
X169952340Y-97468534D01*
X170109909Y-97848940D01*
X170148629Y-97887660D01*
X170122569Y-97913720D01*
X169965000Y-98294126D01*
X169965000Y-98705874D01*
X170122569Y-99086280D01*
X170413720Y-99377431D01*
X170794126Y-99535000D01*
X171205874Y-99535000D01*
X171586280Y-99377431D01*
X171877431Y-99086280D01*
X172035000Y-98705874D01*
X172035000Y-98620542D01*
X199988813Y-98620542D01*
X199988813Y-99032290D01*
X200146382Y-99412696D01*
X200437533Y-99703847D01*
X200817939Y-99861416D01*
X201229687Y-99861416D01*
X201610093Y-99703847D01*
X201901244Y-99412696D01*
X202058813Y-99032290D01*
X202058813Y-98620542D01*
X202988813Y-98620542D01*
X202988813Y-99032290D01*
X203146382Y-99412696D01*
X203437533Y-99703847D01*
X203817939Y-99861416D01*
X204229687Y-99861416D01*
X204610093Y-99703847D01*
X204901244Y-99412696D01*
X205058813Y-99032290D01*
X205058813Y-98620542D01*
X204901244Y-98240136D01*
X204610093Y-97948985D01*
X204229687Y-97791416D01*
X203817939Y-97791416D01*
X203437533Y-97948985D01*
X203146382Y-98240136D01*
X202988813Y-98620542D01*
X202058813Y-98620542D01*
X201901244Y-98240136D01*
X201610093Y-97948985D01*
X201229687Y-97791416D01*
X200817939Y-97791416D01*
X200437533Y-97948985D01*
X200146382Y-98240136D01*
X199988813Y-98620542D01*
X172035000Y-98620542D01*
X172035000Y-98294126D01*
X171877431Y-97913720D01*
X171838711Y-97875000D01*
X171864771Y-97848940D01*
X172022340Y-97468534D01*
X172022340Y-97120542D01*
X189738813Y-97120542D01*
X189738813Y-97532290D01*
X189896382Y-97912696D01*
X190187533Y-98203847D01*
X190567939Y-98361416D01*
X190979687Y-98361416D01*
X191360093Y-98203847D01*
X191651244Y-97912696D01*
X191808813Y-97532290D01*
X191808813Y-97120542D01*
X191651244Y-96740136D01*
X191360093Y-96448985D01*
X190979687Y-96291416D01*
X190567939Y-96291416D01*
X190187533Y-96448985D01*
X189896382Y-96740136D01*
X189738813Y-97120542D01*
X172022340Y-97120542D01*
X172022340Y-97056786D01*
X171864771Y-96676380D01*
X171743780Y-96555389D01*
X171785000Y-96455874D01*
X171785000Y-96044126D01*
X171677973Y-95785738D01*
X171877431Y-95586280D01*
X172035000Y-95205874D01*
X172035000Y-94794126D01*
X171931447Y-94544126D01*
X186215000Y-94544126D01*
X186215000Y-94955874D01*
X186372569Y-95336280D01*
X186663720Y-95627431D01*
X187044126Y-95785000D01*
X187455874Y-95785000D01*
X187779463Y-95650965D01*
X204841416Y-95650965D01*
X204841416Y-96301409D01*
X205090330Y-96902340D01*
X205550263Y-97362273D01*
X206151194Y-97611187D01*
X206801638Y-97611187D01*
X207402569Y-97362273D01*
X207862502Y-96902340D01*
X208111416Y-96301409D01*
X208111416Y-95650965D01*
X209341416Y-95650965D01*
X209341416Y-96301409D01*
X209590330Y-96902340D01*
X210050263Y-97362273D01*
X210651194Y-97611187D01*
X211301638Y-97611187D01*
X211902569Y-97362273D01*
X212362502Y-96902340D01*
X212611416Y-96301409D01*
X212611416Y-95650965D01*
X212362502Y-95050034D01*
X211902569Y-94590101D01*
X211301638Y-94341187D01*
X210651194Y-94341187D01*
X210050263Y-94590101D01*
X209590330Y-95050034D01*
X209341416Y-95650965D01*
X208111416Y-95650965D01*
X207862502Y-95050034D01*
X207402569Y-94590101D01*
X206801638Y-94341187D01*
X206151194Y-94341187D01*
X205550263Y-94590101D01*
X205090330Y-95050034D01*
X204841416Y-95650965D01*
X187779463Y-95650965D01*
X187836280Y-95627431D01*
X188127431Y-95336280D01*
X188285000Y-94955874D01*
X188285000Y-94544126D01*
X188127431Y-94163720D01*
X187836280Y-93872569D01*
X187455874Y-93715000D01*
X187044126Y-93715000D01*
X186663720Y-93872569D01*
X186372569Y-94163720D01*
X186215000Y-94544126D01*
X171931447Y-94544126D01*
X171877431Y-94413720D01*
X171677973Y-94214262D01*
X171785000Y-93955874D01*
X171785000Y-93544126D01*
X171751196Y-93462515D01*
X171877431Y-93336280D01*
X171998444Y-93044126D01*
X173965000Y-93044126D01*
X173965000Y-93455874D01*
X174122569Y-93836280D01*
X174413720Y-94127431D01*
X174794126Y-94285000D01*
X175205874Y-94285000D01*
X175586280Y-94127431D01*
X175877431Y-93836280D01*
X176035000Y-93455874D01*
X176035000Y-93120542D01*
X192738813Y-93120542D01*
X192738813Y-93532290D01*
X192896382Y-93912696D01*
X193187533Y-94203847D01*
X193567939Y-94361416D01*
X193979687Y-94361416D01*
X194360093Y-94203847D01*
X194570780Y-93993160D01*
X194611460Y-94010010D01*
X195023208Y-94010010D01*
X195403614Y-93852441D01*
X195694765Y-93561290D01*
X195852334Y-93180884D01*
X195852334Y-92769136D01*
X195790785Y-92620542D01*
X199738813Y-92620542D01*
X199738813Y-93032290D01*
X199896382Y-93412696D01*
X200187533Y-93703847D01*
X200567939Y-93861416D01*
X200979687Y-93861416D01*
X201360093Y-93703847D01*
X201651244Y-93412696D01*
X201808813Y-93032290D01*
X201808813Y-92620542D01*
X201651244Y-92240136D01*
X201360093Y-91948985D01*
X200979687Y-91791416D01*
X200567939Y-91791416D01*
X200187533Y-91948985D01*
X199896382Y-92240136D01*
X199738813Y-92620542D01*
X195790785Y-92620542D01*
X195694765Y-92388730D01*
X195403614Y-92097579D01*
X195023208Y-91940010D01*
X194611460Y-91940010D01*
X194231054Y-92097579D01*
X194020367Y-92308266D01*
X193979687Y-92291416D01*
X193567939Y-92291416D01*
X193187533Y-92448985D01*
X192896382Y-92740136D01*
X192738813Y-93120542D01*
X176035000Y-93120542D01*
X176035000Y-93044126D01*
X175877431Y-92663720D01*
X175586280Y-92372569D01*
X175205874Y-92215000D01*
X174794126Y-92215000D01*
X174413720Y-92372569D01*
X174122569Y-92663720D01*
X173965000Y-93044126D01*
X171998444Y-93044126D01*
X172035000Y-92955874D01*
X172035000Y-92544126D01*
X171877431Y-92163720D01*
X171838711Y-92125000D01*
X171877431Y-92086280D01*
X172035000Y-91705874D01*
X172035000Y-91294126D01*
X171931447Y-91044126D01*
X190715000Y-91044126D01*
X190715000Y-91455874D01*
X190872569Y-91836280D01*
X191163720Y-92127431D01*
X191544126Y-92285000D01*
X191955874Y-92285000D01*
X192336280Y-92127431D01*
X192627431Y-91836280D01*
X192785000Y-91455874D01*
X192785000Y-91044126D01*
X192681447Y-90794126D01*
X201215000Y-90794126D01*
X201215000Y-91205874D01*
X201372569Y-91586280D01*
X201663720Y-91877431D01*
X202044126Y-92035000D01*
X202455874Y-92035000D01*
X202836280Y-91877431D01*
X202977547Y-91736164D01*
X203122569Y-92086280D01*
X203413720Y-92377431D01*
X203794126Y-92535000D01*
X204205874Y-92535000D01*
X204586280Y-92377431D01*
X204877431Y-92086280D01*
X205035000Y-91705874D01*
X205035000Y-91294126D01*
X204877431Y-90913720D01*
X204586280Y-90622569D01*
X204205874Y-90465000D01*
X203794126Y-90465000D01*
X203413720Y-90622569D01*
X203272453Y-90763836D01*
X203127431Y-90413720D01*
X202836280Y-90122569D01*
X202455874Y-89965000D01*
X202044126Y-89965000D01*
X201663720Y-90122569D01*
X201372569Y-90413720D01*
X201215000Y-90794126D01*
X192681447Y-90794126D01*
X192627431Y-90663720D01*
X192336280Y-90372569D01*
X191955874Y-90215000D01*
X191544126Y-90215000D01*
X191163720Y-90372569D01*
X190872569Y-90663720D01*
X190715000Y-91044126D01*
X171931447Y-91044126D01*
X171877431Y-90913720D01*
X171838711Y-90875000D01*
X172127431Y-90586280D01*
X172285000Y-90205874D01*
X172285000Y-89794126D01*
X172127431Y-89413720D01*
X171836280Y-89122569D01*
X171455874Y-88965000D01*
X171044126Y-88965000D01*
X170663720Y-89122569D01*
X170372569Y-89413720D01*
X170215000Y-89794126D01*
X170215000Y-90205874D01*
X170372569Y-90586280D01*
X170411289Y-90625000D01*
X170122569Y-90913720D01*
X169965000Y-91294126D01*
X169965000Y-91705874D01*
X170122569Y-92086280D01*
X170161289Y-92125000D01*
X170122569Y-92163720D01*
X169965000Y-92544126D01*
X169965000Y-92955874D01*
X169998804Y-93037485D01*
X169872569Y-93163720D01*
X169715000Y-93544126D01*
X167577522Y-93544126D01*
X167430304Y-93188710D01*
X167139153Y-92897559D01*
X166758747Y-92739990D01*
X166346999Y-92739990D01*
X165966593Y-92897559D01*
X165675442Y-93188710D01*
X165517873Y-93569116D01*
X149670584Y-93569116D01*
X149670584Y-93161939D01*
X149548753Y-92867813D01*
X149670584Y-92573687D01*
X149670584Y-92161939D01*
X149548753Y-91867813D01*
X149670584Y-91573687D01*
X149670584Y-91161939D01*
X149513015Y-90781533D01*
X149300598Y-90569116D01*
X165513803Y-90569116D01*
X165513803Y-90980864D01*
X165671372Y-91361270D01*
X165962523Y-91652421D01*
X166342929Y-91809990D01*
X166754677Y-91809990D01*
X167135083Y-91652421D01*
X167426234Y-91361270D01*
X167583803Y-90980864D01*
X167583803Y-90569116D01*
X167426234Y-90188710D01*
X167135083Y-89897559D01*
X166754677Y-89739990D01*
X166342929Y-89739990D01*
X165962523Y-89897559D01*
X165671372Y-90188710D01*
X165513803Y-90569116D01*
X149300598Y-90569116D01*
X149221864Y-90490382D01*
X148841458Y-90332813D01*
X148429710Y-90332813D01*
X148135584Y-90454644D01*
X147841458Y-90332813D01*
X147429710Y-90332813D01*
X147049304Y-90490382D01*
X146758153Y-90781533D01*
X146600584Y-91161939D01*
X146600584Y-91573687D01*
X146722415Y-91867813D01*
X146600584Y-92161939D01*
X146600584Y-92573687D01*
X146722415Y-92867813D01*
X146600584Y-93161939D01*
X146600584Y-93573687D01*
X146722415Y-93867813D01*
X146600584Y-94161939D01*
X146600584Y-94573687D01*
X146758153Y-94954093D01*
X147049304Y-95245244D01*
X147260715Y-95332813D01*
X147229710Y-95332813D01*
X146849304Y-95490382D01*
X146558153Y-95781533D01*
X146400584Y-96161939D01*
X137127000Y-96161939D01*
X137127000Y-87011939D01*
X146400584Y-87011939D01*
X146400584Y-87423687D01*
X146522415Y-87717813D01*
X146400584Y-88011939D01*
X146400584Y-88423687D01*
X146522415Y-88717813D01*
X146400584Y-89011939D01*
X146400584Y-89423687D01*
X146558153Y-89804093D01*
X146849304Y-90095244D01*
X147229710Y-90252813D01*
X147641458Y-90252813D01*
X147935584Y-90130982D01*
X148229710Y-90252813D01*
X148641458Y-90252813D01*
X148935584Y-90130982D01*
X149229710Y-90252813D01*
X149641458Y-90252813D01*
X149935584Y-90130982D01*
X150229710Y-90252813D01*
X150641458Y-90252813D01*
X151021864Y-90095244D01*
X151313015Y-89804093D01*
X151470584Y-89423687D01*
X151470584Y-89011939D01*
X151348753Y-88717813D01*
X151470584Y-88423687D01*
X151470584Y-88011939D01*
X151348753Y-87717813D01*
X151368333Y-87670542D01*
X165538813Y-87670542D01*
X165538813Y-88082290D01*
X165696382Y-88462696D01*
X165987533Y-88753847D01*
X166367939Y-88911416D01*
X166779687Y-88911416D01*
X167160093Y-88753847D01*
X167451244Y-88462696D01*
X167608813Y-88082290D01*
X167608813Y-87670542D01*
X167451244Y-87290136D01*
X167160093Y-86998985D01*
X166779687Y-86841416D01*
X166367939Y-86841416D01*
X165987533Y-86998985D01*
X165696382Y-87290136D01*
X165538813Y-87670542D01*
X151368333Y-87670542D01*
X151470584Y-87423687D01*
X151470584Y-87011939D01*
X151348753Y-86717813D01*
X151470584Y-86423687D01*
X151470584Y-86370542D01*
X173488813Y-86370542D01*
X173488813Y-86782290D01*
X173646382Y-87162696D01*
X173937533Y-87453847D01*
X174317939Y-87611416D01*
X174729687Y-87611416D01*
X175110093Y-87453847D01*
X175401244Y-87162696D01*
X175558813Y-86782290D01*
X175558813Y-86370542D01*
X176238813Y-86370542D01*
X176238813Y-86782290D01*
X176396382Y-87162696D01*
X176687533Y-87453847D01*
X177067939Y-87611416D01*
X177479687Y-87611416D01*
X177860093Y-87453847D01*
X178151244Y-87162696D01*
X178308813Y-86782290D01*
X178308813Y-86370542D01*
X178151244Y-85990136D01*
X177860093Y-85698985D01*
X177479687Y-85541416D01*
X177067939Y-85541416D01*
X176687533Y-85698985D01*
X176396382Y-85990136D01*
X176238813Y-86370542D01*
X175558813Y-86370542D01*
X175401244Y-85990136D01*
X175110093Y-85698985D01*
X174729687Y-85541416D01*
X174317939Y-85541416D01*
X173937533Y-85698985D01*
X173646382Y-85990136D01*
X173488813Y-86370542D01*
X151470584Y-86370542D01*
X151470584Y-86011939D01*
X151313015Y-85631533D01*
X151021864Y-85340382D01*
X150641458Y-85182813D01*
X150229710Y-85182813D01*
X149849304Y-85340382D01*
X149558153Y-85631533D01*
X149400584Y-86011939D01*
X149400584Y-86182813D01*
X149229710Y-86182813D01*
X148935584Y-86304644D01*
X148641458Y-86182813D01*
X148229710Y-86182813D01*
X147935584Y-86304644D01*
X147641458Y-86182813D01*
X147229710Y-86182813D01*
X146849304Y-86340382D01*
X146558153Y-86631533D01*
X146400584Y-87011939D01*
X137127000Y-87011939D01*
X137127000Y-84661438D01*
X165363803Y-84661438D01*
X165363803Y-85073186D01*
X165521372Y-85453592D01*
X165812523Y-85744743D01*
X166192929Y-85902312D01*
X166604677Y-85902312D01*
X166985083Y-85744743D01*
X167276234Y-85453592D01*
X167310634Y-85370542D01*
X189738813Y-85370542D01*
X189738813Y-85782290D01*
X189896382Y-86162696D01*
X190187533Y-86453847D01*
X190230529Y-86471656D01*
X190230529Y-86782321D01*
X190388098Y-87162727D01*
X190679249Y-87453878D01*
X191059655Y-87611447D01*
X191471403Y-87611447D01*
X191851809Y-87453878D01*
X192142960Y-87162727D01*
X192211402Y-86997492D01*
X192506215Y-87119607D01*
X192557926Y-87119607D01*
X192482328Y-87302117D01*
X192482328Y-87713865D01*
X192639897Y-88094271D01*
X192931048Y-88385422D01*
X193311454Y-88542991D01*
X193723202Y-88542991D01*
X194103608Y-88385422D01*
X194183359Y-88305671D01*
X194317939Y-88361416D01*
X194729687Y-88361416D01*
X195110093Y-88203847D01*
X195148813Y-88165127D01*
X195187533Y-88203847D01*
X195567939Y-88361416D01*
X195979687Y-88361416D01*
X196360093Y-88203847D01*
X196386153Y-88177787D01*
X196424873Y-88216507D01*
X196805279Y-88374076D01*
X197217027Y-88374076D01*
X197410043Y-88294126D01*
X201715000Y-88294126D01*
X201715000Y-88705874D01*
X201872569Y-89086280D01*
X202163720Y-89377431D01*
X202544126Y-89535000D01*
X202955874Y-89535000D01*
X203336280Y-89377431D01*
X203562746Y-89150965D01*
X204841416Y-89150965D01*
X204841416Y-89801409D01*
X205090330Y-90402340D01*
X205550263Y-90862273D01*
X206151194Y-91111187D01*
X206801638Y-91111187D01*
X207402569Y-90862273D01*
X207862502Y-90402340D01*
X208111416Y-89801409D01*
X208111416Y-89150965D01*
X207862502Y-88550034D01*
X207788655Y-88476187D01*
X209328976Y-88476187D01*
X209328976Y-90476187D01*
X209378259Y-90723952D01*
X209518607Y-90933996D01*
X209728651Y-91074344D01*
X209976416Y-91123627D01*
X211976416Y-91123627D01*
X212224181Y-91074344D01*
X212434225Y-90933996D01*
X212574573Y-90723952D01*
X212623856Y-90476187D01*
X212623856Y-88476187D01*
X212574573Y-88228422D01*
X212434225Y-88018378D01*
X212224181Y-87878030D01*
X211976416Y-87828747D01*
X209976416Y-87828747D01*
X209728651Y-87878030D01*
X209518607Y-88018378D01*
X209378259Y-88228422D01*
X209328976Y-88476187D01*
X207788655Y-88476187D01*
X207402569Y-88090101D01*
X206801638Y-87841187D01*
X206151194Y-87841187D01*
X205550263Y-88090101D01*
X205090330Y-88550034D01*
X204841416Y-89150965D01*
X203562746Y-89150965D01*
X203627431Y-89086280D01*
X203785000Y-88705874D01*
X203785000Y-88294126D01*
X203627431Y-87913720D01*
X203336280Y-87622569D01*
X202955874Y-87465000D01*
X202544126Y-87465000D01*
X202163720Y-87622569D01*
X201872569Y-87913720D01*
X201715000Y-88294126D01*
X197410043Y-88294126D01*
X197597433Y-88216507D01*
X197888584Y-87925356D01*
X198046153Y-87544950D01*
X198046153Y-87133202D01*
X197888584Y-86752796D01*
X197597433Y-86461645D01*
X197217027Y-86304076D01*
X196805279Y-86304076D01*
X196424873Y-86461645D01*
X196398813Y-86487705D01*
X196360093Y-86448985D01*
X195986230Y-86294126D01*
X199215000Y-86294126D01*
X199215000Y-86705874D01*
X199372569Y-87086280D01*
X199663720Y-87377431D01*
X200044126Y-87535000D01*
X200455874Y-87535000D01*
X200836280Y-87377431D01*
X201127431Y-87086280D01*
X201285000Y-86705874D01*
X201285000Y-86294126D01*
X201127431Y-85913720D01*
X200836280Y-85622569D01*
X200455874Y-85465000D01*
X200044126Y-85465000D01*
X199663720Y-85622569D01*
X199372569Y-85913720D01*
X199215000Y-86294126D01*
X195986230Y-86294126D01*
X195979687Y-86291416D01*
X195567939Y-86291416D01*
X195187533Y-86448985D01*
X195148813Y-86487705D01*
X195110093Y-86448985D01*
X194729687Y-86291416D01*
X194317939Y-86291416D01*
X193937533Y-86448985D01*
X193857782Y-86528736D01*
X193723202Y-86472991D01*
X193671491Y-86472991D01*
X193747089Y-86290481D01*
X193747089Y-85878733D01*
X193589520Y-85498327D01*
X193298369Y-85207176D01*
X192917963Y-85049607D01*
X192506215Y-85049607D01*
X192125809Y-85207176D01*
X191834658Y-85498327D01*
X191808813Y-85560722D01*
X191808813Y-85370542D01*
X191651244Y-84990136D01*
X191360093Y-84698985D01*
X190979687Y-84541416D01*
X190567939Y-84541416D01*
X190187533Y-84698985D01*
X189896382Y-84990136D01*
X189738813Y-85370542D01*
X167310634Y-85370542D01*
X167433803Y-85073186D01*
X167433803Y-84661438D01*
X167276234Y-84281032D01*
X166985083Y-83989881D01*
X166696973Y-83870542D01*
X192738813Y-83870542D01*
X192738813Y-84282290D01*
X192896382Y-84662696D01*
X193187533Y-84953847D01*
X193567939Y-85111416D01*
X193979687Y-85111416D01*
X194360093Y-84953847D01*
X194651244Y-84662696D01*
X194808813Y-84282290D01*
X194808813Y-84270313D01*
X210041416Y-84270313D01*
X210041416Y-84682061D01*
X210198985Y-85062467D01*
X210490136Y-85353618D01*
X210870542Y-85511187D01*
X211282290Y-85511187D01*
X211662696Y-85353618D01*
X211953847Y-85062467D01*
X212111416Y-84682061D01*
X212111416Y-84270313D01*
X212107145Y-84260000D01*
X217485908Y-84260000D01*
X217601161Y-84839418D01*
X217929375Y-85330625D01*
X218227761Y-85530000D01*
X217929375Y-85729375D01*
X217601161Y-86220582D01*
X217485908Y-86800000D01*
X217601161Y-87379418D01*
X217929375Y-87870625D01*
X218227761Y-88070000D01*
X217929375Y-88269375D01*
X217601161Y-88760582D01*
X217485908Y-89340000D01*
X217601161Y-89919418D01*
X217929375Y-90410625D01*
X218227761Y-90610000D01*
X217929375Y-90809375D01*
X217601161Y-91300582D01*
X217485908Y-91880000D01*
X217601161Y-92459418D01*
X217929375Y-92950625D01*
X218227761Y-93150000D01*
X217929375Y-93349375D01*
X217601161Y-93840582D01*
X217485908Y-94420000D01*
X217601161Y-94999418D01*
X217929375Y-95490625D01*
X218227761Y-95690000D01*
X217929375Y-95889375D01*
X217601161Y-96380582D01*
X217485908Y-96960000D01*
X217601161Y-97539418D01*
X217929375Y-98030625D01*
X218227761Y-98230000D01*
X217929375Y-98429375D01*
X217601161Y-98920582D01*
X217485908Y-99500000D01*
X217601161Y-100079418D01*
X217929375Y-100570625D01*
X218420582Y-100898839D01*
X218853744Y-100985000D01*
X219146256Y-100985000D01*
X219579418Y-100898839D01*
X220070625Y-100570625D01*
X220398839Y-100079418D01*
X220514092Y-99500000D01*
X220398839Y-98920582D01*
X220070625Y-98429375D01*
X219772239Y-98230000D01*
X220070625Y-98030625D01*
X220398839Y-97539418D01*
X220514092Y-96960000D01*
X220398839Y-96380582D01*
X220070625Y-95889375D01*
X219772239Y-95690000D01*
X220070625Y-95490625D01*
X220398839Y-94999418D01*
X220514092Y-94420000D01*
X220398839Y-93840582D01*
X220070625Y-93349375D01*
X219772239Y-93150000D01*
X220070625Y-92950625D01*
X220398839Y-92459418D01*
X220514092Y-91880000D01*
X220398839Y-91300582D01*
X220070625Y-90809375D01*
X219772239Y-90610000D01*
X220070625Y-90410625D01*
X220398839Y-89919418D01*
X220514092Y-89340000D01*
X220398839Y-88760582D01*
X220070625Y-88269375D01*
X219772239Y-88070000D01*
X220070625Y-87870625D01*
X220398839Y-87379418D01*
X220514092Y-86800000D01*
X220398839Y-86220582D01*
X220070625Y-85729375D01*
X219772239Y-85530000D01*
X220070625Y-85330625D01*
X220398839Y-84839418D01*
X220514092Y-84260000D01*
X220398839Y-83680582D01*
X220070625Y-83189375D01*
X220052381Y-83177184D01*
X220097765Y-83168157D01*
X220307809Y-83027809D01*
X220448157Y-82817765D01*
X220497440Y-82570000D01*
X220497440Y-80870000D01*
X220448157Y-80622235D01*
X220307809Y-80412191D01*
X220097765Y-80271843D01*
X219850000Y-80222560D01*
X218150000Y-80222560D01*
X217902235Y-80271843D01*
X217692191Y-80412191D01*
X217551843Y-80622235D01*
X217502560Y-80870000D01*
X217502560Y-82570000D01*
X217551843Y-82817765D01*
X217692191Y-83027809D01*
X217902235Y-83168157D01*
X217947619Y-83177184D01*
X217929375Y-83189375D01*
X217601161Y-83680582D01*
X217485908Y-84260000D01*
X212107145Y-84260000D01*
X211953847Y-83889907D01*
X211662696Y-83598756D01*
X211282290Y-83441187D01*
X210870542Y-83441187D01*
X210490136Y-83598756D01*
X210198985Y-83889907D01*
X210041416Y-84270313D01*
X194808813Y-84270313D01*
X194808813Y-83870542D01*
X194651244Y-83490136D01*
X194360093Y-83198985D01*
X193979687Y-83041416D01*
X193567939Y-83041416D01*
X193187533Y-83198985D01*
X192896382Y-83490136D01*
X192738813Y-83870542D01*
X166696973Y-83870542D01*
X166604677Y-83832312D01*
X166192929Y-83832312D01*
X165812523Y-83989881D01*
X165521372Y-84281032D01*
X165363803Y-84661438D01*
X137127000Y-84661438D01*
X137127000Y-81670542D01*
X165538813Y-81670542D01*
X165538813Y-82082290D01*
X165696382Y-82462696D01*
X165987533Y-82753847D01*
X166367939Y-82911416D01*
X166779687Y-82911416D01*
X167160093Y-82753847D01*
X167451244Y-82462696D01*
X167608813Y-82082290D01*
X167608813Y-81670542D01*
X167588103Y-81620542D01*
X189738813Y-81620542D01*
X189738813Y-82032290D01*
X189896382Y-82412696D01*
X190187533Y-82703847D01*
X190567939Y-82861416D01*
X190979687Y-82861416D01*
X191360093Y-82703847D01*
X191651244Y-82412696D01*
X191808813Y-82032290D01*
X191808813Y-81620542D01*
X191651244Y-81240136D01*
X191360093Y-80948985D01*
X190979687Y-80791416D01*
X190567939Y-80791416D01*
X190187533Y-80948985D01*
X189896382Y-81240136D01*
X189738813Y-81620542D01*
X167588103Y-81620542D01*
X167451244Y-81290136D01*
X167160093Y-80998985D01*
X166779687Y-80841416D01*
X166367939Y-80841416D01*
X165987533Y-80998985D01*
X165696382Y-81290136D01*
X165538813Y-81670542D01*
X137127000Y-81670542D01*
X137127000Y-80534649D01*
X192088148Y-80534649D01*
X192088148Y-80946397D01*
X192245717Y-81326803D01*
X192536868Y-81617954D01*
X192917274Y-81775523D01*
X193329022Y-81775523D01*
X193709428Y-81617954D01*
X194000579Y-81326803D01*
X194158148Y-80946397D01*
X194158148Y-80534649D01*
X194000579Y-80154243D01*
X193709428Y-79863092D01*
X193329022Y-79705523D01*
X192917274Y-79705523D01*
X192536868Y-79863092D01*
X192245717Y-80154243D01*
X192088148Y-80534649D01*
X137127000Y-80534649D01*
X137127000Y-75761939D01*
X138650584Y-75761939D01*
X138650584Y-76173687D01*
X138808153Y-76554093D01*
X139099304Y-76845244D01*
X139479710Y-77002813D01*
X139891458Y-77002813D01*
X140271864Y-76845244D01*
X140563015Y-76554093D01*
X140720584Y-76173687D01*
X140720584Y-75761939D01*
X140617031Y-75511939D01*
X146400584Y-75511939D01*
X146400584Y-75923687D01*
X146522415Y-76217813D01*
X146400584Y-76511939D01*
X146400584Y-76923687D01*
X146522415Y-77217813D01*
X146400584Y-77511939D01*
X146400584Y-77923687D01*
X146558153Y-78304093D01*
X146849304Y-78595244D01*
X147229710Y-78752813D01*
X147641458Y-78752813D01*
X147935584Y-78630982D01*
X148229710Y-78752813D01*
X148641458Y-78752813D01*
X148935584Y-78630982D01*
X149229710Y-78752813D01*
X149400584Y-78752813D01*
X149400584Y-78923687D01*
X149558153Y-79304093D01*
X149849304Y-79595244D01*
X150229710Y-79752813D01*
X150641458Y-79752813D01*
X151021864Y-79595244D01*
X151313015Y-79304093D01*
X151470584Y-78923687D01*
X151470584Y-78670542D01*
X165538813Y-78670542D01*
X165538813Y-79082290D01*
X165696382Y-79462696D01*
X165987533Y-79753847D01*
X166367939Y-79911416D01*
X166779687Y-79911416D01*
X167160093Y-79753847D01*
X167451244Y-79462696D01*
X167608813Y-79082290D01*
X167608813Y-78670542D01*
X167451244Y-78290136D01*
X167160093Y-77998985D01*
X166779687Y-77841416D01*
X166367939Y-77841416D01*
X165987533Y-77998985D01*
X165696382Y-78290136D01*
X165538813Y-78670542D01*
X151470584Y-78670542D01*
X151470584Y-78511939D01*
X151348753Y-78217813D01*
X151470584Y-77923687D01*
X151470584Y-77511939D01*
X151348753Y-77217813D01*
X151470584Y-76923687D01*
X151470584Y-76511939D01*
X151348753Y-76217813D01*
X151470584Y-75923687D01*
X151470584Y-75511939D01*
X151313015Y-75131533D01*
X151021864Y-74840382D01*
X150641458Y-74682813D01*
X150229710Y-74682813D01*
X149935584Y-74804644D01*
X149641458Y-74682813D01*
X149229710Y-74682813D01*
X148935584Y-74804644D01*
X148641458Y-74682813D01*
X148229710Y-74682813D01*
X147935584Y-74804644D01*
X147641458Y-74682813D01*
X147229710Y-74682813D01*
X146849304Y-74840382D01*
X146558153Y-75131533D01*
X146400584Y-75511939D01*
X140617031Y-75511939D01*
X140563015Y-75381533D01*
X140271864Y-75090382D01*
X139891458Y-74932813D01*
X139479710Y-74932813D01*
X139099304Y-75090382D01*
X138808153Y-75381533D01*
X138650584Y-75761939D01*
X137127000Y-75761939D01*
X137127000Y-74261939D01*
X144150584Y-74261939D01*
X144150584Y-74673687D01*
X144308153Y-75054093D01*
X144599304Y-75345244D01*
X144979710Y-75502813D01*
X145391458Y-75502813D01*
X145771864Y-75345244D01*
X146063015Y-75054093D01*
X146220584Y-74673687D01*
X146220584Y-74534649D01*
X203088148Y-74534649D01*
X203088148Y-74946397D01*
X203245717Y-75326803D01*
X203536868Y-75617954D01*
X203917274Y-75775523D01*
X204329022Y-75775523D01*
X204709428Y-75617954D01*
X205000579Y-75326803D01*
X205158148Y-74946397D01*
X205158148Y-74534649D01*
X205000579Y-74154243D01*
X204709428Y-73863092D01*
X204329022Y-73705523D01*
X203917274Y-73705523D01*
X203536868Y-73863092D01*
X203245717Y-74154243D01*
X203088148Y-74534649D01*
X146220584Y-74534649D01*
X146220584Y-74261939D01*
X146063015Y-73881533D01*
X145771864Y-73590382D01*
X145391458Y-73432813D01*
X144979710Y-73432813D01*
X144599304Y-73590382D01*
X144308153Y-73881533D01*
X144150584Y-74261939D01*
X137127000Y-74261939D01*
X137127000Y-68012509D01*
X137195752Y-67666870D01*
X137384455Y-67384455D01*
X137666870Y-67195752D01*
X138012509Y-67127000D01*
X138626583Y-67127000D01*
X138602235Y-67131843D01*
G04 #@! TD*
M02*
