G04 #@! TF.GenerationSoftware,KiCad,Pcbnew,5.0.2-bee76a0~70~ubuntu18.04.1*
G04 #@! TF.CreationDate,2019-01-02T21:11:22-05:00*
G04 #@! TF.ProjectId,stm32 prototype,73746d33-3220-4707-926f-746f74797065,rev?*
G04 #@! TF.SameCoordinates,Original*
G04 #@! TF.FileFunction,Legend,Bot*
G04 #@! TF.FilePolarity,Positive*
%FSLAX46Y46*%
G04 Gerber Fmt 4.6, Leading zero omitted, Abs format (unit mm)*
G04 Created by KiCad (PCBNEW 5.0.2-bee76a0~70~ubuntu18.04.1) date Wed 02 Jan 2019 09:11:22 PM EST*
%MOMM*%
%LPD*%
G01*
G04 APERTURE LIST*
%ADD10C,0.120000*%
%ADD11C,0.150000*%
G04 APERTURE END LIST*
D10*
G04 #@! TO.C,C12*
X174150000Y-78900000D02*
X173450000Y-78900000D01*
X173450000Y-80100000D02*
X174150000Y-80100000D01*
G04 #@! TO.C,C19*
X173400000Y-83400000D02*
X172700000Y-83400000D01*
X172700000Y-84600000D02*
X173400000Y-84600000D01*
G04 #@! TO.C,C20*
X169850000Y-62850000D02*
X169850000Y-62150000D01*
X168650000Y-62150000D02*
X168650000Y-62850000D01*
G04 #@! TO.C,C24*
X174300000Y-80650000D02*
X173600000Y-80650000D01*
X173600000Y-81850000D02*
X174300000Y-81850000D01*
G04 #@! TO.C,R3*
X180680000Y-57500000D02*
X180680000Y-56500000D01*
X179320000Y-56500000D02*
X179320000Y-57500000D01*
G04 #@! TO.C,R4*
X180680000Y-53350000D02*
X180680000Y-52350000D01*
X179320000Y-52350000D02*
X179320000Y-53350000D01*
G04 #@! TO.C,R32*
X168570000Y-58250000D02*
X168570000Y-59250000D01*
X169930000Y-59250000D02*
X169930000Y-58250000D01*
G04 #@! TO.C,C12*
D11*
X174392857Y-78107142D02*
X174440476Y-78154761D01*
X174583333Y-78202380D01*
X174678571Y-78202380D01*
X174821428Y-78154761D01*
X174916666Y-78059523D01*
X174964285Y-77964285D01*
X175011904Y-77773809D01*
X175011904Y-77630952D01*
X174964285Y-77440476D01*
X174916666Y-77345238D01*
X174821428Y-77250000D01*
X174678571Y-77202380D01*
X174583333Y-77202380D01*
X174440476Y-77250000D01*
X174392857Y-77297619D01*
X173440476Y-78202380D02*
X174011904Y-78202380D01*
X173726190Y-78202380D02*
X173726190Y-77202380D01*
X173821428Y-77345238D01*
X173916666Y-77440476D01*
X174011904Y-77488095D01*
X173059523Y-77297619D02*
X173011904Y-77250000D01*
X172916666Y-77202380D01*
X172678571Y-77202380D01*
X172583333Y-77250000D01*
X172535714Y-77297619D01*
X172488095Y-77392857D01*
X172488095Y-77488095D01*
X172535714Y-77630952D01*
X173107142Y-78202380D01*
X172488095Y-78202380D01*
G04 #@! TO.C,C19*
X173692857Y-83107142D02*
X173740476Y-83154761D01*
X173883333Y-83202380D01*
X173978571Y-83202380D01*
X174121428Y-83154761D01*
X174216666Y-83059523D01*
X174264285Y-82964285D01*
X174311904Y-82773809D01*
X174311904Y-82630952D01*
X174264285Y-82440476D01*
X174216666Y-82345238D01*
X174121428Y-82250000D01*
X173978571Y-82202380D01*
X173883333Y-82202380D01*
X173740476Y-82250000D01*
X173692857Y-82297619D01*
X172740476Y-83202380D02*
X173311904Y-83202380D01*
X173026190Y-83202380D02*
X173026190Y-82202380D01*
X173121428Y-82345238D01*
X173216666Y-82440476D01*
X173311904Y-82488095D01*
X172264285Y-83202380D02*
X172073809Y-83202380D01*
X171978571Y-83154761D01*
X171930952Y-83107142D01*
X171835714Y-82964285D01*
X171788095Y-82773809D01*
X171788095Y-82392857D01*
X171835714Y-82297619D01*
X171883333Y-82250000D01*
X171978571Y-82202380D01*
X172169047Y-82202380D01*
X172264285Y-82250000D01*
X172311904Y-82297619D01*
X172359523Y-82392857D01*
X172359523Y-82630952D01*
X172311904Y-82726190D01*
X172264285Y-82773809D01*
X172169047Y-82821428D01*
X171978571Y-82821428D01*
X171883333Y-82773809D01*
X171835714Y-82726190D01*
X171788095Y-82630952D01*
G04 #@! TO.C,C20*
X167857142Y-61857142D02*
X167904761Y-61809523D01*
X167952380Y-61666666D01*
X167952380Y-61571428D01*
X167904761Y-61428571D01*
X167809523Y-61333333D01*
X167714285Y-61285714D01*
X167523809Y-61238095D01*
X167380952Y-61238095D01*
X167190476Y-61285714D01*
X167095238Y-61333333D01*
X167000000Y-61428571D01*
X166952380Y-61571428D01*
X166952380Y-61666666D01*
X167000000Y-61809523D01*
X167047619Y-61857142D01*
X167047619Y-62238095D02*
X167000000Y-62285714D01*
X166952380Y-62380952D01*
X166952380Y-62619047D01*
X167000000Y-62714285D01*
X167047619Y-62761904D01*
X167142857Y-62809523D01*
X167238095Y-62809523D01*
X167380952Y-62761904D01*
X167952380Y-62190476D01*
X167952380Y-62809523D01*
X166952380Y-63428571D02*
X166952380Y-63523809D01*
X167000000Y-63619047D01*
X167047619Y-63666666D01*
X167142857Y-63714285D01*
X167333333Y-63761904D01*
X167571428Y-63761904D01*
X167761904Y-63714285D01*
X167857142Y-63666666D01*
X167904761Y-63619047D01*
X167952380Y-63523809D01*
X167952380Y-63428571D01*
X167904761Y-63333333D01*
X167857142Y-63285714D01*
X167761904Y-63238095D01*
X167571428Y-63190476D01*
X167333333Y-63190476D01*
X167142857Y-63238095D01*
X167047619Y-63285714D01*
X167000000Y-63333333D01*
X166952380Y-63428571D01*
G04 #@! TO.C,C24*
X171142857Y-81607142D02*
X171190476Y-81654761D01*
X171333333Y-81702380D01*
X171428571Y-81702380D01*
X171571428Y-81654761D01*
X171666666Y-81559523D01*
X171714285Y-81464285D01*
X171761904Y-81273809D01*
X171761904Y-81130952D01*
X171714285Y-80940476D01*
X171666666Y-80845238D01*
X171571428Y-80750000D01*
X171428571Y-80702380D01*
X171333333Y-80702380D01*
X171190476Y-80750000D01*
X171142857Y-80797619D01*
X170761904Y-80797619D02*
X170714285Y-80750000D01*
X170619047Y-80702380D01*
X170380952Y-80702380D01*
X170285714Y-80750000D01*
X170238095Y-80797619D01*
X170190476Y-80892857D01*
X170190476Y-80988095D01*
X170238095Y-81130952D01*
X170809523Y-81702380D01*
X170190476Y-81702380D01*
X169333333Y-81035714D02*
X169333333Y-81702380D01*
X169571428Y-80654761D02*
X169809523Y-81369047D01*
X169190476Y-81369047D01*
G04 #@! TO.C,R3*
X179002380Y-56833333D02*
X178526190Y-56500000D01*
X179002380Y-56261904D02*
X178002380Y-56261904D01*
X178002380Y-56642857D01*
X178050000Y-56738095D01*
X178097619Y-56785714D01*
X178192857Y-56833333D01*
X178335714Y-56833333D01*
X178430952Y-56785714D01*
X178478571Y-56738095D01*
X178526190Y-56642857D01*
X178526190Y-56261904D01*
X178002380Y-57166666D02*
X178002380Y-57785714D01*
X178383333Y-57452380D01*
X178383333Y-57595238D01*
X178430952Y-57690476D01*
X178478571Y-57738095D01*
X178573809Y-57785714D01*
X178811904Y-57785714D01*
X178907142Y-57738095D01*
X178954761Y-57690476D01*
X179002380Y-57595238D01*
X179002380Y-57309523D01*
X178954761Y-57214285D01*
X178907142Y-57166666D01*
G04 #@! TO.C,R4*
X178702380Y-52683333D02*
X178226190Y-52350000D01*
X178702380Y-52111904D02*
X177702380Y-52111904D01*
X177702380Y-52492857D01*
X177750000Y-52588095D01*
X177797619Y-52635714D01*
X177892857Y-52683333D01*
X178035714Y-52683333D01*
X178130952Y-52635714D01*
X178178571Y-52588095D01*
X178226190Y-52492857D01*
X178226190Y-52111904D01*
X178035714Y-53540476D02*
X178702380Y-53540476D01*
X177654761Y-53302380D02*
X178369047Y-53064285D01*
X178369047Y-53683333D01*
G04 #@! TO.C,R32*
X168252380Y-58107142D02*
X167776190Y-57773809D01*
X168252380Y-57535714D02*
X167252380Y-57535714D01*
X167252380Y-57916666D01*
X167300000Y-58011904D01*
X167347619Y-58059523D01*
X167442857Y-58107142D01*
X167585714Y-58107142D01*
X167680952Y-58059523D01*
X167728571Y-58011904D01*
X167776190Y-57916666D01*
X167776190Y-57535714D01*
X167252380Y-58440476D02*
X167252380Y-59059523D01*
X167633333Y-58726190D01*
X167633333Y-58869047D01*
X167680952Y-58964285D01*
X167728571Y-59011904D01*
X167823809Y-59059523D01*
X168061904Y-59059523D01*
X168157142Y-59011904D01*
X168204761Y-58964285D01*
X168252380Y-58869047D01*
X168252380Y-58583333D01*
X168204761Y-58488095D01*
X168157142Y-58440476D01*
X167347619Y-59440476D02*
X167300000Y-59488095D01*
X167252380Y-59583333D01*
X167252380Y-59821428D01*
X167300000Y-59916666D01*
X167347619Y-59964285D01*
X167442857Y-60011904D01*
X167538095Y-60011904D01*
X167680952Y-59964285D01*
X168252380Y-59392857D01*
X168252380Y-60011904D01*
G04 #@! TD*
M02*
