G04 #@! TF.GenerationSoftware,KiCad,Pcbnew,5.0.2-bee76a0~70~ubuntu18.04.1*
G04 #@! TF.CreationDate,2018-12-16T21:13:16-05:00*
G04 #@! TF.ProjectId,stm32 prototype,73746d33-3220-4707-926f-746f74797065,rev?*
G04 #@! TF.SameCoordinates,Original*
G04 #@! TF.FileFunction,Paste,Top*
G04 #@! TF.FilePolarity,Positive*
%FSLAX46Y46*%
G04 Gerber Fmt 4.6, Leading zero omitted, Abs format (unit mm)*
G04 Created by KiCad (PCBNEW 5.0.2-bee76a0~70~ubuntu18.04.1) date Sun 16 Dec 2018 09:13:16 PM EST*
%MOMM*%
%LPD*%
G01*
G04 APERTURE LIST*
%ADD10R,0.280000X1.500000*%
%ADD11R,1.500000X0.280000*%
%ADD12R,0.900000X0.500000*%
%ADD13R,1.400000X1.150000*%
%ADD14R,2.000000X1.500000*%
%ADD15R,2.000000X3.800000*%
%ADD16R,1.550000X0.600000*%
%ADD17R,0.800000X0.750000*%
%ADD18R,0.750000X0.800000*%
%ADD19R,1.500000X1.500000*%
%ADD20R,0.700000X0.450000*%
%ADD21R,0.500000X0.900000*%
%ADD22R,2.500000X0.900000*%
%ADD23R,1.050000X0.600000*%
G04 APERTURE END LIST*
D10*
G04 #@! TO.C,U3*
X190773813Y-108726416D03*
X190273813Y-108726416D03*
X189773813Y-108726416D03*
X189273813Y-108726416D03*
X188773813Y-108726416D03*
X188273813Y-108726416D03*
X187773813Y-108726416D03*
X187273813Y-108726416D03*
X186773813Y-108726416D03*
X186273813Y-108726416D03*
X185773813Y-108726416D03*
X185273813Y-108726416D03*
X184773813Y-108726416D03*
X184273813Y-108726416D03*
X183773813Y-108726416D03*
X183273813Y-108726416D03*
X182773813Y-108726416D03*
X182273813Y-108726416D03*
X181773813Y-108726416D03*
X181273813Y-108726416D03*
X180773813Y-108726416D03*
X180273813Y-108726416D03*
X179773813Y-108726416D03*
X179273813Y-108726416D03*
X178773813Y-108726416D03*
D11*
X176873813Y-106826416D03*
X176873813Y-106326416D03*
X176873813Y-105826416D03*
X176873813Y-105326416D03*
X176873813Y-104826416D03*
X176873813Y-104326416D03*
X176873813Y-103826416D03*
X176873813Y-103326416D03*
X176873813Y-102826416D03*
X176873813Y-102326416D03*
X176873813Y-101826416D03*
X176873813Y-101326416D03*
X176873813Y-100826416D03*
X176873813Y-100326416D03*
X176873813Y-99826416D03*
X176873813Y-99326416D03*
X176873813Y-98826416D03*
X176873813Y-98326416D03*
X176873813Y-97826416D03*
X176873813Y-97326416D03*
X176873813Y-96826416D03*
X176873813Y-96326416D03*
X176873813Y-95826416D03*
X176873813Y-95326416D03*
X176873813Y-94826416D03*
D10*
X178773813Y-92926416D03*
X179273813Y-92926416D03*
X179773813Y-92926416D03*
X180273813Y-92926416D03*
X180773813Y-92926416D03*
X181273813Y-92926416D03*
X181773813Y-92926416D03*
X182273813Y-92926416D03*
X182773813Y-92926416D03*
X183273813Y-92926416D03*
X183773813Y-92926416D03*
X184273813Y-92926416D03*
X184773813Y-92926416D03*
X185273813Y-92926416D03*
X185773813Y-92926416D03*
X186273813Y-92926416D03*
X186773813Y-92926416D03*
X187273813Y-92926416D03*
X187773813Y-92926416D03*
X188273813Y-92926416D03*
X188773813Y-92926416D03*
X189273813Y-92926416D03*
X189773813Y-92926416D03*
X190273813Y-92926416D03*
X190773813Y-92926416D03*
D11*
X192673813Y-94826416D03*
X192673813Y-95326416D03*
X192673813Y-95826416D03*
X192673813Y-96326416D03*
X192673813Y-96826416D03*
X192673813Y-97326416D03*
X192673813Y-97826416D03*
X192673813Y-98326416D03*
X192673813Y-98826416D03*
X192673813Y-99326416D03*
X192673813Y-99826416D03*
X192673813Y-100326416D03*
X192673813Y-100826416D03*
X192673813Y-101326416D03*
X192673813Y-101826416D03*
X192673813Y-102326416D03*
X192673813Y-102826416D03*
X192673813Y-103326416D03*
X192673813Y-103826416D03*
X192673813Y-104326416D03*
X192673813Y-104826416D03*
X192673813Y-105326416D03*
X192673813Y-105826416D03*
X192673813Y-106326416D03*
X192673813Y-106826416D03*
G04 #@! TD*
D12*
G04 #@! TO.C,R19*
X165073813Y-95126416D03*
X165073813Y-93626416D03*
G04 #@! TD*
D13*
G04 #@! TO.C,Y1*
X201673813Y-100276416D03*
X203873813Y-100276416D03*
X203873813Y-101876416D03*
X201673813Y-101876416D03*
G04 #@! TD*
D14*
G04 #@! TO.C,U4*
X147485584Y-84767813D03*
X147485584Y-80167813D03*
X147485584Y-82467813D03*
D15*
X141185584Y-82467813D03*
G04 #@! TD*
D16*
G04 #@! TO.C,U2*
X200323148Y-76835523D03*
X200323148Y-78105523D03*
X200323148Y-79375523D03*
X200323148Y-80645523D03*
X194923148Y-80645523D03*
X194923148Y-79375523D03*
X194923148Y-78105523D03*
X194923148Y-76835523D03*
G04 #@! TD*
D17*
G04 #@! TO.C,C1*
X201373148Y-74740523D03*
X202873148Y-74740523D03*
G04 #@! TD*
G04 #@! TO.C,C2*
X205523813Y-103576416D03*
X204023813Y-103576416D03*
G04 #@! TD*
D18*
G04 #@! TO.C,C3*
X200023813Y-100326416D03*
X200023813Y-98826416D03*
G04 #@! TD*
G04 #@! TO.C,C4*
X198523813Y-110326416D03*
X198523813Y-111826416D03*
G04 #@! TD*
G04 #@! TO.C,C5*
X198773813Y-106326416D03*
X198773813Y-104826416D03*
G04 #@! TD*
G04 #@! TO.C,C6*
X197023813Y-90076416D03*
X197023813Y-88576416D03*
G04 #@! TD*
D17*
G04 #@! TO.C,C7*
X191273813Y-87826416D03*
X189773813Y-87826416D03*
G04 #@! TD*
G04 #@! TO.C,C8*
X174523813Y-87826416D03*
X173023813Y-87826416D03*
G04 #@! TD*
D18*
G04 #@! TO.C,C9*
X171273813Y-111076416D03*
X171273813Y-109576416D03*
G04 #@! TD*
G04 #@! TO.C,C10*
X192773813Y-112076416D03*
X192773813Y-110576416D03*
G04 #@! TD*
G04 #@! TO.C,C11*
X193273813Y-90076416D03*
X193273813Y-88576416D03*
G04 #@! TD*
D17*
G04 #@! TO.C,C16*
X175773813Y-87826416D03*
X177273813Y-87826416D03*
G04 #@! TD*
D18*
G04 #@! TO.C,C17*
X145185584Y-75967813D03*
X145185584Y-77467813D03*
G04 #@! TD*
D17*
G04 #@! TO.C,C18*
X141185584Y-75967813D03*
X142685584Y-75967813D03*
G04 #@! TD*
D18*
G04 #@! TO.C,C38*
X171273813Y-107826416D03*
X171273813Y-106326416D03*
G04 #@! TD*
G04 #@! TO.C,C39*
X194523813Y-90076416D03*
X194523813Y-88576416D03*
G04 #@! TD*
G04 #@! TO.C,C40*
X195773813Y-88576416D03*
X195773813Y-90076416D03*
G04 #@! TD*
G04 #@! TO.C,C41*
X200773813Y-94076416D03*
X200773813Y-95576416D03*
G04 #@! TD*
D19*
G04 #@! TO.C,D4*
X158073813Y-79376416D03*
X154773813Y-79376416D03*
G04 #@! TD*
G04 #@! TO.C,D5*
X158073813Y-82376416D03*
X154773813Y-82376416D03*
G04 #@! TD*
G04 #@! TO.C,D6*
X154773813Y-85376416D03*
X158073813Y-85376416D03*
G04 #@! TD*
G04 #@! TO.C,D7*
X154773813Y-88376416D03*
X158073813Y-88376416D03*
G04 #@! TD*
G04 #@! TO.C,D8*
X154773813Y-91376416D03*
X158073813Y-91376416D03*
G04 #@! TD*
G04 #@! TO.C,D9*
X158073813Y-94376416D03*
X154773813Y-94376416D03*
G04 #@! TD*
G04 #@! TO.C,D10*
X154773813Y-97376416D03*
X158073813Y-97376416D03*
G04 #@! TD*
G04 #@! TO.C,D11*
X158073813Y-100376416D03*
X154773813Y-100376416D03*
G04 #@! TD*
D20*
G04 #@! TO.C,Q1*
X161573813Y-79376416D03*
X163573813Y-78726416D03*
X163573813Y-80026416D03*
G04 #@! TD*
G04 #@! TO.C,Q2*
X161573813Y-82376416D03*
X163573813Y-81726416D03*
X163573813Y-83026416D03*
G04 #@! TD*
G04 #@! TO.C,Q3*
X163573813Y-86026416D03*
X163573813Y-84726416D03*
X161573813Y-85376416D03*
G04 #@! TD*
G04 #@! TO.C,Q4*
X163573813Y-89026416D03*
X163573813Y-87726416D03*
X161573813Y-88376416D03*
G04 #@! TD*
G04 #@! TO.C,Q5*
X161573813Y-91376416D03*
X163573813Y-90726416D03*
X163573813Y-92026416D03*
G04 #@! TD*
G04 #@! TO.C,Q6*
X161573813Y-94376416D03*
X163573813Y-93726416D03*
X163573813Y-95026416D03*
G04 #@! TD*
G04 #@! TO.C,Q7*
X163573813Y-98026416D03*
X163573813Y-96726416D03*
X161573813Y-97376416D03*
G04 #@! TD*
G04 #@! TO.C,Q8*
X163573813Y-101026416D03*
X163573813Y-99726416D03*
X161573813Y-100376416D03*
G04 #@! TD*
D12*
G04 #@! TO.C,R1*
X165073813Y-78626416D03*
X165073813Y-80126416D03*
G04 #@! TD*
G04 #@! TO.C,R2*
X160073813Y-78626416D03*
X160073813Y-80126416D03*
G04 #@! TD*
D21*
G04 #@! TO.C,R9*
X190623148Y-78240523D03*
X192123148Y-78240523D03*
G04 #@! TD*
G04 #@! TO.C,R10*
X192273813Y-82826416D03*
X193773813Y-82826416D03*
G04 #@! TD*
D12*
G04 #@! TO.C,R11*
X165073813Y-81626416D03*
X165073813Y-83126416D03*
G04 #@! TD*
G04 #@! TO.C,R12*
X160073813Y-83126416D03*
X160073813Y-81626416D03*
G04 #@! TD*
G04 #@! TO.C,R13*
X165073813Y-84626416D03*
X165073813Y-86126416D03*
G04 #@! TD*
G04 #@! TO.C,R14*
X160073813Y-86126416D03*
X160073813Y-84626416D03*
G04 #@! TD*
G04 #@! TO.C,R15*
X165073813Y-89126416D03*
X165073813Y-87626416D03*
G04 #@! TD*
G04 #@! TO.C,R16*
X160073813Y-87626416D03*
X160073813Y-89126416D03*
G04 #@! TD*
G04 #@! TO.C,R17*
X165073813Y-92126416D03*
X165073813Y-90626416D03*
G04 #@! TD*
G04 #@! TO.C,R18*
X160073813Y-92126416D03*
X160073813Y-90626416D03*
G04 #@! TD*
G04 #@! TO.C,R20*
X160073813Y-95126416D03*
X160073813Y-93626416D03*
G04 #@! TD*
G04 #@! TO.C,R21*
X165073813Y-96626416D03*
X165073813Y-98126416D03*
G04 #@! TD*
G04 #@! TO.C,R22*
X160073813Y-96626416D03*
X160073813Y-98126416D03*
G04 #@! TD*
G04 #@! TO.C,R23*
X165073813Y-99626416D03*
X165073813Y-101126416D03*
G04 #@! TD*
G04 #@! TO.C,R24*
X160073813Y-99626416D03*
X160073813Y-101126416D03*
G04 #@! TD*
D21*
G04 #@! TO.C,R34*
X204873148Y-76740523D03*
X203373148Y-76740523D03*
G04 #@! TD*
G04 #@! TO.C,R35*
X203373148Y-78240523D03*
X204873148Y-78240523D03*
G04 #@! TD*
G04 #@! TO.C,R36*
X198523813Y-82826416D03*
X200023813Y-82826416D03*
G04 #@! TD*
D12*
G04 #@! TO.C,R40*
X164563813Y-123536416D03*
X164563813Y-122036416D03*
G04 #@! TD*
G04 #@! TO.C,R41*
X162023813Y-123536416D03*
X162023813Y-122036416D03*
G04 #@! TD*
G04 #@! TO.C,R42*
X159483813Y-122036416D03*
X159483813Y-123536416D03*
G04 #@! TD*
G04 #@! TO.C,R43*
X156943813Y-123536416D03*
X156943813Y-122036416D03*
G04 #@! TD*
G04 #@! TO.C,R44*
X154403813Y-122036416D03*
X154403813Y-123536416D03*
G04 #@! TD*
G04 #@! TO.C,R45*
X151863813Y-122036416D03*
X151863813Y-123536416D03*
G04 #@! TD*
G04 #@! TO.C,R46*
X190773813Y-115576416D03*
X190773813Y-117076416D03*
G04 #@! TD*
G04 #@! TO.C,R47*
X192773813Y-117076416D03*
X192773813Y-115576416D03*
G04 #@! TD*
G04 #@! TO.C,R48*
X202273813Y-94076416D03*
X202273813Y-95576416D03*
G04 #@! TD*
D21*
G04 #@! TO.C,R49*
X192123148Y-76740523D03*
X190623148Y-76740523D03*
G04 #@! TD*
D17*
G04 #@! TO.C,C42*
X143745584Y-98421813D03*
X142245584Y-98421813D03*
G04 #@! TD*
G04 #@! TO.C,C43*
X146812000Y-90678000D03*
X145312000Y-90678000D03*
G04 #@! TD*
D19*
G04 #@! TO.C,D12*
X155932187Y-105885584D03*
X152632187Y-105885584D03*
G04 #@! TD*
G04 #@! TO.C,D13*
X152632187Y-108685584D03*
X155932187Y-108685584D03*
G04 #@! TD*
D22*
G04 #@! TO.C,L3*
X140635584Y-96617813D03*
X140635584Y-93717813D03*
G04 #@! TD*
D12*
G04 #@! TO.C,R50*
X149782187Y-106435584D03*
X149782187Y-104935584D03*
G04 #@! TD*
G04 #@! TO.C,R51*
X149782187Y-109435584D03*
X149782187Y-107935584D03*
G04 #@! TD*
D23*
G04 #@! TO.C,U7*
X143535584Y-96117813D03*
X143535584Y-94217813D03*
X146235584Y-94217813D03*
X146235584Y-95167813D03*
X146235584Y-96117813D03*
G04 #@! TD*
D12*
G04 #@! TO.C,R52*
X198773813Y-100326416D03*
X198773813Y-101826416D03*
G04 #@! TD*
G04 #@! TO.C,R31*
X208072925Y-87344117D03*
X208072925Y-85844117D03*
G04 #@! TD*
G04 #@! TO.C,R32*
X209672925Y-87344117D03*
X209672925Y-85844117D03*
G04 #@! TD*
D18*
G04 #@! TO.C,C20*
X211076416Y-85976187D03*
X211076416Y-87476187D03*
G04 #@! TD*
D12*
G04 #@! TO.C,R3*
X220500000Y-104250000D03*
X220500000Y-105750000D03*
G04 #@! TD*
D21*
G04 #@! TO.C,R4*
X219500000Y-107500000D03*
X218000000Y-107500000D03*
G04 #@! TD*
M02*
